<svg width="18" height="15" viewBox="0 0 18 15" fill="none" xmlns="http://www.w3.org/2000/svg">
<g id="Group 2158">
<path id="Vector 267" d="M5 1L3 3.16667C1.87049 4.3903 1.87049 6.27637 3 7.5V7.5C4.12951 8.72363 4.12951 10.6097 3 11.8333L1 14" stroke="url(#paint0_linear_123_3464)" stroke-width="1.5" stroke-linecap="round"/>
<path id="Vector 268" d="M11 1L9 3.16667C7.87049 4.3903 7.87049 6.27637 9 7.5V7.5C10.1295 8.72363 10.1295 10.6097 9 11.8333L7 14" stroke="url(#paint1_linear_123_3464)" stroke-width="1.5" stroke-linecap="round"/>
<path id="Vector 269" d="M17 1L15 3.16667C13.8705 4.3903 13.8705 6.27637 15 7.5V7.5C16.1295 8.72363 16.1295 10.6097 15 11.8333L13 14" stroke="url(#paint2_linear_123_3464)" stroke-width="1.5" stroke-linecap="round"/>
</g>
<defs>
<linearGradient id="paint0_linear_123_3464" x1="3" y1="1" x2="3" y2="14" gradientUnits="userSpaceOnUse">
<stop stop-color="#FFEAA5"/>
<stop offset="1" stop-color="#6D4C3A"/>
</linearGradient>
<linearGradient id="paint1_linear_123_3464" x1="9" y1="1" x2="9" y2="14" gradientUnits="userSpaceOnUse">
<stop stop-color="#FFEAA5"/>
<stop offset="1" stop-color="#6D4C3A"/>
</linearGradient>
<linearGradient id="paint2_linear_123_3464" x1="15" y1="1" x2="15" y2="14" gradientUnits="userSpaceOnUse">
<stop stop-color="#FFEAA5"/>
<stop offset="1" stop-color="#6D4C3A"/>
</linearGradient>
</defs>
</svg>
