<svg width="26" height="29" viewBox="0 0 26 29" fill="none" xmlns="http://www.w3.org/2000/svg">
<g id="Group 2149">
<path id="Vector 258" d="M9.12627 4.66647L2.91181 10.8809C2.16166 11.6311 1.74023 12.6485 1.74023 13.7094V25.4673C1.74023 26.5719 2.63566 27.4673 3.74023 27.4673H7.45632C8.57499 27.4673 9.47615 26.5498 9.456 25.4313L9.34906 19.4972C9.3289 18.3787 10.2301 17.4612 11.3487 17.4612H14.9553C16.0319 17.4612 16.9153 18.3133 16.954 19.3892L17.1757 25.5393C17.2144 26.6152 18.0978 27.4673 19.1744 27.4673H22.9976C24.1022 27.4673 24.9976 26.5719 24.9976 25.4673V13.7094C24.9976 12.6485 24.5762 11.6311 23.826 10.8809L17.6116 4.66647C15.2684 2.32332 11.4694 2.32332 9.12627 4.66647Z" stroke="#CFCFCF" stroke-width="2"/>
</g>
</svg>
