<svg width="78" height="22" viewBox="0 0 78 22" fill="none" xmlns="http://www.w3.org/2000/svg">
<g id="Group 2130">
<g id="Group 79">
<g id="outfoot">
<path id="Vector" d="M76.8258 16.4773C76.9417 16.4773 77.0344 16.57 77.0112 16.6859L76.5708 19.5831C76.5708 19.6759 76.5013 19.7454 76.4086 19.7686C75.9682 19.7918 74.8556 19.8381 74.508 19.8381C74.4848 19.8381 74.4616 19.8381 74.4384 19.8381C72.3756 19.7454 71.2631 18.6792 71.2631 16.7554V10.8682C71.2631 10.7755 71.1704 10.6828 71.0776 10.6828H69.8029C69.687 10.6828 69.6174 10.5901 69.6174 10.4742V7.57697C69.6174 7.48426 69.687 7.39155 69.8029 7.39155H71.0776C71.1704 7.39155 71.2631 7.29883 71.2631 7.18295V3.82214C71.2631 3.72943 71.3558 3.63672 71.4717 3.63672H74.8788C74.9947 3.63672 75.0874 3.72943 75.0874 3.82214V7.18295C75.0874 7.29883 75.1801 7.39155 75.2728 7.39155H76.5476C76.6635 7.39155 76.7562 7.48426 76.7562 7.57697V10.4742C76.7562 10.5901 76.6635 10.6828 76.5476 10.6828H75.2728C75.1801 10.6828 75.0874 10.7755 75.0874 10.8682C75.0874 11.8881 75.0874 14.9012 75.0874 14.9244V15.0171C75.0643 15.3879 75.0411 15.8979 75.3424 16.1992C75.5278 16.3846 75.8059 16.4773 76.1536 16.4773H76.8258Z" fill="#DFC4B6"/>
<path id="Vector_2" d="M60.5616 5.73051C63.9634 4.57555 67.6528 6.35817 68.7929 9.71615C69.9255 13.0522 68.0915 16.7345 64.6896 17.8894C61.2878 19.0444 57.6129 17.2324 56.4803 13.8964C55.3402 10.5384 57.1597 6.88547 60.5616 5.73051ZM63.5272 14.4656C65.0196 13.9589 65.8169 12.342 65.3251 10.8935C64.8259 9.42298 63.2164 8.64763 61.724 9.15433C60.2535 9.65357 59.4488 11.2486 59.948 12.719C60.4398 14.1676 62.0567 14.9649 63.5272 14.4656Z" fill="#DFC4B6"/>
<path id="Vector_3" d="M49.7752 7.55375C53.1771 6.39879 56.8664 8.18141 58.0065 11.5394C59.1391 14.8754 57.3051 18.5577 53.9033 19.7127C50.5014 20.8677 46.8265 19.0556 45.6939 15.7196C44.5539 12.3616 46.3733 8.70872 49.7752 7.55375ZM52.7408 16.2889C54.2333 15.7822 55.0306 14.1652 54.5388 12.7167C54.0395 11.2462 52.43 10.4709 50.9376 10.9776C49.4671 11.4768 48.6624 13.0718 49.1616 14.5423C49.6534 15.9908 51.2704 16.7881 52.7408 16.2889Z" fill="#DFC4B6"/>
<path id="Vector_4" d="M44.2132 6.6269C43.8887 6.6269 43.6337 6.71962 43.4483 6.90504C43.147 7.20635 43.147 7.76262 43.147 8.17983C43.147 8.27254 43.2397 8.36525 43.3324 8.36525H44.6072C44.7231 8.36525 44.8158 8.45796 44.8158 8.55067V11.4479C44.8158 11.5638 44.7231 11.6565 44.6072 11.6565H43.3324C43.2397 11.6565 43.147 11.7261 43.147 11.8419V19.4675C43.147 19.5602 43.0543 19.6529 42.9384 19.6529H39.5312C39.4153 19.6529 39.3226 19.5602 39.3226 19.4675V18.7953V11.8419C39.3226 11.7261 39.2299 11.6565 39.1372 11.6565H37.8624C37.7465 11.6565 37.677 11.5638 37.677 11.4479V8.55067C37.677 8.45796 37.7465 8.36525 37.8624 8.36525H39.1372C39.2299 8.36525 39.3226 8.27254 39.3226 8.17983V6.71962C39.3226 4.0078 41.5477 3.59059 42.498 3.54424C42.7762 3.52106 42.9384 3.54424 42.9616 3.54424H44.8853C45.0012 3.54424 45.0939 3.63695 45.0939 3.75284L44.8158 6.46466C44.8158 6.55737 44.7231 6.6269 44.6304 6.6269H44.2132Z" fill="#DFC4B6"/>
<path id="Vector_5" d="M36.8045 16.4773C36.9204 16.4773 37.0131 16.57 36.99 16.6859L36.5496 19.5831C36.5496 19.6759 36.48 19.7454 36.3873 19.7686C35.9469 19.7918 34.8344 19.8381 34.4867 19.8381C34.4636 19.8381 34.4404 19.8381 34.4172 19.8381C32.3544 19.7454 31.2418 18.6792 31.2418 16.7554V10.8682C31.2418 10.7755 31.1491 10.6828 31.0564 10.6828H29.7816C29.6657 10.6828 29.5962 10.5901 29.5962 10.4742V7.57697C29.5962 7.48426 29.6657 7.39155 29.7816 7.39155H31.0564C31.1491 7.39155 31.2418 7.29883 31.2418 7.18295V3.82214C31.2418 3.72943 31.3345 3.63672 31.4504 3.63672H34.8576C34.9735 3.63672 35.0662 3.72943 35.0662 3.82214V7.18295C35.0662 7.29883 35.1589 7.39155 35.2516 7.39155H36.5264C36.6423 7.39155 36.735 7.48426 36.735 7.57697V10.4742C36.735 10.5901 36.6423 10.6828 36.5264 10.6828H35.2516C35.1589 10.6828 35.0662 10.7755 35.0662 10.8682C35.0662 11.8881 35.0662 14.9012 35.0662 14.9244V15.0171C35.043 15.3879 35.0198 15.8979 35.3211 16.1992C35.5066 16.3846 35.7847 16.4773 36.1324 16.4773H36.8045Z" fill="#DFC4B6"/>
<path id="Vector_6" d="M28.5633 7.39185C28.6792 7.39185 28.7719 7.48456 28.7719 7.60045V19.4676C28.7719 19.5603 28.6792 19.653 28.5633 19.653H25.1561C25.0402 19.653 24.9475 19.5603 24.9475 19.4676V19.1199C24.9475 19.0504 24.8548 19.004 24.8084 19.0504C23.9509 19.6298 23.0933 19.8384 22.3284 19.8384C20.6364 19.8384 19.3384 18.8418 19.3153 18.8186C19.2226 18.749 19.1298 18.6563 19.0603 18.5636H19.0371C17.8087 17.312 17.6001 16.2922 17.6001 14.4843V7.60045C17.6001 7.48456 17.6696 7.39185 17.7855 7.39185H21.4476C21.5403 7.39185 21.6331 7.48456 21.6331 7.60045V14.2989C21.6331 14.7624 21.6562 15.2723 21.8417 15.6896C21.9344 15.875 22.0503 16.014 22.1893 16.1299C22.4211 16.3154 22.7224 16.4081 23.0933 16.4081C23.8118 16.4081 24.3449 16.1531 24.5303 15.7591C24.7157 15.3419 24.7157 14.7624 24.7157 14.2989V7.60045C24.7157 7.48456 24.8084 7.39185 24.9243 7.39185H28.5633Z" fill="#DFC4B6"/>
<path id="Vector_7" d="M10.6141 7.2063C14.2067 7.2063 17.1271 10.0804 17.1271 13.6266C17.1271 17.1496 14.2067 20.0469 10.6141 20.0469C7.02151 20.0469 4.12427 17.1496 4.12427 13.6266C4.12427 10.0804 7.02151 7.2063 10.6141 7.2063ZM10.6141 16.4311C12.1902 16.4311 13.465 15.1563 13.465 13.6266C13.465 12.0737 12.1902 10.8221 10.6141 10.8221C9.06117 10.8221 7.78638 12.0737 7.78638 13.6266C7.78638 15.1563 9.06117 16.4311 10.6141 16.4311Z" fill="#DFC4B6"/>
</g>
<circle id="Ellipse 76" cx="2.42887" cy="5.71696" r="1.67497" fill="#DFC4B6"/>
<circle id="Ellipse 77" cx="7.20524" cy="2.33512" r="1.67497" fill="#DFC4B6"/>
<circle id="Ellipse 78" cx="13.0099" cy="2.33512" r="1.67497" fill="#DFC4B6"/>
</g>
</g>
</svg>
