<svg width="19" height="22" viewBox="0 0 19 22" fill="none" xmlns="http://www.w3.org/2000/svg">
<g id="Vector">
<path d="M1.40197 21.9099C0.649919 22.2514 -0.161183 21.5689 0.0277337 20.7536L2.74256 9.03635C2.91185 8.30571 3.77676 8.01017 4.34541 8.48866L12.4379 15.2981C13.0065 15.7766 12.8832 16.6961 12.2093 17.0021L1.40197 21.9099Z" fill="#FFEAA5"/>
<path d="M9.93115 4.94497L11.3625 5.41571L9.87572 10.0924L8.4444 9.62162L9.93115 4.94497Z" fill="#FFEAA5"/>
<path d="M9.65955 0L10.3982 1.33286L6.18868 3.74646L5.44999 2.4136L9.65955 0Z" fill="#FFEAA5"/>
<path d="M17.6693 1.21623L18.9998 1.93014L16.745 6.27737L15.4145 5.56346L17.6693 1.21623Z" fill="#FFEAA5"/>
<path d="M18.73 11.247L19 12.7522L14.2462 13.6345L13.9761 12.1293L18.73 11.247Z" fill="#FFEAA5"/>
</g>
</svg>
