<svg width="23" height="23" viewBox="0 0 23 23" fill="none" xmlns="http://www.w3.org/2000/svg">
<g id="Group 2145">
<path id="Vector 255" d="M3.02275 4.81045L1.47551 7.53857C1.21011 8.00652 1.37115 8.59487 1.79505 8.92612C4.35634 10.9276 3.22646 12.8356 1.83512 13.9266C1.40036 14.2675 1.21372 14.8692 1.47727 15.3548L3.02138 18.1997C3.27852 18.6735 3.86369 18.8501 4.36646 18.6557C7.63628 17.3916 8.78959 19.235 9.04193 20.9513C9.12516 21.5173 9.57195 22 10.144 22H13.2057C13.758 22 14.193 21.5463 14.2745 21.0001C14.7012 18.1382 17.0257 18.1212 18.7519 18.6785C19.2731 18.8468 19.8669 18.6567 20.1158 18.1689L21.58 15.2987C21.8171 14.8339 21.646 14.2726 21.2443 13.9396C19.072 12.1386 20.1118 10.1282 21.3332 8.93875C21.6915 8.58978 21.8246 8.04787 21.5893 7.60648L20.1054 4.82298C19.8583 4.35944 19.2947 4.17754 18.7921 4.33042C16.0083 5.17727 14.7747 3.45156 14.3628 1.91252C14.2275 1.40722 13.8014 1 13.2783 1H10.0661C9.52411 1 9.09312 1.43782 8.99989 1.97168C8.49503 4.86253 6.09146 4.88568 4.34891 4.33921C3.84804 4.18214 3.28171 4.35385 3.02275 4.81045Z" stroke="#3E3E3E" stroke-width="1.5"/>
<ellipse id="Ellipse 222" cx="12" cy="11.5" rx="4" ry="3.5" stroke="#3E3E3E" stroke-width="1.5"/>
</g>
</svg>
