<svg width="156" height="188" viewBox="0 0 156 188" fill="none" xmlns="http://www.w3.org/2000/svg">
<g id="polar bear 1" clip-path="url(#clip0_1065_1470)">
<path id="Vector" d="M7.2996 68.3C5.9996 68.5 7.0996 74.2 5.69959 76.6C4.19959 79.3 9.59959 87.3 11.1996 88.5C22.7996 97.3 47.1996 123.8 44.1996 137.9C43.6996 140.2 39.9996 150.9 24.0996 153.8C24.0996 153.8 5.69959 150.2 2.5996 151.6C0.499595 153.1 0.0995951 156 0.0995951 156C-0.400405 157.8 0.399595 161.6 0.999595 163C4.8996 172.2 16.2996 183.6 29.4996 185.5C48.0996 186.2 59.1996 181.2 59.1996 181.2C59.1996 181.2 81.5996 187.3 100.2 180.8C100.2 180.8 110.1 186.5 122 187.3C140.9 188 165.9 161.5 151.1 153C151.1 153 145.2 161.2 134.6 154.3C134.3 154.1 134.3 153.9 135 153.6C136 151.4 136.4 149.2 136.8 148.2C137.3 146.9 138 144.1 137.6 139.5C138.6 134 136.5 122.7 131.5 118.5C128.8 111.2 124.8 115.7 123.8 110.4C123.4 108.4 124.5 105.8 128.3 101.9C128.3 101.9 139.9 94.2 142.7 86.7C145.9 78.2 143.7 67.2 141.4 62.3C138.6 56.6 141.5 62.7 138.8 51.8C139.7 51.4 149.3 48.4 151.5 38.7C152.9 32.7 149.2 22.9 147.2 20.2C135.7 7.4 131.2 21.4 115 18C108.6 16.7 75.0996 10.9 61.0996 11.6C45.0996 12.5 33.4996 -2.8 27.2996 11C24.8996 16.3 22.3996 20 23.7996 27.6C25.0996 34.8 30.2996 38.2 30.2996 38.2C31.0996 46 27.7996 44.4 26.5996 50.1C25.9996 53.3 24.0996 56.8 21.1996 59.4C21.1996 59.4 16.5996 58.8 15.5996 63.5C15.8996 63.3 12.4996 62.2 9.79959 64.3C7.29959 66.3 7.2996 68.3 7.2996 68.3Z" fill="#D3B881"/>
<path id="Vector_2" d="M128.8 153.4C130.8 152 132.6 155.2 130.3 158.5C129.6 159.4 128.6 160.6 124.8 162.3C123.4 162.9 120.9 163.5 120.1 163.8C116.2 165.3 113.3 166.4 113.2 166.5C107.5 170 73.7002 145.7 30.0002 110.2C23.2002 104.4 18.4002 97.9 14.9002 91.9C12.8002 88.2 11.8002 83.8 11.8002 83.8C11.2002 82.3 10.3002 79 9.4002 75.8C9.3002 75.2 12.6002 74.4 12.0002 72.5C8.1002 71.3 7.3002 69.4 7.4002 68.3C7.4002 68.3 7.0002 68.3 6.8002 68.3C6.1002 68.3 5.8002 68.4 5.2002 68.5C3.7002 68.8 2.8002 69.8 2.4002 70.2C2.2002 70.4 2.3002 70.6 2.2002 70.7C1.2002 71.9 2.5002 78.1 2.6002 78.5C3.8002 83 4.9002 84 5.8002 86.7C6.2002 91.1 5.30019 90.5 5.7002 94.4C6.3002 99.5 9.2002 105.4 9.2002 105.4C11.0002 109 11.0002 108.3 14.0002 113.5C18.4002 122.4 18.5002 123.9 21.2002 130.4C25.0002 139.5 33.2002 142.8 33.2002 142.8C28.0002 147.2 27.5002 148.4 24.8002 152C24.8002 152 15.6002 147.6 8.4002 148.9C5.3002 149.4 2.8002 151.6 2.8002 151.6C1.7002 157.6 10.6002 168.2 12.8002 170.1C21.9002 177.9 28.8002 176 37.5002 180C40.4002 178.9 44.7002 177.8 49.7002 176.6C52.2002 176 55.2002 175.6 59.2002 175.3C74.5002 174.4 92.5002 175.1 101 175.3C113.6 175.5 115.5 181.7 132 180C147.6 172.9 157.8 157 151.2 153.1C147.7 151.8 138.3 152.1 134.7 154.4C134.7 154.4 139.6 147 140.4 135.2C141.4 121.2 132.9 108.2 128.4 101.8C128.4 101.8 126 103.2 125.3 103.5L122 104.9C124.5 107.3 115.6 117.7 118.7 124.1C122.1 131 122.9 128.9 126.2 135C124.7 137 120.9 139 120.7 140.3C120.4 142.4 120.5 147.9 123.7 149.6C126.1 150.9 129.4 150.3 131.8 148.2" fill="#FFF7EB"/>
<path id="Vector_3" d="M113.6 102.6C119.6 100.5 138.4 96.7 142.3 74.8C144 65.4 140.3 58.4 137.4 46.9C137.4 46.9 150.5 44.7 149.3 28.4C149.3 27.1 149.1 25.3 148.4 23.2C146.1 16.5 139 11.1 132.1 10.8C123.8 10.6 115 18 115 18C111.6 15.7 101 9.7 84.9998 8.8C72.7998 8.1 61.0998 11.6 61.0998 11.6C59.3998 1.5 45.6998 -2.5 36.1998 1.5C28.4998 6.2 26.3998 12.1 25.9998 16.2C25.5998 20.5 26.8998 25.7 26.8998 25.7C28.3998 30.7 32.7998 34.1 32.7998 34.1C31.3998 36.2 31.3998 36.3 29.7998 39.3C23.3998 51.3 21.2998 59.3 21.2998 59.3C21.2998 59.3 24.7998 59.8 26.8998 62.3C34.3998 53.8 66.4998 74.1 73.3998 75C73.3998 75 103.6 81.9 124.8 96.9" fill="#FFF7EB"/>
<path id="Vector_4" d="M61.9002 17.9C52.6002 21.7 47.3002 27.2 43.6002 31.4C37.6002 38.2 34.3002 44.9 30.9002 51.4C29.7002 53.8 26.7002 62.4 26.7002 62.4C26.7002 62.4 30.1002 60.4 32.6002 61C37.5002 62.3 37.8002 72.4 37.8002 72.4C37.8002 72.4 39.6002 74.8 40.9002 78.9C44.6002 89.5 43.1002 92.5 42.3002 94.5C42.3002 94.5 56.6002 100.8 65.0002 102.4C74.1002 104.7 93.2002 105.6 107.5 104C119.8 102 127.8 97.7 133.3 88.5C139.3 78.6 136.3 66.9 133.9 57.4C132.5 51.7 130.3 41.7 122.5 32.8C110.7 19.5 98.1002 16.3 90.2002 15.5C84.2002 14.8 73.1002 13.3 61.9002 17.9Z" fill="#F9EFDB"/>
<path id="Vector_5" d="M122 105C130.9 111.8 133.2 124.2 133.6 126.2C134.1 129 135.4 138.3 133.2 145C131.9 149 129.3 154 125.1 156.8C122.9 158.3 119.7 159.7 117.1 159.8C112.9 159.9 112.8 156.5 112.8 156.5C112.8 156.5 110.9 160.5 108.7 159.3C107.1 158.5 106.5 155.2 107 155.4C107 155.4 103.7 156.7 102.6 155.6C101.6 154.7 102 151 102 151C102 151 98.9 150.6 98.4 149.6C97.4 147.6 99.8 145.7 100.2 145.4C102 144 104.9 143.3 106.4 141.3C109 137.9 110.1 132.8 108.4 131.6C107.2 130.8 105.6 131.8 105 133.5C104.1 136.1 103.3 137.6 101.1 139.1C97.1 141.9 94.7 142.5 93.7 145.6C91.8 151.3 97.3 154.9 97.3 154.9C96.8 156.4 98.6 158.7 99.7 159.4C102.2 161 104.7 160.1 104.7 160.1C104.7 160.1 104.8 163.1 107 164C110.6 165.6 113.1 163.2 113.1 163.2C113.1 163.2 115.7 165.2 119.9 163.8C123.4 163.6 130.5 160.3 134.3 159.1C141 157 147.2 156.6 148.9 159.5C150.2 161.7 147.1 167.2 146.7 168C143.9 173.3 137 178 133.9 179.3C128.9 181.4 122.3 183.2 116.1 182C109 180.7 100.9 175.4 100.9 175.4C100.9 175.4 94.3 177.3 86.4 178.4C74.4 180.1 59 175.4 59 175.4C59 175.4 51.8 178.7 42.4 179.7C35.6 180.4 30.5 180.6 24.6 178C17.3 174.7 9.40005 168.8 6.00005 161.4C5.50005 160.3 5.20005 157.4 6.60005 155.9C8.00005 154.5 10.8 153.1 19.5 155.9C27.7 158.5 31.7 161.1 34.7 163.2C42 168.1 45.9 174.2 45.9 174.2C45.9 174.2 46.3 170.8 44.8 167.7C41 159.9 29.5 154.5 29.5 154.5C30.8 151.9 33.4 149.8 36 147.5C38.3 145.5 39.8 144.8 40.9 143.5C42.3 141.9 42.7 141 42.7 141C42.7 141 39.9 140.4 34.3 137.2C26.4 132.6 27.2 128.2 20.4 114.4C18.2 109.9 15.7 105.1 13.6 101.4C10.3 95.7 10.7 91.5 11.5 84.2C11.5 84.2 5.90005 77.8 7.10005 74.3C8.10005 71.4 10.6 72.4 10.6 72.4C11.1 65.5 17.5 68.3 17.5 68.3C17.5 68.3 18.1 64.8 20.7 64.2C24 63.5 26.3 67.3 26.3 67.3C26.3 67.3 27.3 66.1 29.9 65.8C33.7 66.3 33.1 73.3 33.1 73.3C33.1 73.3 35.6 76.8 36.6 80.6C37.1 82.3 41.6 93.4 34.7 96.8C31.9 98.2 26.8 97.1 26.6 97.8C26.2 99.5 28.8 101.4 30.2 101.8C34.3 102.9 40.3 99.1 40.3 99.1C40.3 99.4 49.6 103.7 56.2 105.5C69.6 109.1 76.5 109.6 94.1 110.1C108.9 110.1 122 105 122 105Z" fill="#F9EFDB"/>
<path id="Vector_6" d="M36.1996 28.9C33.5996 28.4 31.3996 23.9 30.9996 21C30.0996 14.7 33.3996 10.2 35.5996 8.4C39.4996 5.2 46.8996 4.1 50.8996 6.5C52.9996 7.8 56.5996 10.8 56.3996 13.7C56.3996 13.7 52.0996 16 45.5996 20.5C39.7996 25.2 36.1996 28.9 36.1996 28.9Z" fill="#F9EFDB"/>
<path id="Vector_7" d="M135.4 41.5C138.1 41.6 141.7 37.1 142.9 34.4C145.4 28.6 142.8 23.5 141.1 21.2C138.1 17.1 131.3 14.2 126.8 15.6C124.5 16.3 119.6 18.5 119.1 21.4C119.1 21.4 123.3 24.5 128.5 30.5C132.8 36.4 135.4 41.5 135.4 41.5Z" fill="#F9EFDB"/>
<path id="Vector_8" d="M64.9004 55.3C67.6618 55.3 69.9004 53.0614 69.9004 50.3C69.9004 47.5386 67.6618 45.3 64.9004 45.3C62.139 45.3 59.9004 47.5386 59.9004 50.3C59.9004 53.0614 62.139 55.3 64.9004 55.3Z" fill="#557A67"/>
<path id="Vector_9" d="M100.2 61.5C102.962 61.5 105.2 59.2614 105.2 56.5C105.2 53.7386 102.962 51.5 100.2 51.5C97.4388 51.5 95.2002 53.7386 95.2002 56.5C95.2002 59.2614 97.4388 61.5 100.2 61.5Z" fill="#557A67"/>
<path id="Vector_10" d="M86.2996 68.1C86.0996 70.8 81.9996 73.6 79.2996 73.6C76.5996 73.6 72.7996 69.3 73.2996 66.6C73.8996 63.3 76.9996 63.1 79.6996 63.1C82.3996 63.1 86.4996 64.8 86.2996 68.1Z" fill="#557A67"/>
<path id="Vector_11" d="M95.8996 81.8C89.0996 86.8 84.9996 87 79.0996 87C70.6996 86.6 64.8996 82.4 62.2996 78.4C60.7996 75.5 59.3996 71.1 59.9996 69.2C60.4996 67.5 63.7996 65.6 64.6996 70.8C66.6996 79.1 73.4996 82.1 78.6996 82.1C84.4996 82.1 86.9996 81.7 92.6996 77.4C95.9996 74.5 96.9996 71.8 99.1996 72.5C102.9 74.5 99.3996 79.6 95.8996 81.8Z" fill="#D3B881"/>
</g>
<defs>
<clipPath id="clip0_1065_1470">
<rect width="155.7" height="187.4" fill="white"/>
</clipPath>
</defs>
</svg>
