<svg width="21" height="24" viewBox="0 0 21 24" fill="none" xmlns="http://www.w3.org/2000/svg">
<g id="Group 2170">
<path id="Rectangle 2587" d="M8 20H13V20.5C13 21.8807 11.8807 23 10.5 23V23C9.11929 23 8 21.8807 8 20.5V20Z" stroke="#3E3E3E" stroke-width="1.5"/>
<path id="Union" d="M8.11384 2.75194L7.39812 2.52779L8.11384 2.75194ZM13.6343 3.68433L13.3205 4.36554L13.6343 3.68433ZM12.8862 2.75194L13.6019 2.52778L12.8862 2.75194ZM13.3205 4.36554C15.6414 5.43461 17.25 7.78023 17.25 10.5H18.75C18.75 7.1733 16.781 4.30805 13.9481 3.00312L13.3205 4.36554ZM10.5 1.75C11.283 1.75 11.9476 2.26472 12.1704 2.97609L13.6019 2.52778C13.1887 1.2086 11.9573 0.25 10.5 0.25V1.75ZM8.82956 2.97609C9.05235 2.26472 9.71705 1.75 10.5 1.75V0.25C9.04271 0.25 7.81127 1.2086 7.39812 2.52779L8.82956 2.97609ZM3.75 10.5C3.75 7.78023 5.35857 5.43461 7.67949 4.36554L7.05192 3.00312C4.21899 4.30805 2.25 7.1733 2.25 10.5H3.75ZM3.75 16.5V10.5H2.25V16.5H3.75ZM1.75 18.5C1.75 18.0858 2.08579 17.75 2.5 17.75V16.25C1.25736 16.25 0.25 17.2574 0.25 18.5H1.75ZM2.5 19.25C2.08579 19.25 1.75 18.9142 1.75 18.5H0.25C0.25 19.7426 1.25736 20.75 2.5 20.75V19.25ZM18.5 19.25H2.5V20.75H18.5V19.25ZM19.25 18.5C19.25 18.9142 18.9142 19.25 18.5 19.25V20.75C19.7426 20.75 20.75 19.7426 20.75 18.5H19.25ZM18.5 17.75C18.9142 17.75 19.25 18.0858 19.25 18.5H20.75C20.75 17.2574 19.7426 16.25 18.5 16.25V17.75ZM17.25 10.5V16.5H18.75V10.5H17.25ZM18.5 16.25C18.6381 16.25 18.75 16.3619 18.75 16.5H17.25C17.25 17.1904 17.8096 17.75 18.5 17.75V16.25ZM7.39812 2.52779C7.31481 2.7938 7.17411 2.94684 7.05192 3.00312L7.67949 4.36554C8.30805 4.076 8.66584 3.49887 8.82956 2.97609L7.39812 2.52779ZM2.25 16.5C2.25 16.3619 2.36193 16.25 2.5 16.25V17.75C3.19036 17.75 3.75 17.1904 3.75 16.5H2.25ZM13.9481 3.00312C13.8259 2.94684 13.6852 2.7938 13.6019 2.52778L12.1704 2.97609C12.3342 3.49887 12.692 4.076 13.3205 4.36554L13.9481 3.00312Z" fill="#3E3E3E"/>
</g>
</svg>
