<svg width="22" height="20" viewBox="0 0 22 20" fill="none" xmlns="http://www.w3.org/2000/svg">
<g id="Group 2171">
<path id="Union" fill-rule="evenodd" clip-rule="evenodd" d="M1 6.53701C0.999997 5.62938 2.11177 5.19117 2.73106 5.85469L6.76131 10.1728C7.25132 10.6978 8.11855 10.5505 8.40772 9.89313L10.0847 6.08087C10.435 5.2844 11.565 5.2844 11.9154 6.08087L13.9127 10.6213C14.2018 11.2787 15.0691 11.426 15.5591 10.901L20.2689 5.85468C20.8882 5.19116 22 5.62938 22 6.537L22 18C22 18.5523 21.5523 19 21 19H18.008C17.815 19 17.6856 19.1983 17.7633 19.375C17.841 19.5517 17.7116 19.75 17.5186 19.75H4.48151C4.28848 19.75 4.15907 19.5517 4.23679 19.375C4.31451 19.1983 4.1851 19 3.99207 19H2.00003C1.44775 19 1.00003 18.5523 1.00003 18L1 6.53701Z" fill="#5B411C"/>
<circle id="Ellipse 258" cx="1.5" cy="1.5" r="1.5" fill="#5B411C"/>
<circle id="Ellipse 259" cx="10.5" cy="1.5" r="1.5" fill="#5B411C"/>
<circle id="Ellipse 260" cx="20.5" cy="1.5" r="1.5" fill="#5B411C"/>
</g>
</svg>
