<svg width="26" height="29" viewBox="0 0 26 29" fill="none" xmlns="http://www.w3.org/2000/svg">
<g id="Group 2149">
<path id="Vector 258" d="M8.77129 4.66647L2.55683 10.8809C1.80668 11.6311 1.38525 12.6485 1.38525 13.7094V25.4673C1.38525 26.5719 2.28068 27.4673 3.38525 27.4673H7.10134C8.22001 27.4673 9.12117 26.5498 9.10102 25.4313L8.99408 19.4972C8.97392 18.3787 9.87508 17.4612 10.9938 17.4612H14.6004C15.6769 17.4612 16.5603 18.3133 16.5991 19.3892L16.8207 25.5393C16.8595 26.6152 17.7428 27.4673 18.8194 27.4673H22.6426C23.7472 27.4673 24.6426 26.5719 24.6426 25.4673V13.7094C24.6426 12.6485 24.2212 11.6311 23.471 10.8809L17.2566 4.66647C14.9134 2.32332 11.1144 2.32332 8.77129 4.66647Z" stroke="#CFCFCF" stroke-width="2"/>
</g>
</svg>
