<svg width="15" height="17" viewBox="0 0 15 17" fill="none" xmlns="http://www.w3.org/2000/svg">
<g id="Group 2178">
<rect id="Rectangle 2591" y="6" width="15" height="11" rx="3" fill="#C8AA9B"/>
<path id="Vector 282" d="M2 5V5C2 2.79086 3.79086 1 6 1H8C10.2091 1 12 2.79086 12 5V5" stroke="#C8AA9B" stroke-linecap="round"/>
<path id="Union" fill-rule="evenodd" clip-rule="evenodd" d="M8.74653 11.3346C8.90661 11.096 9 10.8089 9 10.5C9 9.67157 8.32843 9 7.5 9C6.67157 9 6 9.67157 6 10.5C6 11.1544 6.41907 11.7109 7.00349 11.9159C7.00118 11.9436 7 11.9717 7 12V13C7 13.5523 7.44772 14 8 14C8.55228 14 9 13.5523 9 13V12C9 11.7445 8.90419 11.5114 8.74653 11.3346Z" fill="#F3E7C9"/>
</g>
</svg>
