<svg width="336" height="370" viewBox="0 0 336 370" fill="none" xmlns="http://www.w3.org/2000/svg">
<path d="M141.999 231.835C142.412 231.801 142.719 231.439 142.686 231.026L142.135 224.299C142.101 223.886 141.739 223.579 141.326 223.612C140.913 223.646 140.606 224.008 140.64 224.421L141.129 230.401L135.149 230.89C134.736 230.924 134.429 231.286 134.463 231.699C134.497 232.112 134.859 232.419 135.272 232.385L141.999 231.835ZM33.4555 55.0387C33.5511 55.8361 33.6614 56.6635 33.7866 57.5197L35.2708 57.3026C35.1473 56.4585 35.0388 55.644 34.9449 54.8601L33.4555 55.0387ZM34.625 62.4887C34.9225 64.0594 35.2625 65.7035 35.6469 67.4165L37.1105 67.0881C36.7296 65.3906 36.3931 63.763 36.0988 62.2095L34.625 62.4887ZM36.8238 72.3234C37.2254 73.9003 37.661 75.5252 38.1318 77.1955L39.5755 76.7885C39.1081 75.1302 38.6758 73.5175 38.2774 71.9532L36.8238 72.3234ZM39.5549 82.0271C40.0347 83.5903 40.5435 85.1877 41.0819 86.8171L42.5062 86.3465C41.971 84.727 41.4655 83.1399 40.9889 81.587L39.5549 82.0271ZM42.7074 91.5734C43.2535 93.1208 43.8253 94.6937 44.4234 96.2905L45.8281 95.7644C45.2333 94.1765 44.6648 92.6126 44.1219 91.0742L42.7074 91.5734ZM46.2269 100.974C46.8327 102.505 47.4619 104.056 48.115 105.625L49.4999 105.049C48.8501 103.487 48.2242 101.945 47.6217 100.422L46.2269 100.974ZM50.0856 110.246C50.7474 111.762 51.4311 113.293 52.1371 114.838L53.5015 114.215C52.799 112.677 52.1187 111.154 51.4603 109.646L50.0856 110.246ZM54.2681 119.403C54.9804 120.896 55.7133 122.402 56.4671 123.919L57.8104 123.251C57.0602 121.742 56.3309 120.243 55.622 118.757L54.2681 119.403ZM58.7338 128.39C59.495 129.863 60.2758 131.345 61.0764 132.836L62.3979 132.126C61.601 130.642 60.8239 129.167 60.0663 127.701L58.7338 128.39ZM63.4947 137.255C64.3016 138.703 65.1271 140.158 65.9715 141.62L67.2704 140.869C66.4298 139.414 65.6081 137.966 64.8049 136.525L63.4947 137.255ZM68.5136 145.944C69.3676 147.371 70.2396 148.804 71.1299 150.242L72.4053 149.453C71.519 148.021 70.6509 146.595 69.8009 145.174L68.5136 145.944ZM73.8089 154.498C74.7027 155.894 75.6139 157.295 76.5425 158.699L77.7936 157.871C76.8691 156.473 75.962 155.079 75.0722 153.689L73.8089 154.498ZM79.3497 162.875C80.2881 164.248 81.2433 165.625 82.2157 167.004L83.4415 166.139C82.4735 164.766 81.5225 163.396 80.5883 162.028L79.3497 162.875ZM85.1353 171.08C86.1164 172.428 87.114 173.779 88.1282 175.13L89.328 174.23C88.3182 172.884 87.325 171.54 86.3483 170.197L85.1353 171.08ZM91.1681 179.12C92.1858 180.436 93.2195 181.752 94.2693 183.069L95.4422 182.134C94.397 180.823 93.3678 179.512 92.3545 178.202L91.1681 179.12ZM97.4393 186.986C98.4926 188.268 99.5613 189.55 100.646 190.831L101.791 189.862C100.711 188.586 99.647 187.31 98.5984 186.034L97.4393 186.986ZM103.925 194.65C105.018 195.904 106.126 197.157 107.249 198.409L108.365 197.407C107.247 196.161 106.144 194.913 105.056 193.664L103.925 194.65ZM110.63 202.122C111.762 203.348 112.909 204.572 114.071 205.794L115.158 204.761C114.001 203.544 112.859 202.325 111.732 201.104L110.63 202.122ZM117.551 209.401C118.72 210.596 119.905 211.789 121.104 212.98L122.16 211.915C120.966 210.73 119.787 209.542 118.623 208.352L117.551 209.401ZM124.68 216.48C125.881 217.64 127.097 218.796 128.328 219.95L129.354 218.856C128.129 217.707 126.918 216.555 125.721 215.401L124.68 216.48ZM132.009 223.353C133.242 224.477 134.489 225.597 135.749 226.714L136.744 225.591C135.489 224.479 134.247 223.364 133.019 222.245L132.009 223.353ZM139.531 230.016C140.168 230.565 140.809 231.112 141.453 231.659L142.423 230.516C141.782 229.971 141.144 229.426 140.509 228.88L139.531 230.016Z" fill="#6D4C3A"/>
<path d="M203.919 237.948H286.247C286.276 237.849 286.306 237.75 286.336 237.652C288.907 229.021 291.48 220.39 294.052 211.76C294.083 211.658 294.136 211.584 294.2 211.526C293.604 208.131 293.159 205.961 292.994 205.184C292.979 205.1 292.963 205.015 292.939 204.931L292.924 204.858H292.914C291.596 200.638 279.069 197.207 261.866 195.949L261.88 196.022L261.883 196.034L261.899 196.118H261.893C261.936 196.314 261.967 196.511 261.967 196.713C261.967 200.431 254.494 203.445 245.275 203.445C236.056 203.445 228.583 200.431 228.583 196.713C228.583 196.555 228.616 196.402 228.641 196.247C211.187 197.836 198.546 201.576 197.505 205.889H197.502L197.496 205.916L197.485 205.964C197.03 207.958 196.602 209.987 196.2 212.043C197.147 215.222 198.095 218.399 199.042 221.578C200.668 227.035 202.294 232.491 203.921 237.949L203.919 237.948Z" fill="#F3E7C9"/>
<path d="M277.347 266.492C280.299 256.645 283.249 246.797 286.2 236.949H204.2C206.246 243.777 208.293 250.605 210.338 257.432C211.28 260.575 212.121 263.772 213.17 266.881C213.628 268.241 214.089 269.555 214.384 270.949H276.004C276.171 270.098 276.385 269.256 276.658 268.433C276.877 267.778 277.151 267.153 277.349 266.492H277.347Z" fill="#FEE9D8"/>
<path d="M216.915 149.803L217.134 149.949C216.453 146.67 216.058 143.537 216.127 140.615C226.512 140.569 244.258 129.751 252.072 124.637C256.299 128.131 258.863 133.847 260.907 140.515C261.143 139.642 261.488 138.762 261.95 137.899C263.25 135.48 265.187 133.718 267.2 132.879C265.737 125.322 259.728 119.559 252.369 118.97C233.395 104.333 224.261 120.987 224.261 120.987C209.953 117.29 216.115 128.149 216.115 128.149C216.115 128.149 201.587 126.742 209.623 137.912C209.795 138.151 209.986 138.368 210.185 138.573C209.586 140.395 209.242 142.347 209.242 144.389C209.242 145.651 209.373 146.881 209.61 148.067C211.819 147.739 214.483 148.304 216.914 149.802L216.915 149.803Z" fill="#25375F"/>
<path d="M305.266 150.949C304.244 155.827 303.222 160.705 302.2 165.581C302.499 165.701 302.802 165.824 303.106 165.949C304.137 161.027 305.169 156.105 306.2 151.182C306.043 151.147 305.887 151.118 305.731 151.079C305.574 151.04 305.421 150.992 305.266 150.949Z" fill="#3E3E3E"/>
<path d="M299.036 180.949C298.757 181.073 298.485 181.191 298.214 181.308C297.214 185.967 296.215 190.625 295.215 195.284C295.071 195.951 296.037 196.238 296.18 195.567C297.187 190.874 298.194 186.183 299.2 181.489C299.144 181.31 299.087 181.127 299.034 180.949H299.036Z" fill="#3E3E3E"/>
<path d="M316.544 104.558C303.624 101.605 290.76 109.687 287.808 122.609C284.896 135.355 292.724 148.042 305.338 151.217C305.511 151.26 305.682 151.309 305.857 151.349C306.032 151.39 306.207 151.419 306.381 151.455C319.122 154.072 331.681 146.044 334.593 133.298C337.543 120.376 329.463 107.509 316.544 104.558ZM302.134 118.575C302.601 116.534 303.896 115.09 305.028 115.349C306.161 115.609 306.7 117.472 306.234 119.512C305.767 121.552 304.472 122.997 303.34 122.737C302.207 122.478 301.668 120.615 302.134 118.575ZM307.825 141.234C300.777 139.625 296.367 132.603 297.978 125.554L323.504 131.386C321.895 138.435 314.875 142.845 307.827 141.234H307.825ZM323.439 123.442C322.972 125.482 321.677 126.927 320.545 126.667C319.412 126.408 318.873 124.545 319.339 122.505C319.806 120.464 321.101 119.02 322.233 119.28C323.364 119.539 323.905 121.402 323.439 123.442Z" fill="#FFEAA5"/>
<path d="M303.439 121.921C304.46 122.165 305.628 120.808 306.049 118.89C306.47 116.972 305.982 115.221 304.962 114.978C303.94 114.734 302.772 116.091 302.351 118.009C301.931 119.926 302.419 121.677 303.439 121.921Z" fill="#3E3E3E"/>
<path d="M321.962 118.978C320.94 118.734 319.772 120.091 319.351 122.009C318.931 123.926 319.419 125.677 320.439 125.921C321.46 126.165 322.628 124.808 323.049 122.89C323.47 120.972 322.982 119.221 321.962 118.978Z" fill="#3E3E3E"/>
<path d="M308.436 141.618C315.523 143.228 322.582 138.821 324.2 131.777L298.534 125.949C296.914 132.994 301.348 140.009 308.435 141.618H308.436Z" fill="#3E3E3E"/>
<path d="M246 202.949C255.295 202.949 262.829 199.971 262.829 196.297C262.829 196.098 262.797 195.902 262.754 195.707H262.76L262.743 195.624L262.74 195.612L262.727 195.541L258.442 173.974C256.315 176.104 253.493 177.461 250.596 178.23C247.895 178.947 244.959 179.255 242.2 178.704C241.521 178.569 241.809 177.54 242.486 177.675C245.051 178.189 247.804 177.868 250.31 177.201C253.151 176.447 255.907 175.123 257.938 172.972C258.166 172.731 258.457 172.783 258.647 172.954C265.535 167.345 265.496 158.909 263.337 149.234C263.448 149.303 263.553 149.378 263.669 149.439C266.871 151.116 271.395 148.851 273.774 144.379C276.154 139.907 275.487 134.922 272.287 133.244C270.829 132.481 269.099 132.542 267.42 133.249C265.411 134.095 263.478 135.867 262.181 138.304C261.719 139.172 261.375 140.059 261.14 140.937C259.101 134.224 256.542 128.467 252.324 124.949C244.528 130.098 226.818 140.992 216.455 141.038C216.386 143.981 216.781 147.136 217.46 150.438L217.242 150.291C214.817 148.782 212.158 148.214 209.953 148.543C208.231 148.8 206.784 149.605 205.942 150.94C204.02 153.983 205.962 158.628 210.279 161.314C213.976 163.614 218.21 163.725 220.56 161.801C223.13 169.287 226.662 175.267 232.799 177.788L229.258 195.612L229.255 195.624L229.238 195.707H229.244L229.228 195.836C229.201 195.989 229.17 196.141 229.17 196.297C229.17 199.971 236.705 202.949 245.998 202.949H246ZM247.283 143.528C247.894 143.365 248.603 144.023 248.866 144.995C249.13 145.969 248.848 146.889 248.238 147.053C247.628 147.216 246.918 146.558 246.655 145.586C246.392 144.612 246.673 143.691 247.283 143.528ZM253.914 159.628C254.607 159.626 254.607 160.694 253.914 160.695C250.469 160.704 247.219 162.728 245.681 165.78C245.372 166.395 244.444 165.854 244.752 165.241C246.455 161.862 250.112 159.638 253.914 159.628ZM269.146 137.088C269.651 136.617 270.412 137.371 269.906 137.842C269.25 138.454 268.642 139.134 268.132 139.87C268.994 139.649 269.905 139.631 270.783 139.823C271.067 139.885 271.232 140.211 271.159 140.479C271.079 140.767 270.78 140.914 270.497 140.851C269.981 140.739 269.338 140.718 268.828 140.805C268.253 140.905 267.77 141.087 267.285 141.367C266.899 142.229 266.659 143.151 266.632 144.129C266.614 144.815 265.538 144.817 265.556 144.129C265.629 141.358 267.158 138.938 269.145 137.085L269.146 137.088ZM243.928 136.975C245.85 138.966 248.833 138.841 251.384 138.639C252.075 138.584 252.069 139.652 251.384 139.707C248.533 139.934 245.301 139.938 243.168 137.731C242.689 137.235 243.449 136.479 243.928 136.976V136.975ZM243 151.48C243.563 151.873 244.191 152.204 244.652 152.723C245.565 153.75 245.404 155.281 244.291 156.103C243.074 157.003 241.443 156.449 240.628 155.304C240.227 154.742 241.16 154.209 241.557 154.765C242.273 155.771 244.233 155.708 244.194 154.201C244.166 153.104 242.495 152.506 241.784 151.876C239.622 149.957 239.096 146.953 239.163 144.208C239.179 143.521 240.255 143.521 240.239 144.208C240.194 146.077 240.384 148.012 241.352 149.657C241.772 150.369 242.318 151 243 151.477V151.48ZM233.646 149.055C233.909 150.029 233.628 150.95 233.017 151.113C232.407 151.277 231.698 150.619 231.435 149.646C231.171 148.672 231.452 147.752 232.063 147.589C232.673 147.425 233.382 148.083 233.646 149.055ZM226.538 145.964C229.045 145.25 231.059 143.197 231.722 140.694C231.897 140.029 232.935 140.312 232.759 140.978C232.003 143.837 229.686 146.18 226.824 146.993C226.157 147.183 225.874 146.153 226.538 145.964ZM212.003 156.131C211.721 156.302 211.566 156.419 211.329 156.636C211.115 156.832 210.782 156.847 210.569 156.636C210.37 156.439 210.355 156.076 210.569 155.882C211.229 155.279 212.027 154.843 212.884 154.607C212.068 154.222 211.198 153.937 210.32 153.734C209.645 153.578 209.932 152.549 210.605 152.705C213.256 153.318 215.806 154.653 217.264 157.012C217.628 157.6 216.697 158.136 216.335 157.551C215.817 156.713 215.138 156.033 214.365 155.477C214.251 155.477 214.139 155.475 214.025 155.483L213.795 155.503L213.766 155.506L213.653 155.524C213.349 155.576 213.05 155.656 212.76 155.762C212.532 155.845 212.263 155.975 212.004 156.131H212.003Z" fill="#F07F40"/>
<path d="M240.363 149.979C239.407 148.316 239.22 146.36 239.266 144.471C239.282 143.776 238.222 143.776 238.205 144.471C238.141 147.245 238.658 150.281 240.789 152.223C241.488 152.86 243.137 153.465 243.165 154.574C243.204 156.098 241.272 156.159 240.565 155.144C240.174 154.582 239.254 155.12 239.649 155.689C240.453 156.847 242.062 157.406 243.261 156.497C244.359 155.665 244.516 154.118 243.617 153.079C243.162 152.555 242.543 152.22 241.988 151.823C241.317 151.341 240.778 150.701 240.363 149.982V149.979Z" fill="#3E3E3E"/>
<path d="M231.804 147.977C231.297 148.16 231.064 149.19 231.282 150.28C231.501 151.37 232.09 152.104 232.596 151.922C233.103 151.739 233.337 150.709 233.118 149.619C232.9 148.529 232.311 147.795 231.804 147.977Z" fill="#3E3E3E"/>
<path d="M247.596 147.922C248.103 147.739 248.337 146.709 248.118 145.619C247.9 144.529 247.311 143.795 246.804 143.977C246.297 144.16 246.064 145.19 246.282 146.28C246.501 147.37 247.09 148.104 247.596 147.922Z" fill="#3E3E3E"/>
<path d="M212.711 155.721L212.819 155.704L212.846 155.701L213.063 155.681C213.171 155.673 213.277 155.675 213.384 155.675C214.114 156.219 214.756 156.884 215.245 157.702C215.585 158.274 216.465 157.75 216.122 157.175C214.745 154.869 212.337 153.564 209.833 152.965C209.198 152.813 208.926 153.818 209.564 153.971C210.393 154.17 211.215 154.448 211.985 154.824C211.177 155.055 210.424 155.483 209.8 156.071C209.598 156.261 209.612 156.615 209.8 156.808C210 157.014 210.315 157 210.517 156.808C210.741 156.596 210.889 156.482 211.153 156.315C211.397 156.161 211.652 156.035 211.867 155.953C212.141 155.85 212.423 155.772 212.71 155.721H212.711Z" fill="#3E3E3E"/>
<path d="M266.347 144.412C266.375 143.396 266.633 142.44 267.046 141.544C267.563 141.255 268.079 141.064 268.693 140.962C269.237 140.871 269.926 140.893 270.475 141.01C270.777 141.075 271.097 140.922 271.182 140.623C271.26 140.346 271.084 140.007 270.781 139.942C269.843 139.742 268.87 139.76 267.95 139.991C268.495 139.226 269.145 138.521 269.844 137.887C270.384 137.398 269.571 136.615 269.033 137.104C266.91 139.027 265.279 141.538 265.2 144.415C265.181 145.128 266.33 145.127 266.349 144.415L266.347 144.412Z" fill="#3E3E3E"/>
<path d="M225.903 147.925C228.928 147.075 231.38 144.628 232.179 141.642C232.364 140.947 231.268 140.651 231.083 141.345C230.383 143.96 228.254 146.105 225.601 146.85C224.898 147.047 225.197 148.124 225.903 147.925Z" fill="#25375F"/>
<path d="M250.677 139.853C251.371 139.798 251.377 138.727 250.677 138.782C248.095 138.985 245.072 139.11 243.125 137.113C242.639 136.614 241.869 137.372 242.355 137.869C244.516 140.084 247.789 140.079 250.677 139.851V139.853Z" fill="#25375F"/>
<path d="M245.217 165.696C246.796 162.845 250.132 160.955 253.667 160.947C254.378 160.945 254.378 159.948 253.667 159.949C249.765 159.959 246.011 162.037 244.264 165.193C243.947 165.766 244.898 166.271 245.217 165.696Z" fill="#3E3E3E"/>
<path d="M289.039 163.266C288.72 164.031 291.618 165.991 296.237 168.316C290.339 168.777 286.32 169.601 286.331 170.496C286.341 171.425 290.687 172.174 296.953 172.478C290.505 173.697 286.075 175.112 286.203 176.058C286.332 177.001 290.955 177.215 297.466 176.719C291.422 179.951 287.406 182.777 287.839 183.663C288.248 184.504 292.541 183.37 298.39 181.026C298.683 180.909 298.977 180.791 299.278 180.668C299.336 180.846 299.397 181.028 299.458 181.207C300.316 183.778 301.563 186.604 303.011 189.333L299.268 204.532L308.626 206.265L317.726 207.949L319.085 195.293L319.079 195.288C319.455 191.794 318.963 187.347 317.494 182.723C315.161 175.373 311.07 169.774 307.35 168.266L307.358 168.249C305.818 167.625 304.317 167.045 302.868 166.51C302.524 166.382 302.181 166.256 301.845 166.135C294.836 163.604 289.438 162.31 289.039 163.263V163.266Z" fill="#F07F40"/>
<path d="M299.544 204.4L297.175 203.949L295.087 210.95C295.341 211.022 295.547 211.257 295.449 211.587C294.513 214.723 293.577 217.86 292.641 220.996C289.056 233.012 285.469 245.03 281.884 257.047C280.872 260.44 279.908 263.854 278.845 267.232C278.656 267.835 278.404 268.412 278.205 269.014C277.303 271.736 276.999 274.647 277.331 277.5C277.958 282.873 280.884 287.779 285.199 290.949L285.396 290.845V290.848C286.538 290.219 287.736 289.664 288.992 289.196C295.924 286.619 303.234 287.148 309.432 290.082C312.587 287.254 314.874 283.387 315.713 278.874C316.016 277.245 316.109 275.628 316.021 274.046L320.2 208.325L317.578 207.826L308.686 206.136L299.543 204.397L299.544 204.4Z" fill="#F3E7C9"/>
<path d="M257.294 173.109C255.266 175.198 252.516 176.483 249.681 177.216C247.18 177.862 244.433 178.173 241.872 177.676C241.197 177.544 240.909 178.544 241.587 178.675C244.34 179.211 247.271 178.911 249.966 178.215C252.856 177.468 255.674 176.15 257.797 174.082C257.88 174 257.971 173.925 258.052 173.841C258.297 173.589 258.209 173.272 258.001 173.091C257.81 172.926 257.521 172.874 257.294 173.109Z" fill="#3E3E3E"/>
<path d="M192.299 344.95C192.054 345.035 191.762 344.963 191.639 344.684L169.558 354.221C170.991 352.463 171.557 350.257 170.857 348.21C169.678 344.759 165.369 343.072 161.2 344.406L170.145 369.949L198.2 360.777L195.116 352.507L192.297 344.951L192.299 344.95Z" fill="black"/>
<path d="M189.922 338.872C189.863 338.655 189.958 338.369 190.167 338.265C192.321 337.195 194.475 336.126 196.627 335.058C206.026 330.391 215.425 325.725 224.822 321.058C230.615 318.182 236.408 315.307 242.2 312.431L203.845 292.367C201.92 293.506 199.773 294.337 197.451 294.776C190.605 296.071 183.921 293.66 179.433 288.949C172.021 291.482 165.767 297.238 162.855 305.212C157.743 319.215 164.869 334.742 178.776 339.89C179.828 340.279 180.888 340.591 181.953 340.842V340.849L191.042 342.949C190.669 341.59 190.295 340.23 189.922 338.87V338.872Z" fill="#1460AB"/>
<path d="M295.119 211.324C292.479 219.868 289.838 228.412 287.199 236.955C287.169 237.053 287.138 237.151 287.108 237.248C284.066 247.089 281.026 256.93 277.985 266.771C277.781 267.429 277.499 268.055 277.273 268.71C276.992 269.532 276.771 270.374 276.599 271.225C276.163 273.386 276.081 275.614 276.37 277.797C277.092 283.24 280.079 288.12 284.5 291.454C284.677 291.586 284.85 291.722 285.032 291.849C285.603 292.254 286.15 291.326 285.585 290.926L285.566 290.913C281.101 287.745 278.073 282.843 277.424 277.473C277.08 274.623 277.395 271.713 278.329 268.992C278.535 268.392 278.795 267.815 278.991 267.212C280.091 263.836 281.089 260.425 282.136 257.034C285.847 245.026 289.558 233.017 293.268 221.009C294.237 217.875 295.206 214.74 296.174 211.607C296.276 211.277 296.063 211.042 295.8 210.97C295.617 210.921 295.414 210.958 295.271 211.089C295.207 211.149 295.151 211.22 295.119 211.321V211.324Z" fill="#961913"/>
<path d="M194.123 195.559C194.281 196.243 195.342 195.953 195.184 195.269C194.084 190.495 192.983 185.721 191.883 180.949C191.678 181.579 191.45 182.224 191.2 182.882C192.174 187.107 193.149 191.333 194.123 195.559Z" fill="#3E3E3E"/>
<path d="M185.348 150.949C185.158 150.993 184.969 151.044 184.777 151.085C184.586 151.125 184.392 151.156 184.2 151.192C185.496 156.445 186.793 161.697 188.088 166.949C188.464 166.816 188.831 166.69 189.2 166.561C187.916 161.357 186.632 156.153 185.348 150.949Z" fill="#3E3E3E"/>
<path d="M185.063 151.216C197.676 148.042 205.504 135.354 202.592 122.609C199.642 109.687 186.776 101.605 173.857 104.558C160.937 107.509 152.856 120.376 155.808 133.298C158.72 146.043 171.279 154.073 184.019 151.455C184.194 151.419 184.37 151.389 184.544 151.349C184.718 151.309 184.89 151.26 185.063 151.216ZM185.374 115.349C186.506 115.09 187.801 116.534 188.268 118.574C188.734 120.615 188.193 122.478 187.062 122.737C185.93 122.996 184.635 121.552 184.168 119.512C183.702 117.472 184.243 115.609 185.374 115.349ZM168.167 119.281C169.3 119.022 170.595 120.466 171.061 122.506C171.528 124.546 170.987 126.409 169.856 126.669C168.723 126.928 167.428 125.484 166.962 123.443C166.495 121.403 167.036 119.54 168.167 119.281ZM166.898 131.386L192.424 125.554C194.033 132.603 189.625 139.624 182.577 141.234C175.529 142.845 168.509 138.435 166.899 131.386H166.898Z" fill="#FFEAA5"/>
<path d="M186.962 121.921C187.983 121.677 188.47 119.926 188.049 118.009C187.628 116.091 186.46 114.734 185.439 114.978C184.417 115.221 183.931 116.972 184.352 118.89C184.772 120.808 185.94 122.165 186.962 121.921Z" fill="#3E3E3E"/>
<path d="M169.962 125.921C170.983 125.677 171.47 123.926 171.049 122.009C170.628 120.091 169.46 118.734 168.439 118.978C167.417 119.221 166.931 120.972 167.352 122.89C167.772 124.808 168.94 126.165 169.962 125.921Z" fill="#3E3E3E"/>
<path d="M192.868 125.949L167.2 131.777C168.82 138.821 175.878 143.228 182.965 141.618C190.052 140.009 194.486 132.994 192.866 125.949H192.868Z" fill="#3E3E3E"/>
<path d="M192.088 204.524L188.388 189.439C189.525 187.286 190.538 185.073 191.338 182.97C191.583 182.326 191.808 181.693 192.009 181.075C192.046 180.963 192.086 180.85 192.121 180.738C198.423 183.334 203.132 184.632 203.562 183.745C203.994 182.854 199.978 180.017 193.933 176.773C200.445 177.27 205.068 177.057 205.197 176.108C205.327 175.157 200.895 173.738 194.448 172.514C200.715 172.21 205.06 171.458 205.071 170.524C205.081 169.625 201.064 168.797 195.165 168.335C199.787 166.002 202.685 164.033 202.364 163.264C201.948 162.265 196.09 163.725 188.64 166.484C188.301 166.609 187.963 166.734 187.618 166.865C186.456 167.306 185.259 167.775 184.044 168.271L184.051 168.286C180.331 169.799 176.239 175.422 173.906 182.802C172.437 187.445 171.945 191.91 172.322 195.418L172.315 195.423L173.655 207.949L181.78 206.439L192.091 204.523L192.088 204.524Z" fill="#F07F40"/>
<path d="M198.004 294.388C200.33 293.952 202.485 293.13 204.416 292.002L242.876 311.881C242.982 311.829 243.087 311.777 243.193 311.726C243.497 311.576 243.781 311.726 243.918 311.949L284.2 291.127C279.877 287.804 276.957 282.942 276.25 277.517C275.967 275.341 276.047 273.12 276.473 270.968H214.378C214.435 271.233 214.496 271.495 214.537 271.768C214.922 274.255 214.855 276.789 214.317 279.251C213.233 284.212 210.26 288.556 206.145 291.523C205.586 291.926 205.052 291.001 205.604 290.603C210.537 287.045 213.616 281.317 213.714 275.237C213.759 272.427 213.05 269.93 212.153 267.301C212.053 267.009 211.973 266.708 211.883 266.413C208.839 256.372 205.793 246.329 202.749 236.288C200.25 228.043 197.749 219.799 195.25 211.556C195.15 211.227 195.359 210.992 195.616 210.921L193.503 203.949L192.046 204.222L181.852 206.13L173.818 207.632L170.2 208.31L174.43 273.758C174.339 275.334 174.434 276.945 174.741 278.566C175.485 282.497 177.348 285.934 179.938 288.618C184.439 293.285 191.139 295.674 198.005 294.391L198.004 294.388Z" fill="#F3E7C9"/>
<path d="M195.226 211.609C197.782 219.882 200.339 228.154 202.895 236.426C206.008 246.501 209.123 256.578 212.237 266.654C212.328 266.95 212.41 267.252 212.512 267.545C213.431 270.183 214.156 272.689 214.108 275.508C214.008 281.607 210.86 287.357 205.815 290.926C205.25 291.326 205.795 292.254 206.368 291.849C210.576 288.872 213.615 284.512 214.725 279.536C215.275 277.067 215.344 274.524 214.951 272.027C214.908 271.753 214.846 271.49 214.788 271.224C214.485 269.832 214.009 268.517 213.537 267.158C212.457 264.051 211.591 260.857 210.619 257.716C208.511 250.893 206.401 244.07 204.293 237.248C202.624 231.847 200.955 226.445 199.285 221.042C198.314 217.895 197.34 214.75 196.369 211.603C196.34 211.51 196.311 211.417 196.282 211.324C196.181 210.995 195.866 210.901 195.601 210.971C195.337 211.041 195.124 211.278 195.226 211.608V211.609Z" fill="#961913"/>
<path d="M192.434 343.914C192.671 343.832 192.857 343.611 192.77 343.301C192.298 341.604 191.825 339.907 191.354 338.21C197.086 335.399 202.818 332.589 208.549 329.778C217.874 325.205 227.197 320.633 236.522 316.06C238.659 315.012 240.796 313.964 242.931 312.918C243.241 312.766 243.255 312.458 243.115 312.231C242.98 312.008 242.698 311.861 242.398 312.009C242.293 312.061 242.188 312.112 242.084 312.163C236.337 314.982 230.59 317.799 224.843 320.617C215.518 325.19 206.194 329.762 196.869 334.334C194.733 335.382 192.596 336.429 190.461 337.477C190.253 337.578 190.159 337.859 190.217 338.072C190.587 339.404 190.959 340.737 191.329 342.069C191.469 342.573 191.609 343.077 191.75 343.583L191.784 343.65C191.905 343.93 192.192 344.001 192.435 343.916L192.434 343.914Z" fill="#272D68"/>
<path d="M242.636 354.414C244.734 353.931 246.832 353.447 248.931 352.963C258.12 350.846 267.308 348.727 276.497 346.609C282.268 345.279 288.037 343.949 293.807 342.62C294.181 342.534 294.448 342.779 294.526 343.068L304.031 340.878C304.913 340.65 305.792 340.378 306.664 340.055C320.538 334.933 327.65 319.487 322.549 305.556C320.013 298.634 314.939 293.39 308.773 290.493C302.531 287.558 295.171 287.03 288.191 289.607C286.925 290.075 285.719 290.63 284.571 291.259V291.256L284.371 291.36L284.388 291.374C284.94 291.774 284.406 292.702 283.85 292.298C283.674 292.17 283.505 292.034 283.333 291.902L243.254 312.807C243.394 313.039 243.381 313.352 243.068 313.505C240.92 314.569 238.771 315.632 236.624 316.696C227.246 321.338 217.87 325.979 208.493 330.622C202.728 333.476 196.963 336.329 191.2 339.183C191.674 340.906 192.149 342.629 192.624 344.352C192.712 344.668 192.525 344.891 192.286 344.974L195.086 352.618L198.149 360.984L199.601 364.949L242.234 355.122C242.156 354.834 242.262 354.502 242.636 354.417V354.414Z" fill="#1460AB"/>
<path d="M293.969 344.572L294.2 343.949C292.221 344.4 290.241 344.851 288.26 345.303C278.996 347.412 269.734 349.523 260.469 351.632C255.046 352.866 249.623 354.103 244.2 355.337L286.418 364.949L287.882 360.999L290.97 352.666L293.969 344.573V344.572Z" fill="#1460AB"/>
<path d="M315.543 348.21C314.843 350.257 315.409 352.465 316.843 354.221L294.279 344.477L291.284 352.508L288.2 360.777L316.255 369.949L325.2 344.406C321.031 343.072 316.723 344.758 315.543 348.21Z" fill="black"/>
<path d="M288.394 344.575C290.382 344.122 292.372 343.669 294.36 343.214C294.497 343.183 294.633 343.152 294.768 343.122C295.147 343.035 295.256 342.703 295.175 342.415C295.096 342.126 294.825 341.881 294.447 341.967C288.604 343.299 282.763 344.631 276.919 345.962C267.615 348.082 258.311 350.204 249.006 352.324C246.882 352.809 244.757 353.293 242.632 353.777C242.254 353.863 242.144 354.196 242.225 354.483C242.305 354.772 242.575 355.018 242.953 354.932C243.349 354.841 243.744 354.752 244.14 354.661C249.587 353.419 255.034 352.177 260.481 350.936C269.786 348.815 279.089 346.693 288.394 344.573V344.575Z" fill="#28255B"/>
<path d="M129.359 131.682C129.764 131.594 130.021 131.195 129.933 130.79L128.5 124.194C128.412 123.789 128.013 123.532 127.608 123.62C127.203 123.708 126.946 124.108 127.034 124.512L128.308 130.376L122.445 131.649C122.04 131.737 121.783 132.137 121.871 132.542C121.959 132.946 122.358 133.203 122.763 133.115L129.359 131.682ZM26.4802 1.15931C26.7025 1.92199 26.9441 2.71433 27.2051 3.53494L28.6345 3.0803C28.377 2.27064 28.139 1.48992 27.9202 0.739492L26.4802 1.15931ZM28.8033 8.23026C29.3414 9.72061 29.9318 11.2794 30.5751 12.9007L31.9694 12.3474C31.3315 10.7401 30.7467 9.19588 30.2141 7.72082L28.8033 8.23026ZM32.4634 17.4768C33.0945 18.9515 33.7648 20.4678 34.4747 22.0221L35.8391 21.3989C35.1342 19.8554 34.4688 18.3501 33.8424 16.8866L32.4634 17.4768ZM36.593 26.5255C37.2985 27.9836 38.0364 29.4695 38.8071 30.9807L40.1434 30.2992C39.3774 28.7973 38.6442 27.3208 37.9433 25.8722L36.593 26.5255ZM41.104 35.3747C41.8706 36.8065 42.6652 38.2575 43.4882 39.7257L44.7967 38.9922C43.9784 37.5325 43.1884 36.0899 42.4263 34.6666L41.104 35.3747ZM45.956 44.0321C46.7802 45.4395 47.6297 46.8602 48.5046 48.2927L49.7847 47.5108C48.9146 46.0863 48.07 44.6735 47.2504 43.274L45.956 44.0321ZM51.1317 52.5067C52.0099 53.887 52.9112 55.2763 53.836 56.6732L55.0867 55.8452C54.167 54.4559 53.2706 53.0742 52.3973 51.7015L51.1317 52.5067ZM56.6117 60.785C57.5393 62.1327 58.4885 63.486 59.4594 64.8437L60.6795 63.9711C59.7139 62.6208 58.7699 61.2749 57.8473 59.9345L56.6117 60.785ZM62.3806 68.8515C63.3583 70.1677 64.3563 71.4868 65.3749 72.8075L66.5627 71.8915C65.5497 70.5779 64.5571 69.2661 63.5848 67.9571L62.3806 68.8515ZM68.4419 76.7106C69.4688 77.9932 70.5152 79.2765 71.5813 80.5592L72.7349 79.6005C71.6747 78.3248 70.6341 77.0487 69.6128 75.7731L68.4419 76.7106ZM74.7928 84.3519C75.8659 85.5958 76.9577 86.8382 78.0683 88.0783L79.1857 87.0775C78.0814 85.8445 76.9957 84.609 75.9286 83.3721L74.7928 84.3519ZM81.4107 91.7408C82.5305 92.945 83.6682 94.146 84.8242 95.3429L85.9032 94.3009C84.7539 93.1108 83.6226 91.9167 82.5092 90.7193L81.4107 91.7408ZM88.3085 98.8827C89.4759 100.046 90.6608 101.205 91.8634 102.358L92.9016 101.275C91.7061 100.129 90.528 98.977 89.3674 97.8203L88.3085 98.8827ZM95.475 105.755C96.6845 106.87 97.911 107.979 99.1546 109.082L100.15 107.959C98.9135 106.864 97.6943 105.761 96.4919 104.652L95.475 105.755ZM102.903 112.339C104.159 113.409 105.432 114.471 106.721 115.525L107.67 114.363C106.389 113.316 105.124 112.26 103.876 111.197L102.903 112.339ZM110.592 118.624C111.887 119.64 113.199 120.648 114.527 121.646L115.428 120.447C114.109 119.455 112.805 118.454 111.517 117.444L110.592 118.624ZM118.529 124.59C119.868 125.554 121.222 126.508 122.593 127.452L123.443 126.216C122.082 125.279 120.736 124.331 119.405 123.373L118.529 124.59ZM126.705 130.221C127.398 130.677 128.094 131.13 128.795 131.58L129.606 130.319C128.91 129.871 128.218 129.421 127.53 128.968L126.705 130.221Z" fill="#6D4C3A"/>
</svg>
