<svg width="264" height="189" viewBox="0 0 264 189" fill="none" xmlns="http://www.w3.org/2000/svg">
<g clip-path="url(#clip0_53_2826)">
<path d="M84.6622 98.1624L116.322 64.8457C117.125 63.7418 118.051 62.7055 119.134 61.7812C121.942 59.3824 125.282 58.0232 128.691 57.6591C128.85 57.6261 129.004 57.5816 129.165 57.5553L145.928 54.6325C145.7 54.5617 145.471 54.4908 145.245 54.42C144.859 54.4842 144.471 54.5485 144.085 54.6128C143.593 54.6951 143.309 54.186 143.43 53.8401C131.182 49.8019 121.919 44.3321 123.168 31.1649C139.96 33.1518 142.946 17.0536 150.999 18.1525C159.26 19.2795 166.793 13.4587 166.793 13.4587C166.793 13.4587 165.264 12.3944 162.594 11.0104C159.324 9.31673 154.339 7.14362 148.322 5.84205C140.015 2.74466 130.354 4.08083 123.38 10.124C121.718 11.564 120.319 13.1835 119.173 14.9233L119.168 14.92C119.168 14.92 115.559 21.2697 104.087 20.8117H104.069C103.988 20.8084 103.916 20.8117 103.834 20.8084C103.62 20.7985 103.41 20.8034 103.203 20.8166C97.6103 20.9105 92.0615 22.848 87.6081 26.7066C80.4485 32.9096 78.0625 42.3847 80.6423 50.8942L80.6472 50.9041C80.6997 51.0755 80.7588 51.2452 80.8147 51.4165C81.3878 53.3474 82.8739 60.2408 76.7094 64.9429L76.7127 64.9478C76.5222 65.1027 76.33 65.2543 76.1428 65.4157C66.1456 74.0769 65.451 89.1141 74.5927 98.9993C76.2332 100.774 78.0822 102.258 80.0659 103.454C81.2663 101.698 82.8131 99.8989 84.6638 98.164L84.6622 98.1624Z" fill="#232323"/>
<path d="M5.44303 162.54C7.42999 161.288 8.72726 159.3 8.74368 157.046C8.7716 153.245 5.16879 150.134 0.674316 150.05V178.256L23.6722 178.536L23.8134 161.053L5.44467 162.54H5.44303Z" fill="black"/>
<path d="M66.3442 167.297C67.9223 168.903 68.405 171.229 67.8829 173.525L83.0281 155.66L82.9887 155.639C82.5929 155.294 82.1972 154.948 81.7998 154.604C79.0279 152.19 76.256 149.777 73.4841 147.365C73.2115 147.128 73.2805 146.813 73.4825 146.618L23.9086 148.984L23.8117 161.054L23.6705 178.538L23.5999 187.408L75.1361 187.57L55.7082 168.078C58.9448 164.947 63.6856 164.59 66.3442 167.298V167.297Z" fill="#79D7FF"/>
<path d="M196.315 177.81C194.614 175.8 193.142 173.567 191.605 171.431C188.804 167.537 186.004 163.644 183.202 159.753C179.002 153.915 174.801 148.077 170.601 142.239C170.538 142.154 170.515 142.07 170.507 141.987L127.579 144.035C127.592 144.173 127.554 144.318 127.441 144.45C126.428 145.623 125.415 146.796 124.403 147.971C117.33 156.163 110.26 164.356 103.187 172.548C102.982 172.786 102.62 172.732 102.409 172.548C100.466 170.856 98.5217 169.163 96.5791 167.471L96.5741 167.467L76.0427 187.57L212.969 188L212.977 187.812C206.545 186.389 200.614 182.888 196.313 177.808L196.315 177.81Z" fill="#79D7FF"/>
<path d="M146.12 38.4042C148.051 38.4207 150.028 38.6892 151.693 39.7387C152.414 40.1918 153.04 40.7816 153.508 41.4966C153.894 42.0864 154.216 42.7438 154.738 43.2298C155.781 44.1986 157.365 44.0635 158.239 42.9349C159.19 41.7059 158.649 40.0385 157.503 39.167C156.938 38.7386 156.39 39.6959 156.948 40.1193C157.948 40.8788 157.817 42.8031 156.324 42.7949C155.163 42.7899 154.569 40.9908 153.936 40.233C152.033 37.9511 148.941 37.3234 146.118 37.3003C145.411 37.2937 145.409 38.3976 146.118 38.4042H146.12Z" fill="#D1424C"/>
<path d="M146.233 31.9426C149.207 31.2621 151.682 28.9506 152.615 26.0443C152.833 25.3672 151.771 25.0772 151.554 25.7511C150.734 28.3015 148.537 30.2835 145.941 30.8782C145.251 31.0364 145.544 32.1007 146.233 31.9426Z" fill="#D1424C"/>
<path d="M143.741 51.5417C144.066 51.545 144.258 51.2847 144.291 50.9898C144.619 48.0637 144.723 44.767 142.514 42.5016C142.018 41.9925 141.241 42.7735 141.736 43.2825C143.718 45.3156 143.481 48.3916 143.191 50.9914C143.158 51.2896 143.468 51.5401 143.741 51.5434V51.5417Z" fill="#D1424C"/>
<path d="M151.481 31.1089C151.409 31.3709 151.57 31.7399 151.866 31.7877C152.889 31.9508 153.894 32.2671 154.843 32.6823C155.26 32.8652 155.68 33.0744 156.043 33.3529C156.198 33.4715 156.341 33.6082 156.47 33.7549C156.541 33.8339 156.748 34.0448 156.725 34.1602C156.672 34.4369 155.945 34.3941 155.746 34.3826C155.23 34.3513 154.715 34.231 154.216 34.1025C153.166 33.8323 152.155 33.4402 151.146 33.0497C150.869 32.9426 150.544 33.1683 150.47 33.4352C150.385 33.7466 150.577 34.0069 150.854 34.114C151.81 34.4831 152.767 34.8538 153.756 35.1223C154.67 35.3695 155.753 35.6512 156.694 35.4074C157.125 35.2953 157.552 35.0482 157.733 34.6215C157.927 34.1635 157.771 33.6593 157.49 33.2738C156.966 32.5554 156.198 32.081 155.398 31.7284C154.36 31.272 153.28 30.9013 152.158 30.7217C151.866 30.6756 151.567 30.7975 151.481 31.1073V31.1089Z" fill="#D1424C"/>
<path d="M146.762 46.5119C147.718 46.8809 148.675 47.2516 149.664 47.5202C150.578 47.7673 151.661 48.049 152.602 47.8052C153.033 47.6931 153.46 47.446 153.641 47.0193C153.835 46.5613 153.679 46.0571 153.398 45.6716C152.874 44.9533 152.106 44.4788 151.306 44.1262C150.268 43.6698 149.188 43.2991 148.066 43.1196C147.774 43.0734 147.475 43.1953 147.389 43.5051C147.317 43.767 147.478 44.1377 147.774 44.1839C148.797 44.347 149.802 44.6633 150.751 45.0785C151.168 45.2614 151.588 45.4706 151.951 45.749C152.106 45.8677 152.248 46.0044 152.378 46.151C152.449 46.2301 152.656 46.441 152.633 46.5563C152.58 46.8331 151.853 46.7903 151.654 46.7788C151.138 46.7475 150.623 46.6272 150.124 46.4987C149.074 46.2285 148.063 45.8364 147.054 45.4459C146.777 45.3388 146.452 45.5645 146.378 45.8314C146.292 46.1428 146.485 46.4031 146.762 46.5102V46.5119Z" fill="#D1424C"/>
<path d="M167.08 38.2576C167.459 37.6563 166.509 37.101 166.131 37.7008C164.543 40.2166 165.08 43.7621 167.555 45.5035C168.136 45.9121 168.686 44.9566 168.11 44.5513C167.218 43.9235 166.65 42.9054 166.415 41.8542C166.138 40.6054 166.402 39.3318 167.08 38.2593V38.2576Z" fill="#D1424C"/>
<path d="M180.962 30.8338C180.818 30.1385 179.757 30.4334 179.902 31.127C181.072 36.7666 180.833 42.7851 178.087 47.8447C168.08 49.5087 158.073 51.1728 148.066 52.8368C146.642 53.074 145.217 53.3113 143.793 53.5469C143.591 53.5798 143.481 53.6968 143.43 53.8385C143.309 54.1845 143.593 54.6936 144.085 54.6112C144.471 54.5469 144.859 54.4827 145.245 54.4184C155.112 52.7775 164.981 51.1365 174.849 49.4956C175.685 49.3572 176.522 49.2171 177.358 49.0787L177.302 49.1595L178.642 48.9255L178.747 48.8464C178.872 48.825 178.997 48.8052 179.122 48.7838C179.42 48.7344 179.529 48.5103 179.509 48.2797C179.496 48.1297 179.429 47.9815 179.314 47.8727C181.956 42.6764 182.148 36.5458 180.961 30.8338H180.962Z" fill="#D1424C"/>
<path d="M206.547 30.8683C206.432 30.8799 206.32 30.8931 206.205 30.9062C204.072 31.1501 202.148 31.7317 200.512 32.6592L179.508 48.2796C179.527 48.5103 179.419 48.7344 179.12 48.7838C178.995 48.8052 178.871 48.825 178.746 48.8464L178.641 48.9255L189.267 47.072L189.219 46.922C189.068 45.6221 188.915 44.3239 188.764 43.024C188.727 42.7027 189.047 42.5 189.314 42.472C189.467 42.4555 189.621 42.4391 189.774 42.4242C196.32 41.7389 202.867 41.0518 209.412 40.3665C211.992 40.0963 214.619 39.6827 217.214 39.8837C222.398 40.2824 227.334 42.6187 230.926 46.3948C238.394 54.2487 238.627 66.8491 231.525 75.0111C228.083 78.9669 223.219 81.4942 218.027 82.0988C215.941 82.341 213.849 82.5371 211.762 82.7546C205.878 83.3707 199.995 83.9869 194.109 84.6048C193.786 84.6394 193.59 84.3247 193.559 84.0528C193.397 82.6656 193.236 81.28 193.073 79.8928L186.864 80.1712C219.395 121.207 251.291 174.676 251.291 174.678L252.556 175.241C252.556 175.241 267.918 153.228 262.525 99.4805C257.732 51.7032 224.712 29.1203 206.545 30.865L206.547 30.8683Z" fill="#FEE9D8"/>
<path d="M166.794 13.4554C166.794 13.4554 159.263 19.2762 151 18.1493C142.947 17.0503 139.962 33.1485 123.17 31.1616C121.918 44.3288 131.183 49.8003 143.432 53.8368C143.481 53.6951 143.591 53.5798 143.795 53.5452C145.218 53.3079 146.644 53.0707 148.067 52.8351C158.075 51.1711 168.082 49.507 178.089 47.843C180.834 42.7834 181.074 36.7665 179.903 31.1253C179.759 30.4317 180.82 30.1368 180.964 30.8321C182.15 36.5458 181.959 42.6763 179.317 47.871C179.432 47.9798 179.499 48.128 179.512 48.278L200.517 32.6576C202.152 31.73 204.075 31.1484 206.21 30.9046L206.31 30.7596L206.313 30.7546L176.089 18.3568C175.443 17.8296 174.758 17.3271 174.038 16.851C175.343 15.0354 176.09 12.4405 175.924 9.59848C175.622 4.37741 172.381 0.319496 168.684 0.535325C164.988 0.751154 162.236 5.1567 162.538 10.3778C162.551 10.5903 162.576 10.7979 162.597 11.0071C165.267 12.3911 166.796 13.4554 166.796 13.4554H166.794ZM157.49 33.2737C157.771 33.6593 157.927 34.1634 157.733 34.6214C157.552 35.0482 157.125 35.2953 156.694 35.4073C155.751 35.6528 154.67 35.3711 153.756 35.1223C152.766 34.8537 151.808 34.4847 150.854 34.114C150.577 34.0069 150.385 33.7466 150.47 33.4352C150.544 33.1683 150.869 32.9426 151.146 33.0497C152.155 33.4401 153.168 33.8323 154.216 34.1025C154.715 34.231 155.23 34.3512 155.746 34.3825C155.945 34.3941 156.672 34.4369 156.725 34.1601C156.746 34.0431 156.539 33.8323 156.47 33.7548C156.34 33.6098 156.198 33.4731 156.043 33.3528C155.68 33.0744 155.26 32.8652 154.843 32.6823C153.894 32.2671 152.889 31.9508 151.866 31.7877C151.57 31.7399 151.409 31.3708 151.481 31.1089C151.567 30.7991 151.866 30.6772 152.158 30.7233C153.28 30.9013 154.36 31.272 155.398 31.73C156.198 32.0826 156.966 32.5571 157.49 33.2754V33.2737ZM145.941 30.8782C148.537 30.2834 150.734 28.3014 151.554 25.751C151.77 25.0772 152.831 25.3672 152.615 26.0443C151.682 28.9506 149.207 31.2621 146.233 31.9425C145.544 32.1007 145.251 31.0364 145.941 30.8782ZM146.12 37.302C148.943 37.3251 152.035 37.9528 153.938 40.2346C154.569 40.9909 155.163 42.79 156.326 42.7966C157.818 42.8032 157.95 40.8788 156.95 40.121C156.391 39.6975 156.94 38.7387 157.505 39.1687C158.651 40.0386 159.191 41.7059 158.24 42.9366C157.367 44.0668 155.781 44.2003 154.739 43.2315C154.217 42.7455 153.895 42.0881 153.509 41.4983C153.041 40.7833 152.416 40.1934 151.695 39.7404C150.028 38.6925 148.053 38.4223 146.122 38.4059C145.412 38.3993 145.414 37.2971 146.122 37.302H146.12ZM141.735 43.2826C141.24 42.7735 142.018 41.9942 142.514 42.5017C144.723 44.767 144.619 48.0654 144.291 50.9898C144.258 51.2847 144.066 51.5451 143.741 51.5418C143.468 51.5385 143.158 51.288 143.19 50.9898C143.483 48.39 143.718 45.3157 141.735 43.281V43.2826ZM146.378 45.833C146.452 45.5661 146.777 45.3404 147.054 45.4475C148.063 45.8379 149.076 46.2301 150.123 46.5003C150.623 46.6288 151.138 46.749 151.654 46.7803C151.853 46.7919 152.58 46.8347 152.633 46.5579C152.654 46.4409 152.447 46.2301 152.378 46.1526C152.248 46.006 152.105 45.8709 151.951 45.7506C151.588 45.4722 151.168 45.2613 150.751 45.0801C149.802 44.6649 148.797 44.3486 147.774 44.1855C147.478 44.1393 147.317 43.7686 147.389 43.5067C147.475 43.1969 147.774 43.075 148.066 43.1211C149.187 43.2991 150.268 43.6698 151.306 44.1278C152.105 44.4804 152.874 44.9549 153.398 45.6732C153.679 46.0587 153.835 46.5629 153.641 47.0209C153.46 47.4476 153.033 47.6931 152.601 47.8068C151.659 48.0522 150.578 47.7705 149.664 47.5217C148.673 47.2532 147.716 46.8825 146.762 46.5134C146.484 46.4063 146.292 46.146 146.378 45.8346V45.833ZM166.415 41.8525C166.648 42.9037 167.218 43.9235 168.11 44.5496C168.686 44.9549 168.136 45.9121 167.555 45.5018C165.08 43.7604 164.543 40.2149 166.131 37.6991C166.508 37.0993 167.461 37.6546 167.08 38.2559C166.402 39.3301 166.137 40.602 166.415 41.8509V41.8525ZM167.985 5.58671C168.175 4.90297 169.236 5.19459 169.046 5.87997C168.796 6.77953 168.625 7.70875 168.576 8.63961C169.216 7.97565 169.998 7.44843 170.877 7.15352C171.169 7.05467 171.466 7.2672 171.553 7.53905C171.648 7.83396 171.441 8.12558 171.169 8.21784C171.085 8.24585 171 8.2755 170.918 8.30845L170.86 8.33152L170.803 8.35788C170.655 8.42543 170.509 8.50122 170.367 8.5836C170.233 8.66268 170.101 8.7467 169.973 8.83732L169.883 8.90322L169.865 8.9164L169.853 8.92628L169.683 9.06962C169.44 9.28051 169.226 9.51446 169.021 9.76159V9.76489L169.011 9.77477L168.932 9.88351L168.807 10.068C168.745 10.1652 168.691 10.2674 168.635 10.3695C168.758 11.3432 169.037 12.2939 169.54 13.1819C169.89 13.8014 168.94 14.3566 168.591 13.7388C167.177 11.2411 167.233 8.29033 167.983 5.59165L167.985 5.58671Z" fill="#F7B181"/>
<path d="M169.542 13.177C169.039 12.2906 168.758 11.3383 168.637 10.3646C168.693 10.2625 168.747 10.162 168.809 10.0631L168.934 9.87861L169.013 9.76987L169.019 9.75999V9.75669C169.228 9.50956 169.441 9.27561 169.684 9.06472L169.855 8.92139L169.867 8.9115L169.885 8.89832L169.975 8.83242C170.102 8.7418 170.233 8.65778 170.369 8.5787C170.51 8.49632 170.655 8.42218 170.804 8.35298L170.862 8.32662L170.919 8.30355C171.001 8.2706 171.087 8.24095 171.171 8.21294C171.443 8.12068 171.65 7.82906 171.555 7.53415C171.468 7.2623 171.171 7.04977 170.878 7.14862C170 7.44518 169.218 7.97075 168.578 8.63471C168.629 7.70549 168.798 6.77463 169.047 5.87507C169.238 5.18969 168.177 4.89807 167.987 5.58181C167.236 8.28049 167.18 11.2329 168.594 13.7289C168.944 14.3468 169.895 13.7915 169.543 13.1721L169.542 13.177Z" fill="#D1424C"/>
<path d="M96.5691 166.735L83.7786 155.598C83.5931 155.784 83.2876 155.855 83.0282 155.662L67.8829 173.526C68.4051 171.231 67.9207 168.905 66.3442 167.298C63.6857 164.59 58.9449 164.947 55.7083 168.078L75.1362 187.57L75.5861 188.021L76.0442 187.573L96.5756 167.47C96.3145 167.237 96.3753 166.929 96.5674 166.737L96.5691 166.735Z" fill="black"/>
<path d="M84.8739 118.632C86.3945 121.131 87.805 123.228 88.9824 124.754L90.9349 121.882C90.3569 120.358 89.5999 118.582 88.7016 116.646C90.0203 117.795 91.2666 118.831 92.403 119.722L94.5295 116.595C93.7117 115.643 92.802 114.625 91.8003 113.554C92.1846 113.252 92.5738 112.933 92.9662 112.603L99.2687 109.623L120.48 78.4281C121.45 76.9981 122.551 75.7113 123.749 74.563C140.249 56.8271 168.706 57.6756 184.035 76.6422C184.976 77.807 185.918 78.985 186.859 80.1729L193.068 79.8945L193.065 79.8697C193.024 79.5172 193.278 79.3425 193.554 79.3442L189.827 47.4477C189.597 47.4477 189.36 47.3159 189.263 47.072L178.637 48.9255L177.297 49.1595L177.353 49.0787C176.517 49.2171 175.68 49.3572 174.844 49.4956C164.976 51.1365 155.107 52.7775 145.24 54.4184C145.466 54.4893 145.695 54.5601 145.923 54.631L129.16 57.5537C128.998 57.5801 128.845 57.6246 128.686 57.6575C125.277 58.0216 121.936 59.3808 119.128 61.7797C118.046 62.704 117.12 63.7403 116.317 64.8441L84.6571 98.1608C82.8064 99.894 81.2596 101.695 80.0592 103.451C78.3218 105.99 77.3349 108.425 77.2725 110.419H77.2544C76.9194 120.665 77.6223 129.243 78.9245 129.286C79.7587 129.314 80.6011 125.914 81.1873 120.775C83.2022 125.097 85.0085 128.179 86.0726 129.026L87.0283 127.621C86.9002 125.793 86.1235 122.571 84.8689 118.632H84.8739Z" fill="#F7B181"/>
<path d="M184.042 76.6421C168.712 57.6756 140.254 56.8287 123.756 74.5629C122.557 75.7113 121.457 76.998 120.487 78.4264L99.2754 109.623L94.5346 116.595L92.408 119.722L90.9383 121.884L88.9859 124.755L87.0367 127.622L86.081 129.028L74.1772 146.533L74.2659 146.584C74.6617 146.928 75.0574 147.274 75.4548 147.618C78.2267 150.032 80.9986 152.446 83.7705 154.858C84.0382 155.092 83.9774 155.401 83.782 155.596L96.5725 166.733C96.7679 166.539 97.0963 166.46 97.3623 166.692C99.1571 168.256 100.954 169.819 102.748 171.381C103.65 170.337 104.552 169.292 105.453 168.247C112.526 160.054 119.597 151.863 126.669 143.671C126.901 143.402 127.211 143.463 127.405 143.659L151.876 115.31L170.77 141.531C171.008 141.392 171.35 141.397 171.555 141.682C173.133 143.875 174.709 146.068 176.287 148.259C181.83 155.962 187.37 163.662 192.912 171.365C194.602 173.714 196.221 176.172 198.215 178.276C203.706 184.075 211.478 187.422 219.449 187.422C219.813 187.422 219.987 187.713 219.976 187.997C226.553 188.231 233.253 186.501 239.153 182.634L251.296 174.679C251.296 174.679 219.398 121.208 186.869 80.1728C185.928 78.9849 184.986 77.8069 184.045 76.6421H184.042Z" fill="#79D7FF"/>
<path d="M194.172 79.8697C194.311 81.0625 194.451 82.2554 194.591 83.4498C197.129 82.9589 199.837 82.9028 202.405 82.6343C206.025 82.2554 209.644 81.8764 213.263 81.4975C215.455 81.2685 217.71 81.1548 219.869 80.6852C225.04 79.5616 229.632 76.372 232.491 71.9022C238.448 62.5902 235.588 49.8135 226.221 43.9647C222.265 41.495 217.697 40.5955 213.091 41.0864C210.719 41.3385 208.347 41.584 205.975 41.8328C200.625 42.3929 195.275 42.9531 189.925 43.5149C190.058 44.6517 190.191 45.7885 190.324 46.9237C190.365 47.2763 190.111 47.4509 189.835 47.4493L193.563 79.3458C193.838 79.3458 194.134 79.5237 194.173 79.8714L194.172 79.8697Z" fill="#FEE9D8"/>
<path d="M189.832 47.4476C190.107 47.4476 190.362 47.2746 190.321 46.922C190.188 45.7852 190.055 44.6484 189.922 43.5133C195.272 42.9531 200.622 42.3929 205.972 41.8311C208.343 41.5823 210.716 41.3385 213.087 41.0848C217.693 40.5938 222.263 41.495 226.218 43.963C235.586 49.8102 238.445 62.5886 232.487 71.9005C229.628 76.3703 225.037 79.5599 219.866 80.6836C217.707 81.1531 215.452 81.2652 213.26 81.4958C209.64 81.8747 206.021 82.2537 202.402 82.6326C199.834 82.9012 197.126 82.9572 194.587 83.4482C194.448 82.2553 194.308 81.0625 194.168 79.868C194.127 79.5188 193.832 79.3425 193.558 79.3425C193.282 79.3425 193.027 79.5155 193.068 79.868L193.071 79.8927C193.234 81.28 193.395 82.6656 193.558 84.0528C193.589 84.3247 193.784 84.6393 194.108 84.6047C199.991 83.9886 205.877 83.3724 211.76 82.7545C213.848 82.5354 215.94 82.341 218.025 82.0988C223.217 81.4942 228.081 78.9668 231.523 75.0111C238.625 66.8475 238.392 54.247 230.924 46.3948C227.333 42.6186 222.396 40.2824 217.212 39.8837C214.618 39.6844 211.99 40.0962 209.411 40.3664C202.865 41.0518 196.318 41.7388 189.772 42.4242C189.62 42.4407 189.465 42.4555 189.313 42.472C189.045 42.5 188.725 42.7027 188.763 43.0239C188.914 44.3238 189.066 45.6221 189.217 46.922L189.265 47.072C189.362 47.3158 189.598 47.4476 189.828 47.4476H189.832Z" fill="#E0B778"/>
<path d="M219.446 187.423C211.473 187.423 203.701 184.077 198.211 178.278C196.218 176.172 194.6 173.716 192.909 171.366C187.367 163.664 181.826 155.963 176.284 148.261C174.706 146.068 173.13 143.875 171.552 141.684C171.346 141.399 171.005 141.394 170.767 141.532C170.599 141.63 170.491 141.799 170.509 141.991C170.517 142.071 170.54 142.155 170.602 142.243C174.803 148.08 179.003 153.919 183.204 159.756C186.005 163.649 188.805 167.542 191.607 171.434C193.144 173.569 194.615 175.803 196.316 177.813C200.617 182.893 206.548 186.394 212.981 187.817C213.329 187.895 213.682 187.957 214.033 188.023C215.813 188.351 217.624 188.53 219.447 188.53C219.79 188.53 219.964 188.27 219.974 188.002C219.984 187.718 219.812 187.427 219.447 187.427L219.446 187.423Z" fill="#28225C"/>
<path d="M96.5756 167.468L96.5805 167.473C98.5231 169.165 100.467 170.857 102.41 172.549C102.622 172.734 102.981 172.788 103.188 172.549C110.261 164.358 117.332 156.164 124.405 147.973C125.418 146.8 126.431 145.627 127.442 144.452C127.556 144.32 127.594 144.175 127.58 144.037C127.567 143.893 127.5 143.76 127.401 143.659C127.208 143.463 126.897 143.402 126.666 143.671C119.595 151.863 112.522 160.056 105.45 168.247C104.548 169.292 103.647 170.337 102.745 171.381C100.95 169.818 99.1537 168.254 97.3589 166.692C97.0929 166.46 96.7644 166.539 96.569 166.733C96.3752 166.926 96.3145 167.234 96.5772 167.466L96.5756 167.468Z" fill="#28225C"/>
<path d="M73.4859 147.365C76.2578 149.778 79.0297 152.192 81.8016 154.604C82.1973 154.948 82.5931 155.294 82.9905 155.639L83.0299 155.66C83.2893 155.853 83.5948 155.782 83.7803 155.596C83.9757 155.401 84.0365 155.09 83.7688 154.858C80.9969 152.444 78.225 150.03 75.4531 147.618C75.0574 147.274 74.6617 146.928 74.2643 146.584L74.1756 146.533C73.9325 146.386 73.66 146.45 73.4859 146.618C73.2839 146.813 73.2149 147.128 73.4875 147.365H73.4859Z" fill="#28225C"/>
</g>
<defs>
<clipPath id="clip0_53_2826">
<rect width="263" height="188" fill="white" transform="translate(0.674316 0.5271)"/>
</clipPath>
</defs>
</svg>
