<svg width="316" height="289" viewBox="0 0 316 289" fill="none" xmlns="http://www.w3.org/2000/svg">
<path d="M136.559 198.669L168.338 165.428C169.145 164.326 170.074 163.292 171.16 162.37C173.979 159.977 177.332 158.621 180.754 158.257C180.914 158.225 181.069 158.18 181.23 158.154L198.056 155.238C197.827 155.167 197.598 155.096 197.371 155.026C196.983 155.09 196.594 155.154 196.207 155.218C195.712 155.3 195.427 154.792 195.549 154.447C183.254 150.418 173.956 144.96 175.21 131.823C192.066 133.805 195.063 117.744 203.146 118.84C211.439 119.964 219 114.157 219 114.157C219 114.157 217.465 113.095 214.785 111.714C211.503 110.024 206.499 107.856 200.46 106.557C192.121 103.467 182.423 104.8 175.423 110.83C173.755 112.266 172.351 113.882 171.2 115.618L171.195 115.615C171.195 115.615 167.572 121.95 156.057 121.493H156.039C155.958 121.49 155.885 121.493 155.803 121.49C155.589 121.48 155.378 121.485 155.17 121.498C149.556 121.592 143.986 123.525 139.516 127.375C132.329 133.564 129.934 143.017 132.523 151.508L132.528 151.518C132.581 151.689 132.64 151.858 132.697 152.029C133.272 153.956 134.764 160.833 128.576 165.525L128.579 165.53C128.388 165.684 128.195 165.835 128.007 165.997C117.972 174.638 117.275 189.641 126.451 199.504C128.098 201.275 129.954 202.756 131.945 203.949C133.15 202.197 134.703 200.402 136.56 198.671L136.559 198.669Z" fill="#232323"/>
<path d="M57.74 263.226C59.7151 261.996 61.0045 260.041 61.0209 257.826C61.0486 254.089 57.4675 251.032 53 250.949V278.674L75.8596 278.949L76 261.764L57.7417 263.226H57.74Z" fill="black"/>
<path d="M118.436 267.652C120.003 269.261 120.482 271.59 119.964 273.887L135 256.002L134.961 255.98C134.568 255.636 134.175 255.289 133.781 254.945C131.029 252.528 128.277 250.111 125.525 247.697C125.254 247.459 125.323 247.144 125.523 246.949L76.3065 249.318L76.2103 261.402L76.0701 278.907L76 287.788L127.165 287.949L107.877 268.434C111.09 265.3 115.797 264.942 118.436 267.654V267.652Z" fill="#F3E7C9"/>
<path d="M248.329 277.762C246.627 275.753 245.155 273.521 243.618 271.385C240.815 267.493 238.014 263.6 235.211 259.71C231.008 253.874 226.806 248.037 222.603 242.201C222.541 242.116 222.518 242.032 222.51 241.949L179.561 243.997C179.574 244.135 179.536 244.28 179.423 244.412C178.409 245.585 177.396 246.757 176.383 247.932C169.307 256.121 162.233 264.312 155.157 272.501C154.952 272.74 154.59 272.686 154.378 272.501C152.435 270.81 150.49 269.118 148.546 267.427L148.541 267.422L128 287.52L264.992 287.949L265 287.762C258.565 286.339 252.631 282.838 248.328 277.76L248.329 277.762Z" fill="#F3E7C9"/>
<path d="M198.527 139.124C200.438 139.142 202.394 139.428 204.041 140.545C204.754 141.027 205.373 141.655 205.836 142.416C206.218 143.043 206.537 143.743 207.053 144.26C208.085 145.292 209.652 145.148 210.517 143.947C211.457 142.638 210.923 140.864 209.789 139.936C209.23 139.48 208.687 140.499 209.24 140.95C210.229 141.758 210.099 143.806 208.622 143.798C207.474 143.792 206.886 141.877 206.26 141.071C204.377 138.642 201.318 137.974 198.526 137.949C197.826 137.942 197.824 139.117 198.526 139.124H198.527Z" fill="#D1424C"/>
<path d="M198.677 132.932C201.61 132.21 204.051 129.755 204.971 126.668C205.186 125.948 204.138 125.64 203.925 126.356C203.116 129.065 200.949 131.17 198.388 131.802C197.708 131.97 197.996 133.1 198.677 132.932Z" fill="#D1424C"/>
<path d="M196.244 151.948C196.581 151.951 196.781 151.697 196.815 151.408C197.156 148.548 197.263 145.326 194.972 143.111C194.457 142.614 193.651 143.377 194.164 143.875C196.22 145.862 195.975 148.869 195.673 151.41C195.639 151.701 195.961 151.946 196.244 151.949V151.948Z" fill="#D1424C"/>
<path d="M203.98 131.364C203.912 131.637 204.064 132.022 204.345 132.072C205.317 132.243 206.272 132.573 207.173 133.006C207.569 133.197 207.969 133.416 208.313 133.707C208.46 133.83 208.596 133.973 208.719 134.126C208.786 134.209 208.982 134.429 208.961 134.549C208.911 134.838 208.22 134.794 208.031 134.782C207.541 134.749 207.051 134.623 206.577 134.489C205.581 134.207 204.62 133.798 203.662 133.39C203.398 133.278 203.09 133.514 203.019 133.793C202.938 134.118 203.121 134.389 203.384 134.501C204.292 134.887 205.202 135.274 206.141 135.554C207.009 135.812 208.037 136.106 208.931 135.852C209.341 135.735 209.747 135.477 209.918 135.031C210.102 134.553 209.954 134.026 209.687 133.624C209.19 132.874 208.46 132.378 207.7 132.01C206.714 131.534 205.688 131.147 204.623 130.959C204.345 130.911 204.061 131.038 203.98 131.362V131.364Z" fill="#D1424C"/>
<path d="M199.384 147.501C200.292 147.887 201.202 148.274 202.141 148.554C203.009 148.812 204.037 149.106 204.931 148.852C205.341 148.735 205.747 148.477 205.918 148.031C206.102 147.553 205.954 147.026 205.687 146.624C205.19 145.874 204.46 145.378 203.7 145.01C202.715 144.534 201.688 144.147 200.623 143.959C200.345 143.911 200.061 144.038 199.98 144.362C199.912 144.635 200.064 145.022 200.345 145.071C201.317 145.241 202.272 145.571 203.173 146.005C203.569 146.196 203.969 146.414 204.313 146.705C204.46 146.829 204.596 146.971 204.719 147.125C204.786 147.207 204.982 147.427 204.961 147.548C204.911 147.837 204.22 147.792 204.031 147.78C203.541 147.747 203.051 147.622 202.577 147.488C201.581 147.205 200.62 146.796 199.662 146.388C199.398 146.276 199.09 146.512 199.019 146.791C198.938 147.116 199.121 147.388 199.384 147.5V147.501Z" fill="#D1424C"/>
<path d="M219.776 138.748C220.141 138.159 219.227 137.614 218.865 138.202C217.339 140.669 217.855 144.145 220.232 145.852C220.791 146.252 221.319 145.316 220.765 144.918C219.909 144.303 219.363 143.305 219.137 142.274C218.871 141.05 219.125 139.801 219.776 138.75V138.748Z" fill="#D1424C"/>
<path d="M233.309 131.343C233.165 130.653 232.112 130.946 232.255 131.634C233.418 137.231 233.18 143.204 230.453 148.225C220.513 149.877 210.573 151.528 200.633 153.18C199.218 153.415 197.802 153.651 196.388 153.884C196.188 153.917 196.078 154.033 196.028 154.174C195.907 154.517 196.189 155.022 196.679 154.941C197.062 154.877 197.447 154.813 197.83 154.749C207.632 153.121 217.435 151.492 227.236 149.864C228.067 149.726 228.898 149.587 229.729 149.45L229.673 149.53L231.004 149.298L231.109 149.219C231.233 149.198 231.357 149.179 231.481 149.157C231.777 149.108 231.885 148.886 231.865 148.657C231.852 148.508 231.786 148.361 231.671 148.253C234.296 143.096 234.487 137.012 233.307 131.343H233.309Z" fill="#D1424C"/>
<path d="M258.896 131.046C258.781 131.058 258.669 131.071 258.554 131.084C256.422 131.327 254.498 131.907 252.863 132.831L231.867 148.401C231.886 148.631 231.778 148.854 231.479 148.903C231.355 148.925 231.23 148.944 231.105 148.966L231 149.045L241.622 147.197L241.575 147.048C241.424 145.752 241.271 144.458 241.12 143.162C241.082 142.842 241.402 142.64 241.67 142.612C241.822 142.596 241.977 142.579 242.129 142.564C248.672 141.881 255.217 141.197 261.76 140.513C264.339 140.244 266.965 139.832 269.559 140.032C274.741 140.43 279.675 142.758 283.265 146.522C290.731 154.35 290.964 166.91 283.865 175.045C280.424 178.988 275.562 181.507 270.371 182.11C268.287 182.351 266.195 182.547 264.109 182.764C258.228 183.378 252.346 183.992 246.463 184.608C246.14 184.642 245.944 184.329 245.913 184.058C245.751 182.675 245.59 181.294 245.427 179.911L239.221 180.189C271.739 221.091 303.623 274.386 303.623 274.388L304.887 274.949C304.887 274.949 320.243 253.008 314.853 199.435C310.061 151.813 277.054 129.304 258.894 131.043L258.896 131.046Z" fill="#FEE9D8"/>
<path d="M218.603 113.803C218.603 113.803 211.095 119.59 202.858 118.469C194.83 117.377 191.853 133.381 175.113 131.406C173.866 144.497 183.102 149.936 195.312 153.949C195.362 153.809 195.471 153.694 195.674 153.659C197.094 153.424 198.515 153.188 199.934 152.954C209.91 151.299 219.886 149.645 229.862 147.99C232.6 142.96 232.839 136.978 231.671 131.37C231.527 130.68 232.585 130.387 232.729 131.078C233.911 136.759 233.721 142.854 231.087 148.018C231.202 148.126 231.269 148.274 231.282 148.423L252.221 132.893C253.852 131.971 255.769 131.393 257.897 131.15L257.997 131.006L258 131.001L227.868 118.676C227.225 118.151 226.542 117.652 225.824 117.178C227.125 115.373 227.87 112.794 227.705 109.968C227.404 104.777 224.172 100.743 220.487 100.958C216.802 101.172 214.058 105.552 214.36 110.743C214.373 110.954 214.397 111.161 214.418 111.369C217.08 112.744 218.604 113.803 218.604 113.803H218.603ZM209.327 133.506C209.607 133.889 209.763 134.39 209.57 134.846C209.389 135.27 208.964 135.516 208.533 135.627C207.594 135.871 206.516 135.591 205.605 135.344C204.617 135.077 203.663 134.71 202.712 134.341C202.435 134.235 202.244 133.976 202.329 133.666C202.403 133.401 202.727 133.177 203.003 133.283C204.009 133.671 205.019 134.061 206.063 134.33C206.561 134.457 207.075 134.577 207.589 134.608C207.787 134.62 208.512 134.662 208.564 134.387C208.586 134.271 208.379 134.061 208.311 133.984C208.181 133.84 208.039 133.704 207.885 133.584C207.523 133.308 207.104 133.1 206.688 132.918C205.742 132.505 204.74 132.191 203.72 132.028C203.426 131.981 203.265 131.614 203.337 131.354C203.422 131.046 203.72 130.924 204.012 130.97C205.13 131.147 206.207 131.516 207.242 131.971C208.039 132.322 208.805 132.793 209.327 133.507V133.506ZM197.814 131.124C200.402 130.533 202.592 128.562 203.409 126.027C203.625 125.357 204.683 125.645 204.467 126.318C203.537 129.208 201.07 131.506 198.105 132.182C197.418 132.34 197.126 131.281 197.814 131.124ZM197.992 137.511C200.806 137.534 203.889 138.158 205.786 140.426C206.415 141.178 207.008 142.967 208.167 142.973C209.655 142.98 209.786 141.067 208.789 140.313C208.232 139.892 208.779 138.939 209.342 139.366C210.485 140.231 211.023 141.889 210.075 143.113C209.204 144.236 207.623 144.369 206.585 143.406C206.065 142.923 205.744 142.269 205.359 141.683C204.892 140.972 204.269 140.385 203.55 139.935C201.889 138.893 199.919 138.624 197.994 138.608C197.287 138.602 197.288 137.506 197.994 137.511H197.992ZM193.621 143.457C193.127 142.95 193.903 142.176 194.397 142.68C196.599 144.932 196.496 148.212 196.169 151.119C196.136 151.412 195.944 151.671 195.62 151.668C195.349 151.664 195.039 151.415 195.072 151.119C195.363 148.534 195.597 145.478 193.621 143.455V143.457ZM198.249 145.992C198.323 145.727 198.647 145.502 198.924 145.609C199.929 145.997 200.939 146.387 201.983 146.655C202.481 146.783 202.995 146.903 203.509 146.934C203.707 146.945 204.432 146.988 204.485 146.713C204.506 146.597 204.3 146.387 204.231 146.31C204.102 146.164 203.959 146.03 203.806 145.91C203.444 145.633 203.025 145.424 202.609 145.244C201.663 144.831 200.661 144.516 199.641 144.354C199.346 144.308 199.186 143.94 199.258 143.679C199.343 143.371 199.641 143.25 199.932 143.296C201.05 143.473 202.128 143.841 203.162 144.297C203.959 144.647 204.726 145.119 205.248 145.833C205.528 146.217 205.683 146.718 205.49 147.173C205.31 147.597 204.884 147.841 204.454 147.954C203.514 148.198 202.437 147.918 201.525 147.671C200.538 147.404 199.584 147.035 198.632 146.669C198.356 146.562 198.164 146.303 198.249 145.994V145.992ZM218.225 142.035C218.457 143.08 219.025 144.094 219.914 144.716C220.489 145.119 219.94 146.071 219.361 145.663C216.894 143.932 216.358 140.407 217.941 137.905C218.318 137.309 219.267 137.861 218.888 138.459C218.212 139.527 217.948 140.792 218.225 142.033V142.035ZM219.79 105.98C219.98 105.3 221.037 105.59 220.847 106.271C220.598 107.166 220.428 108.089 220.379 109.015C221.017 108.355 221.797 107.831 222.672 107.537C222.964 107.439 223.26 107.65 223.347 107.921C223.442 108.214 223.236 108.504 222.964 108.595C222.88 108.623 222.795 108.653 222.713 108.686L222.656 108.708L222.599 108.735C222.451 108.802 222.306 108.877 222.165 108.959C222.031 109.038 221.9 109.121 221.772 109.211L221.682 109.277L221.664 109.29L221.653 109.3L221.482 109.442C221.24 109.652 221.027 109.885 220.823 110.13V110.134L220.813 110.143L220.734 110.251L220.61 110.435C220.548 110.532 220.494 110.633 220.438 110.735C220.561 111.703 220.839 112.648 221.34 113.531C221.689 114.147 220.742 114.699 220.394 114.084C218.984 111.601 219.04 108.668 219.788 105.985L219.79 105.98Z" fill="#F7B181"/>
<path d="M222.019 114.11C221.531 113.204 221.257 112.231 221.139 111.236C221.194 111.131 221.246 111.029 221.307 110.928L221.428 110.739L221.505 110.628L221.511 110.618V110.614C221.714 110.362 221.922 110.123 222.158 109.907L222.324 109.761L222.335 109.751L222.353 109.737L222.441 109.67C222.564 109.577 222.692 109.491 222.824 109.41C222.961 109.326 223.102 109.25 223.247 109.18L223.303 109.153L223.359 109.129C223.439 109.096 223.522 109.065 223.603 109.037C223.869 108.942 224.07 108.644 223.977 108.343C223.892 108.065 223.603 107.848 223.319 107.949C222.465 108.252 221.705 108.789 221.082 109.468C221.131 108.518 221.296 107.567 221.539 106.647C221.724 105.947 220.692 105.649 220.507 106.348C219.777 109.106 219.723 112.123 221.098 114.674C221.438 115.305 222.363 114.738 222.021 114.105L222.019 114.11Z" fill="#D1424C"/>
<path d="M148.993 266.941L136.161 255.949C135.975 256.133 135.669 256.203 135.409 256.013L120.214 273.644C120.738 271.379 120.252 269.083 118.671 267.497C116.003 264.824 111.247 265.177 108 268.266L127.491 287.504L127.942 287.949L128.402 287.507L149 267.666C148.738 267.437 148.799 267.133 148.992 266.943L148.993 266.941Z" fill="black"/>
<path d="M136.677 219.322C138.193 221.815 139.599 223.907 140.772 225.429L142.718 222.564C142.142 221.044 141.388 219.273 140.492 217.342C141.807 218.488 143.049 219.521 144.181 220.41L146.301 217.291C145.486 216.341 144.579 215.326 143.581 214.258C143.964 213.957 144.352 213.638 144.743 213.31L151.025 210.337L172.166 179.224C173.133 177.797 174.23 176.514 175.425 175.369C191.871 157.679 220.233 158.525 235.512 177.442C236.45 178.604 237.389 179.779 238.327 180.964L244.516 180.686L244.512 180.662C244.471 180.31 244.725 180.136 245 180.137L241.285 148.324C241.056 148.324 240.82 148.193 240.723 147.949L230.132 149.798L228.797 150.031L228.852 149.951C228.019 150.089 227.184 150.229 226.351 150.367C216.516 152.003 206.68 153.64 196.845 155.277C197.07 155.347 197.298 155.418 197.525 155.489L180.818 158.404C180.656 158.43 180.504 158.474 180.345 158.507C176.947 158.87 173.618 160.226 170.819 162.619C169.74 163.541 168.817 164.574 168.017 165.675L136.461 198.905C134.617 200.634 133.075 202.43 131.878 204.181C130.147 206.714 129.163 209.142 129.101 211.131H129.083C128.749 221.35 129.449 229.907 130.747 229.949C131.579 229.977 132.418 226.585 133.003 221.46C135.011 225.77 136.811 228.845 137.872 229.69L138.825 228.288C138.697 226.466 137.923 223.251 136.672 219.322H136.677Z" fill="#F7B181"/>
<path d="M236.791 176.75C221.472 157.814 193.033 156.968 176.546 174.674C175.348 175.821 174.248 177.106 173.278 178.532L152.081 209.679L147.344 216.64L145.219 219.762L143.75 221.92L141.799 224.787L139.851 227.65L138.896 229.053L127 246.53L127.089 246.581C127.484 246.925 127.88 247.271 128.277 247.614C131.047 250.024 133.817 252.434 136.587 254.842C136.854 255.076 136.794 255.385 136.598 255.579L149.38 266.699C149.575 266.505 149.904 266.426 150.17 266.658C151.963 268.219 153.758 269.78 155.552 271.339C156.453 270.296 157.354 269.254 158.255 268.211C165.323 260.03 172.389 251.852 179.457 243.673C179.688 243.405 179.998 243.466 180.192 243.662L204.646 215.357L223.528 241.536C223.766 241.398 224.107 241.403 224.312 241.688C225.889 243.877 227.465 246.066 229.042 248.254C234.58 255.944 240.117 263.633 245.655 271.323C247.344 273.669 248.962 276.123 250.954 278.223C256.442 284.014 264.209 287.354 272.174 287.354C272.538 287.354 272.712 287.646 272.701 287.929C279.273 288.162 285.969 286.435 291.865 282.574L304 274.633C304 274.633 272.123 221.246 239.616 180.275C238.676 179.089 237.734 177.913 236.794 176.75H236.791Z" fill="#F3E7C9"/>
<path d="M246.359 179.411C246.499 180.59 246.639 181.769 246.779 182.949C249.331 182.464 252.052 182.409 254.634 182.143C258.271 181.769 261.908 181.394 265.546 181.02C267.749 180.793 270.015 180.681 272.185 180.217C277.382 179.106 281.997 175.954 284.87 171.536C290.858 162.332 287.983 149.703 278.569 143.922C274.593 141.481 270.002 140.592 265.373 141.077C262.989 141.326 260.605 141.569 258.221 141.815C252.845 142.368 247.468 142.922 242.091 143.477C242.224 144.601 242.358 145.725 242.492 146.847C242.533 147.195 242.277 147.368 242 147.366L245.746 178.893C246.024 178.893 246.321 179.069 246.36 179.412L246.359 179.411Z" fill="#FEE9D8"/>
<path d="M242.074 147.604C242.35 147.604 242.605 147.43 242.564 147.076C242.43 145.933 242.297 144.791 242.164 143.65C247.522 143.087 252.879 142.524 258.237 141.959C260.611 141.709 262.987 141.464 265.362 141.209C269.975 140.716 274.551 141.622 278.511 144.102C287.892 149.978 290.755 162.821 284.789 172.179C281.926 176.671 277.329 179.877 272.15 181.006C269.988 181.478 267.73 181.591 265.535 181.822C261.91 182.203 258.286 182.584 254.662 182.965C252.09 183.235 249.378 183.291 246.836 183.784C246.696 182.586 246.556 181.387 246.417 180.186C246.375 179.835 246.079 179.658 245.805 179.658C245.529 179.658 245.274 179.832 245.315 180.186L245.318 180.211C245.481 181.605 245.642 182.998 245.805 184.392C245.836 184.665 246.032 184.982 246.356 184.947C252.248 184.328 258.141 183.708 264.033 183.087C266.123 182.867 268.218 182.672 270.307 182.428C275.506 181.821 280.377 179.281 283.824 175.305C290.936 167.101 290.703 154.437 283.224 146.546C279.627 142.751 274.684 140.403 269.493 140.002C266.895 139.802 264.264 140.216 261.68 140.487C255.125 141.176 248.569 141.867 242.014 142.556C241.861 142.572 241.707 142.587 241.554 142.604C241.286 142.632 240.965 142.835 241.003 143.158C241.154 144.465 241.307 145.769 241.459 147.076L241.506 147.226C241.603 147.472 241.84 147.604 242.07 147.604H242.074Z" fill="#DFC4B6"/>
<path d="M271.476 287.844C263.579 287.844 255.88 284.504 250.442 278.716C248.468 276.614 246.866 274.162 245.19 271.817C239.7 264.129 234.212 256.442 228.723 248.754C227.16 246.565 225.598 244.376 224.035 242.189C223.831 241.905 223.493 241.9 223.257 242.038C223.091 242.135 222.984 242.304 223.002 242.495C223.01 242.576 223.033 242.659 223.095 242.747C227.255 248.573 231.416 254.401 235.577 260.228C238.352 264.114 241.125 268 243.9 271.884C245.423 274.015 246.88 276.245 248.565 278.252C252.825 283.322 258.701 286.816 265.072 288.237C265.417 288.315 265.767 288.377 266.115 288.443C267.878 288.77 269.672 288.949 271.477 288.949C271.817 288.949 271.99 288.69 272 288.422C272.009 288.139 271.839 287.848 271.477 287.848L271.476 287.844Z" fill="#28225C"/>
<path d="M149.173 267.748L149.178 267.753C151.109 269.432 153.042 271.112 154.974 272.791C155.184 272.974 155.542 273.028 155.748 272.791C162.779 264.661 169.809 256.529 176.84 248.398C177.847 247.234 178.855 246.07 179.86 244.904C179.973 244.773 180.011 244.629 179.998 244.492C179.984 244.349 179.918 244.217 179.82 244.117C179.627 243.922 179.318 243.862 179.088 244.129C172.058 252.259 165.027 260.391 157.996 268.522C157.099 269.558 156.203 270.595 155.307 271.632C153.522 270.08 151.736 268.528 149.952 266.978C149.687 266.747 149.361 266.826 149.167 267.019C148.974 267.21 148.914 267.516 149.175 267.746L149.173 267.748Z" fill="#28225C"/>
<path d="M126.184 247.831C129.049 250.161 131.915 252.491 134.78 254.82C135.189 255.152 135.599 255.486 136.009 255.818L136.05 255.839C136.318 256.025 136.634 255.957 136.826 255.777C137.028 255.589 137.091 255.289 136.814 255.064C133.949 252.735 131.083 250.405 128.218 248.076C127.809 247.744 127.399 247.41 126.989 247.078L126.897 247.028C126.646 246.887 126.364 246.949 126.184 247.111C125.975 247.299 125.904 247.602 126.186 247.831H126.184Z" fill="#28225C"/>
<path d="M118.233 111.662C118.627 111.534 118.842 111.11 118.713 110.716L116.616 104.3C116.487 103.907 116.064 103.692 115.67 103.82C115.276 103.949 115.062 104.373 115.19 104.766L117.054 110.469L111.351 112.333C110.957 112.462 110.742 112.885 110.871 113.279C111 113.673 111.423 113.888 111.817 113.759L118.233 111.662ZM0.296338 1.20936C0.575418 1.96466 0.857637 2.72321 1.1441 3.48505L2.54812 2.95711C2.26287 2.19849 1.98167 1.44268 1.70336 0.689467L0.296338 1.20936ZM2.89419 8.02406C3.48571 9.51488 4.10123 11.0187 4.74877 12.536L6.1284 11.9473C5.48658 10.4433 4.87595 8.95154 4.28844 7.47085L2.89419 8.02406ZM6.72852 16.9853C7.4031 18.4378 8.1129 19.9029 8.86466 21.381L10.2017 20.701C9.45853 19.2398 8.75652 17.7909 8.08897 16.3535L6.72852 16.9853ZM11.1562 25.6829C11.9336 27.0769 12.7525 28.4824 13.6182 29.9001L14.8984 29.1183C14.0432 27.718 13.2343 26.3295 12.4663 24.9524L11.1562 25.6829ZM16.2523 34.0262C17.1339 35.3485 18.0591 36.6813 19.0322 38.0249L20.247 37.145C19.2854 35.8173 18.3712 34.5005 17.5004 33.1942L16.2523 34.0262ZM21.9664 41.9196C22.9475 43.1725 23.972 44.4348 25.0434 45.7068L26.1907 44.7405C25.1308 43.4821 24.1174 42.2337 23.1475 40.9948L21.9664 41.9196ZM28.2502 49.3854C29.3157 50.5672 30.4228 51.7573 31.5741 52.956L32.656 51.917C31.5155 50.7295 30.4191 49.5509 29.3643 48.381L28.2502 49.3854ZM35.003 56.4214C36.1377 57.5353 37.3115 58.6567 38.5262 59.7856L39.5474 58.6868C38.3425 57.5671 37.1786 56.4552 36.0538 55.3509L35.003 56.4214ZM42.1349 63.0541C43.3274 64.1073 44.556 65.167 45.8223 66.2334L46.7885 65.086C45.5311 64.0271 44.3113 62.975 43.1279 61.9298L42.1349 63.0541ZM49.5835 69.3304C50.8268 70.3319 52.1038 71.3393 53.4155 72.3527L54.3326 71.1656C53.0287 70.1583 51.7597 69.1572 50.5244 68.1622L49.5835 69.3304ZM57.3071 75.3001C58.5804 76.2461 59.8844 77.1972 61.2198 78.1536L62.0932 76.9341C60.7647 75.9826 59.4678 75.0366 58.2016 74.096L57.3071 75.3001ZM65.193 80.95C66.5095 81.8608 67.8548 82.7764 69.2296 83.697L70.0642 82.4505C68.6956 81.5342 67.3566 80.6228 66.0465 79.7164L65.193 80.95ZM73.2916 86.3747C74.625 87.2403 75.9847 88.1102 77.3712 88.9845L78.1712 87.7157C76.7902 86.8449 75.4362 85.9785 74.1084 85.1165L73.2916 86.3747ZM81.5177 91.5628C82.878 92.397 84.2628 93.2351 85.6726 94.0772L86.4418 92.7895C85.0369 91.9503 83.6571 91.1152 82.3019 90.2841L81.5177 91.5628ZM89.8487 96.5405C91.2423 97.3523 92.6592 98.1678 94.0999 98.9871L94.8414 97.6832C93.4052 96.8665 91.9928 96.0535 90.6038 95.2444L89.8487 96.5405ZM98.2975 101.347C99.7028 102.128 101.13 102.913 102.579 103.701L103.295 102.384C101.85 101.598 100.428 100.815 99.0263 100.036L98.2975 101.347ZM106.841 105.995C108.256 106.749 109.692 107.506 111.148 108.266L111.842 106.937C110.389 106.178 108.957 105.423 107.546 104.671L106.841 105.995ZM115.46 110.496C116.189 110.87 116.922 111.244 117.661 111.618L118.339 110.281C117.603 109.907 116.871 109.534 116.144 109.161L115.46 110.496Z" fill="#6D4C3A"/>
<path d="M180.159 156.682C180.564 156.594 180.821 156.195 180.733 155.79L179.3 149.194C179.212 148.789 178.813 148.532 178.408 148.62C178.003 148.708 177.746 149.108 177.834 149.512L179.108 155.376L173.245 156.649C172.84 156.737 172.583 157.137 172.671 157.542C172.759 157.946 173.158 158.203 173.563 158.115L180.159 156.682ZM77.28 26.1593C77.5023 26.922 77.7439 27.7143 78.0049 28.5349L79.4343 28.0803C79.1768 27.2706 78.9388 26.4899 78.72 25.7395L77.28 26.1593ZM79.6031 33.2303C80.1412 34.7206 80.7316 36.2794 81.3749 37.9007L82.7692 37.3474C82.1313 35.7401 81.5466 34.1959 81.0139 32.7208L79.6031 33.2303ZM83.2632 42.4768C83.8943 43.9515 84.5646 45.4678 85.2745 47.0221L86.6389 46.3989C85.934 44.8554 85.2686 43.3501 84.6422 41.8866L83.2632 42.4768ZM87.3928 51.5255C88.0983 52.9836 88.8362 54.4695 89.6069 55.9807L90.9432 55.2992C90.1772 53.7973 89.444 52.3208 88.7431 50.8722L87.3928 51.5255ZM91.9038 60.3747C92.6704 61.8065 93.465 63.2575 94.288 64.7257L95.5965 63.9922C94.7782 62.5325 93.9882 61.0899 93.2261 59.6666L91.9038 60.3747ZM96.7558 69.0321C97.58 70.4395 98.4295 71.8602 99.3044 73.2927L100.584 72.5108C99.7145 71.0863 98.8698 69.6735 98.0502 68.274L96.7558 69.0321ZM101.932 77.5067C102.81 78.887 103.711 80.2763 104.636 81.6732L105.887 80.8452C104.967 79.4559 104.07 78.0742 103.197 76.7015L101.932 77.5067ZM107.412 85.785C108.339 87.1327 109.288 88.486 110.259 89.8437L111.479 88.9711C110.514 87.6208 109.57 86.2749 108.647 84.9345L107.412 85.785ZM113.18 93.8515C114.158 95.1677 115.156 96.4868 116.175 97.8075L117.362 96.8915C116.349 95.5779 115.357 94.2661 114.385 92.9571L113.18 93.8515ZM119.242 101.711C120.269 102.993 121.315 104.276 122.381 105.559L123.535 104.6C122.475 103.325 121.434 102.049 120.413 100.773L119.242 101.711ZM125.593 109.352C126.666 110.596 127.758 111.838 128.868 113.078L129.986 112.078C128.881 110.844 127.795 109.609 126.728 108.372L125.593 109.352ZM132.21 116.741C133.33 117.945 134.468 119.146 135.624 120.343L136.703 119.301C135.554 118.111 134.422 116.917 133.309 115.719L132.21 116.741ZM139.108 123.883C140.276 125.046 141.461 126.205 142.663 127.358L143.701 126.275C142.506 125.129 141.328 123.977 140.167 122.82L139.108 123.883ZM146.275 130.755C147.484 131.87 148.711 132.979 149.954 134.082L150.95 132.959C149.713 131.864 148.494 130.761 147.292 129.652L146.275 130.755ZM153.703 137.339C154.959 138.409 156.232 139.471 157.521 140.525L158.47 139.363C157.189 138.316 155.924 137.26 154.676 136.197L153.703 137.339ZM161.391 143.624C162.687 144.64 163.999 145.648 165.327 146.646L166.228 145.447C164.908 144.455 163.605 143.454 162.317 142.444L161.391 143.624ZM169.329 149.59C170.667 150.554 172.022 151.508 173.392 152.452L174.243 151.216C172.881 150.279 171.535 149.331 170.205 148.373L169.329 149.59ZM177.505 155.221C178.198 155.677 178.894 156.13 179.594 156.58L180.406 155.319C179.71 154.871 179.018 154.421 178.33 153.968L177.505 155.221Z" fill="#6D4C3A"/>
</svg>
