<svg width="113" height="46" viewBox="0 0 113 46" fill="none" xmlns="http://www.w3.org/2000/svg">
<path d="M112.487 24.0337C112.657 24.0337 112.794 24.17 112.759 24.3403L112.112 28.5989C112.112 28.7351 112.01 28.8374 111.874 28.8714C111.226 28.9055 109.591 28.9736 109.08 28.9736C109.046 28.9736 109.012 28.9736 108.978 28.9736C105.946 28.8374 104.31 27.2702 104.31 24.4425V15.7891C104.31 15.6528 104.174 15.5165 104.038 15.5165H102.164C101.994 15.5165 101.892 15.3803 101.892 15.2099V10.9513C101.892 10.8151 101.994 10.6788 102.164 10.6788H104.038C104.174 10.6788 104.31 10.5425 104.31 10.3722V5.43222C104.31 5.29594 104.447 5.15967 104.617 5.15967H109.625C109.796 5.15967 109.932 5.29594 109.932 5.43222V10.3722C109.932 10.5425 110.068 10.6788 110.204 10.6788H112.078C112.248 10.6788 112.385 10.8151 112.385 10.9513V15.2099C112.385 15.3803 112.248 15.5165 112.078 15.5165H110.204C110.068 15.5165 109.932 15.6528 109.932 15.7891C109.932 17.2881 109.932 21.717 109.932 21.7511V21.8874C109.898 22.4325 109.864 23.182 110.307 23.6249C110.579 23.8974 110.988 24.0337 111.499 24.0337H112.487Z" fill="#3E3E3E"/>
<path d="M88.5807 8.23736C93.581 6.53972 99.0039 9.15994 100.68 14.0957C102.344 18.9993 99.6487 24.4118 94.6484 26.1094C89.6481 27.8071 84.2465 25.1436 82.5817 20.2401C80.906 15.3043 83.5804 9.93501 88.5807 8.23736ZM92.9398 21.0769C95.1335 20.3321 96.3054 17.9554 95.5825 15.8262C94.8487 13.6648 92.483 12.5252 90.2893 13.2699C88.1278 14.0038 86.945 16.3482 87.6788 18.5096C88.4017 20.6388 90.7784 21.8107 92.9398 21.0769Z" fill="#3E3E3E"/>
<path d="M72.7259 10.9171C77.7262 9.2194 83.1491 11.8396 84.8249 16.7754C86.4897 21.6789 83.794 27.0915 78.7936 28.7891C73.7933 30.4868 68.3918 27.8233 66.727 22.9198C65.0512 17.984 67.7256 12.6147 72.7259 10.9171ZM77.085 23.7566C79.2787 23.0118 80.4506 20.6351 79.7278 18.5059C78.994 16.3445 76.6282 15.2048 74.4345 15.9496C72.2731 16.6834 71.0902 19.0279 71.8241 21.1893C72.5469 23.3185 74.9236 24.4904 77.085 23.7566Z" fill="#3E3E3E"/>
<path d="M64.5507 9.55469C64.0737 9.55469 63.699 9.69096 63.4264 9.96351C62.9835 10.4064 62.9836 11.2241 62.9836 11.8373C62.9836 11.9736 63.1198 12.1098 63.2561 12.1098H65.1299C65.3002 12.1098 65.4365 12.2461 65.4365 12.3824V16.641C65.4365 16.8113 65.3002 16.9476 65.1299 16.9476H63.2561C63.1198 16.9476 62.9836 17.0498 62.9836 17.2201V28.4287C62.9836 28.565 62.8473 28.7012 62.6769 28.7012H57.6688C57.4985 28.7012 57.3622 28.565 57.3622 28.4287V27.4407V17.2201C57.3622 17.0498 57.226 16.9476 57.0897 16.9476H55.2159C55.0456 16.9476 54.9434 16.8113 54.9434 16.641V12.3824C54.9434 12.2461 55.0456 12.1098 55.2159 12.1098H57.0897C57.226 12.1098 57.3622 11.9736 57.3622 11.8373V9.69096C57.3622 5.70494 60.6328 5.0917 62.0296 5.02356C62.4385 4.9895 62.6769 5.02356 62.711 5.02356H65.5387C65.709 5.02356 65.8453 5.15984 65.8453 5.33018L65.4365 9.31621C65.4365 9.45248 65.3002 9.55469 65.1639 9.55469H64.5507Z" fill="#3E3E3E"/>
<path d="M53.661 24.0337C53.8314 24.0337 53.9676 24.17 53.9336 24.3403L53.2863 28.5989C53.2863 28.7351 53.1841 28.8374 53.0478 28.8714C52.4005 28.9055 50.7652 28.9736 50.2542 28.9736C50.2201 28.9736 50.186 28.9736 50.1519 28.9736C47.1198 28.8374 45.4845 27.2702 45.4845 24.4425V15.7891C45.4845 15.6528 45.3483 15.5165 45.212 15.5165H43.3382C43.1679 15.5165 43.0657 15.3803 43.0657 15.2099V10.9513C43.0657 10.8151 43.1679 10.6788 43.3382 10.6788H45.212C45.3483 10.6788 45.4845 10.5425 45.4845 10.3722V5.43222C45.4845 5.29594 45.6208 5.15967 45.7912 5.15967H50.7992C50.9696 5.15967 51.1059 5.29594 51.1059 5.43222V10.3722C51.1059 10.5425 51.2421 10.6788 51.3784 10.6788H53.2522C53.4225 10.6788 53.5588 10.8151 53.5588 10.9513V15.2099C53.5588 15.3803 53.4225 15.5165 53.2522 15.5165H51.3784C51.2421 15.5165 51.1059 15.6528 51.1059 15.7891C51.1059 17.2881 51.1059 21.717 51.1059 21.7511V21.8874C51.0718 22.4325 51.0377 23.182 51.4806 23.6249C51.7532 23.8974 52.162 24.0337 52.673 24.0337H53.661Z" fill="#3E3E3E"/>
<path d="M41.5473 10.679C41.7177 10.679 41.8539 10.8153 41.8539 10.9856V28.4288C41.8539 28.565 41.7177 28.7013 41.5473 28.7013H36.5392C36.3689 28.7013 36.2326 28.565 36.2326 28.4288V27.9177C36.2326 27.8155 36.0963 27.7474 36.0282 27.8155C34.7677 28.6672 33.5071 28.9739 32.3829 28.9739C29.8958 28.9739 27.988 27.5089 27.9539 27.4748C27.8177 27.3726 27.6814 27.2364 27.5792 27.1001H27.5451C25.7395 25.2604 25.4329 23.7614 25.4329 21.104V10.9856C25.4329 10.8153 25.5351 10.679 25.7054 10.679H31.0882C31.2245 10.679 31.3608 10.8153 31.3608 10.9856V20.8315C31.3608 21.5128 31.3949 22.2623 31.6674 22.8756C31.8037 23.1481 31.974 23.3525 32.1784 23.5229C32.5191 23.7954 32.962 23.9317 33.5071 23.9317C34.5632 23.9317 35.3468 23.5569 35.6194 22.9778C35.8919 22.3645 35.8919 21.5128 35.8919 20.8315V10.9856C35.8919 10.8153 36.0282 10.679 36.1985 10.679H41.5473Z" fill="#3E3E3E"/>
<path d="M15.1642 10.4064C20.4448 10.4064 24.7375 14.6309 24.7375 19.8434C24.7375 25.0219 20.4448 29.2804 15.1642 29.2804C9.88358 29.2804 5.625 25.0219 5.625 19.8434C5.625 14.6309 9.88358 10.4064 15.1642 10.4064ZM15.1642 23.9657C17.4809 23.9657 19.3547 22.092 19.3547 19.8434C19.3547 17.5608 17.4809 15.7211 15.1642 15.7211C12.8816 15.7211 11.0078 17.5608 11.0078 19.8434C11.0078 22.092 12.8816 23.9657 15.1642 23.9657Z" fill="#3E3E3E"/>
<circle cx="3.13313" cy="8.21718" r="2.46199" fill="#79D7FF"/>
<circle cx="10.1539" cy="3.24629" r="2.46199" fill="#79D7FF"/>
<circle cx="18.6859" cy="3.24629" r="2.46199" fill="#79D7FF"/>
<path d="M77.8861 37.987V38.5948C77.8861 39.1893 77.8861 39.8719 77.7188 40.7616H78.7757V41.5543H75.6136V42.7962H77.9037V45.5884H76.926V43.5801H72.2401V42.7962H74.6359V41.5543H71.5002V40.7616H76.7323C76.8908 39.9468 76.9084 39.3258 76.9084 38.7709H72.3987V37.987H77.8861Z" fill="#3E3E3E"/>
<path d="M66.7394 39.8895C66.7394 41.1226 67.4705 42.5231 68.7301 43.1044L68.184 43.8795C67.2855 43.4568 66.6205 42.6024 66.2638 41.6071C65.9027 42.6993 65.2068 43.6329 64.2908 44.0733L63.7183 43.307C64.9866 42.7081 65.7529 41.2107 65.7617 39.8895V39.2201H64.0265V38.4097H68.4042V39.2201H66.7394V39.8895ZM70.1218 37.6258V40.7262H71.3461V41.5454H70.1218V45.5883H69.1441V37.6258H70.1218Z" fill="#3E3E3E"/>
<path d="M57.5128 37.9781V38.991H59.3713V37.9781H60.3402V41.4485H56.5439V37.9781H57.5128ZM57.5128 40.6734H59.3713V39.7309H57.5128V40.6734ZM62.5511 37.6258V39.2377H63.6609V40.0304H62.5511V41.7039H61.5734V37.6258H62.5511ZM62.5511 42.021V44.1086H58.3232V44.7427H62.7977V45.5179H57.3543V43.3951H61.5734V42.7873H57.3455V42.021H62.5511Z" fill="#3E3E3E"/>
<path d="M53.1436 39.8806V40.6558H47.6297V37.9164H48.5986V39.8806H53.1436ZM53.9627 41.5806V42.3557H46.6873V41.5806H53.9627ZM53.1964 44.6106V45.4033H47.5593V43.0604H48.537V44.6106H53.1964Z" fill="#3E3E3E"/>
<path d="M45.5462 41.3605V42.1444H39.9619V38.3217H45.4845V39.1144H40.9308V41.3605H45.5462ZM46.3565 43.7651V44.5754H39.0811V43.7651H46.3565Z" fill="#3E3E3E"/>
<path d="M35.5094 38.3128V42.0739H31.7395V38.3128H35.5094ZM32.6996 39.0967V41.2988H34.5493V39.0967H32.6996ZM37.7466 37.6258V39.9599H38.8564V40.7791H37.7466V43.4391H36.7689V37.6258H37.7466ZM38.0637 44.637V45.4298H32.6467V42.8754H33.6244V44.637H38.0637Z" fill="#3E3E3E"/>
<path d="M29.1583 41.2372V41.977H21.8828V41.2372H29.1583ZM28.2775 42.4527V44.2671H23.7149V44.8221H28.5153V45.5003H22.7372V43.633H27.3086V43.1397H22.7284V42.4527H28.2775ZM28.2599 37.802V39.5989H23.7766V40.1185H28.4008V40.7879H22.8077V38.9647H27.2822V38.4802H22.7812V37.802H28.2599Z" fill="#3E3E3E"/>
<path d="M20.5746 37.6258V40.9112H21.6932V41.7304H20.5746V45.5883H19.5881V37.6258H20.5746ZM14.1799 43.3775C14.7833 43.3775 15.4835 43.3775 16.2146 43.3599V42.6112C15.347 42.4658 14.7789 41.9197 14.7877 41.1755C14.7789 40.277 15.5716 39.6781 16.7167 39.6781C17.8441 39.6781 18.6456 40.277 18.6544 41.1755C18.6456 41.9241 18.0687 42.4703 17.2011 42.6112V43.3246C17.8705 43.2894 18.5399 43.2366 19.1653 43.1485L19.227 43.8619C17.5182 44.1702 15.6773 44.1878 14.3209 44.1878L14.1799 43.3775ZM19.0772 38.5418V39.3169H14.3297V38.5418H16.2146V37.661H17.2011V38.5418H19.0772ZM16.7167 40.4268C16.1089 40.4356 15.7125 40.7086 15.7125 41.1755C15.7125 41.6335 16.1089 41.9065 16.7167 41.8977C17.3156 41.9065 17.712 41.6335 17.712 41.1755C17.712 40.7086 17.3156 40.4356 16.7167 40.4268Z" fill="#3E3E3E"/>
<path d="M13.3298 37.6347V43.5097H12.3521V41.5103H10.749V42.2149H7.02319V38.1544H8.00089V39.4404H9.78013V38.1544H10.749V39.0088H12.3521V37.6347H13.3298ZM13.506 44.6371V45.4299H8.08017V42.9284H9.07548V44.6371H13.506ZM8.00089 41.4398H9.78013V40.1979H8.00089V41.4398ZM10.749 40.7175H12.3521V39.8015H10.749V40.7175Z" fill="#3E3E3E"/>
</svg>
