<svg width="138" height="45" viewBox="0 0 138 45" fill="none" xmlns="http://www.w3.org/2000/svg">
<path d="M60 31C71.5779 27.8991 102.787 21.7592 135 22.0073" stroke="#C8AA9B" stroke-width="1.5" stroke-linecap="round" stroke-dasharray="4 4"/>
<path d="M89 33C94.2646 31.2105 111.235 27.5053 137 27" stroke="#C8AA9B" stroke-width="1.5" stroke-linecap="round" stroke-dasharray="4 4"/>
<path d="M111.719 23.0215C111.891 23.0215 112.029 23.1588 111.995 23.3305L111.34 27.6223C111.34 27.7597 111.236 27.8627 111.099 27.897C110.444 27.9313 108.789 28 108.272 28C108.238 28 108.203 28 108.169 28C105.101 27.8627 103.447 26.2833 103.447 23.4335V14.7124C103.447 14.5751 103.309 14.4378 103.171 14.4378H101.276C101.103 14.4378 101 14.3004 101 14.1288V9.83691C101 9.69957 101.103 9.56223 101.276 9.56223H103.171C103.309 9.56223 103.447 9.42489 103.447 9.25322V4.27468C103.447 4.13734 103.585 4 103.757 4H108.824C108.996 4 109.134 4.13734 109.134 4.27468V9.25322C109.134 9.42489 109.272 9.56223 109.41 9.56223H111.305C111.478 9.56223 111.616 9.69957 111.616 9.83691V14.1288C111.616 14.3004 111.478 14.4378 111.305 14.4378H109.41C109.272 14.4378 109.134 14.5751 109.134 14.7124C109.134 16.2232 109.134 20.6867 109.134 20.721V20.8584C109.1 21.4077 109.065 22.1631 109.513 22.6094C109.789 22.8841 110.202 23.0215 110.719 23.0215H111.719Z" fill="#5B411C"/>
<path d="M87.9731 6.93223C92.9404 5.234 98.337 7.88334 100.013 12.8556C101.679 17.7954 99.0105 23.2383 94.0433 24.9365C89.076 26.6347 83.7005 23.9419 82.0351 19.0021C80.3587 14.0298 83.0059 8.63046 87.9731 6.93223ZM92.334 19.8667C94.5132 19.1217 95.6731 16.7316 94.95 14.5867C94.2159 12.4093 91.8616 11.257 89.6824 12.002C87.5353 12.7361 86.3644 15.0936 87.0985 17.271C87.8216 19.4159 90.1868 20.6008 92.334 19.8667Z" fill="#5B411C"/>
<path d="M71.9731 9.93223C76.9404 8.234 82.337 10.8833 84.0134 15.8556C85.6788 20.7954 83.0105 26.2383 78.0433 27.9365C73.076 29.6347 67.7005 26.9419 66.0351 22.0021C64.3587 17.0298 67.0059 11.6305 71.9731 9.93223ZM76.334 22.8667C78.5132 22.1217 79.6731 19.7316 78.95 17.5867C78.2159 15.4093 75.8616 14.257 73.6824 15.002C71.5353 15.7361 70.3644 18.0936 71.0985 20.271C71.8216 22.4159 74.1868 23.6008 76.334 22.8667Z" fill="#5B411C"/>
<path d="M63.6937 8.60521C63.2125 8.60521 62.8344 8.74325 62.5594 9.01933C62.1125 9.46797 62.1125 10.2962 62.1125 10.9174C62.1125 11.0554 62.25 11.1935 62.3875 11.1935H64.2781C64.45 11.1935 64.5875 11.3315 64.5875 11.4696V15.7834C64.5875 15.9559 64.45 16.0939 64.2781 16.0939H62.3875C62.25 16.0939 62.1125 16.1975 62.1125 16.37V27.7239C62.1125 27.862 61.975 28 61.8031 28H56.75C56.5781 28 56.4406 27.862 56.4406 27.7239V26.7231V16.37C56.4406 16.1975 56.3031 16.0939 56.1656 16.0939H54.275C54.1031 16.0939 54 15.9559 54 15.7834V11.4696C54 11.3315 54.1031 11.1935 54.275 11.1935H56.1656C56.3031 11.1935 56.4406 11.0554 56.4406 10.9174V8.74325C56.4406 4.70554 59.7406 4.08436 61.15 4.01534C61.5625 3.98083 61.8031 4.01534 61.8375 4.01534H64.6906C64.8625 4.01534 65 4.15338 65 4.32593L64.5875 8.36364C64.5875 8.50168 64.45 8.60521 64.3125 8.60521H63.6937Z" fill="#5B411C"/>
<path d="M52.719 23.0215C52.8913 23.0215 53.0291 23.1588 52.9947 23.3305L52.3398 27.6223C52.3398 27.7597 52.2364 27.8627 52.0986 27.897C51.4437 27.9313 49.7893 28 49.2723 28C49.2379 28 49.2034 28 49.1689 28C46.1015 27.8627 44.4471 26.2833 44.4471 23.4335V14.7124C44.4471 14.5751 44.3092 14.4378 44.1714 14.4378H42.2757C42.1034 14.4378 42 14.3004 42 14.1288V9.83691C42 9.69957 42.1034 9.56223 42.2757 9.56223H44.1714C44.3092 9.56223 44.4471 9.42489 44.4471 9.25322V4.27468C44.4471 4.13734 44.585 4 44.7573 4H49.8238C49.9961 4 50.134 4.13734 50.134 4.27468V9.25322C50.134 9.42489 50.2719 9.56223 50.4097 9.56223H52.3054C52.4777 9.56223 52.6156 9.69957 52.6156 9.83691V14.1288C52.6156 14.3004 52.4777 14.4378 52.3054 14.4378H50.4097C50.2719 14.4378 50.134 14.5751 50.134 14.7124C50.134 16.2232 50.134 20.6867 50.134 20.721V20.8584C50.0995 21.4077 50.0651 22.1631 50.5131 22.6094C50.7889 22.8841 51.2024 23.0215 51.7194 23.0215H52.719Z" fill="#5B411C"/>
<path d="M40.7012 10C40.8672 10 41 10.1341 41 10.3017V27.4637C41 27.5978 40.8672 27.7318 40.7012 27.7318H35.8216C35.6556 27.7318 35.5228 27.5978 35.5228 27.4637V26.9609C35.5228 26.8603 35.39 26.7933 35.3237 26.8603C34.0954 27.6983 32.8672 28 31.7718 28C29.3485 28 27.4896 26.5587 27.4564 26.5251C27.3237 26.4246 27.1909 26.2905 27.0913 26.1564H27.0581C25.2988 24.3464 25 22.8715 25 20.257V10.3017C25 10.1341 25.0996 10 25.2656 10H30.5104C30.6432 10 30.7759 10.1341 30.7759 10.3017V19.9888C30.7759 20.6592 30.8091 21.3966 31.0747 22C31.2075 22.2682 31.3734 22.4693 31.5726 22.6369C31.9046 22.905 32.3361 23.0391 32.8672 23.0391C33.8963 23.0391 34.6597 22.6704 34.9253 22.1006C35.1909 21.4972 35.1909 20.6592 35.1909 19.9888V10.3017C35.1909 10.1341 35.3237 10 35.4896 10H40.7012Z" fill="#5B411C"/>
<path d="M14.4831 9C19.7326 9 24 13.2527 24 18.5C24 23.713 19.7326 28 14.4831 28C9.23351 28 5 23.713 5 18.5C5 13.2527 9.23351 9 14.4831 9ZM14.4831 22.6498C16.7861 22.6498 18.6488 20.7635 18.6488 18.5C18.6488 16.2022 16.7861 14.3502 14.4831 14.3502C12.2139 14.3502 10.3512 16.2022 10.3512 18.5C10.3512 20.7635 12.2139 22.6498 14.4831 22.6498Z" fill="#5B411C"/>
<circle cx="2.5" cy="7.5" r="2.5" fill="#FFEAA5"/>
<circle cx="9.5" cy="2.5" r="2.5" fill="#FFEAA5"/>
<circle cx="18.5" cy="2.5" r="2.5" fill="#FFEAA5"/>
<path d="M77.1441 37V37.6396C77.1441 38.2654 77.1441 38.9838 76.9831 39.92H78V40.7543H74.9576V42.0614H77.161V45H76.2203V42.8864H71.7119V42.0614H74.0169V40.7543H71V39.92H76.0339C76.1864 39.0626 76.2034 38.409 76.2034 37.825H71.8644V37H77.1441Z" fill="#5B411C"/>
<path d="M66.1686 39.2743C66.1686 40.5133 66.9353 41.9204 68.2564 42.5044L67.6836 43.2832C66.7413 42.8584 66.0439 42 65.6697 41C65.291 42.0973 64.5612 43.0354 63.6005 43.4779L63 42.708C64.3303 42.1062 65.1339 40.6018 65.1432 39.2743V38.6018H63.3233V37.7876H67.9146V38.6018H66.1686V39.2743ZM69.7159 37V40.115H71V40.9381H69.7159V45H68.6905V37H69.7159Z" fill="#5B411C"/>
<path d="M56.953 37.3571V38.3839H58.7809V37.3571H59.7339V40.875H56V37.3571H56.953ZM56.953 40.0893H58.7809V39.1339H56.953V40.0893ZM61.9084 37V38.6339H63V39.4375H61.9084V41.1339H60.9468V37H61.9084ZM61.9084 41.4554V43.5714H57.75V44.2143H62.151V45H56.797V42.8482H60.9468V42.2321H56.7884V41.4554H61.9084Z" fill="#5B411C"/>
<path d="M52.2119 39.0988V39.9271H46.9068V37H47.839V39.0988H52.2119ZM53 40.9153V41.7435H46V40.9153H53ZM52.2627 44.1529V45H46.839V42.4965H47.7797V44.1529H52.2627Z" fill="#5B411C"/>
<path d="M44.2203 40.9155V41.6676H38.8475V38H44.161V38.7606H39.7797V40.9155H44.2203ZM45 43.2225V44H38V43.2225H45Z" fill="#5B411C"/>
<path d="M34.7079 37.7043V41.5598H31V37.7043H34.7079ZM31.9443 38.5079V40.7652H33.7636V38.5079H31.9443ZM36.9084 37V39.3928H38V40.2325H36.9084V42.9594H35.9468V37H36.9084ZM37.2203 44.1874V45H31.8923V42.3815H32.854V44.1874H37.2203Z" fill="#5B411C"/>
<path d="M28 40.5698V41.3387H21V40.5698H28ZM27.1525 41.833V43.7185H22.7627V44.2952H27.3814V45H21.822V43.0595H26.2203V42.5469H21.8136V41.833H27.1525ZM27.1356 37V38.8673H22.822V39.4073H27.2712V40.103H21.8898V38.2082H26.1949V37.7048H21.8644V37H27.1356Z" fill="#5B411C"/>
<path d="M19.8089 37V40.3009H21V41.1239H19.8089V45H18.7585V37H19.8089ZM13 42.7788C13.6424 42.7788 14.388 42.7788 15.1665 42.7611V42.0088C14.2427 41.8628 13.6377 41.3142 13.6471 40.5664C13.6377 39.6637 14.4818 39.0619 15.7011 39.0619C16.9015 39.0619 17.755 39.6637 17.7644 40.5664C17.755 41.3186 17.1407 41.8673 16.2169 42.0088V42.7257C16.9297 42.6903 17.6424 42.6372 18.3083 42.5487L18.374 43.2655C16.5545 43.5752 14.5944 43.5929 13.1501 43.5929L13 42.7788ZM18.2145 37.9204V38.6991H13.1594V37.9204H15.1665V37.0354H16.2169V37.9204H18.2145ZM15.7011 39.8142C15.0539 39.823 14.6319 40.0973 14.6319 40.5664C14.6319 41.0265 15.0539 41.3009 15.7011 41.292C16.3388 41.3009 16.7608 41.0265 16.7608 40.5664C16.7608 40.0973 16.3388 39.823 15.7011 39.8142Z" fill="#5B411C"/>
<path d="M12.8098 37V43.0294H11.7541V40.9774H10.0231V41.7006H6V37.5333H7.05571V38.8531H8.9769V37.5333H10.0231V38.4102H11.7541V37H12.8098ZM13 44.1864V45H7.1413V42.4328H8.21603V44.1864H13ZM7.05571 40.9051H8.9769V39.6305H7.05571V40.9051ZM10.0231 40.1638H11.7541V39.2237H10.0231V40.1638Z" fill="#5B411C"/>
</svg>
