<svg width="119" height="34" viewBox="0 0 119 34" fill="none" xmlns="http://www.w3.org/2000/svg">
<g id="Group 2163">
<path id="Vector 271" d="M49 32C59.4973 29.2436 87.7935 23.786 117 24.0065" stroke="#F3E7C9" stroke-width="2" stroke-linecap="round" stroke-dasharray="5 5"/>
<path id="Vector 272" d="M75 33C79.7162 31.5088 94.9188 28.4211 118 28" stroke="#F3E7C9" stroke-width="2" stroke-linecap="round" stroke-dasharray="5 5"/>
<g id="Group 2130">
<g id="Group 79">
<g id="outfoot">
<path id="Vector" d="M109.719 23.0215C109.891 23.0215 110.029 23.1588 109.995 23.3305L109.34 27.6223C109.34 27.7597 109.236 27.8627 109.099 27.897C108.444 27.9313 106.789 28 106.272 28C106.238 28 106.203 28 106.169 28C103.101 27.8627 101.447 26.2833 101.447 23.4335V14.7124C101.447 14.5751 101.309 14.4378 101.171 14.4378H99.2757C99.1034 14.4378 99 14.3004 99 14.1288V9.83691C99 9.69957 99.1034 9.56223 99.2757 9.56223H101.171C101.309 9.56223 101.447 9.42489 101.447 9.25322V4.27468C101.447 4.13734 101.585 4 101.757 4H106.824C106.996 4 107.134 4.13734 107.134 4.27468V9.25322C107.134 9.42489 107.272 9.56223 107.41 9.56223H109.305C109.478 9.56223 109.616 9.69957 109.616 9.83691V14.1288C109.616 14.3004 109.478 14.4378 109.305 14.4378H107.41C107.272 14.4378 107.134 14.5751 107.134 14.7124C107.134 16.2232 107.134 20.6867 107.134 20.721V20.8584C107.1 21.4077 107.065 22.1631 107.513 22.6094C107.789 22.8841 108.202 23.0215 108.719 23.0215H109.719Z" fill="#6D4C3A"/>
<path id="Vector_2" d="M85.9551 6.88007C90.9125 5.15297 96.2781 7.78648 97.9263 12.7682C99.5637 17.7174 96.8804 23.1914 91.9231 24.9185C86.9658 26.6456 81.6214 23.9684 79.984 19.0192C78.3358 14.0375 80.9978 8.60718 85.9551 6.88007ZM90.2426 19.8391C92.4174 19.0814 93.584 16.6777 92.873 14.5287C92.1512 12.3472 89.8105 11.2018 87.6357 11.9595C85.4928 12.706 84.3155 15.0771 85.0372 17.2587C85.7482 19.4076 88.0998 20.5856 90.2426 19.8391Z" fill="#6D4C3A"/>
<path id="Vector_3" d="M70.9551 9.88007C75.9125 8.15296 81.2781 10.7865 82.9262 15.7682C84.5637 20.7174 81.8804 26.1914 76.9231 27.9185C71.9658 29.6456 66.6214 26.9684 64.984 22.0192C63.3358 17.0375 65.9978 11.6072 70.9551 9.88007ZM75.2426 22.8391C77.4174 22.0814 78.584 19.6777 77.873 17.5287C77.1512 15.3472 74.8105 14.2018 72.6356 14.9595C70.4928 15.706 69.3155 18.0771 70.0372 20.2587C70.7482 22.4076 73.0997 23.5856 75.2426 22.8391Z" fill="#6D4C3A"/>
<path id="Vector_4" d="M62.6937 8.60521C62.2125 8.60521 61.8344 8.74325 61.5594 9.01933C61.1125 9.46797 61.1125 10.2962 61.1125 10.9174C61.1125 11.0554 61.25 11.1935 61.3875 11.1935H63.2781C63.45 11.1935 63.5875 11.3315 63.5875 11.4696V15.7834C63.5875 15.9559 63.45 16.0939 63.2781 16.0939H61.3875C61.25 16.0939 61.1125 16.1975 61.1125 16.37V27.7239C61.1125 27.862 60.975 28 60.8031 28H55.75C55.5781 28 55.4406 27.862 55.4406 27.7239V26.7231V16.37C55.4406 16.1975 55.3031 16.0939 55.1656 16.0939H53.275C53.1031 16.0939 53 15.9559 53 15.7834V11.4696C53 11.3315 53.1031 11.1935 53.275 11.1935H55.1656C55.3031 11.1935 55.4406 11.0554 55.4406 10.9174V8.74325C55.4406 4.70554 58.7406 4.08436 60.15 4.01534C60.5625 3.98083 60.8031 4.01534 60.8375 4.01534H63.6906C63.8625 4.01534 64 4.15338 64 4.32593L63.5875 8.36364C63.5875 8.50168 63.45 8.60521 63.3125 8.60521H62.6937Z" fill="#6D4C3A"/>
<path id="Vector_5" d="M52.719 23.0215C52.8913 23.0215 53.0291 23.1588 52.9947 23.3305L52.3398 27.6223C52.3398 27.7597 52.2364 27.8627 52.0986 27.897C51.4437 27.9313 49.7893 28 49.2723 28C49.2379 28 49.2034 28 49.1689 28C46.1015 27.8627 44.4471 26.2833 44.4471 23.4335V14.7124C44.4471 14.5751 44.3092 14.4378 44.1714 14.4378H42.2757C42.1034 14.4378 42 14.3004 42 14.1288V9.83691C42 9.69957 42.1034 9.56223 42.2757 9.56223H44.1714C44.3092 9.56223 44.4471 9.42489 44.4471 9.25322V4.27468C44.4471 4.13734 44.585 4 44.7573 4H49.8238C49.9961 4 50.134 4.13734 50.134 4.27468V9.25322C50.134 9.42489 50.2719 9.56223 50.4097 9.56223H52.3054C52.4777 9.56223 52.6156 9.69957 52.6156 9.83691V14.1288C52.6156 14.3004 52.4777 14.4378 52.3054 14.4378H50.4097C50.2719 14.4378 50.134 14.5751 50.134 14.7124C50.134 16.2232 50.134 20.6867 50.134 20.721V20.8584C50.0995 21.4077 50.0651 22.1631 50.5131 22.6094C50.7889 22.8841 51.2024 23.0215 51.7194 23.0215H52.719Z" fill="#6D4C3A"/>
<path id="Vector_6" d="M39.7012 10C39.8672 10 40 10.1341 40 10.3017V27.4637C40 27.5978 39.8672 27.7318 39.7012 27.7318H34.8216C34.6556 27.7318 34.5228 27.5978 34.5228 27.4637V26.9609C34.5228 26.8603 34.39 26.7933 34.3237 26.8603C33.0954 27.6983 31.8672 28 30.7718 28C28.3485 28 26.4896 26.5587 26.4564 26.5251C26.3237 26.4246 26.1909 26.2905 26.0913 26.1564H26.0581C24.2988 24.3464 24 22.8715 24 20.257V10.3017C24 10.1341 24.0996 10 24.2656 10H29.5104C29.6432 10 29.7759 10.1341 29.7759 10.3017V19.9888C29.7759 20.6592 29.8091 21.3966 30.0747 22C30.2075 22.2682 30.3734 22.4693 30.5726 22.6369C30.9046 22.905 31.3361 23.0391 31.8672 23.0391C32.8963 23.0391 33.6597 22.6704 33.9253 22.1006C34.1909 21.4972 34.1909 20.6592 34.1909 19.9888V10.3017C34.1909 10.1341 34.3237 10 34.4896 10H39.7012Z" fill="#6D4C3A"/>
<path id="Vector_7" d="M14.4831 9C19.7326 9 24 13.2527 24 18.5C24 23.713 19.7326 28 14.4831 28C9.23351 28 5 23.713 5 18.5C5 13.2527 9.23351 9 14.4831 9ZM14.4831 22.6498C16.7861 22.6498 18.6488 20.7635 18.6488 18.5C18.6488 16.2022 16.7861 14.3502 14.4831 14.3502C12.2139 14.3502 10.3512 16.2022 10.3512 18.5C10.3512 20.7635 12.2139 22.6498 14.4831 22.6498Z" fill="#6D4C3A"/>
</g>
<circle id="Ellipse 76" cx="2.5" cy="7.5" r="2.5" fill="#F3E7C9"/>
<circle id="Ellipse 77" cx="9.5" cy="2.5" r="2.5" fill="#F3E7C9"/>
<circle id="Ellipse 78" cx="17.5" cy="2.5" r="2.5" fill="#F3E7C9"/>
</g>
</g>
</g>
</svg>
