<svg width="52" height="14" viewBox="0 0 52 14" fill="none" xmlns="http://www.w3.org/2000/svg">
<g id="Group 2130" opacity="0.65">
<g id="Group 79">
<g id="outfoot">
<path id="Vector" d="M51.8723 10.7182C51.9506 10.7182 52.0132 10.7811 51.9976 10.8598L51.6999 12.8269C51.6999 12.8898 51.6529 12.9371 51.5903 12.9528C51.2926 12.9685 50.5406 13 50.3056 13C50.2899 13 50.2743 13 50.2586 13C48.8643 12.9371 48.1123 12.2132 48.1123 10.907V6.90987C48.1123 6.84692 48.0496 6.78398 47.987 6.78398H47.1253C47.047 6.78398 47 6.72103 47 6.64235V4.67525C47 4.6123 47.047 4.54936 47.1253 4.54936H47.987C48.0496 4.54936 48.1123 4.48641 48.1123 4.40773V2.12589C48.1123 2.06295 48.175 2 48.2533 2H50.5563C50.6346 2 50.6973 2.06295 50.6973 2.12589V4.40773C50.6973 4.48641 50.7599 4.54936 50.8226 4.54936H51.6843C51.7626 4.54936 51.8253 4.6123 51.8253 4.67525V6.64235C51.8253 6.72103 51.7626 6.78398 51.6843 6.78398H50.8226C50.7599 6.78398 50.6973 6.84692 50.6973 6.90987C50.6973 7.60229 50.6973 9.64807 50.6973 9.66381V9.72675C50.6816 9.97854 50.6659 10.3247 50.8696 10.5293C50.9949 10.6552 51.1829 10.7182 51.4179 10.7182H51.8723Z" fill="white"/>
<path id="Vector_2" d="M40.2718 3.61094C42.6366 2.84199 45.1571 3.90463 45.8953 5.98705C46.6287 8.05586 45.3094 10.3823 42.9447 11.1512C40.5799 11.9202 38.0698 10.839 37.3364 8.77014C36.5983 6.68772 37.9071 4.37988 40.2718 3.61094ZM42.192 9.02796C43.2295 8.69062 43.8032 7.66918 43.4848 6.77088C43.1615 5.85897 42.0619 5.39685 41.0245 5.73419C40.0023 6.06658 39.4237 7.0744 39.747 7.98631C40.0654 8.88461 41.1698 9.36034 42.192 9.02796Z" fill="white"/>
<path id="Vector_3" d="M33.2718 4.61094C35.6366 3.84199 38.1571 4.90463 38.8953 6.98705C39.6287 9.05586 38.3094 11.3823 35.9447 12.1512C33.5799 12.9202 31.0698 11.839 30.3364 9.77014C29.5983 7.68772 30.9071 5.37988 33.2718 4.61094ZM35.192 10.028C36.2295 9.69062 36.8032 8.66918 36.4848 7.77088C36.1615 6.85897 35.0619 6.39685 34.0245 6.73419C33.0023 7.06658 32.4237 8.0744 32.747 8.98631C33.0654 9.88461 34.1698 10.3603 35.192 10.028Z" fill="white"/>
<path id="Vector_4" d="M29.4062 4.11072C29.1875 4.11072 29.0156 4.17399 28.8906 4.30053C28.6875 4.50615 28.6875 4.88576 28.6875 5.17047C28.6875 5.23374 28.75 5.29701 28.8125 5.29701H29.6719C29.75 5.29701 29.8125 5.36028 29.8125 5.42355V7.4007C29.8125 7.47979 29.75 7.54306 29.6719 7.54306H28.8125C28.75 7.54306 28.6875 7.59051 28.6875 7.6696V12.8735C28.6875 12.9367 28.625 13 28.5469 13H26.25C26.1719 13 26.1094 12.9367 26.1094 12.8735V12.4148V7.6696C26.1094 7.59051 26.0469 7.54306 25.9844 7.54306H25.125C25.0469 7.54306 25 7.47979 25 7.4007V5.42355C25 5.36028 25.0469 5.29701 25.125 5.29701H25.9844C26.0469 5.29701 26.1094 5.23374 26.1094 5.17047V4.17399C26.1094 2.32337 27.6094 2.03866 28.25 2.00703C28.4375 1.99121 28.5469 2.00703 28.5625 2.00703H29.8594C29.9375 2.00703 30 2.0703 30 2.14938L29.8125 4C29.8125 4.06327 29.75 4.11072 29.6875 4.11072H29.4062Z" fill="white"/>
<path id="Vector_5" d="M23.8723 10.7182C23.9506 10.7182 24.0132 10.7811 23.9976 10.8598L23.6999 12.8269C23.6999 12.8898 23.6529 12.9371 23.5903 12.9528C23.2926 12.9685 22.5406 13 22.3056 13C22.2899 13 22.2743 13 22.2586 13C20.8643 12.9371 20.1123 12.2132 20.1123 10.907V6.90987C20.1123 6.84692 20.0496 6.78398 19.987 6.78398H19.1253C19.047 6.78398 19 6.72103 19 6.64235V4.67525C19 4.6123 19.047 4.54936 19.1253 4.54936H19.987C20.0496 4.54936 20.1123 4.48641 20.1123 4.40773V2.12589C20.1123 2.06295 20.175 2 20.2533 2H22.5563C22.6346 2 22.6973 2.06295 22.6973 2.12589V4.40773C22.6973 4.48641 22.7599 4.54936 22.8226 4.54936H23.6843C23.7626 4.54936 23.8253 4.6123 23.8253 4.67525V6.64235C23.8253 6.72103 23.7626 6.78398 23.6843 6.78398H22.8226C22.7599 6.78398 22.6973 6.84692 22.6973 6.90987C22.6973 7.60229 22.6973 9.64807 22.6973 9.66381V9.72675C22.6816 9.97854 22.6659 10.3247 22.8696 10.5293C22.9949 10.6552 23.1829 10.7182 23.4179 10.7182H23.8723Z" fill="white"/>
<path id="Vector_6" d="M18.8506 5C18.9336 5 19 5.05959 19 5.13408V12.7616C19 12.8212 18.9336 12.8808 18.8506 12.8808H16.4108C16.3278 12.8808 16.2614 12.8212 16.2614 12.7616V12.5382C16.2614 12.4935 16.195 12.4637 16.1618 12.4935C15.5477 12.8659 14.9336 13 14.3859 13C13.1743 13 12.2448 12.3594 12.2282 12.3445C12.1618 12.2998 12.0954 12.2402 12.0456 12.1806H12.029C11.1494 11.3762 11 10.7207 11 9.55866V5.13408C11 5.05959 11.0498 5 11.1328 5H13.7552C13.8216 5 13.888 5.05959 13.888 5.13408V9.43948C13.888 9.73743 13.9046 10.0652 14.0373 10.3333C14.1037 10.4525 14.1867 10.5419 14.2863 10.6164C14.4523 10.7356 14.6681 10.7952 14.9336 10.7952C15.4481 10.7952 15.8299 10.6313 15.9627 10.378C16.0954 10.1099 16.0954 9.73743 16.0954 9.43948V5.13408C16.0954 5.05959 16.1618 5 16.2448 5H18.8506Z" fill="white"/>
<path id="Vector_7" d="M6.49198 4C8.97861 4 11 5.79061 11 8C11 10.1949 8.97861 12 6.49198 12C4.00535 12 2 10.1949 2 8C2 5.79061 4.00535 4 6.49198 4ZM6.49198 9.74729C7.58289 9.74729 8.46524 8.95307 8.46524 8C8.46524 7.03249 7.58289 6.25271 6.49198 6.25271C5.41711 6.25271 4.53476 7.03249 4.53476 8C4.53476 8.95307 5.41711 9.74729 6.49198 9.74729Z" fill="white"/>
</g>
<circle id="Ellipse 76" cx="1" cy="3" r="1" fill="white"/>
<circle id="Ellipse 77" cx="4" cy="1" r="1" fill="white"/>
<circle id="Ellipse 78" cx="8" cy="1" r="1" fill="white"/>
</g>
</g>
</svg>
