<svg width="149" height="43" viewBox="0 0 149 43" fill="none" xmlns="http://www.w3.org/2000/svg">
<path d="M61.5518 39.9131C74.6005 36.4488 109.774 29.5895 146.08 29.8667" stroke="#FFEAA5" stroke-width="2" stroke-linecap="round" stroke-dasharray="5 5"/>
<path d="M93.9724 41.4679C99.8617 39.5048 118.846 35.4401 147.669 34.8858" stroke="#FFEAA5" stroke-width="2" stroke-linecap="round" stroke-dasharray="5 5"/>
<path d="M137.21 29.2413C137.418 29.2413 137.585 29.4081 137.543 29.6166L136.751 34.829C136.751 34.9958 136.626 35.1209 136.459 35.1626C135.667 35.2043 133.665 35.2877 133.04 35.2877C132.998 35.2877 132.956 35.2877 132.914 35.2877C129.203 35.1209 127.202 33.2027 127.202 29.7417V19.15C127.202 18.9832 127.035 18.8164 126.868 18.8164H124.575C124.366 18.8164 124.241 18.6496 124.241 18.4411V13.2286C124.241 13.0618 124.366 12.895 124.575 12.895H126.868C127.035 12.895 127.202 12.7282 127.202 12.5197V6.47331C127.202 6.30651 127.368 6.13971 127.577 6.13971H133.707C133.915 6.13971 134.082 6.30651 134.082 6.47331V12.5197C134.082 12.7282 134.249 12.895 134.416 12.895H136.709C136.918 12.895 137.084 13.0618 137.084 13.2286V18.4411C137.084 18.6496 136.918 18.8164 136.709 18.8164H134.416C134.249 18.8164 134.082 18.9832 134.082 19.15C134.082 20.9848 134.082 26.4057 134.082 26.4474V26.6142C134.04 27.2814 133.999 28.1988 134.541 28.7409C134.874 29.0745 135.375 29.2413 136 29.2413H137.21Z" fill="#5B411C"/>
<path d="M107.949 9.90678C114.069 7.82888 120.706 11.036 122.758 17.0774C124.795 23.0792 121.496 29.7041 115.375 31.782C109.255 33.8599 102.644 30.5999 100.606 24.598C98.5549 18.5567 101.828 11.9847 107.949 9.90678ZM113.284 25.6222C115.969 24.7106 117.404 21.8015 116.519 19.1955C115.621 16.5499 112.725 15.155 110.04 16.0666C107.394 16.9648 105.947 19.8343 106.845 22.4799C107.73 25.086 110.639 26.5204 113.284 25.6222Z" fill="#5B411C"/>
<path d="M88.5426 13.1867C94.6629 11.1088 101.3 14.3159 103.352 20.3573C105.389 26.3591 102.09 32.984 95.9694 35.0619C89.8491 37.1398 83.2377 33.8798 81.2 27.8779C79.1489 21.8366 82.4223 15.2646 88.5426 13.1867ZM93.8781 28.9021C96.5632 27.9905 97.9976 25.0814 97.1128 22.4754C96.2146 19.8298 93.319 18.4349 90.6339 19.3465C87.9884 20.2447 86.5406 23.1142 87.4388 25.7598C88.3235 28.3659 91.2326 29.8003 93.8781 28.9021Z" fill="#5B411C"/>
<path d="M78.5361 11.5192C77.9523 11.5192 77.4936 11.686 77.16 12.0196C76.6179 12.5617 76.618 13.5624 76.618 14.313C76.618 14.4798 76.7848 14.6466 76.9516 14.6466H79.245C79.4535 14.6466 79.6203 14.8134 79.6203 14.9802V20.1927C79.6203 20.4012 79.4535 20.568 79.245 20.568H76.9516C76.7848 20.568 76.618 20.6931 76.618 20.9016V34.6207C76.618 34.7875 76.4512 34.9543 76.2427 34.9543H70.1128C69.9043 34.9543 69.7375 34.7875 69.7375 34.6207V33.4114V20.9016C69.7375 20.6931 69.5707 20.568 69.4039 20.568H67.1105C66.902 20.568 66.7769 20.4012 66.7769 20.1927V14.9802C66.7769 14.8134 66.902 14.6466 67.1105 14.6466H69.4039C69.5707 14.6466 69.7375 14.4798 69.7375 14.313V11.686C69.7375 6.80711 73.7407 6.05652 75.4504 5.97312C75.9508 5.93142 76.2427 5.97312 76.2844 5.97312H79.7454C79.9539 5.97312 80.1207 6.13992 80.1207 6.34842L79.6203 11.2273C79.6203 11.3941 79.4535 11.5192 79.2867 11.5192H78.5361Z" fill="#5B411C"/>
<path d="M65.2073 29.2413C65.4158 29.2413 65.5826 29.4081 65.5409 29.6166L64.7486 34.829C64.7486 34.9958 64.6235 35.1209 64.4567 35.1626C63.6644 35.2043 61.6629 35.2877 61.0374 35.2877C60.9957 35.2877 60.954 35.2877 60.9123 35.2877C57.201 35.1209 55.1994 33.2027 55.1994 29.7417V19.15C55.1994 18.9832 55.0326 18.8164 54.8658 18.8164H52.5724C52.3639 18.8164 52.2388 18.6496 52.2388 18.4411V13.2286C52.2388 13.0618 52.3639 12.895 52.5724 12.895H54.8658C55.0326 12.895 55.1994 12.7282 55.1994 12.5197V6.47331C55.1994 6.30651 55.3662 6.13971 55.5747 6.13971H61.7046C61.9131 6.13971 62.0799 6.30651 62.0799 6.47331V12.5197C62.0799 12.7282 62.2467 12.895 62.4135 12.895H64.7069C64.9154 12.895 65.0822 13.0618 65.0822 13.2286V18.4411C65.0822 18.6496 64.9154 18.8164 64.7069 18.8164H62.4135C62.2467 18.8164 62.0799 18.9832 62.0799 19.15C62.0799 20.9848 62.0799 26.4057 62.0799 26.4474V26.6142C62.0382 27.2814 61.9965 28.1988 62.5386 28.7409C62.8722 29.0745 63.3726 29.2413 63.998 29.2413H65.2073Z" fill="#5B411C"/>
<path d="M50.3804 12.8953C50.5889 12.8953 50.7557 13.0621 50.7557 13.2706V34.6208C50.7557 34.7876 50.5889 34.9544 50.3804 34.9544H44.2505C44.0421 34.9544 43.8753 34.7876 43.8753 34.6208V33.9953C43.8753 33.8702 43.7085 33.7868 43.6251 33.8702C42.0822 34.9127 40.5393 35.288 39.1632 35.288C36.1191 35.288 33.784 33.4949 33.7423 33.4532C33.5755 33.3281 33.4087 33.1613 33.2836 32.9945H33.2419C31.0318 30.7427 30.6565 28.908 30.6565 25.6554V13.2706C30.6565 13.0621 30.7816 12.8953 30.9901 12.8953H37.5786C37.7454 12.8953 37.9122 13.0621 37.9122 13.2706V25.3218C37.9122 26.1558 37.9539 27.0732 38.2875 27.8238C38.4543 28.1574 38.6628 28.4076 38.913 28.6161C39.33 28.9497 39.8721 29.1164 40.5393 29.1164C41.832 29.1164 42.7911 28.6578 43.1247 27.9489C43.4583 27.1983 43.4583 26.1558 43.4583 25.3218V13.2706C43.4583 13.0621 43.6251 12.8953 43.8336 12.8953H50.3804Z" fill="#5B411C"/>
<path d="M18.0877 12.5616C24.5512 12.5616 29.8053 17.7324 29.8053 24.1124C29.8053 30.4508 24.5512 35.6632 18.0877 35.6632C11.6243 35.6632 6.41187 30.4508 6.41187 24.1124C6.41187 17.7324 11.6243 12.5616 18.0877 12.5616ZM18.0877 29.1581C20.9233 29.1581 23.2168 26.8646 23.2168 24.1124C23.2168 21.3186 20.9233 19.0668 18.0877 19.0668C15.2939 19.0668 13.0004 21.3186 13.0004 24.1124C13.0004 26.8646 15.2939 29.1581 18.0877 29.1581Z" fill="#5B411C"/>
<circle cx="3.36183" cy="9.88203" r="3.01344" fill="#FFEAA5"/>
<circle cx="11.9551" cy="3.79774" r="3.01344" fill="#FFEAA5"/>
<circle cx="22.3982" cy="3.79774" r="3.01344" fill="#FFEAA5"/>
</svg>
