<svg width="17" height="21" viewBox="0 0 17 21" fill="none" xmlns="http://www.w3.org/2000/svg">
<g id="Group 2212">
<path id="Vector" d="M10.2992 6.93799C13.9914 6.93799 16.9928 9.89175 16.9928 13.5363C16.9928 17.1571 13.9914 20.1347 10.2992 20.1347C6.60698 20.1347 3.62939 17.1571 3.62939 13.5363C3.62939 9.89175 6.60698 6.93799 10.2992 6.93799ZM10.2992 16.4186C11.919 16.4186 13.2291 15.1085 13.2291 13.5363C13.2291 11.9403 11.919 10.654 10.2992 10.654C8.7032 10.654 7.39306 11.9403 7.39306 13.5363C7.39306 15.1085 8.7032 16.4186 10.2992 16.4186Z" fill="#5B411C"/>
<circle id="Ellipse 76" cx="1.88694" cy="5.40745" r="1.72142" fill="#C8AA9B"/>
<circle id="Ellipse 77" cx="6.79564" cy="1.93187" r="1.72142" fill="#C8AA9B"/>
<circle id="Ellipse 78" cx="12.7615" cy="1.93187" r="1.72142" fill="#C8AA9B"/>
</g>
</svg>
