<?xml version="1.0" standalone="no"?>
<!DOCTYPE svg PUBLIC "-//W3C//DTD SVG 20010904//EN"
 "http://www.w3.org/TR/2001/REC-SVG-20010904/DTD/svg10.dtd">
<svg version="1.0" xmlns="http://www.w3.org/2000/svg"
 width="300.000000pt" height="492.000000pt" viewBox="0 0 300.000000 492.000000"
 preserveAspectRatio="xMidYMid meet">

<g transform="translate(0.000000,492.000000) scale(0.100000,-0.100000)"
fill="#000000" stroke="none">
<path d="M2731 4808 c-1 -22 4 -28 19 -28 10 0 24 9 30 19 13 25 13 31 0 31
-5 0 -10 -9 -10 -20 0 -27 -28 -25 -33 3 -4 19 -4 18 -6 -5z"/>
<path d="M2960 4810 c-13 -8 -12 -10 3 -10 9 0 17 5 17 10 0 12 -1 12 -20 0z"/>
<path d="M2823 4632 c-9 -15 -12 -15 -29 -2 -18 14 -18 14 -5 -2 7 -10 19 -18
26 -18 16 0 38 27 28 33 -5 3 -14 -2 -20 -11z"/>
<path d="M2526 4596 c3 -9 13 -16 22 -16 8 0 13 1 11 3 -2 1 -12 9 -22 16 -15
12 -17 12 -11 -3z"/>
<path d="M2550 4454 c0 -8 5 -12 10 -9 6 3 10 10 10 16 0 5 -4 9 -10 9 -5 0
-10 -7 -10 -16z"/>
<path d="M2576 4435 c-3 -8 -1 -15 4 -15 6 0 10 7 10 15 0 8 -2 15 -4 15 -2 0
-6 -7 -10 -15z"/>
<path d="M161 4374 c0 -11 3 -14 6 -6 3 7 2 16 -1 19 -3 4 -6 -2 -5 -13z"/>
<path d="M2501 4313 c7 -10 15 -20 16 -22 2 -2 3 3 3 11 0 9 -7 19 -16 22 -15
6 -15 4 -3 -11z"/>
<path d="M2487 4267 c-3 -11 15 -37 26 -37 3 0 7 9 10 19 5 21 -29 38 -36 18z"/>
<path d="M2438 4264 c-4 -3 0 -17 9 -31 12 -18 13 -27 4 -36 -17 -17 -13 -29
8 -22 12 3 21 0 25 -10 5 -14 8 -14 32 2 l27 17 -32 9 c-23 5 -31 13 -27 23 3
8 -1 14 -10 14 -8 0 -18 9 -22 20 -4 12 -11 18 -14 14z"/>
<path d="M1935 4210 c3 -5 8 -10 11 -10 2 0 4 5 4 10 0 6 -5 10 -11 10 -5 0
-7 -4 -4 -10z"/>
<path d="M1870 4193 c-14 -9 -26 -17 -28 -18 -1 -1 0 -10 4 -19 8 -21 24 -21
24 1 0 9 7 25 17 35 20 22 15 23 -17 1z"/>
<path d="M406 4185 c-11 -8 -15 -15 -10 -15 6 0 19 7 30 15 10 8 15 14 9 14
-5 0 -19 -6 -29 -14z"/>
<path d="M2270 4193 c1 -11 26 -43 34 -43 14 0 5 26 -14 38 -11 7 -20 9 -20 5z"/>
<path d="M2385 4190 c-3 -5 -1 -10 4 -10 6 0 11 5 11 10 0 6 -2 10 -4 10 -3 0
-8 -4 -11 -10z"/>
<path d="M2326 4142 c-3 -6 -15 -8 -25 -5 -25 6 -81 -26 -74 -43 4 -12 27 -13
39 -2 3 4 11 5 18 2 12 -5 61 44 53 53 -3 2 -8 0 -11 -5z m-21 -22 c-3 -5 -11
-10 -16 -10 -6 0 -7 5 -4 10 3 6 11 10 16 10 6 0 7 -4 4 -10z m-35 -14 c0 -3
-4 -8 -10 -11 -5 -3 -10 -1 -10 4 0 6 5 11 10 11 6 0 10 -2 10 -4z"/>
<path d="M420 4133 c0 -5 13 -16 29 -25 26 -14 31 -15 42 -2 6 8 9 18 5 21 -4
4 -11 1 -16 -7 -7 -12 -12 -12 -28 3 -20 18 -32 22 -32 10z"/>
<path d="M2160 4060 c-21 -11 -28 -19 -18 -20 22 0 68 21 68 32 0 12 -11 9
-50 -12z"/>
<path d="M2384 4072 c6 -10 -21 -93 -35 -106 -15 -16 -10 -30 5 -17 8 7 24 39
35 72 17 50 17 59 5 59 -8 0 -13 -4 -10 -8z"/>
<path d="M2229 4053 c-13 -16 -12 -17 4 -4 9 7 17 15 17 17 0 8 -8 3 -21 -13z"/>
<path d="M1702 4034 c-16 -13 -16 -13 1 -14 10 0 16 -4 13 -8 -2 -4 17 -9 42
-9 41 -2 45 0 30 11 -10 7 -15 15 -12 18 12 12 -58 14 -74 2z"/>
<path d="M2009 4024 c-24 -29 33 -27 74 1 15 11 12 12 -23 11 -23 0 -46 -6
-51 -12z"/>
<path d="M2160 4020 c-9 -6 -10 -10 -3 -10 6 0 15 5 18 10 8 12 4 12 -15 0z"/>
<path d="M572 4004 c-8 -9 -22 -12 -33 -9 -24 8 -24 -7 0 -29 18 -17 20 -17
38 1 11 11 17 27 14 35 -5 14 -8 14 -19 2z"/>
<path d="M1653 4010 c-13 -5 -23 -11 -23 -14 0 -7 40 6 46 15 6 10 6 10 -23
-1z"/>
<path d="M1863 4003 c9 -2 25 -2 35 0 9 3 1 5 -18 5 -19 0 -27 -2 -17 -5z"/>
<path d="M1545 3970 c-16 -11 -25 -20 -18 -20 19 0 63 22 63 32 0 13 -13 10
-45 -12z"/>
<path d="M1360 3945 c-8 -2 -55 -8 -105 -15 -94 -12 -145 -26 -145 -41 0 -15
73 -10 140 11 42 13 90 20 136 19 47 -1 80 4 100 14 29 16 28 16 -41 15 -38 0
-77 -2 -85 -3z"/>
<path d="M2310 3914 c0 -14 3 -14 15 -4 8 7 15 14 15 16 0 2 -7 4 -15 4 -8 0
-15 -7 -15 -16z"/>
<path d="M2405 3910 c-3 -5 -1 -10 4 -10 6 0 11 5 11 10 0 6 -2 10 -4 10 -3 0
-8 -4 -11 -10z"/>
<path d="M2238 3875 c-4 -16 -9 -39 -12 -50 -4 -11 1 -5 9 14 9 18 14 41 13
50 -2 9 -7 3 -10 -14z"/>
<path d="M728 3868 c3 -12 7 -17 10 -10 2 6 10 12 17 12 8 0 17 5 20 10 4 6
-6 10 -23 10 -26 0 -29 -3 -24 -22z"/>
<path d="M2350 3835 c-22 -30 -50 -60 -63 -66 -12 -6 -30 -20 -39 -29 -9 -10
-23 -20 -30 -23 -9 -3 -5 -13 13 -32 l26 -27 27 28 c14 16 26 34 26 40 0 14
60 125 77 142 7 7 13 15 13 18 0 12 -13 -1 -50 -51z"/>
<path d="M620 3860 c0 -6 10 -8 24 -4 13 3 27 1 30 -5 4 -6 13 -11 19 -11 7 0
3 7 -7 15 -23 17 -66 20 -66 5z"/>
<path d="M2271 3856 c-7 -8 -8 -17 -3 -19 4 -3 13 3 20 14 14 22 0 26 -17 5z"/>
<path d="M905 3850 c17 -4 46 -8 65 -8 l35 0 -40 9 c-22 4 -51 8 -65 7 -23 0
-22 -1 5 -8z"/>
<path d="M2240 3805 c-8 -9 -8 -15 -2 -15 12 0 26 19 19 26 -2 2 -10 -2 -17
-11z"/>
<path d="M710 3720 c0 -5 5 -10 11 -10 5 0 7 5 4 10 -3 6 -8 10 -11 10 -2 0
-4 -4 -4 -10z"/>
<path d="M702 3680 c0 -14 2 -19 5 -12 2 6 2 18 0 25 -3 6 -5 1 -5 -13z"/>
<path d="M2157 3661 c-11 -19 -29 -32 -50 -37 -17 -4 -26 -9 -19 -11 19 -7 14
-41 -8 -48 -25 -8 -59 10 -70 38 -8 21 -8 21 -16 3 -5 -13 -2 -23 12 -33 18
-13 17 -15 -21 -47 -26 -23 -44 -31 -51 -25 -20 16 -53 4 -77 -29 -13 -17 -50
-45 -83 -62 -32 -17 -68 -41 -79 -52 -11 -11 -14 -18 -7 -14 8 5 12 0 12 -15
0 -17 -3 -19 -14 -10 -11 9 -15 5 -20 -21 -3 -19 -21 -48 -41 -67 -19 -18 -37
-41 -40 -50 -2 -9 -28 -27 -56 -41 -29 -13 -76 -47 -106 -76 -50 -48 -58 -52
-106 -53 -52 -1 -87 17 -87 46 0 12 14 14 64 11 35 -1 62 1 59 5 -3 5 -34 7
-69 6 l-64 -2 -35 49 c-19 27 -35 53 -35 59 0 5 -9 21 -20 35 -16 20 -20 22
-20 7 0 -9 20 -46 45 -81 25 -36 45 -68 45 -72 0 -4 11 -21 24 -38 16 -21 21
-37 16 -51 -4 -11 -3 -26 3 -33 22 -28 -64 -46 -92 -19 -11 10 -13 7 -9 -15 6
-30 -3 -36 -24 -15 -24 24 -54 36 -76 30 -12 -3 -19 -9 -16 -14 10 -17 -23 -9
-39 9 -20 22 -22 38 -4 45 6 3 3 6 -8 6 -24 1 -129 106 -120 121 9 14 -19 12
-33 -2 -10 -10 -15 -10 -22 2 -8 12 -10 9 -10 -11 0 -14 9 -36 20 -49 22 -26
24 -23 11 13 l-10 25 40 -26 c42 -27 52 -48 19 -39 -11 3 -20 1 -20 -5 0 -5
-5 -6 -12 -2 -8 5 -9 -2 -5 -27 l7 -34 -26 29 c-14 15 -28 41 -31 57 -3 16
-10 29 -15 29 -6 0 -7 -7 -4 -16 3 -8 2 -12 -4 -9 -11 7 -30 73 -33 113 -1 14
-9 28 -16 30 -10 3 -12 0 -6 -14 4 -11 11 -35 16 -55 4 -19 17 -55 28 -80 11
-24 21 -61 21 -82 0 -21 4 -36 9 -33 12 8 41 -38 41 -66 0 -13 11 -44 25 -70
28 -53 29 -58 15 -58 -5 0 -10 6 -10 13 0 7 -13 26 -29 41 -28 27 -29 27 -36
7 -3 -11 -1 -37 4 -58 6 -21 11 -45 11 -53 0 -13 -1 -13 -11 0 -11 16 -10 -16
16 -535 8 -159 21 -450 30 -645 8 -195 17 -393 20 -440 3 -47 10 -190 15 -319
5 -128 12 -237 17 -242 4 -4 35 -11 68 -14 l60 -6 -42 38 c-55 49 -62 70 -69
208 -4 63 -11 112 -16 109 -11 -7 -10 10 2 22 9 9 5 102 -17 414 -3 47 -7 123
-8 170 -2 47 -6 116 -10 154 -6 55 -5 67 5 61 10 -6 11 2 4 41 -5 27 -8 72 -8
99 1 96 -42 800 -52 844 -5 22 0 19 37 -18 45 -45 121 -94 150 -96 19 -2 59
-31 124 -92 24 -23 58 -49 74 -59 17 -10 31 -21 31 -25 0 -4 16 -26 35 -49 19
-23 35 -52 34 -63 0 -16 -6 -11 -20 20 -13 29 -24 40 -34 37 -9 -4 -15 0 -15
9 0 18 -142 152 -185 174 l-30 16 30 -30 c17 -17 48 -54 70 -83 22 -29 51 -65
65 -80 14 -15 40 -43 58 -64 17 -20 32 -31 32 -24 0 27 20 -17 20 -45 0 -16 5
-26 12 -25 7 2 13 -3 12 -9 -4 -48 -4 -48 -20 -23 -15 25 -15 25 -9 -10 l6
-35 -21 33 c-13 21 -19 42 -15 55 5 19 5 20 -5 4 -8 -13 -8 -27 1 -55 22 -71
29 -83 40 -76 8 5 10 -3 7 -24 -3 -22 -1 -29 9 -25 7 3 13 10 13 17 1 6 7 0
14 -13 12 -22 13 -18 19 45 3 38 1 70 -4 72 -5 2 -9 11 -9 19 0 14 2 14 18 0
10 -10 27 -17 38 -17 28 0 64 -52 65 -92 0 -23 2 -28 7 -15 7 16 8 16 24 -2
35 -41 40 -59 18 -71 -27 -15 -25 -30 9 -63 17 -15 32 -35 35 -45 3 -9 16 -23
27 -31 22 -13 22 -12 15 34 -3 27 -10 53 -15 59 -5 6 -12 28 -16 50 -7 37 -7
38 16 32 15 -4 10 1 -12 13 -54 30 -80 81 -80 158 0 60 -1 63 -25 63 -22 0
-24 4 -22 36 2 27 -3 40 -21 53 -17 13 -25 31 -28 67 l-6 49 27 -24 c14 -14
26 -30 26 -38 0 -7 5 -13 10 -13 13 0 13 2 -5 36 -10 20 -11 32 -3 41 11 13
-3 19 -15 6 -4 -3 -18 -7 -31 -9 -18 -2 -23 2 -20 11 3 8 12 11 20 8 8 -3 14
1 14 11 0 22 -13 20 -36 -5 -13 -15 -16 -24 -8 -37 13 -22 6 -52 -12 -52 -23
0 -16 -18 14 -32 26 -13 27 -17 30 -96 2 -53 -1 -82 -8 -82 -6 0 -13 8 -17 18
-3 9 -15 37 -26 62 -11 24 -20 56 -21 71 -2 32 -22 59 -46 59 -43 0 -79 93
-41 105 11 3 35 -4 57 -16 l39 -22 -34 36 c-19 20 -42 37 -50 37 -15 0 -65 60
-57 67 2 2 16 -1 31 -7 16 -6 49 -13 74 -15 l46 -3 -1 -42 c0 -37 1 -40 12
-25 8 10 20 15 29 12 21 -9 19 10 -7 46 -13 19 -16 27 -6 19 13 -10 17 -10 21
3 4 8 3 14 -1 13 -4 -1 -15 2 -24 6 -14 6 -15 12 -7 27 8 15 6 19 -6 19 -9 0
-13 -4 -10 -10 3 -5 3 -10 0 -10 -7 0 -30 61 -27 72 1 3 -12 20 -28 37 -17 19
-33 51 -39 79 -11 52 -10 54 22 59 17 3 19 1 9 -9 -29 -29 -3 -125 34 -120 12
1 33 -12 54 -32 44 -44 51 -45 43 -3 -3 17 -6 37 -7 42 0 6 9 9 22 7 25 -4 46
35 35 65 -7 17 -6 17 10 1 17 -16 17 -19 -3 -58 -21 -41 -19 -66 5 -56 7 2 16
-3 20 -12 5 -14 7 -14 15 -2 8 13 10 13 10 -1 0 -9 -7 -19 -15 -23 -8 -3 -15
0 -15 6 0 6 -2 9 -4 7 -3 -3 -1 -22 4 -42 l8 -38 -34 20 c-39 23 -41 19 -15
-30 11 -21 21 -62 23 -95 3 -51 7 -61 29 -75 36 -23 65 -75 74 -129 4 -25 12
-51 17 -57 8 -10 5 -13 -8 -14 -17 0 -17 -2 4 -16 12 -8 22 -23 22 -32 0 -9 5
-22 12 -29 10 -10 15 -109 7 -137 -2 -6 3 -34 10 -63 7 -30 11 -69 8 -88 -3
-19 -1 -34 4 -34 19 0 31 56 26 123 -4 63 -3 67 17 68 20 0 20 0 -1 9 -21 9
-32 30 -15 30 9 0 7 194 -2 209 -4 6 -4 27 0 46 6 35 6 36 -20 29 l-27 -6 2
68 c1 38 -1 84 -5 103 -6 24 -5 31 3 27 6 -4 11 0 11 9 0 8 -7 18 -15 21 -25
10 -36 40 -26 66 6 14 10 17 11 8 1 -8 6 -2 11 14 10 34 -7 68 -22 44 -12 -19
-38 21 -34 52 2 14 6 52 9 86 8 88 11 94 60 94 l42 0 -4 38 c-5 36 -5 36 -16
12 -15 -36 -25 -40 -83 -38 -43 1 -52 4 -57 22 -3 11 1 27 9 36 12 14 12 16
-5 16 -16 0 -20 -7 -20 -36 0 -25 -3 -31 -10 -20 -5 8 -12 12 -15 9 -9 -9 5
-38 20 -41 11 -2 11 -6 0 -22 -13 -17 -15 -17 -31 -2 -9 10 -23 15 -30 12 -8
-3 -14 0 -14 8 0 8 -10 11 -31 8 -24 -3 -30 -1 -24 8 7 12 54 10 87 -4 13 -6
15 -3 11 12 -2 11 0 23 6 26 18 11 13 26 -9 26 -11 0 -20 -7 -20 -15 0 -8 -4
-15 -9 -15 -12 0 -8 18 12 57 17 31 17 33 -3 45 -11 7 -20 18 -20 23 0 19 36
14 65 -10 25 -20 28 -25 16 -39 -12 -14 -11 -16 7 -16 11 0 29 10 39 23 18 23
91 77 104 77 4 0 9 -6 12 -14 4 -9 0 -12 -12 -9 -10 3 -21 -2 -24 -10 -7 -19
3 -57 15 -57 5 0 7 8 4 18 -4 13 0 18 15 19 30 3 48 21 42 44 -4 15 -11 18
-27 13 -20 -6 -20 -5 4 22 l25 28 -30 -23 c-47 -35 -147 -92 -153 -86 -3 3 -2
5 2 5 4 0 -6 12 -23 26 -17 14 -31 32 -31 39 0 19 27 26 40 9 19 -21 25 -18
45 25 14 31 24 40 50 45 18 4 38 13 45 21 7 8 23 15 36 15 18 0 24 6 25 23 2
63 21 102 46 93 7 -3 21 7 30 22 10 15 22 30 28 34 6 5 3 8 -7 8 -31 0 -19 28
17 41 19 7 35 17 35 22 0 4 5 5 10 2 6 -3 10 1 10 9 0 21 46 50 67 42 13 -6
10 -13 -23 -45 -21 -21 -52 -45 -69 -54 -16 -9 -25 -16 -20 -17 6 0 26 10 45
22 67 42 125 65 145 58 14 -5 31 2 61 26 22 19 44 31 48 27 12 -12 85 70 100
113 13 39 13 44 -3 58 -26 24 -45 20 -64 -13z m4 -58 c12 -16 12 -17 -1 -7 -8
6 -22 14 -30 17 -13 5 -12 6 1 6 9 1 23 -7 30 -16z m-398 -273 c-7 -28 -13
-25 -13 6 0 14 4 23 9 20 5 -3 7 -15 4 -26z m-63 -51 c0 -5 -4 -9 -10 -9 -5 0
-10 7 -10 16 0 8 5 12 10 9 6 -3 10 -10 10 -16z m-770 -329 c24 -24 27 -30 13
-29 -19 0 -72 59 -54 59 6 0 24 -13 41 -30z m435 -10 c-3 -5 -12 -10 -18 -10
-7 0 -6 4 3 10 19 12 23 12 15 0z m-488 -40 c15 -6 33 -16 38 -23 6 -7 24 -23
40 -37 22 -18 26 -20 15 -5 -8 11 -22 26 -30 33 -12 10 8 12 112 9 71 -2 131
-7 135 -10 7 -8 11 -35 12 -95 1 -36 8 -50 46 -91 29 -31 45 -57 45 -74 0 -14
5 -29 10 -32 6 -3 10 -15 10 -27 0 -15 -3 -18 -12 -11 -7 6 -29 15 -48 22 -36
11 -52 25 -113 95 -23 27 -41 39 -60 39 -15 0 -30 4 -34 10 -4 7 1 8 13 4 10
-4 -1 11 -26 33 -25 22 -63 58 -85 79 -87 84 -90 55 -3 -35 34 -35 58 -67 54
-71 -3 -4 -12 -1 -18 5 -7 7 -16 12 -20 12 -18 0 -5 -17 32 -43 22 -16 38 -32
35 -37 -3 -5 15 -21 39 -37 25 -15 50 -39 57 -53 8 -14 22 -37 32 -52 12 -19
14 -28 6 -28 -6 0 0 -11 15 -25 22 -21 37 -65 21 -65 -19 0 -85 43 -85 56 0
12 4 13 20 4 23 -12 25 -7 9 22 -9 17 -13 18 -21 7 -8 -11 -9 -10 -5 3 3 9 -1
22 -10 30 -9 7 -22 28 -30 46 -7 17 -18 32 -24 32 -15 0 -125 110 -121 122 1
5 -12 26 -29 46 -26 29 -79 128 -79 147 0 8 27 6 57 -5z m500 4 c-3 -3 -12 -4
-19 -1 -8 3 -5 6 6 6 11 1 17 -2 13 -5z m-104 -21 c-7 -2 -19 -2 -25 0 -7 3
-2 5 12 5 14 0 19 -2 13 -5z m118 -69 c13 -14 17 -23 9 -19 -13 5 -46 45 -37
45 2 0 14 -11 28 -26z m137 1 c-3 -3 -9 2 -12 12 -6 14 -5 15 5 6 7 -7 10 -15
7 -18z m-84 -1 c3 -8 2 -12 -4 -9 -6 3 -10 10 -10 16 0 14 7 11 14 -7z m-64
-73 c-1 -13 -30 34 -30 48 0 9 7 3 15 -13 8 -15 15 -31 15 -35z m-12 -36 c-3
-3 -9 2 -12 12 -6 14 -5 15 5 6 7 -7 10 -15 7 -18z m62 5 c0 -5 -4 -10 -10
-10 -5 0 -10 5 -10 10 0 6 5 10 10 10 6 0 10 -4 10 -10z m107 -30 c0 -40 0
-40 -19 -23 -16 14 -17 19 -5 28 7 5 12 16 10 23 -3 6 0 12 5 12 5 0 9 -18 9
-40z m-547 -64 c0 -3 -4 -8 -10 -11 -5 -3 -10 -1 -10 4 0 6 5 11 10 11 6 0 10
-2 10 -4z m-30 -27 c0 -6 -4 -7 -10 -4 -5 3 -10 11 -10 16 0 6 5 7 10 4 6 -3
10 -11 10 -16z m567 -14 c-8 -20 -37 -19 -37 1 0 14 3 14 15 4 12 -10 15 -9
15 5 0 10 3 16 6 12 4 -3 4 -13 1 -22z m36 -22 c4 -3 -2 -20 -13 -38 -11 -18
-18 -34 -15 -36 2 -3 -4 -5 -15 -6 -20 -2 -33 10 -44 42 -7 18 -5 18 16 -3
l24 -22 17 29 c13 22 14 30 5 34 -9 4 -8 6 3 6 9 1 19 -2 22 -6z m-539 -19 c3
-8 2 -12 -4 -9 -6 3 -10 10 -10 16 0 14 7 11 14 -7z m542 -94 c8 0 14 -10 14
-25 0 -14 -2 -25 -5 -25 -6 0 -35 57 -34 67 0 4 3 2 6 -4 2 -7 11 -13 19 -13z
m-51 -60 c3 -5 -1 -10 -9 -10 -9 0 -16 5 -16 10 0 6 4 10 9 10 6 0 13 -4 16
-10z m85 -52 c0 -10 -4 -18 -9 -18 -12 0 -31 56 -23 65 9 9 32 -25 32 -47z m4
-67 c-4 -17 -9 -30 -11 -27 -3 2 -2 19 2 36 4 17 9 30 11 27 2 -2 1 -18 -2
-36z m-287 -103 c-3 -7 -5 -2 -5 12 0 14 2 19 5 13 2 -7 2 -19 0 -25z m290 10
c-3 -8 -6 -5 -6 6 -1 11 2 17 5 13 3 -3 4 -12 1 -19z"/>
<path d="M1070 2732 c0 -5 7 -15 15 -22 8 -7 15 -8 15 -2 0 5 -7 15 -15 22 -8
7 -15 8 -15 2z"/>
<path d="M632 3658 c-7 -7 -12 -18 -12 -25 0 -7 -4 -13 -10 -13 -5 0 -10 -13
-10 -30 0 -16 5 -30 10 -30 13 0 50 -37 50 -50 0 -5 5 -10 10 -10 6 0 10 5 10
10 0 6 7 10 16 10 8 0 13 -4 10 -9 -3 -4 5 -21 17 -37 16 -21 32 -30 57 -32
l35 -2 -55 50 c-30 28 -54 55 -53 60 2 6 -6 6 -22 0 -19 -7 -23 -6 -18 5 3 8
11 15 19 15 17 0 18 10 3 30 -9 13 -10 12 -5 -2 3 -10 1 -18 -4 -18 -6 0 -10
4 -10 9 0 5 -7 17 -16 25 -14 15 -13 17 10 26 14 5 26 14 26 20 0 14 -43 13
-58 -2z"/>
<path d="M2026 3614 c-9 -24 -4 -25 24 -4 24 19 24 20 4 20 -12 0 -25 -7 -28
-16z"/>
<path d="M1417 3566 c-5 -15 -6 -31 -3 -34 8 -8 18 25 14 45 -3 13 -6 10 -11
-11z"/>
<path d="M1320 3561 c0 -12 26 -32 33 -25 9 10 -4 34 -19 34 -8 0 -14 -4 -14
-9z"/>
<path d="M2174 3515 c-9 -13 -25 -27 -35 -30 -14 -5 -18 -12 -14 -25 3 -10 1
-21 -5 -25 -6 -4 -8 -16 -4 -27 4 -13 -6 -39 -30 -78 -20 -32 -36 -62 -36 -68
0 -16 27 -34 35 -22 10 16 25 12 25 -9 0 -10 -7 -24 -15 -31 -9 -7 -15 -31
-16 -59 -1 -25 -3 -38 -6 -28 -6 22 -26 22 -47 -2 -15 -16 -15 -19 -1 -31 13
-11 14 -10 10 3 -8 20 15 34 26 16 16 -26 -14 -181 -39 -201 -14 -11 -15 -10
-9 7 7 20 7 20 -8 0 -14 -18 -30 -20 -167 -24 -186 -4 -178 -21 10 -21 72 0
132 -4 132 -9 0 -4 -16 -25 -35 -46 -41 -43 -71 -95 -55 -95 12 0 39 26 88 85
l34 40 -21 -37 c-12 -20 -33 -69 -46 -108 -14 -40 -30 -79 -36 -86 -7 -9 -7
-14 -1 -14 5 0 15 7 22 15 25 30 29 14 10 -39 -15 -44 -16 -54 -4 -49 16 6 18
-5 4 -27 -5 -9 -5 -17 0 -20 13 -8 -8 -80 -24 -86 -14 -5 -76 -96 -76 -110 0
-5 21 14 46 41 37 40 44 45 39 25 -4 -14 -13 -30 -21 -36 -8 -6 -14 -22 -14
-35 0 -26 -14 -54 -27 -54 -4 0 -18 -9 -30 -20 -16 -14 -19 -22 -12 -31 8 -10
16 -7 33 13 16 18 25 23 30 15 7 -12 -28 -52 -77 -85 -16 -10 -24 -23 -21 -32
4 -9 -3 -16 -20 -21 -15 -3 -31 -14 -36 -24 -15 -28 -12 -35 8 -18 20 18 62
30 62 17 0 -4 -8 -16 -18 -26 -21 -21 -62 -113 -62 -140 0 -10 16 14 35 52 23
47 34 62 35 47 0 -13 -5 -33 -12 -45 -10 -20 -10 -21 7 -7 17 14 17 13 10 -10
-5 -14 -8 -29 -7 -35 0 -5 3 -28 5 -50 3 -22 5 -46 6 -53 1 -6 7 -11 14 -10 6
2 11 -3 9 -10 -1 -8 1 -12 5 -9 47 24 85 37 95 31 7 -4 8 -3 4 4 -4 7 -15 12
-26 12 -10 0 -21 7 -24 16 -4 11 -13 14 -29 11 -17 -5 -25 0 -34 19 -12 26 -8
54 8 54 5 0 9 -8 9 -19 0 -19 66 -59 77 -47 3 3 -7 11 -21 18 -15 6 -35 28
-45 49 -17 35 -17 37 1 60 10 14 16 33 13 45 -3 14 4 29 20 44 14 13 25 29 25
35 0 7 9 20 20 30 11 10 20 25 20 33 0 12 -3 12 -15 -4 -8 -10 -15 -14 -15 -7
0 6 6 18 13 25 39 42 56 104 59 210 2 87 1 104 -10 95 -10 -8 -10 -3 1 24 25
59 39 131 27 143 -7 7 -10 4 -10 -9 0 -24 -17 -52 -25 -43 -9 8 12 47 41 76
24 25 59 112 44 112 -5 0 -18 -15 -29 -34 -12 -19 -29 -40 -38 -47 -15 -13
-15 -12 0 17 9 17 32 52 52 78 20 26 33 51 29 57 -3 5 0 16 6 24 10 12 8 17
-11 24 -23 9 -23 10 7 10 17 1 46 4 63 7 29 6 31 4 31 -20 0 -16 4 -25 10 -21
6 3 10 17 10 30 0 12 7 25 15 29 8 3 15 15 15 26 0 19 -2 19 -23 5 -13 -8 -46
-18 -73 -21 l-49 -7 27 22 c14 11 31 21 37 21 6 0 8 7 5 14 -3 8 1 39 10 70
17 58 22 148 6 111 -5 -11 -9 -33 -9 -48 -1 -32 -46 -123 -55 -109 -8 13 1 98
13 121 6 11 11 35 11 53 0 19 8 44 17 58 11 16 13 25 5 28 -13 4 -4 33 16 48
8 6 12 16 8 22 -4 7 3 16 18 23 26 12 36 35 36 84 0 40 -19 20 -22 -23 -1 -19
-6 -36 -11 -39 -8 -5 -1 78 13 140 9 43 6 46 -16 12z m-23 -72 c-8 -15 -10
-15 -11 -2 0 17 10 32 18 25 2 -3 -1 -13 -7 -23z m-41 -158 c-7 -8 -17 -15
-22 -15 -6 0 -5 7 2 15 7 8 17 15 22 15 6 0 5 -7 -2 -15z m-150 -488 c0 -2
-12 -14 -27 -28 l-28 -24 24 28 c23 25 31 32 31 24z m34 -62 c-23 -36 -30 -23
-8 15 10 17 20 26 22 21 2 -5 -4 -21 -14 -36z m-33 -351 c-5 -21 -9 -30 -10
-19 -1 24 10 67 15 62 3 -2 0 -22 -5 -43z m-1 -144 c-6 -12 -14 -20 -17 -17
-2 3 1 14 8 26 7 11 15 18 17 16 2 -2 -2 -13 -8 -25z m-43 -12 c-3 -8 -6 -5
-6 6 -1 11 2 17 5 13 3 -3 4 -12 1 -19z m-27 -128 c0 -5 -2 -10 -4 -10 -3 0
-8 5 -11 10 -3 6 -1 10 4 10 6 0 11 -4 11 -10z m-20 -314 c0 -20 -19 -31 -32
-18 -6 6 -7 15 -4 21 10 16 36 13 36 -3z"/>
<path d="M1017 3494 c-21 -14 -42 -37 -48 -51 -8 -20 -14 -24 -34 -19 -23 6
-24 5 -13 -13 10 -16 14 -17 25 -5 8 8 20 14 27 14 13 0 56 41 56 54 0 4 10
16 23 27 33 27 7 23 -36 -7z"/>
<path d="M1137 3465 c-9 -24 -28 -57 -46 -78 -7 -9 -37 -21 -67 -28 -58 -13
-67 -25 -31 -38 14 -6 32 -4 50 6 32 16 32 16 46 -17 8 -21 10 -22 10 -5 0 11
-3 26 -8 34 -6 10 2 31 26 67 19 29 33 59 31 66 -3 8 -7 5 -11 -7z"/>
<path d="M690 3432 c6 -13 14 -21 18 -18 3 4 -2 14 -12 24 -18 16 -18 16 -6
-6z"/>
<path d="M858 3433 c7 -3 16 -2 19 1 4 3 -2 6 -13 5 -11 0 -14 -3 -6 -6z"/>
<path d="M1627 3433 c-11 -11 -8 -43 5 -43 6 0 8 3 5 6 -3 4 -2 15 4 25 9 18
0 26 -14 12z"/>
<path d="M679 3396 c6 -7 8 -22 5 -32 -5 -15 -4 -16 6 -8 13 13 5 54 -12 54
-7 0 -7 -5 1 -14z"/>
<path d="M1818 3403 c-10 -2 -18 -9 -18 -14 0 -6 8 -5 20 1 11 6 20 13 20 15
0 3 -1 4 -2 4 -2 -1 -11 -3 -20 -6z"/>
<path d="M706 3336 c3 -9 1 -16 -5 -16 -6 0 -11 -4 -11 -10 0 -5 7 -10 15 -10
17 0 21 35 5 45 -6 3 -7 -1 -4 -9z"/>
<path d="M757 3331 c-4 -17 -3 -21 5 -13 5 5 8 16 6 23 -3 8 -7 3 -11 -10z"/>
<path d="M727 3297 c-3 -8 -1 -20 4 -28 6 -10 9 -7 9 14 0 29 -5 35 -13 14z"/>
<path d="M820 3303 c0 -5 24 -9 53 -9 38 -1 45 1 27 6 -33 11 -80 12 -80 3z"/>
<path d="M1800 3270 c-6 -11 -7 -20 -3 -20 5 0 14 9 21 20 7 11 8 20 2 20 -5
0 -14 -9 -20 -20z"/>
<path d="M692 3259 c2 -15 9 -33 16 -41 6 -8 10 -18 7 -22 -3 -3 0 -2 6 3 7 6
4 21 -11 47 -18 34 -20 35 -18 13z"/>
<path d="M1950 3231 c-15 -29 -13 -124 3 -119 12 5 39 123 29 133 -10 10 -21
5 -32 -14z"/>
<path d="M750 3217 c0 -8 7 -17 15 -21 8 -3 15 -2 15 3 0 5 -7 14 -15 21 -12
10 -15 10 -15 -3z"/>
<path d="M1776 3221 c-4 -7 -5 -15 -2 -18 9 -9 19 4 14 18 -4 11 -6 11 -12 0z"/>
<path d="M1996 3223 c-12 -12 -5 -23 14 -23 12 0 25 -10 32 -25 6 -14 15 -25
19 -25 5 0 -1 15 -12 34 -20 34 -42 50 -53 39z"/>
<path d="M850 3211 c0 -5 7 -12 16 -15 14 -5 15 -4 4 9 -14 17 -20 19 -20 6z"/>
<path d="M1757 3183 c-4 -3 -7 -11 -7 -17 0 -6 5 -5 12 2 6 6 9 14 7 17 -3 3
-9 2 -12 -2z"/>
<path d="M2010 3149 c0 -5 5 -7 10 -4 6 3 10 8 10 11 0 2 -4 4 -10 4 -5 0 -10
-5 -10 -11z"/>
<path d="M1722 3118 c-16 -19 -21 -35 -17 -46 6 -14 9 -12 18 13 5 17 14 33
20 36 5 4 8 11 6 16 -2 6 -15 -3 -27 -19z"/>
<path d="M1388 3073 c7 -3 16 -2 19 1 4 3 -2 6 -13 5 -11 0 -14 -3 -6 -6z"/>
<path d="M1990 2999 c0 -5 5 -7 10 -4 6 3 10 8 10 11 0 2 -4 4 -10 4 -5 0 -10
-5 -10 -11z"/>
<path d="M1672 2983 c-18 -32 -15 -51 4 -25 8 12 14 28 11 35 -2 7 -8 3 -15
-10z"/>
<path d="M1965 2980 c3 -5 8 -10 11 -10 2 0 4 5 4 10 0 6 -5 10 -11 10 -5 0
-7 -4 -4 -10z"/>
<path d="M2183 2820 c-28 -75 -41 -140 -47 -240 -8 -111 -35 -452 -41 -510 -4
-45 -9 -149 -21 -485 -9 -256 -11 -302 -24 -470 -6 -82 -14 -239 -19 -347 -8
-191 -9 -198 -34 -231 -14 -19 -42 -42 -61 -51 -20 -9 -36 -20 -36 -23 0 -3
32 -3 71 0 52 4 69 3 66 -6 -4 -14 -117 -45 -136 -39 -8 3 -12 -1 -9 -9 3 -8
15 -14 27 -13 11 0 21 -3 21 -8 0 -5 -15 -8 -33 -6 -18 1 -39 -2 -46 -7 -8 -4
-36 -7 -62 -6 -26 1 -50 -3 -54 -9 -3 -5 -11 -10 -16 -10 -6 0 -8 3 -6 8 3 4
-83 4 -191 1 -170 -5 -212 -3 -302 14 -58 10 -107 22 -110 24 -3 3 97 3 221
-1 235 -6 539 2 539 14 0 4 -186 8 -414 8 -417 0 -505 6 -551 38 -35 25 -38
17 -32 -77 11 -145 51 -211 159 -258 107 -47 121 -52 126 -46 3 3 0 5 -6 5
-19 0 -14 20 6 21 9 1 -5 5 -33 10 -71 14 -85 20 -56 28 20 5 16 10 -38 35
-55 27 -61 33 -61 60 0 17 -3 41 -6 54 -8 29 6 28 52 -3 57 -39 216 -85 334
-96 104 -11 258 -5 335 11 142 30 200 52 263 96 12 9 22 12 22 6 0 -6 -8 -13
-18 -16 -10 -4 -22 -23 -29 -47 l-10 -40 31 6 c30 6 30 5 11 -10 -46 -38 -98
-56 -175 -62 -44 -3 -77 -10 -74 -14 2 -5 34 -5 71 -2 49 5 64 3 59 -5 -4 -7
-26 -12 -49 -13 -41 -1 -41 -1 -12 -10 67 -20 176 41 240 134 38 56 40 64 44
144 2 62 0 88 -10 93 -10 7 -9 11 3 23 11 11 17 48 21 129 19 352 39 700 57
983 10 176 22 381 25 455 3 74 15 282 26 463 11 180 19 335 17 345 -2 10 -12
-5 -25 -38z m-131 -2432 c-7 -7 -12 -8 -12 -2 0 14 12 26 19 19 2 -3 -1 -11
-7 -17z m-167 -29 c11 -17 -1 -21 -15 -4 -8 9 -8 15 -2 15 6 0 14 -5 17 -11z
m30 -36 c25 4 45 3 45 -2 0 -8 -25 -18 -137 -57 -29 -10 -53 -21 -53 -25 0 -4
-9 -5 -20 -2 -11 3 -20 0 -20 -6 0 -5 -7 -8 -15 -5 -8 4 -22 1 -30 -6 -9 -7
-15 -8 -15 -2 0 6 -13 7 -37 1 -21 -5 -74 -8 -118 -7 -68 1 -73 2 -35 8 27 4
-10 6 -95 6 -128 0 -147 3 -225 29 -85 29 -155 63 -146 72 2 3 54 0 115 -6 60
-6 245 -11 411 -11 266 1 300 3 300 17 0 13 3 13 15 3 10 -8 31 -11 60 -7z"/>
<path d="M2063 2698 c-14 -18 -26 -50 -28 -73 -1 -11 -5 -42 -10 -69 -5 -32
-4 -47 2 -43 6 4 14 33 17 64 4 32 14 73 22 91 16 35 14 52 -3 30z"/>
<path d="M1420 2596 c0 -2 6 -9 14 -15 10 -9 15 -8 20 4 4 10 -1 15 -14 15
-11 0 -20 -2 -20 -4z"/>
<path d="M1873 2515 c-36 -32 -26 -32 17 0 19 14 29 25 23 25 -7 0 -25 -11
-40 -25z"/>
<path d="M1284 2343 c14 -15 28 -25 31 -22 7 8 -30 49 -44 49 -7 0 -1 -12 13
-27z"/>
<path d="M1390 1991 c0 -5 5 -13 10 -16 6 -3 10 -2 10 4 0 5 -4 13 -10 16 -5
3 -10 2 -10 -4z"/>
<path d="M1295 1938 c-3 -13 -6 -32 -8 -43 -1 -11 -7 -27 -12 -35 -8 -13 -6
-13 8 -2 9 8 21 11 26 8 5 -4 13 -1 17 5 4 7 3 9 -4 5 -7 -4 -11 2 -11 16 0
13 -1 33 -1 46 0 12 -2 22 -5 22 -3 0 -7 -10 -10 -22z"/>
<path d="M1330 1910 c0 -11 5 -20 10 -20 6 0 10 9 10 20 0 11 -4 20 -10 20 -5
0 -10 -9 -10 -20z"/>
<path d="M1327 1840 c-3 -11 -1 -20 4 -20 5 0 9 5 9 11 0 7 9 9 23 6 12 -4 29
-2 37 3 8 5 11 10 5 11 -5 0 -24 2 -41 4 -25 4 -33 0 -37 -15z"/>
<path d="M1206 1827 c-23 -23 -44 -107 -31 -127 6 -10 -15 -33 -59 -63 -14
-10 -31 -27 -37 -39 -12 -23 -10 -21 68 42 18 14 23 12 23 -9 0 -10 -7 -25
-16 -32 -9 -7 -19 -22 -23 -32 -7 -19 -108 -60 -116 -48 -2 4 3 18 10 32 8 13
17 31 20 39 19 46 37 67 74 88 39 22 53 42 31 42 -17 0 -90 -52 -90 -63 0 -6
-8 -20 -18 -31 -22 -25 -46 -102 -36 -117 4 -8 23 -9 53 -4 25 4 57 8 71 10
13 2 30 -1 37 -7 7 -6 20 -7 29 -4 14 5 15 4 4 -9 -7 -8 -10 -16 -6 -16 3 -1
10 -2 15 -3 16 -2 26 -17 15 -24 -5 -4 -18 -20 -27 -35 -18 -27 -18 -30 -1
-65 27 -58 114 -128 114 -92 0 6 5 10 12 10 6 0 4 -8 -6 -19 -15 -17 -15 -19
0 -32 14 -12 18 -12 22 -1 3 10 13 4 33 -18 24 -26 32 -30 44 -20 8 7 15 11
16 9 0 -2 2 -13 4 -24 2 -11 6 -34 10 -51 6 -35 23 -43 76 -38 19 2 49 4 67 5
17 1 32 6 32 10 0 5 7 6 15 3 8 -4 21 -2 28 3 6 5 26 10 42 11 17 1 31 7 33
12 2 6 14 7 26 4 14 -3 27 1 35 10 8 9 22 16 32 16 10 0 24 9 32 20 9 13 20
18 31 14 11 -4 25 2 38 16 19 20 20 23 5 32 -22 12 -22 32 -1 24 11 -4 15 -2
11 8 -3 8 -1 17 6 20 7 3 1 3 -13 0 -14 -4 -26 -11 -28 -15 -9 -23 -20 -5 -21
34 -1 23 -2 47 -3 52 0 6 3 25 6 44 5 23 2 41 -9 57 -19 30 -19 34 2 34 9 0
13 -3 10 -7 -4 -3 -1 -16 6 -27 8 -12 17 -33 21 -48 5 -23 12 -28 37 -28 19 0
28 4 24 11 -4 6 -13 8 -21 5 -22 -8 -16 10 9 28 l22 17 -26 -4 c-24 -3 -26 -1
-24 34 2 33 -1 39 -24 47 -23 8 -24 11 -8 17 11 5 25 1 37 -10 19 -18 20 -17
20 13 0 18 -4 32 -10 32 -5 0 -10 10 -10 23 0 13 -5 28 -10 33 -14 14 -2 44
16 44 8 0 14 5 14 10 0 15 -11 12 -32 -7 -28 -25 -30 -10 -3 27 13 18 21 38
17 44 -4 7 -8 5 -10 -6 -2 -9 -9 -15 -16 -12 -7 3 -19 -2 -26 -11 -7 -9 -8
-15 -2 -15 7 0 7 -10 -1 -30 -13 -34 -19 -36 -37 -15 -7 8 -20 15 -30 15 -29
0 -30 11 -2 36 25 22 26 23 4 17 -28 -7 -55 15 -49 39 6 21 -11 25 -19 3 -7
-16 24 -103 43 -123 7 -7 13 -22 13 -33 0 -11 7 -19 18 -19 16 -1 16 -1 0 -11
-10 -6 -18 -22 -18 -37 0 -15 -12 -45 -26 -66 -19 -28 -22 -37 -11 -33 11 4
14 2 10 -9 -3 -7 -1 -14 5 -14 6 0 9 -8 7 -17 -1 -10 2 -24 8 -30 7 -10 2 -13
-23 -13 -19 0 -31 3 -27 6 3 3 -8 19 -24 35 l-29 28 26 26 c35 35 57 92 50
129 -6 32 -46 100 -46 79 0 -7 -8 -13 -17 -13 -15 -1 -14 -4 6 -21 19 -15 25
-32 29 -73 4 -48 1 -56 -27 -89 -35 -39 -91 -55 -151 -42 -42 9 -96 62 -103
100 -5 26 -3 30 19 31 18 1 26 -4 30 -21 7 -29 41 -60 73 -68 26 -6 90 16 103
36 4 7 8 31 8 54 0 32 -5 45 -19 53 -25 13 -68 13 -76 -1 -4 -6 -13 -8 -20 -5
-7 2 -18 -1 -24 -7 -8 -8 -11 -8 -11 0 0 7 5 15 10 18 6 4 8 10 5 15 -6 10
-73 6 -83 -5 -4 -5 1 -5 11 -2 14 5 17 1 17 -22 0 -25 -4 -29 -26 -27 -22 1
-25 4 -20 29 6 29 4 30 -45 41 -14 3 -38 17 -55 31 -16 14 -33 25 -39 25 -5 0
-16 4 -24 9 -12 8 -12 12 -2 25 19 22 24 20 44 -14 19 -32 37 -39 37 -15 0 20
16 19 32 -2 7 -10 23 -26 35 -37 21 -18 22 -18 20 2 0 11 -5 18 -9 16 -4 -3
-8 4 -8 15 0 11 -5 23 -12 27 -8 5 -9 2 -5 -10 5 -12 3 -16 -5 -13 -7 2 -12
18 -12 36 1 17 -2 31 -7 31 -5 0 -18 9 -29 20 -19 19 -19 19 -47 -3 -76 -62
-113 -108 -120 -149 -4 -30 -8 -37 -13 -24 -11 33 -3 96 14 109 16 12 16 14
-3 31 -27 25 -28 66 -2 66 10 0 24 7 31 15 21 26 -17 18 -44 -8z m204 -75 c0
-13 -12 -22 -22 -16 -10 6 -1 24 13 24 5 0 9 -4 9 -8z m520 -42 c0 -5 -5 -10
-11 -10 -5 0 -7 5 -4 10 3 6 8 10 11 10 2 0 4 -4 4 -10z m-670 -62 c0 -12 3
-18 7 -15 8 9 33 -12 33 -28 0 -8 -13 -13 -36 -13 -29 0 -34 3 -28 17 4 9 7
26 7 39 -1 12 3 22 8 22 5 0 9 -10 9 -22z m132 -24 c-13 -9 -21 -10 -32 -1 -8
6 -16 12 -18 13 -2 1 12 2 32 1 30 -1 32 -3 18 -13z m-119 -51 c-13 -2 -23
-10 -23 -18 0 -14 -22 -25 -48 -24 -10 0 -5 5 11 11 18 6 26 15 23 24 -4 10 3
14 27 13 23 -1 26 -3 10 -6z m327 -11 c0 -24 19 -42 36 -35 8 3 14 14 14 24 0
10 6 19 14 19 24 0 29 -19 12 -45 -30 -46 -116 -20 -116 35 0 13 7 20 20 20
13 0 20 -7 20 -18z m-420 -2 c0 -5 -5 -10 -11 -10 -5 0 -7 5 -4 10 3 6 8 10
11 10 2 0 4 -4 4 -10z m73 -57 c-7 -2 -19 -2 -25 0 -7 3 -2 5 12 5 14 0 19 -2
13 -5z m65 -42 c3 -8 -1 -12 -9 -9 -7 2 -15 10 -17 17 -3 8 1 12 9 9 7 -2 15
-10 17 -17z m562 -76 c0 -8 -2 -15 -4 -15 -2 0 -6 7 -10 15 -3 8 -1 15 4 15 6
0 10 -7 10 -15z m-74 -63 c8 -11 7 -19 -5 -31 -15 -15 -16 -15 -19 6 -2 13
-10 23 -18 23 -8 0 -14 7 -14 16 0 19 39 9 56 -14z m-322 -167 c-4 -8 -12 -15
-20 -15 -20 0 -17 18 4 23 9 3 18 5 19 6 1 0 0 -6 -3 -14z m-7 -41 c-3 -3 -12
-4 -19 -1 -8 3 -5 6 6 6 11 1 17 -2 13 -5z"/>
<path d="M1420 1831 c0 -6 -8 -7 -17 -4 -16 6 -16 5 -4 -10 7 -9 17 -15 21
-12 4 3 10 -3 12 -13 5 -18 114 -79 125 -69 3 4 -5 11 -18 16 -25 10 -69 47
-69 59 -1 11 -50 44 -50 33z"/>
<path d="M1710 1740 c0 -5 5 -10 11 -10 5 0 7 5 4 10 -3 6 -8 10 -11 10 -2 0
-4 -4 -4 -10z"/>
<path d="M1500 1700 c-8 -5 -12 -12 -9 -15 4 -3 12 1 19 10 14 17 11 19 -10 5z"/>
<path d="M1575 1702 c6 -4 10 -16 10 -26 0 -11 6 -21 13 -23 7 -3 12 4 12 14
0 21 -18 43 -34 43 -7 0 -8 -3 -1 -8z"/>
<path d="M1865 1690 c-3 -5 -1 -10 4 -10 6 0 11 5 11 10 0 6 -2 10 -4 10 -3 0
-8 -4 -11 -10z"/>
<path d="M1997 1672 c-12 -2 -16 -9 -13 -19 5 -13 4 -14 -8 -4 -10 8 -16 9
-21 1 -3 -5 -1 -10 4 -10 6 0 11 -14 11 -30 0 -27 2 -29 19 -18 11 7 17 16 14
20 -2 5 1 15 7 23 16 20 9 41 -13 37z"/>
<path d="M1019 1648 c-12 -23 -12 -23 10 -4 23 21 26 26 11 26 -5 0 -15 -10
-21 -22z"/>
<path d="M2015 1580 c-3 -5 -1 -10 4 -10 6 0 11 5 11 10 0 6 -2 10 -4 10 -3 0
-8 -4 -11 -10z"/>
<path d="M1065 1560 c3 -5 11 -10 16 -10 6 0 7 5 4 10 -3 6 -11 10 -16 10 -6
0 -7 -4 -4 -10z"/>
<path d="M1980 1561 c0 -5 5 -13 10 -16 6 -3 10 -2 10 4 0 5 -4 13 -10 16 -5
3 -10 2 -10 -4z"/>
<path d="M1990 1520 c20 -13 33 -13 25 0 -3 6 -14 10 -23 10 -15 0 -15 -2 -2
-10z"/>
<path d="M2008 1315 c-3 -14 -1 -28 3 -31 5 -3 9 9 9 25 0 38 -6 40 -12 6z"/>
<path d="M1400 1150 c-13 -8 -12 -10 3 -10 9 0 17 5 17 10 0 12 -1 12 -20 0z"/>
<path d="M1638 113 c7 -3 16 -2 19 1 4 3 -2 6 -13 5 -11 0 -14 -3 -6 -6z"/>
<path d="M1835 69 c-22 -10 -34 -19 -27 -19 15 0 72 28 72 35 0 6 3 7 -45 -16z"/>
</g>
</svg>
