<svg width="21" height="24" viewBox="0 0 21 24" fill="none" xmlns="http://www.w3.org/2000/svg">
<g id="Group 2204">
<path id="Vector 285" d="M7.22656 6.89771H5.91162C3.1502 6.89771 0.911621 9.13628 0.911621 11.8977V17.8469C0.911621 20.6083 3.1502 22.8469 5.91162 22.8469H14.8564C17.6179 22.8469 19.8564 20.6083 19.8564 17.8469V11.8977C19.8564 9.13628 17.6179 6.89771 14.8564 6.89771H13.5415" stroke="#3E3E3E" stroke-width="1.5" stroke-linecap="round"/>
<path id="Vector 286" d="M9.63379 13.3149C9.63379 13.7292 9.96958 14.0649 10.3838 14.0649C10.798 14.0649 11.1338 13.7292 11.1338 13.3149L9.63379 13.3149ZM11.1338 13.3149L11.1338 1.00781L9.63379 1.00781L9.63379 13.3149L11.1338 13.3149Z" fill="#3E3E3E"/>
<path id="Vector 287" d="M7.30469 3.70752L9.67697 1.33508C10.0675 0.944536 10.7007 0.944526 11.0912 1.33506L13.4637 3.70752" stroke="#3E3E3E" stroke-width="1.5" stroke-linecap="round"/>
</g>
</svg>
