<svg width="20" height="20" viewBox="0 0 20 20" fill="none" xmlns="http://www.w3.org/2000/svg">
<g id="Group 2192">
<path id="Vector 283" d="M0.5 14C0.5 14.2761 0.723858 14.5 1 14.5C1.27614 14.5 1.5 14.2761 1.5 14H0.5ZM16.3536 4.35355C16.5488 4.15829 16.5488 3.84171 16.3536 3.64645L13.1716 0.464466C12.9763 0.269204 12.6597 0.269204 12.4645 0.464466C12.2692 0.659728 12.2692 0.976311 12.4645 1.17157L15.2929 4L12.4645 6.82843C12.2692 7.02369 12.2692 7.34027 12.4645 7.53553C12.6597 7.7308 12.9763 7.7308 13.1716 7.53553L16.3536 4.35355ZM1.5 14V9H0.5V14H1.5ZM6 4.5H16V3.5H6V4.5ZM1.5 9C1.5 6.51472 3.51472 4.5 6 4.5V3.5C2.96243 3.5 0.5 5.96243 0.5 9H1.5Z" fill="#6D4C3A"/>
<path id="Vector 284" d="M19.5 6C19.5 5.72386 19.2761 5.5 19 5.5C18.7239 5.5 18.5 5.72386 18.5 6L19.5 6ZM3.64645 15.6464C3.45119 15.8417 3.45119 16.1583 3.64645 16.3536L6.82843 19.5355C7.02369 19.7308 7.34027 19.7308 7.53553 19.5355C7.7308 19.3403 7.7308 19.0237 7.53553 18.8284L4.70711 16L7.53553 13.1716C7.7308 12.9763 7.7308 12.6597 7.53553 12.4645C7.34027 12.2692 7.02369 12.2692 6.82843 12.4645L3.64645 15.6464ZM18.5 6L18.5 11L19.5 11L19.5 6L18.5 6ZM14 15.5L4 15.5L4 16.5L14 16.5L14 15.5ZM18.5 11C18.5 13.4853 16.4853 15.5 14 15.5L14 16.5C17.0376 16.5 19.5 14.0376 19.5 11L18.5 11Z" fill="#6D4C3A"/>
</g>
</svg>
