<svg width="19" height="20" viewBox="0 0 19 20" fill="none" xmlns="http://www.w3.org/2000/svg">
<g id="Group 2192">
<path id="Vector 283" d="M0.0683594 13.8867C0.0683594 14.1629 0.292217 14.3867 0.568359 14.3867C0.844502 14.3867 1.06836 14.1629 1.06836 13.8867H0.0683594ZM15.2143 4.67704C15.4095 4.48178 15.4095 4.1652 15.2143 3.96993L12.0323 0.787952C11.837 0.59269 11.5204 0.59269 11.3252 0.787952C11.1299 0.983215 11.1299 1.2998 11.3252 1.49506L14.1536 4.32349L11.3252 7.15191C11.1299 7.34718 11.1299 7.66376 11.3252 7.85902C11.5204 8.05428 11.837 8.05428 12.0323 7.85902L15.2143 4.67704ZM1.06836 13.8867V9.32349H0.0683594V13.8867H1.06836ZM5.56836 4.82349H14.8607V3.82349H5.56836V4.82349ZM1.06836 9.32349C1.06836 6.83821 3.08308 4.82349 5.56836 4.82349V3.82349C2.53079 3.82349 0.0683594 6.28592 0.0683594 9.32349H1.06836Z" fill="#13A9EA"/>
<path id="Vector 284" d="M18.7554 6.45581C18.7554 6.17967 18.5315 5.95581 18.2554 5.95581C17.9792 5.95581 17.7554 6.17967 17.7554 6.45581L18.7554 6.45581ZM3.60947 15.6655C3.41421 15.8607 3.41421 16.1773 3.60947 16.3726L6.79145 19.5546C6.98671 19.7498 7.3033 19.7498 7.49856 19.5546C7.69382 19.3593 7.69382 19.0427 7.49856 18.8475L4.67013 16.019L7.49856 13.1906C7.69382 12.9954 7.69382 12.6788 7.49856 12.4835C7.3033 12.2882 6.98671 12.2882 6.79145 12.4835L3.60947 15.6655ZM17.7554 6.45581L17.7554 11.019L18.7554 11.019L18.7554 6.45581L17.7554 6.45581ZM13.2554 15.519L3.96303 15.519L3.96303 16.519L13.2554 16.519L13.2554 15.519ZM17.7554 11.019C17.7554 13.5043 15.7407 15.519 13.2554 15.519L13.2554 16.519C16.2929 16.519 18.7554 14.0566 18.7554 11.019L17.7554 11.019Z" fill="#13A9EA"/>
</g>
</svg>
