<svg width="215" height="86" viewBox="0 0 215 86" fill="none" xmlns="http://www.w3.org/2000/svg">
<path d="M214.191 44.7539C214.516 44.7539 214.777 45.0147 214.712 45.3407L213.473 53.4897C213.473 53.7504 213.278 53.946 213.017 54.0112C211.778 54.0764 208.649 54.2068 207.671 54.2068C207.606 54.2068 207.541 54.2068 207.476 54.2068C201.674 53.946 198.544 50.9472 198.544 45.5362V28.9774C198.544 28.7167 198.284 28.4559 198.023 28.4559H194.437C194.111 28.4559 193.916 28.1951 193.916 27.8692V19.7201C193.916 19.4594 194.111 19.1986 194.437 19.1986H198.023C198.284 19.1986 198.544 18.9378 198.544 18.6119V9.15902C198.544 8.89825 198.805 8.63748 199.131 8.63748H208.714C209.04 8.63748 209.301 8.89825 209.301 9.15902V18.6119C209.301 18.9378 209.562 19.1986 209.823 19.1986H213.408C213.734 19.1986 213.995 19.4594 213.995 19.7201V27.8692C213.995 28.1951 213.734 28.4559 213.408 28.4559H209.823C209.562 28.4559 209.301 28.7167 209.301 28.9774C209.301 31.8459 209.301 40.3209 209.301 40.3861V40.6468C209.236 41.6899 209.171 43.1241 210.018 43.9716C210.54 44.4932 211.322 44.7539 212.3 44.7539H214.191Z" fill="white"/>
<path d="M168.444 14.5269C178.013 11.2784 188.39 16.2923 191.596 25.7372C194.782 35.1204 189.624 45.4776 180.055 48.7261C170.487 51.9746 160.151 46.878 156.965 37.4948C153.758 28.0499 158.876 17.7754 168.444 14.5269ZM176.786 39.096C180.984 37.6708 183.226 33.1229 181.843 29.0486C180.439 24.9126 175.912 22.7318 171.714 24.157C167.578 25.5612 165.314 30.0474 166.719 34.1834C168.102 38.2577 172.65 40.5002 176.786 39.096Z" fill="white"/>
<path d="M138.106 19.6547C147.674 16.4061 158.051 21.4201 161.258 30.865C164.443 40.2481 159.285 50.6053 149.716 53.8538C140.148 57.1024 129.812 52.0057 126.626 42.6226C123.42 33.1777 128.537 22.9032 138.106 19.6547ZM146.447 44.2237C150.645 42.7986 152.887 38.2506 151.504 34.1764C150.1 30.0404 145.573 27.8596 141.375 29.2848C137.239 30.689 134.976 35.1752 136.38 39.3112C137.763 43.3854 142.311 45.628 146.447 44.2237Z" fill="white"/>
<path d="M122.462 17.0477C121.549 17.0477 120.832 17.3084 120.31 17.83C119.463 18.6775 119.463 20.2421 119.463 21.4155C119.463 21.6763 119.724 21.9371 119.985 21.9371H123.57C123.896 21.9371 124.157 22.1979 124.157 22.4586V30.6076C124.157 30.9336 123.896 31.1944 123.57 31.1944H119.985C119.724 31.1944 119.463 31.3899 119.463 31.7159V53.1641C119.463 53.4249 119.202 53.6857 118.876 53.6857H109.293C108.967 53.6857 108.706 53.4249 108.706 53.1641V51.2735V31.7159C108.706 31.3899 108.446 31.1944 108.185 31.1944H104.599C104.273 31.1944 104.078 30.9336 104.078 30.6076V22.4586C104.078 22.1979 104.273 21.9371 104.599 21.9371H108.185C108.446 21.9371 108.706 21.6763 108.706 21.4155V17.3084C108.706 9.68096 114.965 8.5075 117.638 8.37712C118.42 8.31193 118.876 8.37712 118.941 8.37712H124.352C124.678 8.37712 124.939 8.63789 124.939 8.96385L124.157 16.5913C124.157 16.8521 123.896 17.0477 123.635 17.0477H122.462Z" fill="white"/>
<path d="M101.624 44.7539C101.95 44.7539 102.211 45.0147 102.145 45.3407L100.907 53.4897C100.907 53.7504 100.711 53.946 100.45 54.0112C99.2118 54.0764 96.0825 54.2068 95.1047 54.2068C95.0395 54.2068 94.9743 54.2068 94.9091 54.2068C89.107 53.946 85.9778 50.9472 85.9778 45.5362V28.9774C85.9778 28.7167 85.717 28.4559 85.4562 28.4559H81.8707C81.5447 28.4559 81.3491 28.1951 81.3491 27.8692V19.7201C81.3491 19.4594 81.5447 19.1986 81.8707 19.1986H85.4562C85.717 19.1986 85.9778 18.9378 85.9778 18.6119V9.15902C85.9778 8.89825 86.2385 8.63748 86.5645 8.63748H96.1477C96.4737 8.63748 96.7345 8.89825 96.7345 9.15902V18.6119C96.7345 18.9378 96.9952 19.1986 97.256 19.1986H100.842C101.168 19.1986 101.428 19.4594 101.428 19.7201V27.8692C101.428 28.1951 101.168 28.4559 100.842 28.4559H97.256C96.9952 28.4559 96.7345 28.7167 96.7345 28.9774C96.7345 31.8459 96.7345 40.3209 96.7345 40.3861V40.6468C96.6693 41.6899 96.6041 43.1241 97.4516 43.9716C97.9731 44.4932 98.7554 44.7539 99.7333 44.7539H101.624Z" fill="white"/>
<path d="M78.4435 19.1991C78.7695 19.1991 79.0303 19.4599 79.0303 19.7858V53.1642C79.0303 53.425 78.7695 53.6857 78.4435 53.6857H68.8603C68.5343 53.6857 68.2736 53.425 68.2736 53.1642V52.1863C68.2736 51.9907 68.0128 51.8604 67.8824 51.9907C65.4703 53.6205 63.0582 54.2073 60.9069 54.2073C56.1478 54.2073 52.4971 51.404 52.4319 51.3388C52.1711 51.1432 51.9103 50.8825 51.7148 50.6217H51.6496C48.1944 47.1013 47.6077 44.2329 47.6077 39.1479V19.7858C47.6077 19.4599 47.8032 19.1991 48.1292 19.1991H58.4296C58.6903 19.1991 58.9511 19.4599 58.9511 19.7858V38.6264C58.9511 39.9302 59.0163 41.3644 59.5378 42.5379C59.7986 43.0594 60.1246 43.4506 60.5157 43.7765C61.1676 44.2981 62.0151 44.5588 63.0582 44.5588C65.0792 44.5588 66.5786 43.8417 67.1001 42.7335C67.6217 41.56 67.6217 39.9302 67.6217 38.6264V19.7858C67.6217 19.4599 67.8824 19.1991 68.2084 19.1991H78.4435Z" fill="white"/>
<path d="M27.9581 18.6775C38.0629 18.6775 46.2771 26.7613 46.2771 36.7357C46.2771 46.6449 38.0629 54.7939 27.9581 54.7939C17.8534 54.7939 9.70435 46.6449 9.70435 36.7357C9.70435 26.7613 17.8534 18.6775 27.9581 18.6775ZM27.9581 44.624C32.3912 44.624 35.9768 41.0384 35.9768 36.7357C35.9768 32.3678 32.3912 28.8475 27.9581 28.8475C23.5903 28.8475 20.0047 32.3678 20.0047 36.7357C20.0047 41.0384 23.5903 44.624 27.9581 44.624Z" fill="white"/>
<circle cx="4.936" cy="14.4882" r="4.71115" fill="#FFEAA5"/>
<circle cx="18.3706" cy="4.97616" r="4.71115" fill="#FFEAA5"/>
<circle cx="34.697" cy="4.97616" r="4.71115" fill="#FFEAA5"/>
<path d="M174.422 71.4543V72.6173C174.422 73.755 174.422 75.0612 174.102 76.7636H176.125V78.2805H170.074V80.657H174.456V86H172.585V82.1571H163.618V80.657H168.203V78.2805H162.203V76.7636H172.214C172.518 75.2045 172.551 74.0162 172.551 72.9544H163.922V71.4543H174.422Z" fill="white"/>
<path d="M153.092 75.0949C153.092 77.4546 154.491 80.1345 156.902 81.2469L155.857 82.7301C154.137 81.9211 152.865 80.2862 152.182 78.3816C151.491 80.4716 150.16 82.2582 148.407 83.1009L147.311 81.6345C149.738 80.4884 151.205 77.6231 151.222 75.0949V73.8139H147.901V72.2633H156.278V73.8139H153.092V75.0949ZM159.565 70.7632V76.6961H161.908V78.2636H159.565V85.9999H157.694V70.7632H159.565Z" fill="white"/>
<path d="M135.437 71.4374V73.3757H138.993V71.4374H140.847V78.0782H133.583V71.4374H135.437ZM135.437 76.595H138.993V74.7915H135.437V76.595ZM145.078 70.7632V73.8476H147.202V75.3646H145.078V78.567H143.207V70.7632H145.078ZM145.078 79.1738V83.1683H136.988V84.3819H145.55V85.8651H135.134V81.8031H143.207V80.6401H135.117V79.1738H145.078Z" fill="white"/>
<path d="M127.076 75.078V76.5612H116.525V71.3194H118.379V75.078H127.076ZM128.644 78.331V79.8142H114.722V78.331H128.644ZM127.177 84.129V85.6459H116.39V81.1626H118.261V84.129H127.177Z" fill="white"/>
<path d="M112.538 77.9096V79.4097H101.852V72.0947H112.42V73.6117H103.706V77.9096H112.538ZM114.089 82.511V84.0616H100.167V82.511H114.089Z" fill="white"/>
<path d="M93.332 72.0779V79.2749H86.1182V72.0779H93.332ZM87.9553 73.578V77.7917H91.4948V73.578H87.9553ZM97.6131 70.7632V75.2297H99.7368V76.7972H97.6131V81.8874H95.7422V70.7632H97.6131ZM98.2199 84.1796V85.6966H87.8542V80.8087H89.7251V84.1796H98.2199Z" fill="white"/>
<path d="M81.1789 77.6737V79.0895H67.2568V77.6737H81.1789ZM79.4934 79.9997V83.4718H70.7626V84.5336H79.9485V85.8315H68.8918V82.2582H77.6394V81.3144H68.8749V79.9997H79.4934ZM79.4597 71.1004V74.5387H70.8806V75.5332H79.7294V76.8141H69.0266V73.3252H77.5888V72.3982H68.976V71.1004H79.4597Z" fill="white"/>
<path d="M64.7537 70.7632V77.05H66.8942V78.6175H64.7537V85.9999H62.8659V70.7632H64.7537ZM52.5171 81.7694C53.6716 81.7694 55.0116 81.7694 56.4105 81.7357V80.303C54.7503 80.0249 53.6632 78.9799 53.6801 77.5557C53.6632 75.8365 55.1801 74.6904 57.3713 74.6904C59.5287 74.6904 61.0625 75.8365 61.0793 77.5557C61.0625 78.9883 59.9585 80.0333 58.2983 80.303V81.6683C59.5792 81.6008 60.8602 81.4997 62.0569 81.3312L62.1749 82.6964C58.9051 83.2863 55.3824 83.32 52.7868 83.32L52.5171 81.7694ZM61.8884 72.5161V73.9993H52.8036V72.5161H56.4105V70.8306H58.2983V72.5161H61.8884ZM57.3713 76.123C56.2083 76.1399 55.4498 76.6624 55.4498 77.5557C55.4498 78.4321 56.2083 78.9546 57.3713 78.9378C58.5174 78.9546 59.2759 78.4321 59.2759 77.5557C59.2759 76.6624 58.5174 76.1399 57.3713 76.123Z" fill="white"/>
<path d="M50.8903 70.7802V82.0223H49.0194V78.1963H45.9518V79.5447H38.8223V71.7746H40.6931V74.2354H44.0978V71.7746H45.9518V73.4095H49.0194V70.7802H50.8903ZM51.2274 84.1797V85.6967H40.8448V80.9099H42.7494V84.1797H51.2274ZM40.6931 78.0614H44.0978V75.6849H40.6931V78.0614ZM45.9518 76.6794H49.0194V74.9265H45.9518V76.6794Z" fill="white"/>
</svg>
