<svg width="148" height="42" viewBox="0 0 148 42" fill="none" xmlns="http://www.w3.org/2000/svg">
<path d="M61 39C73.9672 35.5545 108.921 28.7325 145 29.0081" stroke="#FFEAA5" stroke-width="2" stroke-linecap="round" stroke-dasharray="5 5"/>
<path d="M93 41C98.9226 38.9123 118.014 34.5895 147 34" stroke="#FFEAA5" stroke-width="2" stroke-linecap="round" stroke-dasharray="5 5"/>
<path d="M136.668 27.9843C136.872 27.9843 137.034 28.1502 136.994 28.3577L136.22 33.5436C136.22 33.7096 136.098 33.8341 135.935 33.8755C135.161 33.917 133.206 34 132.595 34C132.554 34 132.513 34 132.472 34C128.847 33.834 126.892 31.9256 126.892 28.4821V17.9442C126.892 17.7783 126.729 17.6123 126.566 17.6123H124.326C124.122 17.6123 124 17.4464 124 17.2389V12.0529C124 11.887 124.122 11.721 124.326 11.721H126.566C126.729 11.721 126.892 11.5551 126.892 11.3476V5.3319C126.892 5.16595 127.055 5 127.259 5H133.246C133.45 5 133.613 5.16595 133.613 5.3319V11.3476C133.613 11.5551 133.776 11.721 133.939 11.721H136.179C136.383 11.721 136.546 11.887 136.546 12.0529V17.2389C136.546 17.4464 136.383 17.6123 136.179 17.6123H133.939C133.776 17.6123 133.613 17.7783 133.613 17.9442C133.613 19.7697 133.613 25.1631 133.613 25.2046V25.3705C133.572 26.0343 133.531 26.9471 134.061 27.4864C134.387 27.8183 134.876 27.9843 135.487 27.9843H136.668Z" fill="#5B411C"/>
<path d="M106.864 9.29202C112.878 7.2394 119.414 10.4482 121.447 16.4662C123.466 22.445 120.237 29.0303 114.223 31.0829C108.209 33.1355 101.699 29.8741 99.6796 23.8954C97.6472 17.8774 100.85 11.3447 106.864 9.29202ZM112.151 24.9468C114.79 24.0463 116.193 21.1546 115.316 18.5586C114.426 15.9232 111.575 14.5276 108.936 15.4281C106.337 16.3153 104.92 19.1677 105.81 21.8031C106.687 24.3991 109.551 25.8341 112.151 24.9468Z" fill="#5B411C"/>
<path d="M87.8642 12.292C93.8782 10.2394 100.414 13.4482 102.447 19.4662C104.466 25.445 101.237 32.0303 95.2234 34.0829C89.2093 36.1355 82.6988 32.8741 80.6796 26.8954C78.6472 20.8774 81.8501 14.3447 87.8642 12.292ZM93.1511 27.9468C95.7896 27.0463 97.193 24.1546 96.3162 21.5586C95.4262 18.9232 92.5749 17.5276 89.9364 18.4281C87.3368 19.3153 85.9201 22.1677 86.8101 24.8031C87.6868 27.3991 90.5515 28.8341 93.1511 27.9468Z" fill="#5B411C"/>
<path d="M77.4562 10.5646C76.8875 10.5646 76.4406 10.7314 76.1156 11.065C75.5875 11.6071 75.5875 12.6079 75.5875 13.3585C75.5875 13.5253 75.75 13.6921 75.9125 13.6921H78.1469C78.35 13.6921 78.5125 13.8589 78.5125 14.0257V19.2382C78.5125 19.4467 78.35 19.6135 78.1469 19.6135H75.9125C75.75 19.6135 75.5875 19.7386 75.5875 19.9471V33.6664C75.5875 33.8332 75.425 34 75.2219 34H69.25C69.0469 34 68.8844 33.8332 68.8844 33.6664V32.4571V19.9471C68.8844 19.7386 68.7219 19.6135 68.5594 19.6135H66.325C66.1219 19.6135 66 19.4467 66 19.2382V14.0257C66 13.8589 66.1219 13.6921 66.325 13.6921H68.5594C68.7219 13.6921 68.8844 13.5253 68.8844 13.3585V10.7314C68.8844 5.85253 72.7844 5.10193 74.45 5.01853C74.9375 4.97683 75.2219 5.01853 75.2625 5.01853H78.6344C78.8375 5.01853 79 5.18533 79 5.39383L78.5125 10.2727C78.5125 10.4395 78.35 10.5646 78.1875 10.5646H77.4562Z" fill="#5B411C"/>
<path d="M64.6679 27.9843C64.8715 27.9843 65.0344 28.1502 64.9937 28.3577L64.2198 33.5436C64.2198 33.7096 64.0976 33.8341 63.9347 33.8755C63.1608 33.917 61.2056 34 60.5946 34C60.5539 34 60.5131 34 60.4724 34C56.8472 33.834 54.892 31.9256 54.892 28.4821V17.9442C54.892 17.7783 54.7291 17.6123 54.5662 17.6123H52.3259C52.1222 17.6123 52 17.4464 52 17.2389V12.0529C52 11.887 52.1222 11.721 52.3259 11.721H54.5662C54.7291 11.721 54.892 11.5551 54.892 11.3476V5.3319C54.892 5.16595 55.0549 5 55.2586 5H61.2463C61.45 5 61.6129 5.16595 61.6129 5.3319V11.3476C61.6129 11.5551 61.7758 11.721 61.9388 11.721H64.1791C64.3827 11.721 64.5457 11.887 64.5457 12.0529V17.2389C64.5457 17.4464 64.3827 17.6123 64.1791 17.6123H61.9388C61.7758 17.6123 61.6129 17.7783 61.6129 17.9442C61.6129 19.7697 61.6129 25.1631 61.6129 25.2046V25.3705C61.5722 26.0343 61.5314 26.9471 62.061 27.4864C62.3868 27.8183 62.8756 27.9843 63.4866 27.9843H64.6679Z" fill="#5B411C"/>
<path d="M49.6266 12C49.834 12 50 12.1639 50 12.3687V33.3445C50 33.5084 49.834 33.6723 49.6266 33.6723H43.527C43.3195 33.6723 43.1535 33.5084 43.1535 33.3445V32.73C43.1535 32.6071 42.9876 32.5251 42.9046 32.6071C41.3693 33.6313 39.834 34 38.4647 34C35.4357 34 33.112 32.2384 33.0705 32.1974C32.9046 32.0745 32.7386 31.9106 32.6141 31.7467H32.5726C30.3734 29.5345 30 27.7318 30 24.5363V12.3687C30 12.1639 30.1245 12 30.3319 12H36.888C37.0539 12 37.2199 12.1639 37.2199 12.3687V24.2086C37.2199 25.0279 37.2614 25.9292 37.5934 26.6667C37.7593 26.9944 37.9668 27.2402 38.2158 27.4451C38.6307 27.7728 39.1701 27.9367 39.834 27.9367C41.1203 27.9367 42.0747 27.486 42.4066 26.7896C42.7386 26.0521 42.7386 25.0279 42.7386 24.2086V12.3687C42.7386 12.1639 42.9046 12 43.112 12H49.6266Z" fill="#5B411C"/>
<path d="M17.4795 12C23.8342 12 29 17.148 29 23.5C29 29.8105 23.8342 35 17.4795 35C11.1248 35 6 29.8105 6 23.5C6 17.148 11.1248 12 17.4795 12ZM17.4795 28.5235C20.2674 28.5235 22.5223 26.2401 22.5223 23.5C22.5223 20.7184 20.2674 18.4765 17.4795 18.4765C14.7326 18.4765 12.4777 20.7184 12.4777 23.5C12.4777 26.2401 14.7326 28.5235 17.4795 28.5235Z" fill="#5B411C"/>
<circle cx="3" cy="9" r="3" fill="#FFEAA5"/>
<circle cx="12" cy="3" r="3" fill="#FFEAA5"/>
<circle cx="22" cy="3" r="3" fill="#FFEAA5"/>
</svg>
