<?xml version="1.0" standalone="no"?>
<!DOCTYPE svg PUBLIC "-//W3C//DTD SVG 20010904//EN"
 "http://www.w3.org/TR/2001/REC-SVG-20010904/DTD/svg10.dtd">
<svg version="1.0" xmlns="http://www.w3.org/2000/svg"
 width="625.000000pt" height="732.000000pt" viewBox="0 0 625.000000 732.000000"
 preserveAspectRatio="xMidYMid meet">

<g transform="translate(0.000000,732.000000) scale(0.100000,-0.100000)"
fill="#000000" stroke="none">
<path d="M2326 7118 c-4 -106 -12 -200 -17 -210 -5 -10 -24 -24 -42 -31 -45
-19 -264 0 -622 52 -332 48 -494 68 -950 115 -236 25 -288 30 -332 30 -23 0
-40 2 -38 5 2 3 -18 6 -43 6 -26 1 -100 4 -164 9 l-118 7 0 -218 0 -219 83 -2
c270 -8 1025 -81 1357 -132 74 -11 162 -25 195 -30 33 -5 123 -20 200 -33 77
-14 199 -32 270 -42 155 -19 183 -29 192 -63 3 -14 3 -147 -1 -296 l-6 -270
-26 -27 c-25 -26 -28 -27 -133 -24 -100 3 -299 22 -312 31 -3 2 -65 12 -137
24 -71 11 -136 22 -144 25 -16 6 -530 81 -613 90 -33 3 -71 8 -85 11 -29 7
-378 42 -525 54 -55 4 -116 10 -135 14 -19 3 -68 8 -108 11 l-72 5 0 -203 0
-203 198 -12 c500 -30 1191 -125 1632 -222 99 -22 261 -49 338 -56 61 -5 100
-26 108 -58 3 -12 4 -76 2 -142 l-3 -119 60 0 c33 0 76 -4 95 -8 19 -5 30 -5
24 0 -14 10 -29 93 -17 93 11 0 11 3 22 166 5 72 14 149 20 171 6 21 11 59 12
84 0 24 1 67 1 94 1 28 1 102 0 165 -1 63 0 133 3 155 2 22 9 191 15 375 6
184 13 358 15 385 12 138 33 617 28 628 -3 4 -53 7 -112 7 l-108 0 -7 -192z"/>
<path d="M4950 6095 c0 -7 108 -164 128 -187 8 -10 27 -18 43 -18 21 0 39 -14
81 -62 29 -35 62 -72 73 -84 44 -46 83 -92 128 -151 45 -58 49 -62 72 -51 22
10 29 8 50 -12 l25 -24 31 30 c38 35 79 118 79 160 0 46 -25 110 -62 156 -54
68 -199 152 -338 194 -104 32 -310 64 -310 49z"/>
<path d="M4476 6061 c-6 -9 112 -218 144 -256 19 -22 80 -151 80 -169 0 -21
71 -87 88 -82 31 9 236 35 335 42 113 8 153 30 113 63 -11 9 -15 7 -20 -11 -6
-22 -7 -21 -21 10 -14 33 -68 114 -93 140 -7 8 -19 27 -28 44 -12 24 -21 29
-40 25 -25 -4 -41 6 -68 44 -14 21 -15 21 -153 4 -141 -18 -166 -26 -145 -47
8 -8 33 -8 99 1 48 7 111 13 138 14 48 2 50 1 53 -27 3 -26 2 -28 -11 -18 -12
10 -16 10 -19 0 -3 -9 -35 -13 -112 -14 -99 -1 -110 -3 -125 -23 l-16 -22 -36
48 c-20 27 -60 92 -90 145 -53 96 -62 107 -73 89z m493 -378 c19 -18 39 -33
43 -33 15 0 8 -28 -9 -34 -10 -4 -49 -12 -88 -17 -38 -6 -84 -13 -102 -16 -28
-5 -33 -1 -58 41 -31 54 -27 81 11 73 14 -2 51 3 82 13 65 20 73 18 121 -27z"/>
<path d="M4400 6009 c-19 -15 -39 -29 -43 -29 -11 0 -87 -62 -87 -70 0 -4 -12
-29 -27 -56 -15 -26 -28 -55 -30 -64 -1 -8 -5 -30 -9 -47 -7 -38 4 -42 31 -13
33 37 48 25 25 -21 -13 -24 -18 -48 -14 -57 4 -10 6 -21 5 -25 -1 -5 8 -11 19
-14 11 -3 20 -11 20 -18 0 -8 7 -20 15 -29 9 -8 16 -19 17 -23 5 -47 65 -86
208 -137 41 -15 81 -29 89 -32 8 -2 11 -7 8 -10 -8 -9 -165 36 -232 66 -88 39
-164 91 -213 144 -43 47 -81 116 -82 147 0 9 -7 22 -15 29 -15 12 -15 55 -1
79 7 10 4 10 -12 0 -21 -13 -27 -59 -9 -71 8 -4 5 -14 -8 -29 -14 -16 -16 -23
-8 -26 8 -3 11 -14 7 -28 -4 -16 1 -30 16 -45 14 -14 19 -28 15 -41 -7 -21
-22 -24 -58 -10 -22 9 -24 7 -23 -20 1 -16 4 -29 8 -29 4 0 5 -14 1 -30 -9
-46 -32 -107 -33 -90 -1 8 -6 2 -10 -14 -11 -37 1 -61 39 -74 29 -10 30 -12
24 -65 -6 -56 8 -233 15 -185 3 22 6 25 17 15 7 -6 11 -16 8 -20 -4 -7 -9
-113 -17 -357 0 -14 -5 -28 -10 -32 -5 -4 -4 -18 4 -38 9 -22 10 -37 2 -54 -6
-15 -7 -39 -1 -71 5 -26 6 -59 3 -74 -15 -64 -16 -91 -4 -91 9 0 10 -3 1 -13
-6 -8 -8 -17 -4 -21 4 -4 0 -4 -10 0 -33 12 -17 -7 18 -22 25 -10 41 -12 53
-5 16 9 16 10 0 16 -11 4 -15 12 -10 19 4 6 7 103 8 216 1 204 12 479 20 492
3 4 -12 26 -33 48 -28 32 -37 50 -36 76 1 40 21 94 35 94 5 0 37 -24 71 -53
34 -29 79 -63 100 -76 20 -12 37 -25 37 -27 0 -3 -6 -20 -14 -39 -8 -18 -13
-45 -12 -59 2 -14 -1 -26 -5 -26 -5 0 -9 -7 -9 -15 0 -22 120 -73 250 -106
171 -43 162 -45 158 52 l-3 82 80 -9 c116 -13 377 -6 443 11 122 32 330 125
280 125 -10 0 -18 -4 -18 -9 0 -4 -18 -8 -41 -8 -23 0 -44 -4 -48 -9 -3 -5
-19 -10 -36 -11 -26 -1 -22 2 27 27 31 17 59 39 63 50 4 11 23 29 43 40 57 30
72 43 42 35 -24 -7 -24 -7 -5 9 11 8 25 16 31 16 11 0 25 34 29 72 1 13 -2 15
-17 7 -10 -6 -15 -15 -12 -21 4 -6 3 -8 -4 -4 -6 3 -13 2 -17 -4 -4 -6 -12 -6
-24 2 -13 8 -47 7 -137 -5 -387 -52 -375 -52 -466 -28 -151 40 -147 38 -175
97 -14 30 -28 54 -31 54 -2 0 -10 -7 -16 -15 -9 -12 -17 -1 -46 62 -64 145
-121 263 -131 268 -11 7 -12 35 -1 35 9 0 92 -114 92 -127 1 -15 119 -98 127
-89 6 6 -19 86 -27 86 -4 0 -19 24 -35 53 -65 122 -188 338 -194 341 -3 2 -22
-9 -41 -25z"/>
<path d="M5754 5700 c2 -30 -2 -86 -10 -123 -8 -38 -14 -71 -14 -75 0 -12 62
53 76 80 9 18 12 42 7 75 l-6 48 -13 -30 -13 -30 -1 36 c0 19 -7 44 -15 55
-14 18 -15 15 -11 -36z"/>
<path d="M4220 5636 c0 -8 4 -17 9 -21 6 -3 9 4 8 15 -1 23 -17 28 -17 6z"/>
<path d="M3856 5431 c-13 -14 -15 -24 -8 -38 21 -39 23 -211 2 -198 -5 3 -6
14 -3 26 5 19 -9 38 -29 39 -16 0 -7 -19 10 -23 10 -3 5 -5 -12 -6 -24 -1 -27
-3 -16 -16 11 -13 8 -15 -14 -15 -24 0 -35 13 -18 23 4 2 1 2 -5 1 -13 -3 -19
14 -26 71 -3 22 -4 19 -6 -13 -3 -89 64 -182 131 -182 68 0 128 75 128 160 0
16 -14 40 -35 63 -20 22 -39 55 -46 82 -12 49 -26 56 -53 26z m-51 -251 c3 -5
-1 -10 -10 -10 -9 0 -13 5 -10 10 3 6 8 10 10 10 2 0 7 -4 10 -10z"/>
<path d="M3838 5350 c-3 -16 -1 -30 4 -30 4 0 8 14 8 30 0 17 -2 30 -4 30 -2
0 -6 -13 -8 -30z"/>
<path d="M3800 5360 c0 -5 4 -10 9 -10 6 0 13 5 16 10 3 6 -1 10 -9 10 -9 0
-16 -4 -16 -10z"/>
<path d="M3841 5294 c0 -11 3 -14 6 -6 3 7 2 16 -1 19 -3 4 -6 -2 -5 -13z"/>
<path d="M5510 5130 c-9 -6 -10 -10 -3 -10 6 0 15 5 18 10 8 12 4 12 -15 0z"/>
<path d="M3245 5035 c-49 -19 -98 -39 -107 -44 -12 -7 -18 -7 -21 2 -3 9 -39
12 -128 11 -138 -1 -249 -25 -409 -89 -46 -19 -86 -32 -88 -30 -5 5 50 28 158
66 46 17 91 36 100 43 8 8 24 16 35 19 16 4 15 5 -5 5 -14 1 -101 -14 -195
-32 -125 -25 -176 -31 -196 -24 -16 5 -86 6 -172 1 -95 -5 -179 -4 -242 3 -54
6 -106 9 -115 7 -21 -6 -255 29 -370 55 -46 10 -121 16 -195 17 -109 0 -125
-3 -175 -26 -30 -14 -62 -34 -70 -44 -8 -10 -10 -16 -4 -12 18 11 208 -47 442
-134 233 -88 403 -140 526 -160 42 -7 75 -17 74 -21 -2 -4 -45 -44 -97 -88
-65 -56 -101 -80 -120 -80 -14 0 -31 -4 -37 -8 -24 -16 -99 -141 -134 -222
-44 -103 -53 -135 -45 -161 9 -27 22 -24 33 9 10 27 10 26 11 -10 1 -21 1 -41
0 -44 0 -4 5 -11 13 -16 9 -7 10 -11 2 -14 -7 -3 -10 -15 -8 -27 3 -16 0 -14
-11 8 l-15 30 6 -45 c8 -58 13 -65 31 -43 13 16 13 16 3 -6 -11 -21 -8 -27 25
-61 21 -21 60 -47 89 -58 35 -14 44 -21 28 -21 -13 -1 -33 4 -45 10 -19 11
-19 10 4 -18 13 -17 27 -29 31 -26 4 2 5 -2 2 -10 -4 -12 9 -13 73 -9 43 2
112 10 153 17 41 7 109 12 150 11 64 -1 81 -6 116 -29 42 -28 89 -98 81 -120
-2 -6 -11 4 -19 23 -32 76 -122 126 -208 116 -30 -4 -139 -17 -242 -29 -104
-13 -188 -20 -188 -16 0 18 -67 28 -190 27 -96 -1 -153 4 -197 15 -35 9 -69
14 -78 11 -9 -4 -15 -1 -15 7 0 11 -2 11 -9 0 -7 -11 -13 -12 -23 -4 -7 5 -37
18 -65 28 -29 11 -53 22 -53 26 0 4 -9 11 -20 14 -62 20 -198 170 -253 280
-31 62 -75 235 -80 313 0 6 -5 12 -10 12 -17 0 -1 209 23 295 12 44 23 85 24
90 1 6 10 25 20 44 20 37 10 59 -21 46 -35 -15 -104 -17 -120 -3 -14 11 -15
10 -9 -10 5 -13 3 -22 -3 -22 -6 0 -14 12 -17 26 l-7 26 -27 -32 c-67 -79
-133 -254 -152 -407 -47 -386 140 -759 476 -947 96 -54 262 -110 401 -136 102
-19 145 -22 292 -18 l172 3 46 33 c38 27 59 33 119 38 71 6 72 6 97 -23 39
-46 140 -110 205 -129 76 -22 236 -22 322 0 97 25 90 33 84 -114 -3 -89 -1
-134 7 -143 8 -11 8 -22 0 -46 -6 -18 -9 -50 -6 -72 3 -22 8 -212 11 -424 5
-286 10 -398 21 -440 17 -62 55 -144 91 -192 19 -24 25 -49 29 -105 3 -40 10
-120 15 -178 14 -153 20 -298 13 -332 -5 -26 -7 -27 -19 -11 -8 11 -13 13 -14
6 0 -7 -11 -13 -25 -13 -14 0 -25 -4 -25 -10 0 -5 -7 -10 -15 -10 -8 0 -23 -4
-33 -9 -85 -46 -108 -51 -229 -51 -95 0 -125 -3 -137 -15 -19 -19 -36 -19 -36
0 0 21 -141 25 -148 4 -5 -12 -42 -11 -42 1 0 6 7 10 16 10 11 0 14 8 12 32
-2 25 -11 36 -33 48 -23 11 -30 22 -30 43 1 15 -2 27 -6 27 -4 0 -9 10 -11 22
-2 12 -22 36 -45 53 -23 16 -42 34 -42 39 -1 4 -12 17 -25 27 -43 33 -42 130
0 226 8 17 14 51 15 75 0 33 2 38 9 23 5 -11 9 -14 11 -7 2 18 4 24 17 55 7
16 12 33 12 38 0 5 5 9 11 9 8 0 8 4 0 14 -10 11 -6 19 15 40 l28 25 -20 43
c-23 52 -95 160 -110 165 -6 2 -19 -12 -30 -32 -22 -42 -36 -44 -60 -8 -13 21
-17 45 -16 96 2 53 -1 69 -13 74 -19 6 -44 -22 -45 -52 -1 -16 -4 -14 -12 8
-5 15 -17 27 -25 27 -9 0 -13 -6 -10 -14 5 -14 -10 -36 -25 -36 -4 0 -8 16 -8
35 0 22 -8 43 -20 55 -13 13 -20 34 -20 58 0 20 -9 55 -19 77 l-18 40 -7 -35
c-4 -19 -13 -49 -19 -67 l-11 -32 -13 26 c-16 32 -17 53 0 53 8 0 9 3 1 8 -6
4 -14 39 -17 77 -9 90 -22 138 -48 167 -19 21 -20 21 -16 3 3 -11 11 -34 18
-51 10 -26 10 -38 -1 -63 l-13 -32 -18 28 c-11 15 -19 35 -19 45 0 9 -15 45
-33 80 -28 56 -32 60 -35 36 -2 -15 2 -36 7 -47 8 -14 8 -22 1 -26 -13 -8 -40
12 -40 29 0 17 -79 98 -126 129 -41 28 -80 28 -70 1 6 -15 -25 -6 -63 18 -17
10 -23 9 -39 -5 -10 -9 -24 -17 -30 -17 -6 0 -36 -20 -66 -45 -31 -25 -64 -45
-74 -45 -20 0 -62 -50 -62 -75 0 -9 12 -18 30 -21 31 -7 42 -24 15 -24 -48 0
-9 -87 77 -169 31 -30 128 -217 128 -247 0 -11 5 -25 10 -30 6 -6 13 -28 15
-50 2 -21 8 -59 13 -83 11 -48 6 -75 -11 -64 -5 3 -7 1 -3 -5 13 -21 -18 -25
-35 -4 -10 13 -23 20 -33 16 -13 -5 -15 1 -12 36 3 37 1 41 -18 38 -13 -2 -22
-12 -24 -25 -2 -13 -7 -23 -12 -23 -4 0 -11 -16 -14 -36 -4 -21 -12 -34 -19
-31 -19 6 -19 33 0 53 19 18 27 117 16 177 -5 26 -7 27 -24 11 -10 -9 -15 -21
-13 -28 3 -7 -2 -19 -11 -26 -8 -7 -16 -9 -16 -4 -5 33 -4 64 3 64 4 0 4 10
-1 23 -5 13 -12 49 -16 80 -4 32 -11 60 -16 63 -5 3 -9 2 -10 -3 -1 -10 -9
-123 -10 -143 -1 -8 -5 -30 -11 -48 -16 -54 -30 -24 -33 74 -3 99 -19 154 -37
136 -11 -11 -14 -29 -16 -115 -2 -34 -6 -47 -14 -45 -16 6 -36 71 -37 118 -1
20 -7 44 -14 55 -7 11 -19 36 -26 55 -29 78 -36 87 -72 108 -44 26 -89 31 -70
8 6 -8 25 -19 41 -26 35 -14 68 -66 76 -119 7 -42 -6 -60 -26 -36 -7 8 -19 15
-26 15 -8 0 -14 4 -14 9 0 21 -47 80 -68 85 -14 4 -22 13 -20 24 2 10 -3 17
-12 17 -8 0 -15 -9 -15 -20 0 -16 -7 -20 -35 -20 -19 -1 -41 -5 -49 -9 -9 -6
-12 -5 -7 2 4 7 -7 18 -26 28 -25 13 -48 15 -102 11 l-71 -6 -72 -75 c-41 -41
-71 -81 -68 -88 3 -7 18 -21 33 -32 16 -10 36 -31 45 -47 11 -20 24 -29 42
-29 15 0 25 -6 25 -15 0 -8 16 -27 35 -42 20 -15 49 -55 65 -88 17 -33 35 -67
40 -75 6 -8 19 -35 30 -60 11 -25 36 -74 55 -110 19 -35 35 -77 35 -92 0 -15
4 -28 10 -28 5 0 8 -35 6 -85 -2 -47 0 -88 5 -90 4 -3 5 -14 2 -25 -3 -11 -1
-20 4 -20 6 0 9 -19 9 -42 -1 -35 -4 -43 -20 -43 -13 0 -23 -11 -29 -30 -5
-17 -16 -37 -23 -46 -8 -8 -14 -25 -14 -37 0 -19 -3 -20 -25 -10 -14 6 -25 15
-25 20 0 4 -8 8 -17 8 -15 0 -14 -4 6 -19 24 -18 26 -51 4 -59 -9 -2 -13 7
-13 26 0 17 -6 32 -14 35 -23 9 -8 47 18 47 12 0 27 5 34 12 9 9 15 9 24 0 7
-7 16 -12 20 -12 14 0 9 39 -6 47 -20 12 -43 191 -26 203 4 3 10 17 14 33 4
19 3 26 -6 25 -8 -2 -14 9 -16 25 -2 15 -9 27 -17 27 -9 0 -12 -6 -8 -17 5
-12 2 -15 -9 -10 -11 4 -17 -2 -20 -18 -4 -19 1 -26 23 -34 36 -12 39 -35 4
-29 -14 3 -25 1 -25 -5 0 -6 -7 -18 -16 -28 -8 -9 -16 -31 -16 -48 -1 -31 -22
-60 -35 -47 -3 3 0 18 7 32 10 18 11 30 3 42 -7 13 -5 32 8 72 21 62 24 100 9
100 -5 0 -10 -4 -10 -10 0 -5 -11 -12 -24 -16 -22 -5 -23 -8 -14 -40 6 -22 5
-40 -1 -52 -6 -9 -11 -12 -11 -5 0 6 -6 18 -14 26 -11 11 -12 24 -6 52 11 51
3 93 -18 91 -18 -1 -19 12 -8 76 8 40 9 39 -44 42 -9 1 -16 13 -18 34 -2 17
-8 32 -14 32 -7 0 -7 4 0 13 7 8 7 18 2 27 -6 8 -7 30 -4 48 4 19 1 38 -6 47
-6 8 -9 19 -6 24 4 6 -7 17 -24 26 -18 9 -30 23 -30 35 0 11 -6 20 -14 20 -8
0 -17 10 -19 23 -2 12 -5 -481 -6 -1095 l-1 -1118 93 0 92 0 51 53 c41 43 74
100 186 327 75 151 156 304 180 339 23 36 54 81 67 100 14 20 40 52 58 71 19
19 36 47 40 63 3 15 11 27 17 27 7 0 22 9 34 20 25 24 36 26 28 5 -3 -9 3 -19
17 -26 19 -11 20 -10 10 3 -19 22 -3 31 19 11 18 -16 18 -16 12 0 -3 10 -1 17
5 17 6 0 11 -4 11 -10 0 -5 7 -6 17 -3 11 4 14 3 9 -5 -9 -14 23 -4 40 13 8 8
38 8 100 2 49 -5 107 -9 129 -9 22 0 96 1 165 2 108 1 130 -2 165 -19 42 -23
75 -27 75 -11 0 6 -9 10 -19 10 -11 0 -23 5 -26 10 -3 6 5 10 19 10 28 0 82
-45 78 -65 -1 -7 4 -18 12 -24 8 -7 13 -18 10 -25 -3 -7 4 -20 15 -30 16 -15
19 -27 15 -66 -7 -64 10 -72 26 -12 14 51 36 77 88 105 43 23 135 18 211 -12
30 -11 58 -18 64 -14 6 3 15 -1 21 -9 13 -17 252 -94 399 -129 71 -16 97 -27
98 -38 0 -10 2 -12 6 -3 8 21 44 13 77 -16 18 -16 74 -43 124 -61 116 -42 322
-142 430 -209 50 -31 89 -49 100 -46 13 5 14 4 3 -4 -11 -8 -9 -13 12 -27 24
-16 28 -16 42 -1 9 9 22 16 29 16 6 0 43 16 80 35 38 19 74 35 81 35 8 0 15 3
17 8 2 4 36 17 76 30 61 20 142 61 226 115 24 15 186 174 186 182 0 4 -10 3
-22 0 -16 -4 -19 -3 -10 3 8 5 16 36 19 73 2 35 6 69 8 74 1 6 3 14 3 19 0 5
6 13 14 17 10 7 10 9 0 9 -7 0 -11 4 -8 9 3 5 -19 -4 -49 -21 -72 -39 -93 -31
-31 11 26 18 45 36 42 39 -3 3 -16 -4 -29 -16 -30 -28 -61 -30 -54 -3 2 10 1
24 -3 31 -10 17 -31 3 -23 -15 3 -9 -1 -15 -8 -15 -10 0 -10 -3 -1 -12 18 -18
15 -28 -8 -28 -17 0 -20 7 -20 39 0 37 12 52 43 50 4 0 22 11 38 26 17 14 35
23 39 20 8 -5 42 27 88 80 7 9 11 21 9 28 -4 9 -6 9 -6 0 -1 -7 -6 -13 -12
-13 -5 0 -7 5 -4 10 4 6 9 25 11 43 14 103 25 208 25 250 1 26 4 47 8 47 4 0
8 32 9 72 1 40 7 77 12 82 6 6 10 19 10 31 0 12 21 38 51 64 50 43 51 44 29
56 -19 10 -19 13 -6 24 8 7 13 18 10 26 -3 7 -1 30 5 51 6 21 7 42 3 46 -4 4
-5 36 -2 71 3 35 5 125 5 200 0 75 3 137 7 137 4 0 10 22 14 50 4 30 11 47 17
43 6 -4 7 -1 2 7 -6 10 -4 12 8 7 11 -4 14 -2 10 9 -3 7 1 14 8 14 7 0 10 3 6
6 -3 3 -21 -5 -39 -19 -59 -44 -141 -85 -243 -120 -157 -54 -265 -71 -455 -70
-179 0 -282 14 -419 60 -74 24 -235 103 -227 111 2 2 26 -8 52 -22 27 -14 63
-29 81 -32 19 -4 30 -11 26 -17 -4 -6 4 -8 23 -3 18 4 24 3 16 -2 -11 -7 -10
-10 3 -15 9 -4 13 -3 10 3 -3 6 6 11 22 11 21 1 23 3 8 6 -11 3 -25 10 -32 15
-7 5 -18 6 -24 2 -8 -4 -9 -3 -5 5 4 6 16 9 27 6 10 -4 27 -2 36 4 16 9 15 10
-6 11 -23 0 -24 1 -6 13 17 13 17 14 -4 20 -11 3 -21 11 -21 19 0 11 2 10 9
-1 6 -9 18 -12 37 -7 27 7 28 9 11 21 -10 7 -26 12 -35 10 -9 -1 -12 0 -6 2 6
2 20 19 30 38 26 49 39 50 54 2 12 -39 14 -40 20 -17 7 29 42 38 68 18 15 -11
16 -11 4 3 -15 20 -50 31 -58 18 -8 -14 -34 -11 -34 4 0 7 -6 22 -14 33 -13
16 -17 17 -28 5 -11 -12 -10 -13 5 -8 21 8 23 -8 2 -17 -8 -3 -19 2 -24 11 -8
15 -11 15 -28 3 -13 -10 -15 -11 -6 -1 9 11 7 18 -10 32 -12 10 -16 18 -9 19
6 0 12 -4 12 -9 0 -16 40 -23 55 -11 12 10 18 10 29 1 9 -8 28 -10 51 -5 45 8
40 14 -16 19 -91 8 -279 72 -390 134 l-54 30 -1 208 c0 114 1 184 3 154 4 -52
5 -53 31 -48 55 11 84 27 78 42 -4 11 2 15 22 16 27 1 27 1 -7 15 -40 18 -38
23 6 17 23 -4 33 -11 36 -27 4 -21 4 -21 6 1 1 16 -9 27 -31 39 -53 27 -16 27
43 0 128 -58 329 -101 509 -109 74 -3 92 -2 60 4 -25 4 -73 9 -106 9 -36 1
-70 7 -80 15 -11 8 -14 15 -7 15 7 0 10 6 7 14 -3 8 -1 17 5 21 6 3 11 15 11
26 0 14 7 19 30 19 27 0 29 -3 26 -30 -3 -25 0 -30 18 -29 11 0 15 3 9 6 -19
7 -16 23 5 24 14 0 14 2 -3 9 -18 7 -19 8 -2 15 9 4 25 4 35 -1 9 -4 22 -6 27
-4 6 2 28 6 50 10 32 6 26 7 -35 7 -80 0 -220 19 -254 34 -16 7 -13 8 14 4 19
-3 64 -7 100 -10 36 -3 97 -7 136 -10 81 -7 279 15 400 44 307 75 519 256 532
458 5 75 -7 115 -67 217 -74 127 -193 214 -379 277 -129 44 -261 69 -361 68
-78 -1 -82 -2 -41 -10 122 -24 123 -26 16 -21 -105 5 -109 4 -102 -14 4 -10
10 -44 13 -74 6 -63 -8 -56 126 -59 50 -1 67 -4 67 -15 0 -8 6 -16 13 -19 6
-2 -38 -2 -99 1 l-110 5 -22 -60 c-12 -33 -31 -68 -42 -78 -11 -10 -20 -22
-20 -27 0 -20 -69 -108 -152 -194 -77 -80 -231 -204 -253 -204 -5 0 12 15 37
33 25 17 46 37 47 42 1 6 6 10 11 10 6 0 21 12 34 27 12 15 27 24 31 20 5 -4
5 -1 1 6 -6 11 -12 10 -29 -5 -12 -10 -26 -22 -30 -28 -5 -5 -5 0 -2 13 6 22
-9 32 -18 12 -3 -6 -4 -5 -3 2 2 7 14 12 27 10 19 -2 21 0 9 8 -12 8 -1 24 60
87 l75 78 -75 -70 c-41 -39 -78 -74 -82 -80 -4 -6 -8 -6 -8 -1 0 6 -15 -3 -33
-20 -18 -16 22 25 89 91 131 130 196 214 246 322 29 60 32 78 32 153 0 50 -6
97 -14 115 -13 29 -14 30 -18 6 -2 -13 2 -34 9 -47 17 -32 5 -129 -25 -203
-35 -86 -117 -199 -202 -281 -71 -68 -94 -82 -94 -59 0 5 4 8 9 4 5 -3 12 -1
16 5 3 5 2 10 -4 10 -5 0 -8 17 -6 38 1 20 -2 40 -8 43 -5 4 -44 -18 -86 -49
-131 -97 -305 -194 -453 -253 -58 -22 -222 -69 -240 -68 -7 0 16 9 52 20 36
10 74 23 85 28 11 5 38 16 60 25 37 16 13 15 -32 0 -10 -4 47 27 127 67 147
75 343 200 415 266 22 20 33 32 25 26 -20 -12 -60 -14 -60 -3 0 5 -8 6 -17 3
-10 -4 7 15 37 42 154 136 269 275 319 386 32 71 46 165 32 219 -8 31 -9 26
-10 -36 -2 -154 -77 -287 -255 -456 -39 -38 -75 -68 -80 -68 -4 0 -6 12 -3 27
4 24 4 26 -8 10 -18 -25 -32 -21 -46 16 -33 88 -38 101 -33 109 9 14 -14 8
-31 -8 -17 -17 -32 -13 -20 6 4 6 29 29 57 50 38 31 59 40 88 40 21 0 42 5 45
10 3 6 0 10 -7 10 -14 0 -78 88 -78 107 0 6 40 48 88 92 84 77 88 83 84 117
-3 20 0 39 4 43 5 3 15 18 21 32 9 21 8 29 -2 40 -12 12 -11 18 1 39 l15 25
-5 -26 c-10 -47 7 -40 32 14 36 76 82 188 82 201 0 6 -8 -1 -18 -16 -21 -35
-32 -36 -32 -3 0 14 -5 25 -11 25 -7 0 -9 10 -5 25 7 26 -3 32 -21 14 -8 -8
-13 -8 -17 0 -4 6 0 11 8 11 8 0 18 5 21 10 9 15 -2 12 -100 -25z m86 -22 c12
-15 12 -16 -4 -10 -10 4 -28 7 -40 8 -21 0 -21 1 -2 9 29 12 31 12 46 -7z
m-86 -21 c-3 -3 -11 0 -18 7 -9 10 -8 11 6 5 10 -3 15 -9 12 -12z m-2145 -2
c0 -5 -8 -10 -17 -10 -15 0 -16 2 -3 10 19 12 20 12 20 0z m2095 -50 c4 -6 -5
-5 -19 2 -14 6 -26 15 -26 20 0 10 36 -7 45 -22z m-24 -19 c-13 -9 -12 -23 5
-66 7 -18 6 -18 -9 -6 -27 22 -22 81 7 81 6 0 5 -4 -3 -9z m219 5 c0 -2 -7 -7
-16 -10 -8 -3 -12 -2 -9 4 6 10 25 14 25 6z m-2720 -36 c0 -5 -4 -10 -10 -10
-5 0 -10 5 -10 10 0 6 5 10 10 10 6 0 10 -4 10 -10z m2449 -24 c-3 -3 -58 -25
-124 -49 -107 -39 -153 -67 -111 -67 9 0 16 5 16 10 0 6 9 10 21 10 13 0 18 4
13 12 -5 8 3 9 30 5 21 -3 34 -2 31 3 -3 6 1 7 11 3 15 -5 14 -7 -2 -16 -11
-5 -25 -17 -31 -25 -12 -14 -13 -14 -13 0 0 9 6 19 13 21 9 4 9 6 0 6 -7 1
-17 -8 -23 -18 -5 -11 -26 -25 -45 -32 -19 -7 -35 -17 -35 -21 0 -4 -6 -8 -13
-8 -16 0 -72 -109 -69 -135 1 -15 0 -17 -7 -6 -7 11 -10 8 -16 -10 -8 -29 -65
-149 -70 -149 -6 0 19 58 76 179 60 128 61 135 12 127 -21 -4 -61 -8 -89 -10
-28 -2 -64 -11 -80 -20 -25 -15 -26 -16 -4 -9 39 12 108 9 122 -6 11 -11 6
-12 -28 -6 -31 5 -71 -2 -160 -26 -65 -18 -134 -34 -153 -37 l-34 -5 22 -16
c15 -11 20 -23 15 -34 -5 -14 -9 -15 -20 -6 -8 6 -14 18 -14 25 0 8 -9 14 -22
13 -17 -1 -19 -2 -5 -6 9 -2 17 -9 17 -14 0 -6 -8 -5 -21 1 -15 8 -33 9 -67 1
-94 -22 -194 -39 -185 -31 4 4 42 14 83 24 152 33 251 66 520 168 355 136 412
157 429 157 8 1 12 -1 10 -3z m-699 -20 c0 -2 -7 -7 -16 -10 -8 -3 -12 -2 -9
4 6 10 25 14 25 6z m749 -54 c1 -7 -3 -10 -9 -7 -5 3 -10 -1 -10 -9 0 -9 -4
-16 -10 -16 -5 0 -10 4 -10 9 0 6 5 13 10 16 6 3 10 18 11 33 0 24 1 25 9 7 5
-11 9 -26 9 -33z m131 33 c0 -8 -4 -15 -10 -15 -5 0 -7 7 -4 15 4 8 8 15 10
15 2 0 4 -7 4 -15z m30 0 c0 -8 -2 -15 -4 -15 -2 0 -6 7 -10 15 -3 8 -1 15 4
15 6 0 10 -7 10 -15z m-1120 -99 c0 -2 -8 -10 -17 -17 -16 -13 -17 -12 -4 4
13 16 21 21 21 13z m902 -38 c-6 -6 -7 0 -4 19 5 21 7 23 10 9 2 -10 0 -22 -6
-28z m-259 -23 c-3 -9 -8 -14 -10 -11 -3 3 -2 9 2 15 9 16 15 13 8 -4z m230
-15 c-13 -5 -23 -14 -23 -19 0 -5 -14 -25 -32 -45 -24 -28 -39 -36 -65 -36
-25 0 -33 4 -33 18 1 43 72 91 135 91 34 0 37 -2 18 -9z m17 -24 c0 -3 -4 -8
-10 -11 -5 -3 -10 -1 -10 4 0 6 5 11 10 11 6 0 10 -2 10 -4z m148 -46 c-12
-11 -41 -36 -63 -55 -22 -20 -48 -40 -58 -46 -17 -9 -17 -8 -7 10 6 12 15 21
19 21 5 0 31 20 57 45 27 25 55 45 62 45 8 0 4 -8 -10 -20z m-98 -20 c0 -5 -5
-10 -11 -10 -5 0 -7 5 -4 10 3 6 8 10 11 10 2 0 4 -4 4 -10z m-160 -40 c-20
-13 -33 -13 -25 0 3 6 14 10 23 10 15 0 15 -2 2 -10z m102 -14 c-18 -13 -61
-29 -95 -36 -34 -6 -66 -15 -72 -19 -5 -5 -19 -11 -30 -15 -19 -7 -18 -6 2 13
12 12 31 21 43 21 11 0 20 5 20 11 0 5 4 8 9 4 13 -7 101 15 101 25 0 8 19 16
44 19 6 0 -5 -10 -22 -23z m-922 -86 c-27 -55 -50 -104 -50 -109 0 -6 12 -6
32 0 44 12 57 11 33 -3 -27 -16 -57 -20 -74 -9 -12 8 -4 29 39 115 29 58 57
106 62 106 4 0 -14 -45 -42 -100z m203 81 c4 -4 -1 -17 -12 -29 -10 -13 -24
-36 -31 -52 -7 -16 -16 -27 -21 -25 -4 3 1 21 13 40 16 29 18 38 8 50 -7 8
-20 15 -29 15 -14 0 -14 2 -1 10 15 10 59 5 73 -9z m662 9 c-11 -5 -27 -9 -35
-9 -9 0 -8 4 5 9 11 5 27 9 35 9 9 0 8 -4 -5 -9z m-85 -20 c0 -5 -5 -10 -11
-10 -5 0 -7 5 -4 10 3 6 8 10 11 10 2 0 4 -4 4 -10z m-632 -146 c-12 -22 -26
-42 -30 -45 -5 -3 -6 -12 -3 -20 4 -11 -7 -18 -41 -27 -26 -7 -49 -10 -52 -7
-3 3 1 5 9 5 8 0 21 5 29 10 13 9 13 11 0 20 -13 8 -13 10 -1 10 11 0 10 4 -5
16 -18 15 -18 15 9 9 16 -3 26 -2 23 3 -3 5 11 16 30 25 19 9 37 24 41 32 3 9
7 14 10 12 2 -3 -6 -22 -19 -43z m358 14 c-9 -12 -16 -19 -16 -15 0 11 24 47
28 42 2 -2 -3 -14 -12 -27z m-469 -10 c-3 -8 -6 -5 -6 6 -1 11 2 17 5 13 3 -3
4 -12 1 -19z m139 -25 c-18 -33 -21 -26 -6 13 6 15 13 24 16 21 3 -3 -1 -18
-10 -34z m509 -3 c-3 -5 -11 -10 -16 -10 -6 0 -7 5 -4 10 3 6 11 10 16 10 6 0
7 -4 4 -10z m-325 -7 c-27 -4 -197 -42 -218 -49 -8 -2 -12 2 -10 8 3 7 16 14
29 15 13 0 53 8 89 16 36 9 81 15 100 15 24 -1 27 -2 10 -5z m110 -2 c0 -5 -7
-12 -16 -15 -14 -5 -15 -4 -4 9 14 17 20 19 20 6z m-54 -30 c-4 -6 -14 -11
-22 -11 -8 0 -13 -4 -10 -9 4 -5 -4 -6 -16 -3 -21 5 -20 7 10 16 24 7 31 13
27 25 -5 12 -3 13 6 4 6 -6 8 -16 5 -22z m191 13 c-3 -3 -12 -4 -19 -1 -8 3
-5 6 6 6 11 1 17 -2 13 -5z m-40 -10 c-3 -3 -12 -4 -19 -1 -8 3 -5 6 6 6 11 1
17 -2 13 -5z m-52 -14 c-27 -12 -43 -12 -25 0 8 5 22 9 30 9 10 0 8 -3 -5 -9z
m1276 -9 c85 -19 254 -79 246 -87 -2 -3 -26 4 -53 14 -61 25 -190 62 -269 78
-33 6 -49 12 -35 13 14 0 64 -8 111 -18z m-1973 2 c-10 -2 -26 -2 -35 0 -10 3
-2 5 17 5 19 0 27 -2 18 -5z m896 -24 c-13 -22 -238 -162 -327 -204 -162 -77
-331 -127 -472 -140 -129 -12 -259 27 -312 95 -42 52 -37 65 7 17 76 -85 154
-109 318 -96 101 8 144 16 242 49 175 58 309 125 454 225 100 70 100 70 90 54z
m935 -29 c52 -6 112 -15 134 -22 33 -10 36 -13 19 -19 -19 -7 -214 25 -257 42
-28 11 -8 11 104 -1z m106 -96 l50 -14 -49 6 c-27 3 -58 9 -70 14 -20 8 -20 9
-1 9 11 0 43 -6 70 -15z m-38 -20 c-3 -3 -12 -4 -19 -1 -8 3 -5 6 6 6 11 1 17
-2 13 -5z m155 -8 c41 -13 111 -45 98 -45 -3 0 -41 13 -85 29 -85 31 -92 39
-13 16z m-927 -158 c6 -6 0 -7 -17 -3 -14 4 -37 1 -50 -5 l-23 -13 20 21 c20
20 49 21 70 0z m1356 -90 c16 -31 31 -76 34 -100 l5 -43 -10 38 c-12 44 -44
110 -74 152 -37 50 -41 61 -12 35 16 -14 41 -51 57 -82z m-28 -41 c21 -32 40
-73 43 -94 l4 -38 -14 37 c-16 42 -62 111 -110 166 l-31 37 35 -26 c19 -14 52
-51 73 -82z m-1243 68 c-7 -9 -15 -13 -18 -10 -3 2 1 11 8 20 7 9 15 13 18 10
3 -2 -1 -11 -8 -20z m-847 -92 c23 -11 31 -12 43 -2 12 10 15 10 12 -2 -2 -8
4 -13 13 -11 22 3 46 -36 44 -73 -5 -70 -6 -70 -29 -20 -26 56 -44 73 -113
110 -49 26 -21 24 30 -2z m-48 -47 c40 -22 85 -70 96 -103 9 -29 8 -37 -8 -55
-10 -12 -12 -18 -5 -14 7 4 12 1 12 -8 0 -9 -14 -17 -40 -21 -22 -4 -38 -12
-37 -18 3 -17 -65 -13 -106 6 -61 29 -108 113 -75 133 7 5 8 3 3 -6 -6 -10 -3
-12 12 -8 15 4 20 1 18 -11 -1 -9 -8 -15 -15 -13 -6 1 -9 -3 -6 -10 3 -7 9
-21 12 -30 7 -20 20 -23 28 -9 4 5 1 11 -5 13 -6 2 -8 14 -3 31 4 20 10 25 17
18 7 -7 6 -15 -2 -25 -10 -12 -8 -15 11 -18 32 -4 30 -34 -2 -31 -24 3 -24 2
-6 -12 24 -18 37 -19 34 -3 -2 8 9 12 32 11 46 -2 49 -3 25 -13 -19 -8 -19 -9
3 -9 12 -1 22 3 22 8 0 5 9 7 19 4 20 -5 25 3 37 70 6 37 -6 67 -29 67 -7 0
-7 -4 1 -12 7 -7 12 -19 12 -27 0 -10 -7 -8 -25 9 -14 13 -23 30 -20 37 3 9
-2 13 -13 11 -11 -2 -16 3 -14 13 3 18 -24 29 -72 29 -21 0 -27 -4 -23 -15 4
-8 2 -17 -4 -20 -5 -4 -12 1 -15 9 -8 22 -26 20 -22 -1 3 -18 -19 -53 -34 -53
-5 0 -8 8 -8 18 0 22 46 68 75 75 27 7 94 -3 120 -17z m-68 -12 c-3 -3 -12 -4
-19 -1 -8 3 -5 6 6 6 11 1 17 -2 13 -5z m4 -73 c-8 -5 -21 -6 -30 -3 -14 6
-14 7 2 10 9 2 17 9 17 15 0 7 4 7 12 -1 10 -10 10 -15 -1 -21z m59 -1 c11 17
13 10 4 -14 -5 -12 -9 -13 -24 -4 -10 7 -16 16 -13 21 3 5 9 3 14 -4 8 -12 11
-11 19 1z m17 -70 c-2 -24 -17 -15 -17 11 0 11 4 18 9 14 6 -3 9 -14 8 -25z
m878 -148 c55 -98 65 -131 32 -98 -8 8 -17 13 -20 9 -3 -3 -48 12 -100 32 -70
28 -98 44 -106 62 -6 13 -11 26 -11 29 0 9 52 24 63 17 7 -4 3 -9 -9 -14 -17
-7 -18 -8 -1 -8 22 -1 42 -20 51 -48 6 -20 86 -60 86 -42 0 5 -5 9 -11 9 -5 0
-7 4 -4 10 4 6 -1 7 -11 3 -11 -4 -15 -3 -10 5 3 6 -10 26 -30 46 -22 21 -33
40 -28 47 4 8 3 9 -4 5 -20 -12 -13 2 14 29 15 15 30 23 34 18 4 -4 34 -54 65
-111z m-778 92 c-3 -3 -12 -4 -19 -1 -8 3 -5 6 6 6 11 1 17 -2 13 -5z m898
-224 c13 -6 15 -9 5 -9 -8 0 -22 4 -30 9 -18 12 -2 12 25 0z m-588 -302 c-3
-7 -5 -2 -5 12 0 14 2 19 5 13 2 -7 2 -19 0 -25z m-1766 -333 c5 4 9 1 9 -4 0
-6 -11 -11 -25 -11 -15 0 -25 6 -25 14 0 19 24 27 28 9 2 -7 8 -11 13 -8z
m2284 -25 c-3 -5 -12 -7 -20 -3 -21 7 -19 13 6 13 11 0 18 -4 14 -10z m78 -7
c-7 -2 -19 -2 -25 0 -7 3 -2 5 12 5 14 0 19 -2 13 -5z m-190 -38 c-3 -9 -8
-14 -10 -11 -3 3 -2 9 2 15 9 16 15 13 8 -4z m61 -11 c7 -25 8 -26 21 -8 20
28 32 7 13 -24 -21 -35 -29 -34 -47 3 -8 17 -18 32 -23 33 -12 5 1 22 17 22 7
0 16 -12 19 -26z m-28 -33 c0 -11 -5 -17 -13 -14 -17 6 -17 20 0 26 6 3 12 6
12 6 1 1 1 -7 1 -18z m-1626 -11 c0 -5 -5 -10 -11 -10 -5 0 -7 5 -4 10 3 6 8
10 11 10 2 0 4 -4 4 -10z m1385 -28 c-3 -3 -11 0 -18 7 -9 10 -8 11 6 5 10 -3
15 -9 12 -12z m50 -40 c-3 -3 -11 0 -18 7 -9 10 -8 11 6 5 10 -3 15 -9 12 -12z
m272 12 c-3 -3 -12 -4 -19 -1 -8 3 -5 6 6 6 11 1 17 -2 13 -5z m-3077 -44 c0
-5 -2 -10 -4 -10 -3 0 -8 5 -11 10 -3 6 -1 10 4 10 6 0 11 -4 11 -10z m3024 1
c4 -5 -3 -7 -14 -4 -23 6 -26 13 -6 13 8 0 17 -4 20 -9z m1119 -32 c-9 -9 -12
-7 -10 9 1 14 5 18 11 12 7 -7 6 -14 -1 -21z m-1146 15 c-3 -3 -12 -4 -19 -1
-8 3 -5 6 6 6 11 1 17 -2 13 -5z m1118 -32 c-3 -3 -11 0 -18 7 -9 10 -8 11 6
5 10 -3 15 -9 12 -12z m-3525 -232 c0 -5 -4 -10 -10 -10 -5 0 -10 5 -10 10 0
6 5 10 10 10 6 0 10 -4 10 -10z m176 -87 c-10 -10 -19 5 -10 18 6 11 8 11 12
0 2 -7 1 -15 -2 -18z m234 -144 c0 -11 -4 -17 -10 -14 -5 3 -10 13 -10 21 0 8
5 14 10 14 6 0 10 -9 10 -21z m-68 -31 c-7 -7 -12 -8 -12 -2 0 14 12 26 19 19
2 -3 -1 -11 -7 -17z m-152 -53 c0 -8 -4 -15 -10 -15 -5 0 -10 7 -10 15 0 8 5
15 10 15 6 0 10 -7 10 -15z m61 -63 c-6 -2 -11 -10 -11 -18 0 -8 -4 -14 -10
-14 -13 0 -13 17 1 25 5 4 8 12 6 18 -2 7 1 21 7 32 10 19 11 18 14 -10 2 -16
-1 -31 -7 -33z m-864 2 c-9 -9 -28 6 -21 18 4 6 10 6 17 -1 6 -6 8 -13 4 -17z
m18 -134 c3 -6 -1 -13 -10 -16 -19 -8 -30 0 -20 15 8 14 22 14 30 1z m195 -81
c0 -11 -4 -18 -10 -14 -5 3 -7 12 -3 20 7 21 13 19 13 -6z m-10 -63 c0 -2 -9
-6 -20 -9 -11 -3 -20 -1 -20 4 0 5 9 9 20 9 11 0 20 -2 20 -4z m-130 -46 c0
-5 -5 -10 -11 -10 -5 0 -7 5 -4 10 3 6 8 10 11 10 2 0 4 -4 4 -10z m121 -16
c12 -14 11 -16 -5 -13 -11 2 -21 10 -24 17 -5 17 13 15 29 -4z m-96 -115 c-10
-15 -25 -10 -19 6 4 8 10 12 15 9 5 -3 7 -10 4 -15z m52 -41 c-3 -8 -6 -5 -6
6 -1 11 2 17 5 13 3 -3 4 -12 1 -19z m-135 -60 c-7 -7 -12 -8 -12 -2 0 14 12
26 19 19 2 -3 -1 -11 -7 -17z m2274 -73 c-25 -19 -36 -19 -36 0 0 10 10 15 28
15 26 -1 26 -1 8 -15z m91 9 c-3 -3 -12 -4 -19 -1 -8 3 -5 6 6 6 11 1 17 -2
13 -5z m-1582 -134 c3 -5 2 -10 -4 -10 -5 0 -13 5 -16 10 -3 6 -2 10 4 10 5 0
13 -4 16 -10z m2419 -648 c3 -5 -1 -9 -9 -9 -8 0 -12 4 -9 9 3 4 7 8 9 8 2 0
6 -4 9 -8z"/>
<path d="M2820 4752 c0 -5 -12 -9 -26 -9 -15 0 -29 -5 -33 -10 -3 -6 -19 -15
-36 -21 -16 -6 -25 -11 -19 -11 6 -1 29 5 51 13 25 9 45 11 54 5 21 -13 32
-11 25 7 -5 12 -1 14 15 9 15 -5 20 -3 17 6 -5 16 -48 25 -48 11z"/>
<path d="M3366 5034 c-7 -17 21 -51 32 -39 4 3 -1 13 -11 20 -13 9 -14 14 -6
17 9 3 10 6 2 11 -6 4 -14 0 -17 -9z"/>
<path d="M3405 5020 c3 -5 11 -10 16 -10 6 0 7 5 4 10 -3 6 -11 10 -16 10 -6
0 -7 -4 -4 -10z"/>
<path d="M974 4908 l-19 -23 23 19 c21 18 27 26 19 26 -2 0 -12 -10 -23 -22z"/>
<path d="M5369 4726 c6 -7 9 -33 6 -62 -3 -36 -2 -42 4 -24 5 14 9 42 10 63 1
28 -3 37 -15 37 -13 0 -14 -3 -5 -14z"/>
<path d="M5210 4700 c-28 -28 -25 -43 15 -66 33 -19 34 -21 19 -40 -11 -13
-17 -15 -20 -6 -8 16 -34 15 -34 -2 0 -18 32 -26 56 -13 44 24 45 61 4 82 -16
9 -30 23 -30 32 0 12 7 14 30 10 22 -5 30 -3 30 8 0 22 -46 19 -70 -5z"/>
<path d="M5326 4698 c-8 -33 -7 -98 2 -98 4 0 9 27 10 60 3 63 -1 76 -12 38z"/>
<path d="M5090 4686 c-6 -6 -10 -41 -10 -78 l0 -68 29 0 c35 0 49 16 21 23
-23 6 -18 33 9 54 14 11 14 12 -1 13 -26 0 -23 40 2 47 11 3 20 9 20 14 0 12
-57 8 -70 -5z"/>
<path d="M5012 4663 c-19 -26 -20 -27 -26 -5 -4 12 -14 22 -23 22 -12 0 -14
-7 -9 -32 3 -18 9 -52 12 -76 8 -54 36 -55 45 -2 3 19 13 52 22 74 20 45 20
46 8 46 -5 0 -18 -12 -29 -27z"/>
<path d="M4824 4659 c-4 -7 0 -16 9 -20 12 -7 14 -20 10 -58 -3 -31 0 -52 7
-56 18 -11 27 6 34 64 4 34 13 59 24 67 15 12 11 13 -30 14 -26 0 -50 -5 -54
-11z"/>
<path d="M782 4470 c0 -14 2 -19 5 -12 2 6 2 18 0 25 -3 6 -5 1 -5 -13z"/>
<path d="M4160 4480 c0 -4 6 -11 13 -13 9 -4 8 -8 -3 -16 -12 -9 -11 -11 8
-11 27 0 28 -11 2 -35 -11 -10 -20 -26 -20 -36 0 -10 -8 -20 -17 -22 -17 -4
-17 -5 0 -6 19 -1 24 -21 5 -21 -9 0 -8 -3 2 -10 16 -10 15 -11 -20 -27 -18
-9 -20 -12 -7 -12 22 -1 158 -68 228 -113 75 -48 167 -151 202 -226 55 -117
53 -313 -9 -1142 -29 -390 -34 -592 -15 -561 5 7 24 14 42 16 144 14 177 19
199 30 14 7 46 15 72 19 26 4 50 12 54 17 3 6 16 14 27 20 28 12 56 29 81 52
20 17 19 19 -24 21 -17 1 -24 6 -21 16 10 40 5 100 -8 100 -11 0 -11 3 -1 15
7 8 10 15 7 15 -3 0 0 12 8 27 12 23 12 30 -1 55 -8 16 -12 33 -9 37 3 5 -1
12 -7 15 -10 5 -10 7 0 12 6 3 12 14 12 25 0 10 9 35 20 54 11 20 18 40 15 45
-3 5 -1 19 5 30 6 11 11 40 12 65 0 30 6 48 16 54 8 5 12 15 9 24 -5 13 13
119 28 168 4 13 1 19 -9 19 -21 0 -20 5 5 39 15 21 20 39 17 65 -3 28 0 37 18
47 24 12 45 50 50 89 5 35 23 315 28 434 3 62 9 102 16 106 9 6 9 9 -1 13 -9
3 -7 6 6 7 20 1 20 1 1 15 -11 8 -15 15 -9 15 6 0 13 6 16 13 4 10 -15 10 -97
-1 -142 -19 -353 -11 -475 19 -52 13 -89 25 -82 27 19 6 12 20 -11 25 -23 4
-23 4 2 15 14 6 19 11 12 11 -10 1 -9 5 3 17 9 9 13 19 10 22 -3 3 -11 0 -17
-6 -7 -7 -19 -12 -27 -12 -11 0 -7 7 12 24 15 13 27 26 27 29 0 4 -19 11 -42
18 -40 10 -57 16 -142 54 -41 18 -66 72 -39 82 9 4 18 2 20 -4 2 -6 13 -9 23
-6 12 3 20 0 20 -7 0 -7 6 -10 13 -7 46 19 46 19 40 -2 -3 -12 -1 -21 6 -21 6
0 11 4 11 10 0 5 6 8 13 6 6 -1 9 -1 5 1 -11 6 -10 43 0 43 4 0 13 -5 20 -12
8 -8 15 -9 22 -2 7 7 -19 19 -82 36 -93 26 -150 46 -240 86 -27 12 -48 17 -48
12z m327 -292 c2 -17 0 -19 -7 -8 -5 8 -6 18 -4 22 8 12 10 10 11 -14z m40 6
c-3 -3 -12 -4 -19 -1 -8 3 -5 6 6 6 11 1 17 -2 13 -5z m-30 -81 c-21 -3 -26
-8 -18 -17 8 -9 7 -13 -4 -13 -8 0 -12 4 -9 9 3 4 -1 8 -8 8 -9 0 -9 3 2 10 8
5 26 9 40 8 23 -1 23 -1 -3 -5z"/>
<path d="M3584 4193 c0 -61 -6 -91 -26 -140 -27 -65 -25 -79 4 -40 36 51 58
173 42 235 -12 44 -20 21 -20 -55z"/>
<path d="M4575 4180 c3 -5 8 -10 11 -10 2 0 4 5 4 10 0 6 -5 10 -11 10 -5 0
-7 -4 -4 -10z"/>
<path d="M3160 4115 c-19 -22 -8 -25 13 -3 9 10 13 18 8 18 -5 0 -14 -7 -21
-15z"/>
<path d="M4780 4094 c0 -8 5 -12 10 -9 6 4 8 11 5 16 -9 14 -15 11 -15 -7z"/>
<path d="M4820 4100 c0 -5 5 -10 10 -10 6 0 10 5 10 10 0 6 -4 10 -10 10 -5 0
-10 -4 -10 -10z"/>
<path d="M3304 4078 l-19 -23 23 19 c21 18 27 26 19 26 -2 0 -12 -10 -23 -22z"/>
<path d="M3232 4009 c-24 -23 -42 -43 -40 -45 3 -2 24 17 48 41 55 56 50 58
-8 4z"/>
<path d="M3838 3243 c6 -2 18 -2 25 0 6 3 1 5 -13 5 -14 0 -19 -2 -12 -5z"/>
<path d="M3590 3190 c0 -5 4 -10 9 -10 6 0 13 5 16 10 3 6 -1 10 -9 10 -9 0
-16 -4 -16 -10z"/>
<path d="M3948 3143 c6 -2 18 -2 25 0 6 3 1 5 -13 5 -14 0 -19 -2 -12 -5z"/>
<path d="M4314 3114 c4 -9 1 -23 -5 -30 -6 -8 -9 -32 -7 -54 2 -27 -1 -41 -10
-45 -26 -10 -32 -5 -31 28 l1 32 9 -30 c6 -25 7 -21 6 21 -1 31 3 57 12 67 7
10 9 17 3 17 -20 0 -33 -30 -39 -94 -5 -58 -4 -66 11 -66 9 0 28 11 41 25 21
20 25 34 25 85 0 37 -4 60 -11 60 -6 0 -8 -7 -5 -16z"/>
<path d="M2880 3069 c0 -5 5 -7 10 -4 6 3 10 8 10 11 0 2 -4 4 -10 4 -5 0 -10
-5 -10 -11z"/>
<path d="M4148 3069 c-45 -26 -42 -94 4 -87 20 3 36 38 17 38 -16 0 -10 38 7
44 24 9 36 7 29 -4 -4 -6 -11 -8 -16 -5 -5 4 -9 -1 -9 -10 0 -13 4 -14 20 -5
30 16 25 40 -7 40 -16 0 -36 -5 -45 -11z"/>
<path d="M4039 3037 l-36 -10 -7 -85 c-4 -46 -6 -86 -4 -88 6 -5 82 17 93 27
6 6 2 12 -13 15 -25 7 -30 41 -7 50 8 4 15 12 15 20 0 8 -6 11 -15 8 -10 -4
-15 0 -15 14 0 12 9 23 20 27 11 3 20 13 20 21 0 16 0 16 -51 1z"/>
<path d="M3934 3012 c-6 -4 -15 -23 -19 -42 l-8 -35 -9 33 c-9 33 -15 36 -42
26 -13 -5 -13 -12 4 -55 11 -27 20 -63 20 -79 0 -25 4 -30 25 -30 22 0 25 4
25 35 0 19 9 57 20 85 11 28 20 55 20 60 0 12 -20 13 -36 2z"/>
<path d="M4184 3002 c3 -6 2 -13 -3 -16 -5 -3 -7 -15 -4 -27 6 -22 -14 -42
-30 -32 -5 3 -3 9 4 14 22 13 3 22 -21 9 -29 -15 -22 -44 12 -48 19 -2 36 5
53 23 31 30 31 78 1 83 -11 2 -16 0 -12 -6z m26 -22 c0 -5 -5 -10 -11 -10 -5
0 -7 5 -4 10 3 6 8 10 11 10 2 0 4 -4 4 -10z"/>
<path d="M3775 2975 c-5 -2 -22 -6 -37 -9 -16 -4 -28 -13 -28 -21 0 -9 6 -12
15 -8 14 5 15 -4 9 -62 l-7 -67 29 4 c28 3 29 4 32 71 2 51 6 67 17 67 8 0 15
7 15 15 0 14 -20 18 -45 10z"/>
<path d="M1405 2780 c3 -5 8 -10 11 -10 2 0 4 5 4 10 0 6 -5 10 -11 10 -5 0
-7 -4 -4 -10z"/>
<path d="M3741 2754 c0 -11 3 -14 6 -6 3 7 2 16 -1 19 -3 4 -6 -2 -5 -13z"/>
<path d="M3777 2749 c7 -7 15 -10 18 -7 3 3 -2 9 -12 12 -14 6 -15 5 -6 -5z"/>
<path d="M825 2580 c3 -5 17 -10 31 -10 13 0 24 5 24 10 0 6 -14 10 -31 10
-17 0 -28 -4 -24 -10z"/>
<path d="M3347 2523 c-14 -13 -7 -23 16 -22 12 0 16 3 9 6 -6 2 -10 9 -6 14 6
10 -9 12 -19 2z"/>
<path d="M3428 2518 c-7 -19 2 -38 18 -38 8 0 14 9 13 23 -1 17 -2 18 -6 4 -2
-9 -8 -15 -13 -12 -5 3 -7 12 -3 20 3 8 3 15 0 15 -3 0 -7 -6 -9 -12z"/>
<path d="M3391 2504 c0 -11 3 -14 6 -6 3 7 2 16 -1 19 -3 4 -6 -2 -5 -13z"/>
<path d="M722 2499 c2 -7 10 -15 17 -17 8 -3 12 1 9 9 -2 7 -10 15 -17 17 -8
3 -12 -1 -9 -9z"/>
<path d="M3282 2485 c15 -17 25 -22 32 -15 15 15 30 12 18 -3 -9 -10 -3 -12
26 -8 24 3 30 6 17 9 -11 2 -26 9 -32 14 -9 7 -17 7 -27 -1 -12 -10 -17 -8
-26 8 -6 12 -15 21 -20 21 -6 0 0 -11 12 -25z"/>
<path d="M3481 2484 c0 -11 3 -14 6 -6 3 7 2 16 -1 19 -3 4 -6 -2 -5 -13z"/>
<path d="M761 2454 c0 -11 3 -14 6 -6 3 7 2 16 -1 19 -3 4 -6 -2 -5 -13z"/>
<path d="M3260 2450 c-9 -6 -10 -10 -3 -10 6 0 15 5 18 10 8 12 4 12 -15 0z"/>
<path d="M3990 2426 c0 -2 7 -6 15 -10 8 -3 15 -1 15 4 0 6 -7 10 -15 10 -8 0
-15 -2 -15 -4z"/>
<path d="M1780 2410 c0 -5 5 -10 10 -10 6 0 10 5 10 10 0 6 -4 10 -10 10 -5 0
-10 -4 -10 -10z"/>
<path d="M3934 2406 c-17 -13 -12 -36 8 -36 7 0 6 6 -2 15 -9 10 -9 15 -1 15
21 0 26 -2 24 -9 -1 -4 7 -8 18 -8 10 -1 19 3 19 8 0 6 -4 7 -10 4 -5 -3 -10
-2 -10 3 0 17 -27 21 -46 8z"/>
<path d="M780 2401 c0 -6 5 -13 10 -16 6 -3 10 1 10 9 0 9 -4 16 -10 16 -5 0
-10 -4 -10 -9z"/>
<path d="M3823 2393 c-15 -5 -18 -43 -4 -43 5 0 11 11 13 25 3 14 5 25 4 24 0
0 -7 -3 -13 -6z"/>
<path d="M3860 2380 c0 -11 4 -20 9 -20 5 0 7 9 4 20 -3 11 -7 20 -9 20 -2 0
-4 -9 -4 -20z"/>
<path d="M3690 2379 c0 -4 7 -9 15 -13 9 -3 15 0 15 8 0 7 -7 13 -15 13 -8 0
-15 -4 -15 -8z"/>
<path d="M3735 2381 c-3 -6 1 -14 10 -17 13 -6 14 -8 3 -15 -10 -7 -9 -9 4 -9
26 0 30 15 9 34 -13 12 -21 14 -26 7z"/>
<path d="M1793 2372 c-16 -10 -25 -54 -14 -71 14 -22 33 -2 29 30 -3 16 0 30
6 32 7 2 7 5 0 10 -5 3 -15 3 -21 -1z"/>
<path d="M3253 2353 c9 -2 23 -2 30 0 6 3 -1 5 -18 5 -16 0 -22 -2 -12 -5z"/>
<path d="M3685 2350 c-4 -6 6 -10 22 -10 22 0 25 2 13 10 -19 12 -27 12 -35 0z"/>
<path d="M976 2262 c-7 -12 3 -42 14 -42 18 0 22 22 7 37 -9 9 -17 11 -21 5z"/>
<path d="M45 2220 c-3 -5 1 -10 9 -10 8 0 18 5 21 10 3 6 -1 10 -9 10 -8 0
-18 -4 -21 -10z"/>
<path d="M1063 2134 c-3 -10 0 -22 8 -28 8 -6 20 -22 27 -35 12 -20 11 -26 -4
-42 -17 -19 -16 -19 19 -17 41 3 41 3 26 46 -6 19 -15 29 -22 25 -6 -4 -8 0
-4 10 3 10 3 17 -2 17 -5 0 -11 9 -14 20 -6 24 -25 26 -34 4z"/>
<path d="M210 2130 c0 -5 5 -10 10 -10 6 0 10 -3 9 -7 -1 -5 2 -19 7 -32 7
-23 8 -24 15 -5 11 28 11 46 -1 39 -6 -3 -13 1 -16 9 -7 18 -24 22 -24 6z"/>
<path d="M170 2029 c0 -5 -4 -7 -10 -4 -6 4 -8 -10 -6 -37 2 -24 4 -49 5 -56
1 -7 6 -10 11 -7 8 5 7 12 -1 22 -10 12 -10 16 2 24 8 5 10 9 4 9 -5 0 -4 5 3
12 15 15 16 48 2 48 -5 0 -10 -5 -10 -11z"/>
<path d="M316 1933 c-6 -14 -5 -15 5 -6 7 7 10 15 7 18 -3 3 -9 -2 -12 -12z"/>
<path d="M234 1911 c4 -7 3 -17 -3 -24 -9 -12 -8 -83 2 -93 9 -9 27 59 24 90
-1 16 -8 31 -16 34 -9 3 -11 0 -7 -7z"/>
<path d="M307 1870 c-13 -12 -15 -20 -7 -25 16 -10 40 2 40 19 0 23 -13 25
-33 6z"/>
<path d="M360 1791 c0 -5 3 -17 6 -26 5 -12 9 -14 14 -4 5 7 6 18 3 26 -6 15
-23 18 -23 4z"/>
<path d="M230 1750 c0 -5 5 -10 11 -10 5 0 7 5 4 10 -3 6 -8 10 -11 10 -2 0
-4 -4 -4 -10z"/>
<path d="M2205 1220 c-3 -5 3 -10 14 -10 12 0 21 5 21 10 0 6 -6 10 -14 10 -8
0 -18 -4 -21 -10z"/>
<path d="M4126 995 c-3 -8 -1 -15 3 -15 5 0 11 7 15 15 3 8 1 15 -3 15 -5 0
-11 -7 -15 -15z"/>
<path d="M990 989 c0 -14 29 -17 34 -4 3 9 -2 13 -15 12 -10 -1 -19 -4 -19 -8z"/>
<path d="M835 950 c3 -5 8 -10 11 -10 2 0 4 5 4 10 0 6 -5 10 -11 10 -5 0 -7
-4 -4 -10z"/>
<path d="M780 931 c0 -12 5 -21 10 -21 6 0 10 6 10 14 0 8 -4 18 -10 21 -5 3
-10 -3 -10 -14z"/>
<path d="M1060 910 c0 -11 -5 -20 -11 -20 -5 0 -7 -5 -4 -10 12 -19 -25 -22
-51 -5 -29 19 -29 19 -38 -18 -6 -25 -5 -27 13 -15 46 28 32 -16 -23 -76 -16
-17 -44 -54 -62 -83 -19 -28 -38 -54 -44 -58 -5 -3 -10 -14 -10 -23 0 -19 -42
-72 -57 -72 -22 0 -36 -33 -38 -88 -1 -31 -5 -64 -9 -72 -4 -11 1 -15 20 -16
33 -2 38 -8 25 -32 -9 -16 -18 -19 -53 -15 -55 6 -98 -10 -98 -37 0 -11 7 -20
15 -20 16 0 11 -27 -9 -45 -34 -32 -64 -125 -40 -125 8 0 14 -10 14 -25 0 -15
6 -25 15 -25 9 0 12 -6 9 -15 -5 -13 8 -15 81 -15 78 0 86 2 81 18 -3 9 -1 24
4 32 8 12 10 9 10 -12 0 -36 10 -35 46 4 16 18 22 27 13 20 -29 -22 -28 0 1
30 17 16 30 35 30 43 0 15 27 28 41 19 5 -3 9 -11 9 -19 0 -7 7 -15 15 -19 8
-3 15 -10 15 -16 0 -6 -10 -2 -22 10 -26 24 -43 26 -34 5 3 -8 2 -15 -3 -15
-13 0 -20 -63 -9 -77 6 -8 3 -13 -9 -16 -10 -3 -4 -5 14 -6 23 -1 35 5 44 20
8 15 13 18 19 10 8 -14 20 8 20 36 0 8 8 22 17 31 16 16 16 17 0 20 -25 5 -21
49 8 84 14 16 25 34 25 39 0 15 -18 10 -28 -7 -8 -14 -10 -12 -14 9 -3 15 -2
24 2 22 4 -2 19 1 33 8 21 10 26 21 32 64 3 29 10 55 15 58 4 3 11 16 14 31 4
14 18 38 31 52 13 14 27 39 31 54 3 16 17 41 30 55 27 29 31 53 9 53 -8 0 -15
4 -15 10 0 5 7 7 16 3 13 -5 14 2 7 58 -4 35 -8 82 -8 104 0 22 -6 44 -12 48
-7 4 -13 14 -13 22 0 21 -40 29 -58 12 -13 -13 -13 -19 -2 -32 7 -8 9 -19 5
-23 -4 -4 -10 -1 -12 6 -10 27 -23 10 -20 -27 4 -54 41 -96 49 -55 2 10 8 4
15 -17 9 -24 10 -30 1 -21 -7 7 -16 12 -20 12 -12 0 -9 -35 4 -48 8 -8 8 -12
1 -12 -6 0 -16 13 -22 28 -7 15 -22 39 -34 53 -12 13 -22 36 -22 52 1 28 -10
36 -18 15 -4 -10 -6 -10 -6 0 -1 7 6 15 14 18 8 4 15 15 15 25 0 10 6 19 14
19 9 0 12 7 9 20 -3 11 -9 20 -14 20 -5 0 -9 -9 -9 -20z m104 -312 c-10 -18
-19 -28 -21 -21 -3 10 25 53 34 53 2 0 -4 -15 -13 -32z m-204 8 c0 -2 -7 -7
-16 -10 -8 -3 -12 -2 -9 4 6 10 25 14 25 6z m17 -31 c-7 -14 -18 -25 -24 -25
-17 0 -16 6 4 30 24 28 33 25 20 -5z m58 -16 c-9 -17 -19 -29 -22 -26 -5 5 25
57 33 57 3 0 -3 -14 -11 -31z m-100 -48 c-3 -6 -11 -11 -17 -11 -6 0 -6 6 2
15 14 17 26 13 15 -4z m30 -101 c-7 -19 -11 -42 -10 -50 2 -9 -6 -16 -21 -16
l-24 -2 20 25 c12 15 20 41 20 63 0 42 11 60 21 33 3 -10 1 -34 -6 -53z m25 0
c0 -5 -5 -10 -11 -10 -5 0 -7 5 -4 10 3 6 8 10 11 10 2 0 4 -4 4 -10z m-86
-34 c-6 -16 -24 -23 -24 -8 0 10 22 33 27 28 2 -2 1 -11 -3 -20z m95 -57 c-15
-9 -8 -12 31 -10 15 0 19 -2 10 -6 -8 -3 -18 -11 -22 -16 -10 -15 -39 19 -32
37 3 9 11 13 16 10 6 -4 5 -10 -3 -15z m-219 -38 c0 -6 -4 -13 -10 -16 -5 -3
-10 -15 -10 -25 0 -23 30 -92 45 -102 6 -5 5 -8 -4 -8 -11 0 -11 -3 -1 -15 16
-19 5 -54 -12 -37 -18 18 -47 174 -37 195 10 18 29 23 29 8z m43 -6 c-3 -9 -8
-14 -10 -11 -3 3 -2 9 2 15 9 16 15 13 8 -4z m-20 -50 c-3 -9 -8 -14 -10 -11
-3 3 -2 9 2 15 9 16 15 13 8 -4z m23 -21 c-10 -14 -20 -23 -23 -21 -6 6 30 57
36 51 2 -2 -4 -15 -13 -30z m-194 -81 c-2 -40 -7 -73 -10 -73 -8 0 -4 116 4
139 8 24 10 8 6 -66z m33 7 c3 0 22 7 42 15 20 8 38 13 41 10 7 -7 -31 -35
-39 -29 -5 3 -5 -17 0 -49 0 -5 6 -5 13 -1 7 5 8 3 3 -6 -6 -10 -11 -10 -20 3
-7 9 -14 14 -18 11 -3 -3 -14 1 -26 8 -15 9 -21 23 -20 48 0 31 1 32 9 13 5
-13 12 -23 15 -23z m175 -86 c0 -2 -7 -4 -15 -4 -8 0 -15 4 -15 10 0 5 7 7 15
4 8 -4 15 -8 15 -10z"/>
<path d="M1175 920 c-3 -5 -2 -10 4 -10 5 0 13 5 16 10 3 6 2 10 -4 10 -5 0
-13 -4 -16 -10z"/>
<path d="M1885 880 c3 -5 11 -10 16 -10 6 0 7 5 4 10 -3 6 -11 10 -16 10 -6 0
-7 -4 -4 -10z"/>
<path d="M1925 870 c3 -5 8 -10 11 -10 2 0 4 5 4 10 0 6 -5 10 -11 10 -5 0 -7
-4 -4 -10z"/>
<path d="M1950 855 c0 -14 5 -25 10 -25 6 0 10 10 10 23 l1 22 13 -24 c11 -19
14 -21 19 -7 4 10 -1 20 -13 26 -30 16 -40 12 -40 -15z"/>
<path d="M830 830 c0 -5 5 -10 10 -10 6 0 10 5 10 10 0 6 -4 10 -10 10 -5 0
-10 -4 -10 -10z"/>
<path d="M1614 756 c-3 -21 -4 -39 -1 -42 3 -4 9 10 13 30 3 21 4 39 1 42 -3
4 -9 -10 -13 -30z"/>
<path d="M1890 780 c0 -13 11 -13 30 0 12 8 11 10 -7 10 -13 0 -23 -4 -23 -10z"/>
<path d="M1946 765 c-9 -26 -7 -32 5 -12 6 10 9 21 6 23 -2 3 -7 -2 -11 -11z"/>
<path d="M686 734 c-9 -22 3 -32 14 -14 12 19 12 30 1 30 -5 0 -12 -7 -15 -16z"/>
<path d="M2434 691 c3 -5 0 -14 -8 -20 -7 -6 -16 -29 -20 -51 -4 -25 -12 -40
-20 -40 -12 0 -13 7 -5 32 12 42 -4 59 -28 32 -10 -11 -39 -31 -66 -44 -26
-13 -46 -29 -44 -34 5 -14 47 -21 47 -8 0 5 11 12 25 14 32 7 34 -17 3 -26
-22 -6 -22 -7 -5 -20 9 -7 17 -20 17 -29 0 -8 7 -18 16 -21 9 -3 14 -13 11
-20 -3 -8 0 -20 8 -26 11 -9 15 -7 19 12 9 42 17 93 17 113 1 11 3 14 6 7 3
-6 10 -9 15 -6 7 4 8 2 4 -4 -4 -7 -3 -12 3 -12 19 0 24 23 7 36 -19 13 -17
54 3 92 14 26 14 32 0 32 -5 0 -8 -4 -5 -9z"/>
<path d="M2470 689 c0 -5 5 -7 10 -4 6 3 10 8 10 11 0 2 -4 4 -10 4 -5 0 -10
-5 -10 -11z"/>
<path d="M2500 689 c0 -5 5 -7 10 -4 6 3 10 8 10 11 0 2 -4 4 -10 4 -5 0 -10
-5 -10 -11z"/>
<path d="M2525 680 c-3 -5 -1 -10 4 -10 6 0 11 5 11 10 0 6 -2 10 -4 10 -3 0
-8 -4 -11 -10z"/>
<path d="M1910 670 c0 -5 7 -10 15 -10 8 0 15 5 15 10 0 6 -7 10 -15 10 -8 0
-15 -4 -15 -10z"/>
<path d="M2600 670 c0 -5 5 -10 11 -10 5 0 7 5 4 10 -3 6 -8 10 -11 10 -2 0
-4 -4 -4 -10z"/>
<path d="M2159 580 c-53 -74 -59 -86 -30 -71 11 7 21 16 21 22 0 6 5 7 10 4 6
-4 22 1 35 9 20 13 25 25 25 56 0 22 -4 40 -9 40 -4 0 -28 -27 -52 -60z"/>
<path d="M2515 630 c3 -5 8 -10 11 -10 2 0 4 5 4 10 0 6 -5 10 -11 10 -5 0 -7
-4 -4 -10z"/>
<path d="M1460 616 c0 -9 5 -16 10 -16 6 0 10 4 10 9 0 6 -4 13 -10 16 -5 3
-10 -1 -10 -9z"/>
<path d="M1685 619 c-4 -6 -5 -12 -2 -15 2 -3 7 2 10 11 7 17 1 20 -8 4z"/>
<path d="M2240 599 c0 -5 5 -7 10 -4 6 3 10 8 10 11 0 2 -4 4 -10 4 -5 0 -10
-5 -10 -11z"/>
<path d="M584 564 c-25 -38 -12 -46 24 -15 32 27 33 28 13 34 -16 4 -26 -2
-37 -19z"/>
<path d="M1560 560 c-7 -17 -10 -33 -8 -36 3 -2 11 9 18 26 7 17 10 33 8 36
-3 2 -11 -9 -18 -26z"/>
<path d="M655 540 c-3 -5 -1 -10 4 -10 6 0 11 5 11 10 0 6 -2 10 -4 10 -3 0
-8 -4 -11 -10z"/>
<path d="M2206 509 c-11 -14 -23 -18 -37 -14 -24 8 -49 -10 -49 -36 0 -10 -13
-26 -30 -36 -16 -9 -30 -21 -30 -26 0 -5 -9 -7 -21 -4 -15 4 -19 2 -15 -9 3
-8 9 -21 12 -29 5 -11 2 -13 -10 -9 -11 4 -16 1 -16 -10 0 -9 -4 -16 -9 -16
-5 0 -11 -18 -13 -40 -2 -22 0 -40 5 -40 4 0 20 20 35 45 15 24 30 45 35 45
25 1 -13 -87 -67 -154 -16 -20 -26 -40 -22 -43 3 -4 28 3 54 16 52 25 39 5
-17 -26 -19 -10 -35 -27 -37 -37 -4 -27 -14 -32 -14 -7 0 12 -4 20 -9 16 -5
-3 -17 5 -26 17 -16 22 -17 22 -13 -24 2 -32 -1 -49 -9 -53 -7 -2 -13 -11 -13
-20 0 -12 9 -15 35 -13 29 2 35 6 33 23 -2 15 3 20 20 21 17 1 18 1 3 -3 -20
-4 -20 -4 0 -24 10 -10 31 -19 47 -19 20 0 23 3 12 10 -13 8 -13 9 0 13 62 18
76 25 87 47 9 17 13 20 13 8 0 -9 10 -18 23 -20 17 -4 14 -6 -15 -12 -23 -5
-38 -15 -41 -27 -6 -24 -5 -24 35 1 l33 20 16 -21 16 -22 6 22 c3 11 1 19 -4
15 -5 -3 -9 -1 -9 4 0 6 7 12 15 16 24 9 17 24 -12 28 -22 2 -29 9 -31 31 -2
15 -7 27 -12 27 -5 0 -17 14 -26 31 -16 31 -15 31 22 65 25 24 43 33 56 28 24
-7 18 -29 -9 -29 -11 -1 -28 -7 -37 -14 -18 -15 -22 -51 -6 -51 6 0 10 5 10
10 0 6 6 10 14 10 9 0 12 -8 9 -25 -4 -17 4 -36 26 -64 30 -37 42 -69 21 -56
-5 3 -7 0 -4 -8 8 -23 48 -39 88 -35 35 3 40 7 53 43 34 94 47 116 60 110 10
-3 13 1 11 13 -2 9 -10 16 -16 15 -7 -2 -12 3 -12 10 0 8 -4 7 -11 -3 -8 -11
-9 -3 -6 33 l5 48 -48 -43 c-26 -24 -48 -50 -49 -58 -2 -25 -41 63 -41 92 0
15 -4 30 -10 33 -5 3 -10 27 -10 53 l-1 47 -13 -31 c-17 -38 -35 -51 -46 -33
-6 9 -14 2 -26 -24 -11 -23 -25 -37 -36 -37 -24 0 -23 15 2 33 19 13 19 15 4
21 -15 6 -16 8 0 24 9 10 16 22 16 26 0 4 12 23 26 42 27 35 48 46 38 19 -7
-17 21 -21 31 -5 3 6 2 10 -4 10 -5 0 -8 14 -6 31 5 42 15 50 15 11 0 -17 4
-33 9 -36 5 -3 7 -14 4 -25 -3 -11 2 -21 11 -24 13 -5 15 -2 9 21 -5 15 -7 45
-6 68 2 38 0 41 -26 42 -16 0 -35 -8 -45 -19z m-61 -69 c3 -5 1 -10 -4 -10 -6
0 -11 5 -11 10 0 6 2 10 4 10 3 0 8 -4 11 -10z m222 -303 c4 -4 -4 -11 -17
-14 l-23 -6 27 -22 c27 -22 28 -23 12 -54 l-17 -31 -44 37 c-25 20 -45 39 -45
40 0 11 33 52 39 49 4 -3 13 -1 20 4 15 9 37 8 48 -3z"/>
<path d="M1997 443 c-4 -3 -7 -11 -7 -17 0 -6 5 -5 12 2 6 6 9 14 7 17 -3 3
-9 2 -12 -2z"/>
<path d="M1834 425 c-4 -9 -2 -21 3 -26 7 -7 12 -3 16 10 6 25 -11 39 -19 16z"/>
<path d="M520 401 c0 -5 5 -13 10 -16 6 -3 10 -2 10 4 0 5 -4 13 -10 16 -5 3
-10 2 -10 -4z"/>
<path d="M573 395 c0 -19 17 -24 47 -13 20 7 22 11 10 18 -23 15 -57 12 -57
-5z"/>
<path d="M2366 384 c-10 -16 -28 -37 -39 -46 -20 -16 -21 -17 -4 -36 9 -10 15
-21 12 -24 -3 -3 1 -11 10 -18 13 -11 14 -10 9 4 -4 12 -2 15 9 11 10 -4 15 1
16 17 3 51 6 73 12 78 4 3 3 13 0 24 -6 16 -9 15 -25 -10z"/>
<path d="M2177 387 c-11 -29 -9 -43 4 -30 6 6 9 19 7 29 -3 18 -4 18 -11 1z"/>
<path d="M1777 338 c-5 -39 -3 -58 7 -47 8 9 14 89 6 89 -4 0 -10 -19 -13 -42z"/>
<path d="M1930 365 c-7 -9 -11 -17 -9 -20 3 -2 10 5 17 15 14 24 10 26 -8 5z"/>
<path d="M520 330 c-13 -8 -12 -10 3 -10 9 0 17 5 17 10 0 12 -1 12 -20 0z"/>
<path d="M1160 323 c0 -9 3 -13 7 -10 3 4 12 2 20 -4 7 -6 13 -7 13 -3 0 5 -9
15 -20 22 -17 10 -20 10 -20 -5z"/>
<path d="M1902 303 c-5 -15 -14 -37 -18 -48 -7 -18 -6 -18 8 -7 17 13 34 69
25 78 -3 3 -9 -8 -15 -23z"/>
<path d="M2410 326 c0 -2 7 -7 16 -10 8 -3 12 -2 9 4 -6 10 -25 14 -25 6z"/>
<path d="M2284 267 c3 -12 6 -30 6 -39 0 -10 4 -18 9 -18 4 0 6 11 3 25 -2 15
0 25 7 25 19 0 12 17 -10 23 -18 5 -20 2 -15 -16z"/>
<path d="M420 265 c-11 -13 -10 -14 4 -9 9 3 16 10 16 15 0 13 -6 11 -20 -6z"/>
<path d="M1065 250 c-3 -5 -1 -10 4 -10 6 0 11 5 11 10 0 6 -2 10 -4 10 -3 0
-8 -4 -11 -10z"/>
<path d="M2464 225 c-3 -8 -4 -20 -2 -27 3 -7 7 -1 10 15 6 29 1 36 -8 12z"/>
<path d="M442 198 c-7 -7 -12 -16 -12 -20 0 -4 -9 -17 -20 -28 -11 -11 -20
-25 -20 -31 0 -6 7 -4 15 4 8 9 19 17 25 19 8 2 34 68 26 68 -1 0 -7 -5 -14
-12z"/>
<path d="M1020 176 c-6 -9 -10 -21 -8 -28 3 -8 9 -4 17 10 15 28 9 39 -9 18z"/>
<path d="M1884 142 c-6 -4 -14 -16 -18 -27 l-8 -20 -8 20 c-7 19 -7 19 -15 -5
-5 -15 -4 -25 3 -28 6 -2 8 -10 5 -19 -4 -11 -2 -14 5 -9 7 4 12 16 12 28 0
11 8 22 20 25 11 3 20 14 20 24 0 21 -1 22 -16 11z"/>
<path d="M1433 125 c-3 -9 -3 -18 -1 -21 3 -3 8 4 11 16 6 23 -1 27 -10 5z"/>
<path d="M1295 110 c-3 -5 -1 -10 4 -10 6 0 11 5 11 10 0 6 -2 10 -4 10 -3 0
-8 -4 -11 -10z"/>
<path d="M2550 81 c0 -5 7 -12 16 -15 14 -5 15 -4 4 9 -14 17 -20 19 -20 6z"/>
<path d="M410 39 c0 -5 5 -7 10 -4 6 3 10 8 10 11 0 2 -4 4 -10 4 -5 0 -10 -5
-10 -11z"/>
<path d="M1836 32 c-3 -6 -1 -14 5 -17 15 -10 25 3 12 16 -7 7 -13 7 -17 1z"/>
<path d="M2456 23 c-11 -11 -6 -23 8 -23 8 0 17 4 20 9 7 10 -19 23 -28 14z"/>
</g>
</svg>
