<?xml version="1.0" standalone="no"?>
<!DOCTYPE svg PUBLIC "-//W3C//DTD SVG 20010904//EN"
 "http://www.w3.org/TR/2001/REC-SVG-20010904/DTD/svg10.dtd">
<svg version="1.0" xmlns="http://www.w3.org/2000/svg"
 width="735.000000pt" height="866.000000pt" viewBox="0 0 735.000000 866.000000"
 preserveAspectRatio="xMidYMid meet">

<g transform="translate(0.000000,866.000000) scale(0.100000,-0.100000)"
fill="#000000" stroke="none">
<path d="M2526 8580 c-49 -10 -125 -33 -170 -51 -90 -36 -216 -112 -216 -130
0 -7 3 -9 7 -6 8 9 30 -52 38 -107 6 -40 20 -95 32 -126 8 -19 40 -129 58
-200 8 -30 12 -64 9 -75 -4 -16 -3 -17 5 -5 5 8 13 11 18 7 4 -5 -11 -24 -35
-43 -23 -20 -42 -40 -42 -45 0 -6 5 -7 11 -3 8 4 8 0 0 -15 -7 -11 -19 -21
-28 -21 -13 0 -14 2 -2 18 13 16 13 16 -6 2 -66 -48 -100 -113 -90 -172 8 -49
38 -104 65 -118 28 -15 31 9 9 72 -17 51 -17 60 -4 92 18 43 76 101 150 150
76 51 91 41 18 -12 -32 -23 -64 -52 -72 -64 -11 -18 -8 -17 20 6 62 52 139 73
367 97 67 7 117 16 111 20 -8 4 -4 9 9 13 13 4 19 13 15 22 -3 8 1 14 11 14
10 0 13 6 10 15 -7 17 16 21 32 5 7 -7 21 -6 44 3 21 9 28 16 19 20 -8 3 9 5
36 5 28 -1 38 -3 23 -5 -53 -8 -28 -20 38 -18 78 3 89 10 37 24 -56 16 -176
15 -168 -1 4 -7 -1 -4 -9 7 -15 18 -15 20 6 28 33 13 152 2 222 -20 34 -10 74
-31 93 -49 29 -28 33 -38 33 -83 0 -44 3 -51 20 -51 18 0 20 7 20 55 0 61 -15
81 -83 116 -21 11 -35 24 -31 30 3 6 19 2 39 -10 19 -11 32 -14 29 -8 -5 14
-95 56 -136 64 -22 4 -28 2 -28 -11 0 -15 -9 -16 -72 -11 -87 8 -101 12 -93
25 4 6 -16 10 -54 10 -50 0 -59 3 -55 15 4 8 2 15 -4 15 -5 0 -9 8 -8 18 1 28
-26 142 -35 142 -8 0 -24 85 -21 111 2 9 -5 20 -15 24 -17 7 -17 8 2 15 18 8
19 9 1 9 -12 1 -16 6 -12 16 3 8 1 15 -4 15 -6 0 -10 20 -10 45 0 34 -5 47
-20 55 -15 8 -19 17 -15 31 5 14 2 17 -8 13 -8 -3 -18 -1 -22 5 -3 6 0 11 7
12 24 1 50 7 56 13 11 11 -64 4 -152 -14z m-123 -57 c-10 -3 -9 -9 3 -20 10
-10 13 -25 9 -40 -4 -16 -1 -25 11 -30 13 -5 13 -7 2 -14 -10 -7 -10 -11 -1
-17 13 -8 36 -99 35 -139 0 -14 6 -23 15 -23 8 0 11 -5 8 -10 -4 -6 -2 -17 5
-24 6 -8 13 -25 15 -37 3 -13 7 -33 10 -44 15 -63 23 -111 19 -117 -3 -5 5 -8
18 -9 19 0 16 -4 -17 -20 -51 -24 -83 -26 -65 -4 7 9 11 16 9 18 -2 1 -12 7
-22 12 -10 6 -18 14 -17 19 1 5 -4 12 -11 16 -6 4 -12 23 -13 41 0 19 -5 37
-11 41 -6 5 -5 8 3 8 7 0 10 5 7 10 -4 6 -11 8 -16 5 -5 -4 -9 1 -9 9 0 10 6
13 17 9 12 -5 10 0 -6 16 -12 12 -24 35 -28 51 -3 17 -10 30 -15 30 -6 0 -5 7
2 15 8 10 9 15 1 15 -6 0 -13 11 -17 25 -3 14 -10 25 -14 25 -14 0 -20 29 -11
52 6 16 4 27 -8 36 -14 12 -14 13 2 8 12 -4 17 -2 14 6 -2 7 -10 12 -17 10 -7
-1 -18 3 -26 9 -12 10 -11 14 7 27 21 15 94 41 114 41 6 -1 4 -3 -2 -6z m396
-557 c-2 -2 -22 -6 -44 -9 -28 -5 -34 -4 -20 3 19 8 73 14 64 6z m238 -32 c-3
-3 -12 -4 -19 -1 -8 3 -5 6 6 6 11 1 17 -2 13 -5z"/>
<path d="M2290 8469 c0 -5 5 -7 10 -4 6 3 10 8 10 11 0 2 -4 4 -10 4 -5 0 -10
-5 -10 -11z"/>
<path d="M1116 8025 c3 -27 15 -93 26 -145 24 -112 36 -208 43 -345 5 -100 47
-501 65 -625 5 -36 14 -110 20 -165 6 -55 24 -179 40 -275 16 -96 34 -213 40
-260 10 -77 60 -345 111 -605 11 -55 26 -138 34 -184 18 -105 115 -520 156
-666 50 -176 119 -408 129 -430 77 -175 121 -286 115 -295 -4 -7 -10 -8 -14
-4 -3 5 -26 20 -51 33 -25 14 -84 53 -131 88 -48 35 -92 63 -98 63 -6 0 -15
10 -20 23 -18 43 -24 62 -23 68 0 3 -3 22 -8 42 -4 20 -4 35 0 32 5 -3 11 -23
15 -46 10 -56 16 -43 21 42 3 39 7 76 11 81 3 6 -1 15 -8 20 -9 6 -10 11 -4
14 7 3 8 30 4 77 -4 39 -5 77 -3 82 3 6 -2 46 -11 89 -8 43 -12 83 -9 87 3 5
1 9 -5 9 -5 0 -9 17 -8 38 0 20 -2 57 -7 82 -9 55 -71 319 -88 375 -6 22 -12
45 -14 50 -1 6 -14 53 -28 105 -15 52 -38 136 -51 185 -41 152 -101 355 -139
467 -20 59 -43 129 -50 155 -7 26 -23 84 -35 128 -12 44 -26 89 -30 100 -5 11
-14 33 -20 48 -6 15 -11 43 -11 61 0 56 -120 500 -186 686 -14 41 -32 104 -39
140 -18 87 -18 47 0 -147 7 -89 17 -230 20 -315 4 -84 15 -200 25 -258 10 -58
26 -157 34 -220 15 -105 25 -173 71 -485 42 -283 198 -942 289 -1218 71 -215
120 -337 168 -420 48 -82 42 -99 -23 -66 -24 12 -62 34 -84 49 -22 15 -50 30
-62 34 -11 4 -24 13 -27 21 -3 8 -12 15 -20 15 -8 0 -27 11 -41 26 -21 21 -23
29 -14 45 6 11 12 29 14 40 3 16 -18 150 -40 254 -16 79 -72 249 -97 298 -5
10 -6 22 -3 27 3 5 -1 12 -9 17 -8 4 -18 24 -24 43 -5 19 -13 34 -18 33 -5 -1
-10 12 -11 29 -3 36 -11 47 -22 29 -6 -9 -10 -8 -13 7 -4 15 -2 19 8 15 19 -7
18 11 -1 27 -8 7 -15 23 -15 37 0 13 -4 21 -10 18 -6 -3 -9 4 -9 17 1 13 -10
50 -24 83 -77 182 -99 231 -112 241 -8 6 -12 13 -10 16 6 6 -22 77 -38 96 -6
8 -12 23 -14 34 -2 11 -30 75 -63 143 -33 68 -60 126 -60 130 0 6 -33 78 -49
105 -5 8 -23 47 -41 85 -37 80 -53 112 -182 365 -52 102 -114 215 -137 253
-22 37 -41 72 -41 77 0 6 -4 10 -10 10 -5 0 -10 5 -10 10 0 6 -33 65 -72 130
l-73 119 -3 -112 c-3 -110 6 -172 33 -232 8 -16 29 -77 49 -135 49 -149 169
-484 222 -620 25 -63 70 -180 101 -260 74 -192 158 -397 201 -490 19 -41 64
-140 99 -220 61 -137 134 -282 181 -360 12 -19 29 -48 38 -65 23 -42 124 -185
151 -215 22 -24 39 -58 31 -65 -2 -2 -48 19 -103 47 -55 28 -130 66 -166 84
-65 33 -91 61 -69 74 13 8 4 75 -21 152 -11 32 -19 71 -19 88 0 18 -6 33 -15
36 -9 4 -15 19 -15 35 0 16 -4 29 -9 29 -5 0 -12 12 -16 28 -8 35 -196 416
-207 420 -4 2 -8 9 -8 15 0 7 -39 82 -86 167 -47 85 -104 189 -126 230 -23 41
-58 104 -78 140 -21 36 -39 70 -41 75 -2 6 -31 57 -64 113 l-60 103 -3 -236
-2 -236 93 -182 c52 -100 117 -224 145 -275 29 -50 52 -94 52 -96 0 -6 83
-146 152 -255 71 -112 122 -183 195 -268 56 -65 61 -73 40 -73 -25 0 -294 116
-314 136 -6 6 -9 21 -6 32 9 34 -77 177 -193 324 -58 73 -119 151 -135 172
l-29 39 0 -135 0 -135 114 -111 c63 -61 126 -118 140 -127 14 -10 26 -21 26
-26 0 -10 -45 -4 -85 11 -15 6 -34 10 -43 10 -9 0 23 -14 73 -31 50 -18 97
-38 105 -45 12 -12 5 -14 -50 -15 -36 -1 -72 -3 -80 -4 -8 -1 -57 -3 -107 -4
l-93 -1 0 -50 c0 -48 1 -50 28 -50 36 0 232 35 305 55 32 8 60 15 62 15 2 0 2
6 -1 14 -3 8 0 17 7 22 8 5 10 3 4 -6 -5 -8 -4 -11 3 -6 6 3 13 2 17 -4 3 -5
13 -10 20 -10 8 0 47 -15 87 -33 40 -19 88 -40 106 -47 17 -7 32 -19 32 -26 0
-11 -21 -14 -97 -14 -54 -1 -127 -3 -163 -6 -113 -8 -374 -35 -392 -40 -15 -5
-18 -18 -18 -85 0 -43 3 -79 8 -79 4 0 50 9 102 21 52 11 147 29 211 39 202
34 439 101 412 118 -8 5 -7 11 3 19 8 8 15 9 19 3 3 -5 45 -29 93 -53 227
-115 238 -129 107 -134 -148 -5 -325 -32 -615 -93 -80 -16 -156 -34 -170 -39
-14 -5 -50 -15 -80 -21 -98 -21 -90 -10 -90 -121 0 -54 3 -99 8 -99 4 0 39 9
77 21 39 11 135 38 215 59 363 96 494 132 576 159 49 16 109 35 134 41 67 18
112 48 105 71 -4 11 -2 19 4 19 6 0 11 -4 11 -9 0 -5 34 -28 76 -51 42 -23
105 -61 142 -86 36 -24 70 -44 75 -44 4 0 7 -7 5 -17 -3 -14 -21 -17 -128 -19
-184 -5 -359 -21 -595 -55 -196 -29 -537 -92 -650 -122 l-50 -13 -3 -103 c-2
-81 0 -102 10 -98 33 12 525 113 613 126 33 4 116 20 185 35 69 15 199 43 290
62 258 55 351 85 380 118 7 9 19 16 26 16 11 0 96 -54 179 -114 11 -8 39 -29
63 -46 23 -17 40 -35 37 -40 -4 -6 -107 -10 -258 -9 -382 0 -821 -50 -1262
-145 -60 -13 -145 -30 -188 -37 l-77 -13 0 -129 c0 -108 2 -128 14 -124 8 3
43 11 78 17 35 6 103 19 153 30 50 10 135 26 190 34 55 9 152 25 215 36 63 10
167 27 230 36 63 9 126 18 140 21 563 102 767 153 826 208 l26 24 60 -47 c177
-139 218 -174 218 -187 0 -13 -35 -15 -227 -15 -126 0 -284 -4 -353 -10 -134
-11 -188 -15 -345 -25 -231 -15 -979 -115 -1177 -157 l-48 -10 0 -147 0 -148
88 13 c48 7 107 15 132 18 25 2 99 14 165 25 66 11 138 22 160 25 64 9 153 23
255 41 52 9 145 23 205 31 61 8 155 23 210 34 55 10 204 37 330 60 284 52 535
112 578 139 18 11 49 28 69 38 21 10 38 25 38 33 1 11 4 9 12 -5 7 -11 22 -28
35 -38 28 -22 29 -49 4 -137 l-18 -65 -143 -6 c-274 -13 -318 -16 -865 -74
-82 -9 -177 -20 -210 -25 -33 -5 -80 -12 -105 -15 -25 -4 -97 -13 -160 -21
-63 -8 -151 -21 -195 -29 -44 -8 -134 -21 -200 -30 -66 -9 -156 -22 -200 -30
-44 -8 -104 -17 -132 -20 l-53 -7 0 -169 c0 -154 2 -169 18 -169 9 0 75 9 147
20 217 32 395 59 495 74 261 41 502 78 560 87 198 30 669 119 914 174 38 8 71
13 74 10 4 -4 -25 -155 -31 -161 -1 -2 -34 -5 -72 -8 -93 -8 -586 -72 -700
-91 -88 -15 -328 -58 -530 -95 -308 -56 -389 -72 -475 -89 -52 -10 -108 -21
-125 -24 -16 -3 -64 -12 -105 -21 -41 -8 -96 -18 -122 -22 l-48 -6 0 -195 0
-195 23 5 c70 18 496 104 772 157 176 34 453 88 615 120 399 79 449 89 563
112 54 11 100 18 102 16 4 -4 -21 -113 -29 -126 -3 -6 -48 -17 -98 -27 -182
-32 -505 -102 -763 -165 -118 -29 -326 -79 -355 -85 -8 -2 -76 -18 -150 -36
-74 -17 -153 -35 -175 -40 -22 -5 -143 -35 -270 -66 l-230 -58 -3 -169 c-2
-158 -1 -168 15 -161 10 3 63 17 118 31 55 13 120 31 145 39 25 8 79 22 120
30 41 9 158 37 260 62 102 25 226 53 275 63 50 11 128 27 175 38 47 11 159 36
250 56 91 20 183 41 205 46 32 8 229 51 343 76 13 2 22 0 22 -8 0 -18 -23 -78
-31 -78 -3 0 -96 -20 -205 -46 -109 -25 -260 -58 -334 -75 -74 -16 -184 -41
-245 -54 -60 -14 -119 -27 -130 -29 -120 -26 -323 -70 -418 -90 -66 -14 -156
-35 -200 -46 -45 -12 -136 -32 -202 -46 -66 -13 -130 -27 -142 -29 -23 -5 -23
-8 -23 -150 0 -80 3 -145 8 -145 21 1 254 52 377 83 194 49 442 107 479 112
58 8 205 40 211 47 4 4 13 4 20 2 8 -3 60 3 117 14 227 44 271 52 358 64 49 7
90 17 90 23 0 5 9 -3 20 -20 28 -42 25 -54 -14 -70 -47 -20 -77 -73 -81 -143
-4 -72 -4 -69 -13 -54 -6 9 -13 8 -28 -5 -10 -10 -30 -19 -44 -19 -66 -4 -88
-8 -127 -25 -24 -11 -60 -19 -80 -19 -21 0 -51 -7 -68 -16 -16 -8 -52 -20 -80
-26 -27 -6 -62 -16 -76 -24 -18 -9 -29 -10 -37 -2 -5 5 -16 7 -23 3 -6 -5 -30
-10 -53 -12 -22 -2 -43 -8 -47 -15 -4 -6 -23 -11 -43 -10 -19 1 -38 -3 -41 -8
-8 -14 -55 -13 -55 1 0 6 7 9 15 5 8 -3 15 -1 15 4 0 6 8 10 18 10 17 0 66 29
50 30 -13 0 -117 -29 -135 -38 -10 -5 -23 -7 -30 -5 -6 2 -15 -1 -19 -8 -5 -9
2 -11 29 -6 34 5 35 5 19 -12 -9 -10 -22 -16 -27 -14 -6 2 -48 -8 -94 -22 -47
-14 -86 -23 -89 -21 -7 8 9 27 18 21 5 -3 11 -1 15 5 3 5 19 10 35 10 16 0 41
5 57 12 23 9 25 12 10 15 -10 3 -31 0 -45 -6 -15 -6 -41 -13 -59 -16 -43 -7
-84 -24 -60 -24 31 -1 18 -19 -19 -26 -40 -7 -61 2 -26 12 12 3 22 9 22 14 0
12 -17 11 -25 -1 -3 -5 -12 -7 -20 -3 -8 3 -15 1 -15 -5 0 -5 -27 -15 -60 -21
-33 -7 -60 -14 -60 -17 0 -5 44 2 84 13 11 3 16 1 12 -5 -3 -5 -26 -13 -51
-16 -24 -4 -47 -11 -50 -17 -8 -12 -43 -11 -47 2 -2 6 -14 8 -30 4 -17 -4 -25
-12 -21 -20 3 -9 -2 -13 -16 -12 -16 1 -18 4 -8 16 10 11 8 13 -8 8 -11 -3
-33 -9 -48 -13 -17 -4 -26 -11 -23 -19 2 -7 -5 -16 -17 -19 -40 -11 -52 -5
-22 10 l30 15 -34 -6 c-19 -3 -36 -7 -38 -9 -2 -2 -2 -89 -1 -194 l3 -190 145
42 c80 24 222 66 315 94 405 121 908 263 933 262 18 0 15 -14 -13 -67 -13 -27
-27 -60 -30 -75 -5 -28 -102 -110 -135 -115 -8 -1 -16 -6 -18 -12 -2 -5 -10
-7 -18 -4 -8 3 -14 0 -14 -6 0 -6 11 -11 25 -11 14 0 25 -3 25 -7 -1 -19 -19
-31 -73 -48 -32 -10 -60 -22 -63 -26 -3 -5 -14 -9 -25 -9 -10 0 -19 -4 -19 -9
0 -5 -15 -11 -32 -14 -61 -10 -133 -29 -145 -39 -12 -10 -96 -35 -148 -44 -16
-3 -35 -10 -42 -15 -6 -6 -22 -11 -35 -13 -13 -1 -43 -8 -68 -15 -83 -23 -125
-34 -145 -36 -11 -2 -56 -15 -100 -30 -44 -15 -89 -28 -100 -30 -29 -4 -117
-26 -140 -36 -11 -4 -35 -11 -52 -14 -33 -7 -33 -7 -33 -66 0 -62 3 -65 45
-49 14 5 83 25 153 44 70 19 183 51 252 71 69 21 161 48 205 60 44 12 121 34
170 49 171 52 285 83 285 78 0 -3 -20 -31 -44 -61 -63 -82 -134 -196 -175
-281 -24 -52 -58 -100 -110 -157 -42 -45 -86 -100 -99 -122 l-23 -41 1055 0
c1045 0 1054 0 1059 20 3 11 13 20 22 20 9 0 29 6 43 14 15 7 44 22 66 32 21
11 40 25 43 32 3 7 13 10 24 7 11 -4 19 -2 19 4 0 6 7 11 16 11 8 0 36 12 62
27 25 15 52 28 59 29 7 1 26 9 43 17 29 15 30 15 30 -9 0 -14 -4 -23 -9 -20
-13 8 -42 -4 -35 -15 3 -5 -8 -14 -23 -21 -15 -7 -34 -21 -41 -30 -7 -10 -18
-18 -24 -18 -6 0 -6 6 2 15 19 23 3 31 -20 10 -13 -12 -17 -21 -10 -25 7 -4
-15 -10 -47 -14 -42 -5 -72 -16 -111 -42 -30 -20 -51 -38 -47 -42 3 -4 11 0
16 8 8 11 12 12 16 3 6 -15 259 -19 265 -4 2 4 41 25 88 46 148 64 280 128
280 136 0 13 -33 20 -44 9 -5 -5 -20 -10 -32 -10 -13 0 -25 -4 -29 -9 -3 -5
-29 -17 -58 -27 -28 -9 -55 -22 -59 -28 -5 -7 -8 -4 -8 8 0 24 37 56 72 63 15
3 25 9 23 13 -3 5 4 6 15 3 12 -3 22 1 26 11 3 9 12 16 19 16 6 0 20 10 31 21
l19 21 -32 -6 c-18 -4 -34 -3 -38 3 -3 6 -16 11 -28 10 -21 0 -21 -1 -2 -9 15
-6 16 -9 4 -9 -9 -1 -37 -17 -63 -38 -41 -32 -49 -35 -71 -25 -14 7 -25 20
-25 31 0 15 10 20 45 25 25 4 45 11 45 17 0 5 9 9 20 9 11 0 20 5 20 11 0 8
15 10 45 7 25 -3 45 -2 45 3 0 5 -9 9 -21 9 -11 0 -17 4 -14 10 4 6 16 8 27 4
15 -4 18 -3 13 6 -5 8 -4 11 2 7 17 -11 74 16 68 32 -4 11 -3 11 9 2 10 -8 16
-9 21 -1 3 6 10 8 15 5 4 -3 6 5 2 17 -5 21 -4 22 12 9 22 -18 31 -8 16 19
-11 20 -13 20 -35 6 -14 -9 -31 -16 -39 -16 -8 0 -44 -13 -79 -30 -36 -16 -68
-30 -72 -30 -9 0 -197 -86 -341 -156 -71 -35 -133 -64 -137 -64 -3 0 -29 -14
-57 -30 -58 -34 -60 -35 -60 -17 1 10 126 77 230 121 19 8 46 22 60 30 36 22
198 96 442 202 65 28 68 30 62 59 -12 66 -37 145 -45 145 -5 0 -9 -4 -9 -10 0
-5 -7 -7 -15 -4 -8 4 -21 2 -28 -4 -6 -6 -41 -20 -77 -32 -83 -27 -111 -41
-104 -51 8 -13 -41 -40 -60 -33 -10 4 -16 1 -16 -7 0 -7 -3 -9 -7 -6 -3 4 -20
-2 -38 -13 -18 -11 -35 -17 -38 -13 -4 3 -7 1 -7 -5 0 -6 -16 -16 -35 -22 -42
-14 -128 -61 -122 -66 10 -10 67 10 67 23 0 8 4 12 10 8 5 -3 26 4 47 15 39
20 79 27 69 11 -3 -5 -20 -12 -38 -15 -18 -3 -53 -20 -78 -36 -25 -16 -52 -30
-61 -30 -9 0 -30 -7 -48 -16 -18 -9 -34 -14 -37 -11 -3 2 9 10 26 16 34 11 36
34 4 40 -16 3 -17 1 -5 -13 12 -14 12 -16 -3 -10 -9 3 -23 1 -32 -6 -8 -7 6
31 32 86 25 54 48 104 51 111 3 7 26 20 51 29 26 10 63 24 82 31 19 8 67 26
105 40 39 14 93 36 120 48 28 13 76 33 108 45 57 22 65 32 47 60 -8 13 -10 12
-10 -4 0 -12 -5 -16 -15 -13 -8 4 -17 2 -21 -4 -3 -6 -12 -8 -20 -5 -8 3 -14
2 -14 -3 0 -10 -80 -34 -88 -27 -3 3 12 13 34 21 21 9 59 26 84 38 25 12 46
22 47 22 1 1 -5 24 -13 53 -16 55 -29 62 -67 38 -12 -8 -58 -26 -102 -41 -44
-15 -91 -34 -103 -42 -22 -13 -23 -13 -20 3 3 16 116 68 226 103 23 8 42 20
42 27 0 6 -10 43 -22 80 -15 47 -23 62 -26 47 -3 -21 -4 -21 -21 -4 -10 10
-21 25 -24 32 -4 10 -6 10 -6 2 -1 -7 -6 -13 -12 -13 -6 0 -8 9 -4 23 5 17 4
18 -4 7 -17 -25 -22 -5 -7 31 8 19 24 40 36 47 14 9 19 19 15 30 -3 9 -24 84
-47 167 -22 82 -53 195 -68 250 -15 55 -44 163 -65 239 -41 155 -62 194 -126
247 -43 35 -285 190 -342 219 -18 9 -26 19 -22 29 3 8 3 12 -1 8 -11 -10 -34
12 -28 27 3 8 -4 16 -16 19 -11 3 -19 11 -18 19 2 7 -3 12 -10 10 -8 -1 -11 2
-7 8 4 6 -5 33 -19 61 -15 27 -24 55 -20 61 4 6 6 37 5 70 -1 42 2 60 12 64 8
3 15 16 15 29 0 12 6 37 15 54 8 17 18 48 22 71 4 22 10 42 15 45 4 3 6 13 3
23 -2 10 5 39 16 66 12 26 21 60 21 75 0 15 9 36 19 45 11 10 22 30 26 44 4
15 14 35 22 44 8 10 13 24 9 33 -3 8 -1 27 4 41 7 18 7 30 0 39 -14 16 0 28
17 13 7 -6 16 -8 20 -4 3 3 1 6 -5 6 -7 0 -12 7 -12 15 0 8 5 15 11 15 5 0 7
5 4 10 -4 6 -11 7 -17 4 -6 -4 -9 -1 -6 7 2 7 18 17 34 21 24 6 35 19 53 58
14 32 39 63 69 87 26 20 61 52 78 70 17 18 33 32 35 30 2 -1 3 0 2 2 -1 2 7
15 17 29 29 36 26 54 -7 46 -16 -4 -33 -11 -40 -16 -16 -13 -55 -6 -61 9 -2 9
5 11 25 7 24 -5 29 -2 30 15 1 12 1 21 0 21 -1 0 -17 -4 -35 -9 -20 -6 -32 -6
-32 0 0 5 -6 9 -14 9 -8 0 -24 14 -37 31 -13 17 -29 36 -35 42 -6 7 -9 18 -6
25 2 7 -2 10 -12 6 -8 -3 -13 -13 -10 -22 4 -13 2 -12 -7 2 -10 16 -9 21 7 33
10 7 15 13 11 13 -4 0 0 12 9 28 16 26 16 26 -12 -4 -16 -17 -41 -46 -56 -65
-60 -78 -90 -114 -134 -162 -26 -29 -57 -73 -68 -98 l-22 -46 -59 22 c-32 12
-52 24 -44 27 11 4 11 8 -3 21 -11 11 -33 17 -62 17 -39 0 -46 -3 -46 -20 0
-11 -4 -20 -9 -20 -5 0 -3 25 6 56 8 31 12 63 9 71 -3 7 0 31 8 52 7 22 14 76
15 121 3 102 24 257 51 370 11 47 23 104 27 127 3 24 9 40 14 37 5 -3 9 2 9
10 0 9 -7 16 -15 16 -10 0 -13 8 -9 28 2 15 -4 61 -15 102 -49 187 -156 579
-181 665 -12 39 -28 97 -36 130 -8 33 -23 87 -34 120 -10 33 -29 98 -41 145
-12 47 -28 105 -35 130 -7 25 -31 112 -54 195 -22 82 -46 166 -54 185 l-15 35
-1 -65 c-1 -119 30 -602 50 -775 11 -93 27 -246 35 -340 9 -93 18 -181 20
-195 3 -14 14 -110 25 -213 35 -330 90 -645 141 -812 29 -94 34 -125 20 -125
-10 0 -98 63 -111 79 -9 11 -128 101 -135 101 -3 0 -23 17 -45 38 -27 27 -40
51 -45 78 -3 21 -8 47 -10 57 -5 27 4 20 19 -15 l13 -33 8 48 c4 26 5 64 2 83
-3 19 -2 32 2 30 4 -3 6 19 5 47 -6 144 -15 287 -21 327 -6 40 -7 42 -14 20
-6 -20 -8 -16 -8 20 1 25 0 47 -1 50 -1 3 -4 23 -6 46 -1 23 -8 70 -13 105 -6
35 -11 67 -11 72 0 12 -18 8 -23 -5 -2 -7 -2 -2 0 11 2 13 -1 27 -6 31 -6 3
-13 37 -16 76 -2 38 -6 78 -9 89 -2 11 -5 30 -5 43 -1 12 -7 22 -14 22 -9 0
-17 28 -25 82 -6 45 -15 84 -19 87 -5 3 -8 12 -9 19 -3 38 -5 43 -14 37 -11
-7 -14 12 -11 62 2 18 -1 38 -5 45 -4 7 -9 23 -10 37 -4 32 -24 81 -34 81 -12
0 -22 41 -20 83 2 50 -19 112 -33 98 -7 -7 -6 -15 3 -26 15 -18 4 -20 -14 -2
-7 7 -12 38 -12 77 0 53 -4 96 -13 150 -1 3 -6 -2 -12 -10 -8 -12 -9 -9 -4 9
6 19 4 23 -8 18 -20 -7 -26 17 -22 90 2 41 1 52 -6 36 -4 -13 -11 -23 -15 -23
-3 0 -3 7 0 16 9 22 -4 64 -19 64 -16 0 -22 17 -19 58 1 17 -2 32 -6 32 -11 0
-21 -56 -14 -77 5 -15 4 -16 -5 -3 -16 23 -14 80 4 86 21 8 19 26 -2 22 -13
-2 -19 5 -21 27 -2 17 -8 35 -14 42 -5 7 -7 22 -4 35 3 13 3 17 0 11 -11 -24
-31 -14 -26 12 5 31 -5 75 -18 75 -6 0 -8 -16 -4 -40 4 -24 3 -40 -4 -40 -13
0 -34 53 -31 82 1 12 -3 36 -9 51 -7 16 -12 40 -12 55 1 26 1 26 16 7 15 -19
15 -19 9 10 -4 17 -8 36 -11 43 -2 6 1 12 7 12 6 0 8 8 5 18 -3 9 -8 37 -12
62 -11 77 -20 129 -54 310 -13 66 -30 139 -38 160 -3 8 -4 18 -4 23 1 4 -3 28
-9 53 -9 34 -9 48 0 57 6 6 11 17 11 25 0 11 -2 11 -13 0 -8 -7 -17 -20 -20
-28 -5 -11 -6 -9 -6 5 3 61 -1 73 -21 68 -11 -3 -20 0 -20 6 0 6 5 11 10 11 6
0 10 9 10 20 0 11 5 28 11 38 8 13 8 29 -2 62 l-12 45 -7 -30 c-5 -23 -7 -15
-8 30 0 33 -10 105 -21 160 -12 55 -28 139 -36 187 -18 104 -38 161 -29 83z
m114 -510 c0 -8 -4 -15 -10 -15 -5 0 -10 7 -10 15 0 8 5 15 10 15 6 0 10 -7
10 -15z m-1023 -580 c8 -22 -6 -33 -17 -15 -13 20 -12 30 0 30 6 0 13 -7 17
-15z m720 -217 c-3 -8 -6 -5 -6 6 -1 11 2 17 5 13 3 -3 4 -12 1 -19z m109 -4
c0 -5 4 -21 8 -36 4 -14 6 -35 4 -45 -3 -14 -7 -10 -21 16 -20 40 -23 85 -4
79 6 -3 12 -9 13 -14z m291 -206 c-2 -13 -4 -5 -4 17 -1 22 1 32 4 23 2 -10 2
-28 0 -40z m-248 -208 c0 -31 -1 -32 -9 -12 -5 12 -14 22 -19 22 -6 0 -6 12 1
32 10 28 12 30 19 12 4 -10 8 -35 8 -54z m358 8 c-3 -8 -6 -5 -6 6 -1 11 2 17
5 13 3 -3 4 -12 1 -19z m-397 -39 c0 -11 -4 -18 -10 -14 -5 3 -7 12 -3 20 7
21 13 19 13 -6z m134 -55 c3 -9 6 -23 6 -32 -1 -14 -5 -12 -20 7 -11 13 -20
27 -20 32 0 15 28 10 34 -7z m296 -34 c8 0 23 -43 33 -95 2 -11 7 -27 10 -35
9 -24 15 -110 8 -110 -4 0 -12 15 -19 33 -15 41 -52 224 -51 246 1 9 4 4 6
-11 2 -16 8 -28 13 -28z m155 -259 c3 -5 1 -12 -5 -16 -5 -3 -10 1 -10 9 0 18
6 21 15 7z m-440 -66 c20 -66 15 -93 -8 -48 -15 29 -24 103 -12 103 2 0 12
-25 20 -55z m905 51 c0 -3 -4 -8 -10 -11 -5 -3 -10 -1 -10 4 0 6 5 11 10 11 6
0 10 -2 10 -4z m39 -171 c1 -36 -16 6 -22 55 l-5 45 13 -40 c7 -22 14 -49 14
-60z m-439 -57 c0 -19 -2 -20 -10 -8 -13 19 -13 30 0 30 6 0 10 -10 10 -22z
m40 -138 c0 -5 -2 -10 -4 -10 -3 0 -8 5 -11 10 -3 6 -1 10 4 10 6 0 11 -4 11
-10z m537 -662 c-3 -8 -6 -5 -6 6 -1 11 2 17 5 13 3 -3 4 -12 1 -19z m-810
-100 c-3 -8 -6 -5 -6 6 -1 11 2 17 5 13 3 -3 4 -12 1 -19z m30 -120 c-3 -8 -6
-5 -6 6 -1 11 2 17 5 13 3 -3 4 -12 1 -19z m960 -200 c-3 -8 -6 -5 -6 6 -1 11
2 17 5 13 3 -3 4 -12 1 -19z m-940 -214 c-3 -3 -12 -4 -19 -1 -8 3 -5 6 6 6
11 1 17 -2 13 -5z m420 -86 c-3 -8 -6 -5 -6 6 -1 11 2 17 5 13 3 -3 4 -12 1
-19z m410 0 c-3 -8 -6 -5 -6 6 -1 11 2 17 5 13 3 -3 4 -12 1 -19z m-400 -60
c-3 -7 -5 -2 -5 12 0 14 2 19 5 13 2 -7 2 -19 0 -25z m869 -240 c4 -7 4 -10
-1 -6 -4 4 -21 -11 -36 -32 -27 -37 -50 -56 -33 -27 9 14 58 77 61 77 1 0 5
-6 9 -12z m-296 -520 c-19 -69 -20 -71 -26 -66 -3 3 2 31 11 63 9 31 19 54 22
52 2 -3 -1 -25 -7 -49z m-60 -214 c-17 -52 -22 -35 -8 27 8 36 13 47 16 31 2
-12 -2 -38 -8 -58z m-2320 -1974 c0 -5 -8 -10 -17 -10 -15 0 -16 2 -3 10 19
12 20 12 20 0z m3174 -82 c6 -5 1 -8 -13 -8 -17 0 -22 4 -17 16 3 9 7 23 7 32
1 9 4 6 6 -8 3 -14 10 -28 17 -32z m46 27 l25 -15 -34 3 c-19 2 -37 9 -39 15
-5 16 18 15 48 -3z m-2983 -561 c-3 -3 -12 -4 -19 -1 -8 3 -5 6 6 6 11 1 17
-2 13 -5z m2496 -219 c-22 -17 -30 -11 -13 10 7 8 17 12 22 9 5 -3 1 -12 -9
-19z m182 -10 c-16 -14 -41 -27 -55 -31 -51 -12 -86 -28 -107 -51 -12 -12 -25
-19 -28 -13 -8 13 -51 -5 -47 -20 1 -6 -2 -9 -7 -6 -5 4 -11 0 -14 -6 -2 -7
-7 -10 -11 -6 -15 13 20 48 61 60 24 7 43 16 43 20 0 4 6 8 13 8 6 0 44 16 82
35 83 41 113 45 70 10z m153 -212 c-12 -15 -34 -17 -43 -3 -4 6 1 7 11 3 10
-4 15 -2 11 3 -3 5 3 10 13 10 14 0 16 -3 8 -13z m-238 -37 c0 -2 -7 -7 -16
-10 -8 -3 -12 -2 -9 4 6 10 25 14 25 6z m-53 -32 c-3 -3 -12 -4 -19 -1 -8 3
-5 6 6 6 11 1 17 -2 13 -5z"/>
<path d="M3108 7913 c7 -3 16 -2 19 1 4 3 -2 6 -13 5 -11 0 -14 -3 -6 -6z"/>
<path d="M1241 7454 c0 -11 3 -14 6 -6 3 7 2 16 -1 19 -3 4 -6 -2 -5 -13z"/>
<path d="M1280 7320 c0 -11 4 -20 9 -20 5 0 7 9 4 20 -3 11 -7 20 -9 20 -2 0
-4 -9 -4 -20z"/>
<path d="M1332 7100 c0 -19 2 -27 5 -17 2 9 2 25 0 35 -3 9 -5 1 -5 -18z"/>
<path d="M1352 7040 c0 -14 2 -19 5 -12 2 6 2 18 0 25 -3 6 -5 1 -5 -13z"/>
<path d="M1455 6520 c3 -5 8 -10 11 -10 2 0 4 5 4 10 0 6 -5 10 -11 10 -5 0
-7 -4 -4 -10z"/>
<path d="M3286 6278 c-9 -25 -1 -61 14 -65 12 -4 13 -3 1 5 -16 12 -4 35 15
28 10 -4 11 0 5 16 -9 26 -29 35 -35 16z m24 -8 c0 -5 -4 -10 -10 -10 -5 0
-10 5 -10 10 0 6 5 10 10 10 6 0 10 -4 10 -10z"/>
<path d="M3378 6255 c2 -14 8 -25 12 -25 10 0 1 38 -10 45 -4 2 -5 -7 -2 -20z"/>
<path d="M1571 6154 c0 -11 3 -14 6 -6 3 7 2 16 -1 19 -3 4 -6 -2 -5 -13z"/>
<path d="M3715 5320 c-3 -5 -1 -10 4 -10 6 0 11 5 11 10 0 6 -2 10 -4 10 -3 0
-8 -4 -11 -10z"/>
<path d="M3752 5316 c7 -8 15 -12 17 -11 5 6 -10 25 -20 25 -5 0 -4 -6 3 -14z"/>
<path d="M3557 5296 c-6 -15 11 -36 28 -36 5 0 2 5 -8 11 -14 8 -16 14 -6 25
7 8 7 14 1 14 -5 0 -12 -6 -15 -14z"/>
<path d="M3597 5289 c4 -13 8 -18 11 -10 2 7 -1 18 -6 23 -8 8 -9 4 -5 -13z"/>
<path d="M3630 5300 c0 -5 8 -7 18 -3 16 6 16 5 -1 -14 -14 -16 -15 -23 -6
-29 7 -4 10 -3 5 4 -3 6 1 15 10 20 9 5 14 14 10 21 -9 13 -36 15 -36 1z"/>
<path d="M3590 5240 c-9 -6 -10 -10 -3 -10 6 0 15 5 18 10 8 12 4 12 -15 0z"/>
<path d="M4859 5188 c0 -2 -9 -34 -20 -73 -12 -38 -22 -84 -23 -101 0 -17 -6
-37 -12 -45 -21 -26 -44 -78 -44 -99 0 -11 -4 -20 -10 -20 -5 0 -10 -9 -10
-21 0 -12 -5 -19 -12 -16 -7 2 -12 12 -12 21 1 9 -3 16 -8 16 -6 0 -7 -11 -3
-27 4 -16 7 -35 6 -43 -1 -8 -2 -26 -2 -39 -1 -18 -3 -21 -10 -10 -5 8 -7 28
-4 44 4 24 3 26 -4 10 l-10 -20 -1 20 c-1 11 -4 15 -6 8 -4 -10 24 -120 73
-287 12 -40 35 50 68 264 48 312 61 420 51 420 -3 0 -6 -1 -7 -2z m-132 -440
c-3 -8 -6 -5 -6 6 -1 11 2 17 5 13 3 -3 4 -12 1 -19z m-10 -60 c-3 -8 -6 -5
-6 6 -1 11 2 17 5 13 3 -3 4 -12 1 -19z"/>
<path d="M0 4981 c0 -3 9 -12 20 -19 26 -16 26 -35 0 -27 -17 5 -20 2 -20 -24
l0 -31 52 20 c56 21 83 40 57 40 -9 0 -37 11 -62 24 -26 13 -47 20 -47 17z"/>
<path d="M5531 4724 c0 -11 3 -14 6 -6 3 7 2 16 -1 19 -3 4 -6 -2 -5 -13z"/>
<path d="M5477 4428 c-9 -40 -19 -90 -22 -111 -4 -23 -10 -35 -17 -31 -6 4 -9
-4 -6 -22 3 -16 3 -23 1 -16 -9 25 -23 11 -23 -23 0 -19 -4 -35 -10 -35 -5 0
-10 15 -10 34 0 18 -7 39 -15 46 -13 11 -16 8 -21 -19 -4 -17 -13 -36 -20 -42
-8 -6 -14 -20 -14 -30 0 -10 -4 -20 -9 -24 -6 -3 -10 -13 -10 -23 0 -9 -5 -37
-11 -62 -5 -25 -17 -88 -25 -140 -21 -131 -74 -290 -97 -290 -6 0 -8 11 -5 28
2 15 1 36 -3 47 -6 16 -9 10 -15 -25 -8 -50 -54 -165 -55 -138 0 12 -5 15 -16
11 -8 -3 -13 -12 -10 -20 3 -8 2 -11 -3 -8 -28 16 -16 -39 69 -315 15 -52 41
-140 56 -195 15 -55 30 -103 34 -108 3 -4 16 46 28 110 21 115 66 363 97 533
9 47 27 146 40 220 13 74 31 171 39 215 8 44 17 98 20 120 3 22 14 85 24 140
19 97 37 245 30 245 -2 0 -12 -33 -21 -72z m-177 -598 c0 -5 -2 -10 -4 -10 -3
0 -8 5 -11 10 -3 6 -1 10 4 10 6 0 11 -4 11 -10z m-50 -200 c0 -5 -4 -10 -10
-10 -5 0 -10 5 -10 10 0 6 5 10 10 10 6 0 10 -4 10 -10z m40 0 c0 -5 -5 -10
-11 -10 -7 0 -8 -11 -4 -31 5 -22 3 -34 -6 -40 -12 -7 -12 -9 0 -9 9 0 10 -4
4 -12 -6 -7 -15 -33 -22 -58 -10 -37 -17 -45 -37 -46 -15 -1 -24 4 -24 13 0 9
6 12 18 9 15 -5 18 1 18 53 0 64 28 141 51 141 7 0 13 -4 13 -10z m-121 -450
c0 -10 -3 -8 -9 5 -12 27 -12 43 0 25 5 -8 9 -22 9 -30z m11 -36 c0 -8 -5 -12
-10 -9 -6 4 -8 11 -5 16 9 14 15 11 15 -7z"/>
<path d="M4023 4358 c-18 -5 -33 -10 -33 -13 0 -5 72 4 78 9 9 10 -16 12 -45
4z"/>
<path d="M3887 4334 c12 -3 24 -14 26 -25 4 -15 4 -14 3 3 -1 17 -8 23 -26 25
-21 1 -21 0 -3 -3z"/>
<path d="M3940 4330 c0 -5 7 -7 15 -4 8 4 15 8 15 10 0 2 -7 4 -15 4 -8 0 -15
-4 -15 -10z"/>
<path d="M5441 4324 c0 -11 3 -14 6 -6 3 7 2 16 -1 19 -3 4 -6 -2 -5 -13z"/>
<path d="M3863 4301 c3 -30 31 -51 48 -34 9 9 7 11 -8 7 -16 -4 -23 1 -32 23
-9 25 -10 25 -8 4z"/>
<path d="M5380 4295 c0 -8 4 -15 10 -15 5 0 7 7 4 15 -4 8 -8 15 -10 15 -2 0
-4 -7 -4 -15z"/>
<path d="M3830 4290 c0 -8 5 -22 10 -30 9 -13 10 -13 10 0 0 8 -5 22 -10 30
-9 13 -10 13 -10 0z"/>
<path d="M3947 4288 c2 -5 10 -8 18 -8 8 0 16 3 18 8 3 4 -5 7 -18 7 -13 0
-21 -3 -18 -7z"/>
<path d="M4973 4101 c-18 -41 -42 -55 -44 -26 -3 29 -4 33 -13 42 -5 4 -7 -6
-4 -25 3 -25 1 -32 -9 -28 -19 8 -16 -15 13 -110 25 -84 39 -110 28 -54 -4 19
-1 38 10 54 9 14 13 32 10 40 -3 9 -2 16 3 16 10 0 38 118 30 127 -3 3 -14
-13 -24 -36z m-36 -113 c1 -38 -1 -46 -6 -28 -20 65 -21 80 -8 80 8 0 13 -17
14 -52z"/>
<path d="M5070 4082 c0 -29 -4 -52 -9 -52 -5 0 -11 -17 -15 -37 -3 -21 -17
-59 -31 -85 -14 -26 -25 -58 -25 -72 0 -18 -4 -24 -15 -20 -18 7 -18 4 -1 -66
24 -97 47 -169 57 -175 5 -3 6 1 3 10 -7 16 5 111 37 290 22 131 27 231 11
247 -9 9 -12 0 -12 -40z"/>
<path d="M4943 4095 c-3 -9 -3 -18 -1 -21 3 -3 8 4 11 16 6 23 -1 27 -10 5z"/>
<path d="M5201 4023 c-6 -21 -11 -50 -11 -65 0 -16 -4 -28 -10 -28 -5 0 -10
-7 -10 -15 0 -9 6 -12 18 -9 9 4 4 -5 -13 -20 -29 -26 -29 -27 -5 -20 14 3 29
10 33 14 8 7 17 180 10 180 -1 0 -7 -17 -12 -37z"/>
<path d="M2445 3820 c-3 -5 -1 -10 4 -10 6 0 11 5 11 10 0 6 -2 10 -4 10 -3 0
-8 -4 -11 -10z"/>
<path d="M5175 3725 c0 -14 3 -25 8 -25 4 0 7 11 7 25 0 14 -3 25 -7 25 -5 0
-8 -11 -8 -25z"/>
<path d="M2415 3717 c-9 -19 -8 -22 12 -23 20 -2 21 1 11 20 -6 11 -11 22 -12
23 -1 1 -6 -8 -11 -20z"/>
<path d="M5705 3614 c-3 -20 -13 -44 -21 -52 -8 -8 -13 -21 -10 -28 3 -7 1
-16 -4 -19 -12 -8 -61 24 -59 39 5 39 -5 33 -25 -14 -12 -30 -37 -86 -54 -123
-18 -38 -32 -77 -32 -87 0 -11 -5 -22 -12 -26 -8 -5 -9 0 -5 15 3 14 1 21 -6
18 -7 -2 -12 -17 -12 -33 0 -18 -5 -28 -12 -26 -7 1 -13 -6 -13 -16 0 -10 -7
-27 -14 -38 -8 -12 -20 -43 -27 -70 -6 -27 -17 -53 -23 -59 -6 -5 -13 -23 -14
-39 -1 -16 -7 -35 -13 -42 -6 -7 -9 -17 -6 -21 3 -4 -1 -21 -8 -38 l-13 -30
-2 30 -1 30 -10 -25 c-6 -14 -8 -35 -6 -47 2 -13 -2 -28 -10 -35 -8 -6 -21
-24 -29 -40 -13 -24 -13 -34 0 -75 8 -27 28 -97 46 -158 17 -60 41 -141 52
-180 11 -38 31 -112 44 -164 13 -52 26 -96 28 -99 2 -2 9 23 15 55 7 32 21 96
31 143 11 47 32 148 46 225 22 122 35 193 49 270 2 11 20 99 39 195 20 96 43
211 51 255 9 44 25 121 36 170 20 91 27 161 17 171 -3 2 -9 -12 -13 -32z
m-422 -789 c-3 -9 -8 -14 -10 -11 -3 3 -2 9 2 15 9 16 15 13 8 -4z"/>
<path d="M6509 3613 c-1 -5 -1 -12 0 -16 1 -4 -5 -10 -13 -13 -8 -3 -12 -13
-10 -22 5 -14 4 -14 -6 1 -6 9 -15 15 -21 12 -5 -4 -9 1 -9 9 0 23 -37 19 -43
-4 -3 -11 -5 -22 -4 -24 1 -2 -7 -14 -18 -26 l-19 -21 29 6 c17 4 26 3 20 -2
-5 -4 -11 -28 -12 -53 -1 -24 -6 -46 -12 -48 -6 -2 -11 -10 -11 -18 0 -8 -4
-14 -9 -14 -6 0 -13 -21 -17 -47 -8 -55 -35 -115 -42 -95 -2 8 1 24 8 37 7 13
9 32 5 42 -6 15 -10 10 -21 -22 -8 -22 -17 -66 -21 -97 -3 -32 -10 -55 -14
-52 -5 3 -9 -4 -9 -15 0 -10 -4 -21 -8 -23 -12 -5 -51 -118 -41 -118 5 0 0 -9
-11 -20 -11 -11 -20 -29 -20 -39 0 -11 -4 -23 -10 -26 -5 -3 -10 -18 -10 -32
0 -13 -9 -37 -19 -52 -10 -14 -24 -46 -31 -71 -6 -25 -18 -54 -25 -66 -23 -36
-49 -138 -36 -142 6 -2 11 -12 11 -22 0 -10 3 -20 8 -23 4 -2 2 -2 -5 -1 -7 2
-15 -1 -18 -6 -4 -6 1 -10 9 -10 9 0 16 -4 16 -10 0 -5 -7 -10 -15 -10 -8 0
-15 -4 -15 -10 0 -5 -4 -10 -10 -10 -5 0 -10 7 -10 16 0 14 -2 14 -15 0 -8 -8
-15 -25 -15 -38 0 -13 -9 -42 -20 -66 -10 -23 -22 -58 -26 -77 -3 -19 -10 -38
-15 -40 -4 -3 -11 -26 -15 -50 -3 -25 -11 -42 -16 -39 -5 4 -9 -4 -7 -17 1
-13 -5 -41 -14 -62 -9 -22 -22 -56 -28 -78 -7 -21 -15 -39 -19 -39 -15 0 1
122 34 256 19 76 45 189 60 249 14 61 37 157 50 215 78 328 117 559 87 510 -6
-8 -8 -17 -5 -21 2 -4 -12 -41 -30 -82 -19 -41 -32 -78 -29 -81 3 -3 -1 -8 -9
-11 -8 -3 -23 -31 -34 -61 -12 -36 -23 -54 -33 -52 -16 3 -26 48 -11 48 6 0
10 5 10 10 0 30 -24 -2 -70 -95 -30 -59 -59 -105 -67 -105 -8 0 -11 5 -8 10 3
6 2 10 -3 10 -6 0 -13 -7 -16 -16 -8 -22 -8 -24 8 -24 8 0 18 -5 22 -12 5 -8
2 -9 -9 -5 -10 3 -17 2 -17 -3 0 -5 -6 -7 -14 -4 -10 4 -21 -9 -35 -40 -12
-25 -21 -49 -21 -55 0 -5 -6 -22 -14 -38 -8 -15 -22 -47 -32 -70 -12 -32 -20
-40 -29 -33 -9 8 -12 1 -11 -27 1 -30 -3 -38 -16 -37 -10 1 -18 -5 -18 -13 0
-8 5 -11 11 -7 7 4 10 1 7 -7 -3 -8 -11 -14 -19 -14 -19 0 -52 -124 -38 -142
6 -7 8 -21 4 -30 -7 -16 -9 -15 -15 7 -8 24 -8 24 -9 3 -1 -13 -4 -23 -9 -23
-9 0 -32 -72 -32 -102 0 -13 7 -48 16 -78 8 -30 24 -91 35 -135 11 -44 25 -89
31 -100 6 -10 16 -44 23 -75 16 -72 123 -445 140 -490 42 -105 47 -237 13
-348 -11 -37 -22 -78 -24 -92 -2 -14 -1 -17 2 -7 10 33 32 19 31 -20 -1 -56
11 -87 28 -73 9 8 8 -1 -4 -27 -10 -21 -24 -65 -31 -98 -7 -33 -17 -64 -22
-69 -4 -6 -8 -17 -8 -25 0 -8 -9 -33 -19 -55 -11 -23 -31 -70 -46 -106 -15
-36 -43 -94 -63 -130 -34 -60 -62 -117 -62 -126 0 -2 40 -4 90 -4 l90 0 6 28
c3 15 13 54 21 87 8 33 20 80 25 105 5 25 19 77 30 115 11 39 24 93 28 120 5
28 15 75 24 105 9 30 25 96 36 145 11 50 29 128 40 175 19 73 30 123 43 190 2
8 9 28 15 43 7 16 12 39 12 51 0 12 3 26 7 30 4 4 8 13 8 19 2 32 18 87 26 87
5 0 9 13 9 29 0 43 17 47 22 6 2 -19 1 -36 -4 -37 -4 -2 -10 -34 -13 -73 -4
-38 -9 -77 -12 -85 -5 -12 -10 -69 -16 -147 0 -7 -9 -15 -19 -19 -19 -6 -25
-24 -8 -24 6 0 10 -7 10 -15 0 -8 -7 -15 -16 -15 -8 0 -12 -4 -9 -10 3 -5 -1
-10 -10 -10 -9 0 -13 -5 -10 -10 4 -6 2 -16 -3 -23 -17 -20 -38 -131 -41 -213
0 -19 -5 -33 -10 -30 -5 3 -12 -1 -15 -10 -5 -13 -1 -15 20 -10 26 7 26 6 20
-31 -4 -21 -13 -58 -21 -83 -7 -25 -16 -58 -19 -73 -4 -15 -11 -25 -16 -22 -6
3 -10 1 -10 -4 0 -6 4 -11 10 -11 14 0 7 -43 -9 -56 -8 -6 -11 -18 -8 -28 4
-10 2 -27 -4 -38 -9 -17 -8 -19 8 -16 10 2 17 10 15 18 -2 7 1 16 5 19 13 9
42 91 63 174 9 41 23 83 29 95 6 11 11 31 11 44 0 13 7 32 15 42 8 11 13 28 9
38 -3 10 -1 18 5 18 6 0 11 8 11 19 0 10 7 24 15 31 8 7 12 16 9 21 -3 5 1 19
8 31 13 24 15 30 17 52 0 8 8 16 16 20 12 4 15 -1 12 -29 -2 -19 0 -36 5 -37
5 -2 6 -16 3 -31 -4 -15 -11 -25 -15 -22 -10 6 -25 -54 -16 -62 9 -9 19 4 21
25 0 9 9 32 18 51 9 19 17 38 17 43 0 5 7 16 15 24 8 9 15 24 15 35 0 11 7 19
16 19 11 0 14 -5 10 -17 -4 -9 -11 -37 -17 -62 -5 -25 -18 -73 -28 -106 -19
-57 -46 -167 -58 -230 -3 -16 -12 -39 -19 -50 -7 -11 -14 -35 -16 -53 -1 -17
-6 -32 -10 -32 -4 0 -8 -11 -8 -25 0 -14 -6 -36 -14 -48 -7 -12 -17 -42 -20
-67 -8 -55 -38 -154 -48 -158 -4 -2 -4 -10 -1 -18 4 -10 23 -14 74 -14 67 0
69 1 75 28 7 31 28 106 49 172 7 25 22 74 31 110 10 36 21 68 26 71 5 3 10 16
11 27 1 12 5 22 10 22 10 0 -1 -76 -14 -102 -5 -9 -9 -27 -9 -40 0 -13 -7 -35
-14 -50 -8 -16 -15 -36 -14 -45 0 -10 -3 -33 -7 -52 -6 -24 -5 -32 3 -27 6 4
9 13 6 20 -3 9 4 15 21 18 23 5 26 3 20 -16 -3 -11 -11 -39 -16 -61 -5 -22
-12 -48 -15 -57 -5 -15 1 -18 40 -18 42 0 46 2 52 28 5 23 11 45 20 72 0 3 5
20 9 38 4 18 12 35 16 38 5 3 9 16 9 30 0 13 5 24 11 24 6 0 9 6 6 14 -3 8 6
45 20 83 14 37 29 86 35 108 5 22 18 55 28 73 11 18 27 60 36 95 8 34 22 76
29 92 7 17 21 59 30 95 10 36 25 81 34 100 19 39 17 70 -5 70 -8 0 -14 10 -14
21 0 18 2 19 15 9 12 -10 15 -9 15 4 0 10 4 15 9 11 6 -3 15 4 21 15 9 17 7
22 -15 30 -15 6 -25 17 -25 30 0 17 54 274 141 670 12 52 27 131 35 175 7 44
22 127 34 185 12 58 24 128 26 155 3 28 9 70 14 95 13 66 20 117 25 192 3 53
1 68 -12 72 -18 7 -36 -2 -28 -14 3 -5 1 -11 -4 -15 -6 -3 -8 -12 -4 -20 3 -8
0 -15 -5 -15 -6 0 -9 16 -6 38 5 44 -10 25 -19 -25 -5 -23 -3 -33 6 -33 7 -1
5 -6 -5 -14 -19 -14 -25 -32 -8 -21 6 3 10 2 10 -4 0 -5 -10 -11 -22 -13 -25
-4 -38 -56 -16 -69 9 -6 9 -9 -4 -14 -9 -4 -14 -13 -12 -20 7 -17 -33 -58 -47
-49 -7 4 -9 -1 -4 -15 5 -15 2 -21 -9 -21 -9 0 -16 -7 -16 -15 0 -9 -11 -33
-25 -55 -14 -22 -25 -46 -25 -54 0 -8 -9 -35 -20 -61 -41 -95 -148 -434 -160
-505 -7 -41 -16 -81 -20 -90 -16 -32 -28 -68 -47 -145 -12 -44 -33 -118 -48
-165 -14 -47 -28 -89 -29 -95 -1 -5 -9 -23 -19 -40 l-16 -30 -1 30 -2 30 -10
-28 c-5 -15 -13 -25 -18 -22 -14 9 -32 -24 -28 -50 4 -17 1 -25 -8 -25 -8 0
-14 -4 -14 -10 0 -5 -4 -10 -10 -10 -12 0 -13 67 -1 74 4 3 6 17 4 30 -3 14 2
46 10 73 8 26 20 82 27 123 6 41 17 102 25 135 8 33 32 177 55 319 43 273 77
457 109 584 17 68 48 245 96 542 15 98 64 448 71 510 2 19 8 60 13 90 13 74
13 180 1 180 -5 0 -11 -3 -11 -7z m-69 -43 c0 -5 -4 -10 -10 -10 -5 0 -10 5
-10 10 0 6 5 10 10 10 6 0 10 -4 10 -10z m64 -155 c-4 -8 -8 -15 -10 -15 -2 0
-4 7 -4 15 0 8 4 15 10 15 5 0 7 -7 4 -15z m-933 -1113 c-6 -12 -11 -31 -11
-44 0 -13 -5 -30 -10 -38 -7 -11 -8 -5 -4 20 7 43 25 92 31 86 3 -2 0 -13 -6
-24z m-49 -174 c-7 -7 -12 -8 -12 -2 0 14 12 26 19 19 2 -3 -1 -11 -7 -17z
m-18 -43 c-4 -8 -10 -15 -15 -15 -4 0 -6 7 -3 15 4 8 10 15 15 15 4 0 6 -7 3
-15z m326 -159 c0 -3 -4 -8 -10 -11 -5 -3 -10 -1 -10 4 0 6 5 11 10 11 6 0 10
-2 10 -4z m180 -466 c0 -5 -2 -10 -4 -10 -3 0 -8 5 -11 10 -3 6 -1 10 4 10 6
0 11 -4 11 -10z m27 -72 c-3 -8 -6 -5 -6 6 -1 11 2 17 5 13 3 -3 4 -12 1 -19z
m387 -195 c-4 -27 -11 -59 -17 -73 -5 -14 -11 -39 -14 -57 -6 -51 -60 -206
-67 -194 -9 13 22 159 35 167 5 3 9 18 9 34 0 16 4 39 9 52 5 13 17 44 26 71
9 26 19 47 21 47 3 0 2 -21 -2 -47z m-644 -113 c0 -5 -4 -10 -10 -10 -5 0 -10
5 -10 10 0 6 5 10 10 10 6 0 10 -4 10 -10z m117 -30 c1 -11 -2 -20 -8 -20 -10
0 -12 23 -2 33 9 9 9 10 10 -13z m-16 -77 c-9 -16 -10 -14 -11 12 0 21 3 26
11 18 8 -8 8 -16 0 -30z m427 -160 c3 -43 -21 -142 -35 -147 -11 -5 -13 -2 -9
10 3 8 6 25 6 35 0 11 4 17 10 14 6 -4 8 6 6 25 -2 17 1 33 6 36 5 3 7 12 4
19 -2 7 -2 16 1 19 9 9 10 8 11 -11z m-358 -53 c0 -5 -7 -10 -16 -10 -8 0 -12
5 -9 10 3 6 10 10 16 10 5 0 9 -4 9 -10z m315 -142 c-10 -51 -28 -98 -37 -98
-10 0 -11 -2 8 56 9 27 17 55 20 62 8 26 15 10 9 -20z m-25 -118 c0 -5 -5 -10
-11 -10 -5 0 -7 5 -4 10 3 6 8 10 11 10 2 0 4 -4 4 -10z"/>
<path d="M6371 3474 c0 -11 3 -14 6 -6 3 7 2 16 -1 19 -3 4 -6 -2 -5 -13z"/>
<path d="M6354 3435 c-16 -29 -26 -75 -16 -75 15 0 34 46 30 71 -3 23 -4 23
-14 4z"/>
<path d="M4312 3355 c-19 -10 -20 -14 -8 -18 9 -4 16 -2 16 3 0 5 8 10 18 12
9 2 13 6 7 9 -5 3 -20 0 -33 -6z"/>
<path d="M4271 3334 c0 -11 3 -14 6 -6 3 7 2 16 -1 19 -3 4 -6 -2 -5 -13z"/>
<path d="M4165 3330 c-3 -5 -1 -10 4 -10 6 0 11 5 11 10 0 6 -2 10 -4 10 -3 0
-8 -4 -11 -10z"/>
<path d="M4219 3323 c-13 -16 -12 -17 4 -4 16 13 21 21 13 21 -2 0 -10 -8 -17
-17z"/>
<path d="M4120 3319 c0 -4 7 -20 15 -35 8 -16 15 -22 15 -13 0 14 -29 61 -30
48z"/>
<path d="M4230 3305 c-7 -8 -9 -22 -6 -31 5 -13 9 -14 21 -4 17 14 20 36 6 44
-5 3 -14 -1 -21 -9z m20 -15 c0 -5 -4 -10 -10 -10 -5 0 -10 5 -10 10 0 6 5 10
10 10 6 0 10 -4 10 -10z"/>
<path d="M5045 3050 c-3 -5 3 -10 15 -10 12 0 18 5 15 10 -3 6 -10 10 -15 10
-5 0 -12 -4 -15 -10z"/>
<path d="M4997 2999 c4 -13 8 -18 11 -10 2 7 -1 18 -6 23 -8 8 -9 4 -5 -13z"/>
<path d="M5062 2980 c6 -22 14 -37 19 -34 5 3 3 14 -4 25 -10 16 -9 21 1 28
11 7 10 10 -3 15 -9 3 -18 6 -20 6 -1 0 2 -18 7 -40z"/>
<path d="M4966 2985 c4 -8 8 -15 10 -15 2 0 4 7 4 15 0 8 -4 15 -10 15 -5 0
-7 -7 -4 -15z"/>
<path d="M7321 2949 c-7 -22 -27 -70 -45 -107 -19 -37 -43 -89 -54 -117 -40
-98 -91 -230 -97 -255 -4 -14 -14 -43 -24 -65 -10 -22 -28 -76 -40 -120 -12
-44 -30 -94 -39 -112 -9 -18 -13 -35 -10 -39 6 -6 -18 -79 -42 -129 -6 -11
-11 -30 -13 -43 -2 -12 -9 -28 -15 -34 -7 -7 -12 -20 -12 -29 0 -10 -5 -21
-10 -24 -6 -4 -8 -10 -5 -14 4 -7 -20 -94 -42 -151 -4 -8 -5 -18 -5 -22 1 -5
-3 -8 -9 -8 -6 0 -9 -7 -6 -15 4 -8 2 -17 -4 -21 -6 -3 -8 -12 -5 -19 2 -7 -2
-24 -9 -38 -16 -31 -53 -134 -58 -162 -6 -30 -16 -56 -37 -97 -11 -20 -20 -43
-20 -51 0 -8 -7 -28 -15 -43 -8 -16 -15 -39 -15 -51 0 -13 -6 -40 -14 -60 -7
-21 -26 -81 -41 -133 -16 -52 -36 -113 -45 -135 -10 -22 -30 -76 -45 -120 -15
-44 -36 -99 -46 -122 -10 -24 -19 -52 -19 -62 0 -11 -4 -23 -10 -26 -5 -3 -10
-13 -10 -22 0 -8 -6 -29 -13 -46 -8 -18 -19 -50 -26 -72 -28 -88 -44 -124 -54
-118 -5 3 -7 2 -4 -4 4 -5 -6 -37 -22 -69 -15 -32 -36 -84 -46 -114 -10 -30
-20 -61 -23 -67 -3 -10 17 -13 82 -13 79 0 86 2 86 20 0 11 4 20 9 20 5 0 9
10 10 23 1 50 3 63 14 92 6 17 18 35 27 42 8 7 11 13 7 13 -5 0 3 14 17 31 14
17 24 35 21 40 -4 5 0 23 8 41 8 18 22 60 31 93 9 33 21 74 26 91 6 17 10 36
10 43 0 7 7 29 16 49 9 21 23 51 30 69 8 17 15 43 16 58 1 14 8 31 14 36 8 6
11 2 9 -14 -4 -37 -65 -279 -81 -320 -8 -20 -23 -72 -35 -114 -19 -74 -19 -78
-3 -90 17 -12 17 -16 1 -61 -9 -26 -17 -56 -17 -68 0 -11 -4 -24 -9 -30 -4 -5
-11 -21 -15 -36 l-6 -28 130 0 c76 0 130 4 130 10 0 5 13 37 29 72 16 35 31
72 34 83 9 35 56 157 82 211 14 29 25 55 25 59 0 3 11 23 24 44 13 21 26 49
28 62 3 24 38 41 38 18 0 -7 -3 -9 -7 -6 -3 4 -13 -10 -20 -30 -13 -38 -18
-56 -29 -123 -4 -19 -14 -44 -24 -55 -9 -11 -23 -41 -31 -68 -7 -26 -16 -47
-20 -47 -4 0 -10 -11 -13 -25 -4 -14 -11 -25 -16 -25 -7 0 -19 -37 -25 -80 0
-3 -8 -16 -17 -30 -9 -14 -19 -35 -23 -47 -5 -20 -3 -23 19 -23 14 0 27 5 27
10 4 29 21 64 35 73 7 4 11 14 8 22 -4 8 -2 15 3 15 15 0 36 52 24 60 -6 3 -3
12 9 20 11 8 20 18 20 23 0 16 31 39 45 33 9 -3 15 0 15 9 0 8 4 15 10 15 16
0 38 65 33 94 -3 14 -9 26 -14 26 -5 0 -9 14 -9 30 0 48 17 34 24 -20 4 -27
11 -50 16 -50 6 0 10 6 10 13 0 8 7 28 16 46 10 19 13 42 9 60 -6 26 -4 29 20
27 21 -1 25 -5 20 -21 -3 -11 -13 -44 -21 -74 -8 -30 -19 -61 -25 -67 -6 -7
-7 -19 -3 -25 5 -9 10 -7 15 7 6 16 8 14 8 -9 1 -16 -3 -26 -9 -22 -6 4 -10
-8 -10 -28 0 -19 -13 -72 -30 -118 -37 -104 -38 -121 -7 -110 13 5 23 17 23
32 1 13 7 39 13 58 6 19 9 37 6 40 -2 4 5 8 16 8 10 1 19 -2 19 -8 0 -5 -5 -9
-11 -9 -6 0 -8 -7 -5 -17 9 -22 -13 -84 -36 -104 -38 -33 -22 -39 107 -39
l125 0 -1 703 0 702 -22 -45 c-12 -25 -28 -51 -34 -58 -7 -7 -13 -23 -13 -35
0 -12 -14 -40 -30 -61 -17 -22 -30 -43 -30 -48 0 -9 -37 -48 -45 -48 -3 0 -13
-7 -24 -17 -11 -9 -34 -18 -52 -20 -18 -2 -37 -9 -42 -16 -7 -9 -10 -9 -14 1
-4 10 -9 9 -24 -4 -11 -10 -19 -12 -19 -5 0 7 -10 10 -24 7 -33 -6 -39 22 -20
93 7 30 14 69 14 87 0 17 6 37 13 43 8 6 15 34 16 62 1 29 5 57 8 63 4 6 9 22
11 36 2 13 7 29 11 35 5 5 12 26 16 45 7 35 52 192 63 220 3 8 6 22 7 30 2 15
60 229 95 350 22 77 68 266 80 330 4 25 17 77 28 115 24 83 39 241 23 230 -7
-3 -11 2 -11 15 0 12 3 19 8 17 4 -3 8 33 9 79 1 46 -2 84 -6 84 -4 0 -13 -18
-20 -41z m0 -220 l-10 -34 4 35 c4 45 4 44 11 38 3 -3 1 -21 -5 -39z m-163
-350 c-2 -6 -8 -10 -13 -10 -5 0 -11 4 -13 10 -2 6 4 11 13 11 9 0 15 -5 13
-11z m72 -1733 c0 -3 -4 -8 -10 -11 -5 -3 -10 -1 -10 4 0 6 5 11 10 11 6 0 10
-2 10 -4z m-23 -48 c-3 -8 -6 -5 -6 6 -1 11 2 17 5 13 3 -3 4 -12 1 -19z m-11
-53 c-3 -8 -10 -15 -15 -15 -5 0 -4 11 2 25 12 25 23 16 13 -10z m-80 -62 c-3
-4 -6 -1 -6 6 0 7 -4 9 -10 6 -6 -4 -7 1 -3 11 6 15 7 15 15 -1 6 -9 7 -19 4
-22z m-6 -44 c0 -16 -4 -29 -10 -29 -5 0 -10 16 -10 36 0 21 4 33 10 29 6 -3
10 -19 10 -36z m-543 -21 c-3 -8 -6 -5 -6 6 -1 11 2 17 5 13 3 -3 4 -12 1 -19z"/>
<path d="M5031 2958 c-1 -15 4 -30 9 -33 12 -7 12 12 0 40 -8 18 -9 17 -9 -7z"/>
<path d="M4997 2930 c3 -11 9 -22 13 -25 5 -3 6 4 3 15 -3 11 -9 22 -13 25 -5
3 -6 -4 -3 -15z"/>
<path d="M5591 2414 c0 -11 3 -14 6 -6 3 7 2 16 -1 19 -3 4 -6 -2 -5 -13z"/>
<path d="M4621 2304 c0 -11 3 -14 6 -6 3 7 2 16 -1 19 -3 4 -6 -2 -5 -13z"/>
<path d="M4452 2298 c-7 -7 -12 -17 -12 -22 0 -6 5 -3 11 7 9 15 13 16 26 5
14 -11 15 -11 12 1 -7 20 -22 24 -37 9z"/>
<path d="M4526 2295 c-22 -23 -20 -32 2 -12 21 19 32 13 32 -16 0 -15 -5 -18
-21 -14 -15 4 -19 2 -15 -10 3 -8 6 -16 6 -19 0 -2 9 4 20 13 23 20 26 46 6
62 -11 9 -18 8 -30 -4z"/>
<path d="M4408 2284 c-2 -5 3 -25 13 -44 21 -41 25 -27 5 20 -7 18 -15 29 -18
24z"/>
<path d="M4591 2274 c0 -11 3 -14 6 -6 3 7 2 16 -1 19 -3 4 -6 -2 -5 -13z"/>
<path d="M4468 2223 c7 -3 16 -2 19 1 4 3 -2 6 -13 5 -11 0 -14 -3 -6 -6z"/>
<path d="M5375 1650 c-3 -5 -1 -10 4 -10 6 0 11 5 11 10 0 6 -2 10 -4 10 -3 0
-8 -4 -11 -10z"/>
<path d="M5450 1575 c0 -8 4 -15 10 -15 5 0 7 7 4 15 -4 8 -8 15 -10 15 -2 0
-4 -7 -4 -15z"/>
<path d="M1503 1531 c-35 -8 -63 -19 -63 -24 0 -8 56 0 75 11 6 4 17 5 27 4
14 -3 36 15 27 22 -2 1 -32 -4 -66 -13z"/>
<path d="M1298 1463 c7 -3 16 -2 19 1 4 3 -2 6 -13 5 -11 0 -14 -3 -6 -6z"/>
<path d="M1235 1451 c-6 -5 -21 -11 -35 -14 -19 -3 -17 -5 10 -5 19 -1 44 5
54 13 20 15 20 15 0 15 -11 0 -24 -4 -29 -9z"/>
<path d="M1140 1419 c0 -5 5 -7 10 -4 6 3 10 8 10 11 0 2 -4 4 -10 4 -5 0 -10
-5 -10 -11z"/>
<path d="M1108 1413 c7 -3 16 -2 19 1 4 3 -2 6 -13 5 -11 0 -14 -3 -6 -6z"/>
<path d="M945 1380 l-70 -18 53 1 c29 0 55 4 58 9 3 4 18 8 35 8 16 0 29 5 29
10 0 13 -22 11 -105 -10z"/>
<path d="M4850 1280 c-9 -6 -10 -10 -3 -10 6 0 15 5 18 10 8 12 4 12 -15 0z"/>
<path d="M4840 1256 c0 -2 7 -17 15 -32 l15 -29 -2 33 c-1 18 -8 32 -15 32 -7
0 -13 -2 -13 -4z"/>
<path d="M4887 1239 c4 -13 8 -18 11 -10 2 7 -1 18 -6 23 -8 8 -9 4 -5 -13z"/>
<path d="M4723 1232 c-9 -6 -10 -17 -2 -45 5 -20 12 -37 16 -37 3 0 3 6 0 14
-9 22 5 28 25 9 17 -15 27 -5 11 11 -5 4 -8 17 -8 29 0 23 -22 32 -42 19z m29
-17 c0 -5 -5 -11 -11 -13 -6 -2 -11 4 -11 13 0 9 5 15 11 13 6 -2 11 -8 11
-13z"/>
<path d="M4797 1233 c-13 -12 -7 -51 9 -57 10 -4 13 -2 7 7 -14 23 -13 47 3
47 9 0 12 -5 8 -12 -4 -7 -3 -8 5 -4 6 4 9 12 6 17 -7 11 -29 12 -38 2z"/>
<path d="M1085 850 c-3 -5 -1 -10 4 -10 6 0 11 5 11 10 0 6 -2 10 -4 10 -3 0
-8 -4 -11 -10z"/>
<path d="M875 780 c3 -5 8 -10 11 -10 2 0 4 5 4 10 0 6 -5 10 -11 10 -5 0 -7
-4 -4 -10z"/>
<path d="M770 748 c-35 -20 -35 -20 -5 -13 30 6 52 21 44 29 -2 2 -20 -5 -39
-16z"/>
<path d="M670 721 c0 -5 9 -7 20 -4 11 3 20 7 20 9 0 2 -9 4 -20 4 -11 0 -20
-4 -20 -9z"/>
<path d="M610 710 c-8 -5 -12 -11 -10 -14 3 -2 14 2 24 10 22 15 10 19 -14 4z"/>
<path d="M538 683 c7 -3 16 -2 19 1 4 3 -2 6 -13 5 -11 0 -14 -3 -6 -6z"/>
<path d="M5670 684 c-1 -36 -203 -229 -317 -302 -57 -37 -59 -40 -98 -257 -9
-50 -18 -98 -21 -107 -5 -16 3 -18 75 -18 78 0 87 3 82 33 -2 10 39 138 52
162 6 11 12 31 14 45 6 50 36 139 46 133 5 -3 6 3 3 15 -4 11 -2 23 4 27 6 4
10 -5 10 -22 1 -28 1 -28 16 7 8 19 13 43 11 55 -4 18 -4 18 -6 -2 0 -13 -8
-23 -16 -23 -20 0 -8 56 18 87 20 22 44 33 32 14 -3 -5 0 -13 7 -17 7 -4 10
-4 6 1 -4 4 0 21 9 36 12 20 23 27 35 23 10 -3 18 0 18 6 0 6 -4 8 -10 5 -5
-3 -10 -1 -10 4 0 6 10 12 23 12 16 1 18 2 5 6 -19 5 -25 23 -8 23 12 0 33 50
25 58 -3 3 -5 1 -5 -4z"/>
<path d="M401 646 c-10 -12 -8 -13 8 -9 12 3 21 9 21 14 0 14 -16 11 -29 -5z"/>
<path d="M206 611 c-4 -5 -14 -8 -24 -5 -13 5 -14 4 -4 -4 8 -5 13 -12 13 -16
-2 -10 3 -10 24 1 15 9 17 15 9 23 -8 8 -14 8 -18 1z"/>
<path d="M76 574 c-4 -10 -13 -13 -25 -9 -11 3 -23 1 -26 -6 -6 -8 -10 -7 -16
2 -6 10 -9 8 -9 -8 0 -27 14 -29 63 -8 25 10 35 20 31 30 -8 19 -10 19 -18 -1z"/>
<path d="M5610 475 c-10 -12 -10 -19 -2 -27 14 -14 17 -11 26 20 8 25 -5 29
-24 7z"/>
<path d="M5593 415 c-7 -8 -10 -20 -7 -28 3 -8 1 -18 -5 -22 -6 -3 -10 -21
-10 -38 1 -26 3 -27 6 -8 3 13 13 37 24 55 28 46 22 76 -8 41z"/>
<path d="M5818 374 c-5 -4 -8 -19 -8 -33 1 -23 2 -24 11 -8 11 19 9 53 -3 41z"/>
<path d="M3530 319 c0 -7 -10 -9 -25 -7 -16 4 -25 1 -25 -8 0 -23 19 -26 50
-7 32 19 39 33 15 33 -8 0 -15 -5 -15 -11z"/>
<path d="M5501 294 c0 -11 3 -14 6 -6 3 7 2 16 -1 19 -3 4 -6 -2 -5 -13z"/>
<path d="M5800 295 c0 -8 4 -15 10 -15 5 0 7 7 4 15 -4 8 -8 15 -10 15 -2 0
-4 -7 -4 -15z"/>
<path d="M3610 257 c0 -5 -7 -6 -16 -3 -22 8 -65 -4 -58 -16 4 -6 0 -14 -7
-19 -7 -4 -11 -10 -8 -14 7 -7 64 17 104 44 26 18 27 20 7 18 -12 -1 -22 -5
-22 -10z"/>
<path d="M5474 233 c-3 -10 -9 -28 -14 -39 -5 -12 -11 -43 -15 -70 -6 -47 -5
-48 9 -24 8 14 15 35 16 48 0 12 5 22 11 22 6 0 9 9 6 20 -3 11 -1 20 4 20 12
0 11 27 -1 35 -6 3 -13 -2 -16 -12z"/>
<path d="M5041 218 c-24 -11 -46 -28 -48 -39 -6 -20 -23 -27 -23 -9 0 6 -7 10
-15 10 -17 0 -20 -16 -5 -25 6 -4 8 -11 5 -16 -4 -5 -2 -9 3 -9 8 0 32 -42 32
-55 0 -3 -8 -5 -18 -5 -21 0 -40 20 -62 63 -7 15 -17 27 -22 27 -11 0 -10 -2
8 -45 8 -21 13 -43 11 -50 -3 -7 -36 -14 -84 -18 -105 -9 -127 -15 -112 -33 9
-11 48 -14 176 -14 l165 0 -7 30 c-4 19 -3 30 4 30 6 0 11 7 11 15 0 8 4 15 9
15 5 0 7 8 4 19 -3 10 0 22 5 25 6 3 8 15 5 26 -3 12 0 20 8 20 7 0 9 3 6 7
-4 3 0 17 8 30 14 21 14 23 -2 22 -10 0 -38 -10 -62 -21z"/>
<path d="M5820 210 c0 -5 5 -10 10 -10 6 0 10 5 10 10 0 6 -4 10 -10 10 -5 0
-10 -4 -10 -10z"/>
<path d="M3635 159 c-154 -70 -245 -115 -280 -139 l-30 -20 27 0 c14 0 29 6
31 13 4 9 6 9 6 0 1 -10 42 -13 171 -13 160 0 173 1 208 23 20 12 66 36 102
52 85 38 89 42 54 55 -33 12 -70 28 -97 42 -10 5 -23 6 -29 2 -7 -4 -8 -3 -4
4 6 10 -22 32 -41 32 -4 0 -57 -23 -118 -51z"/>
<path d="M3868 23 c6 -2 18 -2 25 0 6 3 1 5 -13 5 -14 0 -19 -2 -12 -5z"/>
</g>
</svg>
