<?xml version="1.0" standalone="no"?>
<!DOCTYPE svg PUBLIC "-//W3C//DTD SVG 20010904//EN"
 "http://www.w3.org/TR/2001/REC-SVG-20010904/DTD/svg10.dtd">
<svg version="1.0" xmlns="http://www.w3.org/2000/svg"
 width="735.000000pt" height="1043.000000pt" viewBox="0 0 735.000000 1043.000000"
 preserveAspectRatio="xMidYMid meet">

<g transform="translate(0.000000,1043.000000) scale(0.100000,-0.100000)"
fill="#000000" stroke="none">
<path d="M0 5215 l0 -5215 3675 0 3675 0 0 5215 0 5215 -3675 0 -3675 0 0
-5215z m7314 5050 c3 -8 1 -15 -3 -15 -5 0 -11 7 -15 15 -3 8 -1 15 3 15 5 0
11 -7 15 -15z m13 -41 c-3 -3 -12 -4 -19 -1 -8 3 -5 6 6 6 11 1 17 -2 13 -5z
m-3162 -204 c3 -5 16 -10 28 -10 16 0 18 -3 8 -9 -10 -7 -11 -13 -1 -31 7 -13
9 -36 6 -56 -4 -20 -2 -41 6 -53 9 -15 10 -23 1 -32 -8 -8 -8 -19 1 -40 8 -24
8 -32 -3 -38 -10 -7 -10 -13 -2 -29 15 -28 14 -98 -1 -122 -9 -14 -10 -25 -2
-37 6 -11 7 -32 3 -53 -5 -19 -6 -43 -3 -53 4 -13 -1 -20 -15 -24 -28 -7 -27
-31 2 -42 41 -16 51 -36 31 -66 -18 -28 -17 -28 -124 -4 -39 8 -46 14 -48 35
-1 14 5 32 13 40 14 14 15 50 2 84 -10 27 -16 210 -7 215 6 4 5 14 -2 25 -10
15 -9 23 7 41 14 16 16 23 8 26 -15 6 -17 39 -3 48 14 9 12 43 -2 48 -10 3
-10 13 0 52 9 33 10 51 2 59 -5 5 -10 16 -10 23 0 16 95 18 105 3z m215 -1310
c0 -33 -3 -40 -20 -40 -17 0 -20 7 -20 40 0 33 3 40 20 40 17 0 20 -7 20 -40z
m55 -24 c17 -12 16 -14 -12 -18 -25 -3 -29 -1 -25 14 5 22 12 22 37 4z m-15
-82 c0 -8 -4 -14 -10 -14 -5 0 -10 9 -10 21 0 11 5 17 10 14 6 -3 10 -13 10
-21z m-309 -64 c6 -16 18 -30 27 -30 8 0 13 -3 9 -6 -11 -11 -47 7 -47 25 0 9
-5 22 -12 29 -9 9 -9 12 1 12 6 0 17 -13 22 -30z m494 8 c32 -21 35 -27 35
-70 l0 -48 -40 0 c-39 0 -40 1 -40 35 0 30 -3 35 -22 35 -13 0 -18 4 -13 8 6
4 16 19 24 35 8 15 16 27 18 27 2 0 19 -10 38 -22z m-105 -23 c0 -8 -4 -15
-10 -15 -5 0 -10 7 -10 15 0 8 5 15 10 15 6 0 10 -7 10 -15z m220 -195 c0 -23
-10 -26 -28 -8 -18 18 -15 28 8 28 13 0 20 -7 20 -20z m-2183 -472 c-2 -13 -4
-3 -4 22 0 25 2 35 4 23 2 -13 2 -33 0 -45z m2103 -968 c0 -5 -5 -10 -11 -10
-5 0 -7 5 -4 10 3 6 8 10 11 10 2 0 4 -4 4 -10z m-983 -52 c-3 -8 -6 -5 -6 6
-1 11 2 17 5 13 3 -3 4 -12 1 -19z m-299 -1368 c7 0 10 -4 7 -10 -9 -14 -28
-12 -51 6 -18 15 -18 15 6 10 14 -3 31 -6 38 -6z m-971 -1752 c-3 -8 -6 -5 -6
6 -1 11 2 17 5 13 3 -3 4 -12 1 -19z m215 -128 c2 -22 0 -40 -4 -40 -5 0 -8
-18 -8 -40 0 -29 -4 -40 -15 -40 -8 0 -15 -4 -15 -10 0 -5 -18 -10 -40 -10
-22 0 -40 4 -40 9 0 11 58 61 71 61 5 0 9 7 9 15 0 8 5 15 10 15 6 0 10 18 10
40 0 22 4 40 9 40 5 0 11 -18 13 -40z m58 2 c0 -32 4 -39 30 -50 23 -11 30
-20 30 -43 0 -16 4 -29 9 -29 21 0 71 -59 71 -84 0 -14 4 -26 9 -26 17 0 71
-51 71 -67 0 -15 126 -143 141 -143 5 0 9 -2 9 -4 0 -12 -43 -76 -51 -76 -5 0
-10 -19 -10 -42 -1 -39 -2 -40 -8 -13 l-6 30 -28 -27 c-15 -16 -37 -28 -47
-28 -16 0 -20 -7 -20 -35 0 -42 -19 -85 -37 -85 -8 0 -23 -9 -35 -20 l-22 -20
32 0 c31 0 32 -2 32 -40 0 -29 -4 -40 -15 -40 -10 0 -15 -10 -15 -30 0 -20 -5
-30 -15 -30 -8 0 -15 -4 -15 -10 0 -5 -9 -10 -20 -10 -41 0 -18 -19 28 -23
l47 -3 -52 -2 c-40 -2 -53 -6 -53 -17 0 -12 -15 -15 -79 -15 -54 0 -80 -4 -84
-12 -3 -10 15 -12 79 -10 l84 3 0 -40 c0 -34 -3 -41 -20 -41 -16 0 -20 -7 -20
-36 0 -19 -7 -42 -15 -51 -9 -8 -19 -28 -22 -44 l-5 -29 -99 0 -99 0 0 -33 c0
-38 -6 -48 -26 -40 -8 3 -14 19 -14 39 0 27 -4 34 -20 34 -11 0 -20 5 -20 10
0 6 9 10 20 10 16 0 20 7 20 30 0 20 -5 30 -15 30 -11 0 -15 12 -15 50 0 42
-4 52 -25 66 -21 14 -25 24 -26 73 -1 46 -3 51 -9 26 -8 -30 -8 -30 -9 8 0 21
3 36 8 32 5 -3 11 5 13 17 l3 23 14 -24 c8 -15 9 -26 3 -30 -12 -7 -3 -71 10
-71 5 0 8 6 7 13 -4 18 20 95 31 102 15 9 12 35 -4 35 -18 0 -33 147 -17 163
14 14 15 157 1 157 -5 0 -10 7 -10 15 0 21 22 65 32 65 5 0 4 -9 -2 -19 -15
-29 -12 -61 5 -61 11 0 15 11 15 40 0 22 5 40 10 40 6 0 10 34 10 82 l0 81 40
39 c25 23 35 38 25 38 -8 0 -15 5 -15 10 0 6 16 10 36 10 20 0 48 9 64 20 25
18 28 26 34 110 7 80 10 90 27 90 15 0 19 -7 19 -38z m60 -2 c0 -22 -4 -40
-10 -40 -5 0 -10 18 -10 40 0 22 5 40 10 40 6 0 10 -18 10 -40z m2360 15 c0
-8 -4 -15 -10 -15 -5 0 -7 7 -4 15 4 8 8 15 10 15 2 0 4 -7 4 -15z m-25 -60
c-18 -15 -35 -51 -35 -74 0 -10 -6 -22 -12 -24 -10 -4 -9 -8 2 -16 14 -10 12
-13 -6 -10 -4 0 -10 -4 -13 -9 -4 -6 -20 -8 -41 -3 -30 6 -35 11 -37 39 -2 23
3 34 17 42 10 6 17 16 14 23 -7 20 42 67 71 67 14 0 25 6 25 13 0 6 6 1 14
-13 10 -19 10 -27 1 -35z m-2708 -67 c-3 -8 -6 -5 -6 6 -1 11 2 17 5 13 3 -3
4 -12 1 -19z m0 -80 c-3 -7 -5 -2 -5 12 0 14 2 19 5 13 2 -7 2 -19 0 -25z
m-10 -80 c-3 -8 -6 -5 -6 6 -1 11 2 17 5 13 3 -3 4 -12 1 -19z m-20 -435 c-2
-21 -4 -6 -4 32 0 39 2 55 4 38 2 -18 2 -50 0 -70z m-630 -9 c-3 -3 -12 -4
-19 -1 -8 3 -5 6 6 6 11 1 17 -2 13 -5z m663 -107 c0 -10 -4 -15 -10 -12 -5 3
-10 18 -10 33 0 21 2 24 10 12 5 -8 10 -23 10 -33z m-44 -208 c-3 -18 -1 -38
4 -44 8 -9 7 -27 -1 -59 -11 -46 -9 -94 6 -131 8 -18 7 -18 -8 -6 -9 7 -14 17
-11 22 3 5 0 9 -6 9 -9 0 -10 25 -6 88 8 105 15 152 23 152 3 0 3 -14 -1 -31z
m-656 -109 c0 -5 7 -10 15 -10 8 0 15 -8 16 -17 0 -11 3 -13 6 -5 5 14 33 17
33 3 0 -5 -6 -12 -12 -14 -7 -3 -3 -6 10 -6 12 -1 22 -6 22 -11 0 -6 11 -16
25 -22 14 -6 25 -16 25 -21 0 -5 7 -15 15 -21 8 -6 19 -26 24 -43 8 -26 7 -33
-5 -33 -8 0 -14 -7 -14 -15 0 -8 -4 -15 -9 -15 -12 0 -52 53 -74 95 -8 17 -27
44 -42 60 -14 17 -35 42 -46 58 -17 23 -18 27 -5 27 9 0 16 -4 16 -10z m790
-222 c0 -31 -4 -38 -20 -38 -17 0 -20 7 -20 39 0 34 3 40 20 38 16 -1 20 -8
20 -39z m-141 -85 c-1 -38 -1 -38 -9 -9 -8 27 -6 46 6 46 2 0 4 -17 3 -37z
m-531 -30 c-12 -15 -10 -16 14 -10 14 4 33 10 42 13 9 3 16 1 16 -5 0 -6 -5
-11 -12 -11 -6 0 -8 -3 -4 -7 4 -4 17 -8 29 -8 29 0 36 -35 8 -42 -11 -3 -19
-9 -16 -13 6 -9 -25 -23 -33 -15 -3 3 0 5 7 5 7 0 10 4 6 10 -3 5 -11 7 -19 4
-10 -4 -136 78 -136 89 0 2 25 4 56 5 51 1 55 0 42 -15z m522 -53 c2 21 4 27
7 15 2 -11 -3 -45 -11 -75 l-15 -55 1 85 c1 70 2 77 8 40 7 -44 7 -44 10 -10z
m0 -152 c0 -5 -7 -8 -15 -8 -15 0 -20 21 -8 33 7 7 23 -11 23 -25z m-18 -88
c3 -16 1 -30 -4 -30 -4 0 -8 14 -8 30 0 17 2 30 4 30 2 0 6 -13 8 -30z m-832
-551 c0 -39 1 -41 26 -36 17 3 22 1 16 -5 -6 -6 -8 -16 -5 -24 2 -7 0 -21 -6
-31 -10 -17 -10 -17 -11 0 0 9 -5 17 -10 17 -6 0 -10 -17 -10 -37 1 -21 -2
-49 -6 -62 -6 -20 -4 -23 9 -18 10 4 17 4 17 1 0 -2 -11 -9 -25 -14 -14 -5
-25 -16 -25 -25 0 -8 -7 -15 -16 -15 -12 0 -15 -6 -10 -25 4 -14 2 -25 -4 -25
-5 0 -10 6 -10 13 0 8 -3 7 -10 -3 -5 -9 -5 -19 1 -27 13 -15 4 -30 -33 -61
-15 -13 -28 -32 -28 -43 0 -10 -4 -19 -10 -19 -5 0 -7 -7 -4 -15 4 -10 0 -15
-15 -15 -12 0 -21 6 -21 15 0 8 -5 15 -11 15 -7 0 -8 -7 -4 -17 18 -43 18 -63
-1 -63 -15 0 -16 -2 -5 -9 11 -7 9 -10 -8 -16 -11 -3 -21 -13 -21 -21 0 -8 3
-13 8 -12 30 11 1 -42 -35 -60 -30 -17 -33 -15 -33 13 0 14 -4 25 -10 25 -5 0
-10 -12 -10 -26 0 -32 -25 -53 -61 -54 -26 0 -26 -2 -22 -48 3 -26 7 -54 10
-62 10 -25 11 -70 2 -64 -5 3 -9 -2 -9 -11 0 -11 -5 -15 -15 -11 -8 3 -15 1
-15 -4 0 -5 -7 -7 -15 -4 -10 4 -15 0 -15 -14 0 -11 6 -22 13 -25 7 -2 8 -8 3
-13 -5 -5 -11 -4 -13 4 -9 24 -25 12 -20 -15 7 -39 -2 -53 -34 -53 -27 0 -29
3 -29 40 0 34 3 40 21 40 18 0 20 5 18 46 -2 25 2 48 8 52 5 4 12 39 15 77 4
53 12 81 32 113 15 24 26 56 26 77 0 19 5 35 10 35 6 0 10 -7 10 -15 0 -36 24
-5 68 88 2 4 -8 7 -22 7 -21 0 -26 5 -26 24 0 34 10 56 25 56 14 0 19 -13 29
-71 5 -25 14 -39 31 -47 23 -11 25 -10 25 13 0 14 -4 25 -10 25 -6 0 -10 34
-10 82 0 45 3 78 7 75 3 -4 17 3 30 14 l23 22 26 -26 c15 -15 31 -27 35 -27
14 0 11 43 -4 65 -15 22 -11 115 4 115 5 0 9 11 9 24 0 14 20 45 51 80 40 43
59 56 80 56 27 0 29 -3 29 -41z m-103 -431 c-3 -8 -6 -5 -6 6 -1 11 2 17 5 13
3 -3 4 -12 1 -19z m-197 -264 c0 -8 -4 -12 -10 -9 -5 3 -10 10 -10 16 0 5 5 9
10 9 6 0 10 -7 10 -16z m-40 -114 c0 -5 -5 -10 -11 -10 -5 0 -7 5 -4 10 3 6 8
10 11 10 2 0 4 -4 4 -10z"/>
<path d="M4090 9976 c0 -2 7 -9 15 -16 12 -10 15 -10 15 4 0 9 -7 16 -15 16
-8 0 -15 -2 -15 -4z"/>
<path d="M4105 9420 c-3 -5 1 -10 10 -10 9 0 13 5 10 10 -3 6 -8 10 -10 10 -2
0 -7 -4 -10 -10z"/>
<path d="M2400 2920 c0 -5 7 -10 16 -10 8 0 12 5 9 10 -3 6 -10 10 -16 10 -5
0 -9 -4 -9 -10z"/>
<path d="M2480 2760 c0 -5 5 -10 11 -10 5 0 7 5 4 10 -3 6 -8 10 -11 10 -2 0
-4 -4 -4 -10z"/>
<path d="M2450 2614 c0 -17 25 -46 32 -38 3 2 3 16 0 29 -5 27 -32 35 -32 9z"/>
<path d="M2498 2433 c12 -2 32 -2 45 0 12 2 2 4 -23 4 -25 0 -35 -2 -22 -4z"/>
</g>
</svg>
