<?xml version="1.0" standalone="no"?>
<!DOCTYPE svg PUBLIC "-//W3C//DTD SVG 20010904//EN"
 "http://www.w3.org/TR/2001/REC-SVG-20010904/DTD/svg10.dtd">
<svg version="1.0" xmlns="http://www.w3.org/2000/svg"
 width="564.000000pt" height="1002.000000pt" viewBox="0 0 564.000000 1002.000000"
 preserveAspectRatio="xMidYMid meet">

<g transform="translate(0.000000,1002.000000) scale(0.100000,-0.100000)"
fill="#000000" stroke="none">
<path d="M4754 8051 c-39 -15 -95 -31 -124 -34 -98 -12 -204 -74 -540 -318
-151 -109 -180 -126 -398 -226 -238 -108 -290 -135 -349 -184 -67 -54 -75 -85
-44 -179 14 -44 21 -92 21 -142 l0 -76 -132 1 c-101 1 -161 -5 -248 -22 -69
-13 -141 -21 -180 -19 l-65 3 4 145 c2 114 0 148 -10 157 -21 17 -135 49 -238
68 -57 11 -95 23 -98 31 -6 16 -33 19 -33 4 0 -5 -13 -10 -29 -10 -58 0 -56 5
-56 -205 l1 -194 -46 -7 c-77 -11 -88 -19 -101 -69 l-11 -45 -83 0 c-46 0 -90
3 -99 6 -23 9 -20 27 4 21 14 -4 20 0 20 13 0 24 -24 42 -52 38 -20 -3 -24
-12 -36 -83 -21 -126 -25 -194 -12 -210 9 -10 8 -19 -1 -36 -8 -16 -10 -54 -6
-122 6 -111 -4 -157 -46 -224 -15 -24 -27 -55 -27 -71 0 -24 7 -32 43 -50 24
-12 66 -23 93 -26 27 -2 62 -7 77 -11 l28 -7 -41 -30 c-45 -33 -46 -37 -25
-77 16 -32 49 -45 76 -30 10 5 30 9 45 9 24 0 26 -2 20 -31 -3 -17 -6 -39 -7
-48 0 -12 -2 -11 -9 4 -7 16 -9 17 -9 3 -1 -9 4 -20 9 -23 10 -6 6 -43 -10
-80 -16 -37 -29 -90 -36 -143 -4 -29 -11 -55 -15 -58 -10 -6 -12 13 -9 94 1
44 -3 57 -23 78 l-25 24 -5 -22 c-4 -12 -2 -27 4 -34 7 -8 6 -14 -3 -17 -9 -4
-10 -8 -2 -14 6 -4 15 -19 19 -32 5 -18 9 -20 16 -10 10 16 12 -1 3 -25 -6
-15 -8 -15 -20 1 -11 16 -13 11 -12 -37 1 -74 -2 -118 -9 -102 -4 10 -8 10
-19 1 -9 -8 -14 -8 -14 -1 0 6 5 14 10 17 10 6 7 85 -7 180 -2 17 -7 55 -11
85 -14 104 -26 15 -24 -185 2 -229 -2 -261 -31 -270 -14 -4 -17 -8 -9 -12 17
-7 15 -48 -3 -67 -12 -12 -14 -28 -10 -68 5 -46 4 -50 -7 -33 -9 14 -15 84
-19 230 -3 116 -7 211 -8 213 0 1 -8 2 -16 2 -11 0 -15 -12 -15 -42 l-1 -43
-14 34 c-8 18 -15 49 -15 67 0 19 -4 34 -10 34 -5 0 -10 -4 -10 -10 0 -17 -17
-11 -48 15 -21 18 -42 25 -71 25 -23 0 -41 -4 -41 -9 0 -5 -19 -12 -42 -15
-36 -6 -40 -9 -25 -18 18 -9 18 -11 -2 -30 -12 -10 -37 -26 -56 -34 -40 -16
-131 -19 -141 -3 -3 6 -17 8 -30 5 -17 -5 -24 -2 -24 9 0 25 -35 17 -52 -13
-15 -24 -21 -27 -58 -24 -48 5 -69 -10 -95 -68 -16 -37 -21 -40 -57 -40 -31 0
-38 -4 -38 -19 0 -28 -23 -33 -160 -30 -110 2 -125 0 -128 -14 -2 -9 -12 -17
-22 -17 -11 0 -20 -10 -24 -25 -3 -13 -17 -41 -31 -61 -14 -20 -25 -45 -25
-54 0 -10 -9 -20 -20 -23 -15 -4 -20 0 -20 15 0 32 -25 15 -26 -18 -2 -97 -5
-114 -25 -132 -17 -17 -20 -32 -20 -97 0 -43 -4 -86 -10 -96 -5 -10 -10 -37
-10 -61 -1 -24 -7 -52 -13 -63 -5 -11 -9 -24 -8 -28 1 -4 -7 -26 -18 -49 -11
-23 -20 -62 -20 -86 0 -36 -5 -49 -31 -73 -37 -35 -46 -36 -52 -6 -2 12 -3 7
-1 -12 3 -27 -3 -39 -26 -61 -24 -22 -30 -36 -30 -69 0 -23 -4 -41 -10 -41 -5
0 -10 -11 -10 -25 0 -22 4 -25 40 -25 29 0 40 -4 40 -15 0 -12 13 -15 60 -15
45 0 62 -4 66 -15 8 -19 34 -19 34 0 0 13 26 15 170 15 l169 0 27 -27 c21 -21
29 -24 32 -13 3 8 12 20 21 27 12 10 13 12 2 13 -11 0 -11 3 -1 15 7 8 16 15
21 15 5 0 9 -7 9 -15 0 -12 13 -15 56 -15 45 0 62 5 86 25 24 20 40 25 88 25
52 0 64 -4 93 -30 41 -35 103 -42 110 -12 2 9 3 7 2 -5 -1 -12 3 -24 8 -26 16
-5 -29 -92 -97 -187 -33 -47 -64 -87 -68 -88 -4 -2 -8 -9 -8 -17 0 -16 -26
-39 -32 -28 -3 4 -3 3 -2 -4 4 -15 -20 -35 -30 -25 -5 4 -6 0 -4 -8 3 -13 -73
-114 -196 -259 -21 -25 -66 -62 -101 -81 -35 -20 -60 -40 -58 -47 3 -9 -8 -13
-36 -13 -46 0 -46 0 -55 -108 -6 -62 -8 -66 -80 -146 -69 -78 -128 -153 -186
-237 -71 -104 -216 -250 -238 -242 -11 5 -14 2 -9 -9 7 -19 -39 -62 -55 -52
-7 5 -9 2 -5 -8 3 -9 -3 -24 -14 -34 -19 -17 -19 -44 -19 -1251 l0 -1233 1597
0 c878 0 1594 2 1591 5 -2 3 -557 5 -1231 6 -721 0 -1227 4 -1227 10 0 5 12
11 28 15 15 3 32 7 37 9 6 1 -9 8 -32 14 -24 6 -43 16 -43 21 0 5 -11 21 -24
35 -21 22 -27 24 -43 14 -16 -9 -25 -8 -46 6 -26 17 -27 20 -27 111 0 56 -4
94 -10 94 -5 0 -10 9 -10 20 0 11 -5 20 -11 20 -7 0 -9 12 -5 33 4 22 1 40 -9
52 -11 16 -14 17 -15 4 0 -8 5 -20 12 -27 6 -6 8 -15 3 -19 -4 -5 -10 -2 -12
5 -7 19 -23 3 -23 -24 0 -15 -6 -24 -16 -24 -11 0 -14 -5 -10 -16 3 -8 1 -25
-6 -37 -11 -21 -11 -21 -18 -2 -5 13 2 39 20 75 15 30 44 93 63 140 20 47 52
123 71 170 20 46 36 88 36 92 0 5 9 27 19 51 18 39 89 209 131 317 19 48 56
133 95 215 13 28 44 94 69 149 25 54 46 100 46 102 0 19 154 331 213 432 40
68 52 82 73 82 14 0 54 17 89 37 70 40 95 78 73 112 -9 15 -7 24 10 48 11 16
20 38 19 48 -1 12 5 21 18 23 l20 4 -20 -16 c-19 -15 -19 -15 7 -16 42 0 61
27 81 113 16 66 17 81 5 107 -7 17 -21 33 -31 36 -13 4 -16 12 -11 27 11 37
71 148 127 234 28 45 57 89 63 99 12 21 26 -202 24 -394 -1 -67 2 -102 10
-102 7 0 10 84 8 285 -2 204 0 288 8 293 7 4 14 63 19 152 10 208 25 306 21
135 -4 -125 -4 -128 8 -64 6 37 11 116 11 178 0 103 4 126 20 101 3 -6 11 -10
17 -10 7 0 2 9 -10 20 -16 15 -22 33 -22 60 0 22 4 40 9 40 8 0 22 72 23 117
0 20 3 21 20 12 16 -9 18 -13 7 -20 -7 -4 -10 -11 -6 -16 10 -9 27 16 27 40 0
9 -7 17 -15 17 -8 0 -14 3 -14 8 4 21 -2 42 -10 38 -5 -4 -4 8 2 24 7 17 14
25 16 18 2 -7 10 3 17 22 12 32 13 30 7 -35 -6 -66 -5 -69 11 -52 10 9 22 33
27 52 6 19 13 34 17 32 4 -1 7 1 7 4 0 3 6 13 14 22 7 10 9 17 5 17 -5 0 -7
21 -5 46 2 37 0 45 -10 40 -8 -4 -7 -2 2 6 23 19 38 90 29 137 -5 27 -4 38 3
34 6 -4 8 0 4 10 -3 10 -2 17 3 17 6 0 10 7 10 15 0 8 8 15 18 15 14 0 15 -2
2 -10 -17 -11 -17 -11 28 -15 38 -3 41 6 9 29 l-22 17 22 -6 c17 -5 22 -3 17
8 -10 26 -44 28 -54 4 l-9 -22 -6 22 c-4 13 -13 19 -20 16 -11 -4 -12 0 -2 21
14 31 51 44 72 26 9 -7 18 -10 22 -6 3 3 15 -2 26 -11 11 -10 17 -12 13 -5 -6
10 -2 13 15 10 16 -2 25 -11 27 -25 2 -13 9 -23 17 -23 8 0 11 7 8 20 -4 16
-1 18 17 15 29 -6 39 -15 15 -15 -16 0 -15 -2 5 -20 l23 -20 -32 0 c-19 0 -30
-4 -26 -10 3 -5 15 -10 26 -10 22 0 23 -12 24 -152 0 -50 4 -89 10 -90 6 -2
11 8 12 22 1 14 4 45 7 70 2 25 5 53 5 63 2 33 18 17 25 -24 4 -28 17 -51 36
-69 17 -16 30 -38 30 -52 -1 -20 -2 -21 -11 -5 -17 29 -30 20 -23 -18 5 -27 3
-35 -9 -35 -22 0 -29 -28 -9 -39 13 -8 7 -10 -28 -11 -25 0 -40 4 -33 8 15 9
5 54 -11 49 -6 -2 -11 -16 -11 -30 1 -21 -4 -27 -22 -27 -12 0 -25 -4 -28 -10
-4 -6 7 -10 26 -10 30 0 31 -1 26 -32 -3 -18 -9 -42 -13 -52 -6 -16 -4 -18 9
-13 9 3 17 2 17 -3 0 -6 -8 -10 -17 -10 -15 0 -15 -2 -4 -9 9 -6 22 -6 34 1
32 17 44 -7 13 -27 -33 -22 -33 -31 1 -39 18 -5 31 -2 42 9 15 15 14 16 -13 9
l-29 -7 22 22 c11 11 21 27 21 34 0 26 20 -19 20 -46 0 -23 3 -27 19 -22 20 6
37 -11 35 -35 -1 -8 -2 -39 -3 -67 l-1 -53 -110 0 c-67 0 -110 -4 -110 -10 0
-6 43 -10 110 -10 l110 0 0 -50 c0 -47 -2 -50 -25 -50 -14 0 -25 -4 -25 -10 0
-5 14 -10 31 -10 l30 0 -2 -57 c-4 -86 -7 -93 -43 -93 -31 0 -32 -1 -28 -36 4
-34 3 -35 -16 -25 -11 6 -23 25 -27 42 l-7 32 -21 -33 c-16 -26 -18 -35 -8
-38 11 -4 11 -6 0 -13 -14 -9 54 -14 113 -10 25 2 27 -1 30 -41 2 -24 2 -100
0 -170 l-3 -128 -117 -1 -117 -2 110 -8 c169 -13 156 -28 154 163 0 100 3 163
10 167 5 4 14 18 19 31 l10 25 7 -27 c9 -34 28 -36 43 -5 11 20 12 20 11 2 -3
-44 1 -51 14 -33 8 9 11 32 9 53 -4 30 -8 36 -23 32 -10 -3 -20 0 -22 7 -2 6
-8 8 -12 4 -4 -4 -3 -13 3 -21 6 -7 8 -18 3 -25 -4 -8 -13 -2 -25 18 -23 40
-34 38 -39 -7 -2 -21 -4 14 -5 78 -2 90 1 118 11 122 23 8 32 -6 35 -53 6 -77
23 -68 30 15 4 49 7 55 23 50 15 -5 19 -1 19 15 0 19 -4 21 -30 15 -20 -4 -30
-3 -30 5 0 6 4 9 9 6 5 -4 14 6 19 21 7 18 11 22 11 11 1 -10 8 -18 16 -18 11
0 15 11 15 40 0 22 -4 40 -10 40 -5 0 -10 7 -10 15 0 8 4 15 9 15 15 0 7 55
-12 81 -14 19 -17 20 -12 5 6 -19 5 -19 -14 -2 -11 10 -24 15 -30 12 -5 -4 -9
3 -8 14 2 25 6 25 23 3 13 -17 15 -17 28 0 14 19 31 24 20 6 -7 -12 14 -59 27
-59 4 0 6 30 3 68 -2 42 -1 60 5 47 4 -11 6 -25 4 -32 -3 -8 11 -13 39 -16
l43 -4 -42 -1 c-30 -1 -43 -6 -43 -17 0 -9 6 -12 15 -9 8 4 15 1 15 -7 0 -7
-3 -9 -7 -6 -3 4 -12 -5 -20 -19 -16 -32 -16 -37 -2 -28 8 4 9 0 4 -15 -4 -12
-2 -21 4 -21 6 0 11 -20 11 -46 0 -37 3 -45 15 -40 8 3 19 -2 24 -12 6 -9 11
-12 11 -5 0 6 6 18 14 26 20 20 26 208 7 231 -11 13 -11 20 -3 28 9 9 12 8 12
-4 0 -9 10 -25 23 -35 14 -11 21 -26 19 -40 -2 -16 2 -23 12 -23 11 0 16 9 16
29 0 29 21 57 33 44 4 -3 7 1 7 10 0 24 -27 21 -41 -4 l-11 -21 -24 23 c-23
22 -31 40 -16 38 4 -1 9 0 12 1 16 6 52 6 56 -1 8 -14 33 2 27 17 -3 9 2 14
18 15 l24 1 -25 8 c-14 4 -20 9 -15 9 6 1 3 6 -5 11 -12 8 -9 10 13 10 16 0
26 -4 23 -8 -3 -5 4 -15 15 -22 10 -8 19 -26 19 -41 0 -16 7 -29 17 -34 15 -5
16 -4 6 6 -7 7 -13 22 -12 34 0 19 0 19 9 -1 5 -12 14 -25 20 -29 9 -6 9 -9 0
-15 -19 -12 -4 -40 21 -40 12 0 20 -3 17 -6 -9 -8 -57 -12 -56 -5 2 22 -5 38
-23 49 -17 11 -25 11 -45 -3 -41 -27 -21 -84 26 -72 11 3 18 1 14 -4 -3 -5 1
-9 8 -9 8 0 6 -5 -5 -11 -14 -8 -25 -5 -53 16 -34 26 -44 24 -21 -6 7 -9 18
-14 25 -11 7 2 12 0 11 -5 -4 -23 2 -43 14 -43 22 0 18 -38 -5 -46 -16 -5 -18
-8 -7 -15 19 -11 -31 -29 -84 -29 -31 0 -48 -6 -60 -21 -10 -11 -16 -24 -12
-27 3 -4 10 -1 14 6 4 7 32 16 62 21 30 5 65 14 79 19 14 5 111 13 215 17 105
4 204 9 220 10 119 13 149 14 138 9 -7 -3 -9 -12 -6 -20 3 -9 -2 -14 -18 -15
-17 -1 -14 -4 11 -9 l35 -7 -40 -2 c-22 -1 -35 -5 -29 -9 14 -9 13 -82 0 -82
-6 0 -3 -5 7 -11 25 -14 21 -32 -5 -26 l-23 6 23 -19 c22 -18 23 -40 1 -40 -6
0 -7 5 -4 10 3 6 1 10 -4 10 -16 0 -13 -18 4 -28 14 -7 13 -11 -6 -28 -12 -10
-19 -13 -14 -5 6 11 2 12 -21 7 -16 -4 -33 -11 -38 -16 -13 -13 2 -43 19 -36
8 3 15 1 15 -5 0 -6 -9 -9 -20 -7 -10 2 -20 -1 -22 -7 -5 -17 38 -17 55 -1 19
20 31 21 24 2 -5 -11 -1 -11 24 1 16 8 29 19 29 24 0 5 9 4 19 -3 15 -9 17
-16 9 -25 -5 -7 -8 -19 -5 -27 4 -11 -1 -13 -23 -11 -32 4 -49 -9 -24 -19 20
-8 8 -26 -17 -26 -28 0 -23 -29 6 -36 24 -6 35 -24 15 -24 -28 0 3 -60 32 -60
9 -1 9 -4 -3 -13 -8 -7 -23 -24 -33 -39 -17 -26 -17 -27 4 -30 l22 -3 -21 -24
c-21 -24 -30 -68 -11 -56 6 3 7 -1 4 -9 -8 -21 5 -20 23 2 8 9 11 11 7 3 -5
-10 -3 -13 9 -8 9 3 18 0 21 -9 4 -11 0 -13 -18 -8 -13 3 -27 1 -31 -5 -3 -6
-10 -9 -15 -6 -5 3 -19 1 -31 -6 -13 -6 -19 -7 -15 -1 9 16 -31 25 -51 12 -16
-10 -16 -10 2 -6 17 5 20 0 22 -29 2 -26 -2 -37 -17 -45 -16 -9 -20 -8 -20 5
0 8 5 14 11 12 6 -1 14 4 16 11 3 6 -3 12 -12 12 -9 0 -13 5 -10 10 3 6 0 10
-8 10 -18 0 -26 -29 -20 -64 6 -28 30 -35 52 -13 10 10 11 9 6 -5 -6 -15 -4
-16 19 -5 14 7 21 14 16 15 -13 5 -13 52 -1 52 5 0 8 -8 6 -17 -1 -10 0 -22 2
-26 10 -18 16 -250 7 -279 -3 -10 0 -18 6 -18 7 0 6 -5 -2 -14 -9 -9 -18 -11
-30 -5 -14 7 -21 3 -33 -20 -10 -20 -12 -32 -4 -36 6 -4 8 -13 5 -21 -3 -8 0
-14 6 -14 7 0 7 -4 0 -13 -7 -8 -8 -24 -3 -43 6 -21 4 -32 -8 -42 -14 -11 -13
-12 6 -7 15 4 25 0 32 -12 5 -10 13 -14 17 -10 4 4 -1 13 -11 21 -18 13 -18
14 3 20 14 5 22 17 25 39 2 18 4 7 3 -23 -1 -51 1 -56 31 -75 18 -11 32 -24
33 -29 0 -12 29 -34 60 -47 l24 -10 -24 -14 c-14 -8 -35 -19 -47 -24 -13 -6
-23 -12 -23 -15 0 -2 10 -2 23 0 13 2 7 -3 -13 -12 -33 -15 -157 -25 -475 -37
-61 -2 -80 -6 -80 -17 0 -10 18 -15 70 -16 240 -9 523 -45 541 -69 6 -8 16
-15 21 -15 6 0 23 -12 38 -26 31 -29 55 -25 56 8 1 22 1 22 8 -2 12 -42 23 -6
28 93 4 77 7 177 13 350 0 20 5 27 14 24 15 -6 15 15 1 83 -5 26 -4 31 4 20 9
-12 11 -10 11 12 0 15 -4 30 -10 33 -14 9 -12 49 3 64 9 9 12 87 11 327 0 192
3 314 9 314 5 0 4 7 -3 15 -9 10 -9 23 -1 47 5 18 12 67 15 108 3 53 2 63 -3
35 -7 -34 -8 -27 -9 40 0 52 3 71 8 55 4 -14 5 10 2 52 -3 48 -1 82 6 90 7 9
11 145 11 404 1 309 4 407 16 463 14 68 19 131 8 104 -2 -7 -11 -13 -19 -13
-10 0 -14 14 -14 50 0 28 -4 50 -10 50 -5 0 -10 -7 -10 -16 0 -13 -3 -14 -13
-5 -10 8 -17 7 -25 -1 -9 -9 -12 -6 -12 14 0 15 -6 29 -12 32 -7 3 -3 3 10 0
13 -3 22 -1 22 6 0 12 -96 110 -109 110 -4 0 -8 14 -9 31 -1 39 -8 46 -32 31
-16 -9 -28 -7 -67 13 -34 18 -71 27 -130 32 l-81 6 -5 -29 c-2 -16 -5 30 -5
101 0 72 -1 138 -1 148 -1 16 -10 18 -70 16 l-69 -2 -6 -66 c-3 -36 -6 -106
-5 -155 0 -63 -4 -92 -13 -97 -8 -5 -8 -9 -2 -9 13 0 26 -236 16 -295 l-7 -40
-18 47 c-10 26 -16 51 -13 56 3 5 1 22 -4 38 -6 23 -9 12 -10 -51 -4 -223 -10
-246 -60 -250 -55 -5 -53 -4 -39 -22 8 -9 9 -14 3 -10 -13 7 -24 -13 -24 -44
0 -24 38 -40 62 -28 10 5 15 16 12 24 -4 8 -1 15 5 15 6 0 11 -6 11 -14 0 -32
67 -35 80 -3 9 20 9 19 7 -8 -2 -24 -7 -31 -27 -33 -14 -2 -39 -10 -57 -18
-17 -8 -45 -14 -62 -14 -27 0 -31 -4 -36 -37 -10 -60 -12 -61 -25 -9 l-13 48
-42 -5 c-34 -5 -46 -2 -64 14 -17 16 -20 24 -10 35 14 17 46 18 52 2 4 -8 8
-4 13 10 6 21 8 22 30 7 30 -20 37 -19 25 3 -6 11 -6 24 0 33 12 20 11 32 -3
26 -9 -3 -13 10 -13 47 -2 181 -4 202 -25 203 -14 1 -20 -4 -20 -20 0 -18 -2
-19 -10 -7 -10 17 -15 14 -24 -17 -6 -19 -2 -25 18 -33 27 -10 35 -26 14 -28
-74 -9 -81 -9 -86 10 -2 10 -8 18 -12 18 -12 0 -20 -28 -10 -32 6 -2 5 -9 0
-18 -8 -13 -10 -12 -10 4 0 12 -5 16 -15 12 -22 -8 -19 0 16 35 29 30 31 30
36 10 6 -22 27 -28 38 -11 3 6 0 13 -9 16 -8 3 -12 12 -10 19 3 7 -8 21 -25
31 -17 10 -31 26 -31 36 0 15 9 18 59 18 41 0 65 -5 75 -16 15 -14 17 -14 22
1 4 9 2 34 -5 54 -13 43 -14 91 -3 107 4 6 16 16 27 22 18 10 17 11 -10 9 -27
-2 -30 1 -33 32 -3 32 -2 33 27 29 16 -2 28 -1 25 4 -3 4 -14 8 -25 8 -18 0
-19 8 -19 103 0 138 -4 150 -44 141 -41 -9 -48 -13 -39 -27 10 -16 10 -38 1
-58 -4 -9 -2 -21 4 -27 12 -12 -2 -15 -92 -16 -34 -1 -35 -2 -32 -38 2 -23 -1
-38 -7 -38 -6 0 -11 -5 -11 -11 0 -6 7 -9 15 -5 17 6 19 -2 6 -23 -8 -12 -13
-11 -30 10 -11 13 -20 20 -21 15 0 -6 10 -20 22 -33 15 -17 17 -23 7 -23 -8 0
-20 9 -27 20 -15 25 -31 26 -30 3 1 -10 -2 -31 -6 -46 -5 -21 -4 -28 6 -25 7
3 15 15 19 29 l6 24 8 -27 c4 -16 11 -28 16 -28 5 0 9 -11 9 -24 0 -13 6 -27
13 -29 7 -4 6 -6 -4 -6 -13 -1 -18 -18 -23 -91 -4 -49 -12 -93 -18 -96 -18
-11 -57 48 -58 86 -1 85 -28 105 -44 32 -8 -36 -13 -42 -35 -43 -37 -1 -94
-23 -99 -39 -5 -13 10 -12 50 5 12 5 18 3 18 -7 0 -7 14 -19 31 -25 45 -17 31
-36 -30 -40 -34 -2 -50 0 -46 7 3 6 -2 13 -12 17 -10 3 -33 22 -52 41 -33 33
-34 35 -18 61 8 14 17 31 19 36 1 6 8 9 15 9 7 -1 15 7 18 17 4 11 17 20 31
21 13 0 30 1 36 2 7 1 13 -6 13 -15 0 -8 7 -23 17 -32 14 -15 17 -15 22 -1 3
9 6 42 6 75 0 66 19 88 45 53 24 -34 27 -8 3 37 -24 48 -58 89 -45 56 4 -11
-5 -38 -23 -72 -16 -30 -26 -55 -21 -55 5 0 12 6 14 13 4 7 6 6 6 -4 1 -17
-21 -27 -73 -35 -32 -5 -49 -21 -39 -39 4 -5 -3 -2 -14 8 -11 9 -24 17 -30 17
-6 0 -17 7 -24 16 -11 13 -10 17 3 25 10 5 23 16 31 24 11 10 17 11 26 2 8 -8
11 -4 11 16 0 15 5 27 11 27 5 0 8 -4 4 -9 -3 -5 0 -13 6 -17 8 -5 8 -8 0 -14
-7 -4 4 -7 23 -8 26 -1 38 4 50 23 19 29 20 38 4 30 -7 -4 -2 2 11 13 20 16
22 22 12 40 -7 14 -8 22 -2 22 6 0 7 7 4 17 -5 11 -3 14 6 8 10 -6 11 -3 2 13
-11 20 -37 21 -51 1 -3 -3 -28 -9 -57 -13 -28 -3 -58 -8 -66 -12 -8 -3 -18 -1
-22 5 -3 6 -1 11 4 11 12 0 15 61 5 98 -4 12 -12 22 -19 22 -13 0 -39 49 -30
58 3 3 5 0 5 -6 0 -7 9 -12 20 -12 17 0 19 3 10 19 -5 11 -10 36 -10 56 0 22
-4 34 -10 30 -13 -8 -13 -2 1 29 9 19 9 29 0 40 -13 15 -6 106 8 106 4 0 7 12
7 28 1 74 2 74 38 70 19 -2 32 0 29 5 -3 5 4 6 16 2 11 -3 21 -2 21 3 0 7 56
7 92 0 6 -2 13 6 15 17 3 19 3 19 -5 1 -7 -15 -10 -17 -17 -6 -15 24 -16 70
-1 70 14 0 23 41 30 142 6 73 20 82 76 53 26 -14 29 -13 34 3 10 31 208 43
489 31 130 -6 269 -8 309 -5 40 3 88 7 106 8 17 1 32 5 32 10 0 5 20 17 45 28
42 18 62 50 33 50 -7 0 -1 8 15 18 20 12 27 25 27 48 0 27 -5 34 -31 43 -18 6
-41 11 -52 11 -31 0 -17 7 28 14 22 4 44 12 50 18 7 8 4 9 -12 5 -13 -3 -26 0
-30 5 -3 6 -2 9 3 6 5 -3 18 -2 29 3 14 5 7 8 -27 8 -27 1 -48 6 -48 12 0 6
-8 8 -19 4 -11 -3 -21 0 -24 9 -4 10 6 16 41 20 26 4 59 9 75 12 l27 6 0 167
c0 196 -10 244 -76 371 l-45 88 7 91 c6 76 10 92 25 96 11 4 19 14 19 24 0 19
-2 19 295 95 213 55 512 121 685 152 81 14 99 21 123 46 27 28 28 35 23 87 -3
31 -11 139 -17 241 -6 102 -12 200 -13 218 -1 19 2 31 8 29 6 -2 10 -14 8 -25
-2 -12 1 -22 5 -22 16 0 32 22 26 36 -6 16 15 46 27 39 5 -3 11 -1 15 5 3 5
15 10 26 10 27 0 79 55 79 85 0 34 -17 75 -32 75 -7 -1 -45 -13 -84 -29z m89
-10 c3 -12 -1 -21 -12 -25 -9 -3 -41 -14 -71 -26 -64 -24 -60 -23 -60 -7 0 7
25 21 56 31 38 12 58 24 61 37 6 22 18 17 26 -10z m-629 -387 c3 -8 2 -12 -4
-9 -6 3 -10 10 -10 16 0 14 7 11 14 -7z m13 -76 c-3 -8 -6 -5 -6 6 -1 11 2 17
5 13 3 -3 4 -12 1 -19z m-827 -385 c19 -27 25 -40 14 -31 -18 16 -59 78 -51
78 2 0 19 -21 37 -47z m-905 -3 c3 -5 1 -10 -4 -10 -6 0 -11 5 -11 10 0 6 2
10 4 10 3 0 8 -4 11 -10z m5 -30 c0 -5 -4 -10 -9 -10 -6 0 -13 5 -16 10 -3 6
1 10 9 10 9 0 16 -4 16 -10z m30 -102 c0 -112 -9 -210 -19 -204 -3 2 -5 72 -3
155 3 170 22 211 22 49z m956 39 c1 -15 8 -35 18 -45 22 -25 20 -32 -6 -32
-17 0 -19 3 -10 9 10 6 7 16 -16 41 -31 33 -32 63 -3 58 10 -2 16 -14 17 -31z
m-991 -141 c-4 -53 -11 -96 -16 -96 -10 0 -11 13 -9 85 1 51 18 120 27 111 3
-2 2 -48 -2 -100z m-585 -296 c0 -5 -4 -10 -10 -10 -5 0 -10 5 -10 10 0 6 5
10 10 10 6 0 10 -4 10 -10z m86 -480 c17 0 24 -6 24 -20 0 -16 -6 -18 -31 -15
-35 4 -42 9 -45 31 -2 10 3 14 13 10 8 -3 26 -6 39 -6z m564 -32 c56 5 662 -1
689 -6 19 -4 36 -13 39 -20 3 -9 -33 -12 -149 -12 -84 0 -150 -2 -147 -5 3 -3
68 -8 144 -10 77 -3 157 -6 179 -6 58 -2 -134 -27 -225 -29 -41 -1 -86 -6
-100 -10 l-25 -8 25 -2 c74 -7 -65 -15 -217 -12 -198 3 -239 21 -55 24 l117 1
-160 9 c-88 5 -172 9 -187 10 -17 1 -24 6 -21 15 6 15 16 16 93 15 46 -1 51 1
31 9 -14 5 -31 7 -38 4 -8 -2 -26 1 -41 9 -15 7 -33 11 -39 9 -7 -3 -13 0 -13
5 0 6 -10 13 -22 16 -13 2 6 2 42 -1 36 -3 72 -5 80 -5z m805 -28 c-3 -5 -13
-10 -21 -10 -8 0 -12 5 -9 10 3 6 13 10 21 10 8 0 12 -4 9 -10z m-1338 -46
c-1 -1 -21 -4 -44 -7 -36 -4 -43 -2 -43 13 0 15 5 16 45 7 25 -6 44 -11 42
-13z m440 -30 c-3 -3 -12 -4 -19 -1 -8 3 -5 6 6 6 11 1 17 -2 13 -5z m101 -1
c-16 -2 -40 -2 -55 0 -16 2 -3 4 27 4 30 0 43 -2 28 -4z m900 -134 c30 -23 16
-26 -16 -3 -20 14 -43 14 -215 4 -175 -11 -428 -15 -567 -10 -65 3 -188 25
-198 35 -4 4 213 4 482 1 463 -7 491 -8 514 -27z m-1057 -161 c0 -24 2 -53 5
-65 3 -20 -1 -23 -26 -24 -80 -4 -81 -3 -66 33 16 37 63 98 76 98 6 0 10 -19
11 -42z m9 -143 c0 -33 -13 -54 -24 -36 -5 8 -57 6 -82 -3 -14 -6 -40 11 -31
20 4 4 26 8 49 8 23 1 43 6 45 12 2 7 -2 12 -9 11 -7 0 -26 1 -43 2 -30 3 -30
3 -5 10 14 4 42 8 63 9 36 1 37 0 37 -33z m-460 -5 c0 -11 -4 -20 -10 -20 -5
0 -10 9 -10 20 0 11 5 20 10 20 6 0 10 -9 10 -20z m265 -339 c0 -27 -3 -47 -7
-45 -3 2 -11 -8 -17 -23 -10 -24 -10 -25 -5 -3 3 14 8 41 11 60 9 74 18 79 18
11z m-1345 -51 c0 -5 -18 -10 -40 -10 -22 0 -40 5 -40 10 0 6 18 10 40 10 22
0 40 -4 40 -10z m962 -58 c3 -9 1 -26 -3 -37 -6 -15 -8 -11 -8 18 -1 40 4 48
11 19z m368 -82 c0 -13 -1 -13 -10 0 -5 8 -10 22 -10 30 0 13 1 13 10 0 5 -8
10 -22 10 -30z m29 -5 c0 -5 -4 -3 -9 5 -5 8 -9 22 -9 30 0 16 17 -16 18 -35z
m881 -9 c0 -3 -4 -8 -10 -11 -5 -3 -10 -1 -10 4 0 6 5 11 10 11 6 0 10 -2 10
-4z m-5 -66 c3 -5 1 -10 -4 -10 -6 0 -11 5 -11 10 0 6 2 10 4 10 3 0 8 -4 11
-10z m68 -7 c-7 -2 -21 -2 -30 0 -10 3 -4 5 12 5 17 0 24 -2 18 -5z m-753 -52
c6 -13 8 -26 6 -29 -3 -3 -10 6 -15 19 -5 13 -10 18 -10 12 -1 -7 -12 -13 -26
-13 -13 0 -28 -7 -33 -16 -6 -11 -11 -13 -16 -5 -4 6 -1 11 6 11 8 0 6 5 -5
11 -13 8 -24 5 -44 -11 -18 -14 -29 -17 -33 -9 -4 6 -10 10 -14 10 -3 -1 -5 2
-3 6 1 4 15 8 32 10 16 2 38 9 50 17 11 8 37 13 57 12 29 -1 40 -6 48 -25z
m-39 -84 c-7 -7 -12 -5 -17 7 -4 11 -1 21 7 27 17 11 26 -18 10 -34z m99 23
c0 -5 -2 -10 -4 -10 -3 0 -8 5 -11 10 -3 6 -1 10 4 10 6 0 11 -4 11 -10z m147
-22 c-2 -7 0 -23 4 -35 5 -12 4 -25 -1 -28 -12 -7 -23 31 -15 55 3 11 9 20 12
20 2 0 3 -6 0 -12z m113 -43 c19 -19 28 -35 21 -35 -7 0 -11 -6 -8 -12 2 -7
-3 -18 -11 -24 -12 -9 -12 -13 3 -28 10 -9 15 -19 13 -22 -3 -2 -11 2 -18 11
-7 8 -20 15 -30 15 -26 0 -33 28 -9 35 25 8 25 25 -1 25 -16 0 -20 7 -20 35 0
22 5 35 13 35 7 0 28 -16 47 -35z m487 3 c-3 -8 -6 -5 -6 6 -1 11 2 17 5 13 3
-3 4 -12 1 -19z m-567 -23 c0 -8 -4 -15 -10 -15 -5 0 -7 7 -4 15 4 8 8 15 10
15 2 0 4 -7 4 -15z m694 -52 c3 -10 9 -24 12 -30 3 -8 -1 -13 -10 -13 -9 0
-16 3 -16 8 0 4 -3 17 -6 30 -7 26 11 30 20 5z m16 -72 c0 -17 -18 -21 -24 -6
-3 9 0 15 9 15 8 0 15 -4 15 -9z m-30 -26 c7 -9 10 -18 7 -21 -10 -11 -37 5
-37 21 0 19 14 19 30 0z m-70 -81 c0 -8 -5 -12 -10 -9 -6 4 -8 11 -5 16 9 14
15 11 15 -7z m-930 -24 c0 -5 -5 -10 -11 -10 -5 0 -7 5 -4 10 3 6 8 10 11 10
2 0 4 -4 4 -10z m732 -54 c2 -39 -1 -68 -9 -74 -18 -18 -28 7 -26 68 2 72 1
70 17 70 11 0 15 -17 18 -64z m-609 -88 c-2 -3 -26 -4 -55 -2 -62 5 -80 0 -72
-20 5 -12 10 -13 26 -5 11 6 22 8 25 5 11 -11 -20 -36 -43 -36 -21 0 -24 5
-24 35 0 30 3 35 23 35 16 0 18 3 9 9 -21 13 45 108 78 113 24 3 25 0 31 -62
3 -36 4 -68 2 -72z m-450 75 c-3 -7 1 -13 10 -13 19 0 30 -27 14 -33 -7 -2
-24 5 -39 16 -26 19 -26 21 -10 42 17 23 35 15 25 -12z m710 -51 c-10 -10 -17
-11 -27 -3 -7 6 -15 10 -17 8 -3 -1 4 6 14 15 14 14 21 15 31 5 11 -9 10 -14
-1 -25z m374 6 c-3 -7 -5 -2 -5 12 0 14 2 19 5 13 2 -7 2 -19 0 -25z m-1106
-26 c5 -24 2 -31 -12 -35 -14 -4 -21 2 -25 21 -3 15 -8 35 -11 44 -3 15 0 16
19 9 14 -5 25 -19 29 -39z m-36 -69 c9 -40 21 -70 27 -67 5 4 7 -7 4 -28 -4
-18 -7 -63 -9 -100 -1 -38 -6 -68 -11 -68 -4 0 -6 -7 -2 -15 3 -8 1 -15 -4
-15 -6 0 -10 4 -10 9 0 5 -9 13 -20 16 -11 3 -20 11 -20 18 0 8 3 8 12 -1 14
-14 38 -16 38 -3 0 5 -13 12 -30 16 -18 4 -30 13 -30 22 0 14 2 14 19 -1 22
-20 42 -14 40 12 -1 15 -2 15 -6 0 -2 -10 -8 -18 -13 -18 -12 0 -20 39 -20 98
0 76 21 67 36 -15 9 -49 16 -40 10 12 -8 75 -9 76 -20 72 -17 -6 -46 45 -45
78 0 17 3 24 6 18 11 -29 25 -11 19 25 -10 60 9 16 29 -65z m865 67 c0 -5 -2
-10 -4 -10 -3 0 -8 5 -11 10 -3 6 -1 10 4 10 6 0 11 -4 11 -10z m-275 -29 c3
-5 1 -12 -5 -16 -5 -3 -10 1 -10 9 0 18 6 21 15 7z m-35 -11 c0 -5 -2 -10 -4
-10 -3 0 -8 5 -11 10 -3 6 -1 10 4 10 6 0 11 -4 11 -10z m495 0 c-3 -5 -11
-10 -16 -10 -6 0 -7 5 -4 10 3 6 11 10 16 10 6 0 7 -4 4 -10z m393 -41 c-7 -5
-17 -9 -23 -9 -5 1 -2 5 8 11 9 5 18 20 18 32 2 21 2 21 6 -2 3 -13 -1 -27 -9
-32z m-33 31 c3 -5 1 -10 -4 -10 -6 0 -11 5 -11 10 0 6 2 10 4 10 3 0 8 -4 11
-10z m-714 -64 c5 -6 9 3 10 25 1 18 3 27 6 18 2 -9 12 -16 21 -14 9 1 11 0 5
-2 -27 -9 -11 -22 20 -17 l32 5 -25 -15 c-14 -8 -20 -15 -14 -16 6 0 17 -14
24 -31 8 -17 18 -28 26 -25 15 6 25 -16 14 -34 -12 -19 -61 -4 -53 16 5 14 3
15 -15 5 -12 -7 -22 -16 -22 -22 0 -6 -4 -7 -10 -4 -16 10 -11 22 13 30 22 8
22 8 -3 12 -21 3 -29 13 -41 56 -9 29 -13 59 -10 67 4 9 7 4 9 -15 2 -16 8
-34 13 -39z m665 36 c-17 -16 -18 -16 -5 5 7 12 15 20 18 17 3 -2 -3 -12 -13
-22z m-1320 -11 c-1 -34 -12 -32 -18 4 -3 16 -1 25 7 25 7 0 12 -12 11 -29z
m544 19 c0 -5 -2 -10 -4 -10 -3 0 -8 5 -11 10 -3 6 -1 10 4 10 6 0 11 -4 11
-10z m510 -10 c0 -5 -12 -10 -27 -9 l-28 1 25 8 c14 4 26 8 28 9 1 1 2 -3 2
-9z m87 4 c-3 -3 -12 -4 -19 -1 -8 3 -5 6 6 6 11 1 17 -2 13 -5z m70 -21 l6
-28 10 28 c5 15 13 27 18 27 13 0 11 -14 -3 -28 -10 -10 -6 -11 19 -6 20 4 33
2 38 -7 6 -9 3 -11 -8 -6 -10 4 -29 2 -43 -3 -17 -7 -32 -6 -46 1 -15 8 -19 8
-14 0 8 -13 -64 -5 -78 9 -5 5 0 7 12 3 14 -3 25 2 34 16 18 30 46 27 55 -6z
m-683 8 c3 -5 -1 -11 -9 -14 -9 -4 -12 -1 -8 9 6 16 10 17 17 5z m229 2 c-7
-2 -19 -2 -25 0 -7 3 -2 5 12 5 14 0 19 -2 13 -5z m202 -3 c-3 -5 -12 -10 -20
-10 -8 0 -17 5 -20 10 -4 6 5 10 20 10 15 0 24 -4 20 -10z m452 -16 c-3 -3
-12 -4 -19 -1 -8 3 -5 6 6 6 11 1 17 -2 13 -5z m-3147 -89 c10 -13 9 -15 -9
-15 -12 0 -21 6 -21 15 0 8 4 15 9 15 5 0 14 -7 21 -15z m2797 -134 l-6 -129
47 -6 c26 -3 63 -2 82 4 45 13 71 13 51 1 -7 -5 -9 -11 -4 -14 12 -8 53 3 53
13 0 12 149 17 154 5 2 -6 -24 -10 -68 -9 l-71 1 65 -7 c79 -8 55 -11 -159
-16 -79 -2 -146 -6 -149 -8 -9 -9 -9 -100 -1 -123 5 -12 4 -25 0 -27 -5 -3 -6
-26 -4 -50 6 -52 -2 -96 -19 -96 -8 0 -9 42 -4 149 l6 148 -56 2 c-32 0 -63
-4 -69 -9 -10 -8 -13 -4 -11 15 1 22 5 26 24 22 12 -2 25 0 28 4 3 5 14 9 25
9 10 0 19 6 20 13 0 10 2 10 6 0 2 -7 10 -13 18 -13 9 0 14 29 17 108 5 100
13 142 26 142 3 0 2 -58 -1 -129z m-94 55 c-4 -26 0 -42 17 -65 24 -34 24 -66
-1 -37 -7 10 -26 31 -42 48 -15 17 -25 34 -22 37 4 3 10 0 14 -8 10 -16 21 8
21 45 0 14 4 23 9 19 5 -3 7 -21 4 -39z m-1649 0 c-3 -14 -10 -24 -14 -21 -5
3 -3 16 3 29 15 31 20 27 11 -8z m1106 3 c0 -10 -4 -19 -9 -19 -12 0 -23 29
-15 41 8 14 24 0 24 -22z m-1210 -10 c0 -5 -4 -9 -10 -9 -5 0 -10 7 -10 16 0
8 5 12 10 9 6 -3 10 -10 10 -16z m1510 -49 c0 -15 -5 -17 -25 -12 -13 4 -25
10 -25 15 0 4 0 11 0 16 0 4 11 6 25 3 16 -3 25 -11 25 -22z m290 8 c0 -16 -3
-19 -11 -11 -6 6 -8 16 -5 22 11 17 16 13 16 -11z m-587 -70 c-2 -5 -12 -8
-21 -7 -11 0 -12 3 -4 6 6 2 13 23 13 46 l1 42 8 -40 c4 -22 6 -43 3 -47z
m352 42 c-3 -5 -10 -10 -16 -10 -5 0 -9 5 -9 10 0 6 7 10 16 10 8 0 12 -4 9
-10z m-840 -18 c-3 -3 -11 0 -18 7 -9 10 -8 11 6 5 10 -3 15 -9 12 -12z m861
-21 c-4 -5 -1 -12 4 -14 6 -3 5 -4 -2 -3 -15 3 -23 26 -8 26 6 0 9 -4 6 -9z
m-840 -63 c-13 -35 -22 -12 -11 30 4 18 9 22 14 13 5 -7 3 -27 -3 -43z m874 6
c0 -2 -7 -4 -15 -4 -8 0 -15 4 -15 10 0 5 7 7 15 4 8 -4 15 -8 15 -10z m-490
-4 c13 -8 13 -13 2 -30 -7 -12 -10 -29 -7 -39 4 -15 1 -17 -19 -14 -18 4 -25
13 -29 41 -4 19 -4 39 -1 44 7 11 35 10 54 -2z m447 4 c-3 -3 -12 -4 -19 -1
-8 3 -5 6 6 6 11 1 17 -2 13 -5z m-292 -94 c3 -5 1 -10 -4 -10 -6 0 -11 5 -11
10 0 6 2 10 4 10 3 0 8 -4 11 -10z m67 -21 c-20 -23 -23 -24 -15 -2 5 12 3 14
-8 8 -12 -7 -12 -6 -1 7 8 9 20 14 27 12 11 -5 10 -9 -3 -25z m441 -101 c2
-59 1 -105 -3 -103 -8 5 -24 65 -21 79 1 5 -5 6 -14 2 -9 -3 -21 -6 -26 -6 -5
0 -9 -10 -10 -22 -1 -17 -4 -13 -11 12 -5 19 -15 39 -21 43 -7 4 8 6 33 5 43
-3 45 -2 45 24 1 15 4 30 8 34 4 4 7 19 8 33 1 55 8 1 12 -101z m-340 88 c4
-10 1 -13 -9 -9 -7 3 -14 9 -14 14 0 14 17 10 23 -5z m-135 -21 c-3 -3 -9 2
-12 12 -6 14 -5 15 5 6 7 -7 10 -15 7 -18z m-61 -17 c-3 -8 -6 -5 -6 6 -1 11
2 17 5 13 3 -3 4 -12 1 -19z m398 12 c3 -5 -1 -10 -10 -10 -9 0 -13 5 -10 10
3 6 8 10 10 10 2 0 7 -4 10 -10z m7 -32 c-17 -8 -26 -8 -34 0 -9 9 -4 12 23
11 32 0 33 -1 11 -11z m-339 -65 c-6 -14 -8 -14 -14 3 -12 30 -10 37 5 24 8
-6 12 -19 9 -27z m-57 -201 c-13 -12 -21 17 -19 65 1 26 3 73 4 103 2 42 4 30
12 -53 5 -59 6 -111 3 -115z m73 115 c1 -5 -6 -1 -15 7 -8 9 -12 21 -8 28 5 8
10 6 15 -8 4 -10 8 -23 8 -27z m96 -16 c3 -5 1 -12 -5 -16 -5 -3 -10 1 -10 9
0 18 6 21 15 7z m-1668 -208 c3 -8 -5 -9 -31 -1 -19 6 -33 15 -31 19 7 10 58
-5 62 -18z m2456 -6 c3 -7 -4 -19 -15 -26 -11 -7 -17 -8 -14 -3 3 6 3 12 -1
15 -5 2 -2 2 5 1 6 -2 12 3 12 11 0 19 6 19 13 2z m254 -59 c-2 -13 -4 -3 -4
22 0 25 2 35 4 23 2 -13 2 -33 0 -45z m-2867 12 c-20 -12 -33 -1 -19 16 9 11
15 12 23 4 8 -8 7 -13 -4 -20z m2630 -16 c0 -2 -9 -4 -20 -4 -11 0 -20 4 -20
9 0 5 9 7 20 4 11 -3 20 -7 20 -9z m-116 0 c9 -3 16 -11 16 -17 0 -8 -3 -8
-11 0 -6 6 -18 9 -27 6 -10 -4 -13 -2 -8 5 8 14 9 14 30 6z m-916 -28 c3 -13
-1 -17 -14 -14 -11 2 -20 11 -22 22 -3 13 1 17 14 14 11 -2 20 -11 22 -22z
m-112 -13 c-10 -10 -19 5 -10 18 6 11 8 11 12 0 2 -7 1 -15 -2 -18z m-1648
-38 c0 -5 -7 -19 -14 -30 -13 -18 -14 -15 -14 30 0 45 1 48 14 30 7 -11 14
-24 14 -30z m2769 -77 c-3 -8 -6 -5 -6 6 -1 11 2 17 5 13 3 -3 4 -12 1 -19z
m-2065 -120 c26 -31 43 -60 38 -63 -6 -3 -14 -3 -20 0 -19 12 -10 -32 23 -107
18 -42 39 -83 46 -92 11 -13 11 -16 -1 -16 -9 0 -32 36 -57 89 -44 95 -47 111
-30 128 11 11 2 38 -24 65 -31 32 -57 72 -56 87 0 12 5 9 17 -9 9 -13 38 -50
64 -82z m96 -30 c16 -21 64 -141 69 -174 3 -18 0 -35 -6 -39 -8 -5 -10 1 -6
18 5 17 -3 43 -23 83 -16 33 -32 71 -36 86 -3 14 -14 29 -24 31 -14 4 -14 5
-1 6 9 0 21 -5 27 -11z m2012 -118 c0 -5 -5 -10 -11 -10 -5 0 -7 5 -4 10 3 6
8 10 11 10 2 0 4 -4 4 -10z m-90 -69 c0 -18 6 -31 15 -33 13 -2 12 -5 -4 -15
-17 -11 -20 -10 -19 5 1 9 -2 29 -5 45 -5 16 -3 27 3 27 5 0 10 -13 10 -29z
m160 15 c0 -2 -7 -7 -16 -10 -8 -3 -12 -2 -9 4 6 10 25 14 25 6z m-2040 -66
c0 -5 -4 -10 -9 -10 -6 0 -13 5 -16 10 -3 6 1 10 9 10 9 0 16 -4 16 -10z
m1923 -17 c3 -5 -8 -8 -25 -9 -20 -1 -25 2 -16 7 16 11 35 11 41 2z m-1882
-215 c-6 -17 -11 -40 -11 -52 0 -12 -5 -28 -10 -36 -8 -13 -11 -12 -24 5 -12
17 -16 18 -32 5 -16 -14 -17 -13 -10 5 4 11 12 42 18 69 8 39 12 46 20 33 13
-24 35 -21 44 6 4 13 9 17 11 9 3 -7 0 -27 -6 -44z m-128 -157 c-10 -17 -24
-31 -31 -31 -8 0 -12 3 -10 8 33 68 43 81 50 68 5 -9 1 -26 -9 -45z m2029 29
c-12 -11 -27 -20 -34 -20 -7 0 1 9 17 20 38 25 45 25 17 0z m-125 4 c-3 -3
-12 -4 -19 -1 -8 3 -5 6 6 6 11 1 17 -2 13 -5z m63 -36 c0 -4 -9 -8 -21 -8
-11 0 -18 4 -15 8 3 5 12 9 21 9 8 0 15 -4 15 -9z m-47 -60 c-10 -22 -11 -21
-10 10 0 22 3 30 10 23 7 -7 7 -18 0 -33z m82 22 c-5 -15 -3 -18 8 -14 8 3 18
1 22 -5 3 -7 -2 -11 -14 -11 -22 0 -37 -17 -26 -28 4 -4 10 -1 12 6 3 6 9 12
14 12 5 0 4 -8 -3 -19 -6 -10 -22 -18 -35 -18 -27 0 -28 1 -7 32 9 13 13 29 9
35 -7 12 2 30 16 30 6 0 8 -9 4 -20z m-2051 -54 c-6 -25 10 -44 21 -26 4 6 11
7 17 4 5 -3 -13 -19 -41 -36 -29 -16 -56 -26 -62 -23 -15 10 47 105 68 105 2
0 1 -11 -3 -24z m61 -6 c3 -5 1 -10 -4 -10 -6 0 -11 5 -11 10 0 6 2 10 4 10 3
0 8 -4 11 -10z m-1004 -1989 c-6 -11 -11 -29 -11 -41 0 -12 -4 -18 -10 -15 -5
3 -15 -5 -22 -19 -6 -14 -15 -26 -20 -26 -11 0 -13 -4 31 80 19 36 36 60 38
53 2 -7 0 -21 -6 -32z m19 -21 c0 -5 -5 -10 -11 -10 -5 0 -7 5 -4 10 3 6 8 10
11 10 2 0 4 -4 4 -10z m-114 -142 c-14 -24 -26 -39 -26 -35 0 12 44 86 48 82
2 -2 -8 -23 -22 -47z"/>
<path d="M2640 6109 c0 -5 9 -9 20 -9 11 0 20 2 20 4 0 2 -9 6 -20 9 -11 3
-20 1 -20 -4z"/>
<path d="M2908 6103 c7 -3 16 -2 19 1 4 3 -2 6 -13 5 -11 0 -14 -3 -6 -6z"/>
<path d="M2878 6053 c18 -2 45 -2 60 0 15 2 0 4 -33 4 -33 0 -45 -2 -27 -4z"/>
<path d="M1935 4340 c-3 -5 -1 -10 4 -10 6 0 11 5 11 10 0 6 -2 10 -4 10 -3 0
-8 -4 -11 -10z"/>
<path d="M1940 4308 c0 -9 5 -20 10 -23 13 -8 13 5 0 25 -8 13 -10 13 -10 -2z"/>
<path d="M3176 4294 c-22 -22 -20 -31 2 -11 10 10 22 14 27 10 4 -5 5 -2 1 5
-9 15 -11 15 -30 -4z"/>
<path d="M2940 3720 c0 -5 5 -10 11 -10 5 0 7 5 4 10 -3 6 -8 10 -11 10 -2 0
-4 -4 -4 -10z"/>
<path d="M2341 7764 c0 -11 3 -14 6 -6 3 7 2 16 -1 19 -3 4 -6 -2 -5 -13z"/>
<path d="M2334 7405 c0 -60 1 -84 3 -52 2 32 2 81 0 110 -2 29 -3 3 -3 -58z"/>
<path d="M2012 5750 c0 -14 2 -19 5 -12 2 6 2 18 0 25 -3 6 -5 1 -5 -13z"/>
<path d="M1974 5745 c-18 -14 -18 -14 4 -8 12 3 22 9 22 14 0 12 -3 11 -26 -6z"/>
<path d="M1808 5650 c-11 -24 -16 -130 -6 -136 4 -3 11 1 14 9 7 20 0 145 -8
127z"/>
<path d="M2770 5570 c0 -13 5 -20 13 -17 6 2 12 10 12 17 0 7 -6 15 -12 18 -8
2 -13 -5 -13 -18z"/>
<path d="M2780 5530 c19 -13 30 -13 30 0 0 6 -10 10 -22 10 -19 0 -20 -2 -8
-10z"/>
<path d="M2460 5500 c-6 -11 -8 -20 -6 -20 3 0 10 9 16 20 6 11 8 20 6 20 -3
0 -10 -9 -16 -20z"/>
<path d="M2321 5494 c-26 -18 -30 -88 -6 -98 30 -11 50 6 46 41 -2 17 13 23
29 13 12 -7 11 -12 -4 -28 -10 -11 -13 -23 -8 -26 5 -3 15 1 22 9 18 22 50 19
50 -5 0 -12 5 -17 14 -14 15 6 17 54 2 54 -4 0 -5 7 -2 16 3 8 2 12 -3 9 -5
-3 -12 4 -16 15 -7 22 -25 27 -25 8 0 -8 -4 -7 -10 3 -12 20 -61 22 -89 3z
m114 -44 c3 -5 1 -10 -4 -10 -6 0 -11 5 -11 10 0 6 2 10 4 10 3 0 8 -4 11 -10z
m-93 -25 c0 -5 -5 -11 -10 -13 -5 -1 -9 4 -9 13 0 9 4 14 9 13 5 -2 10 -8 10
-13z"/>
<path d="M2497 5443 c-6 -58 -3 -63 16 -27 14 27 15 27 21 6 10 -29 22 -28 40
6 l15 27 1 -32 c0 -18 5 -33 10 -33 13 0 13 87 0 95 -5 3 -18 -11 -28 -32 -17
-33 -20 -35 -26 -16 -4 11 -15 28 -25 37 -18 16 -19 15 -24 -31z"/>
<path d="M2661 5463 c0 -12 -7 -24 -13 -26 -7 -3 1 -6 17 -6 17 0 25 3 19 7
-7 4 -14 16 -17 27 -4 19 -5 19 -6 -2z"/>
<path d="M2759 5478 c0 -2 -3 -25 -6 -52 -3 -33 -1 -46 6 -41 6 3 11 13 11 21
0 19 34 18 50 -1 7 -8 17 -15 23 -15 6 0 2 6 -8 14 -18 13 -18 14 -1 32 18 17
18 18 0 31 -15 11 -72 19 -75 11z m66 -28 c0 -9 -11 -15 -27 -17 -22 -1 -28 3
-28 18 0 16 6 20 28 17 16 -2 27 -9 27 -18z"/>
<path d="M3130 5466 c0 -9 -7 -12 -18 -9 -21 5 -46 -20 -39 -39 4 -9 6 -7 6 3
1 20 31 33 44 20 15 -15 0 -41 -23 -41 -12 0 -18 -4 -15 -10 6 -9 42 -5 54 6
10 9 11 84 2 84 -6 0 -11 -6 -11 -14z"/>
<path d="M3385 5460 c-22 -24 -16 -54 12 -58 38 -6 54 58 18 72 -7 2 -21 -4
-30 -14z m38 -14 c3 -8 -1 -20 -9 -27 -13 -10 -17 -10 -24 1 -5 9 -5 20 2 27
14 17 25 16 31 -1z"/>
<path d="M3301 5456 c-20 -24 -10 -61 17 -60 12 0 22 -3 22 -8 0 -8 -15 -12
-37 -9 -7 1 -13 -3 -13 -9 0 -12 29 -13 47 -2 16 10 29 92 15 92 -6 0 -17 2
-25 5 -7 3 -19 -1 -26 -9z m39 -26 c0 -13 -7 -20 -20 -20 -19 0 -27 20 -13 33
13 14 33 6 33 -13z"/>
<path d="M3170 5451 c0 -5 5 -22 10 -37 8 -20 8 -29 -2 -35 -7 -4 -9 -11 -6
-14 16 -16 36 14 52 75 5 20 3 19 -8 -5 l-14 -30 -11 28 c-10 27 -21 36 -21
18z"/>
<path d="M2934 5442 c3 -5 0 -13 -6 -15 -9 -4 -10 -6 -1 -6 17 -1 25 16 12 25
-7 4 -9 3 -5 -4z"/>
<path d="M2977 5443 c-9 -9 -9 -41 1 -46 4 -3 7 8 7 24 0 16 0 29 -1 29 0 0
-4 -3 -7 -7z"/>
<path d="M3027 5430 c4 -14 -1 -26 -13 -35 -18 -13 -18 -14 4 -8 16 4 22 13
22 34 0 16 -4 29 -9 29 -5 0 -7 -9 -4 -20z"/>
<path d="M2425 5400 c-3 -5 -1 -10 4 -10 6 0 11 5 11 10 0 6 -2 10 -4 10 -3 0
-8 -4 -11 -10z"/>
<path d="M2662 5380 c0 -19 2 -27 5 -17 2 9 2 25 0 35 -3 9 -5 1 -5 -18z"/>
<path d="M3250 5390 c0 -5 5 -10 10 -10 6 0 10 5 10 10 0 6 -4 10 -10 10 -5 0
-10 -4 -10 -10z"/>
<path d="M2240 5334 c0 -8 5 -12 10 -9 6 3 10 10 10 16 0 5 -4 9 -10 9 -5 0
-10 -7 -10 -16z"/>
<path d="M2431 5314 c0 -11 3 -14 6 -6 3 7 2 16 -1 19 -3 4 -6 -2 -5 -13z"/>
<path d="M3248 5119 c-1 -49 -2 -99 -2 -110 -1 -17 6 -22 35 -25 32 -2 43 3
78 37 89 87 61 175 -57 184 l-52 4 -2 -90z"/>
<path d="M2445 5180 c3 -5 8 -10 11 -10 2 0 4 5 4 10 0 6 -5 10 -11 10 -5 0
-7 -4 -4 -10z"/>
<path d="M2419 5153 c-1 -4 -1 -12 0 -17 1 -5 -4 -5 -11 1 -20 16 -72 11 -76
-8 -1 -8 6 -26 18 -39 14 -16 20 -19 20 -8 0 19 58 17 71 -3 7 -11 9 -10 9 5
0 12 5 16 15 12 8 -3 15 -1 15 4 0 6 -8 10 -18 10 -13 0 -18 7 -18 21 1 20
-23 41 -25 22z"/>
<path d="M2963 5125 c0 -22 2 -30 4 -17 2 12 2 30 0 40 -3 9 -5 -1 -4 -23z"/>
<path d="M2329 5078 c-7 -30 -7 -48 0 -48 12 0 21 39 10 46 -5 3 -9 4 -10 2z"/>
<path d="M2953 5010 c-3 -11 -9 -20 -13 -20 -14 0 -18 -40 -6 -48 7 -4 15 -18
19 -31 4 -17 1 -24 -14 -28 -15 -4 -19 -13 -18 -42 2 -30 3 -31 6 -8 2 15 10
27 16 27 9 0 11 -21 9 -72 -2 -40 -1 -70 2 -67 11 10 15 44 21 179 4 94 3 130
-5 130 -7 0 -14 -9 -17 -20z"/>
<path d="M3012 4973 c-1 -29 -6 -53 -12 -53 -5 0 -10 -22 -10 -49 0 -28 5 -53
10 -56 6 -4 10 7 10 27 0 18 3 47 8 63 4 17 5 50 1 75 l-6 45 -1 -52z"/>
<path d="M3028 4863 c-3 -10 -3 -24 -1 -30 8 -23 18 -14 19 17 1 33 -11 41
-18 13z"/>
<path d="M2583 4705 c0 -22 2 -30 4 -17 2 12 2 30 0 40 -3 9 -5 -1 -4 -23z"/>
<path d="M2948 4667 c-5 -10 -8 -46 -7 -80 1 -57 2 -59 10 -29 12 40 8 137 -3
109z"/>
<path d="M2060 4385 c0 -8 2 -15 4 -15 2 0 6 7 10 15 3 8 1 15 -4 15 -6 0 -10
-7 -10 -15z"/>
<path d="M2098 4383 c7 -3 16 -2 19 1 4 3 -2 6 -13 5 -11 0 -14 -3 -6 -6z"/>
<path d="M2136 4364 c6 -2 9 -17 6 -33 -5 -38 12 -47 32 -16 15 23 15 25 -6
40 -12 8 -27 15 -33 14 -6 0 -6 -2 1 -5z"/>
<path d="M2195 4270 c-3 -5 -1 -10 4 -10 6 0 11 5 11 10 0 6 -2 10 -4 10 -3 0
-8 -4 -11 -10z"/>
<path d="M2124 4242 c-7 -4 -13 -16 -16 -27 -2 -11 -11 -20 -20 -20 -27 0 -45
-22 -30 -37 9 -9 12 -9 12 0 0 8 15 3 39 -12 l38 -25 7 46 c11 82 5 98 -30 75z"/>
<path d="M2185 4178 c-11 -50 -9 -108 4 -108 5 0 9 29 10 65 1 66 -4 83 -14
43z"/>
<path d="M2118 4085 c2 -14 8 -25 13 -25 5 0 9 11 9 25 0 14 -6 25 -14 25 -9
0 -12 -8 -8 -25z"/>
<path d="M30 4086 c0 -31 78 -36 105 -6 18 20 17 20 -43 20 -46 0 -62 -4 -62
-14z"/>
<path d="M2166 4025 c-3 -8 2 -19 13 -24 16 -9 17 -7 13 14 -5 28 -17 33 -26
10z"/>
<path d="M2055 4020 c-19 -8 -19 -9 3 -9 12 -1 22 4 22 9 0 6 -1 10 -2 9 -2 0
-12 -4 -23 -9z"/>
<path d="M1201 4004 c0 -11 3 -14 6 -6 3 7 2 16 -1 19 -3 4 -6 -2 -5 -13z"/>
<path d="M2105 4001 c-3 -5 -21 -7 -39 -4 -29 4 -35 2 -41 -17 -9 -29 9 -41
55 -38 30 3 35 6 34 28 -1 14 4 28 10 32 8 6 8 8 -1 8 -6 0 -14 -4 -18 -9z
m-15 -30 c0 -6 -4 -13 -10 -16 -5 -3 -10 1 -10 9 0 9 5 16 10 16 6 0 10 -4 10
-9z"/>
<path d="M2143 3993 c-19 -7 -16 -53 2 -53 8 0 15 6 15 14 0 8 10 16 22 18 22
3 22 3 -2 14 -14 6 -31 9 -37 7z"/>
<path d="M2748 3838 c-10 -26 20 -31 32 -5 10 20 10 21 -4 4 -14 -18 -14 -18
-18 0 -3 16 -4 16 -10 1z"/>
<path d="M1950 3806 c0 -20 2 -36 4 -36 8 0 12 61 4 66 -4 3 -8 -11 -8 -30z"/>
<path d="M2110 3795 c-10 -12 -10 -15 3 -15 23 0 47 11 47 21 0 15 -37 10 -50
-6z"/>
<path d="M2153 3776 c-33 -15 -28 -24 12 -24 32 0 34 2 23 17 -7 9 -12 16 -13
17 0 0 -10 -5 -22 -10z"/>
<path d="M1907 3773 c-4 -3 -7 -22 -7 -40 0 -20 -4 -32 -10 -28 -17 10 -11 -5
10 -27 11 -12 20 -31 20 -42 0 -12 4 -27 9 -35 8 -13 70 -25 116 -22 11 0 29
0 40 0 11 -1 34 -2 50 -3 26 -1 30 3 33 27 2 17 -2 27 -10 28 -7 1 -47 3 -88
5 -41 2 -81 6 -89 9 -9 3 -11 0 -7 -10 9 -24 0 -18 -30 22 -22 29 -27 45 -25
80 2 43 0 49 -12 36z"/>
<path d="M2795 3710 c3 -5 8 -10 11 -10 2 0 4 5 4 10 0 6 -5 10 -11 10 -5 0
-7 -4 -4 -10z"/>
<path d="M970 3639 c0 -5 5 -7 10 -4 6 3 10 8 10 11 0 2 -4 4 -10 4 -5 0 -10
-5 -10 -11z"/>
<path d="M3228 3553 c7 -3 16 -2 19 1 4 3 -2 6 -13 5 -11 0 -14 -3 -6 -6z"/>
<path d="M2757 3478 c-8 -30 0 -39 31 -32 37 9 38 11 17 34 -24 26 -41 25 -48
-2z"/>
<path d="M2833 3470 c2 -26 6 -30 30 -30 33 0 35 13 5 28 -18 8 -19 11 -5 11
27 1 20 21 -8 21 -21 0 -24 -4 -22 -30z"/>
<path d="M2550 3445 c0 -15 4 -24 10 -20 6 3 10 12 10 20 0 8 -4 17 -10 20 -6
4 -10 -5 -10 -20z"/>
<path d="M2720 3423 c0 -5 38 -9 85 -10 49 -1 85 2 85 7 0 6 -37 10 -85 10
-47 0 -85 -3 -85 -7z"/>
<path d="M2540 3385 c0 -9 -10 -20 -22 -25 -13 -5 -17 -9 -10 -9 6 -1 12 -7
12 -15 0 -14 29 -30 38 -21 3 3 0 5 -6 5 -7 0 -12 10 -12 23 0 15 3 18 9 9 5
-9 8 -3 9 17 0 17 -4 31 -9 31 -5 0 -9 -7 -9 -15z"/>
<path d="M1909 3367 c5 -5 28 -7 52 -5 l44 3 -52 5 c-29 3 -48 1 -44 -3z"/>
<path d="M3290 3370 c-8 -5 -10 -10 -5 -10 6 0 17 5 25 10 8 5 11 10 5 10 -5
0 -17 -5 -25 -10z"/>
<path d="M3298 3343 c7 -3 16 -2 19 1 4 3 -2 6 -13 5 -11 0 -14 -3 -6 -6z"/>
<path d="M3257 3314 c-4 -4 -7 -18 -7 -31 0 -12 -4 -23 -10 -23 -5 0 -10 9
-10 19 0 28 -20 37 -21 9 0 -13 -2 -30 -4 -38 -2 -12 5 -15 30 -12 28 3 34 9
39 35 6 30 -4 54 -17 41z"/>
<path d="M1895 3286 l30 -14 -25 -10 c-25 -11 -25 -11 7 -11 17 -1 35 4 39 11
10 15 -24 38 -55 38 -26 -1 -26 -1 4 -14z"/>
<path d="M2719 3299 c0 -2 -2 -15 -3 -29 -1 -14 -6 -36 -10 -49 -6 -18 -5 -22
5 -19 8 3 15 14 17 26 4 28 10 28 34 -3 28 -36 38 -31 38 20 0 25 -5 45 -11
45 -6 0 -10 -10 -9 -22 4 -41 0 -41 -30 -3 -16 21 -30 36 -31 34z"/>
<path d="M3132 3288 c-18 -18 -14 -46 7 -58 23 -12 51 -3 51 16 0 12 -4 12
-20 4 -16 -9 -22 -8 -27 6 -3 9 0 20 8 25 8 5 15 4 17 -1 6 -16 22 -12 22 5 0
18 -41 20 -58 3z"/>
<path d="M1987 3276 c-14 -11 -15 -16 -5 -24 23 -19 65 -24 89 -11 l23 12 -23
18 c-27 22 -59 24 -84 5z m61 -14 c2 -7 -3 -12 -12 -12 -9 0 -16 7 -16 16 0
17 22 14 28 -4z"/>
<path d="M2608 3283 c7 -3 16 -2 19 1 4 3 -2 6 -13 5 -11 0 -14 -3 -6 -6z"/>
<path d="M3040 3283 c0 -5 6 -15 12 -21 10 -10 10 -15 -2 -22 -8 -5 -11 -12
-7 -17 5 -4 12 -1 17 7 7 11 11 12 24 0 9 -7 20 -10 23 -6 4 4 1 11 -6 15 -10
7 -11 13 -2 30 13 23 2 28 -17 9 -8 -8 -15 -8 -27 2 -8 7 -15 8 -15 3z"/>
<path d="M2130 3270 l25 -8 -27 -1 c-31 -1 -37 -15 -12 -29 27 -15 55 -3 52
22 -2 15 -11 22 -33 23 -29 2 -29 2 -5 -7z"/>
<path d="M2830 3265 c-26 -32 13 -81 48 -59 34 22 22 74 -18 74 -10 0 -23 -7
-30 -15z m50 -25 c0 -13 -7 -20 -18 -20 -24 0 -32 8 -25 26 8 22 43 17 43 -6z"/>
<path d="M2950 3259 c-14 -25 2 -49 34 -49 30 0 44 16 38 46 -6 32 -56 34 -72
3z m50 7 c0 -2 -7 -7 -16 -10 -8 -3 -12 -2 -9 4 6 10 25 14 25 6z m-3 -37
c-14 -8 -22 -8 -30 0 -8 8 -3 11 19 11 25 -1 27 -2 11 -11z"/>
<path d="M2596 3255 c6 -15 80 -16 92 -2 8 9 -2 12 -43 12 -31 0 -51 -4 -49
-10z"/>
<path d="M2220 3253 c0 -5 11 -9 25 -9 14 -1 25 2 25 7 0 5 -11 9 -25 9 -14 0
-25 -3 -25 -7z"/>
<path d="M3383 3247 c-3 -7 -3 -9 2 -5 4 4 14 3 21 -3 7 -6 15 -6 18 -1 3 6
-3 12 -14 15 -11 3 -23 0 -27 -6z"/>
<path d="M3347 3239 c7 -7 15 -10 18 -7 3 3 -2 9 -12 12 -14 6 -15 5 -6 -5z"/>
<path d="M2530 3175 c0 -22 5 -35 13 -35 9 0 12 11 9 35 -2 19 -8 35 -13 35
-5 0 -9 -16 -9 -35z"/>
<path d="M2531 3022 c-1 -79 2 -103 12 -99 13 4 13 67 -2 152 -8 44 -9 39 -10
-53z"/>
<path d="M3346 3072 c-3 -6 1 -13 10 -16 23 -9 28 -2 10 13 -8 7 -17 8 -20 3z"/>
<path d="M2766 2963 c2 -20 6 -38 8 -40 2 -2 32 -2 67 0 47 2 58 5 42 11 -25
9 -31 31 -10 39 9 4 8 8 -3 16 -28 20 -43 13 -38 -19 4 -27 2 -30 -21 -29 -17
1 -20 3 -8 6 22 6 22 16 -1 36 -30 27 -42 21 -36 -20z"/>
<path d="M1963 2942 c-51 -8 -8 -52 51 -52 30 0 49 19 35 37 -15 18 -30 17
-23 -2 8 -19 -23 -32 -39 -16 -9 9 -9 14 2 20 17 11 3 18 -26 13z"/>
<path d="M2090 2921 c-15 -29 -13 -31 31 -31 36 0 40 2 29 16 -26 30 -48 36
-60 15z"/>
<path d="M3336 2891 c-3 -5 1 -14 9 -21 11 -9 14 -8 12 9 -1 22 -12 28 -21 12z"/>
<path d="M2287 2823 c-13 -12 -7 -60 8 -73 19 -16 47 -5 43 17 -2 10 -14 23
-28 30 -25 13 -21 17 15 14 17 -2 17 0 5 8 -17 12 -34 14 -43 4z m38 -53 c0
-22 -29 -18 -33 3 -3 14 1 18 15 15 10 -2 18 -10 18 -18z"/>
<path d="M2370 2773 c1 -42 2 -46 14 -30 7 9 25 17 40 17 36 0 36 37 0 50 -47
18 -54 14 -54 -37z m60 12 c0 -15 -43 -12 -48 3 -3 10 4 13 22 10 15 -2 26 -7
26 -13z"/>
<path d="M3167 2801 c-2 -10 -2 -31 0 -46 4 -19 11 -25 26 -23 11 2 23 9 25
17 3 10 0 12 -12 8 -10 -4 -16 -1 -16 7 0 8 7 16 15 20 8 3 15 10 15 15 0 6
-7 8 -15 5 -8 -4 -15 -1 -15 5 0 18 -17 12 -23 -8z"/>
<path d="M2470 2776 c0 -13 -3 -31 -6 -40 -3 -9 -2 -16 4 -16 5 0 13 10 16 23
l7 22 9 -22 c12 -30 22 -29 42 5 l17 27 1 -38 c0 -23 4 -36 10 -32 13 8 13 82
1 90 -5 3 -19 -7 -30 -21 -23 -29 -23 -29 -40 4 -15 29 -31 28 -31 -2z"/>
<path d="M3103 2793 c-35 -7 -31 -43 5 -43 19 0 23 -3 13 -9 -7 -5 -22 -6 -34
-3 -14 3 -18 1 -13 -6 8 -14 45 -15 65 -3 19 12 7 39 -21 44 -20 4 -19 4 5 6
16 0 26 5 22 11 -3 6 -9 9 -13 9 -4 -1 -17 -4 -29 -6z"/>
<path d="M2718 2749 c-26 -44 -29 -64 -6 -41 17 17 49 15 64 -5 12 -17 13 -16
14 5 0 13 -5 28 -10 35 -6 7 -16 20 -24 31 -12 17 -14 15 -38 -25z"/>
<path d="M2810 2740 c0 -22 5 -40 10 -40 6 0 10 18 10 40 0 22 -4 40 -10 40
-5 0 -10 -18 -10 -40z"/>
<path d="M2932 2771 c-7 -4 -28 -6 -47 -5 -34 3 -35 2 -35 -31 0 -19 5 -35 10
-35 6 0 10 11 10 25 0 16 6 25 15 25 9 0 15 -9 15 -25 0 -33 18 -32 22 2 4 39
28 42 28 4 0 -17 5 -31 10 -31 15 0 12 56 -3 68 -7 6 -18 7 -25 3z"/>
<path d="M2992 2760 c-10 -17 -9 -23 8 -40 22 -22 52 -15 64 15 16 43 -47 65
-72 25z m58 -9 c0 -5 -6 -13 -13 -19 -15 -13 -42 1 -33 17 8 13 46 15 46 2z"/>
<path d="M2590 2750 c0 -5 21 -10 46 -10 27 0 43 4 39 10 -3 6 -24 10 -46 10
-21 0 -39 -4 -39 -10z"/>
<path d="M3337 2743 c-11 -10 -8 -83 3 -83 6 0 10 20 10 45 0 46 -2 50 -13 38z"/>
<path d="M110 2620 c0 -5 5 -10 10 -10 6 0 10 5 10 10 0 6 -4 10 -10 10 -5 0
-10 -4 -10 -10z"/>
<path d="M6 2538 c-8 -26 -3 -46 12 -41 10 4 11 8 1 13 -6 5 -9 15 -6 24 4 9
4 16 1 16 -2 0 -6 -6 -8 -12z"/>
<path d="M2580 2430 c6 -11 12 -20 14 -20 2 0 2 9 -1 20 -3 11 -9 20 -15 20
-5 0 -4 -9 2 -20z"/>
<path d="M2541 2433 c-2 -23 11 -43 28 -43 15 1 15 2 0 13 -9 7 -18 19 -22 27
-3 8 -6 10 -6 3z"/>
<path d="M2610 2388 c-12 -22 -12 -22 6 -6 10 10 15 20 12 24 -4 3 -12 -5 -18
-18z"/>
<path d="M3270 2390 c-11 -7 -10 -12 5 -27 16 -16 18 -16 13 -1 -4 9 -2 18 5
21 7 2 7 6 1 10 -5 3 -16 2 -24 -3z"/>
<path d="M2575 2360 c-3 -5 -1 -10 4 -10 6 0 11 5 11 10 0 6 -2 10 -4 10 -3 0
-8 -4 -11 -10z"/>
<path d="M2600 2339 c0 -5 5 -7 10 -4 6 3 10 8 10 11 0 2 -4 4 -10 4 -5 0 -10
-5 -10 -11z"/>
<path d="M2279 2338 c-1 -2 -2 -18 -4 -36 -2 -24 3 -35 16 -43 11 -5 24 -7 29
-4 14 9 12 59 -2 73 -10 10 -36 17 -39 10z m41 -30 c0 -13 -23 -5 -28 10 -2 7
2 10 12 6 9 -3 16 -11 16 -16z m-9 -31 c-1 -12 -15 -9 -19 4 -3 6 1 10 8 8 6
-3 11 -8 11 -12z"/>
<path d="M2582 2320 c0 -14 2 -19 5 -12 2 6 2 18 0 25 -3 6 -5 1 -5 -13z"/>
<path d="M3234 2315 c-16 -24 -16 -27 -1 -42 14 -15 20 -15 42 -3 19 10 25 21
23 39 -4 37 -41 40 -64 6z m44 -12 c-5 -25 -28 -28 -28 -4 0 12 6 21 16 21 9
0 14 -7 12 -17z"/>
<path d="M2360 2286 c0 -25 5 -46 10 -46 6 0 10 7 10 15 0 11 8 15 27 13 20
-2 28 2 31 16 5 23 -5 32 -45 41 l-33 7 0 -46z m58 7 c2 -8 -5 -13 -17 -13
-12 0 -21 6 -21 16 0 18 31 15 38 -3z"/>
<path d="M2748 2313 c7 -3 16 -2 19 1 4 3 -2 6 -13 5 -11 0 -14 -3 -6 -6z"/>
<path d="M3068 2302 c-9 -34 3 -72 23 -72 10 0 21 5 24 10 3 6 -3 10 -14 10
-28 0 -27 18 2 30 12 5 16 9 8 9 -8 1 -19 8 -26 17 -11 15 -12 15 -17 -4z"/>
<path d="M3194 2293 c-7 -26 -7 -26 -15 -5 -5 12 -13 22 -19 22 -13 0 -13 -3
2 -35 10 -22 9 -28 -2 -35 -8 -5 -11 -12 -8 -16 12 -11 38 4 47 28 19 52 22
68 12 68 -6 0 -14 -12 -17 -27z"/>
<path d="M2460 2286 c0 -13 -3 -31 -6 -40 -9 -25 12 -19 24 7 8 17 11 18 11 5
1 -29 23 -32 42 -7 l19 24 0 -34 c0 -46 14 -30 17 20 2 47 -19 53 -40 12 l-15
-27 -16 32 c-20 38 -36 41 -36 8z"/>
<path d="M2590 2281 c-16 -32 -12 -36 35 -39 54 -3 60 13 9 22 -25 5 -34 11
-30 22 8 21 -2 17 -14 -5z"/>
<path d="M2678 2289 c-9 -6 -8 -10 4 -14 10 -4 22 -4 28 0 6 4 10 -7 10 -29 0
-19 5 -38 10 -41 6 -4 10 8 10 29 0 28 4 35 23 38 12 2 20 7 17 13 -6 12 -85
14 -102 4z"/>
<path d="M2976 2274 c-32 -32 -8 -65 40 -56 20 4 24 10 24 38 0 29 -3 34 -24
34 -14 0 -32 -7 -40 -16z m44 -18 c0 -8 -5 -18 -11 -22 -14 -8 -33 11 -25 25
10 16 36 13 36 -3z"/>
<path d="M2805 2272 c-9 -10 -5 -72 5 -72 6 0 10 11 10 25 0 24 9 30 38 26 6
-1 12 2 12 7 0 10 -57 22 -65 14z"/>
<path d="M2881 2261 c-16 -29 -13 -41 12 -50 33 -13 59 5 55 37 -4 35 -51 44
-67 13z m43 1 c3 -5 -1 -9 -9 -9 -8 0 -12 4 -9 9 3 4 7 8 9 8 2 0 6 -4 9 -8z
m3 -33 c-14 -8 -22 -8 -30 0 -8 8 -3 11 19 11 25 -1 27 -2 11 -11z"/>
<path d="M1891 2224 c0 -11 3 -14 6 -6 3 7 2 16 -1 19 -3 4 -6 -2 -5 -13z"/>
<path d="M1750 2193 c0 -119 44 -326 57 -271 9 37 120 60 353 73 52 3 129 14
170 24 77 20 77 22 0 26 -279 17 -354 30 -447 76 -34 17 -78 48 -97 70 l-36
39 0 -37z m239 -189 c9 -8 -115 -2 -134 6 -13 6 7 7 55 3 41 -3 77 -7 79 -9z"/>
<path d="M2560 2160 c0 -11 4 -20 9 -20 5 0 7 9 4 20 -3 11 -7 20 -9 20 -2 0
-4 -9 -4 -20z"/>
<path d="M2525 2041 c-16 -7 -12 -9 20 -13 45 -6 64 0 44 13 -17 10 -37 10
-64 0z"/>
<path d="M2477 2009 c8 -8 16 -8 30 0 16 9 14 10 -11 11 -22 0 -27 -3 -19 -11z"/>
<path d="M2616 1958 c9 -57 14 -61 14 -10 0 22 -5 44 -10 47 -7 4 -8 -8 -4
-37z"/>
<path d="M2340 1926 c0 -9 5 -16 10 -16 6 0 10 4 10 9 0 6 -4 13 -10 16 -5 3
-10 -1 -10 -9z"/>
<path d="M3340 1922 c0 -5 7 -13 16 -16 10 -4 14 -1 12 6 -5 15 -28 23 -28 10z"/>
<path d="M1775 1889 c8 -27 36 -86 65 -138 20 -37 89 -111 102 -111 4 0 8 7 8
15 0 8 5 15 10 15 6 0 10 14 10 30 0 25 4 30 24 30 42 0 76 -18 70 -35 -5 -13
-2 -15 21 -9 24 6 26 4 21 -14 -6 -18 -2 -21 36 -26 83 -10 114 -15 188 -30
41 -8 113 -15 160 -16 129 -1 127 0 137 -83 12 -95 8 -107 -31 -107 -60 0
-135 13 -130 22 3 5 -5 6 -19 3 -13 -4 -46 0 -73 8 -27 9 -81 25 -121 37 -39
12 -74 28 -77 35 -5 14 -103 65 -123 65 -6 0 -14 8 -17 17 -5 12 -10 13 -18 5
-13 -13 6 -42 28 -42 8 0 14 -4 14 -9 0 -18 143 -82 261 -116 147 -43 322 -60
498 -51 63 4 116 8 118 10 2 2 1 16 -3 32 -6 25 -8 26 -15 9 -7 -17 -8 -18 -8
-2 -1 9 -5 17 -10 17 -5 0 -11 22 -13 49 -1 27 0 47 5 44 11 -7 8 12 -4 24 -8
8 -8 17 0 31 8 14 8 23 1 27 -6 4 -9 2 -8 -3 2 -5 -8 -19 -22 -30 -20 -17 -23
-23 -12 -33 6 -7 12 -32 12 -56 l0 -43 -76 0 c-71 0 -75 1 -69 20 4 12 0 31
-9 45 -9 13 -16 40 -16 60 0 19 -4 35 -10 35 -5 0 -10 5 -10 11 0 5 5 7 10 4
6 -3 10 -2 10 4 0 5 -4 12 -9 15 -11 7 -2 46 11 46 5 0 7 -8 3 -19 -3 -12 0
-21 10 -25 19 -7 20 14 1 39 -14 19 -15 19 -35 1 -11 -10 -18 -23 -15 -27 3
-5 0 -9 -5 -9 -16 0 -13 16 4 34 8 8 13 20 10 28 -2 7 -6 30 -8 51 -5 42 -19
63 -37 52 -8 -5 -7 -11 2 -23 11 -12 11 -16 0 -20 -10 -3 -10 -7 0 -19 7 -9
13 -28 14 -43 l2 -28 -85 4 c-81 3 -85 3 -80 -16 3 -13 0 -20 -8 -20 -8 0 -15
10 -17 23 -2 18 -9 22 -36 20 -22 -1 -32 3 -29 11 3 8 -8 12 -32 13 -75 3
-101 7 -101 15 0 5 -4 7 -8 4 -5 -3 -28 2 -52 10 -62 22 -279 32 -290 14 -11
-18 -68 40 -94 94 -20 43 -42 60 -31 25z m752 -235 c-3 -3 -12 -4 -19 -1 -8 3
-5 6 6 6 11 1 17 -2 13 -5z m123 -19 c0 -8 -4 -15 -10 -15 -5 0 -7 7 -4 15 4
8 8 15 10 15 2 0 4 -7 4 -15z m195 -195 c-3 -5 -12 -10 -20 -10 -8 0 -17 5
-20 10 -4 6 5 10 20 10 15 0 24 -4 20 -10z"/>
<path d="M2540 1859 c0 -5 5 -7 10 -4 6 3 10 8 10 11 0 2 -4 4 -10 4 -5 0 -10
-5 -10 -11z"/>
<path d="M2630 1861 c0 -6 5 -13 10 -16 6 -3 10 1 10 9 0 9 -4 16 -10 16 -5 0
-10 -4 -10 -9z"/>
<path d="M3621 1810 c-27 -51 -93 -107 -77 -65 4 12 -4 14 -45 14 -42 -1 -48
-4 -37 -16 10 -12 9 -18 -6 -28 -18 -13 -13 -41 5 -30 5 4 9 0 9 -8 0 -19 -32
-17 -44 2 -7 12 -11 11 -22 -4 -8 -10 -14 -13 -14 -7 0 12 -34 11 -46 -1 -4
-4 -13 1 -19 10 -9 13 -10 22 -2 35 18 27 4 30 -67 13 -37 -8 -88 -15 -114
-15 -42 0 -101 -11 -142 -27 -8 -3 -34 -5 -57 -4 -32 2 -43 -1 -43 -12 0 -8 7
-17 15 -21 8 -3 15 -9 14 -13 -4 -26 8 -30 101 -37 77 -5 107 -3 128 8 33 17
262 32 262 17 0 -22 -53 -69 -112 -100 -83 -44 -125 -58 -238 -82 -89 -18
-121 -31 -108 -44 7 -7 154 27 243 56 65 21 215 107 265 152 16 15 33 27 37
27 24 1 136 160 131 186 -3 17 -5 16 -17 -6z m-151 -170 c0 -5 -2 -10 -4 -10
-3 0 -8 5 -11 10 -3 6 -1 10 4 10 6 0 11 -4 11 -10z"/>
<path d="M2813 1703 c-18 -6 -16 -50 2 -57 21 -8 45 3 45 21 0 11 -7 13 -25 9
-25 -6 -36 8 -12 17 6 2 10 7 7 9 -3 3 -11 3 -17 1z"/>
<path d="M2568 1543 c7 -3 16 -2 19 1 4 3 -2 6 -13 5 -11 0 -14 -3 -6 -6z"/>
<path d="M2902 1500 c0 -19 2 -27 5 -17 2 9 2 25 0 35 -3 9 -5 1 -5 -18z"/>
<path d="M3640 1095 c0 -19 35 -55 53 -54 6 0 2 5 -10 11 -26 12 -31 48 -8 48
8 0 15 -6 15 -14 0 -22 23 -24 44 -4 29 26 66 24 67 -4 0 -22 1 -22 9 -3 4 11
4 24 0 29 -11 11 -102 -3 -95 -15 4 -5 1 -9 -4 -9 -6 0 -11 7 -11 15 0 10 -10
15 -30 15 -20 0 -30 -5 -30 -15z"/>
<path d="M3747 1076 c-4 -10 -1 -13 9 -9 15 6 19 23 5 23 -5 0 -11 -7 -14 -14z"/>
<path d="M3770 1050 c-9 -6 -10 -10 -3 -10 6 0 15 5 18 10 8 12 4 12 -15 0z"/>
<path d="M1818 93 c7 -3 16 -2 19 1 4 3 -2 6 -13 5 -11 0 -14 -3 -6 -6z"/>
<path d="M1820 50 c-9 -6 -10 -10 -3 -10 6 0 17 -2 25 -5 7 -3 22 1 33 9 19
15 19 15 -10 16 -16 0 -37 -5 -45 -10z"/>
<path d="M3208 3 c6 -2 18 -2 25 0 6 3 1 5 -13 5 -14 0 -19 -2 -12 -5z"/>
</g>
</svg>
