<?xml version="1.0" standalone="no"?>
<!DOCTYPE svg PUBLIC "-//W3C//DTD SVG 20010904//EN"
 "http://www.w3.org/TR/2001/REC-SVG-20010904/DTD/svg10.dtd">
<svg version="1.0" xmlns="http://www.w3.org/2000/svg"
 width="676.000000pt" height="1200.000000pt" viewBox="0 0 676.000000 1200.000000"
 preserveAspectRatio="xMidYMid meet">

<g transform="translate(0.000000,1200.000000) scale(0.100000,-0.100000)"
fill="#000000" stroke="none">
<path d="M0 9983 l0 -2018 30 -2 c55 -4 62 -6 73 -30 5 -12 16 -23 22 -23 7 0
22 -9 34 -19 13 -11 36 -23 52 -26 16 -4 29 -11 29 -16 0 -5 16 -9 35 -9 28 0
35 -4 33 -17 -2 -10 3 -18 12 -18 8 0 19 -10 25 -22 6 -14 19 -23 32 -23 12 0
30 -12 41 -27 l19 -26 7 26 c3 15 11 27 16 27 16 0 22 -21 10 -35 -16 -19 11
-47 45 -47 14 0 27 -8 30 -18 6 -19 46 -40 75 -40 11 0 20 -7 20 -15 0 -8 13
-21 29 -30 17 -8 37 -25 46 -37 12 -16 19 -19 22 -10 9 23 42 13 49 -15 7 -24
8 -25 14 -8 7 19 7 19 14 -2 4 -13 15 -23 26 -23 10 0 21 -8 24 -18 8 -24 54
-67 62 -59 4 4 1 13 -6 22 -11 13 -9 15 12 15 21 0 24 -5 25 -36 1 -19 3 -37
5 -40 2 -2 25 -4 51 -5 39 -2 47 -5 47 -21 0 -13 11 -24 30 -31 17 -6 30 -15
30 -19 0 -4 11 -8 24 -8 20 0 22 -4 18 -27 l-5 -27 27 18 c15 10 30 15 34 12
3 -3 0 -6 -6 -6 -7 0 -12 -7 -12 -15 0 -8 8 -15 17 -15 9 0 25 -8 36 -17 10
-10 26 -18 35 -18 10 0 21 -10 27 -22 5 -13 18 -23 27 -23 10 0 18 -7 18 -15
0 -16 42 -30 65 -21 10 4 15 -1 15 -14 0 -11 6 -20 13 -20 7 0 34 -20 60 -45
38 -36 53 -44 81 -43 36 1 67 -16 63 -35 -1 -6 16 -14 37 -18 22 -3 47 -16 56
-27 11 -13 32 -22 56 -24 34 -3 39 -6 42 -30 2 -16 7 -28 12 -28 5 0 11 -8 13
-17 3 -10 5 180 4 422 l-2 440 24 63 c29 77 114 172 119 134 4 -26 22 -30 22
-5 0 9 3 13 6 10 4 -3 -1 -22 -10 -41 -20 -43 -21 -92 -1 -100 8 -3 15 -14 15
-24 0 -14 -7 -17 -34 -17 -34 2 -35 0 -29 -29 3 -17 12 -44 20 -59 13 -26 12
-71 -2 -109 -4 -9 -2 -19 4 -23 7 -3 11 2 11 14 0 11 5 23 11 26 7 5 10 -9 9
-41 -4 -74 -4 -74 39 -74 40 0 63 -16 42 -29 -6 -4 -9 -15 -6 -23 8 -19 -12
-27 -45 -17 l-25 7 23 7 c34 11 26 21 -13 17 -26 -3 -33 -7 -26 -16 6 -7 6
-17 1 -26 -13 -20 -12 -40 1 -40 5 0 7 5 4 10 -3 6 0 10 7 10 8 0 14 -9 15
-20 1 -16 -2 -20 -18 -15 -10 4 -19 2 -19 -4 0 -5 -3 -16 -6 -25 -5 -12 0 -16
19 -16 33 0 46 -20 18 -27 -27 -7 -27 -20 0 -28 16 -5 18 -10 10 -18 -9 -9
-17 -8 -31 1 -26 16 -29 15 -23 -6 2 -10 13 -23 23 -30 17 -10 18 -9 13 6 -6
14 -4 15 9 4 9 -7 13 -22 10 -37 -5 -26 -27 -34 -35 -12 -2 7 -8 8 -13 3 -5
-5 -4 -11 4 -13 21 -8 13 -43 -19 -74 -21 -21 -28 -35 -24 -49 4 -12 2 -20 -5
-20 -7 0 -8 -6 -1 -19 6 -10 9 -20 7 -22 -2 -2 -6 -19 -10 -38 -4 -24 -3 -32
7 -28 8 3 12 -8 12 -37 0 -22 4 -47 9 -53 4 -7 6 -25 3 -39 -8 -41 9 -13 23
39 13 47 24 58 33 35 4 -8 8 -4 13 10 4 14 12 21 20 18 11 -4 14 9 14 59 0 55
-3 65 -17 66 -11 0 -13 3 -5 6 25 10 12 25 -17 18 -20 -4 -34 -1 -45 10 -19
20 -20 23 -3 22 33 -1 45 5 57 28 17 31 30 32 31 3 1 -13 5 2 9 32 3 30 10 68
15 84 7 26 6 28 -14 21 -23 -7 -30 12 -11 31 7 7 5 27 -3 61 -13 49 -13 52 4
42 11 -5 18 -13 18 -17 -1 -4 0 -11 1 -17 1 -5 3 -21 3 -35 3 -37 21 -35 30 2
9 39 27 78 45 96 6 7 13 24 13 38 2 43 4 47 15 51 6 2 15 -6 19 -19 6 -19 8
-20 12 -6 3 14 8 16 24 8 21 -12 58 2 72 26 4 8 12 14 18 14 16 0 68 64 57 71
-22 14 2 28 28 18 21 -7 25 -7 21 5 -4 9 3 16 21 21 15 4 33 11 39 17 17 14
17 68 1 69 -7 1 -25 2 -40 3 -15 2 -26 -2 -25 -8 1 -6 -8 -12 -21 -14 -16 -2
-22 -8 -18 -18 4 -9 -2 -14 -15 -14 -25 0 -61 -18 -55 -28 2 -4 -4 -8 -15 -8
-10 0 -19 4 -19 8 0 4 5 8 10 8 6 0 10 5 10 10 0 6 -7 10 -15 10 -8 0 -15 5
-15 10 0 13 17 13 24 1 4 -5 19 -5 36 2 23 9 30 18 30 39 0 31 16 46 33 29 16
-16 27 -14 27 7 1 16 1 16 14 0 12 -16 14 -16 24 5 6 12 10 29 10 37 0 8 1 20
2 25 9 36 -25 66 -48 43 -15 -15 -26 10 -12 27 9 11 8 18 -5 32 -16 15 -16 17
-1 29 12 8 14 14 6 19 -7 4 -9 16 -7 26 4 14 1 19 -11 17 -11 -2 -18 5 -20 20
-4 29 -14 28 -29 -4 -8 -18 -9 -33 -2 -52 11 -29 5 -57 -11 -47 -5 3 -10 1
-10 -5 0 -7 -5 -6 -14 2 -16 15 -12 68 5 79 6 4 8 12 5 18 -4 6 -12 9 -17 6
-5 -4 -9 -1 -9 4 0 6 9 11 21 11 11 0 19 5 17 12 -3 7 -29 13 -61 15 l-57 3 0
-33 c0 -24 -3 -28 -10 -17 -7 10 -9 -3 -8 -45 l1 -60 7 45 c7 44 7 43 8 -20 2
-79 -8 -101 -33 -76 -12 12 -14 21 -8 27 18 18 -5 269 -24 269 -2 0 -20 -8
-41 -18 -37 -19 -66 -18 -89 0 -9 7 -18 7 -28 -2 -25 -21 -28 -5 -6 35 10 20
27 63 37 96 10 32 22 59 27 59 5 0 4 7 -3 15 -10 12 -10 19 -2 27 15 15 15 80
0 184 -13 90 -3 135 34 155 80 43 335 88 615 109 182 14 554 18 833 9 124 -4
275 -8 335 -9 l110 -3 3 56 c2 33 9 60 17 67 8 7 15 25 15 41 0 15 4 30 9 34
6 3 10 13 10 23 -1 26 38 129 59 160 10 15 35 57 56 94 52 94 62 93 15 -1 -21
-44 -46 -102 -55 -128 -9 -26 -22 -55 -28 -63 -26 -31 -60 -158 -50 -184 3 -9
-3 -34 -15 -56 -18 -34 -19 -42 -6 -46 24 -10 33 4 40 59 8 60 29 136 53 189
14 30 18 34 25 20 4 -10 5 -6 2 11 -7 33 11 68 66 127 23 25 66 78 96 117 31
40 60 70 65 67 5 -4 2 -15 -9 -28 -48 -56 -106 -154 -129 -218 -8 -23 -20 -48
-27 -56 -6 -8 -17 -33 -23 -56 -30 -110 -64 -237 -64 -242 0 -3 19 -4 42 -2
l41 3 23 125 c13 69 24 134 24 145 0 11 25 56 56 100 30 44 60 89 65 100 18
39 137 209 242 346 41 53 57 81 57 98 0 11 5 23 11 27 6 3 32 38 57 78 25 39
64 90 86 114 23 24 48 54 56 68 8 13 18 24 22 24 5 0 8 5 8 10 0 6 10 24 22
41 22 30 23 31 4 45 -17 12 -21 11 -31 -3 -14 -19 -45 -11 -45 11 0 8 9 21 20
29 11 8 17 17 13 20 -18 19 20 4 45 -18 l29 -25 27 25 c17 16 24 30 19 41 -5
13 -3 15 8 9 11 -7 11 -4 -2 15 -8 13 -33 30 -54 37 -34 11 -44 11 -71 -2 -38
-18 -44 -18 -44 -4 0 18 65 39 106 32 46 -7 119 -75 128 -119 7 -33 -4 -84
-19 -84 -10 0 -11 3 -14 33 0 7 -8 22 -16 33 -11 14 -15 15 -14 4 3 -30 -1
-39 -20 -45 -20 -6 -111 -131 -111 -151 0 -15 -49 -102 -61 -109 -5 -4 -9 -15
-9 -26 0 -17 3 -18 20 -7 11 7 20 19 20 26 0 15 60 71 78 72 20 0 14 -25 -14
-56 -14 -16 -37 -47 -52 -69 -14 -22 -37 -51 -50 -64 l-24 -24 7 24 c4 13 9
29 11 34 2 6 0 16 -5 24 -12 19 -47 -1 -66 -40 -9 -16 -26 -34 -38 -40 -12 -5
-31 -24 -42 -42 -11 -17 -24 -38 -30 -47 -5 -9 -37 -55 -70 -104 -105 -154
-134 -201 -134 -218 -1 -10 -5 -18 -11 -18 -16 0 -72 -128 -74 -170 -1 -26
-10 -47 -24 -60 -24 -23 -58 -128 -68 -210 l-6 -55 62 -12 c76 -14 95 -29 74
-57 -12 -17 -14 -17 -14 -3 0 28 -125 36 -152 9 -17 -17 -45 -15 -52 3 -7 18
-63 20 -69 3 -2 -7 10 -18 27 -25 l31 -11 -32 -1 c-38 -1 -43 -20 -11 -40 19
-12 23 -11 39 10 15 20 21 22 36 13 10 -7 17 -19 16 -28 -2 -9 -4 -24 -5 -33
-2 -10 2 -18 9 -18 6 0 15 -3 19 -8 7 -7 30 -5 149 8 35 4 37 3 20 -7 -11 -7
-31 -13 -45 -14 -14 -1 -44 -7 -68 -13 -48 -13 -55 -26 -67 -108 -10 -76 0
-83 127 -88 169 -7 221 -18 235 -48 6 -12 16 -42 23 -67 6 -25 30 -83 53 -130
22 -47 41 -93 42 -104 1 -10 10 -23 19 -28 24 -13 56 -85 56 -125 0 -17 4 -43
9 -56 5 -14 7 -88 3 -173 l-7 -149 -52 3 c-44 3 -53 1 -53 -13 0 -14 9 -16 52
-13 44 2 53 0 56 -15 5 -26 -16 -47 -47 -47 -26 -1 -26 -1 5 -14 17 -8 33 -20
35 -27 3 -8 3 -95 2 -194 -2 -99 -3 -218 -2 -265 5 -489 7 -544 18 -548 6 -2
11 -21 11 -43 0 -27 4 -39 14 -39 8 0 17 -6 19 -12 3 -7 6 11 6 40 1 28 6 52
11 52 6 0 10 -18 10 -40 0 -29 4 -40 15 -40 8 0 15 7 15 15 0 22 27 18 40 -5
8 -15 21 -20 50 -20 21 0 42 -4 45 -10 3 -5 22 -10 41 -10 27 0 34 -4 34 -20
0 -14 -7 -20 -24 -20 -13 0 -31 -3 -40 -6 -29 -11 -16 -24 24 -24 22 0 40 5
40 10 0 6 19 10 43 10 32 0 45 -5 55 -20 11 -17 20 -20 60 -16 26 3 90 8 142
11 91 6 98 5 133 -19 28 -19 37 -22 37 -11 0 12 22 15 124 15 90 0 125 -3 128
-12 8 -22 79 23 76 47 -3 18 -11 20 -81 20 -55 0 -77 4 -77 13 0 8 23 12 80
12 l80 0 1 38 c1 20 3 29 6 20 3 -13 15 -18 39 -18 27 0 34 -4 34 -20 0 -17
-7 -20 -40 -20 -29 0 -40 -4 -40 -15 0 -8 9 -16 20 -16 11 -1 25 -3 30 -4 6
-1 15 -3 20 -4 6 0 10 -42 10 -100 l0 -100 34 6 c19 3 36 1 40 -6 11 -17 86
-14 86 4 0 11 11 15 43 15 27 0 37 3 29 9 -8 5 -27 7 -43 6 -16 -1 -32 1 -35
6 -3 5 -2 8 3 7 9 -3 52 25 84 55 28 25 34 22 48 -24 8 -28 17 -39 26 -35 8 3
12 0 9 -7 -2 -7 14 -23 36 -37 l40 -25 0 -70 c1 -73 8 -90 50 -114 17 -10 25
-10 28 -2 2 6 21 11 43 11 34 0 39 -3 39 -23 0 -12 10 -28 21 -35 15 -10 18
-17 11 -24 -18 -18 5 -48 37 -48 16 0 34 -7 41 -15 19 -23 48 -18 53 8 2 12 6
-25 8 -83 l3 -105 6 105 c3 58 6 -104 7 -360 0 -256 -3 -445 -7 -420 l-7 45
-1 -42 -2 -43 -45 0 c-25 0 -45 -4 -45 -9 0 -5 -11 -12 -24 -15 -13 -3 -31 -9
-40 -12 -11 -4 -16 0 -16 12 -1 15 -8 11 -34 -19 -27 -30 -40 -37 -69 -37 -24
0 -39 -6 -46 -17 -6 -10 -11 -13 -11 -6 0 8 -9 9 -32 3 -18 -5 -40 -9 -48 -8
-34 3 -60 -3 -60 -11 0 -6 9 -8 20 -6 11 2 22 0 25 -6 4 -5 -28 -9 -79 -9 -51
0 -88 -4 -92 -11 -5 -8 -9 -7 -14 1 -6 10 -15 8 -35 -9 -24 -18 -41 -21 -126
-21 -73 0 -101 -4 -113 -15 -19 -20 -103 -20 -122 0 -17 17 -61 20 -84 5 -12
-7 -8 -10 15 -11 26 0 27 -2 10 -9 -36 -15 -95 -12 -102 6 -5 14 -8 15 -17 2
-6 -8 -27 -18 -46 -24 -32 -9 -35 -13 -38 -50 -2 -28 2 -45 13 -54 8 -7 15
-27 15 -44 0 -34 21 -65 60 -89 43 -26 189 -36 635 -42 359 -5 469 -8 558 -14
4 -1 7 -561 7 -1245 l0 -1243 -93 1 c-51 1 -97 5 -102 8 -6 3 -82 9 -170 12
-88 4 -270 14 -405 23 -290 18 -281 18 -575 32 -126 6 -295 16 -375 21 -149
12 -297 9 -320 -5 -7 -4 -36 -13 -64 -20 -41 -10 -45 -13 -21 -14 20 -1 26 -4
17 -10 -11 -7 -11 -11 1 -23 13 -12 10 -16 -23 -30 -37 -16 -37 -18 -43 -87
-4 -38 -4 -77 -1 -85 3 -9 1 -16 -5 -16 -17 0 -13 -64 8 -110 17 -38 17 -46 5
-76 -17 -41 -18 -126 -1 -172 10 -28 10 -36 -1 -39 -16 -6 -16 -83 0 -83 7 0
-5 -9 -26 -20 -21 -10 -45 -28 -52 -39 -8 -10 -22 -17 -31 -15 -10 2 -49 -4
-88 -14 -54 -14 -73 -24 -82 -43 -10 -20 -10 -25 2 -27 8 -2 15 -7 15 -10 0
-4 18 -6 40 -4 25 3 40 0 40 -7 0 -6 7 -11 16 -11 9 0 27 -9 41 -20 14 -11 32
-20 39 -20 17 0 56 -21 66 -35 8 -12 -1 -27 -12 -20 -9 6 -21 -9 -29 -35 -3
-8 -5 -69 -5 -135 -1 -106 -3 -120 -18 -123 -13 -2 -18 3 -19 20 -1 17 -4 14
-13 -15 -9 -29 -14 -35 -23 -26 -19 19 -43 -8 -43 -47 0 -34 14 -46 23 -21 3
6 6 0 6 -15 1 -14 4 -33 7 -42 4 -11 -2 -19 -21 -26 -26 -10 -55 -33 -55 -44
0 -3 9 -6 20 -6 16 0 20 -7 20 -35 0 -29 4 -35 21 -35 15 0 19 -4 15 -16 -8
-21 12 -57 29 -51 7 3 25 -1 40 -9 23 -12 198 -14 1141 -14 l1114 0 0 6000 0
6000 -3380 0 -3380 0 0 -2017z m4852 35 c-7 -7 -12 -8 -12 -2 0 14 12 26 19
19 2 -3 -1 -11 -7 -17z m18 -71 c0 -8 -11 -24 -25 -37 -14 -13 -25 -30 -25
-37 0 -8 -20 -35 -44 -61 -24 -26 -58 -75 -76 -110 -18 -35 -38 -66 -45 -68
-7 -3 -20 -20 -30 -37 -10 -18 -31 -43 -48 -56 -28 -23 -29 -24 -23 -4 9 28
81 137 129 194 20 26 37 51 37 58 0 6 20 32 45 57 25 25 45 51 44 57 -5 41 0
46 54 56 4 0 7 -5 7 -12z m-259 -174 c-43 -58 -61 -78 -61 -67 0 16 58 94 71
94 6 0 1 -12 -10 -27z m-101 -138 c0 -8 -4 -15 -10 -15 -5 0 -7 7 -4 15 4 8 8
15 10 15 2 0 4 -7 4 -15z m254 -137 c-32 -62 -273 -393 -280 -385 -6 6 48 87
58 87 4 0 7 4 5 9 -1 4 36 63 82 131 107 157 176 237 135 158z m-281 -93 c-3
-8 -9 -15 -14 -15 -10 0 -12 24 -3 33 11 11 24 -3 17 -18z m-23 -45 c0 -5 -9
-10 -21 -10 -11 0 -17 5 -14 10 3 6 13 10 21 10 8 0 14 -4 14 -10z m-40 -35
c0 -8 -4 -15 -10 -15 -5 0 -10 7 -10 15 0 8 5 15 10 15 6 0 10 -7 10 -15z m60
-234 c0 -12 -20 -25 -27 -18 -7 7 6 27 18 27 5 0 9 -4 9 -9z m-110 -198 c0
-20 -3 -33 -7 -29 -9 9 -14 38 -8 54 8 23 15 12 15 -25z m-90 -293 c0 -5 -4
-10 -10 -10 -5 0 -10 5 -10 10 0 6 5 10 10 10 6 0 10 -4 10 -10z m243 -79 c-3
-14 2 -20 23 -24 27 -5 27 -4 10 9 -28 20 -12 29 24 14 23 -9 29 -17 24 -29
-4 -9 -9 -29 -12 -44 -4 -28 -4 -28 -26 -9 -11 11 -43 34 -70 51 l-50 31 32 0
c22 0 32 5 32 16 0 8 4 13 9 10 5 -3 7 -14 4 -25z m-41 -81 c-12 -10 -19 -20
-15 -23 3 -4 2 -14 -1 -24 -6 -14 -9 -15 -16 -3 -5 8 -6 18 -3 24 6 9 -15 6
-83 -10 -53 -12 -12 13 48 30 31 9 60 21 63 26 4 6 11 7 17 4 7 -5 4 -13 -10
-24z m-2486 -477 c-10 -10 -19 5 -10 18 6 11 8 11 12 0 2 -7 1 -15 -2 -18z
m114 -81 c0 -10 5 -23 12 -30 9 -9 8 -12 -4 -12 -21 0 -42 26 -34 45 8 21 26
19 26 -3z m-180 -46 c-15 -15 -33 4 -19 20 10 12 14 12 20 2 5 -7 4 -17 -1
-22z m280 -6 c0 -5 -7 -10 -16 -10 -8 0 -12 5 -9 10 3 6 10 10 16 10 5 0 9 -4
9 -10z m-121 -48 c-11 -7 -27 -11 -35 -8 -13 5 -13 9 2 29 16 21 20 22 36 8
16 -14 16 -15 -3 -29z m51 38 c0 -5 -2 -10 -4 -10 -3 0 -8 5 -11 10 -3 6 -1
10 4 10 6 0 11 -4 11 -10z m0 -30 c0 -5 -4 -10 -10 -10 -5 0 -10 5 -10 10 0 6
5 10 10 10 6 0 10 -4 10 -10z m298 -20 c-1 -16 5 -36 11 -44 17 -21 5 -36 -28
-36 -31 0 -45 13 -53 47 -4 15 -2 20 8 16 8 -3 18 6 25 21 17 36 38 33 37 -4z
m-317 -56 c-6 -32 -6 -53 1 -61 5 -7 7 -17 3 -23 -12 -19 -30 -4 -32 26 -1 16
-4 43 -8 59 -6 29 -6 29 9 11 16 -19 16 -19 16 5 0 24 9 43 17 36 2 -2 -1 -26
-6 -53z m193 31 c3 -9 0 -15 -9 -15 -8 0 -15 7 -15 15 0 8 4 15 9 15 5 0 11
-7 15 -15z m-61 -42 c-7 -2 -13 -13 -13 -24 0 -19 -24 -26 -35 -10 -6 10 33
42 50 40 5 0 4 -3 -2 -6z m-213 -38 c0 -8 -4 -15 -10 -15 -5 0 -10 7 -10 15 0
8 5 15 10 15 6 0 10 -7 10 -15z m30 -10 c0 -14 -4 -25 -10 -25 -5 0 -10 11
-10 25 0 14 5 25 10 25 6 0 10 -11 10 -25z m110 11 c0 -8 -4 -17 -9 -20 -10
-7 -23 19 -14 28 11 11 23 6 23 -8z m25 -66 c3 -5 2 -10 -4 -10 -5 0 -13 5
-16 10 -3 6 -2 10 4 10 5 0 13 -4 16 -10z m-70 -60 c-3 -5 -11 -10 -16 -10 -6
0 -7 5 -4 10 3 6 11 10 16 10 6 0 7 -4 4 -10z m146 -69 c17 -16 18 -22 8 -45
-15 -32 -31 -35 -24 -3 3 12 1 29 -5 37 -9 13 -11 13 -20 0 -8 -13 -10 -13
-10 1 0 33 22 38 51 10z m139 -10 c0 -12 -20 -25 -27 -18 -7 7 6 27 18 27 5 0
9 -4 9 -9z m-350 -21 c0 -11 -4 -20 -9 -20 -5 0 -7 9 -4 20 3 11 7 20 9 20 2
0 4 -9 4 -20z m110 -56 c0 -8 -7 -14 -15 -14 -15 0 -21 21 -9 33 10 9 24 -2
24 -19z m-42 -97 c2 -11 -3 -17 -16 -17 -23 0 -37 26 -19 34 19 7 32 1 35 -17z
m-279 -248 c-19 -11 -24 -3 -8 14 8 9 16 11 18 5 2 -6 -3 -14 -10 -19z m201
-161 c0 -6 6 -8 13 -5 7 3 12 -5 13 -23 1 -16 -4 -27 -13 -27 -7 0 -13 9 -13
20 0 10 -10 27 -22 37 l-23 19 23 -6 c12 -3 22 -10 22 -15z m-20 -38 c0 -21
-15 -27 -25 -10 -7 12 2 30 16 30 5 0 9 -9 9 -20z m3000 -664 c0 -8 3 -16 8
-19 4 -2 1 -2 -6 0 -8 1 -29 3 -48 3 -24 0 -34 5 -34 15 0 11 11 15 40 15 28
0 40 -4 40 -14z m95 -6 c3 -5 1 -10 -4 -10 -6 0 -11 5 -11 10 0 6 2 10 4 10 3
0 8 -4 11 -10z m1341 -487 c-10 -10 -19 5 -10 18 6 11 8 11 12 0 2 -7 1 -15
-2 -18z m-2076 -4843 c0 -5 -5 -10 -11 -10 -5 0 -7 5 -4 10 3 6 8 10 11 10 2
0 4 -4 4 -10z"/>
<path d="M2995 8674 c-131 -9 -332 -26 -360 -31 -16 -3 -50 -7 -75 -8 -87 -6
-215 -27 -221 -36 -3 -5 -14 -7 -24 -3 -13 5 -16 3 -13 -7 3 -8 12 -13 21 -11
8 1 18 -2 22 -8 3 -5 5 -10 3 -10 -2 0 -27 -8 -55 -18 -41 -14 -50 -21 -42
-33 8 -12 10 -12 18 0 8 12 12 12 25 -2 17 -16 87 -31 144 -30 17 1 32 -2 32
-7 0 -8 182 -24 445 -40 379 -22 1006 -8 1027 24 4 5 10 31 13 56 3 25 9 51
13 57 9 14 53 27 50 15 -2 -6 0 -10 5 -11 25 -3 27 1 7 19 -13 11 -19 20 -14
20 5 0 -6 9 -24 20 -23 14 -64 24 -130 30 -101 10 -762 21 -867 14z m995 -74
c0 -5 -2 -10 -4 -10 -3 0 -8 5 -11 10 -3 6 -1 10 4 10 6 0 11 -4 11 -10z"/>
<path d="M2335 8431 c-3 -6 -10 -9 -15 -6 -21 13 -21 -20 -1 -37 17 -13 24
-30 26 -63 1 -25 -1 -48 -6 -51 -5 -3 -9 -10 -9 -16 0 -14 131 -4 182 14 31
11 35 15 25 29 -7 8 -21 21 -32 27 -25 15 -1 16 27 1 23 -12 39 -2 18 11 -13
9 -13 10 0 10 13 0 13 1 0 10 -8 5 -15 17 -15 26 0 13 -14 21 -48 30 -81 21
-144 27 -152 15z m185 -41 c-20 -13 -33 -13 -25 0 3 6 14 10 23 10 15 0 15 -2
2 -10z"/>
<path d="M2670 8391 c-8 -5 -18 -7 -22 -5 -7 4 -12 -24 -10 -47 1 -3 -10 -5
-24 -3 -16 1 -24 -2 -21 -9 2 -7 12 -11 21 -11 9 1 16 -2 16 -6 0 -5 9 -6 20
-3 11 3 27 0 35 -7 11 -9 31 -9 87 0 56 8 98 8 178 -1 58 -7 182 -12 276 -13
161 0 175 1 256 28 l86 29 167 -9 c92 -5 170 -7 174 -4 5 3 11 20 14 38 6 31
5 32 -26 32 -18 0 -38 -5 -45 -12 -7 -7 -12 -8 -12 -2 0 5 -49 9 -115 9 -63 0
-115 -4 -115 -9 0 -9 -843 0 -896 9 -16 3 -36 1 -44 -4z"/>
<path d="M3540 8310 c0 -5 5 -10 10 -10 6 0 10 5 10 10 0 6 -4 10 -10 10 -5 0
-10 -4 -10 -10z"/>
<path d="M3590 8295 c0 -8 -6 -15 -13 -15 -15 0 -57 -33 -57 -44 0 -3 18 -3
39 0 27 4 56 1 90 -12 87 -31 130 10 65 63 -35 28 -124 34 -124 8z"/>
<path d="M3795 8290 c-4 -7 -3 -16 3 -22 14 -14 45 -2 40 15 -6 16 -34 21 -43
7z"/>
<path d="M3890 8279 c0 -5 5 -7 10 -4 6 3 10 8 10 11 0 2 -4 4 -10 4 -5 0 -10
-5 -10 -11z"/>
<path d="M2835 8270 c3 -5 10 -10 16 -10 5 0 9 5 9 10 0 6 -7 10 -16 10 -8 0
-12 -4 -9 -10z"/>
<path d="M2660 8250 c0 -5 5 -10 10 -10 6 0 10 5 10 10 0 6 -4 10 -10 10 -5 0
-10 -4 -10 -10z"/>
<path d="M2900 8250 c0 -5 6 -10 14 -10 8 0 18 5 21 10 3 6 -3 10 -14 10 -12
0 -21 -4 -21 -10z"/>
<path d="M2983 8248 c2 -7 14 -13 27 -13 13 0 25 6 28 13 2 8 -7 12 -28 12
-21 0 -30 -4 -27 -12z"/>
<path d="M3195 8250 c3 -5 8 -10 11 -10 2 0 4 5 4 10 0 6 -5 10 -11 10 -5 0
-7 -4 -4 -10z"/>
<path d="M3420 8250 c0 -5 7 -7 15 -4 8 4 15 8 15 10 0 2 -7 4 -15 4 -8 0 -15
-4 -15 -10z"/>
<path d="M2740 8239 c0 -21 43 -50 65 -45 11 3 23 6 28 6 18 0 5 21 -23 35
-34 18 -70 20 -70 4z"/>
<path d="M3104 8240 c-12 -5 -24 -20 -28 -35 -12 -48 11 -57 74 -29 28 13 36
21 33 35 -3 10 -9 17 -13 14 -4 -3 -10 2 -14 10 -6 17 -20 18 -52 5z"/>
<path d="M3334 8239 c-9 -15 -2 -18 20 -9 17 6 18 7 3 13 -9 3 -19 2 -23 -4z"/>
<path d="M3240 8224 c0 -9 7 -14 17 -12 25 5 28 28 4 28 -12 0 -21 -6 -21 -16z"/>
<path d="M2581 8214 c0 -11 3 -14 6 -6 3 7 2 16 -1 19 -3 4 -6 -2 -5 -13z"/>
<path d="M3440 8219 c0 -5 5 -7 10 -4 6 3 10 8 10 11 0 2 -4 4 -10 4 -5 0 -10
-5 -10 -11z"/>
<path d="M2375 8210 c-3 -5 -1 -10 4 -10 6 0 11 5 11 10 0 6 -2 10 -4 10 -3 0
-8 -4 -11 -10z"/>
<path d="M2435 8210 c-3 -5 -1 -10 4 -10 6 0 11 5 11 10 0 6 -2 10 -4 10 -3 0
-8 -4 -11 -10z"/>
<path d="M3900 8210 c0 -5 5 -10 10 -10 6 0 10 5 10 10 0 6 -4 10 -10 10 -5 0
-10 -4 -10 -10z"/>
<path d="M3540 8202 c0 -4 18 -8 40 -8 22 -1 37 2 34 7 -6 11 -74 12 -74 1z"/>
<path d="M2942 8188 c6 -18 28 -21 28 -4 0 9 -7 16 -16 16 -9 0 -14 -5 -12
-12z"/>
<path d="M3840 8190 c0 -5 11 -10 25 -10 14 0 25 5 25 10 0 6 -11 10 -25 10
-14 0 -25 -4 -25 -10z"/>
<path d="M4045 8190 c-3 -5 -1 -10 4 -10 6 0 11 5 11 10 0 6 -2 10 -4 10 -3 0
-8 -4 -11 -10z"/>
<path d="M2710 8181 c0 -10 30 -24 37 -17 3 2 -5 9 -16 16 -12 6 -21 7 -21 1z"/>
<path d="M3910 8174 c0 -8 5 -12 10 -9 6 3 10 10 10 16 0 5 -4 9 -10 9 -5 0
-10 -7 -10 -16z"/>
<path d="M2110 8169 c0 -5 5 -7 10 -4 6 3 10 8 10 11 0 2 -4 4 -10 4 -5 0 -10
-5 -10 -11z"/>
<path d="M4550 8155 c0 -5 5 -17 10 -25 5 -8 10 -10 10 -5 0 6 -5 17 -10 25
-5 8 -10 11 -10 5z"/>
<path d="M2230 8040 c0 -6 7 -10 15 -10 8 0 15 2 15 4 0 2 -7 6 -15 10 -8 3
-15 1 -15 -4z"/>
<path d="M2630 8040 c0 -5 7 -7 15 -4 8 4 15 8 15 10 0 2 -7 4 -15 4 -8 0 -15
-4 -15 -10z"/>
<path d="M2337 8023 c-14 -17 -13 -18 21 -19 20 -1 31 0 25 3 -7 3 -13 11 -13
19 0 19 -14 18 -33 -3z"/>
<path d="M2610 7960 c0 -5 5 -10 11 -10 5 0 7 5 4 10 -3 6 -8 10 -11 10 -2 0
-4 -4 -4 -10z"/>
<path d="M2645 7951 c-3 -5 -1 -12 5 -16 5 -3 10 1 10 9 0 18 -6 21 -15 7z"/>
<path d="M2875 7950 c3 -5 12 -7 20 -3 9 3 22 0 30 -7 9 -7 15 -8 15 -2 0 5
-7 13 -16 16 -24 9 -56 7 -49 -4z"/>
<path d="M3933 7952 c-8 -5 -7 -11 2 -19 10 -10 14 -9 19 2 6 17 -5 26 -21 17z"/>
<path d="M3880 7940 c-8 -5 -11 -12 -8 -16 10 -9 38 3 38 16 0 12 -10 13 -30
0z"/>
<path d="M2592 7920 c17 -27 -3 -50 -27 -30 -13 11 -15 9 -16 -11 0 -13 -2
-36 -4 -50 -2 -14 0 -41 5 -60 4 -19 8 -27 9 -18 1 9 7 22 15 28 8 7 12 21 9
32 -4 12 0 25 8 30 9 6 4 7 -16 3 -29 -6 -29 -6 -10 9 11 9 24 17 29 17 5 0
15 8 22 18 10 12 13 13 14 3 0 -11 3 -11 15 -1 20 17 0 43 -26 35 -11 -4 -19
-2 -19 4 0 6 -5 11 -10 11 -6 0 -5 -8 2 -20z m-25 -132 c-3 -8 -6 -5 -6 6 -1
11 2 17 5 13 3 -3 4 -12 1 -19z"/>
<path d="M3068 7933 c7 -3 16 -2 19 1 4 3 -2 6 -13 5 -11 0 -14 -3 -6 -6z"/>
<path d="M2714 7923 c3 -3 -4 -13 -16 -23 l-21 -17 27 -7 c30 -7 69 13 58 30
-4 6 -18 13 -30 17 -13 3 -21 3 -18 0z m36 -17 c0 -3 -4 -8 -10 -11 -5 -3 -10
-1 -10 4 0 6 5 11 10 11 6 0 10 -2 10 -4z"/>
<path d="M2901 7914 c0 -10 4 -28 9 -39 7 -16 8 -13 6 13 -3 35 -16 58 -15 26z"/>
<path d="M2836 7911 c-4 -7 -14 -10 -21 -7 -7 2 -16 -1 -19 -9 -3 -8 0 -16 7
-18 8 -3 4 -12 -10 -28 -21 -22 -23 -22 -41 -6 -17 16 -20 16 -32 2 -7 -9 -9
-15 -4 -14 27 5 35 -1 20 -16 -8 -9 -13 -22 -10 -29 9 -24 -29 -29 -48 -6 -10
13 -19 16 -23 10 -4 -6 -14 -8 -23 -6 -19 6 -44 -6 -41 -20 1 -5 -1 -17 -5
-26 -5 -10 -5 -25 -2 -34 7 -18 42 -14 39 4 -3 10 24 17 50 13 10 -1 9 13 -3
27 -7 8 -7 9 1 3 6 -5 19 -7 28 -3 14 5 14 4 2 -11 -9 -12 -10 -17 -2 -17 6 0
16 10 21 23 6 15 9 17 9 6 1 -10 12 -19 26 -21 19 -4 25 -1 25 13 0 13 -7 19
-22 19 -19 0 -20 2 -8 11 12 8 12 12 2 16 -9 3 -3 12 17 24 41 25 49 24 57 -6
3 -14 10 -25 15 -25 5 0 6 7 2 16 -5 13 -2 15 17 9 19 -6 22 -4 17 10 -4 9 -7
23 -7 31 0 19 -18 18 -22 -1 -2 -9 -8 -12 -17 -6 -11 7 -10 13 4 34 9 15 15
32 13 39 -3 9 -6 9 -12 -1z m-203 -155 c3 -8 0 -17 -8 -19 -17 -7 -25 1 -18
19 7 18 19 18 26 0z"/>
<path d="M3755 7895 c-26 -20 -27 -23 -17 -70 7 -32 7 -56 1 -67 -8 -14 -6
-18 7 -18 9 0 18 -9 21 -20 3 -11 7 -20 8 -20 13 0 35 14 35 22 0 5 -4 6 -10
3 -5 -3 -3 14 4 37 46 143 47 153 7 154 -16 1 -41 -9 -56 -21z"/>
<path d="M2877 7903 c-4 -3 -7 -13 -7 -22 1 -13 3 -13 11 2 11 19 8 33 -4 20z"/>
<path d="M2526 7883 c-6 -14 -5 -15 5 -6 7 7 10 15 7 18 -3 3 -9 -2 -12 -12z"/>
<path d="M3142 7860 c0 -14 2 -19 5 -12 2 6 2 18 0 25 -3 6 -5 1 -5 -13z"/>
<path d="M3040 7862 c0 -6 3 -12 8 -15 4 -2 1 -2 -7 0 -8 2 -20 -6 -29 -18
-10 -14 -22 -19 -38 -16 -19 3 -23 1 -19 -17 2 -12 4 -23 4 -25 1 -3 6 0 13 7
17 17 33 15 18 -3 -9 -10 -9 -15 -1 -15 6 0 11 -9 11 -20 0 -13 7 -20 19 -20
10 0 22 -7 25 -16 4 -9 9 -14 12 -11 4 3 13 0 20 -8 9 -9 37 -13 83 -13 76 1
97 8 88 31 -3 8 0 20 6 26 11 11 -6 16 -46 11 -11 -1 -23 10 -32 32 -11 25
-14 28 -15 13 l-1 -20 -9 20 c-7 16 -9 13 -9 -17 -1 -50 -27 -52 -37 -3 -9 49
-30 65 -50 36 -17 -24 -34 -20 -34 9 0 12 8 20 23 22 23 3 30 29 10 36 -7 2
-13 -1 -13 -6z m50 -82 c0 -5 -4 -10 -10 -10 -5 0 -10 5 -10 10 0 6 5 10 10
10 6 0 10 -4 10 -10z m-54 -28 c-4 -25 -20 -21 -24 5 -3 17 1 21 11 17 8 -3
14 -13 13 -22z m44 -28 c0 -2 -7 -4 -15 -4 -8 0 -15 4 -15 10 0 5 7 7 15 4 8
-4 15 -8 15 -10z m35 -34 c-5 -8 -11 -8 -17 -2 -6 6 -7 16 -3 22 5 8 11 8 17
2 6 -6 7 -16 3 -22z"/>
<path d="M3085 7860 c-3 -5 -1 -10 4 -10 6 0 11 5 11 10 0 6 -2 10 -4 10 -3 0
-8 -4 -11 -10z"/>
<path d="M2926 7844 c-8 -21 -8 -59 1 -51 7 8 15 67 9 67 -2 0 -7 -7 -10 -16z"/>
<path d="M2643 7835 c-3 -9 -3 -19 1 -22 3 -4 6 1 6 10 0 8 10 18 23 20 l22 4
-23 2 c-12 0 -25 -6 -29 -14z"/>
<path d="M2880 7840 c0 -5 4 -10 9 -10 6 0 13 5 16 10 3 6 -1 10 -9 10 -9 0
-16 -4 -16 -10z"/>
<path d="M3080 7830 c0 -5 5 -10 10 -10 6 0 10 5 10 10 0 6 -4 10 -10 10 -5 0
-10 -4 -10 -10z"/>
<path d="M3351 7830 c0 -3 4 -14 9 -25 7 -17 9 -17 9 -2 1 10 9 17 21 17 11 0
20 3 20 8 0 4 -13 7 -30 7 -16 0 -30 -2 -29 -5z"/>
<path d="M3322 7785 c4 -31 1 -48 -8 -56 -8 -6 -14 -18 -14 -25 0 -8 -4 -14
-10 -14 -17 0 -6 -24 15 -34 11 -5 35 -10 54 -12 19 -2 37 -7 40 -12 10 -13
77 -42 100 -42 12 0 21 -4 21 -9 0 -5 15 -13 33 -16 17 -4 35 -12 38 -17 3 -5
30 -13 60 -17 30 -4 65 -13 77 -20 13 -7 26 -10 30 -7 3 3 0 6 -7 6 -7 0 -10
4 -7 9 7 10 46 3 46 -9 0 -4 -12 -11 -26 -14 l-26 -7 23 -20 c15 -13 25 -16
29 -9 5 8 17 6 41 -4 31 -15 32 -16 7 -13 -23 4 -26 1 -18 -13 5 -9 21 -25 35
-34 21 -14 25 -14 25 -2 0 8 -12 19 -27 24 -25 9 -26 10 -5 11 26 1 29 16 5
31 -15 9 -14 10 9 6 15 -4 30 -2 33 4 3 5 1 10 -4 10 -15 0 -51 32 -51 46 0 6
-16 14 -35 17 -35 6 -65 27 -65 45 0 11 -49 26 -58 17 -3 -3 1 -5 9 -5 8 0 0
-13 -19 -30 -30 -26 -71 -32 -56 -9 9 15 -6 48 -20 43 -18 -7 -27 32 -16 62 7
16 6 24 -2 24 -6 0 -17 8 -25 18 -13 16 -14 16 -12 -3 3 -43 -1 -66 -11 -60
-6 4 -8 15 -5 26 5 14 2 17 -9 13 -20 -8 -65 26 -66 50 0 19 0 19 -14 1 -12
-17 -18 -18 -40 -7 -28 13 -37 38 -10 28 14 -6 15 -4 4 9 -11 13 -15 13 -21 3
-7 -10 -9 -10 -9 2 0 13 -2 13 -9 1 -8 -12 -11 -9 -16 11 -4 15 -4 32 0 37 3
6 1 11 -6 11 -8 0 -10 -14 -7 -45z m21 -89 c4 -10 1 -13 -9 -9 -15 6 -19 23
-5 23 5 0 11 -7 14 -14z m91 -2 c9 -8 13 -21 9 -27 -4 -7 -8 -6 -11 3 -3 8
-12 20 -21 27 -9 7 -11 12 -4 13 6 0 19 -7 27 -16z m-44 -24 c-8 -5 -19 -10
-25 -10 -5 0 -3 5 5 10 8 5 20 10 25 10 6 0 3 -5 -5 -10z m458 -182 c-3 -7
-11 -13 -18 -13 -7 0 -15 6 -17 13 -3 7 4 12 17 12 13 0 20 -5 18 -12z"/>
<path d="M3618 7823 c7 -3 16 -2 19 1 4 3 -2 6 -13 5 -11 0 -14 -3 -6 -6z"/>
<path d="M3301 7795 c0 -12 -6 -26 -13 -33 -9 -9 -9 -12 0 -12 16 0 25 23 19
47 -4 16 -5 15 -6 -2z"/>
<path d="M3418 7763 c6 -2 18 -2 25 0 6 3 1 5 -13 5 -14 0 -19 -2 -12 -5z"/>
<path d="M2957 7746 c-4 -9 -13 -13 -21 -10 -8 3 -17 1 -21 -5 -3 -6 -2 -11 4
-11 5 0 16 -3 24 -6 9 -3 16 3 20 17 7 27 2 37 -6 15z"/>
<path d="M3531 7744 c0 -11 3 -14 6 -6 3 7 2 16 -1 19 -3 4 -6 -2 -5 -13z"/>
<path d="M3677 7747 c-3 -8 -2 -20 3 -26 5 -9 8 -4 8 13 0 29 -3 32 -11 13z"/>
<path d="M3560 7732 c0 -12 19 -26 26 -19 2 2 -2 10 -11 17 -9 8 -15 8 -15 2z"/>
<path d="M3608 7698 c9 -9 15 -9 24 0 9 9 7 12 -12 12 -19 0 -21 -3 -12 -12z"/>
<path d="M3932 7695 c-11 -12 -10 -15 3 -15 8 0 15 7 15 15 0 18 -2 18 -18 0z"/>
<path d="M4726 7694 c-4 -10 -1 -14 6 -12 15 5 23 28 10 28 -5 0 -13 -7 -16
-16z"/>
<path d="M3661 7622 c-13 -25 -14 -32 -2 -32 9 0 23 41 16 48 -2 2 -8 -5 -14
-16z"/>
<path d="M4280 7570 c0 -5 5 -10 11 -10 5 0 7 5 4 10 -3 6 -8 10 -11 10 -2 0
-4 -4 -4 -10z"/>
<path d="M4063 7553 c-4 -9 -2 -18 4 -20 6 -2 8 -14 5 -26 -3 -12 -2 -19 2
-15 12 10 16 78 5 78 -5 0 -13 -8 -16 -17z"/>
<path d="M4031 7484 c-9 -26 -10 -39 -2 -47 16 -16 14 -23 -14 -35 -17 -8 -25
-19 -24 -34 1 -16 3 -18 6 -6 5 19 30 31 45 22 5 -3 15 2 23 12 11 16 16 17
27 6 11 -11 10 -16 -5 -27 -13 -9 -16 -21 -12 -41 4 -21 3 -24 -3 -10 -6 14
-11 16 -16 7 -5 -7 -5 -15 -2 -18 3 -4 -1 -14 -10 -24 -14 -16 -14 -20 -2 -38
17 -24 32 -17 18 9 -8 14 -4 22 16 35 18 11 23 22 19 36 -5 14 -2 19 12 19 10
0 25 5 33 11 12 8 11 9 -5 5 -19 -5 -20 -2 -19 44 2 28 -2 50 -7 50 -5 0 -9
-6 -9 -12 0 -10 -3 -9 -9 1 -6 9 -11 10 -15 2 -4 -6 -4 -15 -1 -21 3 -5 0 -7
-9 -4 -12 5 -13 10 -3 24 14 23 0 41 -14 20 -9 -12 -10 -12 -5 3 3 9 9 24 12
32 3 8 2 15 -3 15 -5 0 -15 -16 -22 -36z"/>
<path d="M4289 7518 c-6 -14 -3 -56 3 -52 4 3 8 15 8 27 0 18 2 19 11 7 9 -12
10 -12 7 -1 -4 13 -26 28 -29 19z"/>
<path d="M4125 7430 c-3 -5 1 -10 9 -10 9 0 16 5 16 10 0 6 -4 10 -9 10 -6 0
-13 -4 -16 -10z"/>
<path d="M3930 7400 c0 -5 5 -10 10 -10 6 0 10 5 10 10 0 6 -4 10 -10 10 -5 0
-10 -4 -10 -10z"/>
<path d="M4140 7396 c0 -2 7 -9 15 -16 13 -11 14 -10 9 4 -5 14 -24 23 -24 12z"/>
<path d="M4576 7375 c4 -8 15 -15 25 -15 10 0 19 7 19 15 0 9 -9 15 -25 15
-18 0 -23 -4 -19 -15z"/>
<path d="M3936 7365 c-9 -26 -7 -32 5 -12 6 10 9 21 6 23 -2 3 -7 -2 -11 -11z"/>
<path d="M4138 7323 c7 -3 16 -2 19 1 4 3 -2 6 -13 5 -11 0 -14 -3 -6 -6z"/>
<path d="M4008 7313 c6 -2 18 -2 25 0 6 3 1 5 -13 5 -14 0 -19 -2 -12 -5z"/>
<path d="M4617 7274 c-4 -4 -4 -10 -1 -15 6 -10 34 0 34 12 0 10 -24 12 -33 3z"/>
<path d="M4572 7218 c6 -18 28 -21 28 -4 0 9 -7 16 -16 16 -9 0 -14 -5 -12
-12z"/>
<path d="M4295 7170 c-3 -5 -1 -10 4 -10 6 0 11 5 11 10 0 6 -2 10 -4 10 -3 0
-8 -4 -11 -10z"/>
<path d="M2187 7143 c-4 -3 -7 -39 -7 -80 0 -72 -14 -99 -23 -45 -3 15 -4 8
-3 -15 1 -24 -3 -45 -9 -47 -5 -2 -4 -5 4 -5 11 -1 11 -4 1 -16 -8 -10 -9 -15
-2 -15 7 0 6 -14 -4 -42 -14 -41 -14 -67 1 -102 5 -11 3 -21 -5 -26 -9 -6 -11
-21 -6 -57 13 -87 13 -93 5 -87 -5 3 -9 -2 -9 -10 0 -9 5 -16 10 -16 6 0 10
-15 9 -32 -2 -18 -1 -46 0 -63 2 -25 4 -27 10 -11 6 16 10 11 19 -25 6 -25 18
-59 27 -75 l15 -29 0 43 c0 23 5 42 11 42 6 0 8 9 4 21 -5 14 -1 25 11 33 16
13 16 14 -3 31 -17 14 -20 25 -16 56 3 21 1 45 -5 52 -15 17 -3 60 14 53 16
-6 31 13 17 23 -5 3 -10 17 -11 31 0 14 -6 26 -12 28 -6 2 -10 51 -10 129 0
107 2 124 15 119 18 -7 18 2 0 34 -8 14 -15 36 -15 50 -1 28 -23 63 -33 53z
m-12 -333 c3 -5 1 -10 -4 -10 -6 0 -11 5 -11 10 0 6 2 10 4 10 3 0 8 -4 11
-10z m-8 -282 c-3 -8 -6 -5 -6 6 -1 11 2 17 5 13 3 -3 4 -12 1 -19z"/>
<path d="M2152 7095 c0 -16 2 -22 5 -12 2 9 2 23 0 30 -3 6 -5 -1 -5 -18z"/>
<path d="M2086 6735 c8 -37 14 -45 14 -19 0 10 -5 26 -10 34 -8 11 -9 7 -4
-15z"/>
<path d="M3070 6690 c0 -5 5 -10 10 -10 6 0 10 5 10 10 0 6 -4 10 -10 10 -5 0
-10 -4 -10 -10z"/>
<path d="M2083 6654 c-7 -7 -13 -22 -13 -34 0 -11 -7 -20 -16 -20 -21 0 -7
-19 22 -30 13 -5 24 -15 24 -22 0 -8 -3 -9 -8 -3 -4 6 -13 11 -21 13 -10 2
-12 -4 -6 -25 l7 -28 -22 28 c-12 16 -25 26 -28 23 -2 -3 1 -12 8 -21 7 -8 10
-25 6 -39 -4 -18 -1 -26 12 -30 14 -5 17 -16 16 -53 -1 -36 -5 -47 -15 -44
-32 9 -54 5 -57 -11 -3 -13 4 -16 33 -14 19 2 38 -1 41 -6 3 -4 10 -5 16 -2 6
4 8 2 5 -3 -4 -6 0 -16 8 -23 15 -12 20 -4 16 23 0 4 4 7 9 7 6 0 10 7 10 16
0 8 -4 12 -10 9 -5 -3 -10 3 -10 14 0 12 6 21 13 21 8 0 9 2 1 8 -6 4 -12 39
-13 77 -1 39 -5 95 -9 126 -6 46 -9 54 -19 43z m14 -200 c-4 -4 -16 2 -27 13
-25 27 -12 40 14 14 11 -11 17 -24 13 -27z"/>
<path d="M4705 6650 c-49 -7 -42 -11 22 -14 21 0 33 4 33 12 0 6 -1 11 -2 10
-2 0 -25 -4 -53 -8z"/>
<path d="M2240 6628 c0 -7 4 -19 9 -27 11 -17 23 1 15 23 -7 19 -24 21 -24 4z"/>
<path d="M4530 6610 c0 -5 5 -10 11 -10 5 0 7 5 4 10 -3 6 -8 10 -11 10 -2 0
-4 -4 -4 -10z"/>
<path d="M1990 6571 c0 -11 5 -23 10 -26 6 -3 10 -2 10 4 0 5 3 16 6 25 4 11
1 16 -10 16 -9 0 -16 -8 -16 -19z"/>
<path d="M2247 6573 c-4 -3 -7 -16 -6 -27 0 -19 1 -19 10 3 10 24 8 36 -4 24z"/>
<path d="M2284 6559 c-3 -6 -1 -16 5 -22 8 -8 11 -5 11 11 0 24 -5 28 -16 11z"/>
<path d="M1983 6492 c0 -7 7 -12 15 -10 22 4 25 24 4 24 -10 0 -19 -6 -19 -14z"/>
<path d="M2271 6483 c0 -25 1 -26 9 -8 12 27 12 35 0 35 -5 0 -10 -12 -9 -27z"/>
<path d="M2244 6384 c3 -9 6 -21 6 -27 0 -7 5 -4 11 6 11 18 5 37 -13 37 -5 0
-7 -7 -4 -16z"/>
<path d="M2118 6276 c-2 -20 0 -40 5 -43 4 -2 7 -24 5 -46 -3 -36 0 -42 18
-45 20 -3 21 1 17 49 -2 28 -12 68 -22 87 l-18 36 -5 -38z"/>
<path d="M2027 6286 c-4 -10 -7 -29 -7 -42 0 -19 5 -24 26 -24 20 0 24 3 17
13 -6 6 -15 25 -20 41 -8 25 -10 27 -16 12z"/>
<path d="M2078 6282 c-4 -12 -2 -22 3 -22 5 0 9 -8 10 -17 0 -15 2 -15 9 2 12
27 12 47 1 41 -5 -4 -11 -1 -13 6 -3 7 -7 2 -10 -10z"/>
<path d="M2043 6188 c-27 -35 -25 -38 22 -38 33 0 45 4 42 13 -2 6 -11 11 -21
9 -9 -2 -16 4 -16 13 0 18 -14 20 -27 3z"/>
<path d="M4796 6127 c-5 -21 -6 -41 -2 -44 12 -12 17 5 14 43 l-4 39 -8 -38z"/>
<path d="M2038 6093 c6 -2 12 -12 12 -20 0 -9 -6 -13 -15 -10 -8 4 -17 2 -20
-3 -4 -6 3 -10 14 -10 13 0 21 -7 21 -16 0 -13 3 -14 14 -5 10 8 16 9 21 1 10
-16 25 -12 25 7 0 14 2 14 20 -2 16 -14 23 -16 32 -7 16 16 29 15 22 -2 -4
-10 2 -14 18 -12 23 1 23 3 11 26 -7 14 -13 32 -13 40 0 25 -71 25 -98 0 -23
-21 -32 -14 -10 8 9 9 3 12 -27 11 -22 0 -34 -3 -27 -6z"/>
<path d="M2310 6032 c0 -12 6 -22 13 -22 8 0 7 -4 -3 -10 -13 -8 -13 -10 -1
-10 11 0 11 -3 -3 -13 -16 -12 -14 -14 19 -30 29 -14 35 -21 30 -37 -4 -14 -2
-20 8 -20 8 0 20 -7 28 -16 10 -13 10 -17 -1 -24 -12 -7 -11 -12 3 -28 9 -10
17 -24 17 -31 0 -8 6 -11 15 -7 14 5 21 -11 16 -38 -1 -5 5 -6 14 -3 9 4 21
-3 32 -19 l17 -26 8 22 c7 18 11 20 23 10 8 -7 15 -20 15 -29 0 -12 11 -16 45
-18 25 -1 45 3 45 8 0 15 38 10 47 -6 7 -12 10 -11 21 5 11 18 10 20 -15 21
-27 0 -27 1 -5 9 32 13 27 24 -8 17 -17 -4 -30 -2 -30 3 0 6 5 10 12 10 6 0 1
9 -12 20 -15 13 -31 18 -44 15 -21 -6 -21 -6 -2 9 11 9 18 17 15 18 -41 26
-69 37 -69 29 0 -6 -4 -11 -10 -11 -5 0 -10 7 -10 15 0 8 -4 15 -10 15 -5 0
-18 10 -30 22 -11 12 -20 16 -20 10 0 -7 -7 -12 -16 -12 -11 0 -15 6 -11 19 3
13 1 18 -8 14 -8 -3 -15 4 -17 19 -2 15 -16 29 -40 41 -21 9 -38 22 -38 27 0
6 -9 20 -20 32 l-20 22 0 -22z m180 -208 c0 -15 -25 -25 -45 -18 -26 10 -16
31 15 31 17 0 30 -6 30 -13z m63 -40 c9 -9 -4 -35 -14 -28 -5 3 -9 12 -9 20 0
14 12 19 23 8z"/>
<path d="M2280 6020 c0 -11 5 -20 10 -20 6 0 10 9 10 20 0 11 -4 20 -10 20 -5
0 -10 -9 -10 -20z"/>
<path d="M2380 6006 c0 -2 7 -7 16 -10 8 -3 12 -2 9 4 -6 10 -25 14 -25 6z"/>
<path d="M2450 5950 c0 -5 5 -10 11 -10 5 0 7 5 4 10 -3 6 -8 10 -11 10 -2 0
-4 -4 -4 -10z"/>
<path d="M5735 5910 c3 -5 10 -10 16 -10 5 0 9 5 9 10 0 6 -7 10 -16 10 -8 0
-12 -4 -9 -10z"/>
<path d="M5940 5914 c0 -15 22 -44 31 -39 18 12 10 45 -11 45 -11 0 -20 -3
-20 -6z"/>
<path d="M6110 5830 c0 -5 5 -10 10 -10 6 0 10 5 10 10 0 6 -4 10 -10 10 -5 0
-10 -4 -10 -10z"/>
<path d="M2750 5700 c0 -5 5 -10 11 -10 5 0 7 5 4 10 -3 6 -8 10 -11 10 -2 0
-4 -4 -4 -10z"/>
<path d="M2723 5653 c9 -2 23 -2 30 0 6 3 -1 5 -18 5 -16 0 -22 -2 -12 -5z"/>
<path d="M3371 5634 c0 -11 3 -14 6 -6 3 7 2 16 -1 19 -3 4 -6 -2 -5 -13z"/>
<path d="M2688 5623 c7 -3 16 -2 19 1 4 3 -2 6 -13 5 -11 0 -14 -3 -6 -6z"/>
<path d="M6620 5438 c0 -2 7 -21 15 -43 l14 -40 1 43 c0 31 -4 42 -15 42 -8 0
-15 -1 -15 -2z"/>
<path d="M2380 5410 c0 -5 7 -10 16 -10 8 0 12 5 9 10 -3 6 -10 10 -16 10 -5
0 -9 -4 -9 -10z"/>
<path d="M2130 4902 c0 -23 5 -42 10 -42 7 0 8 14 4 38 -9 51 -14 53 -14 4z"/>
<path d="M1989 4891 c12 -16 21 -34 21 -40 0 -15 -17 -14 -23 2 -3 8 -10 6
-21 -8 -18 -23 -21 -45 -6 -45 12 0 13 -27 1 -32 -4 -1 -11 -53 -14 -114 -6
-116 -1 -137 42 -172 14 -12 12 -12 -11 -7 -22 6 -28 4 -28 -8 0 -9 5 -19 11
-22 6 -4 8 -22 4 -45 -5 -31 -2 -43 14 -59 12 -12 21 -27 21 -33 1 -16 85 -68
111 -68 10 0 19 -6 19 -13 0 -7 12 -14 26 -15 15 -1 33 -10 41 -20 13 -16 14
-15 10 6 -6 28 21 43 34 20 12 -22 84 -58 115 -58 17 0 28 7 31 20 3 11 10 20
15 20 6 0 8 11 6 25 -3 13 -1 22 3 19 5 -3 9 4 9 15 0 10 -5 21 -11 23 -9 3
-24 96 -31 195 -2 29 -4 31 -35 26 -25 -4 -34 -2 -39 12 -9 22 19 45 54 45 13
0 20 4 17 10 -4 6 -10 8 -15 5 -5 -3 -11 -1 -15 5 -3 5 3 10 14 10 27 0 28 30
1 37 -11 3 -20 10 -20 15 0 6 -9 8 -19 5 -12 -3 -22 1 -26 12 -6 13 -8 12 -16
-6 -14 -38 -36 -28 -42 19 -3 24 -11 44 -17 46 -6 2 -20 13 -30 24 -10 11 -23
17 -29 13 -7 -4 -11 4 -11 19 0 14 -4 26 -10 26 -10 0 -13 -22 -10 -79 3 -57
-18 -25 -25 39 -8 66 -45 120 -84 120 -12 0 -21 6 -21 14 0 8 -7 17 -16 20
-12 4 -10 -1 5 -23z m81 -207 c0 -8 -5 -12 -10 -9 -6 4 -8 11 -5 16 9 14 15
11 15 -7z m87 -6 c-3 -8 -6 -5 -6 6 -1 11 2 17 5 13 3 -3 4 -12 1 -19z m-4
-31 c4 3 7 -1 7 -9 0 -16 1 -16 -130 -3 -72 7 -70 8 15 14 44 3 85 3 91 -1 6
-4 14 -5 17 -1z m-38 -102 c6 0 11 -17 13 -37 3 -34 1 -38 -20 -37 -13 0 -17
3 -10 6 6 2 12 11 12 19 0 17 -20 19 -20 2 0 -13 -39 31 -40 44 0 9 33 16 45
9 6 -3 15 -6 20 -6z m165 -15 c0 -5 -2 -10 -4 -10 -3 0 -8 5 -11 10 -3 6 -1
10 4 10 6 0 11 -4 11 -10z m-120 -86 c0 -8 -5 -12 -10 -9 -6 4 -8 11 -5 16 9
14 15 11 15 -7z"/>
<path d="M2187 4871 c3 -12 10 -21 15 -21 13 0 6 32 -9 37 -7 3 -9 -3 -6 -16z"/>
<path d="M2233 4839 c-6 -6 -9 -18 -6 -26 5 -12 0 -14 -28 -9 -30 5 -32 5 -11
-6 12 -6 22 -17 22 -25 0 -19 27 -28 44 -14 10 8 16 9 21 1 3 -5 14 -10 23
-10 23 0 48 -17 39 -27 -5 -4 -13 -1 -18 7 -9 13 -10 13 -6 0 2 -8 13 -15 25
-15 12 0 21 -4 21 -10 0 -5 -7 -9 -15 -7 -8 2 -14 -2 -14 -8 0 -5 9 -10 21
-10 11 0 17 -4 14 -10 -3 -5 -1 -10 4 -10 6 0 11 18 11 41 0 33 -5 45 -27 63
-15 11 -33 20 -39 18 -7 -1 -15 2 -19 7 -3 6 -12 8 -19 5 -8 -3 -16 7 -22 26
-7 24 -12 28 -21 19z"/>
<path d="M2285 4690 c3 -5 8 -10 11 -10 2 0 4 5 4 10 0 6 -5 10 -11 10 -5 0
-7 -4 -4 -10z"/>
<path d="M2480 4660 c0 -25 6 -32 46 -50 26 -11 51 -20 56 -20 6 0 25 -7 44
-16 19 -9 38 -14 41 -10 3 3 1 6 -5 6 -7 0 -12 5 -12 10 0 6 9 10 20 10 11 0
20 -4 20 -10 0 -22 4 -25 44 -37 22 -7 42 -13 44 -13 1 0 2 9 2 20 0 11 5 20
10 20 6 0 10 5 10 10 0 16 -37 12 -44 -5 -8 -22 -28 -18 -21 4 4 15 0 20 -22
24 -15 3 -38 8 -50 12 -17 6 -23 3 -23 -9 0 -9 -4 -16 -10 -16 -5 0 -10 7 -10
15 0 8 -5 15 -11 15 -5 0 -8 4 -5 9 6 10 -84 61 -108 61 -11 0 -16 -9 -16 -30z
m110 -35 c0 -11 -29 -11 -33 -1 -4 10 1 12 14 9 10 -3 19 -7 19 -8z"/>
<path d="M2840 4546 c0 -18 35 -22 45 -6 3 6 2 10 -4 10 -5 0 -16 3 -25 6 -11
4 -16 1 -16 -10z"/>
<path d="M2965 4520 c-7 -12 19 -12 55 0 22 7 21 8 -12 9 -20 1 -40 -3 -43 -9z"/>
<path d="M5738 4483 c-24 -6 -23 -23 2 -23 11 0 20 7 20 15 0 8 -1 14 -2 14
-2 -1 -11 -3 -20 -6z"/>
<path d="M1985 4040 c3 -5 8 -10 11 -10 2 0 4 5 4 10 0 6 -5 10 -11 10 -5 0
-7 -4 -4 -10z"/>
<path d="M3335 3910 c3 -5 14 -10 23 -10 15 0 15 2 2 10 -20 13 -33 13 -25 0z"/>
<path d="M2000 3390 c0 -5 -8 -10 -18 -10 -28 0 -31 -7 -18 -45 16 -45 13 -43
75 -49 29 -3 58 -10 65 -15 7 -6 16 -8 20 -4 3 4 12 -2 20 -12 13 -18 16 -19
67 -3 40 12 77 15 141 11 99 -6 127 0 109 21 -7 8 -51 18 -109 25 -121 14
-272 43 -267 51 2 3 -6 7 -17 7 -11 1 -28 9 -37 17 -20 18 -31 20 -31 6z"/>
<path d="M2785 3294 c-7 -51 0 -72 11 -29 5 20 9 23 15 13 6 -10 9 -8 9 7 -1
11 -7 28 -14 38 -12 16 -14 13 -21 -29z"/>
<path d="M3083 3305 c-3 -9 -3 -18 -1 -21 3 -3 8 4 11 16 6 23 -1 27 -10 5z"/>
<path d="M1945 3123 c6 -25 20 -51 68 -128 6 -11 32 -38 56 -60 25 -22 76 -69
113 -105 38 -36 77 -69 86 -74 9 -5 20 -13 23 -18 7 -11 119 -78 130 -78 5 0
17 -4 27 -9 17 -10 127 -45 169 -54 12 -3 24 0 27 7 2 6 5 4 5 -4 1 -9 9 -16
19 -16 9 -1 33 -4 52 -7 111 -20 121 -20 114 -3 -5 14 0 16 35 12 49 -4 67
-16 26 -16 -44 0 -17 -17 36 -22 45 -5 79 4 79 22 0 8 -44 27 -46 19 0 -2 -8
2 -16 9 -9 7 -24 9 -33 5 -15 -5 -17 -3 -12 11 5 14 1 16 -26 16 -17 0 -49 1
-69 4 -30 3 -38 1 -38 -12 0 -12 -5 -10 -25 8 -14 13 -25 28 -25 33 0 6 -7 19
-17 29 -13 14 -13 18 -2 18 11 0 11 2 -1 10 -10 7 -11 10 -2 10 7 0 15 -7 19
-17 5 -14 8 -13 15 6 10 29 1 43 -22 36 -11 -3 -22 0 -27 8 -12 21 -43 29 -43
12 0 -9 6 -12 16 -8 12 4 15 2 12 -8 -8 -23 -43 -17 -46 9 -2 12 -8 22 -13 22
-5 0 -14 11 -19 25 -5 14 -16 25 -24 25 -8 0 -27 7 -43 14 -15 8 -37 18 -48
21 -16 5 -17 8 -5 15 12 8 12 10 -3 16 -9 3 -31 4 -47 2 -28 -4 -29 -3 -14 13
14 15 13 18 -8 33 -12 9 -28 16 -35 16 -7 0 -13 9 -13 20 0 22 -16 27 -23 8
-3 -7 -10 2 -17 20 -7 17 -18 32 -25 32 -7 0 -16 6 -18 13 -3 6 -6 2 -6 -10
-1 -35 -29 -27 -45 12 -16 38 -27 43 -48 22 -17 -18 -38 -10 -38 14 0 14 -7
19 -30 19 -19 0 -30 -5 -30 -14 0 -26 -21 -29 -44 -7 -12 12 -26 18 -29 14 -4
-3 -7 -1 -7 6 0 7 -4 10 -9 7 -5 -3 -11 1 -15 9 -10 27 -29 17 -21 -12z m40
-23 c3 -5 1 -10 -4 -10 -6 0 -11 5 -11 10 0 6 2 10 4 10 3 0 8 -4 11 -10z
m309 -76 c10 -25 7 -34 -9 -34 -9 0 -15 9 -15 25 0 28 15 34 24 9z m-114 -34
c0 -5 -4 -10 -10 -10 -5 0 -10 5 -10 10 0 6 5 10 10 10 6 0 10 -4 10 -10z
m150 -200 c0 -5 -4 -10 -10 -10 -5 0 -10 5 -10 10 0 6 5 10 10 10 6 0 10 -4
10 -10z m388 -173 c5 -24 -15 -21 -28 4 -10 18 -9 20 7 17 10 -2 19 -11 21
-21z m92 -27 c8 -5 11 -10 5 -10 -5 0 -17 5 -25 10 -8 5 -10 10 -5 10 6 0 17
-5 25 -10z"/>
<path d="M2220 3110 c0 -5 5 -10 10 -10 6 0 10 5 10 10 0 6 -4 10 -10 10 -5 0
-10 -4 -10 -10z"/>
<path d="M3031 3044 c0 -11 3 -14 6 -6 3 7 2 16 -1 19 -3 4 -6 -2 -5 -13z"/>
<path d="M3022 2990 c0 -14 2 -19 5 -12 2 6 2 18 0 25 -3 6 -5 1 -5 -13z"/>
<path d="M2760 2670 c0 -5 5 -10 11 -10 5 0 7 5 4 10 -3 6 -8 10 -11 10 -2 0
-4 -4 -4 -10z"/>
<path d="M3030 2548 c0 -4 21 -8 48 -7 52 1 48 6 -10 11 -21 2 -38 0 -38 -4z"/>
<path d="M2408 2503 c28 -2 76 -2 105 0 28 2 5 3 -53 3 -58 0 -81 -1 -52 -3z"/>
<path d="M1010 1930 c0 -7 -27 -9 -89 -6 -72 3 -89 2 -85 -9 3 -7 -6 -21 -20
-30 -21 -14 -39 -16 -101 -10 -71 7 -75 6 -75 -13 0 -18 -9 -21 -80 -27 -87
-8 -106 -22 -37 -28 l42 -4 -42 -1 -43 -2 0 -60 0 -60 -40 0 c-30 0 -40 4 -40
16 0 9 -10 25 -22 36 -16 13 -19 21 -10 24 6 3 12 23 12 45 0 32 -3 39 -20 39
-17 0 -20 -7 -20 -41 0 -32 -3 -40 -14 -36 -10 4 -13 1 -9 -9 4 -11 -4 -14
-36 -14 -23 0 -41 5 -41 10 0 18 -31 10 -52 -12 -13 -16 -21 -19 -24 -10 -3 6
-23 12 -45 12 l-39 0 0 -70 0 -70 -40 0 -40 0 0 -624 c0 -560 2 -624 16 -630
9 -3 44 -6 79 -6 35 0 66 -4 70 -10 3 -5 29 -7 57 -4 27 3 64 0 82 -5 17 -5
78 -12 135 -15 58 -3 107 -9 110 -13 3 -5 29 -8 56 -9 28 0 105 -6 172 -12 67
-7 153 -12 192 -12 41 0 71 -4 71 -10 0 -6 46 -10 119 -10 66 0 122 -4 125 -9
6 -9 146 -28 176 -23 8 1 74 -5 145 -13 72 -8 261 -24 420 -35 160 -11 317
-25 350 -31 33 -5 83 -9 110 -9 73 1 193 -6 340 -19 71 -7 161 -12 200 -12 38
0 176 -4 306 -11 137 -6 313 -8 421 -3 l185 7 7 60 c3 34 6 87 6 119 0 51 -3
59 -19 59 -10 0 -22 -7 -25 -16 -10 -26 -19 -9 -28 49 -4 29 -10 67 -14 86 -4
18 -2 36 3 40 13 8 24 133 14 150 -5 7 -15 11 -22 9 -16 -5 -50 22 -43 34 3 4
33 21 68 37 34 17 68 37 75 45 22 27 6 46 -39 46 -39 0 -40 1 -40 34 0 19 -3
41 -6 50 -5 12 0 16 20 16 19 0 26 5 26 20 0 15 -7 20 -25 20 -28 0 -34 25
-14 62 6 11 12 39 13 62 1 33 4 41 20 39 16 -1 18 5 14 47 -3 27 -1 53 4 58 4
4 9 32 9 61 1 40 6 55 20 64 23 15 24 26 2 88 -17 48 -17 49 6 92 20 36 22 47
12 65 -10 19 -9 22 6 23 14 0 12 3 -6 10 -16 6 -21 14 -17 25 4 9 1 23 -5 30
-9 11 -5 15 19 20 34 7 50 32 30 46 -11 6 -10 10 1 17 9 6 10 11 2 15 -6 4
-11 4 -11 0 0 -4 -8 0 -17 9 -26 22 -86 36 -210 48 -59 6 -128 12 -153 15 -80
8 -143 12 -255 19 -60 3 -126 8 -145 11 -68 10 -247 22 -405 28 -336 13 -382
16 -460 26 -97 12 -373 11 -381 -1 -5 -9 -499 -5 -679 6 -76 5 -96 4 -85 -5
13 -9 12 -11 -5 -6 -11 2 -47 7 -80 11 -33 3 -72 8 -87 11 -17 4 -28 1 -28 -6z
m-435 -240 c3 -5 1 -10 -4 -10 -6 0 -11 5 -11 10 0 6 2 10 4 10 3 0 8 -4 11
-10z m3343 -1508 c2 -15 -2 -22 -12 -22 -11 0 -16 9 -16 26 0 31 23 28 28 -4z"/>
<path d="M653 1923 c9 -2 23 -2 30 0 6 3 -1 5 -18 5 -16 0 -22 -2 -12 -5z"/>
<path d="M738 1913 c12 -2 32 -2 45 0 12 2 2 4 -23 4 -25 0 -35 -2 -22 -4z"/>
<path d="M427 1864 c-13 -13 -7 -24 14 -24 11 0 19 5 17 12 -5 14 -22 21 -31
12z"/>
<path d="M524 1855 c-18 -14 -18 -14 9 -15 17 0 27 5 27 15 0 19 -11 19 -36 0z"/>
<path d="M4551 1594 c0 -11 3 -14 6 -6 3 7 2 16 -1 19 -3 4 -6 -2 -5 -13z"/>
<path d="M4005 1350 c-3 -5 1 -10 10 -10 9 0 13 5 10 10 -3 6 -8 10 -10 10 -2
0 -7 -4 -10 -10z"/>
<path d="M4545 1161 c-3 -5 -1 -12 5 -16 5 -3 10 1 10 9 0 18 -6 21 -15 7z"/>
<path d="M3900 1000 c0 -35 3 -40 23 -40 49 0 65 54 21 70 -40 16 -44 13 -44
-30z"/>
<path d="M3978 873 c6 -2 18 -2 25 0 6 3 1 5 -13 5 -14 0 -19 -2 -12 -5z"/>
<path d="M4240 835 c0 -9 6 -12 15 -9 8 4 12 10 9 15 -8 14 -24 10 -24 -6z"/>
<path d="M3928 813 c7 -3 16 -2 19 1 4 3 -2 6 -13 5 -11 0 -14 -3 -6 -6z"/>
<path d="M4000 800 c0 -19 3 -21 12 -12 9 9 9 15 0 24 -9 9 -12 7 -12 -12z"/>
<path d="M4168 813 c7 -3 16 -2 19 1 4 3 -2 6 -13 5 -11 0 -14 -3 -6 -6z"/>
<path d="M4328 68 c9 -9 15 -9 24 0 9 9 7 12 -12 12 -19 0 -21 -3 -12 -12z"/>
</g>
</svg>
