<?xml version="1.0" standalone="no"?>
<!DOCTYPE svg PUBLIC "-//W3C//DTD SVG 20010904//EN"
 "http://www.w3.org/TR/2001/REC-SVG-20010904/DTD/svg10.dtd">
<svg version="1.0" xmlns="http://www.w3.org/2000/svg"
 width="736.000000pt" height="981.000000pt" viewBox="0 0 736.000000 981.000000"
 preserveAspectRatio="xMidYMid meet">

<g transform="translate(0.000000,981.000000) scale(0.100000,-0.100000)"
fill="#000000" stroke="none">
<path d="M0 6440 l0 -3369 40 -12 c28 -9 40 -18 40 -31 0 -10 5 -18 10 -18 6
0 10 17 10 39 l0 38 110 1 c67 1 110 -2 110 -8 0 -13 97 -13 105 0 3 6 24 10
46 10 39 0 39 0 39 -40 0 -29 -4 -40 -15 -40 -9 0 -12 -6 -9 -15 5 -11 -1 -15
-19 -15 -13 0 -30 7 -37 15 -19 23 -30 18 -30 -15 0 -28 -2 -30 -41 -30 -24 0
-38 -4 -34 -10 4 -6 -7 -10 -27 -10 -18 0 -57 -7 -85 -14 -48 -13 -53 -13 -53
2 0 15 -2 15 -10 2 -14 -22 -12 -30 7 -30 9 0 24 -7 34 -16 17 -16 17 -18 -8
-50 -14 -19 -34 -34 -44 -34 -37 0 -19 -20 19 -21 20 0 30 -3 22 -6 -25 -10
-52 -41 -45 -52 3 -6 15 -11 26 -11 11 0 33 -7 50 -16 24 -12 29 -20 24 -37
-5 -17 -4 -19 4 -7 9 13 12 12 17 -8 4 -13 14 -22 25 -22 11 0 20 -7 20 -15 1
-8 3 -19 4 -25 1 -5 3 -17 4 -26 1 -13 4 -14 16 -4 11 9 20 8 45 -10 16 -12
30 -28 30 -36 0 -8 10 -14 23 -14 13 0 28 -5 35 -12 9 -9 12 -8 12 4 0 9 -6
19 -12 21 -10 4 -10 6 0 6 19 1 22 1 20 -1 -1 -2 12 -17 28 -34 35 -36 55 -44
110 -46 39 -1 78 -23 68 -39 -3 -5 2 -9 11 -9 16 0 27 -7 66 -43 10 -9 23 -17
28 -17 5 0 11 -6 14 -14 7 -17 59 -44 112 -57 22 -5 45 -11 50 -13 6 -2 22 -6
38 -11 15 -4 27 -11 27 -15 0 -5 9 -11 19 -15 11 -3 23 -15 26 -25 3 -10 11
-17 18 -14 7 2 36 -5 65 -15 38 -14 52 -16 49 -7 -4 10 2 10 29 2 19 -6 34
-17 34 -24 0 -7 5 -10 10 -7 16 10 81 -18 76 -32 -3 -7 1 -10 10 -6 7 3 14 1
14 -5 0 -5 15 -8 34 -7 29 3 35 0 39 -21 2 -14 0 -27 -4 -30 -5 -3 -9 -12 -9
-20 0 -11 6 -13 23 -8 40 13 161 11 185 -3 12 -8 27 -11 31 -8 5 3 11 0 13 -6
2 -7 17 -13 32 -15 16 -2 36 -9 45 -17 9 -8 22 -12 28 -10 7 3 13 -1 13 -7 0
-7 8 -9 21 -5 16 5 19 4 14 -5 -5 -9 -4 -11 3 -6 6 4 19 2 29 -3 32 -17 80
-29 91 -22 6 4 -19 17 -56 30 -37 13 -78 33 -92 43 -14 11 -50 36 -82 56 -31
21 -85 63 -120 94 -89 81 -101 92 -123 119 -10 13 -48 59 -82 102 -35 43 -79
108 -98 145 -20 37 -49 90 -65 117 -69 116 -138 343 -166 545 -18 127 -14 364
12 719 7 102 15 242 18 311 3 69 8 134 10 145 3 11 5 28 5 39 1 15 4 16 16 6
8 -7 15 -21 15 -32 0 -10 7 -21 15 -24 11 -5 14 -19 13 -54 -1 -27 -6 -46 -12
-43 -5 4 -6 -5 -2 -21 4 -15 2 -26 -4 -26 -6 0 -10 -26 -10 -62 0 -34 3 -59 6
-55 4 3 6 27 6 52 -1 27 3 43 8 40 6 -3 10 -13 10 -21 0 -23 25 -11 28 14 4
27 8 27 54 -2 24 -14 34 -26 28 -32 -6 -6 -2 -14 10 -22 12 -7 21 -8 25 -2 3
6 1 10 -4 10 -6 0 -11 5 -11 10 0 15 16 12 34 -5 14 -14 17 -14 33 5 20 22 22
23 41 11 10 -6 15 -43 19 -127 3 -66 7 -121 9 -123 3 -3 14 -6 25 -8 15 -2 19
2 17 14 -3 20 7 25 40 16 27 -6 29 -23 3 -23 -10 0 -21 -9 -24 -20 -4 -15 -14
-20 -37 -20 -21 0 -30 -4 -27 -12 2 -8 17 -12 34 -10 18 2 45 -5 63 -17 l33
-19 -29 -4 c-16 -2 -45 0 -64 4 -57 12 -64 -3 -54 -119 l9 -98 68 -3 c42 -2
74 2 83 9 10 9 17 9 28 0 24 -20 44 27 47 115 l4 79 -33 3 c-41 4 -37 23 6 34
32 9 32 9 34 81 1 40 1 105 0 146 l-1 74 43 -6 c24 -4 63 -13 87 -22 24 -8 55
-15 69 -15 23 -1 23 -2 8 -14 -16 -12 -16 -14 7 -34 21 -19 23 -25 14 -52 -6
-17 -9 -46 -7 -65 2 -19 1 -35 -3 -35 -4 0 -10 -40 -14 -88 -6 -75 -4 -100 15
-163 29 -97 87 -208 102 -194 3 3 5 -9 5 -27 0 -18 5 -34 11 -36 7 -2 12 -12
12 -22 0 -10 4 -22 10 -25 5 -3 20 -29 31 -56 12 -27 32 -58 44 -67 12 -10 30
-32 39 -50 16 -31 56 -62 56 -43 0 5 -7 11 -15 15 -10 3 -16 20 -16 48 -2 30
-3 35 -6 15 -5 -30 -23 -27 -23 4 0 11 -4 18 -8 15 -4 -2 -14 -1 -22 4 -11 7
-15 30 -16 80 -2 78 -14 111 -14 39 -1 -40 -2 -42 -15 -26 -7 11 -11 26 -7 35
5 15 4 15 -11 3 -15 -12 -17 -11 -17 2 0 9 4 19 10 22 5 3 10 12 9 18 0 9 -2
9 -6 0 -10 -27 -23 -11 -23 28 0 34 3 39 13 30 31 -25 38 39 10 88 -17 29 -17
31 -1 47 14 14 15 19 4 28 -21 17 -29 76 -11 82 17 7 21 34 5 34 -18 0 -10 18
21 50 28 28 30 32 16 48 -17 20 -16 93 4 190 9 45 10 69 3 80 -8 12 -6 32 5
69 13 45 20 55 47 63 18 6 34 19 37 30 4 17 -2 20 -54 26 -69 8 -71 14 -5 16
25 0 49 5 53 11 4 6 0 8 -9 4 -9 -3 -35 -1 -58 5 l-42 11 29 23 c28 24 49 31
39 15 -11 -16 47 -24 59 -7 8 10 26 14 59 13 37 -2 51 2 62 17 35 48 174 182
191 183 10 1 63 16 118 33 55 17 109 33 120 34 11 2 23 4 28 5 14 2 7 31 -12
40 -15 9 -20 6 -26 -12 -7 -20 -8 -20 -12 -3 -3 13 -7 15 -12 7 -5 -7 -65 -15
-167 -21 -87 -5 -172 -11 -189 -14 -16 -3 -46 -8 -66 -11 l-36 -5 7 -45 c4
-25 10 -48 13 -51 7 -8 -17 -34 -32 -34 -5 0 -13 -5 -17 -12 -5 -8 -2 -9 9 -5
24 9 31 -10 8 -22 -30 -17 -64 -14 -57 4 3 8 1 15 -4 15 -6 0 -10 -4 -10 -10
0 -5 -7 -10 -15 -10 -8 0 -15 5 -15 10 0 18 -18 10 -23 -10 -3 -12 -1 -20 6
-19 33 4 77 -2 77 -11 0 -5 -6 -10 -14 -10 -8 0 -16 -3 -18 -7 -4 -10 -102
-57 -143 -70 -27 -9 -100 -6 -325 12 -35 3 -41 1 -27 -6 22 -13 202 -33 277
-32 40 1 48 -1 30 -7 -25 -8 -25 -8 8 -15 49 -11 39 -28 -13 -23 -29 4 -43 2
-42 -6 1 -6 -3 -10 -9 -9 -6 1 -31 3 -55 4 -24 1 -50 7 -56 12 -9 6 -13 6 -13
-1 0 -12 -54 3 -77 20 -7 5 -16 7 -22 4 -5 -3 -17 -3 -26 0 -13 5 -14 8 -3 15
9 6 2 9 -19 9 -59 0 -284 50 -364 81 -112 43 -106 51 10 12 103 -35 191 -46
198 -27 2 7 -10 17 -27 23 -17 6 -29 15 -26 20 3 5 -6 12 -19 15 -29 7 -24 16
30 50 18 12 25 21 17 24 -7 2 -21 -3 -30 -11 -9 -8 -27 -18 -39 -21 -13 -4
-23 -11 -23 -16 0 -4 -7 -11 -16 -14 -13 -5 -13 0 4 28 12 20 18 44 15 55 -3
12 -1 21 6 21 6 0 11 5 11 11 0 5 -4 7 -10 4 -5 -3 -10 1 -10 9 0 9 -4 16 -10
16 -5 0 -10 5 -10 10 0 6 13 10 29 10 16 0 34 7 41 15 12 14 8 15 -28 9 -137
-22 102 55 298 95 80 17 186 34 235 38 125 10 506 6 585 -6 91 -14 236 -25
228 -16 -3 3 -37 10 -75 14 l-68 8 54 2 c42 1 52 4 48 15 -15 39 -28 99 -25
119 2 18 -1 21 -19 19 -12 -2 -24 2 -28 8 -4 6 -1 9 7 8 16 -4 23 41 9 55 -18
18 -14 67 7 67 9 0 22 -4 28 -8 11 -7 34 -170 34 -242 l0 -42 40 4 c29 2 41
-1 46 -12 5 -11 9 -7 14 15 3 17 3 34 -2 40 -4 5 -8 26 -8 48 0 21 -4 36 -9
32 -5 -3 -7 -21 -4 -40 5 -34 5 -35 -26 -35 -27 0 -31 3 -29 23 2 12 -3 66
-11 120 -13 95 -13 99 7 127 19 25 20 38 16 116 -3 49 -2 85 2 82 6 -6 11 -54
31 -295 8 -98 24 -93 21 7 -1 44 1 83 5 86 4 4 7 0 7 -8 0 -9 7 -21 15 -28 9
-8 15 -31 16 -59 0 -25 4 -66 9 -91 11 -57 4 90 -16 355 -24 323 -23 317 -50
311 -12 -3 -25 -2 -28 3 -6 9 -145 6 -154 -4 -3 -3 -13 2 -23 11 -14 12 -43
15 -146 16 -70 0 -155 -3 -187 -7 -40 -5 -57 -4 -52 3 4 7 -10 9 -43 5 -27 -2
-58 0 -69 6 -10 5 -23 6 -28 2 -11 -10 -319 -35 -332 -27 -5 3 -15 -1 -22 -9
-15 -18 -31 -20 -26 -2 1 6 1 9 -1 4 -3 -4 -10 -4 -15 -1 -6 4 -8 2 -4 -4 4
-7 -9 -10 -39 -8 -25 1 -45 -1 -45 -6 0 -4 -17 -8 -38 -8 l-39 0 6 37 c5 30
12 38 35 44 32 9 62 46 58 72 -2 10 3 17 13 17 9 0 14 -4 11 -9 -9 -14 5 -41
21 -41 8 0 12 -4 9 -8 -3 -5 16 -5 42 0 85 17 235 29 347 29 60 0 113 3 118 6
4 2 3 11 -4 19 -8 10 -36 14 -103 14 -94 0 -136 6 -136 20 0 5 46 8 103 8 133
0 137 0 137 11 0 6 -70 10 -167 11 -93 1 -188 3 -213 4 -25 2 -90 4 -144 5
-55 0 -96 4 -92 8 3 4 148 6 322 5 l315 -3 -12 22 c-11 21 -10 22 21 15 18 -3
36 -6 41 -6 22 0 6 -19 -19 -23 -49 -7 1053 2 1144 9 113 10 81 21 -66 24 -58
2 -139 6 -180 10 -48 5 6 7 150 5 152 -3 215 -1 195 5 -16 6 -144 13 -283 17
-139 3 -255 10 -258 15 -8 13 258 9 426 -8 191 -18 185 -17 204 -33 9 -7 23
-11 31 -7 9 3 15 0 15 -9 0 -8 6 -14 13 -12 8 1 13 -18 14 -67 1 -38 9 -83 16
-100 19 -40 32 -176 18 -176 -6 0 -11 5 -11 12 0 6 -3 9 -6 5 -4 -3 2 -26 13
-49 29 -62 32 -74 37 -173 l4 -90 -18 79 c-22 93 -48 156 -67 157 -25 3 -28 5
-68 42 -22 20 -55 43 -72 49 -18 7 -33 15 -33 18 0 3 -9 6 -20 7 -12 1 -20 -4
-20 -15 0 -13 -2 -13 -14 3 -11 16 -28 20 -85 21 l-71 1 0 -39 c0 -24 5 -41
14 -44 9 -3 16 -28 20 -67 10 -97 26 -230 32 -255 3 -17 20 -30 62 -48 31 -13
65 -29 75 -34 12 -7 17 -7 18 2 0 7 5 4 10 -7 5 -11 21 -25 34 -32 14 -6 23
-8 20 -3 -11 18 27 17 90 -2 49 -15 69 -27 77 -44 6 -13 14 -21 19 -19 4 3 12
-7 18 -22 12 -29 11 -17 -4 132 -4 36 -3 44 4 30 5 -11 10 -33 11 -50 1 -16 5
-39 10 -50 5 -12 7 9 4 55 l-3 75 15 -55 c9 -30 20 -75 25 -100 13 -59 13
-202 0 -209 -5 -3 -13 -19 -17 -35 -6 -26 -5 -27 14 -17 11 6 22 16 25 23 7
20 20 -59 14 -87 -4 -21 -1 -25 14 -20 24 8 25 -4 2 -21 -10 -7 -14 -16 -10
-21 5 -4 15 1 23 11 8 11 14 15 14 8 0 -26 -98 -98 -123 -89 -7 2 2 11 19 20
39 20 51 54 22 63 -11 3 -17 12 -14 20 7 19 -39 30 -73 17 -18 -6 -25 -15 -23
-28 2 -11 8 -21 13 -23 5 -2 9 -7 9 -12 0 -12 -72 -2 -136 20 -31 11 -60 17
-64 15 -5 -3 -11 -1 -15 5 -4 6 -10 8 -15 5 -5 -3 -12 0 -16 6 -5 8 3 10 24 7
26 -4 29 -2 20 9 -6 8 -7 13 -2 11 5 -2 10 0 12 5 5 17 1 27 -13 27 -8 0 -15
5 -15 11 0 8 -5 8 -15 -1 -8 -7 -15 -8 -15 -3 0 4 -30 9 -67 10 -38 1 -59 -1
-48 -4 47 -12 39 -25 -11 -18 -34 4 -54 3 -59 -4 -3 -6 -1 -11 4 -11 6 0 11
-7 11 -16 0 -13 -3 -14 -14 -5 -9 8 -16 8 -20 2 -4 -5 -2 -12 3 -16 6 -3 8
-12 5 -19 -3 -7 3 -21 12 -30 14 -14 19 -15 25 -4 6 9 9 7 9 -8 0 -19 6 -22
48 -23 69 -3 91 -6 99 -15 5 -4 -18 -6 -50 -4 -71 4 -75 -7 -4 -16 77 -9 137
-7 137 4 0 6 5 10 11 10 6 0 8 -9 4 -20 -6 -18 -2 -20 45 -20 28 0 65 7 82 16
22 11 33 13 41 5 20 -20 53 -12 111 26 l57 38 -6 45 c-4 25 -12 51 -17 58 -7
8 -7 12 2 12 8 0 10 8 6 23 -3 13 -12 89 -21 168 -8 79 -17 157 -20 172 l-5
28 668 -6 c651 -5 667 -6 687 -25 17 -17 21 -39 27 -133 9 -144 18 -207 28
-207 15 0 22 19 31 83 25 174 38 213 77 220 47 9 69 -16 77 -88 3 -36 10 -67
15 -70 17 -10 33 28 31 74 -1 37 3 50 15 55 24 9 28 2 27 -56 0 -34 7 -68 24
-104 26 -58 29 -60 56 -40 14 11 17 29 17 104 0 86 1 92 25 109 14 10 42 31
63 47 l37 28 130 -7 c71 -3 132 -9 135 -11 2 -3 -1 -9 -9 -13 -10 -7 -9 -10 3
-14 9 -4 16 -12 16 -20 0 -12 54 -71 62 -67 1 1 10 -1 18 -4 65 -21 92 -27 97
-23 2 3 22 -1 43 -8 21 -7 40 -11 43 -9 2 3 39 5 81 5 42 0 76 4 76 8 0 9 67
7 98 -3 12 -4 22 -13 22 -21 0 -16 33 -30 38 -16 2 6 22 10 45 10 l42 -2 -35
-7 c-34 -7 -34 -7 -6 -9 16 0 38 7 48 16 14 13 24 14 36 7 25 -15 112 -5 112
12 0 10 -13 14 -42 14 -54 0 -46 7 12 11 38 3 45 0 42 -14 -2 -13 4 -17 29
-17 23 0 30 4 26 15 -4 8 -2 17 3 20 6 4 10 -1 10 -9 0 -12 10 -16 35 -16 21
0 54 -12 85 -31 50 -31 87 -33 76 -4 -4 11 2 15 19 15 14 0 25 4 25 9 0 6 15
8 33 6 17 -2 71 -6 120 -9 l87 -5 0 122 c0 82 -4 127 -12 135 -9 9 -9 12 0 12
9 0 12 33 12 119 l0 119 -60 4 c-33 2 -63 7 -67 11 -4 4 0 20 9 35 9 15 21 60
28 99 12 66 12 75 -4 92 -21 23 -16 26 47 35 l47 7 0 649 c0 357 -3 651 -7
653 -10 6 -505 -18 -703 -33 -80 -7 -185 -18 -235 -27 -49 -8 -139 -20 -198
-27 -60 -7 -113 -18 -120 -25 -6 -6 -19 -11 -30 -11 -28 0 -117 -79 -117 -104
0 -12 -7 -31 -15 -43 -8 -12 -12 -28 -9 -36 3 -8 -4 -31 -15 -51 -12 -20 -21
-48 -21 -62 0 -14 -5 -35 -12 -47 -17 -32 -13 -175 7 -220 4 -9 5 -27 1 -40
-3 -12 -1 -48 5 -79 6 -32 8 -65 4 -75 -4 -10 -8 -44 -9 -76 -1 -46 -5 -61
-20 -69 -26 -15 -66 -50 -66 -59 0 -4 14 -12 30 -18 24 -8 30 -16 30 -39 0
-28 0 -28 89 -40 48 -7 162 -12 253 -12 150 0 168 -2 208 -22 55 -28 61 -53
22 -91 -54 -51 -49 -51 -1434 -38 -703 7 -1282 10 -1288 6 -5 -3 -12 4 -14 17
-12 55 -26 130 -26 135 0 4 5 2 12 -5 21 -21 77 -14 104 13 23 23 25 32 21 83
-7 73 -8 259 -1 275 3 7 26 28 52 47 142 106 143 108 83 166 -32 30 -41 46
-46 86 -6 42 -4 53 14 72 12 12 21 27 21 33 0 17 -35 43 -58 43 -34 0 -70 21
-76 44 -10 37 -6 192 5 203 17 17 13 102 -5 122 -17 18 -13 49 8 63 6 4 7 10
4 13 -4 4 -17 0 -30 -9 -16 -11 -45 -16 -99 -16 -94 0 -109 11 -80 63 21 37
14 57 -21 57 -13 0 -18 8 -18 26 0 21 3 24 21 19 22 -7 39 7 39 32 0 22 -54
63 -83 63 -15 0 -26 -4 -23 -9 4 -5 0 -11 -6 -14 -10 -3 -10 -7 0 -19 7 -9 10
-23 6 -32 -4 -9 -1 -16 6 -16 7 0 10 -7 6 -16 -4 -9 -1 -23 5 -30 9 -11 8 -14
-1 -14 -8 0 -10 -8 -6 -23 8 -34 -61 -77 -125 -77 -58 0 -107 17 -113 38 -2
10 -4 54 -4 100 0 50 -4 88 -11 95 -20 20 -12 47 16 58 23 8 30 6 50 -16 27
-29 41 -31 68 -11 17 13 18 19 9 55 -11 39 -3 64 11 41 9 -15 66 -12 132 6 39
10 115 17 233 19 96 2 203 9 238 15 42 8 67 8 75 2 8 -7 40 -7 92 -1 44 5 116
9 160 10 44 0 94 1 110 1 17 0 39 0 50 -1 11 -1 80 0 152 1 73 2 133 0 133 -4
0 -3 35 -5 78 -3 42 3 140 7 216 10 77 3 149 8 160 10 12 3 80 7 151 9 127 4
195 11 225 23 8 3 20 7 25 8 6 1 12 3 15 4 3 1 23 4 45 6 67 6 119 17 133 27
8 7 17 6 27 -2 9 -8 15 -8 15 -2 0 6 8 11 18 11 39 0 78 7 91 15 8 5 34 9 58
8 30 0 46 5 50 14 5 14 47 36 91 49 16 5 22 2 22 -9 0 -11 10 -16 33 -17 17
-1 51 -3 75 -4 30 -2 45 1 49 11 4 11 23 13 86 9 202 -12 261 -14 250 -9 -18
8 -16 27 2 20 8 -3 15 0 15 6 0 7 6 3 14 -8 12 -15 17 -17 27 -6 15 14 75 16
84 3 3 -6 39 -7 83 -5 42 3 93 5 112 4 101 -5 182 -1 195 10 10 8 19 9 28 3 6
-6 23 -13 35 -16 52 -13 52 -13 52 248 l0 243 -28 5 c-15 3 -71 0 -125 -7 -84
-11 -103 -10 -145 3 l-47 16 2 67 c2 50 -1 68 -12 72 -54 20 64 47 200 45 44
-1 97 -1 118 0 l37 1 0 599 0 599 -60 4 c-33 2 -62 7 -65 10 -3 3 2 21 11 39
10 19 21 42 26 52 5 11 13 44 19 75 5 31 13 58 19 60 5 2 10 17 10 32 0 16 5
32 10 35 6 3 10 15 10 25 0 10 6 21 13 23 9 4 8 8 -3 17 -11 8 -83 10 -255 6
-317 -8 -592 -9 -603 -2 -5 3 -18 -1 -28 -9 -28 -21 -44 -18 -44 10 0 21 -5
25 -28 25 -27 0 -29 -2 -39 -70 -9 -57 -16 -75 -38 -92 -20 -16 -25 -26 -21
-44 5 -19 2 -24 -11 -24 -14 0 -15 -2 -4 -9 7 -5 9 -11 4 -14 -4 -3 -9 -72
-11 -153 -2 -81 -5 -151 -8 -156 -3 -5 0 -15 6 -23 7 -9 9 -22 5 -32 -4 -10
-9 -56 -11 -103 -1 -47 -5 -125 -9 -175 -7 -120 -7 -408 1 -439 4 -18 2 -28
-9 -32 -9 -3 -13 -12 -10 -20 3 -8 0 -14 -7 -14 -7 0 -10 -7 -7 -14 4 -10 1
-13 -8 -10 -8 3 -19 -4 -26 -18 -12 -22 -12 -22 -19 -3 -5 15 -10 7 -21 -34
-9 -37 -20 -56 -35 -63 -15 -7 -23 -22 -26 -47 -3 -20 -2 -38 2 -41 4 -3 11
-25 15 -50 6 -37 9 -41 16 -25 5 12 8 -35 6 -117 -2 -128 -3 -138 -26 -162
l-23 -25 21 -27 c27 -34 29 -94 4 -95 -10 0 -29 -3 -43 -6 -51 -9 -550 -21
-1075 -24 l-540 -4 -33 25 -34 25 7 215 c3 118 6 270 5 338 -1 81 2 122 9 122
7 0 12 -43 13 -122 l1 -123 7 135 c4 74 10 317 14 540 3 223 9 541 13 708 l6
302 -30 0 -31 0 -6 -392 c-13 -876 -16 -1147 -16 -1440 0 -273 -2 -308 -17
-323 -14 -14 -35 -16 -147 -14 -72 2 -363 0 -647 -5 l-517 -8 -21 21 c-20 20
-21 29 -21 315 0 162 -3 301 -6 310 -7 19 -30 21 -37 4 -4 -10 -8 -10 -15 1
-7 10 -12 -2 -17 -45 -10 -93 -11 -93 -21 -14 l-9 75 -18 -34 c-9 -19 -18 -57
-19 -85 -1 -30 -4 -9 -8 49 -5 89 -6 81 -8 -76 -1 -97 1 -192 5 -210 l7 -34 7
35 c6 34 14 -84 14 -215 0 -57 -28 -95 -67 -95 -55 1 -54 0 -60 338 -3 172 -8
316 -12 319 -3 3 -13 2 -23 -2 -10 -5 -22 -9 -28 -9 -5 -1 -11 -20 -13 -43 -2
-24 -7 -43 -11 -43 -12 0 -23 -82 -15 -104 5 -13 9 -14 14 -6 4 7 8 -75 7
-181 0 -107 3 -204 7 -216 6 -19 1 -25 -31 -40 -35 -16 -90 -18 -613 -23 -523
-5 -576 -4 -591 11 -13 14 -17 77 -27 395 -7 209 -21 613 -32 899 -10 286 -22
602 -26 703 l-7 182 -426 0 -427 0 3 -87 c3 -89 25 -474 43 -748 5 -82 14
-235 20 -340 6 -104 17 -287 25 -405 8 -118 17 -262 20 -320 3 -58 8 -134 10
-170 2 -36 9 -148 15 -250 5 -102 17 -300 25 -440 8 -140 22 -385 30 -545 8
-159 20 -378 26 -485 17 -322 23 -690 11 -690 -6 0 -13 19 -17 41 -4 23 -14
57 -21 75 -17 41 -17 47 -2 38 6 -4 8 -3 5 3 -27 44 -76 756 -122 1798 -8 187
-20 394 -25 460 -5 66 -12 183 -15 260 -3 77 -12 286 -20 465 -8 179 -17 415
-20 525 -3 110 -8 218 -10 240 -3 22 -5 146 -6 275 -1 129 -4 250 -7 268 l-5
32 -228 0 -229 0 0 -3370z m6527 2678 c-3 -7 -5 -2 -5 12 0 14 2 19 5 13 2 -7
2 -19 0 -25z m1 -223 c-2 -69 0 -126 3 -128 4 -1 3 -24 -1 -52 -9 -57 -7 -63
14 -42 11 11 17 57 25 178 9 155 9 150 4 -91 -5 -231 -18 -460 -22 -385 -3 62
-14 104 -28 109 -10 4 -13 1 -9 -12 4 -10 1 -43 -4 -73 -6 -30 -13 -124 -16
-209 -6 -162 -12 -204 -23 -161 -4 14 -4 59 0 100 4 42 10 188 14 325 3 137
10 292 15 345 5 53 10 132 10 176 0 60 3 76 11 62 6 -10 9 -69 7 -142z m-2121
-112 c-3 -10 -5 -2 -5 17 0 19 2 27 5 18 2 -10 2 -26 0 -35z m0 -215 c-2 -24
-4 -5 -4 42 0 47 2 66 4 43 2 -24 2 -62 0 -85z m2140 -310 c-2 -13 -4 -3 -4
22 0 25 2 35 4 23 2 -13 2 -33 0 -45z m116 -85 c-7 -2 -21 -2 -30 0 -10 3 -4
5 12 5 17 0 24 -2 18 -5z m-3738 -292 c3 -144 1 -230 -4 -226 -6 3 -10 104
-11 237 0 128 2 229 5 226 3 -3 7 -109 10 -237z m3242 152 c-2 -16 -4 -5 -4
22 0 28 2 40 4 28 2 -13 2 -35 0 -50z m68 -68 c5 11 10 39 10 62 0 22 3 36 7
30 4 -7 7 -40 7 -74 -1 -34 2 -66 5 -72 4 -6 8 -54 9 -106 3 -88 1 -98 -19
-121 -26 -27 -74 -33 -74 -9 0 8 -9 15 -20 15 -16 0 -20 6 -19 33 1 29 2 30 8
7 10 -37 19 -13 30 86 6 49 17 127 23 174 l13 85 5 -65 c5 -51 8 -61 15 -45z
m378 78 c-7 -2 -19 -2 -25 0 -7 3 -2 5 12 5 14 0 19 -2 13 -5z m-3746 -55 c-3
-8 -6 -5 -6 6 -1 11 2 17 5 13 3 -3 4 -12 1 -19z m3290 -135 c-2 -16 -4 -5 -4
22 0 28 2 40 4 28 2 -13 2 -35 0 -50z m-3971 -615 c40 0 76 2 80 4 19 10 350
7 371 -3 15 -8 30 -8 52 -1 19 7 31 7 31 1 0 -12 47 -12 55 1 18 29 155 -4
155 -37 0 -19 -71 -88 -106 -103 -35 -15 -63 -74 -62 -134 0 -23 -8 -49 -20
-66 -15 -20 -18 -30 -9 -39 8 -8 7 -11 -4 -11 -8 0 -20 5 -26 11 -8 8 -17 7
-32 -3 -25 -17 -13 -33 29 -41 24 -4 24 -4 -3 -6 -16 0 -30 -8 -34 -18 -4 -10
-13 -23 -20 -28 -13 -10 -22 -53 -26 -127 -1 -16 -6 -28 -10 -28 -5 0 -5 -6 0
-12 4 -7 8 -40 8 -73 0 -33 4 -61 9 -62 5 -1 15 -15 23 -31 8 -17 23 -32 34
-35 12 -3 22 -17 25 -36 4 -17 10 -28 14 -26 9 5 23 -35 35 -92 4 -18 11 -33
17 -33 6 0 8 -11 4 -27 -4 -16 -8 -37 -10 -48 -1 -11 -8 -33 -14 -48 -13 -32
-5 -57 27 -79 14 -10 20 -29 22 -76 3 -37 0 -61 -6 -60 -11 1 -32 -6 -80 -27
-20 -10 -25 -15 -15 -19 8 -2 22 -7 30 -10 8 -3 -24 -4 -73 -4 -48 1 -83 4
-77 8 6 4 6 18 0 40 -6 19 -10 53 -10 76 0 33 5 44 30 62 24 18 30 30 30 60 0
51 -11 64 -67 82 l-48 15 3 65 c2 36 8 83 12 105 9 41 -1 113 -18 124 -5 3
-12 18 -15 33 -8 30 -32 58 -50 58 -7 0 -19 -15 -28 -33 -22 -44 -47 -47 -60
-8 -6 17 -14 31 -17 32 -4 1 -26 2 -50 3 -24 1 -47 8 -51 15 -6 9 -11 10 -15
2 -5 -8 -13 -8 -27 0 -16 8 -25 7 -38 -5 -29 -26 -43 1 -38 76 2 49 5 58 12
39 7 -20 10 -21 19 -10 6 8 18 14 26 14 8 0 16 10 18 23 3 20 -5 25 -34 21 -4
0 -10 5 -15 12 -6 10 -11 7 -18 -11 -7 -18 -10 -20 -10 -7 -1 9 -7 17 -14 17
-24 0 -50 38 -49 72 1 123 1 124 16 102 8 -11 19 -36 24 -55 6 -19 11 -28 11
-21 1 10 5 10 21 0 16 -10 24 -10 41 0 15 10 24 10 34 2 19 -15 23 11 12 80
-15 108 -21 126 -41 133 -23 9 -62 -5 -71 -25 -12 -26 -53 -34 -61 -13 -4 8
-11 12 -17 8 -5 -3 -7 -1 -4 5 13 20 -4 39 -35 38 -41 -1 -56 -26 -41 -66 6
-16 7 -30 2 -30 -5 0 -19 -10 -31 -22 -16 -16 -21 -32 -19 -58 2 -33 2 -34
-13 -15 -8 11 -16 25 -16 32 0 6 -5 15 -11 19 -8 4 -9 -3 -4 -25 6 -30 -14
-69 -29 -54 -3 4 -6 -13 -6 -37 0 -36 2 -41 15 -30 8 7 24 10 35 7 11 -3 18
-1 15 3 -3 5 0 12 6 16 9 5 10 -6 4 -42 -4 -27 -11 -50 -16 -52 -12 -5 -11
-49 1 -72 16 -30 2 -70 -25 -70 -45 0 -52 23 -61 215 -10 222 -11 434 -1 458
4 11 12 15 19 11 21 -13 59 -13 112 0 31 8 79 12 121 9 39 -3 102 -5 141 -5z
m892 -21 c13 -15 20 -61 10 -64 -5 -2 -26 -3 -48 -3 -33 0 -40 3 -40 20 0 24
35 46 44 27 4 -6 4 -2 2 11 -5 24 15 30 32 9z m-881 -314 c-7 -6 -47 20 -47
30 0 4 4 6 9 2 5 -3 13 5 17 17 7 21 8 21 16 -11 5 -18 7 -35 5 -38z m-71 11
c-16 -30 -21 -17 -10 24 4 15 10 20 16 14 6 -6 4 -20 -6 -38z m-98 -100 c25
-44 -25 -92 -58 -56 -20 23 -19 41 4 58 26 18 43 18 54 -2z m1361 -28 c7 -8
11 -27 9 -43 -4 -36 -50 -55 -74 -31 -19 19 -24 48 -12 71 11 21 61 23 77 3z
m-1309 -142 c0 -19 -4 -34 -10 -34 -5 0 -14 -18 -20 -40 -8 -31 -16 -40 -32
-40 -26 0 -88 57 -88 81 0 22 38 46 86 53 21 4 41 11 42 16 8 21 22 -3 22 -36z
m1383 -150 c15 -5 18 -13 13 -36 -3 -16 0 -49 6 -72 10 -38 9 -48 -5 -70 -34
-51 -117 -19 -117 45 0 34 23 53 66 53 19 0 34 2 34 6 -1 3 -20 14 -43 25 -44
21 -55 46 -24 51 11 1 22 5 25 8 3 4 11 4 16 1 6 -3 19 -8 29 -11z m3521 -85
c-3 -5 10 -9 29 -9 22 0 37 -6 41 -15 4 -11 22 -15 63 -16 32 -1 69 -5 83 -9
l25 -8 -24 -1 c-42 -2 -101 -24 -101 -38 0 -11 -17 -13 -80 -12 -44 2 -74 6
-68 11 9 5 4 8 -12 8 -14 1 -56 9 -95 19 l-70 17 93 14 c60 8 90 16 83 23 -6
6 -5 14 2 22 13 14 40 8 31 -6z m-5044 -8 c0 -10 -40 -22 -52 -15 -18 11 -6
24 22 24 17 0 30 -4 30 -9z m4518 -58 c-27 -2 -69 -2 -95 0 -27 2 -5 3 47 3
52 0 74 -1 48 -3z m-4058 -29 c0 -8 -4 -14 -10 -14 -5 0 -10 9 -10 21 0 11 5
17 10 14 6 -3 10 -13 10 -21z m3 -120 c3 -17 0 -28 -10 -31 -21 -8 -36 19 -17
30 8 5 12 12 9 18 -4 5 -2 9 3 9 5 0 12 -12 15 -26z m-125 -5 c11 -17 11 -25
-3 -45 -20 -30 -67 -32 -112 -4 -38 23 -43 48 -10 54 12 3 31 7 42 9 47 10 71
6 83 -14z m192 -275 c8 -8 16 -35 20 -60 l7 -44 -36 -2 c-20 -1 -76 -1 -125 0
-68 0 -86 -2 -77 -11 11 -11 133 -17 373 -21 37 -1 48 -5 52 -19 4 -15 0 -18
-17 -13 -12 3 -39 6 -60 6 -24 0 -36 4 -32 10 5 7 -92 9 -302 6 -273 -4 -303
-3 -268 10 l40 14 -40 -5 c-22 -3 -50 -5 -63 -5 -13 0 -20 -4 -17 -10 3 -5 2
-10 -4 -10 -5 0 -11 4 -13 9 -4 12 -17 14 -130 12 -58 -1 -98 -5 -98 -11 0 -5
8 -10 17 -10 11 0 13 -3 7 -9 -5 -5 -56 -12 -114 -15 -64 -3 -93 -2 -75 3 17
5 53 9 80 10 49 1 86 14 69 23 -5 3 -65 -1 -134 -8 -159 -16 -177 -17 -164 -4
24 24 342 45 682 45 105 0 192 3 192 7 0 5 47 8 105 8 63 0 105 4 105 10 0 6
-17 10 -37 10 -28 0 -34 3 -23 10 27 17 5 19 -39 4 -45 -15 -83 -18 -191 -15
-47 2 -59 5 -45 11 11 5 14 9 6 9 -26 2 9 30 37 30 136 1 224 10 244 24 30 20
52 21 68 1z m-1161 -28 c12 -15 12 -113 0 -131 -3 -5 -10 -43 -13 -84 -11
-110 -3 -104 -120 -96 -124 7 -130 9 -144 41 -16 34 -15 55 4 82 15 22 20 23
103 17 l87 -7 19 35 c16 31 17 40 6 77 -11 37 -10 44 5 61 20 23 37 24 53 5z
m1539 -73 c-10 -2 -26 -2 -35 0 -10 3 -2 5 17 5 19 0 27 -2 18 -5z m-108 -30
c0 -3 -7 -11 -15 -19 -13 -14 -15 -13 -15 4 0 10 7 19 15 19 8 0 15 -2 15 -4z
m-850 -23 c0 -6 -33 -9 -82 -8 l-83 1 65 7 c36 4 73 7 83 8 9 1 17 -2 17 -8z
m1770 0 c0 -5 -2 -10 -4 -10 -3 0 -8 5 -11 10 -3 6 -1 10 4 10 6 0 11 -4 11
-10z m-883 -6 c-3 -3 -12 -4 -19 -1 -8 3 -5 6 6 6 11 1 17 -2 13 -5z m-320
-10 c-3 -3 -12 -4 -19 -1 -8 3 -5 6 6 6 11 1 17 -2 13 -5z m-444 -11 c-7 -2
-19 -2 -25 0 -7 3 -2 5 12 5 14 0 19 -2 13 -5z m-636 -29 c-3 -3 -12 -4 -19
-1 -8 3 -5 6 6 6 11 1 17 -2 13 -5z m-21 -94 c-3 -38 -2 -70 2 -70 15 0 22
-168 11 -249 -20 -148 -41 -276 -45 -280 -6 -7 3 231 12 309 6 47 9 58 14 40
3 -14 6 10 6 52 -1 74 -15 85 -18 13 -1 -29 -3 -33 -11 -20 -14 27 -5 234 12
244 7 5 10 14 7 20 -4 6 -2 11 5 11 9 0 10 -19 5 -70z m95 -108 c-12 -70 -21
-132 -21 -137 0 -4 -3 -6 -6 -2 -3 3 5 72 17 154 13 81 25 140 27 131 2 -10
-6 -75 -17 -146z m5537 62 c64 -6 73 -12 46 -35 -32 -27 -46 -70 -42 -137 3
-61 2 -65 -22 -74 -14 -5 -90 -12 -169 -16 -189 -9 -181 -15 -181 137 0 69 4
121 11 128 10 10 223 9 357 -3z m-3271 -126 c-3 -8 -6 -5 -6 6 -1 11 2 17 5
13 3 -3 4 -12 1 -19z m-2057 9 c0 -2 -11 -14 -25 -27 -27 -25 -35 -12 -9 14
14 14 34 22 34 13z m1127 -59 c-3 -8 -6 -5 -6 6 -1 11 2 17 5 13 3 -3 4 -12 1
-19z m-1107 2 c0 -5 -5 -10 -11 -10 -5 0 -7 5 -4 10 3 6 8 10 11 10 2 0 4 -4
4 -10z m-363 -32 c-3 -7 -5 -2 -5 12 0 14 2 19 5 13 2 -7 2 -19 0 -25z m300
10 c-3 -8 -6 -5 -6 6 -1 11 2 17 5 13 3 -3 4 -12 1 -19z m573 12 c0 -5 -7 -10
-15 -10 -8 0 -15 5 -15 10 0 6 7 10 15 10 8 0 15 -4 15 -10z m1537 -12 c-3 -8
-6 -5 -6 6 -1 11 2 17 5 13 3 -3 4 -12 1 -19z m-2416 -109 l-9 -34 -1 30 c0
17 2 41 6 55 7 23 8 24 11 4 2 -12 -1 -37 -7 -55z m1488 -19 c-1 -75 -6 -63
-12 28 -2 34 0 57 5 50 4 -7 7 -42 7 -78z m-1382 58 c-3 -8 -6 -5 -6 6 -1 11
2 17 5 13 3 -3 4 -12 1 -19z m693 12 c0 -5 -4 -10 -10 -10 -5 0 -10 5 -10 10
0 6 5 10 10 10 6 0 10 -4 10 -10z m1467 -12 c-3 -8 -6 -5 -6 6 -1 11 2 17 5
13 3 -3 4 -12 1 -19z m160 -20 c-3 -8 -6 -5 -6 6 -1 11 2 17 5 13 3 -3 4 -12
1 -19z m-330 -20 c-3 -8 -6 -5 -6 6 -1 11 2 17 5 13 3 -3 4 -12 1 -19z m340
-50 c-3 -7 -5 -2 -5 12 0 14 2 19 5 13 2 -7 2 -19 0 -25z m-2380 -80 c-3 -7
-5 -2 -5 12 0 14 2 19 5 13 2 -7 2 -19 0 -25z m1440 -75 c-2 -21 -4 -6 -4 32
0 39 2 55 4 38 2 -18 2 -50 0 -70z m-1512 10 c-4 -21 -11 -51 -16 -68 -4 -16
-11 -90 -14 -163 -3 -73 -10 -143 -14 -155 -8 -20 -9 -20 -15 10 -4 18 -5 41
-2 50 3 10 8 61 11 113 4 52 13 127 21 165 8 39 14 73 14 78 0 4 5 7 10 7 7 0
9 -14 5 -37z m391 -33 c5 0 11 -7 13 -17 2 -10 8 -21 15 -25 6 -4 -1 -8 -16
-8 -16 0 -28 5 -28 11 0 5 4 8 8 5 4 -2 8 5 9 17 0 12 -1 16 -4 9 -4 -10 -8
-10 -19 -1 -8 6 -11 16 -8 21 4 6 9 6 14 -2 4 -6 11 -11 16 -10z m-926 -10 c6
-11 15 -107 20 -213 13 -270 20 -369 31 -467 10 -98 12 -333 3 -443 l-7 -75
-26 31 c-14 18 -28 34 -32 37 -10 9 -29 72 -29 99 0 17 -7 30 -22 36 -12 6
-23 21 -25 35 -6 43 -31 70 -63 70 l-30 0 0 80 c0 47 -4 80 -10 80 -5 0 -10 7
-10 15 0 23 80 21 81 -2 2 -44 20 50 25 127 2 47 9 102 15 123 6 21 8 73 4
115 -3 43 -7 135 -10 207 -3 109 -2 132 12 147 22 24 60 23 73 -2z m2690 -13
c0 -5 -4 -5 -10 -2 -5 3 -10 14 -10 23 0 15 2 15 10 2 5 -8 10 -19 10 -23z
m-2131 -111 c1 -52 -7 -134 -25 -264 -3 -20 -9 -30 -16 -26 -11 7 -5 191 8
244 4 14 7 45 9 70 1 25 3 56 5 70 2 24 3 24 10 -5 4 -16 8 -57 9 -89z m996
87 c19 -6 29 -15 29 -26 -1 -11 6 -17 21 -17 13 0 30 -3 39 -6 11 -4 14 0 11
15 -5 27 34 38 75 21 16 -6 33 -9 39 -6 13 8 61 -3 61 -14 0 -5 -18 -6 -41 -3
-40 6 -40 6 -34 -23 10 -44 27 -74 42 -74 7 0 13 -9 13 -19 0 -23 18 -37 43
-33 10 2 17 -3 17 -12 0 -8 9 -18 20 -21 51 -16 6 -23 -163 -24 -130 -2 -198
-6 -233 -17 -34 -10 -68 -13 -112 -8 -42 4 -67 3 -76 -5 -9 -8 -16 -8 -20 -2
-7 11 -107 4 -144 -10 -31 -12 -72 -11 -72 1 0 6 10 10 23 11 21 0 21 1 2 9
-19 8 -19 9 2 9 31 1 40 21 9 21 -32 0 -34 15 -3 25 21 7 21 7 -7 14 -17 3
-28 11 -27 16 10 30 15 35 37 35 13 0 28 9 34 20 6 11 15 18 21 15 5 -4 9 4 9
15 0 13 8 24 19 27 10 2 24 17 31 31 8 17 14 22 17 14 4 -10 8 -9 18 5 11 16
27 18 101 18 55 0 94 5 101 12 9 7 22 8 40 3 16 -5 42 -12 58 -17z m-949 -100
c-11 -146 -17 -193 -26 -193 -5 0 -8 6 -5 13 2 6 6 55 9 107 6 97 15 160 23
160 3 0 2 -39 -1 -87z m5639 -63 c3 -5 -1 -10 -9 -10 -9 0 -16 5 -16 10 0 6 4
10 9 10 6 0 13 -4 16 -10z m-4338 -16 c-3 -3 -12 -4 -19 -1 -8 3 -5 6 6 6 11
1 17 -2 13 -5z m-1331 -232 c-13 -12 -16 7 -9 54 l8 49 3 -49 c2 -26 1 -51 -2
-54z m2014 -22 c0 -5 -2 -10 -4 -10 -3 0 -8 5 -11 10 -3 6 -1 10 4 10 6 0 11
-4 11 -10z m-890 -22 c0 -5 10 -6 23 -2 38 11 14 -3 -38 -24 -42 -16 -54 -18
-68 -7 -21 15 -22 25 -2 25 8 0 15 3 15 8 0 4 16 7 35 8 19 0 35 -4 35 -8z
m890 -13 c0 -8 -4 -15 -10 -15 -5 0 -10 7 -10 15 0 8 5 15 10 15 6 0 10 -7 10
-15z m97 -37 c-3 -8 -6 -5 -6 6 -1 11 2 17 5 13 3 -3 4 -12 1 -19z m-2088 2
c25 -1 26 -1 6 -16 -11 -8 -19 -24 -17 -34 2 -11 -2 -20 -7 -20 -6 0 -11 5
-11 12 0 6 -15 25 -32 41 l-33 30 34 -7 c18 -3 45 -6 60 -6z m-699 -40 c0 -5
-2 -10 -4 -10 -3 0 -8 5 -11 10 -3 6 -1 10 4 10 6 0 11 -4 11 -10z m2980 -20
c0 -5 -5 -10 -11 -10 -5 0 -7 5 -4 10 3 6 8 10 11 10 2 0 4 -4 4 -10z m-2315
-74 c39 -15 54 -23 35 -20 -36 7 -131 41 -140 51 -7 8 22 -1 105 -31z m835
-56 c0 -5 -2 -10 -4 -10 -3 0 -8 5 -11 10 -3 6 -1 10 4 10 6 0 11 -4 11 -10z
m-175 -130 c3 -5 1 -10 -4 -10 -6 0 -11 5 -11 10 0 6 2 10 4 10 3 0 8 -4 11
-10z m-15 -80 c0 -5 -4 -10 -10 -10 -5 0 -10 5 -10 10 0 6 5 10 10 10 6 0 10
-4 10 -10z m80 -26 c0 -8 -4 -13 -9 -10 -11 7 -21 -17 -21 -49 0 -30 -10 -55
-21 -55 -5 0 -9 9 -9 21 0 11 4 18 8 15 4 -2 8 11 8 30 0 22 7 39 20 49 24 18
24 18 24 -1z m-63 -46 c-3 -8 -6 -5 -6 6 -1 11 2 17 5 13 3 -3 4 -12 1 -19z
m-60 -10 c-3 -8 -6 -5 -6 6 -1 11 2 17 5 13 3 -3 4 -12 1 -19z m-450 -160 c-3
-8 -6 -5 -6 6 -1 11 2 17 5 13 3 -3 4 -12 1 -19z m-659 -158 c-1 -25 4 -56 11
-68 8 -15 12 -52 10 -98 -2 -41 1 -78 6 -82 6 -4 11 -53 12 -110 1 -62 6 -109
14 -118 8 -10 9 -21 1 -41 -6 -16 -10 -64 -8 -108 2 -60 -1 -84 -12 -98 -14
-16 -16 -16 -27 5 -6 13 -18 22 -26 20 -12 -2 -15 10 -15 55 0 170 -8 310 -19
328 -14 25 -19 123 -7 138 6 7 12 32 16 57 3 25 8 59 10 75 3 17 6 57 7 90 2
59 2 59 15 30 8 -16 13 -50 12 -75z m1189 -72 c-3 -7 -5 -2 -5 12 0 14 2 19 5
13 2 -7 2 -19 0 -25z m-27 -37 c0 -5 3 -17 7 -27 4 -11 2 -15 -7 -12 -20 6
-33 48 -15 48 8 0 15 -4 15 -9z m40 -87 c0 -14 -4 -22 -10 -19 -5 3 -10 17
-10 31 0 14 4 22 10 19 6 -3 10 -17 10 -31z m-48 -26 c-9 -9 -12 -7 -12 12 0
19 3 21 12 12 9 -9 9 -15 0 -24z m39 -28 c15 0 10 -37 -6 -44 -21 -8 -34 22
-21 50 8 16 12 19 14 9 2 -8 8 -15 13 -15z m-1761 -590 c0 -5 -2 -10 -4 -10
-3 0 -8 5 -11 10 -3 6 -1 10 4 10 6 0 11 -4 11 -10z m-55 -110 c-3 -5 -10 -10
-16 -10 -5 0 -9 5 -9 10 0 6 7 10 16 10 8 0 12 -4 9 -10z m155 -154 c0 -11
-19 -15 -25 -6 -3 5 1 10 9 10 9 0 16 -2 16 -4z"/>
<path d="M6520 8547 c0 -14 5 -29 10 -32 7 -4 8 3 4 22 -9 38 -14 42 -14 10z"/>
<path d="M2070 6830 c0 -11 2 -20 4 -20 2 0 6 9 9 20 3 11 1 20 -4 20 -5 0 -9
-9 -9 -20z"/>
<path d="M2231 6584 c0 -11 3 -14 6 -6 3 7 2 16 -1 19 -3 4 -6 -2 -5 -13z"/>
<path d="M2110 5790 c-11 -8 -7 -10 18 -8 17 1 32 6 32 10 0 11 -32 10 -50 -2z"/>
<path d="M1301 4944 c0 -11 3 -14 6 -6 3 7 2 16 -1 19 -3 4 -6 -2 -5 -13z"/>
<path d="M2350 4920 c0 -5 7 -10 15 -10 8 0 15 5 15 10 0 6 -7 10 -15 10 -8 0
-15 -4 -15 -10z"/>
<path d="M2176 4910 c-15 -5 -16 -9 -7 -14 7 -5 18 -3 24 3 14 14 6 20 -17 11z"/>
<path d="M2320 4880 c0 -19 3 -21 12 -12 9 9 9 15 0 24 -9 9 -12 7 -12 -12z"/>
<path d="M2304 4796 c1 -14 5 -29 9 -32 3 -3 4 6 3 20 -2 15 -6 29 -9 32 -3 4
-5 -6 -3 -20z"/>
<path d="M2390 4510 c0 -5 5 -10 11 -10 5 0 7 5 4 10 -3 6 -8 10 -11 10 -2 0
-4 -4 -4 -10z"/>
<path d="M2824 9238 c5 -362 11 -577 18 -583 6 -7 8 103 5 335 -3 306 -2 335
9 255 7 -49 13 -184 14 -300 2 -115 6 -298 10 -405 4 -107 5 98 3 455 -3 358
-6 670 -8 695 -2 25 -4 62 -5 83 0 33 -3 37 -26 37 l-27 0 7 -572z m23 370
c-2 -24 -4 -5 -4 42 0 47 2 66 4 43 2 -24 2 -62 0 -85z m10 -105 c-3 -10 -5
-2 -5 17 0 19 2 27 5 18 2 -10 2 -26 0 -35z m-10 -135 c-2 -18 -4 -6 -4 27 0
33 2 48 4 33 2 -15 2 -42 0 -60z"/>
<path d="M2843 8550 c0 -36 2 -50 4 -32 2 17 2 47 0 65 -2 17 -4 3 -4 -33z"/>
<path d="M2843 8395 c0 -33 2 -45 4 -27 2 18 2 45 0 60 -2 15 -4 0 -4 -33z"/>
<path d="M2763 8145 c0 -22 2 -30 4 -17 2 12 2 30 0 40 -3 9 -5 -1 -4 -23z"/>
<path d="M3810 7100 c0 -5 7 -7 15 -4 8 4 15 8 15 10 0 2 -7 4 -15 4 -8 0 -15
-4 -15 -10z"/>
<path d="M3826 7073 c-6 -14 -5 -15 5 -6 7 7 10 15 7 18 -3 3 -9 -2 -12 -12z"/>
<path d="M5237 6978 c-32 -71 -40 -116 -41 -238 -1 -92 -5 -132 -15 -143 -17
-21 -31 -22 -31 -2 0 8 -4 15 -8 15 -5 0 -22 13 -38 30 -39 40 -56 38 -77 -10
-19 -45 -21 -46 -90 -55 -36 -5 -47 -10 -43 -21 3 -8 1 -14 -4 -14 -6 0 -10 4
-10 8 0 4 -17 14 -37 21 -21 8 -46 20 -55 29 -17 14 -18 13 -17 -14 1 -57 16
-126 30 -136 11 -7 11 -11 2 -15 -7 -2 -13 -11 -13 -19 0 -9 4 -13 9 -10 8 6
22 -41 27 -94 3 -30 22 -99 23 -85 2 15 28 -38 34 -71 17 -82 37 -213 37 -245
0 -28 -8 -45 -34 -73 -19 -20 -41 -36 -50 -36 -33 0 -23 -18 13 -24 48 -7 68
-28 46 -46 -24 -20 -1 -30 67 -30 31 0 79 -5 106 -11 58 -12 100 -12 397 -2
l220 8 2 75 c1 41 9 120 18 175 9 55 19 116 21 135 2 19 9 60 14 90 33 200 37
354 8 399 -6 11 -29 26 -50 34 -27 11 -38 21 -38 37 0 30 21 113 31 125 14 15
10 61 -6 75 -8 7 -15 29 -15 50 0 84 -71 79 -101 -6 -9 -28 -22 -61 -28 -73
-11 -20 -13 -20 -36 -5 -40 26 -61 11 -74 -53 -6 -31 -11 -71 -11 -88 0 -19
-8 -39 -20 -50 -18 -16 -22 -17 -35 -4 -22 21 -38 123 -30 193 16 162 4 206
-55 206 -21 0 -31 -7 -43 -32z m-419 -442 c12 -3 12 -4 -3 -3 -11 1 -20 9 -21
17 0 8 1 10 3 3 2 -6 12 -14 21 -17z m748 -594 c7 -9 10 -20 6 -24 -9 -9 -177
-13 -191 -4 -18 12 -12 36 11 45 38 14 160 2 174 -17z"/>
<path d="M3585 5706 c-11 -6 -22 -12 -24 -13 -2 -2 1 -8 7 -15 9 -12 28 -99
47 -212 3 -21 9 -36 11 -33 3 3 -1 43 -10 89 -18 101 -21 147 -11 171 10 23 4
27 -20 13z"/>
<path d="M3283 5701 c-39 -3 -74 -9 -77 -12 -9 -9 196 2 219 12 23 9 -29 9
-142 0z"/>
<path d="M2438 5692 c-121 -1 -198 -6 -198 -12 0 -10 87 -14 245 -12 237 4
265 5 265 17 0 8 -19 12 -57 11 -32 -1 -147 -2 -255 -4z"/>
<path d="M2765 5690 c3 -5 10 -10 16 -10 5 0 9 5 9 10 0 6 -7 10 -16 10 -8 0
-12 -4 -9 -10z"/>
<path d="M3063 5692 c-50 -4 -58 -22 -10 -22 29 0 68 15 57 22 -3 2 -24 2 -47
0z"/>
<path d="M2930 5680 c0 -5 11 -10 25 -10 14 0 25 5 25 10 0 6 -11 10 -25 10
-14 0 -25 -4 -25 -10z"/>
<path d="M3267 5662 c-55 -4 -61 -12 -49 -67 l8 -40 72 -2 c40 -1 79 -6 87
-13 21 -18 34 15 23 62 -6 27 -5 45 3 54 11 14 -15 15 -144 6z"/>
<path d="M2787 5640 c-16 -19 -16 -21 3 -40 19 -19 19 -19 17 20 -1 22 -2 40
-2 40 0 0 -8 -9 -18 -20z"/>
<path d="M3017 5647 c-2 -6 -2 -27 0 -44 5 -31 8 -33 44 -33 22 0 42 -1 46 -2
9 -4 23 61 16 78 -5 14 -63 16 -63 2 0 -5 -9 -4 -19 1 -14 8 -20 7 -24 -2z"/>
<path d="M2735 5641 c-4 -7 -19 -12 -33 -11 -48 3 -53 1 -50 -22 4 -30 47 -37
65 -11 11 14 15 15 22 5 7 -11 10 -10 15 3 8 22 -8 53 -19 36z m-45 -41 c0 -5
-2 -10 -4 -10 -3 0 -8 5 -11 10 -3 6 -1 10 4 10 6 0 11 -4 11 -10z"/>
<path d="M2926 5641 c-7 -10 4 -74 11 -67 3 3 15 1 28 -4 22 -8 23 -6 27 36 3
44 3 44 -29 44 -17 0 -34 -4 -37 -9z"/>
<path d="M2291 5630 c-46 -7 -53 -30 -9 -30 18 0 38 4 45 8 21 14 -1 28 -36
22z"/>
<path d="M2347 5634 c7 -3 10 -11 7 -18 -4 -10 20 -14 97 -19 104 -6 129 -1
129 29 0 11 -25 14 -122 13 -68 0 -118 -3 -111 -5z"/>
<path d="M2991 5491 c-1 -9 -9 -11 -27 -7 l-26 7 6 -53 c4 -29 13 -129 21
-223 8 -93 18 -189 21 -211 l6 -42 29 17 c26 14 29 22 29 64 0 110 -56 530
-59 448z"/>
<path d="M3030 5484 c0 -10 5 -53 10 -94 6 -41 15 -124 20 -185 18 -197 18
-197 51 -191 16 2 43 10 60 18 30 13 31 14 24 63 -4 28 -6 81 -5 119 1 46 -2
66 -9 61 -6 -3 -11 -13 -11 -21 0 -8 -4 -14 -8 -14 -9 0 -32 140 -32 191 0 18
-8 29 -26 38 -15 6 -29 9 -32 6 -3 -3 -14 2 -24 12 -17 15 -18 15 -18 -3z
m100 -184 c0 -5 -5 -10 -11 -10 -5 0 -7 5 -4 10 3 6 8 10 11 10 2 0 4 -4 4
-10z"/>
<path d="M3222 5320 c0 -19 2 -27 5 -17 2 9 2 25 0 35 -3 9 -5 1 -5 -18z"/>
<path d="M3230 5132 c0 -35 4 -62 10 -62 6 0 8 21 4 58 -9 77 -14 78 -14 4z"/>
<path d="M3742 4850 c0 -14 2 -19 5 -12 2 6 2 18 0 25 -3 6 -5 1 -5 -13z"/>
<path d="M3752 4790 c0 -14 2 -19 5 -12 2 6 2 18 0 25 -3 6 -5 1 -5 -13z"/>
<path d="M6400 4774 c0 -11 5 -14 16 -10 9 3 20 6 25 6 5 0 9 5 9 10 0 6 -11
10 -25 10 -16 0 -25 -6 -25 -16z"/>
<path d="M3761 4744 c0 -11 3 -14 6 -6 3 7 2 16 -1 19 -3 4 -6 -2 -5 -13z"/>
<path d="M2840 4715 c0 -14 7 -25 21 -28 17 -5 20 -1 17 20 -4 34 -38 41 -38
8z"/>
<path d="M3010 4698 c0 -20 5 -23 35 -23 30 0 35 3 35 23 0 19 -5 22 -35 22
-30 0 -35 -3 -35 -22z"/>
<path d="M3110 4689 c0 -26 2 -30 15 -19 8 6 19 9 24 6 13 -8 61 4 61 15 0 5
-11 11 -25 14 -14 3 -36 7 -50 10 -22 5 -25 2 -25 -26z"/>
<path d="M3250 4680 c0 -6 12 -10 28 -10 15 0 47 -6 72 -14 25 -7 56 -12 70
-10 14 1 31 3 38 3 18 1 15 18 -5 26 -30 11 -203 16 -203 5z"/>
<path d="M3510 4659 c0 -17 5 -23 20 -24 25 -3 83 -16 130 -30 25 -7 58 -16
74 -20 26 -5 28 -4 17 9 -8 9 -21 16 -31 16 -15 0 -105 24 -182 49 -17 6 -28
6 -28 0z"/>
<path d="M1855 4650 c-13 -6 -15 -9 -5 -9 8 0 22 4 30 9 18 12 2 12 -25 0z"/>
<path d="M2805 4650 c3 -5 8 -10 11 -10 2 0 4 5 4 10 0 6 -5 10 -11 10 -5 0
-7 -4 -4 -10z"/>
<path d="M3020 4640 c0 -5 7 -7 15 -4 8 4 15 8 15 10 0 2 -7 4 -15 4 -8 0 -15
-4 -15 -10z"/>
<path d="M3070 4640 c0 -5 5 -10 11 -10 5 0 7 5 4 10 -3 6 -8 10 -11 10 -2 0
-4 -4 -4 -10z"/>
<path d="M3106 4642 c-3 -6 1 -13 10 -16 25 -9 64 -7 64 4 0 6 -9 10 -19 10
-11 0 -26 3 -34 6 -8 3 -18 1 -21 -4z"/>
<path d="M1740 4614 l-35 -14 40 6 c22 3 44 10 50 15 13 13 -14 10 -55 -7z"/>
<path d="M3510 4597 c0 -26 17 -47 38 -47 12 0 12 3 1 16 -10 13 -10 17 2 25
12 8 12 10 -1 19 -25 16 -40 11 -40 -13z"/>
<path d="M3020 4584 c0 -17 6 -24 18 -23 10 0 12 3 5 6 -26 10 -12 23 24 23
45 0 37 11 -11 14 -32 3 -36 1 -36 -20z"/>
<path d="M3120 4589 c0 -12 4 -17 11 -13 6 3 15 0 20 -7 11 -18 61 -20 55 -2
-3 7 0 13 7 13 22 1 -17 17 -55 23 -33 5 -38 3 -38 -14z"/>
<path d="M1650 4590 c-8 -5 -25 -10 -38 -10 -13 0 -33 -11 -46 -25 -16 -17
-34 -25 -55 -25 -19 0 -30 4 -26 10 3 6 -1 10 -9 10 -8 0 -20 -9 -26 -20 -8
-15 -8 -20 1 -20 7 0 21 -7 31 -17 16 -14 18 -14 18 0 0 17 34 32 50 22 6 -3
6 -15 0 -30 -8 -21 -4 -26 28 -47 20 -12 48 -26 62 -29 69 -20 74 -19 35 2
-22 12 -34 24 -27 26 6 3 10 9 7 13 -3 5 -11 7 -18 4 -7 -2 -18 5 -25 17 -8
12 -9 18 -3 15 5 -4 12 -2 15 3 4 5 2 13 -4 16 -8 5 -7 11 1 21 9 11 7 14 -10
14 -11 0 -21 5 -21 10 0 6 15 9 33 8 21 -2 31 1 30 10 -2 6 3 12 11 12 8 0 18
5 21 10 8 13 -15 13 -35 0z"/>
<path d="M3068 4553 c7 -3 16 -2 19 1 4 3 -2 6 -13 5 -11 0 -14 -3 -6 -6z"/>
<path d="M3570 4539 c0 -6 -13 -8 -32 -5 l-33 5 32 -11 c34 -11 68 -5 58 12
-8 13 -25 13 -25 -1z"/>
<path d="M1420 4491 c0 -12 29 -23 42 -15 6 4 5 10 -3 15 -18 11 -39 11 -39 0z"/>
<path d="M4150 4460 c-12 -8 -12 -10 -1 -10 8 0 12 -2 9 -5 -2 -3 -42 0 -88 6
l-83 10 -48 -53 c-41 -45 -49 -59 -49 -93 0 -44 28 -274 35 -286 7 -10 172
-10 255 0 227 29 370 60 410 90 14 10 42 23 62 30 57 19 91 83 53 97 -25 10
-17 22 19 26 19 2 42 -2 51 -8 19 -14 45 -93 45 -135 0 -15 4 -30 9 -34 5 -3
112 -18 238 -34 125 -16 241 -34 256 -40 34 -13 37 -13 37 -2 0 5 -15 14 -32
22 -54 21 -57 43 -15 103 25 36 177 135 220 143 31 6 81 33 61 33 -5 0 -52
-13 -104 -29 -63 -20 -99 -27 -110 -21 -9 5 -57 10 -106 11 -49 1 -123 6 -164
10 -41 5 -129 9 -195 10 -66 0 -175 9 -243 20 -67 10 -148 19 -180 19 -31 0
-74 4 -94 9 -21 5 -38 7 -38 5 0 -11 69 -65 103 -80 44 -20 46 -44 3 -55 -20
-6 -35 -3 -50 6 -11 8 -17 15 -13 15 8 0 6 3 -49 64 -19 22 -33 45 -30 52 3 7
-2 10 -12 8 -9 -3 -30 -1 -47 4 -23 6 -30 14 -30 33 0 14 -7 25 -18 27 -12 2
-17 -3 -17 -18 0 -30 -24 -20 -28 11 -5 44 -5 49 -6 49 -1 0 -8 -5 -16 -10z
m10 -60 c0 -5 -4 -10 -9 -10 -6 0 -13 5 -16 10 -3 6 1 10 9 10 9 0 16 -4 16
-10z m152 -160 c30 -28 31 -30 10 -30 -12 0 -27 9 -34 20 -7 11 -21 20 -31 20
-10 0 -15 5 -12 10 11 17 33 11 67 -20z m-12 -58 c0 -12 -23 -32 -36 -32 -18
0 -29 41 -13 51 13 8 49 -6 49 -19z m-90 -28 c0 -8 -4 -14 -10 -14 -5 0 -10 9
-10 21 0 11 5 17 10 14 6 -3 10 -13 10 -21z"/>
<path d="M3845 4430 c-3 -5 1 -10 9 -10 9 0 16 5 16 10 0 6 -4 10 -9 10 -6 0
-13 -4 -16 -10z"/>
<path d="M1550 4426 c0 -2 9 -6 20 -9 11 -3 18 -1 14 4 -5 9 -34 13 -34 5z"/>
<path d="M3850 4397 c0 -8 7 -14 15 -14 8 0 15 6 15 14 0 7 -7 13 -15 13 -8 0
-15 -6 -15 -13z"/>
<path d="M1612 4384 c-7 -8 -8 -14 -3 -14 10 0 25 19 20 25 -2 1 -10 -3 -17
-11z"/>
<path d="M4663 4373 c15 -2 39 -2 55 0 15 2 2 4 -28 4 -30 0 -43 -2 -27 -4z"/>
<path d="M3585 4360 c-13 -6 -15 -9 -5 -9 8 0 22 4 30 9 18 12 2 12 -25 0z"/>
<path d="M3675 4356 c-19 -8 -25 -15 -17 -20 7 -4 17 -4 22 -1 6 3 10 0 10 -8
0 -8 9 -22 20 -32 22 -20 26 -14 10 16 -6 10 -7 19 -2 19 4 0 8 9 8 20 0 23
-9 24 -51 6z"/>
<path d="M1533 4345 c-25 -13 -21 -25 8 -25 17 0 34 26 21 33 -4 2 -17 -2 -29
-8z"/>
<path d="M1810 4340 c8 -5 22 -10 30 -10 13 0 13 1 0 10 -8 5 -22 10 -30 10
-13 0 -13 -1 0 -10z"/>
<path d="M1665 4330 c-3 -5 -2 -10 4 -10 5 0 13 5 16 10 3 6 2 10 -4 10 -5 0
-13 -4 -16 -10z"/>
<path d="M6493 4293 c-25 -10 -12 -23 21 -23 41 0 56 15 23 24 -25 6 -27 6
-44 -1z"/>
<path d="M1668 4283 c6 -2 18 -2 25 0 6 3 1 5 -13 5 -14 0 -19 -2 -12 -5z"/>
<path d="M5690 4282 c-39 -18 -68 -45 -63 -58 6 -17 -19 -19 -47 -4 -23 13
-69 -3 -90 -31 -9 -11 -26 -21 -38 -22 -23 -1 -30 -13 -10 -19 14 -5 20 -38 7
-38 -5 0 -9 -7 -9 -15 0 -16 25 -21 34 -6 3 5 26 12 50 15 34 5 54 17 83 46
21 21 54 47 73 57 27 15 36 27 38 51 3 32 -1 36 -28 24z"/>
<path d="M6600 4281 l-25 -7 25 -7 c14 -4 61 -10 105 -13 64 -5 78 -4 68 6
-22 23 -122 35 -173 21z"/>
<path d="M3770 4244 c0 -15 27 -50 34 -43 4 3 -2 17 -13 30 -11 13 -20 19 -21
13z"/>
<path d="M5935 4224 c-4 -12 -18 -27 -31 -33 -13 -6 -24 -15 -24 -20 0 -13 60
18 67 35 3 7 3 19 0 26 -4 8 -8 5 -12 -8z"/>
<path d="M6435 4220 c-3 -4 1 -11 7 -13 18 -8 -10 -27 -39 -27 -31 0 -29 -24
2 -38 35 -16 89 -16 79 0 -5 8 -2 9 12 4 30 -12 168 -35 177 -29 4 3 14 -1 22
-7 8 -7 24 -10 36 -7 14 4 23 -1 31 -17 8 -20 16 -23 54 -19 26 2 44 -1 44 -7
0 -6 6 -10 13 -9 6 1 21 -2 31 -6 12 -5 21 -5 23 1 2 6 18 9 36 7 25 -2 27 -1
12 5 -32 14 47 36 93 26 20 -4 88 -8 151 -9 78 0 116 -4 118 -12 3 -7 -9 -13
-29 -16 -29 -3 -28 -4 10 -5 40 -2 42 -1 42 27 0 27 -4 30 -42 37 -24 4 -56 6
-71 5 -18 -2 -34 4 -44 16 -8 10 -12 13 -9 6 14 -26 -126 -25 -353 3 -29 4
-41 2 -36 -5 3 -6 1 -11 -4 -11 -6 0 -11 4 -11 8 0 9 -138 32 -192 32 -39 0
-57 13 -36 26 13 8 25 10 112 12 73 3 52 11 -45 17 -46 4 -107 8 -136 10 -29
2 -55 0 -58 -5z"/>
<path d="M1888 4193 c7 -3 16 -2 19 1 4 3 -2 6 -13 5 -11 0 -14 -3 -6 -6z"/>
<path d="M6070 4180 c0 -5 9 -10 19 -10 11 0 23 5 26 10 4 6 -5 10 -19 10 -14
0 -26 -4 -26 -10z"/>
<path d="M6043 4153 c-7 -2 -17 -20 -23 -39 -7 -20 -14 -33 -17 -30 -3 3 -16
-8 -29 -23 -13 -16 -36 -32 -51 -36 -15 -3 -40 -17 -55 -30 -26 -22 -145 -65
-180 -65 -8 0 -27 14 -43 30 -16 17 -47 35 -70 41 -50 14 -50 14 -50 -14 0
-20 -5 -22 -43 -20 -24 1 -50 7 -58 14 -20 16 -22 11 -15 -49 l6 -53 170 6
c180 6 212 9 260 23 26 8 30 13 27 41 l-3 32 123 -6 c75 -3 129 -2 138 5 12 7
8 10 -15 10 -16 0 -36 4 -44 9 -20 13 -3 32 27 30 42 -3 62 0 62 10 0 6 -17
11 -37 13 -44 4 -54 24 -19 38 28 10 26 40 -2 40 -8 0 -23 6 -31 14 -9 7 -21
11 -28 9z"/>
<path d="M5808 4133 c7 -3 16 -2 19 1 4 3 -2 6 -13 5 -11 0 -14 -3 -6 -6z"/>
<path d="M7120 4046 c0 -16 -24 -28 -43 -20 -7 2 -13 -4 -14 -16 -2 -26 12
-34 27 -15 6 7 36 19 66 26 56 13 76 35 24 27 -16 -3 -30 -1 -30 4 0 4 -7 8
-15 8 -8 0 -15 -6 -15 -14z"/>
<path d="M4820 4037 c0 -33 -139 -93 -315 -136 l-80 -20 60 0 c33 -1 89 8 125
19 70 21 110 25 110 11 0 -5 -9 -7 -20 -4 -11 3 -20 0 -20 -6 0 -14 35 -14 61
0 20 10 20 11 3 30 -16 17 -16 22 -4 29 8 6 32 10 52 10 34 0 37 2 35 28 -2
26 0 27 45 26 26 0 50 -3 53 -6 3 -3 9 -22 12 -42 5 -29 3 -36 -11 -36 -9 0
-20 -10 -25 -23 -13 -34 -36 -49 -65 -41 -14 3 -24 10 -21 14 3 4 -1 13 -9 19
-10 9 -16 8 -26 -4 -11 -13 -10 -14 4 -9 9 3 17 1 17 -5 1 -6 2 -17 3 -23 1
-10 34 -14 121 -16 123 -4 249 9 343 35 58 15 66 36 16 41 -16 2 -36 5 -44 8
-26 9 19 34 49 28 25 -5 26 -5 6 11 -17 14 -36 16 -112 12 -52 -3 -95 -1 -98
4 -4 5 0 10 7 11 33 3 78 19 78 27 0 3 -45 5 -100 4 -55 -1 -102 2 -105 8 -10
15 -145 12 -145 -4z m236 -54 c-4 -4 -25 -8 -48 -9 -28 -2 -37 1 -27 7 16 10
86 12 75 2z m49 -42 c-16 -15 -67 -17 -72 -3 -3 8 8 12 38 12 27 0 39 -4 34
-9z m52 3 c-3 -3 -12 -4 -19 -1 -8 3 -5 6 6 6 11 1 17 -2 13 -5z"/>
<path d="M7248 4043 c7 -3 16 -2 19 1 4 3 -2 6 -13 5 -11 0 -14 -3 -6 -6z"/>
<path d="M1186 4032 c-4 -7 -2 -12 4 -12 7 0 10 -7 6 -15 -3 -8 -2 -15 3 -15
5 0 11 9 14 20 3 11 1 18 -3 15 -5 -3 -10 0 -12 7 -3 9 -6 9 -12 0z"/>
<path d="M3660 4025 c-7 -9 -8 -15 -2 -15 5 0 12 7 16 15 3 8 4 15 2 15 -2 0
-9 -7 -16 -15z"/>
<path d="M6513 4010 c-33 -19 -44 -40 -22 -40 8 0 8 -4 0 -14 -10 -11 -8 -15
6 -20 32 -9 164 -25 338 -42 93 -9 179 -20 191 -24 18 -7 23 -5 28 13 9 33 7
79 -3 73 -5 -3 -46 -1 -92 4 -208 23 -367 40 -382 40 -25 0 -20 18 6 23 17 3
16 5 -8 6 -16 0 -45 -8 -62 -19z"/>
<path d="M1317 4014 c-4 -4 -7 -14 -7 -23 0 -11 3 -12 11 -4 6 6 10 16 7 23
-2 6 -7 8 -11 4z"/>
<path d="M7023 4013 c-31 -6 -29 -23 2 -23 16 0 25 6 25 15 0 8 -1 14 -2 14
-2 -1 -13 -4 -25 -6z"/>
<path d="M3941 3889 c0 -58 3 -130 9 -160 5 -30 13 -116 18 -193 7 -93 14
-141 22 -146 7 -5 59 -13 114 -19 207 -24 513 -64 651 -86 141 -23 295 -44
400 -55 50 -5 101 -12 115 -14 27 -6 258 -40 380 -56 41 -6 89 -10 105 -9 17
0 73 -7 125 -15 157 -27 267 -44 425 -66 83 -11 173 -25 200 -30 100 -19 242
-40 316 -46 70 -6 76 -5 76 12 0 11 -5 25 -11 33 -9 12 -8 13 7 8 10 -4 23 -7
28 -7 4 0 6 -7 3 -15 -5 -12 2 -15 27 -15 32 1 33 1 15 15 -11 8 -16 16 -10
16 40 7 74 6 74 -1 0 -4 22 -10 49 -12 27 -1 47 0 44 5 -2 4 -12 7 -21 7 -10
0 -34 8 -54 19 -43 21 -77 27 -293 46 -188 17 -204 19 -400 51 -211 35 -461
72 -590 89 -60 8 -137 18 -170 23 -33 5 -143 21 -245 36 -102 14 -214 30 -250
36 -121 17 -295 40 -390 50 -52 6 -138 17 -190 25 -52 8 -116 17 -142 20 -27
4 -48 11 -48 16 0 7 20 8 55 4 38 -5 55 -4 55 4 0 6 -12 11 -27 11 -41 0 -61
16 -29 22 14 3 23 1 20 -3 -3 -5 4 -9 15 -9 12 0 21 4 21 9 0 4 75 6 168 4
196 -6 204 -6 217 -15 6 -4 17 -3 25 3 21 13 30 11 30 -6 0 -9 -9 -15 -25 -15
-40 0 -29 -19 19 -32 25 -6 43 -15 41 -19 -5 -7 55 -19 100 -19 23 0 27 3 15
10 -12 8 -12 10 5 10 26 0 171 -16 265 -30 41 -6 118 -15 170 -21 108 -12 238
-27 290 -34 41 -6 193 -21 300 -29 41 -4 97 -11 125 -18 37 -8 50 -8 53 1 5
14 48 15 57 1 3 -5 36 -10 73 -10 37 0 117 -5 177 -10 61 -5 162 -12 225 -16
62 -3 132 -12 155 -20 22 -7 57 -14 77 -14 28 0 36 -4 32 -14 -3 -8 0 -17 6
-21 7 -4 10 0 8 11 -3 17 5 18 98 15 141 -4 275 26 187 42 -49 9 -103 7 -103
-4 0 -8 15 -9 46 -4 27 4 44 3 41 -3 -4 -5 -24 -9 -46 -10 -31 -1 -46 4 -67
25 -20 19 -28 23 -34 13 -4 -7 -17 -10 -29 -7 -12 3 -21 1 -21 -4 0 -5 -10 -4
-22 3 -13 7 -32 13 -43 14 -37 2 -145 23 -155 29 -6 4 -8 10 -5 15 3 5 -7 11
-22 13 -16 2 -2 5 30 6 51 1 77 -11 45 -21 -7 -3 -6 -7 5 -11 12 -4 17 -1 17
9 0 14 9 15 68 9 105 -12 163 -12 159 -1 -2 6 -17 10 -32 9 -32 -2 -22 14 10
17 39 4 54 0 49 -14 -6 -15 35 -26 97 -26 l39 0 0 54 0 53 -57 2 c-68 2 -83 2
-188 -4 -44 -2 -89 -7 -99 -9 -11 -3 -26 0 -33 6 -7 6 -13 7 -13 2 0 -5 -5 -2
-10 6 -6 10 -10 11 -10 3 0 -7 -12 -13 -26 -13 -17 0 -23 4 -18 12 5 7 2 9 -8
6 -8 -3 -61 1 -119 9 -179 26 -232 32 -301 37 -36 2 -75 9 -86 15 -11 6 -47
12 -79 13 -36 2 -58 8 -58 15 0 20 -7 21 -120 27 -147 8 -206 16 -180 27 19 7
19 8 -2 8 -25 1 -31 16 -10 24 7 3 5 6 -5 6 -13 1 -18 -7 -18 -25 0 -22 -3
-25 -22 -20 -13 3 -31 6 -40 6 -10 0 -18 5 -18 10 0 6 14 10 31 10 20 0 29 4
27 13 -3 8 -43 16 -114 23 -60 5 -116 13 -124 17 -8 4 -44 5 -80 3 -36 -2 -70
1 -77 6 -8 6 -25 6 -48 -2 -28 -9 -39 -9 -50 0 -29 24 -54 -22 -32 -57 4 -6 3
-14 -2 -17 -5 -4 -11 -2 -13 3 -1 5 -43 11 -93 14 -49 3 -106 8 -125 11 -19 4
-51 8 -71 10 -20 2 -42 7 -48 10 -12 8 -31 0 -31 -13 0 -5 30 -14 68 -20 133
-22 182 -33 182 -42 0 -5 -28 -9 -62 -9 -43 0 -58 -3 -48 -10 24 -15 8 -18
-54 -10 -42 6 -66 16 -86 35 -20 19 -29 23 -33 13 -3 -9 -10 -7 -26 10 -12 12
-30 22 -41 22 -10 0 -22 5 -25 10 -3 6 -1 10 4 10 6 0 11 5 11 10 0 6 -16 10
-35 10 -26 0 -35 -4 -36 -17 0 -11 -3 -13 -6 -5 -2 6 -20 12 -38 12 -49 0 -68
9 -52 24 7 7 19 13 27 13 8 1 71 2 140 3 221 4 192 23 -52 35 -53 2 -107 6
-120 9 -97 19 -138 31 -138 41 0 7 -20 18 -45 25 -25 7 -45 17 -45 22 0 5 -6
8 -12 5 -7 -2 -47 13 -88 35 l-75 38 -153 0 c-129 0 -154 2 -159 16 -3 8 -12
13 -19 10 -9 -3 -15 7 -19 32 -12 70 -13 67 -14 -39z m669 -239 c-20 -13 -43
-13 -35 0 3 6 16 10 28 10 18 0 19 -2 7 -10z m-370 -19 c0 -8 -79 -3 -89 5 -2
2 17 4 42 4 26 0 47 -4 47 -9z m73 -18 c-7 -2 -21 -2 -30 0 -10 3 -4 5 12 5
17 0 24 -2 18 -5z m1241 -54 c-24 -10 -92 -11 -123 -2 l-23 6 28 11 c20 9 43
9 82 2 40 -7 50 -12 36 -17z m-759 -4 c6 -2 -18 -4 -53 -4 -35 -1 -61 3 -58 8
5 8 85 5 111 -4z m1008 -22 c-7 -2 -21 -2 -30 0 -10 3 -4 5 12 5 17 0 24 -2
18 -5z m60 -10 c-7 -2 -21 -2 -30 0 -10 3 -4 5 12 5 17 0 24 -2 18 -5z m-1813
-22 c25 -1 52 -1 60 0 49 2 130 -15 130 -27 0 -8 -4 -14 -10 -14 -5 0 -10 5
-10 10 0 6 -12 9 -27 8 -16 -2 -69 1 -120 5 -76 7 -91 11 -86 24 3 9 8 11 12
4 4 -5 27 -10 51 -10z m1360 4 c-7 -8 -16 -15 -21 -15 -5 0 -6 7 -3 15 4 8 13
15 21 15 13 0 13 -3 3 -15z m-1047 -2 c-7 -2 -21 -2 -30 0 -10 3 -4 5 12 5 17
0 24 -2 18 -5z m860 -10 c-7 -2 -19 -2 -25 0 -7 3 -2 5 12 5 14 0 19 -2 13 -5z
m616 -9 c10 -9 -56 -3 -69 7 -11 7 -4 8 25 3 22 -4 42 -8 44 -10z m124 -11
c-7 -2 -21 -2 -30 0 -10 3 -4 5 12 5 17 0 24 -2 18 -5z m-1688 -13 c3 -5 -1
-10 -9 -10 -9 0 -16 5 -16 10 0 6 4 10 9 10 6 0 13 -4 16 -10z m884 -35 c-1
-18 -2 -18 -6 -2 -3 11 -11 16 -19 13 -18 -7 -68 15 -54 24 6 4 26 2 45 -4 26
-8 35 -16 34 -31z m320 19 c2 -2 -22 -4 -55 -4 -36 0 -54 4 -46 9 13 8 92 4
101 -5z m396 6 c3 -5 -1 -10 -9 -10 -9 0 -16 5 -16 10 0 6 4 10 9 10 6 0 13
-4 16 -10z m285 0 c0 -13 -30 -13 -50 0 -11 7 -7 10 18 10 17 0 32 -4 32 -10z
m147 -10 c37 1 167 -21 173 -29 3 -3 30 -6 60 -7 73 0 130 -12 130 -27 0 -13
44 -37 67 -37 7 0 13 5 13 10 0 6 -6 10 -14 10 -7 0 -20 8 -27 17 -12 15 -12
16 6 8 11 -4 48 -10 82 -13 36 -2 60 -8 57 -14 -3 -5 -12 -7 -20 -4 -24 9 -45
-5 -38 -26 5 -17 3 -18 -14 -9 -12 6 -48 11 -81 11 -32 0 -61 5 -63 10 -2 7
-49 12 -116 13 -82 1 -115 6 -121 15 -7 11 -13 9 -29 -8 -17 -19 -25 -21 -49
-12 l-28 10 28 1 c47 2 29 21 -20 22 -27 0 -67 2 -90 5 -25 3 -43 1 -43 -5 0
-11 -82 -7 -160 8 -47 9 -31 14 30 11 50 -3 33 8 -31 20 -30 6 -62 13 -71 16
-12 3 -18 0 -18 -10 0 -8 8 -17 18 -19 9 -3 4 -5 -13 -5 -16 0 -41 4 -55 9
-25 9 -25 9 3 5 18 -2 27 1 27 10 0 16 -1 16 92 18 38 0 68 -2 68 -6 0 -5 27
-8 60 -8 33 0 60 4 60 10 0 6 4 10 9 10 5 0 8 -7 7 -17 -1 -20 38 -31 79 -23
l30 7 -30 8 c-40 10 -46 15 -40 26 4 5 14 5 25 -1 11 -6 32 -10 47 -10z
m-1092 -8 c-3 -3 -11 0 -18 7 -9 10 -8 11 6 5 10 -3 15 -9 12 -12z m345 -2 c0
-5 -4 -10 -9 -10 -6 0 -13 5 -16 10 -3 6 1 10 9 10 9 0 16 -4 16 -10z m108
-17 c-10 -2 -28 -2 -40 0 -13 2 -5 4 17 4 22 1 32 -1 23 -4z m42 -53 c0 -5 -7
-7 -15 -4 -8 4 -15 8 -15 10 0 2 7 4 15 4 8 0 15 -4 15 -10z m35 0 c3 -5 -1
-10 -10 -10 -9 0 -13 5 -10 10 3 6 8 10 10 10 2 0 7 -4 10 -10z m114 -16 c2
-2 -19 -4 -47 -4 -29 0 -52 4 -52 10 0 9 88 3 99 -6z m541 7 c0 -5 10 -12 23
-14 17 -3 15 -5 -9 -6 -21 -1 -31 4 -31 14 0 8 4 15 9 15 4 0 8 -4 8 -9z
m-470 -21 c8 -5 11 -10 5 -10 -5 0 -17 5 -25 10 -8 5 -10 10 -5 10 6 0 17 -5
25 -10z m1337 -6 c-3 -3 -12 -4 -19 -1 -8 3 -5 6 6 6 11 1 17 -2 13 -5z m-447
-60 c0 -2 -12 -4 -27 -4 -21 0 -24 3 -14 9 13 8 41 5 41 -5z m107 -10 c-3 -3
-12 -4 -19 -1 -8 3 -5 6 6 6 11 1 17 -2 13 -5z m-1500 -30 c-3 -3 -12 -4 -19
-1 -8 3 -5 6 6 6 11 1 17 -2 13 -5z m104 -14 c30 -6 74 -13 98 -15 51 -5 68
-15 25 -15 -38 0 -183 26 -191 34 -9 8 6 8 68 -4z m292 -21 c-8 -8 -16 -8 -30
0 -16 9 -14 10 12 11 21 0 26 -3 18 -11z m187 -16 c23 -5 24 -6 5 -13 -29 -12
-42 -11 -25 1 11 8 -4 9 -55 6 -38 -2 -56 -2 -40 1 27 4 28 5 10 13 -21 8 58
3 105 -8z m147 -19 c-3 -3 -12 -4 -19 -1 -8 3 -5 6 6 6 11 1 17 -2 13 -5z
m-59 -14 c-14 -4 -41 -4 -60 0 -28 7 -24 8 27 8 46 0 54 -2 33 -8z m222 -10
c0 -7 -14 -8 -37 -4 -52 9 -54 14 -5 14 23 0 42 -5 42 -10z m53 -7 c-7 -2 -21
-2 -30 0 -10 3 -4 5 12 5 17 0 24 -2 18 -5z m-160 -10 c-7 -2 -19 -2 -25 0 -7
3 -2 5 12 5 14 0 19 -2 13 -5z m230 0 c-7 -2 -21 -2 -30 0 -10 3 -4 5 12 5 17
0 24 -2 18 -5z m75 -10 c-10 -2 -28 -2 -40 0 -13 2 -5 4 17 4 22 1 32 -1 23
-4z m-89 -19 c10 -9 -75 -3 -89 6 -10 7 1 8 35 4 28 -4 52 -8 54 -10z m44 -11
c-7 -2 -19 -2 -25 0 -7 3 -2 5 12 5 14 0 19 -2 13 -5z"/>
<path d="M6090 3400 c20 -13 43 -13 35 0 -3 6 -16 10 -28 10 -18 0 -19 -2 -7
-10z"/>
<path d="M6578 3379 c-9 -6 -7 -9 9 -9 12 0 28 -3 37 -6 9 -3 16 -2 16 4 0 13
-45 21 -62 11z"/>
<path d="M1150 3960 c0 -11 2 -20 4 -20 2 0 6 9 9 20 3 11 1 20 -4 20 -5 0 -9
-9 -9 -20z"/>
<path d="M3675 3970 c3 -5 8 -10 11 -10 2 0 4 5 4 10 0 6 -5 10 -11 10 -5 0
-7 -4 -4 -10z"/>
<path d="M6200 3966 c0 -2 9 -6 20 -9 11 -3 20 -1 20 4 0 5 -9 9 -20 9 -11 0
-20 -2 -20 -4z"/>
<path d="M1305 3940 c4 -6 11 -8 16 -5 14 9 11 15 -7 15 -8 0 -12 -5 -9 -10z"/>
<path d="M1171 3904 c0 -11 3 -14 6 -6 3 7 2 16 -1 19 -3 4 -6 -2 -5 -13z"/>
<path d="M1280 3879 c0 -16 4 -19 23 -13 28 8 30 10 22 23 -12 20 -45 13 -45
-10z"/>
<path d="M1150 3880 c1 -18 29 -70 30 -54 0 7 -7 25 -15 40 -8 16 -15 22 -15
14z"/>
<path d="M4641 3881 c-19 -12 11 -21 67 -20 34 0 41 3 27 8 -36 14 -81 20 -94
12z"/>
<path d="M3882 3810 c0 -19 2 -27 5 -17 2 9 2 25 0 35 -3 9 -5 1 -5 -18z"/>
<path d="M6573 3823 c15 -2 37 -2 50 0 12 2 0 4 -28 4 -27 0 -38 -2 -22 -4z"/>
<path d="M6676 3822 c-9 -16 4 -20 64 -22 76 -2 92 1 45 10 -22 4 -54 11 -71
15 -19 4 -34 3 -38 -3z"/>
<path d="M5840 3781 c0 -12 20 -18 85 -27 28 -4 62 -13 77 -21 16 -7 39 -11
53 -7 17 4 25 2 25 -6 0 -10 27 -11 113 -8 130 6 197 -1 462 -42 135 -21 204
-31 290 -40 50 -6 104 -13 120 -16 l30 -6 -36 25 c-22 14 -47 23 -63 22 -14
-2 -26 0 -26 5 0 4 -36 11 -80 14 -44 4 -94 11 -111 16 -17 5 -70 12 -118 15
-47 4 -102 10 -121 15 -19 5 -87 14 -150 20 -622 58 -550 53 -550 41z"/>
<path d="M6955 3780 c3 -5 8 -10 11 -10 2 0 4 5 4 10 0 6 -5 10 -11 10 -5 0
-7 -4 -4 -10z"/>
<path d="M7010 3774 c0 -8 5 -12 10 -9 6 4 8 11 5 16 -9 14 -15 11 -15 -7z"/>
<path d="M1249 3763 c-6 -36 -5 -60 3 -70 6 -8 5 -19 -2 -32 -9 -17 -8 -21 5
-21 9 0 15 -6 12 -12 -2 -7 -10 -12 -18 -11 -8 2 -19 -8 -25 -21 -9 -20 -8
-30 7 -52 10 -16 26 -32 36 -36 27 -10 71 -9 78 2 12 19 14 204 2 218 -10 13
-71 42 -88 42 -5 0 -10 -3 -10 -7z m91 -123 c0 -5 -4 -10 -10 -10 -5 0 -10 5
-10 10 0 6 5 10 10 10 6 0 10 -4 10 -10z"/>
<path d="M7221 3713 c-6 -21 -17 -62 -25 -91 -16 -56 -6 -62 18 -9 15 33 32
137 22 137 -3 0 -10 -17 -15 -37z"/>
<path d="M5855 3710 c3 -5 19 -10 36 -10 16 0 29 5 29 10 0 6 -16 10 -36 10
-21 0 -33 -4 -29 -10z"/>
<path d="M5520 3680 c0 -5 5 -10 10 -10 6 0 10 5 10 10 0 6 -4 10 -10 10 -5 0
-10 -4 -10 -10z"/>
<path d="M5550 3680 c0 -5 5 -10 11 -10 5 0 7 5 4 10 -3 6 -8 10 -11 10 -2 0
-4 -4 -4 -10z"/>
<path d="M5600 3670 c0 -5 16 -10 36 -10 21 0 33 4 29 10 -3 6 -19 10 -36 10
-16 0 -29 -4 -29 -10z"/>
<path d="M5735 3660 c-3 -6 4 -10 17 -10 13 0 34 -3 48 -6 17 -5 22 -3 15 3
-15 15 -73 24 -80 13z"/>
<path d="M5688 3643 c6 -2 18 -2 25 0 6 3 1 5 -13 5 -14 0 -19 -2 -12 -5z"/>
<path d="M5840 3648 c0 -7 96 -24 180 -33 30 -4 57 -8 60 -10 3 -2 33 -6 66
-9 32 -4 85 -10 117 -16 32 -5 64 -7 71 -4 8 3 22 -3 32 -14 14 -14 38 -21 87
-26 38 -3 73 -9 79 -12 6 -4 45 -8 87 -10 42 -2 85 -6 96 -8 111 -22 210 -38
255 -41 92 -5 170 -17 164 -27 -3 -4 -9 -6 -14 -3 -5 3 -12 0 -16 -6 -5 -9 5
-10 42 -4 52 8 168 7 197 -1 14 -4 17 1 17 29 l0 34 -72 7 c-40 4 -120 11
-178 16 -113 9 -261 27 -297 35 -12 3 -86 12 -165 20 -192 20 -287 33 -300 41
-14 9 -164 26 -248 29 -36 1 -109 6 -162 10 -54 4 -98 5 -98 3z"/>
<path d="M5335 3610 c-3 -5 1 -10 9 -10 9 0 16 5 16 10 0 6 -4 10 -9 10 -6 0
-13 -4 -16 -10z"/>
<path d="M7140 3565 c0 -9 9 -15 21 -15 18 0 19 2 9 15 -7 8 -16 15 -21 15 -5
0 -9 -7 -9 -15z"/>
<path d="M3770 3562 c0 -6 -7 -18 -16 -26 -8 -9 -11 -16 -5 -16 13 0 35 39 27
48 -3 3 -6 0 -6 -6z"/>
<path d="M7220 3556 c8 -8 44 -17 80 -20 53 -4 59 -4 35 5 -16 6 -42 10 -57
10 -15 0 -30 5 -33 10 -4 5 -14 9 -23 9 -14 0 -14 -2 -2 -14z"/>
<path d="M3882 3540 c0 -14 2 -19 5 -12 2 6 2 18 0 25 -3 6 -5 1 -5 -13z"/>
<path d="M6448 3483 c7 -3 16 -2 19 1 4 3 -2 6 -13 5 -11 0 -14 -3 -6 -6z"/>
<path d="M3872 3460 c0 -14 2 -19 5 -12 2 6 2 18 0 25 -3 6 -5 1 -5 -13z"/>
<path d="M4493 3467 c-45 -15 -41 -27 7 -27 30 0 38 3 34 14 -4 9 3 16 18 19
22 4 22 4 -2 4 -14 0 -40 -5 -57 -10z"/>
<path d="M6980 3430 c0 -5 7 -10 15 -10 8 0 15 5 15 10 0 6 -7 10 -15 10 -8 0
-15 -4 -15 -10z"/>
<path d="M7048 3423 c7 -3 16 -2 19 1 4 3 -2 6 -13 5 -11 0 -14 -3 -6 -6z"/>
<path d="M1485 3370 c-3 -5 3 -10 14 -10 11 0 23 5 26 10 3 6 -3 10 -14 10
-11 0 -23 -4 -26 -10z"/>
<path d="M1585 3370 c-4 -6 7 -10 24 -10 17 0 31 5 31 10 0 6 -11 10 -24 10
-14 0 -28 -4 -31 -10z"/>
<path d="M1400 3330 c0 -5 9 -10 20 -10 11 0 20 5 20 10 0 6 -9 10 -20 10 -11
0 -20 -4 -20 -10z"/>
<path d="M1518 3323 c12 -2 32 -2 45 0 12 2 2 4 -23 4 -25 0 -35 -2 -22 -4z"/>
<path d="M1620 3321 c0 -5 9 -11 21 -14 42 -11 14 -32 -47 -35 -39 -2 -63 -8
-71 -18 -9 -12 -20 -14 -45 -9 -29 7 -31 6 -19 -9 12 -14 8 -16 -38 -16 -50 0
-52 -1 -46 -22 4 -13 13 -35 20 -50 10 -21 10 -28 2 -28 -7 0 -6 -4 3 -10 12
-8 13 -11 1 -19 -9 -6 -10 -11 -2 -15 6 -4 8 -25 5 -52 -4 -37 -2 -49 13 -60
10 -7 15 -14 11 -14 -7 0 0 -9 67 -84 19 -22 35 -43 35 -48 0 -5 29 -38 65
-74 36 -35 61 -64 55 -64 -5 0 -10 -9 -10 -21 0 -23 38 -69 57 -69 7 0 17 -9
23 -20 6 -11 21 -20 33 -20 20 -1 21 -1 3 -11 -17 -11 -17 -12 5 -25 13 -7 41
-20 62 -30 20 -9 37 -20 37 -25 0 -5 6 -9 13 -9 14 0 124 -44 134 -54 3 -3 17
-6 30 -6 12 0 23 -4 23 -9 0 -5 14 -14 30 -20 17 -5 30 -15 30 -20 0 -6 9 -11
21 -11 11 0 17 -5 14 -10 -3 -6 1 -13 10 -16 13 -6 14 -8 3 -15 -10 -7 -9 -9
5 -9 9 0 17 -6 17 -13 0 -12 37 -41 55 -42 6 -1 9 -6 8 -13 -2 -7 4 -12 12
-12 9 0 21 -12 28 -27 6 -16 16 -31 21 -34 5 -4 5 -12 1 -18 -4 -7 -1 -18 5
-26 10 -12 9 -15 -4 -15 -9 0 -24 -4 -34 -9 -9 -5 -57 -22 -107 -39 -87 -28
-90 -30 -93 -62 -3 -27 -1 -32 13 -26 9 3 18 6 20 6 2 0 1 9 -2 20 -3 11 -1
20 3 20 5 1 28 5 51 9 24 5 40 4 37 0 -3 -5 -14 -9 -24 -9 -10 0 -22 -4 -25
-10 -4 -6 13 -10 45 -10 55 0 60 -13 9 -24 -18 -3 -29 -9 -25 -13 13 -13 80
-11 137 3 136 34 425 59 480 41 44 -13 56 -32 31 -46 -22 -12 -199 -28 -387
-36 -184 -8 -298 -15 -302 -19 -2 -2 36 -7 84 -12 69 -6 80 -9 53 -14 -43 -7
-147 -3 -219 10 -56 10 -85 6 -35 -5 16 -3 63 -15 104 -26 146 -39 167 -41
350 -42 214 -1 333 15 500 69 135 44 331 153 381 211 28 33 67 62 74 55 4 -4
5 -2 3 3 -3 11 1 18 63 85 100 110 189 227 189 249 0 5 11 24 24 44 14 20 22
44 19 55 -2 11 5 38 16 60 12 23 21 50 21 61 0 11 4 22 9 26 13 7 44 114 38
129 -3 7 1 23 9 37 22 39 17 68 -12 80 -20 7 -31 6 -43 -4 -9 -8 -22 -12 -30
-9 -8 3 -11 0 -7 -7 4 -6 1 -11 -7 -11 -8 0 -17 -7 -21 -15 -3 -8 -12 -15 -21
-15 -17 0 -49 -21 -125 -80 -52 -41 -122 -80 -142 -80 -7 0 -19 -13 -25 -29
-7 -20 -20 -31 -40 -35 -17 -4 -40 -16 -51 -26 -12 -11 -28 -20 -37 -20 -8 0
-15 -4 -15 -10 0 -5 -13 -10 -29 -10 -16 0 -36 -6 -43 -14 -8 -7 -29 -17 -46
-21 -18 -3 -32 -11 -32 -16 0 -5 -12 -9 -26 -9 -14 0 -23 -4 -19 -10 4 -6 -6
-10 -22 -10 -37 0 -131 -26 -149 -40 -7 -7 -26 -10 -40 -7 -16 3 -27 0 -31 -9
-3 -8 -9 -11 -14 -8 -5 3 -9 2 -9 -3 0 -4 -17 -9 -38 -9 -20 -1 -70 -6 -111
-12 -47 -7 -81 -7 -92 -1 -25 13 -39 11 -39 -6 0 -8 -4 -15 -10 -15 -5 0 -7 7
-4 15 7 18 -24 20 -76 5 -25 -7 -39 -6 -55 4 -23 15 -74 10 -88 -8 -6 -7 -7
-4 -3 7 5 15 2 17 -16 11 -20 -6 -21 -5 -9 10 12 14 10 16 -20 18 -19 0 -45 0
-59 -1 -13 -1 -29 4 -35 11 -11 15 -45 32 -57 30 -5 -1 -8 1 -8 6 0 4 -17 8
-38 8 -38 1 -122 34 -157 63 -15 12 -19 26 -18 54 2 29 -1 38 -11 34 -9 -4
-13 2 -11 16 2 28 -23 57 -48 57 -11 0 -17 3 -14 7 9 8 -40 33 -70 35 -12 1
-23 8 -23 15 0 6 -9 15 -20 18 -11 3 -20 11 -20 16 0 6 5 7 12 3 6 -4 8 -3 5
3 -4 6 -23 14 -42 17 -20 4 -35 12 -34 19 3 26 -2 35 -23 42 -22 6 -22 7 7 20
l30 14 -32 1 c-30 0 -32 2 -43 57 -7 31 -21 76 -31 100 -25 58 -25 93 0 93 12
0 23 -12 31 -32 24 -66 44 -109 50 -113 4 -3 6 19 5 48 -3 63 2 73 24 53 13
-12 25 -14 51 -6 18 5 37 7 41 4 9 -5 12 13 9 57 -1 16 5 29 14 32 9 4 16 11
16 16 0 6 -7 8 -15 5 -10 -4 -15 0 -15 15 0 13 -6 21 -17 21 -15 0 -16 2 -3
10 11 7 5 10 -22 10 -21 0 -38 -4 -38 -9z m-43 -67 c-3 -3 -12 -4 -19 -1 -8 3
-5 6 6 6 11 1 17 -2 13 -5z m2250 -346 c-3 -8 -6 -5 -6 6 -1 11 2 17 5 13 3
-3 4 -12 1 -19z m-88 -85 c0 -16 -3 -22 -6 -15 -4 10 -8 9 -18 -5 -7 -10 -13
-22 -13 -27 0 -5 -5 -12 -10 -15 -5 -3 -37 -41 -71 -83 -34 -43 -65 -78 -69
-78 -4 0 -28 -20 -54 -44 -25 -25 -49 -42 -52 -38 -9 8 -52 -39 -59 -64 -3
-10 -8 -29 -12 -41 -4 -14 -2 -23 4 -23 6 0 11 7 11 15 0 8 3 15 8 14 16 -2
52 14 52 24 0 6 3 8 6 4 3 -3 20 8 37 25 17 16 33 25 35 19 2 -6 -15 -28 -39
-49 -23 -20 -64 -58 -91 -84 -26 -27 -50 -48 -52 -48 -2 0 -21 -16 -42 -35
-21 -19 -48 -35 -60 -35 -18 0 -12 10 40 65 53 56 62 70 58 96 -3 22 -7 27
-17 19 -6 -5 -14 -7 -17 -4 -3 3 -18 -11 -33 -30 -15 -20 -36 -36 -46 -36 -11
0 -19 -7 -19 -16 0 -8 -4 -13 -9 -10 -5 3 -20 -3 -34 -14 -14 -11 -38 -20 -53
-20 -21 0 -25 -3 -17 -11 8 -8 2 -19 -23 -41 -19 -17 -34 -36 -34 -44 0 -7
-12 -20 -27 -27 l-27 -14 25 -9 c13 -4 26 -8 29 -9 3 0 21 -9 40 -19 19 -11
44 -20 55 -20 13 -1 19 -8 18 -21 -1 -11 4 -23 10 -28 7 -4 -7 -7 -32 -5 -32
2 -46 -1 -54 -14 -17 -26 -1 -33 28 -14 18 12 30 14 38 8 7 -6 26 -12 42 -14
l30 -4 -30 -13 c-25 -10 -31 -10 -41 3 -13 18 -34 21 -34 6 0 -5 -25 -10 -56
-10 -34 0 -53 4 -49 10 3 6 15 10 26 10 12 0 17 4 13 11 -3 6 0 15 7 20 10 6
11 9 2 9 -7 0 -13 5 -13 11 0 8 15 9 46 4 36 -5 45 -4 42 7 -3 7 -27 16 -54
19 -68 9 -187 40 -180 47 3 3 1 11 -5 19 -9 10 -8 13 1 13 7 0 10 7 6 15 -3 9
0 15 8 15 7 0 16 15 20 33 3 17 16 39 28 49 l22 16 -34 10 c-32 9 -33 10 -8
11 15 1 38 12 52 26 14 14 30 25 35 25 6 0 14 6 18 13 11 18 59 47 78 47 9 0
18 6 21 14 3 8 19 16 35 20 17 3 28 10 25 15 -3 5 10 12 29 15 19 4 45 17 57
29 11 12 18 17 15 11 -11 -19 18 -35 50 -28 19 4 35 15 42 30 13 29 -4 33 -19
4 -7 -13 -20 -20 -38 -19 -27 1 -27 1 -3 8 l24 7 -26 17 c-15 10 -27 24 -27
31 0 21 66 26 85 6 15 -13 17 -13 29 2 7 10 17 14 21 10 5 -4 5 -2 2 4 -8 14
71 95 132 136 25 17 55 39 66 48 11 10 37 24 58 31 20 7 37 17 37 21 0 4 2 8
5 8 3 0 5 -12 4 -27z m-1989 -103 c0 -5 -4 -10 -9 -10 -6 0 -13 5 -16 10 -3 6
1 10 9 10 9 0 16 -4 16 -10z m1969 -17 c0 -5 -7 -24 -14 -43 -14 -37 -20 -16
-9 28 6 20 25 32 23 15z m-46 -148 c-10 -27 -24 -50 -31 -53 -8 -2 -2 18 15
52 32 67 40 67 16 1z m-113 -45 c0 -5 -5 -10 -11 -10 -5 0 -7 5 -4 10 3 6 8
10 11 10 2 0 4 -4 4 -10z m-19 -177 c-12 -20 -14 -14 -5 12 4 9 9 14 11 11 3
-2 0 -13 -6 -23z m-48 -18 c-3 -9 -8 -14 -10 -11 -3 3 -2 9 2 15 9 16 15 13 8
-4z m-286 -117 c-16 -11 -34 -33 -40 -47 -10 -25 -11 -25 -14 -4 -6 30 13 61
39 66 42 8 43 6 15 -15z m-550 -74 c-3 -3 -12 -4 -19 -1 -8 3 -5 6 6 6 11 1
17 -2 13 -5z m198 -29 c135 -9 189 -18 163 -30 -10 -4 -26 -4 -35 0 -48 18
-423 22 -478 5 -60 -18 -201 -50 -220 -49 -30 1 33 28 68 29 15 0 27 5 27 10
0 6 15 10 34 10 18 0 47 5 63 11 34 11 181 26 231 23 18 -1 84 -5 147 -9z
m355 -4 c-16 -32 -30 -35 -28 -7 2 18 8 26 21 26 14 0 16 -4 7 -19z m-503 -67
c-3 -3 -12 -4 -19 -1 -8 3 -5 6 6 6 11 1 17 -2 13 -5z m-460 -10 c-3 -3 -12
-4 -19 -1 -8 3 -5 6 6 6 11 1 17 -2 13 -5z m109 -170 c-33 -8 -65 -12 -70 -10
-6 2 -1 5 12 5 12 1 22 6 22 11 0 6 21 10 48 9 l47 -1 -59 -14z m297 -1 c-7
-2 -19 -2 -25 0 -7 3 -2 5 12 5 14 0 19 -2 13 -5z m-193 -12 c0 -5 -18 -8 -39
-7 -22 0 -37 4 -35 8 7 11 74 10 74 -1z m63 2 c-7 -2 -21 -2 -30 0 -10 3 -4 5
12 5 17 0 24 -2 18 -5z"/>
<path d="M1950 3321 c0 -6 5 -13 11 -17 6 -3 9 -19 7 -35 -3 -16 -1 -29 4 -29
4 0 8 11 8 25 0 14 4 25 10 25 5 0 2 9 -7 20 -19 21 -33 26 -33 11z"/>
<path d="M1560 3290 c20 -13 83 -13 75 0 -3 6 -25 10 -48 10 -31 0 -38 -3 -27
-10z"/>
<path d="M1813 3293 c-13 -2 -23 -9 -23 -14 0 -12 7 -11 60 5 38 13 41 15 15
14 -16 0 -40 -3 -52 -5z"/>
<path d="M7008 3293 c7 -3 16 -2 19 1 4 3 -2 6 -13 5 -11 0 -14 -3 -6 -6z"/>
<path d="M3962 3245 c-16 -35 -15 -37 8 -25 12 6 28 9 38 6 15 -5 87 -16 382
-56 94 -13 186 -27 258 -40 35 -6 96 -15 135 -20 40 -6 128 -19 197 -30 69
-11 141 -21 160 -24 124 -14 683 -92 760 -106 30 -5 141 -21 245 -35 319 -44
536 -76 579 -85 45 -10 242 -29 411 -39 82 -6 118 -4 140 6 l30 13 -28 -4
c-16 -2 -79 3 -140 10 -62 8 -150 18 -197 24 -128 15 -223 31 -240 41 -12 7
-11 9 5 9 l20 1 -20 9 c-29 13 -35 12 -35 -5 0 -17 14 -18 -285 26 -110 17
-265 39 -345 49 -162 21 -390 55 -675 99 -104 16 -287 44 -405 61 -118 17
-253 37 -300 44 -47 8 -112 17 -145 21 -33 4 -159 22 -280 41 -121 19 -229 34
-241 34 -13 0 -25 -10 -32 -25z"/>
<path d="M3670 3213 c-23 -23 -23 -24 -3 -14 22 11 38 30 32 35 -2 2 -15 -8
-29 -21z"/>
<path d="M6855 3200 c4 -6 11 -8 16 -5 14 9 11 15 -7 15 -8 0 -12 -5 -9 -10z"/>
<path d="M7170 3030 c0 -5 5 -10 10 -10 6 0 10 5 10 10 0 6 -4 10 -10 10 -5 0
-10 -4 -10 -10z"/>
<path d="M105 3000 c-3 -5 -4 -14 0 -20 8 -13 35 -1 35 16 0 16 -26 19 -35 4z"/>
<path d="M2237 2978 c18 -18 36 -29 40 -25 9 9 -41 57 -59 57 -7 0 2 -14 19
-32z"/>
<path d="M7002 2989 c11 -6 34 -6 65 0 l48 9 -65 1 c-48 0 -60 -2 -48 -10z"/>
<path d="M2290 2943 c0 -10 80 -82 105 -95 11 -5 -7 15 -39 46 -61 57 -66 61
-66 49z"/>
<path d="M1225 2870 c6 -32 49 -118 65 -130 3 -3 40 -50 82 -105 84 -109 103
-131 166 -187 30 -27 40 -42 35 -55 -6 -15 -4 -16 9 -5 11 9 18 10 23 2 3 -5
1 -10 -4 -10 -6 0 -11 -5 -11 -11 0 -5 5 -7 10 -4 6 3 10 1 10 -5 0 -6 5 -8
10 -5 6 4 8 11 5 16 -4 5 -1 9 4 9 6 0 11 -7 11 -15 0 -9 7 -27 16 -41 9 -13
14 -27 10 -31 -3 -3 -6 -1 -6 5 0 7 -4 12 -10 12 -5 0 -9 -16 -7 -35 1 -19 5
-35 10 -35 9 0 111 -79 149 -116 15 -14 31 -23 36 -21 13 9 82 -60 82 -81 0
-41 86 -102 144 -102 28 0 12 24 -20 31 -16 4 -21 7 -11 8 10 0 16 5 13 10
-12 18 7 40 42 52 21 6 48 17 62 25 14 7 34 15 45 19 16 5 17 8 5 15 -8 5 -11
12 -7 17 4 4 17 2 27 -5 11 -7 20 -10 20 -6 0 12 -27 31 -55 38 -22 6 -26 9
-15 16 11 7 6 13 -22 25 -21 8 -44 15 -53 15 -8 0 -15 8 -15 18 0 13 -12 23
-42 31 -56 17 -118 52 -118 66 0 6 -46 35 -102 64 -210 108 -219 114 -352 264
-33 37 -68 67 -78 67 -10 0 -18 5 -18 10 0 6 -6 10 -14 10 -22 0 -41 29 -28
42 30 30 -9 97 -53 93 -14 -2 -25 1 -25 6 0 6 7 9 16 7 10 -2 19 3 22 11 2 8
0 11 -6 7 -5 -3 -13 2 -16 11 -6 15 -8 15 -17 3 -8 -13 -10 -13 -20 0 -8 11
-9 6 -4 -20z m491 -557 c-7 -8 -46 12 -46 24 0 11 5 10 24 -4 13 -10 23 -19
22 -20z m38 -22 c4 -5 -3 -7 -14 -4 -23 6 -26 13 -6 13 8 0 17 -4 20 -9z m86
-43 c21 -23 20 -38 -2 -19 -7 7 -22 18 -33 26 -17 12 -18 14 -3 15 10 0 26
-10 38 -22z m-20 -23 c16 -8 36 -12 44 -9 20 8 21 -3 2 -22 -22 -21 -40 -17
-64 16 -26 34 -23 36 18 15z m224 -37 c-9 -33 -24 -48 -45 -48 -16 0 -15 3 6
26 14 15 25 31 25 35 0 5 5 9 11 9 6 0 8 -9 3 -22z m-98 -26 c-4 -3 -14 2 -24
12 -16 18 -16 18 6 6 13 -6 21 -14 18 -18z"/>
<path d="M1212 2748 c13 -39 31 -69 72 -120 16 -21 30 -46 31 -56 3 -49 173
-249 202 -238 7 3 32 -8 55 -25 l42 -30 12 23 c10 19 10 24 -2 26 -8 2 -14 7
-14 12 0 4 -12 13 -27 19 -51 21 -333 310 -333 340 0 10 -40 81 -45 81 -2 0 1
-15 7 -32z"/>
<path d="M1345 2751 c-3 -5 -1 -12 5 -16 5 -3 10 1 10 9 0 18 -6 21 -15 7z"/>
<path d="M2585 2740 c3 -5 10 -10 16 -10 5 0 9 5 9 10 0 6 -7 10 -16 10 -8 0
-12 -4 -9 -10z"/>
<path d="M2720 2690 c0 -5 10 -10 23 -10 18 0 19 2 7 10 -19 13 -30 13 -30 0z"/>
<path d="M3278 2683 c7 -3 16 -2 19 1 4 3 -2 6 -13 5 -11 0 -14 -3 -6 -6z"/>
<path d="M2784 2673 c4 -4 19 -8 34 -10 23 -2 24 -1 7 7 -24 11 -51 13 -41 3z"/>
<path d="M3100 2668 c0 -5 24 -8 54 -8 30 0 57 3 59 8 3 4 -21 7 -54 7 -32 0
-59 -3 -59 -7z"/>
<path d="M2928 2653 c7 -3 16 -2 19 1 4 3 -2 6 -13 5 -11 0 -14 -3 -6 -6z"/>
<path d="M3008 2653 c6 -2 18 -2 25 0 6 3 1 5 -13 5 -14 0 -19 -2 -12 -5z"/>
<path d="M1363 2414 c9 -17 45 -59 81 -94 36 -34 64 -67 63 -73 -1 -6 4 -12
11 -13 6 -1 17 -2 23 -3 5 0 8 -5 5 -10 -7 -11 79 -98 117 -117 19 -10 33 -12
39 -6 13 13 -36 66 -119 127 -37 28 -106 88 -152 135 -57 58 -79 75 -68 54z
m242 -231 c36 -32 37 -34 10 -20 -31 16 -75 57 -59 57 5 -1 27 -17 49 -37z"/>
<path d="M1450 2276 c0 -2 8 -10 18 -17 15 -13 16 -12 3 4 -13 16 -21 21 -21
13z"/>
<path d="M765 2220 c-3 -5 1 -10 10 -10 9 0 13 5 10 10 -3 6 -8 10 -10 10 -2
0 -7 -4 -10 -10z"/>
<path d="M110 2160 c0 -5 5 -10 10 -10 6 0 10 5 10 10 0 6 -4 10 -10 10 -5 0
-10 -4 -10 -10z"/>
<path d="M790 2140 c0 -5 5 -10 10 -10 6 0 10 5 10 10 0 6 -4 10 -10 10 -5 0
-10 -4 -10 -10z"/>
<path d="M1711 2081 c-8 -5 7 -25 48 -60 34 -29 61 -50 61 -46 0 12 -63 80
-72 78 -4 -2 -5 3 -2 11 6 16 -18 27 -35 17z"/>
<path d="M1245 2060 c-3 -5 1 -10 10 -10 9 0 13 5 10 10 -3 6 -8 10 -10 10 -2
0 -7 -4 -10 -10z"/>
<path d="M480 2030 c0 -5 5 -10 10 -10 6 0 10 5 10 10 0 6 -4 10 -10 10 -5 0
-10 -4 -10 -10z"/>
<path d="M2655 1953 c-78 -5 -116 -13 -110 -24 4 -5 9 -7 13 -5 4 2 61 7 127
11 66 4 124 11 130 16 9 9 -46 10 -160 2z"/>
<path d="M4330 1940 c14 -11 29 -20 34 -20 5 0 -3 9 -17 20 -14 11 -29 20 -34
20 -4 0 3 -9 17 -20z"/>
<path d="M915 1940 c-3 -5 -1 -10 4 -10 6 0 11 5 11 10 0 6 -2 10 -4 10 -3 0
-8 -4 -11 -10z"/>
<path d="M1918 1933 c7 -3 16 -2 19 1 4 3 -2 6 -13 5 -11 0 -14 -3 -6 -6z"/>
<path d="M2480 1930 c0 -5 11 -10 25 -10 14 0 25 5 25 10 0 6 -11 10 -25 10
-14 0 -25 -4 -25 -10z"/>
<path d="M2123 1923 c9 -2 23 -2 30 0 6 3 -1 5 -18 5 -16 0 -22 -2 -12 -5z"/>
<path d="M2428 1918 c9 -9 15 -9 24 0 9 9 7 12 -12 12 -19 0 -21 -3 -12 -12z"/>
<path d="M978 1893 c7 -3 16 -2 19 1 4 3 -2 6 -13 5 -11 0 -14 -3 -6 -6z"/>
<path d="M1058 1893 c7 -3 16 -2 19 1 4 3 -2 6 -13 5 -11 0 -14 -3 -6 -6z"/>
<path d="M1985 1840 c11 -5 27 -9 35 -9 9 0 8 4 -5 9 -11 5 -27 9 -35 9 -9 0
-8 -4 5 -9z"/>
<path d="M3840 1696 c0 -9 40 -13 46 -5 3 5 -6 9 -20 9 -14 0 -26 -2 -26 -4z"/>
<path d="M998 1583 c7 -3 16 -2 19 1 4 3 -2 6 -13 5 -11 0 -14 -3 -6 -6z"/>
<path d="M3350 1279 c0 -5 5 -7 10 -4 6 3 10 8 10 11 0 2 -4 4 -10 4 -5 0 -10
-5 -10 -11z"/>
<path d="M2480 1269 c0 -5 5 -7 10 -4 6 3 10 8 10 11 0 2 -4 4 -10 4 -5 0 -10
-5 -10 -11z"/>
<path d="M725 1080 c3 -5 10 -10 16 -10 5 0 9 5 9 10 0 6 -7 10 -16 10 -8 0
-12 -4 -9 -10z"/>
<path d="M4560 880 c0 -5 7 -10 15 -10 8 0 15 5 15 10 0 6 -7 10 -15 10 -8 0
-15 -4 -15 -10z"/>
<path d="M2016 331 c-4 -7 -5 -15 -2 -18 9 -9 19 4 14 18 -4 11 -6 11 -12 0z"/>
</g>
</svg>
