<?xml version="1.0" standalone="no"?>
<!DOCTYPE svg PUBLIC "-//W3C//DTD SVG 20010904//EN"
 "http://www.w3.org/TR/2001/REC-SVG-20010904/DTD/svg10.dtd">
<svg version="1.0" xmlns="http://www.w3.org/2000/svg"
 width="736.000000pt" height="981.000000pt" viewBox="0 0 736.000000 981.000000"
 preserveAspectRatio="xMidYMid meet">

<g transform="translate(0.000000,981.000000) scale(0.100000,-0.100000)"
fill="#000000" stroke="none">
<path d="M5846 9663 c-3 -82 -8 -249 -11 -373 -5 -199 -21 -439 -30 -448 -9
-10 -45 11 -38 21 4 7 0 6 -10 -2 -9 -7 -14 -17 -11 -22 3 -5 -3 -24 -14 -42
-12 -20 -19 -48 -18 -75 1 -27 -3 -42 -11 -42 -7 0 -13 -4 -13 -9 0 -5 8 -8
18 -7 13 1 17 -7 17 -37 0 -25 5 -39 16 -42 12 -4 16 -17 14 -49 -1 -33 2 -43
12 -39 8 3 13 -2 13 -15 0 -11 5 -22 11 -24 8 -3 5 -11 -7 -22 -18 -19 -30
-81 -13 -70 5 3 9 15 9 26 0 12 3 19 6 16 6 -6 -4 -63 -31 -178 -30 -131 -30
-127 -9 -107 11 10 24 41 31 70 10 43 12 45 10 15 -2 -21 1 -38 7 -38 9 0 169
152 271 258 39 40 58 52 81 52 47 -1 109 -34 132 -72 27 -43 30 -129 7 -148
-12 -10 -15 -10 -15 4 0 9 -5 16 -11 16 -9 0 -9 4 0 14 11 14 -1 67 -22 94 -5
7 -7 15 -3 19 8 8 -23 43 -39 43 -20 0 -45 -35 -45 -63 0 -27 34 -67 57 -67 7
0 18 -12 24 -27 9 -24 6 -31 -41 -76 -66 -65 -73 -57 -9 11 27 28 45 52 40 52
-13 0 -91 -59 -91 -70 0 -5 -122 -132 -271 -281 -189 -189 -275 -269 -286
-265 -11 5 -14 2 -9 -11 5 -13 -58 -83 -261 -287 -147 -149 -233 -237 -191
-196 116 111 104 78 -14 -41 -158 -158 -179 -201 -350 -704 -11 -33 -25 -64
-29 -70 -5 -5 -9 -20 -9 -33 0 -13 -5 -33 -12 -45 -11 -22 -106 -288 -135
-382 -8 -27 -28 -84 -44 -125 -16 -41 -29 -83 -29 -92 0 -9 -4 -19 -9 -22 -11
-7 -21 -56 -10 -56 4 0 14 19 23 43 48 130 74 212 69 220 -3 5 -1 12 4 16 5 3
36 83 68 176 32 94 80 231 106 305 26 74 73 209 104 300 102 297 84 272 501
687 200 200 364 367 364 372 0 5 14 18 31 29 17 10 141 129 277 263 135 134
243 238 241 231 -2 -7 -154 -163 -336 -346 l-332 -332 -47 -135 c-25 -73 -53
-146 -60 -161 -8 -15 -13 -31 -12 -35 3 -13 -25 -96 -116 -353 -108 -302 -178
-510 -210 -625 -65 -237 -110 -378 -117 -371 -2 2 -4 -8 -5 -23 -1 -37 -26
-86 -44 -86 -9 0 -16 -11 -17 -30 -2 -25 -1 -27 7 -10 8 19 9 19 9 -4 1 -13
12 -36 26 -53 35 -41 34 -100 -2 -155 -14 -23 -36 -47 -48 -53 -11 -6 -26 -20
-33 -31 -11 -18 -8 -17 35 5 58 31 99 67 106 92 3 12 5 7 6 -12 0 -18 -8 -42
-19 -56 -25 -32 -43 -75 -45 -110 -2 -15 -11 -44 -21 -65 -21 -43 -20 -83 2
-83 8 0 19 12 25 26 5 15 12 24 15 21 3 -3 1 -14 -5 -25 -6 -12 -8 -30 -3 -41
9 -26 3 -109 -37 -461 -53 -461 -93 -732 -121 -805 -14 -38 -12 -65 5 -65 9 0
18 -7 21 -15 4 -8 12 -15 19 -15 7 0 18 -7 26 -16 10 -13 10 -17 -2 -26 -11
-8 -11 -9 4 -4 9 3 17 1 17 -4 0 -6 7 -10 15 -10 13 0 19 -12 16 -32 0 -4 6
-5 13 -2 9 3 17 -3 21 -15 3 -12 10 -21 14 -21 4 0 16 -19 27 -42 10 -24 21
-45 24 -48 4 -3 12 -20 20 -38 11 -29 11 -35 -1 -43 -12 -8 -12 -10 1 -18 29
-19 0 -23 -50 -6 -55 18 -124 73 -201 158 l-46 51 -6 -83 c-4 -46 -4 -88 -1
-93 3 -5 18 -14 32 -19 21 -8 23 -12 12 -19 -12 -8 -10 -10 8 -10 13 0 20 4
17 10 -3 6 -2 10 4 10 5 0 12 -6 14 -12 3 -7 6 -5 6 6 1 18 2 18 19 3 10 -9
51 -21 93 -27 40 -5 87 -13 103 -16 25 -5 28 -4 22 12 -5 16 -4 17 6 4 7 -8
27 -22 43 -30 40 -20 128 -108 150 -150 10 -20 19 -66 22 -114 6 -94 -12 -160
-72 -267 -93 -162 -124 -235 -118 -273 4 -24 2 -36 -6 -36 -7 0 -10 -15 -7
-45 2 -27 0 -45 -6 -45 -7 0 -7 -5 1 -13 6 -9 7 -17 1 -23 -5 -5 -10 -35 -11
-67 -1 -33 -7 -57 -13 -57 -7 0 -11 -22 -11 -58 1 -31 -4 -73 -10 -92 -6 -19
-11 -39 -11 -45 0 -12 -21 -85 -42 -145 -9 -25 -36 -79 -59 -121 -24 -42 -43
-80 -43 -83 0 -3 10 -6 21 -6 17 0 19 -3 10 -14 -8 -10 -8 -16 2 -25 8 -6 17
-8 20 -5 3 4 9 -7 13 -22 9 -36 34 -56 51 -42 17 14 7 28 -19 28 -14 0 -18 5
-14 16 3 9 6 22 6 30 0 14 18 24 70 38 19 6 21 5 10 -3 -10 -7 -11 -11 -2 -11
6 0 12 -5 12 -11 0 -6 -9 -8 -20 -4 -11 3 -20 2 -20 -3 0 -15 108 -64 121 -56
17 10 4 -135 -16 -183 -8 -20 -13 -38 -11 -41 3 -2 -6 -20 -21 -38 -29 -39
-23 -45 11 -11 13 12 34 50 47 84 l24 62 17 -36 c10 -20 18 -41 18 -45 0 -10
-42 -68 -72 -102 -10 -11 -18 -26 -18 -33 0 -7 -3 -13 -7 -13 -9 -1 -47 -50
-39 -50 3 0 15 10 26 22 18 20 22 21 31 8 9 -12 10 -12 5 3 -7 21 12 58 52
104 26 30 28 31 48 15 11 -9 26 -26 34 -36 14 -18 13 -19 -2 -13 -10 3 -18 2
-18 -3 0 -5 9 -12 20 -15 11 -3 20 -12 20 -18 0 -19 66 -91 77 -84 6 4 22 -7
36 -22 l26 -29 -25 -6 c-27 -7 -31 -21 -9 -30 9 -3 15 0 15 10 0 9 6 14 13 11
6 -2 11 -10 9 -17 -1 -6 9 -25 23 -42 17 -20 24 -37 20 -52 -5 -18 -5 -19 5
-4 6 10 10 25 8 34 -2 9 3 19 9 21 9 3 11 -5 7 -29 -8 -42 -43 -118 -55 -118
-5 0 -9 -6 -9 -12 0 -17 -93 -118 -109 -118 -7 0 -9 9 -5 26 5 20 4 25 -5 19
-7 -4 -11 -19 -9 -35 1 -15 -4 -36 -12 -46 -9 -11 -10 -15 -2 -10 7 4 21 5 31
1 14 -4 18 -13 15 -38 -3 -30 -2 -31 9 -9 8 18 8 28 -1 43 -10 16 -9 22 9 37
12 9 51 48 88 85 36 37 82 75 101 85 19 9 38 18 43 20 4 2 7 -6 7 -17 0 -12 4
-21 10 -21 6 0 8 -55 5 -147 -3 -104 -2 -139 5 -118 6 17 8 35 5 42 -2 7 2 29
10 50 10 27 14 32 14 16 1 -12 5 -24 11 -28 5 -3 7 -12 4 -19 -3 -8 -1 -17 5
-21 6 -3 11 1 11 10 0 9 6 15 12 13 16 -6 27 -49 17 -69 -4 -8 -4 -32 1 -52 5
-24 4 -39 -3 -44 -6 -4 -5 -10 5 -17 8 -6 18 -28 22 -50 6 -31 3 -48 -16 -82
-25 -48 -19 -70 10 -34 10 13 24 20 29 17 14 -9 7 -171 -7 -175 -17 -6 -11
-22 8 -23 14 0 14 -2 -3 -9 -11 -5 -15 -9 -10 -9 7 -1 9 -16 7 -36 -4 -30 -7
-35 -23 -30 -12 4 -21 1 -25 -8 -6 -17 -54 -11 -69 9 -5 7 -18 14 -29 16 -10
1 -26 18 -36 35 -10 18 -22 38 -27 45 -6 7 -16 38 -23 68 -7 30 -19 71 -27 90
-8 19 -17 42 -18 50 -7 28 -47 135 -55 145 -4 6 -11 25 -15 43 -4 21 -15 37
-28 42 -12 5 -16 9 -9 9 13 1 17 41 3 41 -16 0 -20 -53 -5 -67 8 -8 14 -22 14
-31 0 -10 7 -28 16 -40 10 -15 14 -32 10 -48 -6 -24 15 -70 26 -59 3 3 6 -14
6 -38 1 -24 6 -55 11 -69 10 -26 10 -32 -4 -128 -9 -68 -17 -83 -26 -50 -7 24
-7 24 -8 3 -1 -24 -15 -30 -27 -12 -5 8 -10 6 -16 -5 -5 -9 -13 -14 -18 -11
-14 8 -23 -16 -11 -28 8 -8 11 -8 11 2 0 7 4 10 10 6 5 -3 7 -12 3 -21 -3 -8
6 -25 22 -40 18 -17 26 -20 21 -9 -10 28 14 12 32 -20 9 -17 18 -32 20 -34 1
-3 9 4 17 15 14 18 14 17 15 -12 0 -19 9 -39 25 -54 20 -19 25 -20 25 -7 0 9
4 18 9 21 5 3 9 -10 9 -30 0 -39 9 -55 20 -37 5 8 13 9 22 3 8 -6 63 -10 123
-10 102 0 107 1 107 21 0 11 4 28 9 37 5 9 12 53 16 97 3 44 11 84 16 89 5 6
9 22 9 36 0 14 4 30 9 36 5 5 16 47 25 94 22 113 24 118 44 123 16 4 16 5 0 6
-21 1 -21 2 -9 33 5 13 10 28 11 33 1 6 5 15 10 20 4 6 13 27 19 47 7 21 15
37 19 37 19 -3 23 3 12 17 -11 13 -8 20 18 44 19 17 30 35 26 43 -3 8 -1 18 5
22 6 3 11 15 11 26 0 10 5 19 10 19 6 0 10 9 10 20 0 11 5 20 11 20 5 0 7 4 4
10 -3 5 3 10 14 10 22 0 28 14 11 25 -11 7 8 56 27 68 8 5 11 13 7 18 -3 6 2
17 12 24 11 8 16 15 12 15 -4 0 9 16 28 36 33 36 48 68 21 45 -15 -12 -27 -5
-27 17 0 10 8 13 25 10 13 -3 22 -2 20 2 -7 12 23 33 35 25 6 -4 18 1 25 11
20 26 18 34 -5 34 -11 0 -20 5 -20 11 0 6 9 13 20 16 21 5 28 33 9 33 -5 0 -7
5 -4 10 5 8 11 7 21 -1 11 -9 14 -8 16 2 5 46 17 79 30 79 6 0 5 6 -3 16 -10
13 -10 17 1 24 8 5 18 6 22 4 4 -3 8 2 8 10 0 9 -7 16 -15 16 -8 0 -15 2 -15
5 0 11 26 50 38 58 7 5 10 12 7 18 -4 5 -1 9 5 9 7 0 9 8 5 20 -4 12 -2 20 5
20 6 0 11 8 10 18 -3 32 12 62 31 62 11 0 19 5 19 10 0 6 -4 10 -10 10 -5 0
-10 7 -10 15 0 8 4 15 8 15 10 0 47 62 44 74 -2 4 1 13 6 20 4 6 7 26 7 44 -1
23 3 32 14 32 14 0 14 2 1 10 -12 7 -11 12 9 29 14 12 21 27 17 36 -8 21 3 45
21 45 9 0 12 6 8 19 -6 20 18 46 34 36 7 -3 8 0 5 10 -5 12 -9 13 -20 4 -11
-9 -14 -8 -14 5 0 14 11 21 33 17 11 -2 8 24 -5 38 -10 11 -10 12 -1 7 16 -9
41 50 41 99 0 21 6 41 12 45 7 4 10 12 7 17 -6 9 11 67 26 91 5 6 6 16 3 21
-3 5 1 12 10 15 15 6 15 8 -1 32 -16 24 -16 26 4 31 12 3 21 10 20 17 -4 29 2
46 16 46 8 0 15 5 15 10 0 6 -7 10 -15 10 -19 0 -19 0 7 49 12 23 27 41 34 41
6 0 12 12 12 27 -1 15 4 29 10 31 6 2 8 10 5 19 -5 12 -3 14 7 8 10 -6 11 -2
6 18 -4 19 -1 29 11 36 10 6 15 11 10 11 -4 0 -1 13 8 30 8 16 15 40 15 54 0
14 4 27 10 31 5 3 7 21 5 40 -3 20 -1 35 5 35 6 0 10 6 9 13 -1 6 3 26 10 42
7 17 15 42 18 58 3 15 9 27 14 27 5 0 9 11 9 24 0 13 7 29 15 36 9 7 14 19 11
26 -3 8 2 20 10 29 8 8 12 19 9 25 -3 6 0 12 7 15 7 3 14 19 15 36 3 43 25 89
42 89 10 0 11 3 2 14 -6 7 -9 22 -5 32 7 21 48 114 70 157 8 16 14 39 14 52 0
12 6 28 14 34 8 7 12 21 9 31 -3 11 -1 26 5 33 6 7 16 35 22 62 6 28 15 59 20
70 30 73 40 132 40 239 0 82 -4 116 -12 120 -10 5 -10 7 0 12 13 6 17 44 5 44
-12 -1 -53 -37 -53 -47 0 -21 -48 -53 -79 -53 -30 0 -32 -2 -20 -17 10 -11 10
-14 2 -9 -8 4 -13 2 -13 -4 0 -7 9 -14 20 -17 11 -3 20 -9 20 -14 0 -5 -7 -6
-15 -3 -8 4 -15 1 -15 -6 0 -9 -11 -10 -35 -6 -29 6 -34 4 -29 -9 4 -10 0 -15
-14 -15 -27 0 -36 -16 -14 -25 16 -7 15 -8 -3 -15 -11 -5 -32 -9 -47 -9 -32
-1 -39 -21 -8 -21 11 0 20 -4 20 -10 0 -5 -10 -10 -22 -10 -19 0 -20 -2 -8
-10 13 -8 13 -10 -2 -10 -9 0 -19 -6 -21 -12 -4 -10 -6 -10 -6 0 -1 6 -8 12
-17 12 -13 0 -13 -4 4 -27 28 -41 34 -63 17 -63 -7 0 -17 10 -21 22 l-6 21
-12 -22 c-7 -12 -16 -18 -21 -14 -4 4 -5 2 -1 -5 4 -7 2 -19 -4 -27 -7 -9 -8
-15 -2 -15 5 0 12 7 16 15 3 8 13 15 23 15 16 -1 16 -2 3 -13 -9 -7 -14 -20
-12 -30 3 -15 -1 -17 -25 -12 -23 5 -25 4 -10 -5 23 -15 22 -34 -3 -27 -11 3
-20 1 -20 -4 0 -5 12 -9 28 -9 15 0 34 -5 42 -11 13 -9 13 -10 -2 -6 -9 3 -33
1 -53 -4 -28 -8 -35 -14 -30 -28 4 -14 -1 -20 -20 -25 -14 -4 -25 -14 -25 -22
0 -11 5 -14 18 -9 13 5 14 3 5 -6 -16 -16 -43 -4 -43 21 0 13 -7 20 -19 20
-13 0 -19 6 -18 19 1 16 6 19 29 14 18 -3 28 -1 28 6 0 6 -13 14 -30 17 -16 4
-30 11 -30 16 0 5 4 7 9 4 5 -3 14 1 20 8 14 17 3 26 -25 22 -18 -3 -20 -7
-23 -50 0 -11 -4 -17 -7 -14 -7 7 -6 267 1 388 6 91 19 235 36 390 5 52 16
167 24 255 25 273 71 623 113 870 13 73 22 188 26 341 4 126 9 243 11 260 2
16 6 70 10 119 3 50 11 144 17 209 l12 119 53 61 c29 33 81 109 115 168 35 59
69 108 76 108 6 0 12 -4 12 -9 0 -4 11 -20 24 -34 13 -14 31 -36 40 -49 15
-21 16 98 16 1385 l0 1407 -678 0 -678 0 -12 -192 c-6 -105 -14 -194 -19 -197
-4 -3 -10 -13 -12 -21 -1 -8 -9 -37 -16 -65 -7 -27 -20 -99 -29 -160 -24 -153
-25 -155 -21 -25 3 63 8 238 11 388 l6 272 -29 0 -30 0 -7 -147z m181 70 c-3
-10 -5 -2 -5 17 0 19 2 27 5 18 2 -10 2 -26 0 -35z m0 -75 c-3 -8 -6 -5 -6 6
-1 11 2 17 5 13 3 -3 4 -12 1 -19z m-3 -220 c-4 -46 -11 -90 -16 -98 -8 -15
-3 94 8 153 11 53 14 26 8 -55z m-57 -100 c-3 -7 -5 -2 -5 12 0 14 2 19 5 13
2 -7 2 -19 0 -25z m-10 -50 c-3 -7 -5 -2 -5 12 0 14 2 19 5 13 2 -7 2 -19 0
-25z m58 -75 c-10 -143 -25 -203 -19 -78 5 111 13 175 21 175 3 0 2 -44 -2
-97z m-39 -120 l-5 -186 -28 -23 c-15 -12 -29 -21 -30 -21 0 1 7 35 17 76 24
95 34 164 20 136 -12 -22 -12 -26 11 123 8 45 15 82 17 82 1 0 1 -84 -2 -187z
m-29 145 c-3 -8 -6 -5 -6 6 -1 11 2 17 5 13 3 -3 4 -12 1 -19z m13 -388 c0 -5
-2 -10 -4 -10 -3 0 -8 5 -11 10 -3 6 -1 10 4 10 6 0 11 -4 11 -10z m-53 -32
c-3 -8 -6 -5 -6 6 -1 11 2 17 5 13 3 -3 4 -12 1 -19z m23 -160 c-30 -110 -60
-173 -45 -98 4 26 3 31 -4 20 -8 -11 -11 3 -11 53 0 43 4 67 11 67 6 0 9 9 6
20 -3 11 -1 17 4 14 5 -3 12 2 15 10 3 8 14 18 25 21 12 4 20 16 20 33 l2 27
4 -27 c2 -15 -10 -78 -27 -140z m-53 -170 c-3 -7 -5 -2 -5 12 0 14 2 19 5 13
2 -7 2 -19 0 -25z m-61 -150 c-4 -22 -11 -48 -17 -57 -9 -16 -5 38 8 82 9 33
15 16 9 -25z m44 -454 c0 -8 -4 -12 -10 -9 -5 3 -10 10 -10 16 0 5 5 9 10 9 6
0 10 -7 10 -16z m-245 -238 c-36 -36 -45 -33 -10 4 16 16 30 28 32 26 2 -2 -8
-16 -22 -30z m-54 -54 c-13 -25 -353 -354 -359 -348 -4 4 357 365 366 366 1 0
-2 -8 -7 -18z m1429 -67 c0 -8 5 -15 10 -15 16 0 12 -66 -5 -80 -13 -10 -15
-9 -15 11 -1 13 -3 41 -6 62 -4 23 -2 37 5 37 6 0 11 -7 11 -15z m30 -134 c0
-10 -7 -24 -15 -31 -12 -10 -15 -9 -15 8 0 29 11 53 21 46 5 -3 9 -13 9 -23z
m41 -24 c-10 -9 -11 -8 -5 6 3 10 9 15 12 12 3 -3 0 -11 -7 -18z m57 -49 c12
-18 34 -46 51 -62 17 -17 31 -34 31 -39 0 -6 12 -26 27 -45 l26 -35 -31 -61
c-36 -73 -162 -258 -180 -264 -9 -3 -13 30 -14 140 -3 186 -3 201 7 278 8 59
36 120 56 120 4 0 16 -15 27 -32z m-102 6 c-3 -9 -6 -21 -7 -27 0 -7 -4 -3 -8
8 -9 22 -5 35 11 35 5 0 7 -7 4 -16z m-2 -416 c3 -86 2 -138 -4 -138 -6 0 -10
30 -11 68 0 37 -3 90 -5 117 -4 46 2 102 10 94 2 -2 6 -66 10 -141z m-118
-155 c-10 -26 -18 -8 -9 23 5 21 8 24 11 11 2 -10 1 -25 -2 -34z m114 -28 c0
-14 -4 -25 -9 -25 -4 0 -6 11 -3 25 2 14 6 25 8 25 2 0 4 -11 4 -25z m-120
-28 c0 -5 -4 -5 -10 -2 -5 3 -10 14 -10 23 0 15 2 15 10 2 5 -8 10 -19 10 -23z
m30 -522 c-11 -99 -27 -216 -35 -260 l-14 -80 5 80 c3 44 12 123 20 175 15
101 32 287 36 385 2 44 3 36 5 -30 2 -50 -5 -169 -17 -270z m-40 255 c0 -5 -9
-10 -21 -10 -11 0 -17 5 -14 10 3 6 13 10 21 10 8 0 14 -4 14 -10z m0 -30 c0
-5 -4 -10 -10 -10 -5 0 -10 5 -10 10 0 6 5 10 10 10 6 0 10 -4 10 -10z m-4
-33 c11 -11 -19 -8 -36 3 -12 8 -10 9 7 7 12 -2 26 -6 29 -10z m-3 -24 c2 -5
1 -18 -2 -30 -5 -17 -10 -20 -21 -13 -13 9 -13 11 0 20 11 7 11 10 2 10 -7 0
-10 5 -7 10 7 12 22 13 28 3z m-7 -215 c-7 -143 -22 -254 -36 -263 -5 -3 -6
-13 -4 -23 3 -9 -2 -57 -11 -107 -9 -49 -18 -106 -21 -125 -2 -19 -9 -50 -15
-67 -6 -18 -12 -50 -15 -70 -4 -40 -40 -223 -54 -283 -9 -35 -6 96 6 275 6 96
11 115 30 115 11 0 12 4 3 19 -14 22 -5 52 13 47 7 -1 9 -1 5 2 -4 2 0 10 10
18 17 13 17 13 -1 14 -10 0 -25 -8 -32 -17 -12 -16 -13 -15 -14 10 0 24 3 27
20 22 11 -3 28 -2 37 4 15 8 11 10 -19 11 -27 0 -38 4 -38 15 0 9 9 15 21 15
19 0 19 1 5 16 -22 22 -20 34 7 35 l22 2 -22 4 c-19 4 -23 11 -23 44 0 26 5
42 15 45 14 6 14 8 1 18 -13 9 -13 20 -2 79 7 37 11 79 8 92 -3 19 0 25 13 25
14 0 15 3 5 15 -11 13 -8 15 13 15 14 0 29 5 33 12 5 7 2 9 -8 5 -11 -4 -15 1
-15 19 0 17 4 24 13 20 10 -4 14 4 14 27 0 32 15 57 33 57 6 0 7 -58 3 -142z
m-16 -438 c-12 -58 -23 -116 -26 -130 -3 -14 -13 -63 -24 -110 -10 -47 -33
-154 -51 -238 -18 -84 -34 -150 -36 -148 -6 6 32 205 93 489 30 136 55 255 55
265 1 13 3 12 6 -3 2 -11 -6 -67 -17 -125z m40 -18 c-6 -37 -16 -103 -20 -147
-5 -44 -16 -143 -25 -220 -8 -77 -20 -185 -25 -240 -31 -316 -61 -599 -71
-660 -15 -101 -16 -104 -24 -172 -6 -48 -11 -60 -22 -56 -8 3 -19 0 -24 -8 -5
-9 -9 43 -10 131 -4 290 -1 332 31 515 17 99 35 205 40 235 4 30 22 118 40
195 59 260 69 310 92 420 23 116 38 121 18 7z m-210 -272 c0 -5 -4 -10 -10
-10 -5 0 -10 5 -10 10 0 6 5 10 10 10 6 0 10 -4 10 -10z m-19 -30 c10 0 19 -4
19 -10 0 -5 -10 -8 -22 -6 -13 3 -26 5 -30 5 -4 1 -4 9 -1 18 4 11 8 12 11 5
2 -7 12 -12 23 -12z m26 -50 c4 -13 3 -13 -6 0 -9 12 -11 11 -11 -7 0 -13 4
-23 10 -23 5 0 8 -17 5 -37 -2 -21 -6 -92 -10 -158 -3 -66 -12 -174 -20 -240
-45 -374 -47 -389 -64 -402 -14 -11 -14 -12 0 -8 13 5 15 0 11 -25 -2 -18 -11
-34 -18 -37 -8 -3 -11 -9 -8 -14 3 -5 -2 -9 -11 -9 -9 0 -13 5 -10 10 3 6 8
65 10 133 3 113 13 237 21 280 2 10 6 82 10 160 3 78 7 157 8 175 1 18 8 37
16 42 10 6 11 10 3 10 -10 0 -13 86 -4 155 2 16 64 12 68 -5z m-1687 -54 c0
-3 -4 -8 -10 -11 -5 -3 -10 -1 -10 4 0 6 5 11 10 11 6 0 10 -2 10 -4z m1707
-248 c-3 -8 -6 -5 -6 6 -1 11 2 17 5 13 3 -3 4 -12 1 -19z m-212 -9 c11 -16 1
-19 -13 -3 -7 8 -8 14 -3 14 5 0 13 -5 16 -11z m-14 -54 c7 18 8 17 8 -5 1
-19 -4 -26 -18 -27 -14 -1 -18 3 -14 13 3 8 -1 14 -8 14 -11 0 -11 3 1 10 11
7 16 5 19 -8 3 -15 5 -15 12 3z m-124 -57 c-3 -7 -5 -2 -5 12 0 14 2 19 5 13
2 -7 2 -19 0 -25z m79 -65 c-6 -62 -6 -66 8 -48 15 19 15 19 16 -9 0 -33 -40
-237 -49 -248 -7 -8 -3 166 4 200 3 12 13 22 23 22 16 1 16 1 0 11 -19 11 -22
39 -12 102 11 62 17 41 10 -30z m44 42 c0 -14 -4 -25 -10 -25 -5 0 -10 11 -10
25 0 14 5 25 10 25 6 0 10 -11 10 -25z m-137 -30 c-3 -9 -8 -14 -10 -11 -3 3
-2 9 2 15 9 16 15 13 8 -4z m7 -75 c0 -33 -3 -40 -19 -40 -11 0 -23 -5 -27
-11 -5 -9 1 -10 21 -5 25 6 27 5 21 -16 -3 -13 -6 -31 -6 -40 0 -11 -5 -15
-14 -12 -8 3 -17 1 -21 -5 -8 -14 -25 -14 -25 -1 0 6 5 10 10 10 6 0 16 5 23
12 10 9 8 17 -12 36 l-25 25 30 23 29 24 -25 1 -25 1 25 8 c14 4 21 8 17 9
-11 1 2 21 14 21 5 0 9 -18 9 -40z m-753 15 c-4 -8 -2 -17 4 -20 5 -4 7 -11 3
-16 -3 -5 -10 -7 -15 -4 -5 4 -9 -4 -9 -17 0 -13 -11 -41 -25 -63 l-25 -40 4
37 c3 20 7 45 9 55 3 10 8 31 11 46 4 15 11 25 16 22 6 -3 10 -1 10 4 0 6 5
11 11 11 6 0 9 -7 6 -15z m890 -121 c-3 -58 -10 -111 -15 -116 -6 -6 -8 -17
-5 -24 3 -8 -8 -81 -23 -162 l-29 -147 -3 104 c-2 83 2 127 23 220 14 64 30
118 36 119 5 2 6 8 3 14 -7 11 4 98 13 98 3 0 3 -48 0 -106z m-874 3 c-29 -48
-70 -97 -82 -97 -15 0 -7 12 53 78 31 34 42 41 29 19z m-103 -17 c0 -5 -2 -10
-4 -10 -3 0 -8 5 -11 10 -3 6 -1 10 4 10 6 0 11 -4 11 -10z m825 -287 c-6
-232 -16 -376 -32 -441 -4 -16 -10 -21 -21 -17 -8 3 -19 0 -23 -7 -5 -8 -11
-4 -18 15 -13 32 -25 36 -15 5 6 -20 5 -21 -9 -10 -16 14 -16 20 3 152 5 36
10 111 10 166 0 78 4 104 15 114 8 7 15 16 15 21 0 14 -28 11 -33 -3 -3 -7 -6
-1 -6 15 -1 20 4 27 18 27 25 0 37 18 40 60 5 62 7 75 15 89 9 14 -12 34 -26
25 -4 -3 -8 0 -8 5 0 6 9 11 20 11 13 0 18 5 14 15 -5 11 1 15 21 15 l27 0 -7
-257z m-72 107 c4 -15 0 -20 -13 -20 -13 0 -17 5 -13 20 3 11 9 20 13 20 4 0
10 -9 13 -20z m216 -116 c-1 -40 -5 -60 -10 -52 -6 9 -9 6 -9 -10 0 -15 4 -21
12 -16 8 5 9 2 5 -10 -4 -10 -7 -27 -7 -39 0 -16 -3 -18 -9 -8 -10 16 -26 -68
-22 -118 2 -22 -1 -31 -8 -27 -15 10 -14 68 4 156 9 41 21 101 27 133 6 31 13
57 15 57 2 0 3 -30 2 -66z m168 -16 c-2 -13 -4 -5 -4 17 -1 22 1 32 4 23 2
-10 2 -28 0 -40z m-51 -25 c-2 -27 -4 -63 -5 -80 -1 -18 -4 -33 -8 -33 -10 0
-9 120 1 143 13 28 16 20 12 -30z m-391 -220 c-6 -87 -18 -114 -32 -77 -3 9 3
80 13 157 18 134 19 138 22 77 2 -36 1 -107 -3 -157z m171 -83 c-23 -122 -25
-119 -20 30 2 85 8 169 12 185 11 46 19 -160 8 -215z m884 220 c0 -5 -7 -10
-15 -10 -8 0 -15 5 -15 10 0 6 7 10 15 10 8 0 15 -4 15 -10z m-794 -67 c-10
-10 -19 5 -10 18 6 11 8 11 12 0 2 -7 1 -15 -2 -18z m241 -35 c-3 -7 -5 -2 -5
12 0 14 2 19 5 13 2 -7 2 -19 0 -25z m453 12 c0 -5 -5 -10 -11 -10 -5 0 -7 5
-4 10 3 6 8 10 11 10 2 0 4 -4 4 -10z m-415 -135 c-4 -47 -10 -84 -12 -81 -3
3 -2 44 2 91 4 48 9 84 12 81 3 -2 2 -43 -2 -91z m-295 -75 l-20 -20 0 31 c0
28 2 30 16 18 13 -11 15 -11 14 2 -1 7 -1 41 1 74 l3 60 3 -72 c3 -62 1 -75
-17 -93z m0 76 c0 -8 -4 -18 -10 -21 -5 -3 -10 3 -10 14 0 12 5 21 10 21 6 0
10 -6 10 -14z m-260 -23 c0 -5 -5 -15 -10 -23 -8 -12 -10 -11 -10 8 0 12 5 22
10 22 6 0 10 -3 10 -7z m193 -94 c-9 -9 -9 16 -3 71 2 15 5 7 7 -19 3 -24 0
-48 -4 -52z m154 -11 c-3 -7 -5 -2 -5 12 0 14 2 19 5 13 2 -7 2 -19 0 -25z
m-77 12 c0 -5 -2 -10 -4 -10 -3 0 -8 5 -11 10 -3 6 -1 10 4 10 6 0 11 -4 11
-10z m550 -20 c8 -5 11 -10 5 -10 -5 0 -17 5 -25 10 -8 5 -10 10 -5 10 6 0 17
-5 25 -10z m-47 -80 c-3 -11 -9 -20 -14 -20 -16 0 -23 32 -8 40 19 12 28 3 22
-20z m-436 -72 c-3 -7 -5 -2 -5 12 0 14 2 19 5 13 2 -7 2 -19 0 -25z m252 -55
l-1 -58 -10 42 c-10 38 -6 73 7 73 3 0 4 -26 4 -57z m31 47 c0 -5 -4 -10 -10
-10 -5 0 -10 5 -10 10 0 6 5 10 10 10 6 0 10 -4 10 -10z m-1996 -146 c3 -8 2
-12 -4 -9 -6 3 -10 10 -10 16 0 14 7 11 14 -7z m2026 -38 c0 -3 -4 -8 -10 -11
-5 -3 -10 -1 -10 4 0 6 5 11 10 11 6 0 10 -2 10 -4z m-1110 -876 c0 -5 -2 -10
-4 -10 -3 0 -8 5 -11 10 -3 6 -1 10 4 10 6 0 11 -4 11 -10z m371 -403 c-10 -9
-11 -8 -5 6 3 10 9 15 12 12 3 -3 0 -11 -7 -18z m-1 -50 c0 -5 -4 -5 -10 -2
-5 3 -10 14 -10 23 0 15 2 15 10 2 5 -8 10 -19 10 -23z m-43 -154 c-3 -10 -5
-4 -5 12 0 17 2 24 5 18 2 -7 2 -21 0 -30z m4 -58 l9 20 -3 -20 c-2 -22 -21
-24 -23 -3 0 7 1 6 4 -2 4 -12 7 -11 13 5z m-294 -162 c-3 -10 -5 -4 -5 12 0
17 2 24 5 18 2 -7 2 -21 0 -30z m-697 17 c0 -5 -2 -10 -4 -10 -3 0 -8 5 -11
10 -3 6 -1 10 4 10 6 0 11 -4 11 -10z m825 -20 c-4 -12 -9 -19 -12 -17 -3 3
-2 15 2 27 4 12 9 19 12 17 3 -3 2 -15 -2 -27z m172 -2 c-3 -8 -6 -5 -6 6 -1
11 2 17 5 13 3 -3 4 -12 1 -19z m-463 -74 c3 -8 2 -12 -4 -9 -6 3 -10 10 -10
16 0 14 7 11 14 -7z m92 1 c14 -13 13 -15 -5 -15 -12 0 -21 6 -21 15 0 8 3 15
6 15 3 0 12 -7 20 -15z m61 -27 c-3 -7 -5 -2 -5 12 0 14 2 19 5 13 2 -7 2 -19
0 -25z m190 -20 c-3 -7 -5 -2 -5 12 0 14 2 19 5 13 2 -7 2 -19 0 -25z m-120
-25 c-3 -10 -5 -4 -5 12 0 17 2 24 5 18 2 -7 2 -21 0 -30z m20 15 c-3 -8 -6
-5 -6 6 -1 11 2 17 5 13 3 -3 4 -12 1 -19z m-127 -13 c0 -8 -4 -15 -10 -15 -5
0 -10 7 -10 15 0 8 5 15 10 15 6 0 10 -7 10 -15z m27 -36 c-7 -70 -16 -73 -16
-5 1 31 5 56 11 56 6 0 8 -21 5 -51z m-59 -4 c-2 -2 -14 -2 -26 2 -18 4 -20 8
-11 19 9 11 14 11 26 -2 9 -8 14 -17 11 -19z m249 3 c-3 -7 -5 -2 -5 12 0 14
2 19 5 13 2 -7 2 -19 0 -25z m-150 0 c-3 -8 -6 -5 -6 6 -1 11 2 17 5 13 3 -3
4 -12 1 -19z m-92 -47 c-3 -11 -9 -20 -13 -20 -4 1 -13 1 -20 0 -14 -1 -8 -11
31 -50 27 -28 8 -95 -33 -116 -29 -15 -30 -15 -36 10 -3 14 -11 25 -18 25 -8
0 -8 2 1 8 18 12 24 61 8 70 -18 10 -8 52 12 52 8 0 11 5 8 10 -6 10 6 14 38
11 10 -2 17 5 17 15 0 10 3 15 6 11 3 -3 3 -15 -1 -26z m30 -49 c-6 -16 -7
-16 -17 1 -5 10 -7 26 -3 35 6 16 7 16 17 -1 5 -10 7 -26 3 -35z m142 -94 c-3
-8 -6 -5 -6 6 -1 11 2 17 5 13 3 -3 4 -12 1 -19z m-153 -85 c-4 -21 -11 -47
-17 -58 -10 -19 -11 -19 -17 5 -4 17 1 36 14 57 12 18 22 33 24 33 2 0 0 -17
-4 -37z m139 -6 c-3 -20 -9 -37 -14 -37 -5 0 -7 6 -5 13 3 6 7 25 11 41 9 40
16 27 8 -17z m-192 0 c-8 -8 -11 -7 -11 4 0 20 13 34 18 19 3 -7 -1 -17 -7
-23z m226 11 c-3 -8 -6 -5 -6 6 -1 11 2 17 5 13 3 -3 4 -12 1 -19z m-140 -60
c-3 -8 -6 -5 -6 6 -1 11 2 17 5 13 3 -3 4 -12 1 -19z m150 -45 c-3 -10 -5 -2
-5 17 0 19 2 27 5 18 2 -10 2 -26 0 -35z m-21 14 c-1 -13 -6 -29 -10 -36 -4
-7 -5 -15 -2 -18 3 -3 1 -12 -5 -19 -8 -10 -7 -19 4 -34 11 -16 16 -18 20 -8
3 7 6 9 6 3 1 -14 -11 -28 -36 -43 -23 -12 -33 0 -12 14 7 4 7 10 2 15 -8 8 4
80 22 137 7 20 14 14 11 -11z m-338 -53 c-10 -10 -28 6 -28 24 0 15 1 15 17
-1 9 -9 14 -19 11 -23z m264 -26 c0 -18 0 -46 -1 -63 -1 -26 -3 -27 -12 -12
-8 13 -8 76 0 116 3 16 13 -13 13 -41z m-32 -5 c0 -19 -3 -24 -10 -17 -6 6 -8
18 -4 27 9 24 14 21 14 -10z m164 -104 c-3 -5 -10 -7 -15 -3 -5 3 -7 10 -3 15
3 5 10 7 15 3 5 -3 7 -10 3 -15z m-54 -27 c0 -37 -9 -35 -27 8 -9 22 -8 26 8
27 15 1 19 -5 19 -35z m70 -61 c0 -6 -4 -13 -10 -16 -5 -3 -10 -15 -10 -26 0
-11 -4 -17 -10 -14 -5 3 -10 17 -10 31 0 14 4 22 10 19 6 -3 10 -1 10 4 0 6 5
11 10 11 6 0 10 -4 10 -9z m-210 -47 c0 -14 4 -23 9 -20 5 4 7 -8 4 -25 -3
-19 -1 -29 6 -25 11 7 26 -32 16 -42 -4 -4 -10 -1 -12 6 -3 6 -10 12 -17 12
-14 0 -40 106 -30 121 9 16 24 -1 24 -27z m220 2 c0 -3 -4 -8 -10 -11 -5 -3
-10 -1 -10 4 0 6 5 11 10 11 6 0 10 -2 10 -4z m11 -33 c-12 -20 -14 -14 -5 12
4 9 9 14 11 11 3 -2 0 -13 -6 -23z m-16 -23 c3 -5 1 -10 -4 -10 -6 0 -11 5
-11 10 0 6 2 10 4 10 3 0 8 -4 11 -10z m-135 -35 c0 -8 5 -15 10 -15 14 0 12
-54 -2 -68 -22 -22 -28 -12 -26 43 1 30 6 55 10 55 4 0 8 -7 8 -15z m84 -30
c-4 -8 -8 -15 -10 -15 -2 0 -4 7 -4 15 0 8 4 15 10 15 5 0 7 -7 4 -15z m111
-15 c3 -5 1 -10 -4 -10 -6 0 -11 5 -11 10 0 6 2 10 4 10 3 0 8 -4 11 -10z
m-189 -75 c14 -13 14 -17 0 -30 -20 -21 -23 -19 -24 15 -1 34 3 36 24 15z m-9
-107 c-2 -13 -4 -5 -4 17 -1 22 1 32 4 23 2 -10 2 -28 0 -40z m-277 -278 c0
-5 -2 -10 -4 -10 -3 0 -8 5 -11 10 -3 6 -1 10 4 10 6 0 11 -4 11 -10z"/>
<path d="M6810 6099 c0 -5 5 -7 10 -4 6 3 10 8 10 11 0 2 -4 4 -10 4 -5 0 -10
-5 -10 -11z"/>
<path d="M6810 6060 c0 -5 5 -10 11 -10 5 0 7 5 4 10 -3 6 -8 10 -11 10 -2 0
-4 -4 -4 -10z"/>
<path d="M6755 5830 c3 -5 8 -10 11 -10 2 0 4 5 4 10 0 6 -5 10 -11 10 -5 0
-7 -4 -4 -10z"/>
<path d="M6790 5800 c0 -5 7 -10 16 -10 8 0 12 5 9 10 -3 6 -10 10 -16 10 -5
0 -9 -4 -9 -10z"/>
<path d="M6690 4290 c0 -5 4 -10 9 -10 6 0 13 5 16 10 3 6 -1 10 -9 10 -9 0
-16 -4 -16 -10z"/>
<path d="M6587 4533 c-10 -9 -9 -23 1 -23 5 0 9 7 9 15 0 17 -1 18 -10 8z"/>
<path d="M6310 4603 c0 -5 5 -15 10 -23 8 -12 10 -11 10 8 0 12 -4 22 -10 22
-5 0 -10 -3 -10 -7z"/>
<path d="M6266 4302 c-2 -4 2 -18 10 -32 l13 -25 1 33 c0 29 -12 43 -24 24z"/>
<path d="M5672 1496 c7 -8 17 -12 22 -9 4 3 2 9 -5 14 -22 13 -31 11 -17 -5z"/>
<path d="M5815 811 c-3 -5 -1 -12 5 -16 5 -3 10 1 10 9 0 18 -6 21 -15 7z"/>
<path d="M0 8142 l0 -849 51 16 51 16 -6 37 c-3 21 -9 56 -12 78 -6 38 -5 40
21 40 25 0 26 2 19 33 -4 17 -6 50 -6 72 1 35 0 38 -12 22 -25 -32 -32 72 -26
363 3 107 4 111 12 60 5 -30 17 -84 28 -120 10 -36 22 -81 25 -100 4 -19 13
-59 21 -87 13 -47 17 -53 42 -53 57 0 58 3 39 177 -19 183 -53 428 -61 450 -4
8 -11 58 -17 111 -13 129 -33 186 -83 240 l-41 45 3 78 c2 58 -3 97 -19 149
-11 38 -23 70 -25 70 -2 0 -4 -382 -4 -848z m99 379 c6 -19 11 -55 11 -80 0
-25 7 -73 15 -106 15 -65 25 -135 30 -200 3 -52 24 -172 36 -209 8 -27 5 -46
-5 -35 -3 2 -14 56 -26 119 -12 63 -28 135 -35 160 -8 25 -17 65 -20 90 -7 51
-26 125 -57 223 -21 66 -21 67 -2 81 23 18 36 7 53 -43z"/>
<path d="M5780 8875 c0 -14 4 -25 9 -25 5 0 9 11 9 25 0 14 -4 25 -9 25 -5 0
-9 -11 -9 -25z"/>
<path d="M3354 8631 c3 -5 15 -7 26 -4 28 7 25 13 -6 13 -14 0 -23 -4 -20 -9z"/>
<path d="M5040 8515 c-1 -5 -2 -13 -2 -16 1 -8 -100 -18 -192 -19 -46 0 -72 4
-78 12 -5 10 -8 8 -8 -4 0 -20 -17 -23 -54 -8 -17 6 -26 6 -26 0 0 -6 -7 -10
-16 -10 -10 0 -14 6 -11 14 3 8 -1 17 -9 20 -24 9 -31 7 -14 -4 11 -7 7 -10
-17 -10 -23 0 -33 -5 -33 -15 0 -8 -7 -15 -15 -15 -8 0 -15 6 -15 14 0 10 -12
14 -40 13 -22 -1 -40 -5 -40 -9 0 -5 -9 -8 -21 -8 -15 0 -19 5 -15 15 3 8 1
15 -3 15 -5 0 -11 -6 -14 -12 -4 -10 -7 -10 -18 0 -16 15 -29 16 -29 2 0 -6
15 -17 33 -25 30 -13 31 -14 7 -15 -14 0 -33 9 -43 20 -10 13 -22 18 -30 13
-19 -12 -45 -14 -52 -3 -3 6 -13 10 -21 10 -11 0 -13 -6 -9 -20 4 -11 2 -20
-4 -20 -6 0 -11 7 -11 16 0 12 -5 14 -17 9 -10 -5 -27 -8 -38 -8 -11 -1 -25
-7 -31 -15 -10 -14 -64 -13 -124 2 -19 5 -20 4 -6 -2 19 -8 18 -9 -5 -15 -40
-11 -49 -8 -50 16 -1 15 -4 11 -9 -13 -5 -19 -5 -190 0 -380 5 -190 12 -484
16 -654 l7 -309 56 60 c31 34 72 71 91 84 19 13 37 26 40 29 3 3 24 20 46 38
23 17 47 46 54 64 23 61 53 123 74 153 31 45 45 68 55 92 6 11 15 24 20 28 6
3 11 13 11 21 0 8 18 39 40 69 22 30 40 57 40 61 0 3 11 19 25 36 14 16 25 36
25 44 0 8 4 14 8 14 4 0 16 14 26 30 10 17 34 48 54 68 21 20 52 55 69 77 17
22 52 56 77 75 25 19 45 41 46 48 0 6 5 12 10 12 6 0 10 7 10 15 0 8 4 15 9
15 5 0 26 24 47 53 21 28 46 58 56 65 10 7 18 17 18 23 0 5 8 17 18 27 32 35
52 62 52 72 0 6 5 10 10 10 6 0 10 5 10 11 0 6 -6 9 -14 6 -9 -4 -17 1 -19 11
-3 9 -6 13 -7 7z"/>
<path d="M4070 8460 c0 -5 5 -10 11 -10 5 0 7 5 4 10 -3 6 -8 10 -11 10 -2 0
-4 -4 -4 -10z"/>
<path d="M4115 8460 c-3 -5 3 -10 15 -10 12 0 18 5 15 10 -3 6 -10 10 -15 10
-5 0 -12 -4 -15 -10z"/>
<path d="M6260 8375 c0 -15 18 -40 24 -34 3 3 -1 14 -9 25 -8 10 -14 15 -15 9z"/>
<path d="M6097 8315 c-8 -8 -18 -11 -22 -7 -5 4 -5 2 -2 -5 7 -11 -10 -34 -36
-50 -7 -5 -28 -28 -46 -53 -19 -25 -57 -69 -85 -99 -28 -30 -45 -51 -38 -47
22 13 12 -5 -18 -30 -16 -14 -27 -31 -24 -38 4 -9 -2 -12 -18 -9 -18 3 -26 -3
-35 -23 -7 -16 -13 -35 -13 -44 0 -19 -40 -56 -65 -62 -9 -1 -24 -16 -33 -33
-9 -16 -23 -35 -29 -43 -19 -20 -16 -24 8 -11 12 6 24 20 26 30 3 10 9 19 14
19 10 0 79 67 167 163 29 31 59 57 65 57 16 0 42 41 38 59 -1 9 3 12 13 8 11
-4 13 -1 9 10 -5 13 -2 15 11 10 13 -5 30 6 64 45 75 85 112 118 133 118 10 0
19 4 19 9 0 11 -48 24 -60 16 -6 -4 -10 1 -10 9 0 20 -14 20 -33 1z m-182
-235 c-3 -5 -12 -10 -18 -10 -7 0 -6 4 3 10 19 12 23 12 15 0z"/>
<path d="M5536 7718 c-2 -7 -8 -28 -14 -45 -12 -38 4 -46 18 -9 5 13 14 26 20
28 13 4 3 38 -11 38 -5 0 -11 -6 -13 -12z"/>
<path d="M5485 7620 c-3 -5 -1 -10 4 -10 6 0 11 5 11 10 0 6 -2 10 -4 10 -3 0
-8 -4 -11 -10z"/>
<path d="M295 7423 c-52 -6 -76 -13 -70 -22 3 -5 -1 -22 -9 -38 -41 -82 -41
-76 -1 -135 28 -43 35 -62 30 -84 -3 -16 -2 -23 1 -16 7 15 24 16 24 1 0 -6 7
-17 15 -25 8 -9 15 -29 15 -45 0 -17 6 -32 15 -35 11 -5 12 -10 6 -18 -7 -9
-5 -19 5 -35 12 -17 13 -25 4 -36 -10 -12 -10 -18 1 -31 10 -13 10 -17 0 -24
-8 -4 -10 -13 -7 -19 4 -6 -4 -15 -19 -21 -37 -14 -55 -12 -55 5 0 8 -5 15
-11 15 -6 0 -9 7 -5 15 8 22 -26 19 -53 -4 -12 -10 -19 -25 -16 -33 4 -9 -4
-22 -19 -32 -36 -23 -46 -20 -46 13 0 16 -6 32 -12 35 -10 5 -10 7 0 12 33 15
-10 65 -51 57 l-27 -5 30 -35 c34 -38 41 -95 15 -129 -19 -25 -19 -34 3 -34 9
0 26 -7 36 -15 11 -8 32 -15 47 -15 21 0 30 -7 40 -32 7 -18 12 -39 12 -47 -2
-20 50 -62 61 -50 6 5 15 9 20 9 6 0 4 -6 -4 -13 -8 -7 -21 -24 -27 -39 -12
-26 -10 -29 23 -52 23 -16 31 -26 22 -29 -10 -4 -10 -8 2 -16 19 -14 60 -14
60 -1 0 6 11 10 25 10 38 0 30 18 -12 26 -58 10 -68 19 -68 58 l0 35 42 -25
c23 -13 53 -24 67 -24 14 0 28 -5 31 -10 4 -6 35 -24 70 -40 53 -25 77 -30
139 -30 46 0 78 4 82 11 5 9 -7 10 -44 5 -38 -5 -54 -3 -65 9 -9 8 -20 15 -26
15 -6 0 -11 5 -11 12 0 6 -18 29 -41 50 -34 31 -37 38 -20 38 27 0 34 15 19
39 -13 22 -6 37 12 26 6 -4 15 -18 20 -31 6 -14 18 -27 27 -31 10 -3 29 -16
43 -28 14 -13 36 -26 50 -30 24 -7 24 -7 8 12 -10 11 -18 24 -18 29 0 5 -18
19 -40 32 -24 13 -40 30 -40 41 0 23 -31 51 -57 51 -35 0 -66 55 -40 72 8 5 6
8 -5 8 -20 0 -25 20 -5 20 6 1 0 8 -15 16 -21 11 -28 22 -28 44 0 29 1 30 45
28 41 -2 48 -7 87 -55 46 -56 111 -94 162 -95 17 0 38 -4 47 -9 25 -13 99 -28
94 -19 -3 4 -17 11 -32 15 -38 9 -150 73 -174 98 -10 12 -19 28 -19 36 0 9
-16 27 -35 41 -25 19 -32 30 -29 46 4 15 0 23 -15 27 -11 2 -21 1 -23 -3 -5
-15 -73 5 -76 22 -5 24 35 33 57 14 26 -23 34 -20 29 13 -3 20 0 27 8 24 8 -3
9 7 4 39 -5 27 -4 45 2 49 7 4 7 9 0 13 -6 4 -15 -2 -21 -11 -11 -20 -11 -19
-15 17 -2 13 -11 29 -21 35 -10 5 -25 18 -33 27 -14 16 -17 14 -34 -24 -10
-22 -18 -49 -18 -60 0 -31 -21 -16 -39 29 -9 22 -22 48 -30 57 -12 14 -12 19
-2 25 8 5 10 18 5 37 -7 28 -42 94 -50 94 -2 0 -1 -21 2 -47 l5 -48 -16 35
c-9 19 -21 43 -26 52 -12 23 -12 48 0 48 5 0 16 3 25 6 11 4 16 1 16 -11 0 -9
5 -13 10 -10 30 18 -4 62 -45 58z m50 -443 c3 -5 1 -10 -4 -10 -6 0 -11 5 -11
10 0 6 2 10 4 10 3 0 8 -4 11 -10z m-188 -276 c-3 -3 -12 -4 -19 -1 -8 3 -5 6
6 6 11 1 17 -2 13 -5z m323 -44 c0 -5 -4 -10 -10 -10 -5 0 -10 5 -10 10 0 6 5
10 10 10 6 0 10 -4 10 -10z"/>
<path d="M5260 7395 c-7 -9 -11 -17 -8 -20 2 -2 12 4 21 15 9 11 13 20 8 20
-5 0 -14 -7 -21 -15z"/>
<path d="M0 7136 c0 -8 7 -16 15 -20 13 -4 14 -2 5 14 -13 23 -20 26 -20 6z"/>
<path d="M84 7096 c-24 -18 -12 -32 36 -41 46 -8 81 14 61 39 -17 20 -71 21
-97 2z"/>
<path d="M4976 7065 c-9 -26 -7 -32 5 -12 6 10 9 21 6 23 -2 3 -7 -2 -11 -11z"/>
<path d="M4895 6930 c-3 -5 -1 -10 4 -10 6 0 11 5 11 10 0 6 -2 10 -4 10 -3 0
-8 -4 -11 -10z"/>
<path d="M190 6910 c0 -5 5 -10 10 -10 6 0 10 5 10 10 0 6 -4 10 -10 10 -5 0
-10 -4 -10 -10z"/>
<path d="M4857 6838 c-32 -69 -57 -135 -57 -151 1 -10 35 66 80 181 17 42 2
22 -23 -30z"/>
<path d="M520 6840 c0 -5 5 -10 11 -10 5 0 7 5 4 10 -3 6 -8 10 -11 10 -2 0
-4 -4 -4 -10z"/>
<path d="M4786 6655 c-9 -26 -7 -32 5 -12 6 10 9 21 6 23 -2 3 -7 -2 -11 -11z"/>
<path d="M4750 6550 c-12 -39 -21 -73 -18 -75 2 -3 14 27 27 66 12 39 21 73
18 75 -2 3 -15 -27 -27 -66z"/>
<path d="M28 6523 c-3 -12 -3 -37 1 -55 7 -31 8 -31 12 -8 3 14 2 39 -1 55 -5
27 -6 28 -12 8z"/>
<path d="M4001 6373 c1 -70 4 -191 8 -268 6 -135 7 -140 29 -143 22 -3 22 -1
22 96 0 67 -5 109 -14 127 -17 33 -21 212 -5 231 11 13 -1 46 -28 72 -11 11
-13 -8 -12 -115z"/>
<path d="M760 6460 c27 -21 40 -25 40 -12 0 9 -44 32 -58 32 -4 0 4 -9 18 -20z"/>
<path d="M445 6440 c-18 -8 -17 -9 7 -9 15 -1 30 4 33 9 7 12 -12 12 -40 0z"/>
<path d="M4701 6399 c-7 -22 -11 -43 -8 -45 2 -2 9 14 16 37 7 22 11 43 8 45
-2 2 -9 -14 -16 -37z"/>
<path d="M840 6405 c0 -8 65 -35 82 -35 7 1 2 7 -12 14 -33 18 -70 29 -70 21z"/>
<path d="M4060 6301 c0 -50 5 -93 10 -96 15 -9 120 6 120 17 0 10 -18 35 -71
101 -14 18 -28 40 -32 50 -16 43 -27 12 -27 -72z"/>
<path d="M970 6325 c7 -8 16 -12 21 -9 13 8 1 24 -18 24 -13 0 -13 -3 -3 -15z"/>
<path d="M4672 6334 c6 -5 -1 -35 -18 -79 -6 -17 -4 -17 14 4 12 13 19 27 17
31 -3 5 0 10 6 12 13 4 1 38 -14 38 -6 0 -8 -3 -5 -6z"/>
<path d="M1050 6280 c0 -5 5 -10 10 -10 6 0 10 5 10 10 0 6 -4 10 -10 10 -5 0
-10 -4 -10 -10z"/>
<path d="M4632 6193 c-6 -20 -7 -32 -2 -27 10 10 25 64 18 64 -3 0 -10 -16
-16 -37z"/>
<path d="M0 6038 c0 -131 3 -188 11 -188 6 0 9 -7 5 -15 -3 -8 0 -15 7 -15 7
-1 5 -6 -5 -14 -21 -16 -22 -29 -6 -59 13 -25 11 -86 -4 -104 -19 -24 1 -13
29 15 16 15 40 50 55 77 14 28 34 64 44 82 19 32 13 56 -8 35 -14 -14 -58 -16
-58 -2 0 5 10 14 23 21 12 6 38 27 58 46 l36 34 7 -47 c10 -79 7 -187 -9 -238
-17 -56 -14 -73 4 -24 7 18 17 40 21 49 5 10 10 43 11 75 2 56 10 94 29 139
23 55 18 127 -8 111 -12 -7 -42 3 -42 14 0 17 -44 83 -48 72 -4 -14 -32 -16
-32 -3 0 6 4 13 10 16 10 6 -18 75 -31 75 -4 0 -11 -10 -15 -22 l-7 -23 -8 23
c-5 12 -17 22 -28 22 -11 0 -25 8 -30 18 -7 12 -10 -38 -11 -170z m120 102 c0
-5 -7 -10 -16 -10 -8 0 -12 5 -9 10 3 6 10 10 16 10 5 0 9 -4 9 -10z m14 -104
c-3 -9 -13 -16 -22 -16 -13 0 -12 3 3 20 20 23 29 21 19 -4z m-105 -69 c0 -21
-1 -21 -9 -2 -12 28 -12 37 0 30 6 -3 10 -16 9 -28z"/>
<path d="M4596 6095 c-3 -9 -6 -22 -5 -28 0 -7 5 -1 10 12 5 13 8 26 5 28 -2
2 -6 -3 -10 -12z"/>
<path d="M4571 6019 c-6 -18 -11 -37 -10 -43 0 -6 7 7 15 28 8 22 12 41 10 43
-2 2 -9 -10 -15 -28z"/>
<path d="M4542 5931 c-6 -17 -9 -31 -6 -31 7 0 25 52 20 57 -2 2 -8 -10 -14
-26z"/>
<path d="M3916 5922 c13 -12 153 -37 161 -29 3 4 -5 7 -18 7 -13 0 -46 7 -73
15 -55 17 -85 20 -70 7z"/>
<path d="M4512 5841 c-7 -19 -10 -36 -7 -39 6 -7 26 49 22 62 -2 6 -9 -5 -15
-23z"/>
<path d="M4486 5775 c-9 -26 -7 -32 5 -12 6 10 9 21 6 23 -2 3 -7 -2 -11 -11z"/>
<path d="M4757 5739 c-8 -13 -18 -45 -22 -72 -6 -43 -4 -48 17 -56 22 -9 20
-12 -12 -15 -11 -1 -17 -21 -23 -75 -8 -71 -7 -76 16 -99 l24 -24 42 22 c23
11 60 37 81 57 33 29 39 40 34 60 -4 16 -2 28 7 33 10 7 10 11 0 23 -7 9 -11
21 -10 29 5 37 -2 68 -15 68 -8 0 -28 11 -44 25 -17 14 -36 25 -44 25 -8 0
-19 5 -25 11 -8 8 -15 5 -26 -12z m63 -39 c0 -5 -2 -10 -4 -10 -3 0 -8 5 -11
10 -3 6 -1 10 4 10 6 0 11 -4 11 -10z m49 -118 c12 -47 11 -56 -2 -69 -9 -9
-23 -13 -32 -9 -15 5 -16 15 -10 69 11 98 22 100 44 9z"/>
<path d="M4041 5734 c3 -5 13 -32 24 -60 17 -47 22 -52 60 -61 l41 -9 2 57 c1
32 -2 60 -6 63 -17 10 -125 19 -121 10z m80 -66 c-4 -35 -6 -38 -9 -15 -3 26
3 57 10 57 2 0 1 -19 -1 -42z"/>
<path d="M4467 5723 c-3 -4 -9 -24 -15 -43 -5 -19 -13 -43 -17 -52 -4 -10 -3
-18 2 -18 5 0 17 26 26 57 14 53 16 76 4 56z"/>
<path d="M4530 5657 c0 -8 6 -14 14 -14 8 0 12 6 9 14 -3 7 -9 13 -14 13 -5 0
-9 -6 -9 -13z"/>
<path d="M1604 5525 c-8 -45 14 -80 62 -100 55 -23 63 -18 24 16 -23 20 -30
33 -22 38 8 4 3 13 -13 25 -14 10 -25 27 -25 37 0 33 -19 21 -26 -16z"/>
<path d="M3610 5533 c0 -13 5 -23 10 -23 13 0 13 11 0 30 -8 12 -10 11 -10 -7z"/>
<path d="M137 5492 c-23 -57 -22 -75 4 -33 11 18 19 43 17 55 -2 16 -7 12 -21
-22z"/>
<path d="M4167 5483 c-5 -26 -4 -26 9 -8 16 22 18 35 5 35 -5 0 -11 -12 -14
-27z"/>
<path d="M4650 5480 c0 -5 5 -10 10 -10 6 0 10 5 10 10 0 6 -4 10 -10 10 -5 0
-10 -4 -10 -10z"/>
<path d="M4141 5419 c-6 -18 -9 -34 -7 -36 2 -2 9 10 15 28 6 18 9 34 7 36 -2
2 -9 -10 -15 -28z"/>
<path d="M4870 5410 c0 -5 7 -7 15 -4 8 4 15 8 15 10 0 2 -7 4 -15 4 -8 0 -15
-4 -15 -10z"/>
<path d="M4940 5350 c-14 -11 -21 -20 -17 -20 5 0 20 9 34 20 14 11 22 20 17
20 -5 0 -20 -9 -34 -20z"/>
<path d="M90 5345 c-7 -9 -10 -18 -7 -21 3 -3 10 4 17 15 13 25 8 27 -10 6z"/>
<path d="M4337 5345 c-8 -8 -17 -11 -21 -8 -3 4 -6 1 -6 -6 0 -6 -9 -21 -20
-33 -11 -12 -17 -24 -15 -27 5 -5 18 8 69 67 21 24 16 30 -7 7z"/>
<path d="M2385 5310 c3 -5 8 -10 11 -10 2 0 4 5 4 10 0 6 -5 10 -11 10 -5 0
-7 -4 -4 -10z"/>
<path d="M2412 5300 c0 -14 2 -19 5 -12 2 6 2 18 0 25 -3 6 -5 1 -5 -13z"/>
<path d="M4885 5299 c-33 -21 -50 -25 -40 -9 3 6 2 10 -4 10 -14 0 -21 -14
-13 -26 10 -15 42 -25 42 -14 0 6 5 10 10 10 6 0 10 -7 10 -15 0 -21 19 -19
26 3 3 9 10 25 15 34 5 10 9 20 9 23 0 10 -26 3 -55 -16z"/>
<path d="M2360 5270 c0 -14 6 -20 23 -19 18 1 18 2 4 6 -11 3 -16 11 -13 19 3
8 1 14 -4 14 -6 0 -10 -9 -10 -20z"/>
<path d="M2055 5260 c-5 -8 -28 -10 -69 -6 l-61 5 40 -14 c22 -7 63 -14 91
-14 28 -1 70 -8 93 -16 62 -21 204 -41 261 -35 25 3 178 -5 395 -19 66 -5 129
-9 140 -9 11 0 55 -4 98 -8 50 -4 77 -3 77 3 0 6 -47 13 -112 17 -62 4 -158
11 -213 16 -55 5 -145 12 -200 15 -199 11 -461 46 -516 69 -10 4 -20 2 -24 -4z"/>
<path d="M4048 5193 c7 -3 16 -2 19 1 4 3 -2 6 -13 5 -11 0 -14 -3 -6 -6z"/>
<path d="M3935 5180 l-40 -7 40 0 c22 -1 54 3 70 7 l30 8 -30 -1 c-16 0 -48
-3 -70 -7z"/>
<path d="M3845 5170 c-3 -5 -2 -10 4 -10 5 0 13 5 16 10 3 6 2 10 -4 10 -5 0
-13 -4 -16 -10z"/>
<path d="M1970 5130 c0 -5 5 -10 10 -10 6 0 10 5 10 10 0 6 -4 10 -10 10 -5 0
-10 -4 -10 -10z"/>
<path d="M2010 5120 c0 -5 9 -10 21 -10 11 0 17 5 14 10 -3 6 -13 10 -21 10
-8 0 -14 -4 -14 -10z"/>
<path d="M2111 5076 c-9 -10 -8 -15 3 -19 16 -6 40 16 29 26 -10 11 -19 8 -32
-7z"/>
<path d="M2021 4934 c0 -11 3 -14 6 -6 3 7 2 16 -1 19 -3 4 -6 -2 -5 -13z"/>
<path d="M1576 4633 c-43 -45 -109 -173 -104 -202 3 -21 4 -21 30 4 32 29 50
32 42 8 -3 -10 8 -2 24 16 29 35 30 35 70 22 39 -13 40 -15 35 -50 -3 -20 -11
-43 -18 -51 -17 -21 -28 -50 -30 -82 -2 -15 -10 -34 -19 -43 -9 -9 -16 -22
-16 -28 -1 -60 -24 -158 -45 -189 l-25 -37 43 -6 c23 -4 55 -2 70 4 16 6 39
11 51 11 13 0 45 17 72 37 27 20 50 37 52 39 4 3 -24 184 -39 256 -7 32 -20
55 -40 72 -16 14 -29 34 -29 45 0 11 -9 25 -20 31 -11 6 -18 15 -15 21 4 5 1
9 -4 9 -14 0 -14 37 -1 45 5 3 9 17 8 30 -2 20 -6 23 -27 18 -20 -5 -23 -3
-18 11 9 22 -9 21 -25 -2 -14 -19 -38 -37 -38 -28 0 3 14 19 31 37 17 17 28
33 26 36 -3 2 -21 -13 -41 -34z m111 -305 c-3 -8 -6 -5 -6 6 -1 11 2 17 5 13
3 -3 4 -12 1 -19z m-7 -58 c0 -5 -5 -10 -11 -10 -5 0 -7 5 -4 10 3 6 8 10 11
10 2 0 4 -4 4 -10z"/>
<path d="M2168 4633 c6 -2 18 -2 25 0 6 3 1 5 -13 5 -14 0 -19 -2 -12 -5z"/>
<path d="M2640 4497 c0 -9 149 -38 177 -35 17 2 -4 8 -51 16 -43 7 -89 15
-102 18 -13 3 -24 4 -24 1z"/>
<path d="M2978 4443 c7 -3 16 -2 19 1 4 3 -2 6 -13 5 -11 0 -14 -3 -6 -6z"/>
<path d="M3058 4443 c6 -2 18 -2 25 0 6 3 1 5 -13 5 -14 0 -19 -2 -12 -5z"/>
<path d="M1500 4406 c-5 -5 -10 -17 -10 -25 0 -14 1 -14 10 -1 7 11 10 12 10
2 0 -10 3 -10 15 2 8 8 15 19 15 24 0 12 -27 11 -40 -2z"/>
<path d="M7316 4374 c-4 -10 -1 -14 6 -12 15 5 23 28 10 28 -5 0 -13 -7 -16
-16z"/>
<path d="M7238 4343 c7 -3 16 -2 19 1 4 3 -2 6 -13 5 -11 0 -14 -3 -6 -6z"/>
<path d="M7235 4310 c-8 -13 5 -13 25 0 13 8 13 10 -2 10 -9 0 -20 -4 -23 -10z"/>
<path d="M7160 4200 c0 -5 6 -10 14 -10 8 0 18 5 21 10 3 6 -3 10 -14 10 -12
0 -21 -4 -21 -10z"/>
<path d="M7080 4179 c0 -5 -9 -9 -20 -9 -11 0 -20 -4 -20 -10 0 -5 9 -10 20
-10 11 0 20 4 20 9 0 5 10 11 23 13 l22 3 -22 7 c-13 3 -23 2 -23 -3z"/>
<path d="M6789 3978 c-3 -15 -6 -68 -3 -65 11 11 22 67 13 67 -5 0 -9 -1 -10
-2z"/>
<path d="M1725 3811 c-50 -23 -105 -69 -105 -87 0 -8 -4 -14 -8 -14 -8 0 -42
-53 -42 -65 0 -4 9 3 21 16 15 17 19 19 15 7 -3 -10 0 -18 6 -18 7 0 9 -30 6
-98 -3 -54 -1 -108 3 -119 5 -15 3 -23 -7 -27 -8 -3 -14 -12 -14 -19 0 -10 13
-15 43 -15 85 0 183 -8 195 -16 7 -4 16 -5 19 -2 4 3 14 -1 24 -10 11 -10 19
-12 24 -5 3 6 15 11 25 11 10 0 21 4 24 9 8 12 -10 114 -50 279 -19 81 -37
156 -39 168 -4 17 -13 21 -52 22 -29 1 -64 -6 -88 -17z m-55 -116 c0 -15 -18
-1 -29 23 l-13 27 21 -22 c12 -12 21 -25 21 -28z m-16 -31 c5 -14 4 -15 -9 -4
-17 14 -19 20 -6 20 5 0 12 -7 15 -16z"/>
<path d="M5030 3665 c0 -8 4 -15 10 -15 5 0 7 7 4 15 -4 8 -8 15 -10 15 -2 0
-4 -7 -4 -15z"/>
<path d="M1560 3614 c0 -10 5 -26 10 -34 8 -11 9 -7 4 15 -8 37 -14 45 -14 19z"/>
<path d="M1591 3594 c0 -11 3 -14 6 -6 3 7 2 16 -1 19 -3 4 -6 -2 -5 -13z"/>
<path d="M1542 3538 c-6 -23 -9 -44 -7 -46 2 -2 9 15 15 38 6 23 9 44 7 46 -2
3 -9 -14 -15 -38z"/>
<path d="M4786 3492 c-3 -5 -8 -33 -12 -63 -5 -42 -4 -51 5 -43 7 6 13 32 14
57 1 25 6 43 11 40 5 -4 6 -1 2 5 -8 14 -13 15 -20 4z"/>
<path d="M2350 3421 c0 -5 7 -12 16 -15 14 -5 15 -4 4 9 -14 17 -20 19 -20 6z"/>
<path d="M2391 3374 c0 -11 3 -14 6 -6 3 7 2 16 -1 19 -3 4 -6 -2 -5 -13z"/>
<path d="M2416 3345 c4 -8 10 -15 15 -15 4 0 6 7 3 15 -4 8 -10 15 -15 15 -4
0 -6 -7 -3 -15z"/>
<path d="M1577 3272 c1 -42 -1 -68 -4 -57 -3 11 -10 23 -17 27 -8 6 -7 8 2 8
6 0 12 8 11 18 0 9 -3 12 -5 5 -3 -7 -11 -10 -18 -7 -10 4 -15 -14 -19 -68 -7
-91 12 -196 33 -183 4 3 7 -1 6 -8 -1 -17 46 -70 121 -134 33 -29 63 -62 66
-73 3 -11 2 -18 -2 -15 -9 5 -54 -40 -69 -70 -16 -31 -27 -145 -14 -145 15 0
53 56 44 64 -13 13 -10 66 3 66 7 0 15 7 19 15 3 8 1 15 -4 15 -6 0 -10 -5
-10 -11 0 -5 -5 -7 -11 -4 -7 5 -4 14 7 26 26 29 36 9 26 -55 -6 -35 -5 -59 0
-63 6 -3 7 -18 4 -34 -3 -15 -1 -31 4 -34 6 -3 10 -28 10 -56 0 -27 5 -49 10
-49 6 0 10 -8 10 -19 0 -10 9 -21 20 -24 11 -3 20 -13 20 -23 0 -9 8 -35 17
-56 14 -31 21 -37 37 -32 16 4 17 3 7 -4 -11 -8 -8 -13 13 -27 25 -16 25 -19
11 -35 -11 -12 -12 -19 -5 -22 17 -5 0 -38 -20 -38 -21 0 -32 -23 -23 -47 5
-11 3 -14 -6 -8 -8 4 -16 2 -21 -5 -5 -8 -9 -7 -13 4 -4 11 -1 16 11 17 13 0
12 2 -5 9 -16 7 -23 21 -29 56 -6 41 -8 45 -19 30 -10 -13 -14 -14 -19 -4 -3
7 -3 -3 1 -22 3 -19 7 -53 8 -75 4 -67 35 -149 75 -194 20 -22 41 -41 47 -41
15 0 54 -58 43 -65 -6 -3 -10 -1 -10 6 0 7 -3 9 -7 5 -5 -4 0 -13 10 -21 15
-11 15 -13 2 -18 -15 -7 -10 -35 9 -50 8 -6 7 -10 -1 -14 -10 -4 -10 -8 0 -18
17 -16 10 -74 -9 -82 -8 -3 -14 -13 -14 -23 0 -10 -5 -20 -11 -22 -7 -2 -8
-20 -4 -51 4 -26 11 -45 15 -42 5 3 6 -3 4 -12 -2 -10 15 -47 38 -83 l42 -65
7 50 c7 63 16 83 41 96 21 11 37 -1 38 -27 0 -6 16 -38 35 -69 19 -32 37 -66
40 -76 4 -11 12 -16 22 -12 12 5 14 1 8 -16 -5 -16 2 -29 32 -57 21 -20 43
-48 50 -62 8 -18 12 -21 12 -10 1 10 7 15 14 12 31 -12 77 81 77 154 -1 74
-15 110 -77 202 -41 61 -52 86 -57 131 l-6 57 38 -9 c96 -24 99 -23 52 36 -16
20 -35 52 -42 71 -13 38 -22 42 -37 17 -9 -16 -11 -16 -28 -2 -10 9 -23 14
-30 12 -6 -2 -14 12 -18 36 -4 25 -12 41 -21 41 -8 0 -14 5 -14 11 0 7 12 9
35 5 22 -4 35 -3 35 4 0 9 -28 15 -59 11 -7 -2 -11 4 -9 11 3 8 21 13 45 13
23 0 45 4 50 9 5 5 1 7 -9 3 -10 -3 -20 -2 -23 3 -4 6 3 10 15 10 16 0 20 4
15 19 -3 12 0 21 10 25 13 5 13 8 -5 26 -11 11 -25 20 -31 20 -5 0 -8 4 -4 10
8 13 90 6 109 -9 25 -21 19 -37 -24 -56 -41 -18 -54 -45 -22 -45 9 0 28 -3 42
-7 l25 -6 -24 20 -24 20 32 11 c18 6 30 16 26 22 -5 9 2 12 25 12 3 1 17 -2
33 -6 18 -4 26 -3 25 5 -2 6 13 13 33 15 34 4 36 3 49 -38 7 -24 16 -52 21
-63 15 -36 18 -123 4 -135 -7 -6 -11 -20 -8 -30 6 -24 23 -27 23 -5 0 9 6 26
14 38 52 80 10 260 -82 352 -22 23 -84 60 -157 96 -66 32 -114 58 -107 59 6 0
12 5 12 10 0 13 -27 13 -32 0 -2 -7 -13 -6 -30 2 -31 15 -49 65 -28 78 9 5 11
23 8 54 -3 25 -2 46 3 46 8 0 13 -26 13 -72 0 -9 4 -14 9 -11 5 3 8 -13 6 -39
-4 -39 -2 -44 14 -40 12 3 17 15 17 43 0 22 -5 39 -10 39 -7 0 -7 7 0 21 6 11
9 33 5 48 -4 21 -2 30 9 34 23 9 20 37 -3 37 -11 0 -23 5 -27 11 -3 6 -15 9
-25 6 -11 -3 -19 -1 -19 4 0 5 -4 9 -9 9 -8 0 -61 30 -228 130 -78 46 -140
121 -149 176 -16 108 22 216 88 250 37 19 103 4 111 -26 3 -11 10 -20 15 -20
6 0 8 9 5 20 -5 19 11 29 19 12 6 -15 125 -112 137 -112 6 0 15 -8 18 -17 9
-25 19 -33 93 -83 36 -24 67 -47 68 -52 2 -4 7 -8 11 -8 11 0 -5 131 -22 177
-9 23 -24 54 -34 70 -25 38 -91 101 -114 108 -10 4 -19 13 -19 22 0 10 -6 14
-20 10 -11 -3 -20 -2 -20 3 0 4 -11 11 -25 14 -14 4 -23 11 -20 16 3 6 -4 10
-17 10 -13 0 -28 4 -34 9 -5 5 -21 7 -36 4 -22 -4 -29 -13 -35 -42 -4 -20 -6
-42 -5 -48 2 -7 -2 -13 -8 -13 -5 0 -10 4 -10 9 0 5 -7 12 -16 15 -8 3 -13 2
-10 -3 8 -12 -72 -3 -101 11 -16 8 -26 8 -37 -1 -8 -7 -20 -11 -28 -10 -29 3
-37 -2 -40 -28 -2 -21 -9 -27 -30 -27 -22 -1 -27 3 -32 34 -3 19 -6 49 -6 65
0 17 -4 35 -8 42 -4 6 -6 -23 -5 -65z m588 -162 c3 -5 -3 -10 -14 -10 -12 0
-21 5 -21 10 0 6 6 10 14 10 8 0 18 -4 21 -10z m-488 -512 c-3 -8 -6 -5 -6 6
-1 11 2 17 5 13 3 -3 4 -12 1 -19z m434 -35 c0 -16 3 -22 6 -15 2 6 9 12 14
12 6 0 6 -8 -1 -19 -5 -11 -10 -30 -11 -43 0 -17 -22 50 -29 90 0 1 5 2 10 2
6 0 10 -12 11 -27z m75 9 c-10 -2 -22 0 -28 6 -6 6 0 7 19 4 21 -5 23 -7 9
-10z m254 -472 c0 -5 -5 -10 -11 -10 -5 0 -7 5 -4 10 3 6 8 10 11 10 2 0 4 -4
4 -10z m-40 -10 c0 -5 -4 -10 -9 -10 -6 0 -13 5 -16 10 -3 6 1 10 9 10 9 0 16
-4 16 -10z m-134 -760 c19 0 24 -5 24 -25 0 -14 -7 -28 -15 -31 -8 -4 -15 -14
-15 -23 0 -10 -6 -18 -13 -18 -8 0 -13 19 -13 61 -1 34 1 55 3 49 3 -7 16 -13
29 -13z"/>
<path d="M2425 3300 c-3 -5 -3 -14 -1 -22 3 -7 7 -38 10 -68 2 -31 7 -67 11
-82 4 -16 2 -29 -5 -33 -9 -6 -9 -10 1 -16 11 -7 12 -12 2 -28 -10 -15 -9 -22
1 -30 7 -6 16 -37 19 -69 4 -41 12 -62 27 -74 17 -14 50 -104 50 -138 0 -5
-13 -7 -30 -5 -23 3 -30 0 -30 -13 0 -9 -3 -28 -6 -42 -4 -18 -3 -21 4 -11 8
11 12 10 21 -7 6 -11 11 -27 11 -36 0 -8 4 -16 9 -18 5 -1 12 -30 15 -62 4
-33 12 -66 18 -74 9 -10 9 -15 -2 -22 -18 -11 -17 -69 1 -81 10 -6 10 -9 2 -9
-7 0 -13 -7 -13 -15 0 -8 5 -15 11 -15 8 0 8 -4 2 -12 -14 -18 0 -137 16 -147
7 -5 11 -15 9 -22 -3 -8 1 -19 8 -26 17 -17 27 -16 21 2 -4 8 -2 17 3 20 5 3
11 -4 15 -15 13 -42 25 -17 26 55 2 104 2 115 -1 118 -1 1 -3 31 -4 67 -1 36
-5 71 -10 79 -5 8 -4 16 4 21 9 6 9 13 1 28 -14 26 -14 42 0 22 8 -11 8 -9 3
10 -5 14 -7 38 -6 53 1 22 -2 27 -13 23 -12 -4 -15 3 -13 37 2 23 7 45 12 49
6 4 5 13 -3 22 -9 10 -11 29 -6 56 4 26 3 46 -5 54 -6 8 -12 33 -13 55 -1 23
-5 41 -10 41 -4 0 -7 10 -5 23 2 24 -7 96 -23 169 -13 56 -62 161 -72 152 -4
-4 -7 -1 -7 7 0 16 -47 41 -55 29z"/>
<path d="M3375 3270 c-3 -5 -1 -10 4 -10 6 0 11 5 11 10 0 6 -2 10 -4 10 -3 0
-8 -4 -11 -10z"/>
<path d="M3324 3178 c-10 -18 -19 -27 -21 -20 -7 18 -23 15 -23 -4 0 -9 -8
-23 -17 -30 -17 -13 -17 -13 0 -14 14 0 17 -5 12 -21 -4 -11 -2 -49 5 -84 11
-56 9 -72 -10 -150 -12 -47 -18 -94 -15 -103 8 -19 19 8 35 88 15 75 58 242
75 290 l16 45 -26 -29 c-14 -16 -25 -39 -25 -50 0 -12 -5 -28 -11 -36 -13 -20
-1 56 14 85 14 27 33 45 41 38 3 -4 6 1 6 10 0 30 -38 19 -56 -15z"/>
<path d="M3680 3155 c0 -22 -22 -28 -54 -15 -25 9 -27 8 -21 -12 4 -16 3 -19
-3 -10 -15 22 -75 11 -78 -13 -1 -11 -9 -46 -17 -77 -9 -31 -13 -65 -10 -76 2
-11 0 -22 -5 -26 -14 -9 -22 32 -16 87 3 28 1 47 -5 47 -14 0 -25 -39 -22 -82
1 -21 -2 -38 -8 -38 -6 0 -10 -33 -9 -87 0 -87 0 -87 19 -64 10 12 23 20 29
16 8 -5 7 -11 -1 -21 -9 -11 -8 -14 2 -14 10 0 10 -3 1 -12 -7 -7 -12 -18 -12
-25 0 -19 37 -16 49 5 8 14 12 15 22 5 11 -11 10 -13 -3 -13 -12 0 -16 -12
-17 -51 0 -37 -6 -55 -18 -65 -17 -13 -17 -13 0 -14 12 0 17 -8 17 -29 0 -20
-6 -31 -17 -34 -13 -3 -11 -5 6 -6 22 -1 23 -4 18 -38 -4 -21 -11 -39 -17 -41
-13 -5 -13 -28 1 -50 16 -25 -2 -78 -25 -76 -9 1 -16 -3 -16 -10 0 -6 -3 -21
-6 -33 -4 -14 -2 -23 5 -23 6 0 11 7 11 15 0 8 7 15 16 15 11 0 14 -6 9 -21
-4 -12 -3 -24 3 -28 5 -3 13 -17 17 -31 l8 -25 -21 25 c-17 20 -23 23 -33 13
-10 -10 -10 -13 -1 -13 7 0 12 -7 12 -15 0 -8 6 -25 13 -36 10 -17 10 -23 0
-26 -18 -6 -16 -33 2 -33 11 0 12 -5 5 -25 -7 -19 -6 -25 5 -25 10 0 12 -9 8
-37 -8 -51 -17 -59 -49 -44 -15 6 -29 9 -32 6 -3 -3 -1 -5 5 -5 6 0 11 -6 10
-12 -1 -39 5 -58 18 -58 8 0 14 8 12 18 -1 9 3 18 8 20 6 1 10 -9 10 -23 1
-17 -4 -25 -16 -25 -9 0 -19 -9 -22 -21 -4 -13 -1 -18 6 -15 7 3 20 9 29 12
10 4 23 24 30 46 l12 40 18 -24 18 -23 0 22 c0 12 9 39 21 59 14 26 17 40 10
47 -8 8 -11 6 -11 -6 0 -34 -28 -17 -34 21 -11 66 4 182 24 182 10 0 22 -31
15 -38 -3 -3 -5 0 -5 6 0 7 -4 12 -10 12 -9 0 -4 -150 6 -159 8 -9 21 14 27
47 5 24 3 32 -8 32 -8 0 -15 7 -15 15 0 11 5 12 25 5 28 -11 29 -8 16 37 -11
38 5 68 28 54 12 -8 13 -14 2 -37 -10 -22 -10 -30 1 -40 11 -11 13 -4 12 39
-1 78 -2 81 -18 68 -18 -15 -26 -3 -22 35 3 28 36 49 36 23 0 -10 3 -10 12 -1
9 9 9 15 0 24 -14 14 -16 42 -3 34 5 -3 12 1 15 10 9 24 7 62 -4 69 -6 3 -7
17 -4 29 4 16 0 25 -12 30 -15 6 -15 8 -2 19 28 22 36 87 42 357 3 104 0 170
-6 178 -7 8 -7 12 1 12 7 0 9 5 6 10 -4 6 -11 7 -17 4 -7 -4 -8 -2 -4 4 8 14
-3 62 -15 62 -5 0 -9 -7 -9 -15z m-107 -72 c-7 -2 -19 -2 -25 0 -7 3 -2 5 12
5 14 0 19 -2 13 -5z m-23 -413 c0 -11 -4 -20 -10 -20 -5 0 -10 9 -10 20 0 11
5 20 10 20 6 0 10 -9 10 -20z m16 -63 c-3 -22 -6 -23 -29 -13 -9 5 -9 7 1 12
6 3 12 12 12 20 0 9 4 12 10 9 5 -3 8 -16 6 -28z m14 -77 c0 -24 -6 -25 -25
-6 -15 15 -10 26 12 26 7 0 13 -9 13 -20z m-2 -183 c3 -51 1 -57 -17 -57 -10
0 -21 -6 -24 -12 -2 -8 -8 -9 -13 -4 -5 5 -4 11 4 13 7 3 12 24 12 57 0 29 3
56 7 60 17 16 28 -5 31 -57z"/>
<path d="M3397 3143 c-11 -17 -36 -97 -32 -101 9 -10 25 12 25 34 0 14 5 34
11 46 10 19 6 38 -4 21z"/>
<path d="M3440 3100 c0 -5 14 -10 31 -10 17 0 28 4 24 10 -3 6 -17 10 -31 10
-13 0 -24 -4 -24 -10z"/>
<path d="M1805 3070 c-3 -5 -1 -10 4 -10 6 0 11 5 11 10 0 6 -2 10 -4 10 -3 0
-8 -4 -11 -10z"/>
<path d="M3236 3072 c-2 -4 -1 -14 5 -22 7 -12 9 -10 9 8 0 23 -5 28 -14 14z"/>
<path d="M3171 3024 c0 -11 3 -14 6 -6 3 7 2 16 -1 19 -3 4 -6 -2 -5 -13z"/>
<path d="M4313 3028 c-8 -9 -7 -17 3 -26 12 -11 15 -10 20 3 9 22 -10 40 -23
23z"/>
<path d="M3356 3014 c-9 -22 -8 -24 9 -24 8 0 15 6 15 14 0 22 -17 28 -24 10z"/>
<path d="M3242 2980 c0 -19 2 -27 5 -17 2 9 2 25 0 35 -3 9 -5 1 -5 -18z"/>
<path d="M1750 2986 c0 -7 6 -19 14 -25 7 -6 16 -24 19 -39 3 -16 28 -51 55
-78 68 -68 82 -79 122 -98 l35 -17 -27 24 c-15 14 -33 27 -40 30 -10 4 -10 8
2 16 13 10 13 11 0 12 -8 1 -21 1 -27 0 -7 -1 -13 3 -13 9 0 5 5 10 10 10 6 0
10 5 10 11 0 8 -5 7 -15 -1 -11 -9 -19 -10 -27 -2 -14 14 -1 32 23 32 26 0 24
17 -3 23 -13 4 -32 13 -43 22 -11 9 -15 14 -8 11 6 -4 14 -2 17 3 3 5 -4 11
-15 14 -11 3 -23 15 -26 26 -4 17 -8 19 -19 10 -11 -9 -15 -8 -20 5 -8 20 -24
21 -24 2z m70 -56 c0 -5 -2 -10 -4 -10 -3 0 -8 5 -11 10 -3 6 -1 10 4 10 6 0
11 -4 11 -10z m30 -44 c0 -3 -4 -8 -10 -11 -5 -3 -10 -1 -10 4 0 6 5 11 10 11
6 0 10 -2 10 -4z"/>
<path d="M3350 2960 c0 -19 3 -21 12 -12 9 9 9 15 0 24 -9 9 -12 7 -12 -12z"/>
<path d="M4665 2933 c-10 -21 -22 -46 -27 -56 -5 -10 -6 -22 -3 -27 3 -5 2
-26 -4 -45 -6 -21 -6 -37 0 -41 5 -3 9 3 9 12 0 20 38 150 51 177 5 9 5 17 1
17 -5 0 -17 -17 -27 -37z"/>
<path d="M4323 2938 c4 -10 0 -35 -7 -57 -8 -21 -14 -45 -13 -52 1 -8 -2 -30
-7 -50 -8 -39 7 -85 25 -74 5 4 9 33 9 65 0 33 5 80 12 105 11 40 10 47 -6 63
-18 16 -18 16 -13 0z"/>
<path d="M3341 2884 c0 -11 3 -14 6 -6 3 7 2 16 -1 19 -3 4 -6 -2 -5 -13z"/>
<path d="M2486 2810 c8 -43 14 -51 14 -19 0 13 -5 31 -10 39 -7 11 -8 5 -4
-20z"/>
<path d="M4602 2673 c-11 -77 -8 -94 7 -37 19 77 23 104 13 104 -5 0 -14 -30
-20 -67z"/>
<path d="M3240 2719 c0 -5 5 -7 10 -4 6 3 10 8 10 11 0 2 -4 4 -10 4 -5 0 -10
-5 -10 -11z"/>
<path d="M1672 2530 c0 -14 2 -19 5 -12 2 6 2 18 0 25 -3 6 -5 1 -5 -13z"/>
<path d="M2141 2384 c0 -11 3 -14 6 -6 3 7 2 16 -1 19 -3 4 -6 -2 -5 -13z"/>
<path d="M1742 2295 c0 -16 2 -22 5 -12 2 9 2 23 0 30 -3 6 -5 -1 -5 -18z"/>
<path d="M3680 2303 c0 -5 5 -15 10 -23 8 -12 10 -11 10 8 0 12 -4 22 -10 22
-5 0 -10 -3 -10 -7z"/>
<path d="M4617 2143 c-4 -21 -9 -72 -12 -113 -4 -67 -3 -71 7 -40 7 19 19 42
28 50 9 8 19 22 23 30 4 8 12 23 19 32 10 15 8 22 -17 48 -16 16 -32 30 -36
30 -3 0 -9 -17 -12 -37z"/>
<path d="M3691 2100 c-6 -98 -5 -138 1 -134 4 2 9 -8 11 -23 3 -23 4 -22 3 4
-1 18 3 34 9 36 6 2 5 10 -3 20 -8 9 -12 20 -9 24 2 4 1 31 -3 58 -6 44 -8 46
-9 15z"/>
<path d="M2236 2077 c3 -10 9 -15 12 -12 3 3 0 11 -7 18 -10 9 -11 8 -5 -6z"/>
<path d="M2612 1980 c2 -74 7 -113 15 -118 16 -10 17 -41 6 -107 -4 -27 -7
-57 -7 -65 1 -8 2 -23 3 -33 1 -11 6 -15 12 -11 14 8 29 -14 29 -44 0 -13 7
-30 15 -38 14 -14 19 -11 16 9 -1 9 13 9 22 0 4 -3 0 -15 -10 -25 -14 -16 -15
-18 0 -18 24 0 30 17 16 49 -8 18 -18 27 -27 23 -12 -4 -12 -1 -4 15 6 11 8
23 5 27 -3 3 0 6 8 6 9 0 10 3 3 8 -15 10 -26 99 -13 107 6 5 5 15 -5 30 -14
22 -62 228 -65 283 -1 6 -6 12 -12 12 -7 0 -10 -35 -7 -110z"/>
<path d="M2260 2070 c0 -5 5 -10 10 -10 6 0 10 5 10 10 0 6 -4 10 -10 10 -5 0
-10 -4 -10 -10z"/>
<path d="M3371 2044 c13 -16 29 -19 29 -5 0 5 -9 11 -21 14 -16 4 -18 3 -8 -9z"/>
<path d="M3360 1980 c0 -5 7 -10 15 -10 8 0 15 5 15 10 0 6 -7 10 -15 10 -8 0
-15 -4 -15 -10z"/>
<path d="M2250 1950 c0 -5 5 -10 10 -10 6 0 10 5 10 10 0 6 -4 10 -10 10 -5 0
-10 -4 -10 -10z"/>
<path d="M2170 1891 c0 -5 5 -13 10 -16 6 -3 10 -2 10 4 0 5 -4 13 -10 16 -5
3 -10 2 -10 -4z"/>
<path d="M3359 1897 c-3 -8 -10 -55 -10 -69 -1 -44 4 -92 8 -82 2 7 13 9 24 7
19 -5 20 -4 8 15 -15 24 -6 40 13 24 9 -7 17 -6 27 5 11 12 11 14 0 12 -33 -4
-39 2 -39 40 0 25 -5 41 -15 45 -8 3 -15 4 -16 3z"/>
<path d="M6625 1890 c3 -5 8 -10 11 -10 2 0 4 5 4 10 0 6 -5 10 -11 10 -5 0
-7 -4 -4 -10z"/>
<path d="M3630 1859 c0 -5 5 -7 10 -4 6 3 10 8 10 11 0 2 -4 4 -10 4 -5 0 -10
-5 -10 -11z"/>
<path d="M3680 1848 c0 -4 5 -8 11 -8 6 0 8 -8 4 -19 -3 -11 -1 -22 5 -26 6
-4 10 7 10 28 0 23 -5 34 -15 34 -8 0 -15 -4 -15 -9z"/>
<path d="M2602 1795 c1 -39 2 -42 5 -16 3 26 7 31 14 20 5 -8 9 -9 9 -3 0 5
-7 19 -15 30 -13 17 -14 15 -13 -31z"/>
<path d="M3620 1807 c0 -7 5 -18 11 -24 15 -15 3 -47 -14 -40 -8 3 -19 -4 -26
-14 -14 -24 -33 -15 -29 14 2 17 -3 23 -21 25 -13 2 -26 12 -28 23 -6 22 -30
24 -57 4 -17 -13 -18 -17 -4 -32 14 -17 14 -53 0 -53 -11 0 -13 -78 -2 -85 13
-8 13 -65 0 -65 -40 0 68 -59 159 -87 91 -27 101 -15 101 122 0 90 -2 106 -19
117 -21 15 -54 86 -45 99 3 5 -2 9 -10 9 -9 0 -16 -6 -16 -13z"/>
<path d="M4250 1783 c0 -15 -2 -16 -10 -3 -8 12 -10 11 -10 -7 0 -12 -4 -24
-9 -27 -4 -3 -11 -37 -15 -76 -6 -55 -4 -77 10 -105 12 -26 19 -33 25 -23 18
29 33 258 17 258 -4 0 -8 -8 -8 -17z"/>
<path d="M4910 1781 c-13 -26 -13 -34 3 -28 6 2 17 -2 22 -9 13 -16 60 -30 51
-15 -4 6 -14 11 -23 11 -9 0 -13 6 -9 15 3 9 0 15 -9 15 -9 0 -12 6 -9 15 9
22 -14 18 -26 -4z"/>
<path d="M3296 1775 c-9 -26 -7 -32 5 -12 6 10 9 21 6 23 -2 3 -7 -2 -11 -11z"/>
<path d="M6640 1779 c0 -5 5 -7 10 -4 6 3 10 8 10 11 0 2 -4 4 -10 4 -5 0 -10
-5 -10 -11z"/>
<path d="M1902 1750 c0 -14 2 -19 5 -12 2 6 2 18 0 25 -3 6 -5 1 -5 -13z"/>
<path d="M3295 1730 c3 -5 8 -10 11 -10 2 0 4 5 4 10 0 6 -5 10 -11 10 -5 0
-7 -4 -4 -10z"/>
<path d="M3333 1700 c-6 -21 -23 -28 -23 -9 0 8 -4 8 -14 0 -9 -8 -21 -8 -40
-2 -22 9 -27 7 -37 -11 -11 -20 -40 -130 -36 -135 8 -7 142 18 161 30 26 17
38 62 30 106 -8 36 -34 50 -41 21z"/>
<path d="M4859 1693 c-12 -15 -12 -16 4 -10 10 4 33 7 50 7 24 0 28 3 17 10
-23 15 -56 12 -71 -7z"/>
<path d="M4980 1705 c0 -18 19 -40 26 -32 4 4 0 15 -9 24 -9 10 -17 13 -17 8z"/>
<path d="M5065 1690 c-3 -5 -1 -10 4 -10 6 0 11 5 11 10 0 6 -2 10 -4 10 -3 0
-8 -4 -11 -10z"/>
<path d="M2530 1640 c0 -22 -4 -28 -15 -24 -8 4 -15 2 -15 -4 0 -8 30 -21 50
-22 3 0 5 18 5 40 0 26 -4 40 -12 40 -8 0 -13 -12 -13 -30z"/>
<path d="M3742 1605 l1 -70 7 55 c4 30 3 62 -1 70 -5 9 -8 -14 -7 -55z"/>
<path d="M4960 1660 c0 -5 5 -10 11 -10 5 0 7 5 4 10 -3 6 -8 10 -11 10 -2 0
-4 -4 -4 -10z"/>
<path d="M2577 1638 c-10 -11 -16 -22 -14 -25 8 -7 47 21 47 34 0 18 -12 15
-33 -9z"/>
<path d="M5083 1634 c16 -14 31 -24 34 -20 7 7 -17 30 -42 39 -15 6 -13 2 8
-19z"/>
<path d="M3135 1630 c-3 -5 -1 -10 4 -10 6 0 11 5 11 10 0 6 -2 10 -4 10 -3 0
-8 -4 -11 -10z"/>
<path d="M6577 1613 c-4 -3 -7 -11 -7 -17 0 -6 5 -5 12 2 6 6 9 14 7 17 -3 3
-9 2 -12 -2z"/>
<path d="M5025 1600 c3 -5 10 -10 16 -10 5 0 9 5 9 10 0 6 -7 10 -16 10 -8 0
-12 -4 -9 -10z"/>
<path d="M3100 1584 c0 -8 5 -12 10 -9 6 3 10 10 10 16 0 5 -4 9 -10 9 -5 0
-10 -7 -10 -16z"/>
<path d="M4789 1587 c-9 -7 -14 -18 -12 -24 3 -7 -2 -13 -11 -13 -9 0 -16 -6
-16 -14 0 -8 -7 -12 -17 -10 -41 10 -44 -9 -13 -90 17 -43 28 -87 25 -97 -4
-10 -1 -27 5 -36 8 -15 9 -12 4 12 l-5 30 21 -25 c19 -22 22 -22 18 -5 -2 13
2 19 11 17 12 -3 12 0 1 13 -13 16 -7 30 13 30 7 0 11 11 9 25 -1 14 -5 47 -7
73 -3 27 -9 56 -14 65 -5 9 -5 26 0 39 10 26 10 27 -12 10z m-12 -169 c-3 -8
-6 -5 -6 6 -1 11 2 17 5 13 3 -3 4 -12 1 -19z"/>
<path d="M2610 1576 c0 -9 5 -16 10 -16 6 0 10 4 10 9 0 6 -4 13 -10 16 -5 3
-10 -1 -10 -9z"/>
<path d="M2565 1570 c-3 -6 1 -7 9 -4 18 7 21 14 7 14 -6 0 -13 -4 -16 -10z"/>
<path d="M2633 1553 c-7 -2 -13 -11 -13 -19 0 -16 42 -4 48 14 4 12 -13 15
-35 5z"/>
<path d="M5115 1520 c-3 -5 3 -10 14 -10 10 0 22 -6 24 -12 4 -10 6 -10 6 -1
1 17 -36 36 -44 23z"/>
<path d="M2730 1496 c0 -9 5 -16 10 -16 6 0 10 4 10 9 0 6 -4 13 -10 16 -5 3
-10 -1 -10 -9z"/>
<path d="M3250 1500 c-11 -7 -1 -10 37 -10 28 0 82 -7 120 -15 103 -22 256
-79 166 -62 -18 4 -35 2 -38 -3 -3 -5 10 -12 30 -16 19 -3 35 -11 35 -16 0 -6
-9 -7 -22 -3 -13 3 -34 9 -48 12 l-25 6 22 -22 c12 -11 30 -21 39 -21 10 0 14
-3 10 -7 -12 -12 87 -33 102 -21 18 16 9 33 -18 33 -13 0 -25 5 -27 11 -2 7 6
10 22 6 20 -3 24 -1 19 11 -3 8 4 24 17 36 13 12 18 21 11 21 -6 0 -14 -5 -18
-11 -8 -13 -73 -3 -94 16 -34 29 -312 74 -340 55z m393 -97 c-7 -2 -19 -2 -25
0 -7 3 -2 5 12 5 14 0 19 -2 13 -5z"/>
<path d="M3198 1493 c6 -2 18 -2 25 0 6 3 1 5 -13 5 -14 0 -19 -2 -12 -5z"/>
<path d="M2650 1480 c0 -5 5 -10 10 -10 6 0 10 5 10 10 0 6 -4 10 -10 10 -5 0
-10 -4 -10 -10z"/>
<path d="M2597 1463 c-4 -3 -7 -11 -7 -17 0 -6 5 -5 12 2 6 6 9 14 7 17 -3 3
-9 2 -12 -2z"/>
<path d="M4651 1443 c-1 -16 -10 -25 -33 -32 -18 -5 -25 -10 -15 -10 21 -1 22
-20 1 -28 -8 -3 -13 -12 -10 -19 3 -8 -1 -14 -9 -14 -9 0 -12 -6 -9 -15 4 -10
0 -15 -10 -15 -14 0 -15 -2 -4 -14 7 -8 16 -12 20 -9 5 2 19 -8 33 -24 l25
-28 -10 28 c-13 35 -13 34 4 34 8 0 12 -6 8 -15 -3 -10 -1 -13 6 -8 6 3 16 -3
22 -14 15 -28 29 -17 22 17 l-5 28 26 -30 c36 -40 34 -22 -7 66 -18 41 -38 85
-44 99 -10 24 -11 24 -11 3z"/>
<path d="M4691 1434 c0 -11 3 -14 6 -6 3 7 2 16 -1 19 -3 4 -6 -2 -5 -13z"/>
<path d="M2643 1338 c0 -13 5 -26 11 -30 5 -3 2 -13 -7 -22 -17 -17 -14 -75 5
-87 5 -3 10 -18 12 -32 1 -15 6 -30 9 -34 11 -10 8 -43 -3 -43 -5 0 -10 4 -10
8 0 10 -35 52 -43 52 -3 0 0 -12 8 -27 8 -15 13 -29 11 -30 -6 -6 -36 9 -36
18 0 5 -7 9 -15 9 -8 0 -15 6 -15 13 0 8 -3 8 -9 -2 -8 -12 -14 -13 -36 -3
-34 16 -38 15 -31 -4 4 -12 2 -15 -9 -10 -10 3 -15 -1 -16 -12 -2 -31 2 -42
24 -65 51 -52 97 -110 97 -122 0 -7 17 -28 38 -47 21 -19 48 -49 61 -66 12
-18 26 -30 31 -27 9 6 16 -1 51 -47 28 -38 59 -37 59 2 0 17 -7 33 -17 40 -16
9 -15 10 7 8 23 -3 25 1 32 52 10 76 2 110 -26 110 -13 0 -23 6 -24 13 0 6 -8
37 -16 67 -18 64 -19 73 -7 66 5 -4 13 -25 17 -49 4 -23 9 -37 11 -32 7 21
-24 140 -35 138 -7 -2 -12 4 -12 12 0 8 -4 15 -10 15 -5 0 -10 -17 -10 -37 0
-21 -8 -47 -16 -58 -15 -19 -15 -16 -7 35 4 30 8 78 8 107 0 61 19 56 29 -7 3
-21 11 -42 16 -45 11 -7 4 63 -11 103 -5 13 -9 33 -9 45 0 12 -5 29 -10 37 -8
12 -11 13 -19 1 -6 -9 -11 -10 -15 -2 -4 6 -20 11 -36 11 -24 0 -29 -4 -27
-22z m84 -24 c3 -8 0 -21 -7 -27 -10 -10 -12 -8 -7 5 4 11 0 21 -11 27 -16 10
-16 10 1 11 10 0 20 -7 24 -16z m53 -205 c0 -5 -4 -9 -10 -9 -5 0 -10 7 -10
16 0 8 5 12 10 9 6 -3 10 -10 10 -16z m-62 -264 c1 -21 -3 -33 -8 -30 -12 8
-13 65 -2 65 5 0 9 -16 10 -35z"/>
<path d="M4340 1333 c-13 -15 -12 -16 4 -10 10 4 20 7 22 7 2 0 4 5 4 10 0 15
-13 12 -30 -7z"/>
<path d="M5230 1336 c0 -12 42 -131 49 -141 4 -5 8 -25 10 -44 1 -19 9 -40 19
-47 9 -6 17 -20 18 -31 4 -76 4 -78 14 -63 8 12 10 8 11 -15 1 -16 2 -39 1
-50 -1 -18 0 -17 10 3 10 19 7 39 -17 107 -15 46 -32 82 -37 79 -4 -3 -8 8 -8
24 0 47 -12 92 -22 86 -5 -3 -8 0 -7 7 2 8 -2 24 -9 36 -7 12 -11 27 -10 34 2
6 -3 14 -9 16 -7 3 -13 2 -13 -1z"/>
<path d="M4370 1300 c-8 -5 -10 -10 -5 -10 6 0 17 5 25 10 8 5 11 10 5 10 -5
0 -17 -5 -25 -10z"/>
<path d="M5219 1272 c5 -17 7 -41 5 -54 -4 -21 -4 -21 5 -3 10 21 4 64 -10 79
-5 5 -5 -4 0 -22z"/>
<path d="M2051 1279 c-2 -34 31 -109 47 -109 15 1 15 2 -1 14 -10 8 -15 20
-11 30 4 9 0 24 -8 34 -9 9 -18 24 -21 32 -5 13 -6 13 -6 -1z"/>
<path d="M2596 1278 c-10 -32 -14 -88 -6 -88 4 0 10 23 12 50 3 49 1 62 -6 38z"/>
<path d="M4526 1275 c-9 -26 -7 -32 5 -12 6 10 9 21 6 23 -2 3 -7 -2 -11 -11z"/>
<path d="M5375 1280 c3 -5 8 -10 11 -10 2 0 4 5 4 10 0 6 -5 10 -11 10 -5 0
-7 -4 -4 -10z"/>
<path d="M4348 1263 c-24 -3 -38 -9 -38 -18 0 -8 -8 -19 -17 -25 -15 -9 -14
-10 6 -4 20 5 23 3 17 -12 -7 -17 -6 -17 13 0 11 10 25 15 30 11 6 -3 11 2 11
12 0 11 5 24 12 31 7 7 10 11 8 10 -3 -1 -22 -3 -42 -5z"/>
<path d="M3462 1231 c-11 -6 -10 -10 5 -15 17 -7 17 -8 -1 -18 -13 -7 -20 -7
-26 2 -9 15 -30 4 -30 -15 0 -8 8 -22 19 -32 22 -22 35 -69 21 -78 -6 -4 -9
-21 -7 -38 2 -18 2 -24 0 -14 -2 9 -11 17 -19 17 -22 0 -17 -48 7 -60 11 -7
18 -14 15 -17 -3 -4 -1 -12 5 -20 9 -9 8 -17 0 -27 -9 -11 11 -13 123 -12
l135 1 -7 25 c-8 31 -7 69 5 142 8 46 7 58 -4 63 -8 2 -12 9 -8 15 6 9 -64 50
-87 50 -7 0 -26 7 -42 15 -15 8 -32 12 -37 9 -5 -3 -9 0 -9 5 0 13 -39 14 -58
2z m84 -248 c-10 -10 -19 5 -10 18 6 11 8 11 12 0 2 -7 1 -15 -2 -18z m-36 3
c0 -3 -4 -8 -10 -11 -5 -3 -10 -1 -10 4 0 6 5 11 10 11 6 0 10 -2 10 -4z"/>
<path d="M3363 1185 c9 -57 28 -69 24 -15 -2 26 -8 45 -16 48 -11 4 -13 -4 -8
-33z"/>
<path d="M3330 1200 c0 -5 5 -10 10 -10 6 0 10 5 10 10 0 6 -4 10 -10 10 -5 0
-10 -4 -10 -10z"/>
<path d="M5251 1203 c0 -4 4 -17 9 -28 8 -19 9 -19 9 2 1 12 -3 25 -9 28 -5 3
-10 3 -9 -2z"/>
<path d="M6356 1195 c-11 -8 -15 -15 -9 -15 19 0 43 12 43 21 0 13 -12 11 -34
-6z"/>
<path d="M3680 1185 c7 -8 17 -15 22 -15 6 0 5 7 -2 15 -7 8 -17 15 -22 15 -6
0 -5 -7 2 -15z"/>
<path d="M2860 1170 c-13 -8 -13 -10 2 -10 9 0 20 5 23 10 8 13 -5 13 -25 0z"/>
<path d="M4327 1096 c-4 -10 -1 -13 8 -9 8 3 12 9 9 14 -7 12 -11 11 -17 -5z"/>
<path d="M3300 1065 c0 -8 5 -15 10 -15 6 0 10 7 10 15 0 8 -4 15 -10 15 -5 0
-10 -7 -10 -15z"/>
<path d="M4327 1054 c-10 -13 -16 -30 -14 -37 4 -9 6 -9 6 1 1 6 7 12 15 12 8
0 14 10 14 25 0 14 -1 25 -2 25 0 0 -9 -12 -19 -26z"/>
<path d="M4236 1034 c-9 -23 -8 -26 7 -18 8 5 8 2 -2 -9 -12 -15 -11 -17 5
-17 30 0 42 13 33 35 -4 11 -8 16 -8 11 -1 -5 -7 -3 -15 3 -11 9 -15 8 -20 -5z"/>
<path d="M5620 1030 c0 -11 5 -20 10 -20 6 0 10 9 10 20 0 11 -4 20 -10 20 -5
0 -10 -9 -10 -20z"/>
<path d="M7346 1032 c-4 -13 -5 -26 -2 -29 10 -11 18 4 14 29 l-4 23 -8 -23z"/>
<path d="M4655 1030 c-3 -5 5 -12 19 -16 17 -4 31 -19 43 -45 19 -43 38 -54
23 -13 -6 14 -10 33 -10 42 0 14 2 15 10 2 12 -19 22 -8 14 14 -4 12 -14 16
-26 12 -11 -2 -31 -1 -44 4 -14 6 -26 6 -29 0z"/>
<path d="M3365 1000 c-3 -6 1 -7 9 -4 18 7 21 14 7 14 -6 0 -13 -4 -16 -10z"/>
<path d="M3130 964 c0 -8 5 -12 10 -9 6 3 10 10 10 16 0 5 -4 9 -10 9 -5 0
-10 -7 -10 -16z"/>
<path d="M2908 963 c6 -2 18 -2 25 0 6 3 1 5 -13 5 -14 0 -19 -2 -12 -5z"/>
<path d="M4220 960 c0 -5 5 -10 11 -10 5 0 7 5 4 10 -3 6 -8 10 -11 10 -2 0
-4 -4 -4 -10z"/>
<path d="M4790 933 c0 -25 16 -39 23 -21 3 8 6 6 6 -4 1 -10 8 -18 16 -18 8 0
12 -6 9 -13 -2 -7 4 -22 16 -32 25 -23 25 -16 -1 56 -19 50 -25 58 -45 57 -18
-2 -24 -8 -24 -25z"/>
<path d="M4877 935 c3 -8 9 -12 14 -9 5 3 7 -1 4 -8 -2 -7 4 -31 14 -53 l19
-40 -2 37 c0 21 -5 38 -9 38 -4 0 -7 7 -5 16 2 9 -6 20 -19 25 -17 6 -21 5
-16 -6z"/>
<path d="M2480 933 c0 -13 29 -38 35 -31 3 3 -4 13 -15 23 -11 10 -20 13 -20
8z"/>
<path d="M4183 910 c-18 -16 -33 -32 -33 -35 0 -11 62 30 71 48 14 25 -2 20
-38 -13z"/>
<path d="M3214 896 c-4 -10 -15 -11 -47 -5 -84 16 -100 12 -124 -31 -13 -21
-23 -46 -23 -55 0 -15 1 -15 16 -1 18 19 45 21 61 5 6 -6 17 -8 24 -4 9 6 8
11 -5 20 -24 18 -10 40 27 43 24 2 28 0 17 -8 -13 -9 -13 -11 0 -20 8 -5 21
-10 28 -10 6 0 12 -4 12 -10 0 -5 -5 -10 -11 -10 -5 0 -8 -4 -4 -9 3 -6 -2
-14 -12 -19 -14 -8 -15 -13 -4 -25 7 -9 11 -23 9 -33 -2 -11 4 -18 17 -20 34
-5 96 -22 103 -29 4 -3 1 -10 -7 -14 -8 -5 7 -11 39 -15 31 -4 57 -3 64 3 13
11 56 11 56 0 0 -11 89 -26 135 -23 22 1 55 3 73 3 22 1 32 6 32 17 0 10 5 14
16 10 8 -3 12 -2 9 4 -3 6 -2 10 3 10 5 0 12 11 14 25 7 35 -18 33 -30 -2 -9
-28 -9 -28 -15 12 -8 53 -3 88 12 93 7 2 12 -2 10 -9 -1 -8 -1 -25 0 -39 1
-19 4 -21 10 -11 5 8 16 11 25 8 31 -12 11 36 -22 53 -36 17 -41 36 -12 45 11
3 20 12 20 19 0 10 -31 14 -127 15 -92 2 -125 -1 -117 -9 6 -6 34 -14 63 -19
93 -15 85 -35 -11 -25 -52 5 -66 10 -74 28 -7 16 -19 22 -56 24 -40 3 -47 0
-42 -12 6 -17 -4 -20 -31 -10 -14 6 -14 9 0 30 8 13 11 24 6 24 -5 0 -11 -6
-14 -12 -4 -10 -7 -10 -18 0 -18 17 -49 15 -49 -3 0 -8 -4 -15 -10 -15 -5 0
-10 7 -10 15 0 19 -19 20 -26 1z m261 -102 c18 -28 12 -44 -16 -44 -10 0 -19
-4 -19 -10 0 -5 5 -10 11 -10 5 0 7 -5 4 -10 -18 -29 -50 44 -39 87 7 27 37
20 59 -13z m-235 18 c0 -13 -12 -22 -22 -16 -10 6 -1 24 13 24 5 0 9 -4 9 -8z
m-40 -52 c0 -5 -4 -10 -10 -10 -5 0 -10 5 -10 10 0 6 5 10 10 10 6 0 10 -4 10
-10z"/>
<path d="M3360 899 c0 -5 5 -7 10 -4 6 3 10 8 10 11 0 2 -4 4 -10 4 -5 0 -10
-5 -10 -11z"/>
<path d="M4670 881 c0 -6 4 -13 10 -16 6 -3 7 1 4 9 -7 18 -14 21 -14 7z"/>
<path d="M4215 870 c-3 -5 3 -10 14 -10 12 0 21 5 21 10 0 6 -6 10 -14 10 -8
0 -18 -4 -21 -10z"/>
<path d="M3741 848 c-8 -13 -9 -24 -3 -30 6 -6 12 0 16 17 9 35 4 40 -13 13z"/>
<path d="M7220 850 c-8 -5 -11 -12 -7 -16 3 -4 13 -2 20 4 8 7 18 8 22 4 5 -4
5 -1 1 6 -9 14 -16 15 -36 2z"/>
<path d="M4690 841 c0 -6 4 -13 10 -16 6 -3 7 1 4 9 -7 18 -14 21 -14 7z"/>
<path d="M4363 813 c-15 -14 -20 -29 -19 -68 1 -56 13 -62 37 -19 13 24 13 31
2 43 -12 11 -11 15 1 25 10 6 12 16 8 24 -7 10 -13 9 -29 -5z"/>
<path d="M3150 800 c0 -5 5 -10 10 -10 6 0 10 5 10 10 0 6 -4 10 -10 10 -5 0
-10 -4 -10 -10z"/>
<path d="M4953 790 c4 -14 7 -28 7 -32 0 -4 6 -5 14 -2 17 6 52 -40 70 -93 14
-40 30 -52 39 -29 9 22 -45 125 -65 125 -9 1 -21 7 -25 14 -4 6 -17 19 -27 27
-18 14 -19 13 -13 -10z"/>
<path d="M7190 785 c0 -8 2 -15 4 -15 2 0 6 7 10 15 3 8 1 15 -4 15 -6 0 -10
-7 -10 -15z"/>
<path d="M3097 773 c9 -26 44 -54 56 -46 6 3 1 10 -12 15 -17 6 -21 13 -16 28
5 16 2 20 -14 20 -15 0 -19 -4 -14 -17z"/>
<path d="M4040 698 c-86 -46 -214 -127 -280 -178 -14 -11 -37 -22 -52 -26 -27
-6 -28 -4 -28 30 l0 36 -67 2 c-38 0 -75 0 -83 -1 -8 -1 -71 -2 -140 -2 -69
-1 -114 -4 -100 -8 24 -7 24 -8 -9 -15 -30 -7 -33 -11 -28 -36 9 -44 -1 -68
-27 -63 -22 5 -45 -22 -31 -35 3 -3 5 0 5 6 0 14 36 16 44 3 11 -17 15 -101 6
-101 -6 0 -10 9 -10 20 0 11 -7 20 -15 20 -8 0 -15 -6 -15 -14 0 -8 -7 -16
-15 -20 -16 -6 -21 -36 -6 -36 15 0 35 -60 24 -71 -8 -8 -13 -7 -17 0 -4 6
-15 11 -24 10 -13 0 -12 -2 4 -9 12 -5 28 -22 35 -39 11 -24 21 -31 44 -32
l30 -2 -30 -4 c-41 -6 -56 -21 -49 -48 3 -13 1 -26 -5 -29 -6 -4 -10 -19 -10
-34 l1 -27 8 30 8 30 1 -27 1 -28 388 0 387 1 45 106 c52 124 195 410 217 435
14 16 12 21 -26 58 -37 36 -46 54 -42 86 1 7 -5 14 -13 17 -9 4 -12 14 -9 26
8 31 -11 26 -117 -31z m-750 -204 c0 -8 -4 -12 -10 -9 -5 3 -10 13 -10 21 0 8
5 12 10 9 6 -3 10 -13 10 -21z m-50 -214 c0 -5 -4 -10 -10 -10 -5 0 -10 5 -10
10 0 6 5 10 10 10 6 0 10 -4 10 -10z"/>
<path d="M5741 704 c0 -11 3 -14 6 -6 3 7 2 16 -1 19 -3 4 -6 -2 -5 -13z"/>
<path d="M2750 666 c0 -26 7 -40 31 -60 17 -14 37 -26 45 -26 21 0 17 38 -5
50 -11 5 -23 19 -26 30 -3 11 -15 25 -26 30 -17 10 -19 7 -19 -24z"/>
<path d="M5740 630 c0 -5 5 -10 10 -10 6 0 10 5 10 10 0 6 -4 10 -10 10 -5 0
-10 -4 -10 -10z"/>
<path d="M5766 575 c-3 -8 -1 -15 4 -15 6 0 10 7 10 15 0 8 -2 15 -4 15 -2 0
-6 -7 -10 -15z"/>
<path d="M3190 550 c0 -6 7 -10 15 -10 8 0 15 2 15 4 0 2 -7 6 -15 10 -8 3
-15 1 -15 -4z"/>
<path d="M3707 526 c-4 -10 -1 -13 8 -9 8 3 12 9 9 14 -7 12 -11 11 -17 -5z"/>
<path d="M5797 471 c-4 -17 -3 -21 5 -13 5 5 8 16 6 23 -3 8 -7 3 -11 -10z"/>
<path d="M6880 445 c0 -16 16 -20 24 -6 3 5 -1 11 -9 15 -9 3 -15 0 -15 -9z"/>
<path d="M6870 410 c0 -5 -9 -10 -20 -10 -11 0 -20 -7 -20 -15 0 -8 -7 -15
-15 -15 -11 0 -15 -10 -14 -32 2 -28 3 -29 6 -8 3 17 16 32 38 45 19 10 35 24
35 32 0 7 -2 13 -5 13 -3 0 -5 -4 -5 -10z"/>
<path d="M3191 371 c-8 -5 -9 -11 -3 -15 5 -3 12 1 16 9 6 17 6 18 -13 6z"/>
<path d="M5326 275 c4 -8 10 -15 15 -15 5 0 9 7 9 15 0 8 -7 15 -15 15 -9 0
-12 -6 -9 -15z"/>
<path d="M6726 268 c-18 -26 -20 -38 -6 -38 6 0 10 5 10 12 0 6 7 20 17 30 9
10 11 18 5 18 -6 0 -18 -10 -26 -22z"/>
<path d="M3180 250 c0 -5 5 -10 10 -10 6 0 10 5 10 10 0 6 -4 10 -10 10 -5 0
-10 -4 -10 -10z"/>
<path d="M3180 161 c0 -6 5 -13 10 -16 6 -3 10 1 10 9 0 9 -4 16 -10 16 -5 0
-10 -4 -10 -9z"/>
<path d="M3120 129 c0 -5 5 -7 10 -4 6 3 10 8 10 11 0 2 -4 4 -10 4 -5 0 -10
-5 -10 -11z"/>
<path d="M6527 77 c-15 -17 -25 -33 -22 -36 3 -3 19 9 35 26 17 18 27 34 22
36 -4 2 -19 -10 -35 -26z"/>
<path d="M3100 79 c0 -5 5 -7 10 -4 6 3 10 8 10 11 0 2 -4 4 -10 4 -5 0 -10
-5 -10 -11z"/>
<path d="M3120 60 c0 -5 5 -10 11 -10 5 0 7 5 4 10 -3 6 -8 10 -11 10 -2 0 -4
-4 -4 -10z"/>
<path d="M3056 45 c4 -8 10 -12 15 -9 11 6 2 24 -11 24 -5 0 -7 -7 -4 -15z"/>
<path d="M6486 21 c-4 -7 -5 -15 -2 -18 9 -9 19 4 14 18 -4 11 -6 11 -12 0z"/>
</g>
</svg>
