<svg version="1.1" id="Layer_1" xmlns="http://www.w3.org/2000/svg" xmlns:xlink="http://www.w3.org/1999/xlink" x="0px" y="0px"
	 width="100%" viewBox="0 0 640 928" enable-background="new 0 0 640 928" xml:space="preserve">
<path fill="#000000" opacity="1.000000" stroke="none" 
	d="
M189.532074,0.999999 
	C190.057571,1.490497 190.351608,2.227367 190.136520,2.433805 
	C187.686661,4.785299 186.470200,7.101198 188.680969,10.481207 
	C191.070023,14.133781 194.218842,16.182301 198.476212,16.487349 
	C201.296036,16.689396 204.245529,17.147011 206.946823,16.581694 
	C218.806747,14.099693 228.123611,19.559509 236.829865,26.198051 
	C241.600586,29.835754 247.238235,31.943686 251.794907,36.022606 
	C254.483414,38.429245 258.941772,37.160492 262.477997,36.527866 
	C271.892517,34.843620 281.336700,34.377930 290.846039,34.955948 
	C296.308594,35.287991 300.785309,32.274662 305.526917,30.502525 
	C311.057495,28.435528 316.181091,25.196209 321.302155,22.163143 
	C323.044708,21.131073 324.158295,21.372837 325.830750,22.064709 
	C329.466400,23.568720 332.911835,25.715376 337.460724,25.565088 
	C336.991852,31.544800 333.978424,35.871819 330.737793,40.037590 
	C328.188568,43.314575 325.398590,46.403446 322.751282,49.605438 
	C321.777344,50.783470 320.746246,52.224800 321.636475,53.690723 
	C324.743805,58.807716 324.137085,63.836975 321.717224,68.933556 
	C321.156830,70.113815 321.684570,71.253372 322.088409,72.314560 
	C324.107605,77.621132 323.187164,82.733673 321.331024,87.857094 
	C320.773529,89.395966 320.381378,91.081062 320.348663,92.707924 
	C320.240356,98.088951 321.132965,103.363747 319.700928,108.871574 
	C318.523438,113.400368 320.063171,118.152344 321.651489,122.894165 
	C328.036682,141.956802 331.679901,161.515167 329.289154,181.775391 
	C328.898499,185.086105 328.074280,188.287003 326.971924,191.462219 
	C325.114899,196.811157 324.654480,202.197845 324.969574,208.041748 
	C325.712433,221.818069 326.193115,235.693665 324.611572,249.459976 
	C324.044891,254.392624 324.814575,259.133850 325.487640,263.830780 
	C327.257080,276.178467 325.927032,288.104675 321.171570,299.488800 
	C318.107422,306.824005 320.225861,313.987671 320.628479,321.172852 
	C321.564423,337.875549 320.686523,354.413696 316.697662,370.648254 
	C315.225372,376.640350 314.882690,382.459900 315.942230,388.401184 
	C317.296906,395.997162 317.332733,403.651520 317.137665,411.298035 
	C316.768829,425.751129 317.111053,440.016998 320.174591,454.339600 
	C323.862610,471.582062 321.913940,489.099792 319.771057,506.470459 
	C317.835663,522.159180 316.051208,537.875366 315.295837,553.662170 
	C314.915100,561.619446 316.721741,562.845703 324.577698,563.070129 
	C353.188232,563.887390 381.840668,564.053711 410.284088,567.813416 
	C417.212860,568.729309 424.026031,570.230347 430.637451,572.663635 
	C434.868011,574.220642 436.636597,576.811707 436.359375,581.338501 
	C435.474670,595.785217 434.257568,610.205261 433.686981,624.681824 
	C433.254578,635.653687 433.102997,646.640564 432.469086,657.619202 
	C430.962952,683.704773 430.314850,709.838989 429.212860,735.949036 
	C427.598206,774.205688 426.282715,812.483215 423.858185,850.689575 
	C423.423279,857.542664 423.195038,864.058533 423.845184,870.882812 
	C424.645233,879.280273 423.958618,887.815979 423.992920,896.291687 
	C424.005127,899.308105 422.942047,901.895264 419.946991,902.376953 
	C411.581635,903.722107 403.187775,903.647766 395.043060,902.119141 
	C394.514526,899.673462 396.030121,899.305664 397.054352,898.542542 
	C400.453369,896.010010 399.654694,892.624939 398.543427,889.461487 
	C397.370117,886.121338 394.499390,887.895447 392.166229,887.641418 
	C385.759644,886.943970 380.561371,890.836487 374.617249,891.709106 
	C368.201599,892.650940 361.799347,894.016968 355.349640,894.324646 
	C341.940063,894.964233 328.547913,896.009033 315.134125,896.600281 
	C306.296875,896.989807 298.192627,894.662109 289.728790,893.967896 
	C282.101532,893.342346 274.365784,890.141418 267.244049,891.009033 
	C258.423096,892.083679 251.739456,887.877136 244.167374,886.022888 
	C240.059189,885.016968 235.593521,886.054871 231.763824,883.576599 
	C230.796051,882.950378 229.437958,883.692505 228.598785,884.554932 
	C225.379181,887.863342 225.732056,892.013550 226.770813,895.840698 
	C227.725403,899.357788 231.219559,899.470154 234.253860,899.296875 
	C236.569946,899.164673 238.814743,898.730347 240.794617,900.916687 
	C239.379913,903.026489 237.362015,903.047974 235.429016,903.065857 
	C229.454651,903.121033 223.466858,902.861450 217.508865,903.181580 
	C212.909836,903.428772 210.157272,901.524536 210.172653,897.140442 
	C210.212219,885.883911 209.534668,874.542175 212.460281,863.480103 
	C212.795532,862.212402 213.752991,861.046448 213.006561,859.691833 
	C208.165024,850.905518 209.656754,841.099365 209.037506,831.789368 
	C207.402740,807.211853 206.728622,782.570496 205.670074,757.954651 
	C204.325226,726.680908 203.028534,695.405029 201.614120,664.134460 
	C200.726852,644.518372 199.702866,624.908203 198.655197,605.299866 
	C198.247131,597.662537 197.788635,590.018677 197.001816,582.414124 
	C196.529800,577.852234 198.937988,575.635254 202.509598,573.988586 
	C210.947968,570.098328 220.065857,569.008545 229.110367,567.711304 
	C244.605850,565.488892 260.282196,565.338684 275.835876,563.805969 
	C284.607880,562.941650 286.335602,560.059875 283.687653,551.446899 
	C279.365814,537.389160 276.425201,523.206482 276.642609,508.335083 
	C276.841522,494.728821 280.392578,482.030212 285.652771,469.795624 
	C288.348358,463.526062 289.390320,457.481903 288.067047,450.912201 
	C287.968445,450.422577 287.721588,449.909119 287.794830,449.446503 
	C289.222626,440.427032 287.882324,431.864624 284.976562,423.179962 
	C283.780487,419.605194 285.267273,414.959076 286.095795,410.915405 
	C288.028748,401.481140 288.119171,392.156036 286.110382,382.706604 
	C283.834137,371.999298 285.227509,360.815216 281.787659,350.183655 
	C279.543427,343.247406 277.139435,336.285187 276.382996,328.948792 
	C275.446075,319.861694 273.983246,310.780579 273.790771,301.674805 
	C273.352722,280.952606 269.962280,260.687744 265.627014,240.520782 
	C265.100098,238.069550 264.296875,235.689194 262.869568,233.594589 
	C259.006927,227.926285 257.851685,221.434494 256.506714,214.856567 
	C255.149429,208.218384 252.652344,201.815155 250.689667,195.298431 
	C248.013397,186.412369 249.359634,177.095306 247.737122,168.059387 
	C245.571823,156.000504 242.360626,143.980789 244.489227,131.511108 
	C244.814545,129.605453 244.244507,127.642143 242.923416,126.398262 
	C237.432587,121.228416 237.594360,114.086349 236.191803,107.538551 
	C235.682693,105.161697 235.074432,103.062439 233.385544,101.323936 
	C231.478790,99.361160 230.488541,96.905228 229.537216,94.394989 
	C227.420441,88.809540 228.741989,82.177147 223.881668,77.310493 
	C222.711151,76.138428 222.767227,73.014961 223.267181,71.044685 
	C224.496552,66.199867 222.281021,64.039200 218.414429,61.546528 
	C195.980225,47.083828 180.132568,27.335102 171.934906,1.380687 
	C177.688034,1.000000 183.376083,1.000000 189.532074,0.999999 
M386.700958,773.105042 
	C390.843475,773.375305 395.045166,774.608887 398.972168,772.022644 
	C400.376282,771.097961 401.888306,771.255066 402.864441,772.787048 
	C403.524139,773.822327 404.488159,774.174683 405.395416,773.742188 
	C410.732697,771.198364 406.030853,767.085083 406.733551,763.742737 
	C407.195587,761.544800 405.372284,760.041992 402.830719,761.201660 
	C401.774872,761.683472 400.824127,762.230652 399.600037,762.260803 
	C392.389893,762.438721 389.093506,767.596497 385.323730,773.035522 
	C381.381866,772.051514 379.267914,774.489441 377.239441,777.242065 
	C382.633026,779.808777 384.321564,778.961426 386.700958,773.105042 
M396.400543,639.064819 
	C396.398560,639.966125 397.005096,641.170105 395.331329,641.250671 
	C391.684082,635.510315 385.496857,635.900391 379.994751,635.318359 
	C375.963074,634.891846 372.092224,636.251404 370.043579,640.553955 
	C369.053009,642.634399 366.983002,643.751770 364.795135,644.008789 
	C360.053925,644.565796 355.212921,647.252991 350.552155,643.384338 
	C349.744080,642.713623 348.130432,642.175049 346.491913,643.253784 
	C346.411072,643.817139 346.117035,644.629761 346.212402,645.393860 
	C347.097443,652.485718 344.002838,655.257874 336.970795,653.361145 
	C334.731415,652.757141 333.481445,653.486145 332.469727,655.285339 
	C330.493530,658.799988 330.978699,662.165833 333.663361,664.937927 
	C336.979218,668.361694 337.667694,675.221680 344.878021,673.821167 
	C345.345673,673.730347 345.967773,674.508911 346.536621,674.852356 
	C349.434021,676.601746 348.925415,680.119324 350.290466,682.581482 
	C351.194946,682.581482 351.885986,682.712952 352.505280,682.557861 
	C354.712708,682.005127 356.723938,681.581360 357.986908,684.295898 
	C359.163300,686.824341 358.204742,688.307190 356.132599,689.694580 
	C353.328033,691.572266 354.126495,694.335571 355.509766,696.334290 
	C357.279144,698.890869 359.774475,697.810852 361.680908,696.745483 
	C362.625275,694.369080 359.342773,692.695129 361.311584,690.817871 
	C363.210114,689.007629 365.019348,691.118225 366.852966,691.535522 
	C370.031311,692.258789 373.149994,693.367798 377.154449,692.971985 
	C373.235291,698.119019 372.589783,704.923706 366.793701,709.137573 
	C371.681854,708.605347 373.132538,712.261719 375.584442,714.652161 
	C372.924133,718.476990 369.947815,715.097595 367.261688,715.432251 
	C365.153564,720.426086 363.893555,725.956665 357.285339,727.467041 
	C359.948822,730.238342 363.992798,729.769043 364.655182,733.734375 
	C364.011475,734.110657 363.210144,734.978577 362.657043,734.841919 
	C355.476074,733.067505 353.530731,738.221619 351.327606,743.166260 
	C349.963715,746.227356 348.588074,749.262939 344.438385,749.470703 
	C342.943451,749.545532 342.354004,750.992432 342.326935,752.452271 
	C342.292053,754.332092 341.935303,756.137634 340.771912,757.631104 
	C338.822968,760.132874 339.263367,762.366943 340.838623,764.949585 
	C343.388489,769.130310 347.905212,773.056458 343.104462,778.356079 
	C352.889648,783.895935 358.969543,783.325928 362.749329,776.713379 
	C361.326782,776.205750 359.930328,775.258972 358.560608,775.296143 
	C352.618073,775.457458 351.163666,772.277222 351.721985,767.062378 
	C351.988464,764.573181 351.825653,762.051697 349.298798,760.406433 
	C347.220276,759.053101 344.515900,757.559753 345.498840,754.671326 
	C346.429138,751.937744 349.462677,752.963867 351.688995,752.708130 
	C351.997894,752.672729 352.286377,752.459839 352.814392,752.228149 
	C353.611908,749.817871 352.340057,745.283264 357.829407,746.850098 
	C367.068970,749.487305 368.089783,749.045776 373.948914,741.217407 
	C375.045532,739.752197 376.011292,738.130188 377.338715,736.907715 
	C381.013000,733.523865 385.595245,732.992188 390.664673,732.424255 
	C389.952728,734.748047 388.263153,734.530518 387.370850,735.462158 
	C384.419678,738.543518 384.917419,744.165466 388.487762,745.083618 
	C391.274780,745.800415 393.822998,744.328552 395.597473,742.336304 
	C397.817291,739.843994 399.406891,740.526245 401.828156,742.995483 
	C397.783905,745.102356 396.364960,748.744751 395.137360,752.071472 
	C400.241028,759.913147 406.482605,752.908997 412.067688,753.951416 
	C413.095764,751.586975 413.019073,749.078979 413.062653,746.579041 
	C413.183807,739.628662 412.446350,732.837219 413.349976,725.686218 
	C415.384735,709.583557 414.845032,693.174438 416.016510,676.937866 
	C416.963806,663.808411 416.295532,650.646729 417.469879,637.540039 
	C417.836517,633.447693 415.727142,631.355042 411.626495,631.145447 
	C405.220795,630.817932 400.961670,634.892029 396.400543,639.064819 
M318.241547,856.632446 
	C322.429657,856.491333 325.910309,853.908936 330.257843,853.715088 
	C343.471710,853.125793 356.712006,854.150940 369.927765,852.389282 
	C377.799957,851.339844 385.748505,850.646667 393.644928,849.640686 
	C397.642334,849.131409 398.604004,847.356995 396.757385,843.668396 
	C395.560486,841.277527 395.821899,838.816284 395.827667,836.338562 
	C395.843048,829.757629 394.339783,828.034241 387.941193,828.724548 
	C378.581238,829.734314 369.353790,830.887451 359.802734,830.631042 
	C349.806580,830.362732 339.678162,832.067322 329.634186,832.871277 
	C306.287506,834.740051 283.304047,831.336853 260.159424,830.622803 
	C251.918823,830.368530 244.208710,827.582153 236.456314,825.089172 
	C231.083298,823.361450 227.932053,825.567322 228.042892,831.177429 
	C228.147659,836.480408 228.560120,841.776917 228.805847,847.077698 
	C228.890900,848.912720 230.121170,849.714905 231.606216,850.159851 
	C233.668686,850.777771 235.755219,851.493896 237.877640,851.706116 
	C264.327271,854.351318 290.873047,855.492737 318.241547,856.632446 
M385.724030,869.322021 
	C388.780121,868.520935 391.868347,867.823914 394.883789,866.891418 
	C398.348877,865.819885 399.316406,862.817932 399.060699,859.769287 
	C398.797394,856.630188 396.060364,856.182495 393.385498,856.219116 
	C391.555359,856.244202 389.695709,856.056213 387.899597,856.313965 
	C375.343170,858.115540 362.707916,858.146179 350.061951,858.397827 
	C335.484375,858.687927 320.901245,860.206177 306.349579,859.882812 
	C290.775024,859.536743 275.166016,860.195129 259.634491,859.015320 
	C251.020111,858.360901 242.294235,858.682983 233.792572,856.798340 
	C231.078857,856.196777 228.645065,856.042480 227.740875,859.244324 
	C226.852295,862.390991 229.100479,863.792786 231.542877,864.726013 
	C233.870117,865.615356 236.312897,866.197449 238.668716,867.018433 
	C240.227921,867.561829 241.735748,868.178650 242.634552,869.807922 
	C244.162109,872.576721 250.440125,875.261414 252.525803,873.393555 
	C256.809265,869.557495 260.866028,871.515320 265.101074,872.706726 
	C270.701843,874.282593 276.593597,873.772827 282.238129,875.291321 
	C285.804169,876.250610 289.581421,876.462708 293.319031,876.758911 
	C298.522430,877.171204 303.131134,874.429871 307.946381,875.162598 
	C313.316467,875.979797 318.552063,875.086609 323.845245,875.195618 
	C344.399689,875.618835 364.639252,872.490662 385.724030,869.322021 
M307.462830,208.829346 
	C305.418823,202.065140 306.743774,195.352905 307.729034,188.623535 
	C308.444000,183.740250 309.034790,178.838776 309.680908,173.945419 
	C309.028198,173.836563 308.375488,173.727692 307.722778,173.618835 
	C305.467926,182.100189 302.465698,190.376587 301.764099,199.282608 
	C301.751953,199.436859 301.834015,199.610748 301.907501,199.757812 
	C305.292023,206.533691 298.506195,211.045044 299.033020,216.860794 
	C296.100250,217.092682 296.594849,213.989059 294.561432,214.162292 
	C292.239136,217.969818 293.021240,223.058929 288.791290,226.066147 
	C287.346863,227.093048 287.865997,229.738556 290.032593,230.521225 
	C293.005035,231.594971 292.813446,233.936752 292.798218,236.239929 
	C292.787445,237.870987 291.840057,239.447800 292.556427,241.538116 
	C294.700470,239.240173 297.752686,241.216141 299.818451,239.760513 
	C300.109985,233.963715 298.130096,228.264053 300.183411,221.918503 
	C303.536102,225.039749 302.720520,228.942581 304.830688,231.559570 
	C306.803192,234.005798 306.430695,236.299774 304.293457,238.693451 
	C302.821564,240.341919 300.375885,242.169571 301.435791,244.689087 
	C304.587494,252.181198 297.611298,257.938446 298.265167,264.971588 
	C298.364166,266.036591 298.008942,267.725067 295.589417,268.100342 
	C293.996857,261.217041 295.980438,253.446060 291.446594,247.427277 
	C290.645447,256.838837 290.106323,266.447968 288.881805,275.968964 
	C288.381531,279.858978 287.681335,283.460876 289.586578,287.114502 
	C290.694366,289.238892 291.111816,291.425751 287.927216,294.429474 
	C285.137177,277.174438 278.209412,261.980927 276.895050,244.739777 
	C272.050049,246.603760 273.110077,241.958710 270.916199,239.336105 
	C271.519226,246.118210 271.727264,252.059219 272.640717,257.889709 
	C274.019196,266.688446 273.635010,276.003265 278.142792,283.994812 
	C280.836578,288.770447 283.413422,293.441895 284.600281,298.811462 
	C284.988831,300.569336 286.009125,302.358215 284.635773,304.051453 
	C281.115753,308.391388 283.109100,312.829956 284.337799,317.236603 
	C284.725494,318.627014 286.409515,320.299164 285.173126,321.337677 
	C282.303772,323.747803 283.473633,326.435364 284.666687,328.517334 
	C287.252197,333.029266 286.734772,337.102478 285.050598,341.776367 
	C283.222717,346.849030 284.074310,351.956146 287.271088,356.663727 
	C289.661346,355.450470 289.749268,353.604767 290.537659,352.214874 
	C293.262451,347.411041 291.728210,341.740479 293.757233,336.757690 
	C295.167358,333.294678 294.987030,329.727051 294.067474,326.005066 
	C292.281769,318.777313 291.917480,311.580811 295.896606,304.702759 
	C297.259399,302.347260 297.019958,299.651001 295.719513,297.033722 
	C293.942841,293.458038 294.744904,290.240021 297.805176,287.644440 
	C300.099243,285.698669 301.796539,285.734924 303.128357,288.859772 
	C304.184906,291.338806 305.024261,294.068970 307.277710,296.043304 
	C309.305847,293.912567 309.836151,291.166077 309.238678,289.273499 
	C306.695587,281.217682 310.404999,273.959137 311.640381,266.433258 
	C312.245300,262.748230 312.327820,258.695404 314.550903,255.483994 
	C317.656982,250.997086 317.780914,246.897003 314.310181,243.029388 
	C313.317841,241.923615 311.962036,241.141235 310.985229,240.024826 
	C307.712646,236.284622 308.497803,232.240219 313.054108,231.170578 
	C310.075195,224.247787 311.821564,216.259872 307.462830,208.829346 
M306.879333,467.178314 
	C308.987122,466.803680 311.094910,466.429047 313.128448,466.067627 
	C317.705200,456.256287 310.593811,449.342957 307.000061,441.805359 
	C304.679688,436.938660 304.238708,434.341125 308.320892,430.844238 
	C309.154114,430.130463 309.741943,429.381287 309.639648,428.334198 
	C309.272858,424.579163 311.159119,421.168121 311.285767,417.536011 
	C311.493896,411.567932 310.379639,404.807587 305.405151,402.059082 
	C297.885162,397.904205 297.360718,391.634735 297.021606,384.861633 
	C296.858093,381.595795 298.590210,380.396973 301.875488,382.439941 
	C307.018158,385.637848 308.280334,385.070129 309.085785,378.865479 
	C310.235565,370.008087 311.759674,361.228607 313.250946,352.429535 
	C314.349518,345.947479 316.299438,339.462646 315.667297,332.696655 
	C315.340668,329.200531 314.183533,325.978973 310.533356,325.786255 
	C307.075745,325.603729 303.796478,324.559052 300.017761,324.155151 
	C299.146698,328.759552 297.903595,332.850616 300.302124,337.342712 
	C301.427368,339.450165 304.050323,341.719086 302.382172,344.601135 
	C300.547943,347.770172 300.872650,351.174500 301.432526,354.316284 
	C302.413147,359.818909 300.902191,364.899719 299.765747,370.052460 
	C299.129761,372.936188 297.340973,375.479767 296.129517,378.172943 
	C294.059204,382.775269 294.018982,387.862854 292.139435,392.267944 
	C290.399109,396.346771 289.969452,400.270447 290.320648,404.370422 
	C290.901917,411.156097 288.455231,418.174286 291.898346,424.770782 
	C292.271210,425.485077 291.897339,426.796661 291.506287,427.668030 
	C289.191376,432.826141 290.818207,438.260620 292.528656,442.590485 
	C295.144989,449.213593 296.477905,455.872467 297.520416,462.762909 
	C298.460419,468.975647 300.575287,470.007904 306.879333,467.178314 
M276.539642,172.860489 
	C280.958557,173.312103 281.995148,177.156937 283.580261,180.425781 
	C288.804810,176.040726 282.082703,172.144623 283.302643,168.185196 
	C291.691010,167.312134 296.522705,171.676575 299.915863,179.865631 
	C301.033844,175.378754 302.502533,172.609024 304.014465,169.864334 
	C304.786926,168.462021 305.165649,166.520798 307.316040,166.597137 
	C309.500092,166.674698 311.026947,167.853577 311.965668,169.835068 
	C313.145447,172.325439 314.384857,174.779892 317.630707,176.161728 
	C316.976440,160.334671 318.117676,144.717133 308.654785,130.536987 
	C306.837067,131.400146 304.659973,132.488297 302.439362,133.478821 
	C293.449249,137.488937 284.785492,142.800705 274.221497,140.637299 
	C273.413818,140.471893 272.567627,140.403015 271.743042,140.425537 
	C261.961548,140.692749 261.190033,142.095688 265.061249,150.699371 
	C269.790405,161.209732 271.956329,172.025528 267.879364,183.398514 
	C266.516541,187.200211 266.657043,191.075409 268.950836,194.874359 
	C271.023712,192.935715 270.705017,190.659210 270.970856,188.596573 
	C271.672455,183.153198 270.288544,177.022720 276.539642,172.860489 
M397.961823,571.608643 
	C374.440430,569.577209 350.929047,567.377869 327.287933,567.327759 
	C325.126221,567.323181 322.960144,567.310608 320.803955,567.436096 
	C319.180359,567.530701 317.869263,568.331055 317.596893,570.045776 
	C317.307831,571.865601 318.565613,572.959167 320.068481,573.292542 
	C324.987457,574.383606 328.083282,577.756165 331.024048,581.457581 
	C332.930267,583.856750 334.988007,584.710266 338.365692,583.493958 
	C341.692902,582.295776 345.524719,582.278931 349.143646,582.213196 
	C350.709351,582.184692 353.678009,582.062683 353.460083,584.451843 
	C353.010193,589.383972 356.709137,588.120239 358.173767,587.257324 
	C360.746704,585.741394 362.379211,586.192200 364.890594,587.288940 
	C368.993500,589.080811 376.120422,587.372070 376.470978,584.814209 
	C377.025665,580.766724 379.202057,581.830750 381.398163,582.698547 
	C384.162537,583.791016 386.664948,585.760681 389.775238,585.684753 
	C399.930695,585.436707 409.883362,583.528137 419.823853,581.654114 
	C421.866364,581.269165 424.483551,580.513123 424.228302,577.752808 
	C424.009155,575.382996 421.454437,575.055359 419.595978,574.605774 
	C412.789886,572.959351 405.818604,572.399048 397.961823,571.608643 
M292.021210,491.620392 
	C292.080719,493.281525 292.445068,495.320190 290.663574,496.089783 
	C287.838440,497.310089 287.378265,493.250061 284.585938,492.980286 
	C281.722229,497.383484 284.132080,501.509827 285.457031,505.592163 
	C286.503967,508.817902 287.727570,511.853058 282.798401,512.810486 
	C281.652832,513.033020 281.274017,514.052551 281.189209,515.086731 
	C280.572784,522.601868 280.969849,530.193237 283.568939,537.167908 
	C285.486542,542.313965 287.489929,547.296143 288.337372,552.762939 
	C289.245850,558.623352 296.779785,564.903259 302.486206,564.951660 
	C305.023163,564.973206 308.126007,564.136719 307.486786,561.494995 
	C306.262970,556.437439 307.292511,550.861816 305.131073,546.347595 
	C301.755371,539.297485 301.610291,531.907104 300.779114,524.524658 
	C300.571594,522.681641 300.745026,520.749451 302.070282,519.327942 
	C304.563446,516.653748 303.194305,514.325806 301.968903,511.642853 
	C299.313416,505.828674 301.109009,499.476501 300.272156,493.415070 
	C300.220215,493.038940 301.064240,492.331512 301.621796,492.117065 
	C303.419647,491.425568 303.860931,490.317902 303.074707,488.597839 
	C302.384186,487.087067 301.381744,486.679596 299.872253,487.465820 
	C298.707062,488.072601 297.545685,487.870605 296.653259,486.958954 
	C295.399109,485.677704 293.976532,484.585876 292.308746,485.772705 
	C290.400452,487.130707 291.633881,489.101135 292.021210,491.620392 
M247.738785,630.725342 
	C246.004074,625.670715 240.551941,624.563538 237.347580,621.030273 
	C236.287140,619.860901 234.786957,620.712708 234.329895,622.299072 
	C232.916275,627.205688 232.993454,633.260681 236.613831,635.776428 
	C241.421860,639.117493 242.831787,641.799377 240.997192,647.113586 
	C240.382858,648.893127 242.377426,651.318848 240.813812,653.321838 
	C239.095047,655.523499 239.194534,657.391235 240.994934,659.560059 
	C243.381760,662.435242 242.068237,664.548279 238.997147,665.677979 
	C237.142273,666.360229 235.125351,666.640137 233.159790,666.974854 
	C229.642487,667.573730 227.780960,666.246521 227.822479,662.452698 
	C227.847137,660.198914 228.316620,657.585510 225.608521,656.310974 
	C220.378250,653.849426 221.168243,649.764160 223.022690,645.775452 
	C224.332962,642.957031 225.516617,640.686279 221.994705,638.663635 
	C220.588959,637.856384 220.109406,636.331604 220.760437,634.718445 
	C221.455399,632.996460 222.878601,632.780884 224.492661,633.120239 
	C225.455505,633.322754 226.435104,633.765076 227.519409,632.584717 
	C229.280045,627.747864 224.945236,626.675720 222.029739,625.791565 
	C218.760712,624.800293 216.567459,627.100464 215.479340,630.403015 
	C211.724838,641.798218 214.236572,653.591858 213.064270,665.127502 
	C212.490677,670.771545 216.579987,673.786438 218.824890,677.794739 
	C219.810959,679.555359 221.427307,678.208069 221.874359,676.438782 
	C222.526566,673.857422 222.988953,671.169434 226.153244,670.333130 
	C227.937088,671.212524 228.328430,673.888794 230.867767,673.636108 
	C235.850296,673.140259 239.650406,669.830139 243.487167,667.364929 
	C245.636398,665.983887 246.994202,662.947937 250.146011,662.162659 
	C252.060410,661.685669 253.203217,660.083801 253.447083,658.137817 
	C253.706894,656.064636 251.719849,655.988586 250.496429,655.314087 
	C245.946289,652.805786 245.827545,650.824951 250.136719,647.854065 
	C250.943329,647.297913 251.987625,647.043640 252.338104,645.529785 
	C249.584946,641.423401 253.685135,635.007690 247.738785,630.725342 
M251.425476,579.817139 
	C255.071472,579.584961 258.647308,580.770874 262.358276,580.047729 
	C268.858582,578.781067 275.244293,576.900879 281.959778,576.706177 
	C284.912415,576.620483 285.929596,573.143494 283.898590,570.657104 
	C282.284485,568.681091 280.123840,568.342163 277.598389,568.568420 
	C266.995880,569.518250 256.365295,570.161438 245.768524,571.165466 
	C235.351608,572.152466 224.871613,572.860046 214.792374,576.047791 
	C213.490112,576.459595 212.060226,576.875183 211.987320,578.468750 
	C211.906555,580.233765 213.210571,581.141479 214.762192,581.528137 
	C220.718506,583.012390 226.501968,584.407593 232.882614,582.681641 
	C238.580261,581.140503 244.467697,579.722412 251.425476,579.817139 
M308.112366,664.356995 
	C308.713867,666.258301 311.203400,663.944946 311.737183,666.007446 
	C312.115967,667.459167 311.211731,668.525879 310.516876,669.625732 
	C308.063141,673.509766 308.806122,677.559753 310.986572,680.925598 
	C313.144775,684.257080 317.231293,683.014343 320.161835,682.198181 
	C324.263763,681.055847 329.709229,681.143005 330.955994,674.967468 
	C328.479309,673.837646 325.948334,673.587402 323.842743,671.627441 
	C321.087158,669.062439 320.495453,667.599182 324.223297,665.944214 
	C325.630737,665.319397 326.197845,664.185120 326.267944,662.796570 
	C326.356720,661.037720 324.903107,660.825989 323.656921,660.330688 
	C317.328339,657.815735 316.893250,656.541687 320.410400,651.045898 
	C321.028168,650.080566 322.001984,649.221497 320.416443,647.541321 
	C318.348053,648.033569 316.101105,650.366089 313.426544,648.812622 
	C309.974274,646.807556 306.988800,647.275330 304.958984,650.824097 
	C303.251495,653.809265 304.868805,658.235413 308.344299,660.187744 
	C310.860229,661.601074 310.571014,662.695557 308.112366,664.356995 
M255.395309,150.153336 
	C252.690094,151.951004 251.974106,154.327927 252.832809,157.483841 
	C253.562057,160.164047 253.503021,162.785538 252.766083,165.696289 
	C251.599808,170.302902 250.839539,175.344238 255.086304,179.633072 
	C258.338013,176.169922 257.668182,171.993561 258.362671,168.064682 
	C261.496552,172.714142 260.723083,178.384964 262.838226,184.231995 
	C265.512512,176.906555 267.171387,170.169403 263.897400,164.111725 
	C261.592377,159.846863 258.738800,156.125458 258.688110,151.017792 
	C258.670135,149.205383 257.796936,148.018311 255.395309,150.153336 
M260.115540,711.263794 
	C261.068542,712.170227 262.309540,712.999023 261.453766,714.587952 
	C260.722198,715.946289 261.350067,716.782898 262.410004,717.489746 
	C264.483643,718.872498 267.146515,719.690002 268.854462,717.989319 
	C270.596863,716.254333 271.802734,713.346191 271.266968,710.805115 
	C270.643341,707.847290 267.984985,708.971741 265.881805,709.234314 
	C261.367645,709.797974 260.269714,708.431335 261.891479,704.302673 
	C262.365265,703.096558 262.857574,701.646851 263.808899,700.924194 
	C267.263916,698.299805 265.361816,695.317566 263.518250,693.795959 
	C261.080322,691.783630 257.714355,689.119446 254.321228,691.290894 
	C251.925308,692.824219 250.066040,695.705444 252.228790,699.027161 
	C254.756180,702.908936 256.524506,707.267151 260.115540,711.263794 
M292.276855,659.127380 
	C293.566742,660.530151 294.289520,662.771973 296.762543,662.480225 
	C297.909851,662.344788 298.548096,661.207153 298.317688,660.274475 
	C297.544617,657.145264 298.714752,653.968994 298.038727,650.931641 
	C297.441254,648.247070 297.327209,644.446106 292.533905,646.522766 
	C291.052734,647.164429 290.390015,645.569580 289.523254,644.552002 
	C286.709961,641.249084 284.700226,641.620178 283.361633,645.750305 
	C282.921631,647.108032 281.712891,648.315674 282.332001,650.372559 
	C287.223175,650.831909 287.758881,656.632080 292.276855,659.127380 
M260.066040,217.565903 
	C266.038757,230.739807 266.038757,230.739807 269.912262,231.692078 
	C264.658203,219.505295 262.559814,206.684296 256.702209,195.111710 
	C256.081787,202.701126 261.899445,209.182236 260.066040,217.565903 
M218.901184,710.092773 
	C226.000320,709.869629 226.013290,704.278564 227.117828,699.407654 
	C227.466187,697.871521 227.895828,696.544617 226.474472,695.375671 
	C225.037170,694.193665 223.469650,694.099304 221.838989,694.842834 
	C219.371231,695.967957 216.363876,707.210632 217.863113,709.648865 
	C217.937912,709.770508 218.144867,709.810852 218.901184,710.092773 
M340.965179,712.844177 
	C344.391205,713.678589 345.535614,715.045166 342.048523,717.490967 
	C340.424408,718.630066 338.634857,719.597717 337.225922,720.959290 
	C336.052551,722.093262 335.212402,723.802246 336.482697,725.379150 
	C337.547974,726.701477 338.972412,726.156616 340.533356,725.867188 
	C343.647369,725.289551 342.780243,722.123230 344.532959,720.652222 
	C347.720642,717.976929 347.419830,715.039612 344.477509,712.166260 
	C343.080109,710.801575 341.927490,709.186218 340.434906,707.412048 
	C338.746124,709.155762 334.825989,707.593689 334.906250,711.697205 
	C336.547455,713.246826 338.472473,712.565002 340.965179,712.844177 
M280.838623,717.844727 
	C281.234436,719.789185 281.470367,721.879944 283.875732,722.446350 
	C284.944702,722.698120 285.861237,722.168579 286.313202,721.190247 
	C287.409149,718.817749 286.432922,717.153137 284.459320,715.718506 
	C283.225433,714.821655 282.613892,713.450806 282.582245,711.858459 
	C282.511963,708.327637 280.027527,707.426208 276.780426,706.532471 
	C276.529968,710.933960 278.492249,714.063538 280.838623,717.844727 
M337.079468,699.231812 
	C334.922424,700.496277 334.045380,701.902588 337.352234,702.386597 
	C338.878357,702.609985 340.492249,702.277649 341.020996,704.031067 
	C342.137634,707.733948 345.159027,706.610596 347.625458,706.798828 
	C349.265350,706.924011 350.602570,706.245117 350.840485,704.410645 
	C351.102356,702.391235 350.015686,701.292419 348.111877,700.953369 
	C344.688782,700.343811 341.258118,699.776672 337.079468,699.231812 
M313.705719,287.496887 
	C311.383484,289.010315 311.571320,291.027161 312.683472,293.122986 
	C313.167603,294.035309 314.104187,294.735596 315.156403,294.321808 
	C317.158661,293.534332 317.369812,291.507050 317.649139,289.769562 
	C318.147156,286.671692 318.511902,283.534698 318.639343,280.402161 
	C318.705719,278.770935 319.352722,276.660309 316.530640,275.549133 
	C314.457642,279.078979 315.510010,283.286713 313.705719,287.496887 
M286.464325,249.520126 
	C286.758362,245.960556 286.797943,242.462036 283.922607,238.629166 
	C281.522308,242.837036 281.504456,246.732193 281.343597,250.530273 
	C281.293762,251.706268 282.369995,252.755814 283.612061,252.818878 
	C285.232361,252.901169 285.671265,251.411270 286.464325,249.520126 
M329.481903,708.567810 
	C328.403595,707.242554 327.613159,704.818481 325.352875,706.613525 
	C323.741760,707.893066 322.790314,709.903503 324.567627,711.827942 
	C326.709991,714.147644 327.783539,716.861572 327.733398,720.761169 
	C331.171661,716.711914 330.339630,712.978027 329.481903,708.567810 
M243.525925,714.079102 
	C243.245071,717.083130 245.589157,719.105042 247.515533,718.251343 
	C249.979752,717.159241 252.982773,715.371033 253.637497,712.144226 
	C253.905426,710.823669 252.162628,709.838135 251.305664,710.785156 
	C249.200317,713.111572 246.274155,712.510010 243.525925,714.079102 
M254.477097,686.607788 
	C255.116852,684.442505 255.065323,682.525818 252.243149,682.262329 
	C250.547684,682.104126 248.318817,681.389832 247.581451,683.733154 
	C247.062729,685.381714 246.708557,687.526550 248.654892,688.622498 
	C250.732178,689.792114 252.791107,689.651367 254.477097,686.607788 
M375.590271,767.972290 
	C374.380249,766.935303 373.170227,765.898315 371.926697,764.832581 
	C370.612946,766.045959 369.096527,766.906799 369.937653,769.634216 
	C372.749969,767.783447 375.159363,770.719360 378.046112,770.361633 
	C378.226837,768.639404 377.067566,768.569580 375.590271,767.972290 
M355.504211,717.467407 
	C357.128967,717.341614 358.221649,718.318115 359.406494,719.223145 
	C360.255127,719.871338 361.335876,719.856201 362.015076,718.916748 
	C362.341705,718.465027 362.506195,717.648926 362.335999,717.132263 
	C361.853882,715.668945 360.427124,715.109436 359.179657,715.349915 
	C357.717957,715.631653 355.013031,713.629761 355.504211,717.467407 
M228.853271,767.872925 
	C230.293640,768.383911 231.499344,769.914307 233.563126,768.842346 
	C232.864059,765.396545 230.231567,764.941589 227.723862,765.607178 
	C226.105438,766.036804 227.732437,766.972778 228.853271,767.872925 
M292.168335,204.959106 
	C293.462097,202.523270 292.920502,200.417511 290.955505,197.875931 
	C289.950012,200.832275 289.161011,203.085602 292.168335,204.959106 
M219.419342,53.180531 
	C220.820847,53.749519 222.201111,54.201450 223.220551,52.562496 
	C222.890778,50.689404 221.694107,50.009892 220.035004,50.265709 
	C218.584427,50.489376 218.142792,51.402657 219.419342,53.180531 
M291.226166,108.893684 
	C289.869781,109.418678 288.245544,109.575180 287.109039,111.847626 
	C290.386078,110.829407 293.389191,111.361717 295.276703,108.616287 
	C293.898254,107.597107 292.882202,108.522247 291.226166,108.893684 
M293.581451,192.325027 
	C293.854034,190.488403 294.482605,188.633896 293.378876,186.764542 
	C290.651794,190.797897 290.650574,190.912018 293.581451,192.325027 
z"/>
<path fill="#000000" opacity="1.000000" stroke="none" 
	d="
M402.851654,736.491516 
	C399.909698,735.769836 398.945282,733.964600 399.076111,731.220032 
	C401.892975,729.748474 403.582794,731.781738 405.519287,732.885376 
	C405.548462,734.806274 404.617584,735.803589 402.851654,736.491516 
z"/>
<path fill="#000000" opacity="1.000000" stroke="none" 
	d="
M374.414398,658.769104 
	C376.011139,659.679443 377.528351,660.473877 376.666107,662.279724 
	C375.989563,663.696594 374.477905,663.514404 373.178558,663.239014 
	C371.962219,662.981201 371.014038,662.226379 371.085968,660.898010 
	C371.183899,659.089111 372.267212,658.308899 374.414398,658.769104 
z"/>
<path fill="#000000" opacity="1.000000" stroke="none" 
	d="
M355.171021,666.313232 
	C351.774567,668.839905 351.303253,668.588013 349.717834,663.404785 
	C352.261932,662.898132 353.661377,664.503418 355.171021,666.313232 
z"/>
<path fill="#000000" opacity="1.000000" stroke="none" 
	d="
M349.606445,658.159912 
	C348.444550,657.524109 347.497833,657.072083 348.027832,655.317932 
	C350.188995,655.450256 352.474213,655.590149 355.207489,655.757507 
	C354.139343,658.898987 351.879700,658.221130 349.606445,658.159912 
z"/>
<path fill="#000000" opacity="1.000000" stroke="none" 
	d="
M294.164673,277.558411 
	C292.747894,274.598480 293.590698,272.566986 296.016113,270.651276 
	C297.641968,272.540619 297.770905,274.757935 297.631317,276.746338 
	C297.483978,278.845490 296.456055,280.557709 294.164673,277.558411 
z"/>
<path fill="#000000" opacity="1.000000" stroke="none" 
	d="
M304.428925,271.702820 
	C304.991211,273.253906 305.643005,274.476227 304.264923,275.910828 
	C301.817841,273.457306 301.343781,270.482819 300.867249,267.041351 
	C303.829071,267.702026 303.370422,270.015717 304.428925,271.702820 
z"/>
<path fill="#000000" opacity="1.000000" stroke="none" 
	d="
M238.342529,633.491089 
	C237.064606,629.363770 237.064606,629.363770 243.840546,629.669434 
	C245.040771,632.132202 243.411133,633.835327 241.859512,635.117432 
	C240.540268,636.207520 239.587891,634.477539 238.342529,633.491089 
z"/>
</svg>